<?xml version="1.0" encoding="UTF-8" standalone="no"?>
<!DOCTYPE svg PUBLIC "-//W3C//DTD SVG 1.1//EN"
 "http://www.w3.org/Graphics/SVG/1.1/DTD/svg11.dtd">
<!-- Generated by graphviz version 2.43.0 (0)
 -->
<!-- Title: flow Pages: 1 -->
<svg width="482pt" height="779pt"
 viewBox="0.00 0.00 482.00 779.00" xmlns="http://www.w3.org/2000/svg" xmlns:xlink="http://www.w3.org/1999/xlink">
<g id="graph0" class="graph" transform="scale(1 1) rotate(0) translate(4 775)">
<title>flow</title>
<polygon fill="white" stroke="transparent" points="-4,4 -4,-775 478,-775 478,4 -4,4"/>
<!-- start_if_elif_else_flow -->
<g id="node1" class="node">
<title>start_if_elif_else_flow</title>
<path fill="lightgreen" stroke="black" d="M313,-771C313,-771 114,-771 114,-771 108,-771 102,-765 102,-759 102,-759 102,-730 102,-730 102,-724 108,-718 114,-718 114,-718 313,-718 313,-718 319,-718 325,-724 325,-730 325,-730 325,-759 325,-759 325,-765 319,-771 313,-771"/>
<polygon fill="white" stroke="transparent" points="116.5,-731.5 116.5,-756.5 311.5,-756.5 311.5,-731.5 116.5,-731.5"/>
<polygon fill="none" stroke="black" points="116.5,-731.5 116.5,-756.5 311.5,-756.5 311.5,-731.5 116.5,-731.5"/>
<text text-anchor="start" x="123.5" y="-742.5" font-family="Courier,monospace" font-style="italic" font-size="10.00">p = start_if_elif_else_flow(p)</text>
</g>
<!-- handler_validate -->
<g id="node9" class="node">
<title>handler_validate</title>
<path fill="lightblue" stroke="black" d="M292,-681C292,-681 135,-681 135,-681 129,-681 123,-675 123,-669 123,-669 123,-640 123,-640 123,-634 129,-628 135,-628 135,-628 292,-628 292,-628 298,-628 304,-634 304,-640 304,-640 304,-669 304,-669 304,-675 298,-681 292,-681"/>
<polygon fill="white" stroke="transparent" points="137.5,-641.5 137.5,-666.5 290.5,-666.5 290.5,-641.5 137.5,-641.5"/>
<polygon fill="none" stroke="black" points="137.5,-641.5 137.5,-666.5 290.5,-666.5 290.5,-641.5 137.5,-641.5"/>
<text text-anchor="start" x="144.5" y="-652.5" font-family="Courier,monospace" font-style="italic" font-size="10.00">p = handler_validate(p)</text>
</g>
<!-- start_if_elif_else_flow&#45;&gt;handler_validate -->
<g id="edge10" class="edge">
<title>start_if_elif_else_flow&#45;&gt;handler_validate</title>
<path fill="none" stroke="black" d="M213.5,-717.57C213.5,-709.34 213.5,-700.08 213.5,-691.28"/>
<polygon fill="black" stroke="black" points="217,-691.24 213.5,-681.24 210,-691.24 217,-691.24"/>
</g>
<!-- router_if_elif_else_flow_line_12_if -->
<g id="node2" class="node">
<title>router_if_elif_else_flow_line_12_if</title>
<path fill="wheat" stroke="black" d="M349,-433C349,-433 78,-433 78,-433 72,-433 66,-427 66,-421 66,-421 66,-334 66,-334 66,-328 72,-322 78,-322 78,-322 349,-322 349,-322 355,-322 361,-328 361,-334 361,-334 361,-421 361,-421 361,-427 355,-433 349,-433"/>
<polygon fill="white" stroke="transparent" points="80.5,-393.5 80.5,-418.5 347.5,-418.5 347.5,-393.5 80.5,-393.5"/>
<polygon fill="none" stroke="black" points="80.5,-393.5 80.5,-418.5 347.5,-418.5 347.5,-393.5 80.5,-393.5"/>
<text text-anchor="start" x="87.5" y="-404.5" font-family="Courier,monospace" font-style="italic" font-size="10.00">p = router_if_elif_else_flow_line_12_if(p)</text>
<polygon fill="lightyellow" stroke="transparent" points="80.5,-368.5 80.5,-393.5 347.5,-393.5 347.5,-368.5 80.5,-368.5"/>
<polygon fill="none" stroke="black" points="80.5,-368.5 80.5,-393.5 347.5,-393.5 347.5,-368.5 80.5,-368.5"/>
<text text-anchor="start" x="156" y="-379.5" font-family="Courier,monospace" font-weight="bold" font-size="10.00">if</text>
<text text-anchor="start" x="169" y="-379.5" font-family="Courier,monospace" font-size="10.00"> p[&#39;type&#39;] == &#39;B&#39;</text>
<polygon fill="none" stroke="black" points="80.5,-335.5 80.5,-368.5 347.5,-368.5 347.5,-335.5 80.5,-335.5"/>
<polygon fill="#698b69" stroke="transparent" points="87.5,-342.5 87.5,-361.5 211.5,-361.5 211.5,-342.5 87.5,-342.5"/>
<text text-anchor="start" x="137" y="-350.5" font-family="Courier,monospace" font-weight="bold" font-size="10.00" fill="white">TRUE</text>
<polygon fill="#8b3a3a" stroke="transparent" points="211.5,-342.5 211.5,-361.5 340.5,-361.5 340.5,-342.5 211.5,-342.5"/>
<text text-anchor="start" x="260.5" y="-350.5" font-family="Courier,monospace" font-weight="bold" font-size="10.00" fill="white">FALSE</text>
</g>
<!-- handler_default -->
<g id="node5" class="node">
<title>handler_default</title>
<path fill="lightblue" stroke="black" d="M163,-233C163,-233 12,-233 12,-233 6,-233 0,-227 0,-221 0,-221 0,-192 0,-192 0,-186 6,-180 12,-180 12,-180 163,-180 163,-180 169,-180 175,-186 175,-192 175,-192 175,-221 175,-221 175,-227 169,-233 163,-233"/>
<polygon fill="white" stroke="transparent" points="14.5,-193.5 14.5,-218.5 161.5,-218.5 161.5,-193.5 14.5,-193.5"/>
<polygon fill="none" stroke="black" points="14.5,-193.5 14.5,-218.5 161.5,-218.5 161.5,-193.5 14.5,-193.5"/>
<text text-anchor="start" x="21.5" y="-204.5" font-family="Courier,monospace" font-style="italic" font-size="10.00">p = handler_default(p)</text>
</g>
<!-- router_if_elif_else_flow_line_12_if&#45;&gt;handler_default -->
<g id="edge8" class="edge">
<title>router_if_elif_else_flow_line_12_if&#45;&gt;handler_default</title>
<path fill="none" stroke="#8b3a3a" d="M172.59,-321.63C152.88,-295.19 129.86,-264.32 112.74,-241.36"/>
<polygon fill="#8b3a3a" stroke="#8b3a3a" points="115.5,-239.2 106.72,-233.28 109.89,-243.39 115.5,-239.2"/>
<text text-anchor="middle" x="162" y="-275" font-family="Courier,monospace" font-size="10.00">F</text>
</g>
<!-- handler_type_b -->
<g id="node8" class="node">
<title>handler_type_b</title>
<path fill="lightblue" stroke="black" d="M350,-233C350,-233 205,-233 205,-233 199,-233 193,-227 193,-221 193,-221 193,-192 193,-192 193,-186 199,-180 205,-180 205,-180 350,-180 350,-180 356,-180 362,-186 362,-192 362,-192 362,-221 362,-221 362,-227 356,-233 350,-233"/>
<polygon fill="white" stroke="transparent" points="207.5,-193.5 207.5,-218.5 348.5,-218.5 348.5,-193.5 207.5,-193.5"/>
<polygon fill="none" stroke="black" points="207.5,-193.5 207.5,-218.5 348.5,-218.5 348.5,-193.5 207.5,-193.5"/>
<text text-anchor="start" x="214.5" y="-204.5" font-family="Courier,monospace" font-style="italic" font-size="10.00">p = handler_type_b(p)</text>
</g>
<!-- router_if_elif_else_flow_line_12_if&#45;&gt;handler_type_b -->
<g id="edge9" class="edge">
<title>router_if_elif_else_flow_line_12_if&#45;&gt;handler_type_b</title>
<path fill="none" stroke="#698b69" d="M234.28,-321.63C244.07,-295.77 255.47,-265.67 264.1,-242.88"/>
<polygon fill="#698b69" stroke="#698b69" points="267.47,-243.87 267.74,-233.28 260.92,-241.39 267.47,-243.87"/>
<text text-anchor="middle" x="263" y="-275" font-family="Courier,monospace" font-size="10.00">T</text>
</g>
<!-- router_if_elif_else_flow_line_10_if -->
<g id="node3" class="node">
<title>router_if_elif_else_flow_line_10_if</title>
<path fill="wheat" stroke="black" d="M349,-591C349,-591 78,-591 78,-591 72,-591 66,-585 66,-579 66,-579 66,-492 66,-492 66,-486 72,-480 78,-480 78,-480 349,-480 349,-480 355,-480 361,-486 361,-492 361,-492 361,-579 361,-579 361,-585 355,-591 349,-591"/>
<polygon fill="white" stroke="transparent" points="80.5,-551.5 80.5,-576.5 347.5,-576.5 347.5,-551.5 80.5,-551.5"/>
<polygon fill="none" stroke="black" points="80.5,-551.5 80.5,-576.5 347.5,-576.5 347.5,-551.5 80.5,-551.5"/>
<text text-anchor="start" x="87.5" y="-562.5" font-family="Courier,monospace" font-style="italic" font-size="10.00">p = router_if_elif_else_flow_line_10_if(p)</text>
<polygon fill="lightyellow" stroke="transparent" points="80.5,-526.5 80.5,-551.5 347.5,-551.5 347.5,-526.5 80.5,-526.5"/>
<polygon fill="none" stroke="black" points="80.5,-526.5 80.5,-551.5 347.5,-551.5 347.5,-526.5 80.5,-526.5"/>
<text text-anchor="start" x="156" y="-537.5" font-family="Courier,monospace" font-weight="bold" font-size="10.00">if</text>
<text text-anchor="start" x="169" y="-537.5" font-family="Courier,monospace" font-size="10.00"> p[&#39;type&#39;] == &#39;A&#39;</text>
<polygon fill="none" stroke="black" points="80.5,-493.5 80.5,-526.5 347.5,-526.5 347.5,-493.5 80.5,-493.5"/>
<polygon fill="#698b69" stroke="transparent" points="87.5,-500.5 87.5,-519.5 211.5,-519.5 211.5,-500.5 87.5,-500.5"/>
<text text-anchor="start" x="137" y="-508.5" font-family="Courier,monospace" font-weight="bold" font-size="10.00" fill="white">TRUE</text>
<polygon fill="#8b3a3a" stroke="transparent" points="211.5,-500.5 211.5,-519.5 340.5,-519.5 340.5,-500.5 211.5,-500.5"/>
<text text-anchor="start" x="260.5" y="-508.5" font-family="Courier,monospace" font-weight="bold" font-size="10.00" fill="white">FALSE</text>
</g>
<!-- router_if_elif_else_flow_line_10_if&#45;&gt;router_if_elif_else_flow_line_12_if -->
<g id="edge7" class="edge">
<title>router_if_elif_else_flow_line_10_if&#45;&gt;router_if_elif_else_flow_line_12_if</title>
<path fill="none" stroke="#8b3a3a" d="M213.5,-479.94C213.5,-468.06 213.5,-455.39 213.5,-443.17"/>
<polygon fill="#8b3a3a" stroke="#8b3a3a" points="217,-443.03 213.5,-433.03 210,-443.03 217,-443.03"/>
<text text-anchor="middle" x="217" y="-454" font-family="Courier,monospace" font-size="10.00">F</text>
</g>
<!-- handler_type_a -->
<g id="node7" class="node">
<title>handler_type_a</title>
<path fill="lightblue" stroke="black" d="M462,-304C462,-304 317,-304 317,-304 311,-304 305,-298 305,-292 305,-292 305,-263 305,-263 305,-257 311,-251 317,-251 317,-251 462,-251 462,-251 468,-251 474,-257 474,-263 474,-263 474,-292 474,-292 474,-298 468,-304 462,-304"/>
<polygon fill="white" stroke="transparent" points="319.5,-264.5 319.5,-289.5 460.5,-289.5 460.5,-264.5 319.5,-264.5"/>
<polygon fill="none" stroke="black" points="319.5,-264.5 319.5,-289.5 460.5,-289.5 460.5,-264.5 319.5,-264.5"/>
<text text-anchor="start" x="326.5" y="-275.5" font-family="Courier,monospace" font-style="italic" font-size="10.00">p = handler_type_a(p)</text>
</g>
<!-- router_if_elif_else_flow_line_10_if&#45;&gt;handler_type_a -->
<g id="edge6" class="edge">
<title>router_if_elif_else_flow_line_10_if&#45;&gt;handler_type_a</title>
<path fill="none" stroke="#698b69" d="M325.78,-479.76C343.18,-466.69 359.13,-451.15 370.5,-433 392.9,-397.25 395.04,-347.65 393.31,-314.38"/>
<polygon fill="#698b69" stroke="#698b69" points="396.79,-313.94 392.63,-304.2 389.8,-314.41 396.79,-313.94"/>
<text text-anchor="middle" x="358" y="-454" font-family="Courier,monospace" font-size="10.00">T</text>
</g>
<!-- end_if_elif_else_flow -->
<g id="node4" class="node">
<title>end_if_elif_else_flow</title>
<path fill="lightgreen" stroke="black" d="M371,-53C371,-53 184,-53 184,-53 178,-53 172,-47 172,-41 172,-41 172,-12 172,-12 172,-6 178,0 184,0 184,0 371,0 371,0 377,0 383,-6 383,-12 383,-12 383,-41 383,-41 383,-47 377,-53 371,-53"/>
<polygon fill="white" stroke="transparent" points="186.5,-13.5 186.5,-38.5 369.5,-38.5 369.5,-13.5 186.5,-13.5"/>
<polygon fill="none" stroke="black" points="186.5,-13.5 186.5,-38.5 369.5,-38.5 369.5,-13.5 186.5,-13.5"/>
<text text-anchor="start" x="193.5" y="-24.5" font-family="Courier,monospace" font-style="italic" font-size="10.00">p = end_if_elif_else_flow(p)</text>
</g>
<!-- handler_finalize -->
<g id="node6" class="node">
<title>handler_finalize</title>
<path fill="lightblue" stroke="black" d="M356,-143C356,-143 199,-143 199,-143 193,-143 187,-137 187,-131 187,-131 187,-102 187,-102 187,-96 193,-90 199,-90 199,-90 356,-90 356,-90 362,-90 368,-96 368,-102 368,-102 368,-131 368,-131 368,-137 362,-143 356,-143"/>
<polygon fill="white" stroke="transparent" points="201.5,-103.5 201.5,-128.5 354.5,-128.5 354.5,-103.5 201.5,-103.5"/>
<polygon fill="none" stroke="black" points="201.5,-103.5 201.5,-128.5 354.5,-128.5 354.5,-103.5 201.5,-103.5"/>
<text text-anchor="start" x="208.5" y="-114.5" font-family="Courier,monospace" font-style="italic" font-size="10.00">p = handler_finalize(p)</text>
</g>
<!-- handler_default&#45;&gt;handler_finalize -->
<g id="edge1" class="edge">
<title>handler_default&#45;&gt;handler_finalize</title>
<path fill="none" stroke="black" d="M142.71,-179.93C164.67,-169.76 190.08,-157.99 212.89,-147.42"/>
<polygon fill="black" stroke="black" points="214.55,-150.51 222.15,-143.14 211.61,-144.16 214.55,-150.51"/>
</g>
<!-- handler_finalize&#45;&gt;end_if_elif_else_flow -->
<g id="edge2" class="edge">
<title>handler_finalize&#45;&gt;end_if_elif_else_flow</title>
<path fill="none" stroke="black" d="M277.5,-89.57C277.5,-81.34 277.5,-72.08 277.5,-63.28"/>
<polygon fill="black" stroke="black" points="281,-63.24 277.5,-53.24 274,-63.24 281,-63.24"/>
</g>
<!-- handler_type_a&#45;&gt;handler_finalize -->
<g id="edge3" class="edge">
<title>handler_type_a&#45;&gt;handler_finalize</title>
<path fill="none" stroke="black" d="M389.68,-250.7C388.66,-230.01 384.49,-201.04 370.5,-180 362.45,-167.89 351.17,-157.52 339.24,-148.92"/>
<polygon fill="black" stroke="black" points="341.14,-145.97 330.9,-143.24 337.19,-151.76 341.14,-145.97"/>
</g>
<!-- handler_type_b&#45;&gt;handler_finalize -->
<g id="edge4" class="edge">
<title>handler_type_b&#45;&gt;handler_finalize</title>
<path fill="none" stroke="black" d="M277.5,-179.57C277.5,-171.34 277.5,-162.08 277.5,-153.28"/>
<polygon fill="black" stroke="black" points="281,-153.24 277.5,-143.24 274,-153.24 281,-153.24"/>
</g>
<!-- handler_validate&#45;&gt;router_if_elif_else_flow_line_10_if -->
<g id="edge5" class="edge">
<title>handler_validate&#45;&gt;router_if_elif_else_flow_line_10_if</title>
<path fill="none" stroke="black" d="M213.5,-627.82C213.5,-619.92 213.5,-610.83 213.5,-601.53"/>
<polygon fill="black" stroke="black" points="217,-601.38 213.5,-591.38 210,-601.38 217,-601.38"/>
</g>
</g>
</svg>
