<?xml version="1.0" encoding="UTF-8" standalone="no"?>
<!DOCTYPE svg PUBLIC "-//W3C//DTD SVG 1.1//EN"
 "http://www.w3.org/Graphics/SVG/1.1/DTD/svg11.dtd">
<!-- Generated by graphviz version 2.43.0 (0)
 -->
<!-- Title: flow Pages: 1 -->
<svg width="1194pt" height="877pt"
 viewBox="0.00 0.00 1194.00 877.00" xmlns="http://www.w3.org/2000/svg" xmlns:xlink="http://www.w3.org/1999/xlink">
<g id="graph0" class="graph" transform="scale(1 1) rotate(0) translate(4 873)">
<title>flow</title>
<polygon fill="white" stroke="transparent" points="-4,4 -4,-873 1190,-873 1190,4 -4,4"/>
<!-- start_nested_if_flow -->
<g id="node1" class="node">
<title>start_nested_if_flow</title>
<path fill="lightgreen" stroke="black" d="M683,-869C683,-869 502,-869 502,-869 496,-869 490,-863 490,-857 490,-857 490,-828 490,-828 490,-822 496,-816 502,-816 502,-816 683,-816 683,-816 689,-816 695,-822 695,-828 695,-828 695,-857 695,-857 695,-863 689,-869 683,-869"/>
<polygon fill="white" stroke="transparent" points="504.5,-829.5 504.5,-854.5 681.5,-854.5 681.5,-829.5 504.5,-829.5"/>
<polygon fill="none" stroke="black" points="504.5,-829.5 504.5,-854.5 681.5,-854.5 681.5,-829.5 504.5,-829.5"/>
<text text-anchor="start" x="511.5" y="-840.5" font-family="Courier,monospace" font-style="italic" font-size="10.00">p = start_nested_if_flow(p)</text>
</g>
<!-- handler_validate -->
<g id="node15" class="node">
<title>handler_validate</title>
<path fill="lightblue" stroke="black" d="M671,-779C671,-779 514,-779 514,-779 508,-779 502,-773 502,-767 502,-767 502,-738 502,-738 502,-732 508,-726 514,-726 514,-726 671,-726 671,-726 677,-726 683,-732 683,-738 683,-738 683,-767 683,-767 683,-773 677,-779 671,-779"/>
<polygon fill="white" stroke="transparent" points="516.5,-739.5 516.5,-764.5 669.5,-764.5 669.5,-739.5 516.5,-739.5"/>
<polygon fill="none" stroke="black" points="516.5,-739.5 516.5,-764.5 669.5,-764.5 669.5,-739.5 516.5,-739.5"/>
<text text-anchor="start" x="523.5" y="-750.5" font-family="Courier,monospace" font-style="italic" font-size="10.00">p = handler_validate(p)</text>
</g>
<!-- start_nested_if_flow&#45;&gt;handler_validate -->
<g id="edge17" class="edge">
<title>start_nested_if_flow&#45;&gt;handler_validate</title>
<path fill="none" stroke="black" d="M592.5,-815.57C592.5,-807.34 592.5,-798.08 592.5,-789.28"/>
<polygon fill="black" stroke="black" points="596,-789.24 592.5,-779.24 589,-789.24 596,-789.24"/>
</g>
<!-- router_nested_if_flow_line_13_seq -->
<g id="node2" class="node">
<title>router_nested_if_flow_line_13_seq</title>
<path fill="wheat" stroke="black" d="M271,-348C271,-348 12,-348 12,-348 6,-348 0,-342 0,-336 0,-336 0,-282 0,-282 0,-276 6,-270 12,-270 12,-270 271,-270 271,-270 277,-270 283,-276 283,-282 283,-282 283,-336 283,-336 283,-342 277,-348 271,-348"/>
<polygon fill="white" stroke="transparent" points="14.5,-309 14.5,-334 269.5,-334 269.5,-309 14.5,-309"/>
<polygon fill="none" stroke="black" points="14.5,-309 14.5,-334 269.5,-334 269.5,-309 14.5,-309"/>
<text text-anchor="start" x="21.5" y="-320" font-family="Courier,monospace" font-style="italic" font-size="10.00">p = router_nested_if_flow_line_13_seq(p)</text>
<polygon fill="white" stroke="transparent" points="14.5,-284 14.5,-309 269.5,-309 269.5,-284 14.5,-284"/>
<polygon fill="none" stroke="black" points="14.5,-284 14.5,-309 269.5,-309 269.5,-284 14.5,-284"/>
<text text-anchor="start" x="21.5" y="-294" font-family="Courier,monospace" font-size="10.00">p[&#39;l2&#39;] = &#39;X&#39;</text>
</g>
<!-- handler_a_x -->
<g id="node10" class="node">
<title>handler_a_x</title>
<path fill="lightblue" stroke="black" d="M353,-233C353,-233 226,-233 226,-233 220,-233 214,-227 214,-221 214,-221 214,-192 214,-192 214,-186 220,-180 226,-180 226,-180 353,-180 353,-180 359,-180 365,-186 365,-192 365,-192 365,-221 365,-221 365,-227 359,-233 353,-233"/>
<polygon fill="white" stroke="transparent" points="228.5,-193.5 228.5,-218.5 351.5,-218.5 351.5,-193.5 228.5,-193.5"/>
<polygon fill="none" stroke="black" points="228.5,-193.5 228.5,-218.5 351.5,-218.5 351.5,-193.5 228.5,-193.5"/>
<text text-anchor="start" x="235.5" y="-204.5" font-family="Courier,monospace" font-style="italic" font-size="10.00">p = handler_a_x(p)</text>
</g>
<!-- router_nested_if_flow_line_13_seq&#45;&gt;handler_a_x -->
<g id="edge11" class="edge">
<title>router_nested_if_flow_line_13_seq&#45;&gt;handler_a_x</title>
<path fill="none" stroke="black" d="M197.87,-269.72C212.76,-259.61 228.65,-248.82 242.95,-239.11"/>
<polygon fill="black" stroke="black" points="245.32,-241.73 251.62,-233.22 241.38,-235.94 245.32,-241.73"/>
</g>
<!-- router_nested_if_flow_line_16_seq -->
<g id="node3" class="node">
<title>router_nested_if_flow_line_16_seq</title>
<path fill="wheat" stroke="black" d="M572,-348C572,-348 313,-348 313,-348 307,-348 301,-342 301,-336 301,-336 301,-282 301,-282 301,-276 307,-270 313,-270 313,-270 572,-270 572,-270 578,-270 584,-276 584,-282 584,-282 584,-336 584,-336 584,-342 578,-348 572,-348"/>
<polygon fill="white" stroke="transparent" points="315.5,-309 315.5,-334 570.5,-334 570.5,-309 315.5,-309"/>
<polygon fill="none" stroke="black" points="315.5,-309 315.5,-334 570.5,-334 570.5,-309 315.5,-309"/>
<text text-anchor="start" x="322.5" y="-320" font-family="Courier,monospace" font-style="italic" font-size="10.00">p = router_nested_if_flow_line_16_seq(p)</text>
<polygon fill="white" stroke="transparent" points="315.5,-284 315.5,-309 570.5,-309 570.5,-284 315.5,-284"/>
<polygon fill="none" stroke="black" points="315.5,-284 315.5,-309 570.5,-309 570.5,-284 315.5,-284"/>
<text text-anchor="start" x="322.5" y="-294" font-family="Courier,monospace" font-size="10.00">p[&#39;l2&#39;] = &#39;Y&#39;</text>
</g>
<!-- handler_a_y -->
<g id="node11" class="node">
<title>handler_a_y</title>
<path fill="lightblue" stroke="black" d="M555,-233C555,-233 428,-233 428,-233 422,-233 416,-227 416,-221 416,-221 416,-192 416,-192 416,-186 422,-180 428,-180 428,-180 555,-180 555,-180 561,-180 567,-186 567,-192 567,-192 567,-221 567,-221 567,-227 561,-233 555,-233"/>
<polygon fill="white" stroke="transparent" points="430.5,-193.5 430.5,-218.5 553.5,-218.5 553.5,-193.5 430.5,-193.5"/>
<polygon fill="none" stroke="black" points="430.5,-193.5 430.5,-218.5 553.5,-218.5 553.5,-193.5 430.5,-193.5"/>
<text text-anchor="start" x="437.5" y="-204.5" font-family="Courier,monospace" font-style="italic" font-size="10.00">p = handler_a_y(p)</text>
</g>
<!-- router_nested_if_flow_line_16_seq&#45;&gt;handler_a_y -->
<g id="edge12" class="edge">
<title>router_nested_if_flow_line_16_seq&#45;&gt;handler_a_y</title>
<path fill="none" stroke="black" d="M461.16,-269.72C465.53,-260.76 470.17,-251.26 474.46,-242.45"/>
<polygon fill="black" stroke="black" points="477.72,-243.74 478.96,-233.22 471.43,-240.67 477.72,-243.74"/>
</g>
<!-- router_nested_if_flow_line_12_if -->
<g id="node4" class="node">
<title>router_nested_if_flow_line_12_if</title>
<path fill="wheat" stroke="black" d="M569,-531C569,-531 316,-531 316,-531 310,-531 304,-525 304,-519 304,-519 304,-407 304,-407 304,-401 310,-395 316,-395 316,-395 569,-395 569,-395 575,-395 581,-401 581,-407 581,-407 581,-519 581,-519 581,-525 575,-531 569,-531"/>
<polygon fill="white" stroke="transparent" points="318.5,-492 318.5,-517 567.5,-517 567.5,-492 318.5,-492"/>
<polygon fill="none" stroke="black" points="318.5,-492 318.5,-517 567.5,-517 567.5,-492 318.5,-492"/>
<text text-anchor="start" x="325.5" y="-503" font-family="Courier,monospace" font-style="italic" font-size="10.00">p = router_nested_if_flow_line_12_if(p)</text>
<polygon fill="white" stroke="transparent" points="318.5,-467 318.5,-492 567.5,-492 567.5,-467 318.5,-467"/>
<polygon fill="none" stroke="black" points="318.5,-467 318.5,-492 567.5,-492 567.5,-467 318.5,-467"/>
<text text-anchor="start" x="325.5" y="-477" font-family="Courier,monospace" font-size="10.00">p[&#39;l1&#39;] = &#39;A&#39;</text>
<polygon fill="lightyellow" stroke="transparent" points="318.5,-442 318.5,-467 567.5,-467 567.5,-442 318.5,-442"/>
<polygon fill="none" stroke="black" points="318.5,-442 318.5,-467 567.5,-467 567.5,-442 318.5,-442"/>
<text text-anchor="start" x="379" y="-453" font-family="Courier,monospace" font-weight="bold" font-size="10.00">if</text>
<text text-anchor="start" x="392" y="-453" font-family="Courier,monospace" font-size="10.00"> p[&#39;level2&#39;] == &#39;X&#39;</text>
<polygon fill="none" stroke="black" points="318.5,-409 318.5,-442 567.5,-442 567.5,-409 318.5,-409"/>
<polygon fill="#698b69" stroke="transparent" points="325.5,-416 325.5,-435 440.5,-435 440.5,-416 325.5,-416"/>
<text text-anchor="start" x="370.5" y="-424" font-family="Courier,monospace" font-weight="bold" font-size="10.00" fill="white">TRUE</text>
<polygon fill="#8b3a3a" stroke="transparent" points="440.5,-416 440.5,-435 560.5,-435 560.5,-416 440.5,-416"/>
<text text-anchor="start" x="485" y="-424" font-family="Courier,monospace" font-weight="bold" font-size="10.00" fill="white">FALSE</text>
</g>
<!-- router_nested_if_flow_line_12_if&#45;&gt;router_nested_if_flow_line_13_seq -->
<g id="edge9" class="edge">
<title>router_nested_if_flow_line_12_if&#45;&gt;router_nested_if_flow_line_13_seq</title>
<path fill="none" stroke="#698b69" d="M309.6,-394.89C281.14,-380.52 251.84,-365.72 225.82,-352.58"/>
<polygon fill="#698b69" stroke="#698b69" points="227.27,-349.39 216.76,-348.01 224.11,-355.64 227.27,-349.39"/>
<text text-anchor="middle" x="278" y="-369" font-family="Courier,monospace" font-size="10.00">T</text>
</g>
<!-- router_nested_if_flow_line_12_if&#45;&gt;router_nested_if_flow_line_16_seq -->
<g id="edge10" class="edge">
<title>router_nested_if_flow_line_12_if&#45;&gt;router_nested_if_flow_line_16_seq</title>
<path fill="none" stroke="#8b3a3a" d="M442.5,-394.89C442.5,-382.59 442.5,-369.97 442.5,-358.36"/>
<polygon fill="#8b3a3a" stroke="#8b3a3a" points="446,-358.01 442.5,-348.01 439,-358.01 446,-358.01"/>
<text text-anchor="middle" x="446" y="-369" font-family="Courier,monospace" font-size="10.00">F</text>
</g>
<!-- router_nested_if_flow_line_21_seq -->
<g id="node5" class="node">
<title>router_nested_if_flow_line_21_seq</title>
<path fill="wheat" stroke="black" d="M873,-348C873,-348 614,-348 614,-348 608,-348 602,-342 602,-336 602,-336 602,-282 602,-282 602,-276 608,-270 614,-270 614,-270 873,-270 873,-270 879,-270 885,-276 885,-282 885,-282 885,-336 885,-336 885,-342 879,-348 873,-348"/>
<polygon fill="white" stroke="transparent" points="616.5,-309 616.5,-334 871.5,-334 871.5,-309 616.5,-309"/>
<polygon fill="none" stroke="black" points="616.5,-309 616.5,-334 871.5,-334 871.5,-309 616.5,-309"/>
<text text-anchor="start" x="623.5" y="-320" font-family="Courier,monospace" font-style="italic" font-size="10.00">p = router_nested_if_flow_line_21_seq(p)</text>
<polygon fill="white" stroke="transparent" points="616.5,-284 616.5,-309 871.5,-309 871.5,-284 616.5,-284"/>
<polygon fill="none" stroke="black" points="616.5,-284 616.5,-309 871.5,-309 871.5,-284 616.5,-284"/>
<text text-anchor="start" x="623.5" y="-294" font-family="Courier,monospace" font-size="10.00">p[&#39;l2&#39;] = &#39;X&#39;</text>
</g>
<!-- handler_b_x -->
<g id="node12" class="node">
<title>handler_b_x</title>
<path fill="lightblue" stroke="black" d="M790,-233C790,-233 663,-233 663,-233 657,-233 651,-227 651,-221 651,-221 651,-192 651,-192 651,-186 657,-180 663,-180 663,-180 790,-180 790,-180 796,-180 802,-186 802,-192 802,-192 802,-221 802,-221 802,-227 796,-233 790,-233"/>
<polygon fill="white" stroke="transparent" points="665.5,-193.5 665.5,-218.5 788.5,-218.5 788.5,-193.5 665.5,-193.5"/>
<polygon fill="none" stroke="black" points="665.5,-193.5 665.5,-218.5 788.5,-218.5 788.5,-193.5 665.5,-193.5"/>
<text text-anchor="start" x="672.5" y="-204.5" font-family="Courier,monospace" font-style="italic" font-size="10.00">p = handler_b_x(p)</text>
</g>
<!-- router_nested_if_flow_line_21_seq&#45;&gt;handler_b_x -->
<g id="edge15" class="edge">
<title>router_nested_if_flow_line_21_seq&#45;&gt;handler_b_x</title>
<path fill="none" stroke="black" d="M737.02,-269.72C735.56,-261.04 734,-251.86 732.55,-243.29"/>
<polygon fill="black" stroke="black" points="735.97,-242.5 730.85,-233.22 729.07,-243.66 735.97,-242.5"/>
</g>
<!-- router_nested_if_flow_line_24_seq -->
<g id="node6" class="node">
<title>router_nested_if_flow_line_24_seq</title>
<path fill="wheat" stroke="black" d="M1174,-348C1174,-348 915,-348 915,-348 909,-348 903,-342 903,-336 903,-336 903,-282 903,-282 903,-276 909,-270 915,-270 915,-270 1174,-270 1174,-270 1180,-270 1186,-276 1186,-282 1186,-282 1186,-336 1186,-336 1186,-342 1180,-348 1174,-348"/>
<polygon fill="white" stroke="transparent" points="917.5,-309 917.5,-334 1172.5,-334 1172.5,-309 917.5,-309"/>
<polygon fill="none" stroke="black" points="917.5,-309 917.5,-334 1172.5,-334 1172.5,-309 917.5,-309"/>
<text text-anchor="start" x="924.5" y="-320" font-family="Courier,monospace" font-style="italic" font-size="10.00">p = router_nested_if_flow_line_24_seq(p)</text>
<polygon fill="white" stroke="transparent" points="917.5,-284 917.5,-309 1172.5,-309 1172.5,-284 917.5,-284"/>
<polygon fill="none" stroke="black" points="917.5,-284 917.5,-309 1172.5,-309 1172.5,-284 917.5,-284"/>
<text text-anchor="start" x="924.5" y="-294" font-family="Courier,monospace" font-size="10.00">p[&#39;l2&#39;] = &#39;Y&#39;</text>
</g>
<!-- handler_b_y -->
<g id="node13" class="node">
<title>handler_b_y</title>
<path fill="lightblue" stroke="black" d="M1058,-233C1058,-233 931,-233 931,-233 925,-233 919,-227 919,-221 919,-221 919,-192 919,-192 919,-186 925,-180 931,-180 931,-180 1058,-180 1058,-180 1064,-180 1070,-186 1070,-192 1070,-192 1070,-221 1070,-221 1070,-227 1064,-233 1058,-233"/>
<polygon fill="white" stroke="transparent" points="933.5,-193.5 933.5,-218.5 1056.5,-218.5 1056.5,-193.5 933.5,-193.5"/>
<polygon fill="none" stroke="black" points="933.5,-193.5 933.5,-218.5 1056.5,-218.5 1056.5,-193.5 933.5,-193.5"/>
<text text-anchor="start" x="940.5" y="-204.5" font-family="Courier,monospace" font-style="italic" font-size="10.00">p = handler_b_y(p)</text>
</g>
<!-- router_nested_if_flow_line_24_seq&#45;&gt;handler_b_y -->
<g id="edge16" class="edge">
<title>router_nested_if_flow_line_24_seq&#45;&gt;handler_b_y</title>
<path fill="none" stroke="black" d="M1025.45,-269.72C1021,-260.76 1016.27,-251.26 1011.89,-242.45"/>
<polygon fill="black" stroke="black" points="1014.88,-240.61 1007.3,-233.22 1008.62,-243.73 1014.88,-240.61"/>
</g>
<!-- router_nested_if_flow_line_20_if -->
<g id="node7" class="node">
<title>router_nested_if_flow_line_20_if</title>
<path fill="wheat" stroke="black" d="M870,-531C870,-531 617,-531 617,-531 611,-531 605,-525 605,-519 605,-519 605,-407 605,-407 605,-401 611,-395 617,-395 617,-395 870,-395 870,-395 876,-395 882,-401 882,-407 882,-407 882,-519 882,-519 882,-525 876,-531 870,-531"/>
<polygon fill="white" stroke="transparent" points="619.5,-492 619.5,-517 868.5,-517 868.5,-492 619.5,-492"/>
<polygon fill="none" stroke="black" points="619.5,-492 619.5,-517 868.5,-517 868.5,-492 619.5,-492"/>
<text text-anchor="start" x="626.5" y="-503" font-family="Courier,monospace" font-style="italic" font-size="10.00">p = router_nested_if_flow_line_20_if(p)</text>
<polygon fill="white" stroke="transparent" points="619.5,-467 619.5,-492 868.5,-492 868.5,-467 619.5,-467"/>
<polygon fill="none" stroke="black" points="619.5,-467 619.5,-492 868.5,-492 868.5,-467 619.5,-467"/>
<text text-anchor="start" x="626.5" y="-477" font-family="Courier,monospace" font-size="10.00">p[&#39;l1&#39;] = &#39;B&#39;</text>
<polygon fill="lightyellow" stroke="transparent" points="619.5,-442 619.5,-467 868.5,-467 868.5,-442 619.5,-442"/>
<polygon fill="none" stroke="black" points="619.5,-442 619.5,-467 868.5,-467 868.5,-442 619.5,-442"/>
<text text-anchor="start" x="680" y="-453" font-family="Courier,monospace" font-weight="bold" font-size="10.00">if</text>
<text text-anchor="start" x="693" y="-453" font-family="Courier,monospace" font-size="10.00"> p[&#39;level2&#39;] == &#39;X&#39;</text>
<polygon fill="none" stroke="black" points="619.5,-409 619.5,-442 868.5,-442 868.5,-409 619.5,-409"/>
<polygon fill="#698b69" stroke="transparent" points="626.5,-416 626.5,-435 741.5,-435 741.5,-416 626.5,-416"/>
<text text-anchor="start" x="671.5" y="-424" font-family="Courier,monospace" font-weight="bold" font-size="10.00" fill="white">TRUE</text>
<polygon fill="#8b3a3a" stroke="transparent" points="741.5,-416 741.5,-435 861.5,-435 861.5,-416 741.5,-416"/>
<text text-anchor="start" x="786" y="-424" font-family="Courier,monospace" font-weight="bold" font-size="10.00" fill="white">FALSE</text>
</g>
<!-- router_nested_if_flow_line_20_if&#45;&gt;router_nested_if_flow_line_21_seq -->
<g id="edge13" class="edge">
<title>router_nested_if_flow_line_20_if&#45;&gt;router_nested_if_flow_line_21_seq</title>
<path fill="none" stroke="#698b69" d="M743.5,-394.89C743.5,-382.59 743.5,-369.97 743.5,-358.36"/>
<polygon fill="#698b69" stroke="#698b69" points="747,-358.01 743.5,-348.01 740,-358.01 747,-358.01"/>
<text text-anchor="middle" x="747" y="-369" font-family="Courier,monospace" font-size="10.00">T</text>
</g>
<!-- router_nested_if_flow_line_20_if&#45;&gt;router_nested_if_flow_line_24_seq -->
<g id="edge14" class="edge">
<title>router_nested_if_flow_line_20_if&#45;&gt;router_nested_if_flow_line_24_seq</title>
<path fill="none" stroke="#8b3a3a" d="M876.4,-394.89C904.86,-380.52 934.16,-365.72 960.18,-352.58"/>
<polygon fill="#8b3a3a" stroke="#8b3a3a" points="961.89,-355.64 969.24,-348.01 958.73,-349.39 961.89,-355.64"/>
<text text-anchor="middle" x="933" y="-369" font-family="Courier,monospace" font-size="10.00">F</text>
</g>
<!-- router_nested_if_flow_line_10_if -->
<g id="node8" class="node">
<title>router_nested_if_flow_line_10_if</title>
<path fill="wheat" stroke="black" d="M719,-689C719,-689 466,-689 466,-689 460,-689 454,-683 454,-677 454,-677 454,-590 454,-590 454,-584 460,-578 466,-578 466,-578 719,-578 719,-578 725,-578 731,-584 731,-590 731,-590 731,-677 731,-677 731,-683 725,-689 719,-689"/>
<polygon fill="white" stroke="transparent" points="468.5,-649.5 468.5,-674.5 717.5,-674.5 717.5,-649.5 468.5,-649.5"/>
<polygon fill="none" stroke="black" points="468.5,-649.5 468.5,-674.5 717.5,-674.5 717.5,-649.5 468.5,-649.5"/>
<text text-anchor="start" x="475.5" y="-660.5" font-family="Courier,monospace" font-style="italic" font-size="10.00">p = router_nested_if_flow_line_10_if(p)</text>
<polygon fill="lightyellow" stroke="transparent" points="468.5,-624.5 468.5,-649.5 717.5,-649.5 717.5,-624.5 468.5,-624.5"/>
<polygon fill="none" stroke="black" points="468.5,-624.5 468.5,-649.5 717.5,-649.5 717.5,-624.5 468.5,-624.5"/>
<text text-anchor="start" x="529" y="-635.5" font-family="Courier,monospace" font-weight="bold" font-size="10.00">if</text>
<text text-anchor="start" x="542" y="-635.5" font-family="Courier,monospace" font-size="10.00"> p[&#39;level1&#39;] == &#39;A&#39;</text>
<polygon fill="none" stroke="black" points="468.5,-591.5 468.5,-624.5 717.5,-624.5 717.5,-591.5 468.5,-591.5"/>
<polygon fill="#698b69" stroke="transparent" points="475.5,-598.5 475.5,-617.5 590.5,-617.5 590.5,-598.5 475.5,-598.5"/>
<text text-anchor="start" x="520.5" y="-606.5" font-family="Courier,monospace" font-weight="bold" font-size="10.00" fill="white">TRUE</text>
<polygon fill="#8b3a3a" stroke="transparent" points="590.5,-598.5 590.5,-617.5 710.5,-617.5 710.5,-598.5 590.5,-598.5"/>
<text text-anchor="start" x="635" y="-606.5" font-family="Courier,monospace" font-weight="bold" font-size="10.00" fill="white">FALSE</text>
</g>
<!-- router_nested_if_flow_line_10_if&#45;&gt;router_nested_if_flow_line_12_if -->
<g id="edge7" class="edge">
<title>router_nested_if_flow_line_10_if&#45;&gt;router_nested_if_flow_line_12_if</title>
<path fill="none" stroke="#698b69" d="M543.8,-577.79C532.72,-565.34 520.75,-551.9 509.07,-538.78"/>
<polygon fill="#698b69" stroke="#698b69" points="511.49,-536.24 502.23,-531.1 506.26,-540.89 511.49,-536.24"/>
<text text-anchor="middle" x="530" y="-552" font-family="Courier,monospace" font-size="10.00">T</text>
</g>
<!-- router_nested_if_flow_line_10_if&#45;&gt;router_nested_if_flow_line_20_if -->
<g id="edge8" class="edge">
<title>router_nested_if_flow_line_10_if&#45;&gt;router_nested_if_flow_line_20_if</title>
<path fill="none" stroke="#8b3a3a" d="M641.53,-577.79C652.68,-565.34 664.72,-551.9 676.49,-538.78"/>
<polygon fill="#8b3a3a" stroke="#8b3a3a" points="679.31,-540.88 683.37,-531.1 674.09,-536.21 679.31,-540.88"/>
<text text-anchor="middle" x="666" y="-552" font-family="Courier,monospace" font-size="10.00">F</text>
</g>
<!-- end_nested_if_flow -->
<g id="node9" class="node">
<title>end_nested_if_flow</title>
<path fill="lightgreen" stroke="black" d="M660,-53C660,-53 491,-53 491,-53 485,-53 479,-47 479,-41 479,-41 479,-12 479,-12 479,-6 485,0 491,0 491,0 660,0 660,0 666,0 672,-6 672,-12 672,-12 672,-41 672,-41 672,-47 666,-53 660,-53"/>
<polygon fill="white" stroke="transparent" points="493.5,-13.5 493.5,-38.5 658.5,-38.5 658.5,-13.5 493.5,-13.5"/>
<polygon fill="none" stroke="black" points="493.5,-13.5 493.5,-38.5 658.5,-38.5 658.5,-13.5 493.5,-13.5"/>
<text text-anchor="start" x="500.5" y="-24.5" font-family="Courier,monospace" font-style="italic" font-size="10.00">p = end_nested_if_flow(p)</text>
</g>
<!-- handler_finalize -->
<g id="node14" class="node">
<title>handler_finalize</title>
<path fill="lightblue" stroke="black" d="M654,-143C654,-143 497,-143 497,-143 491,-143 485,-137 485,-131 485,-131 485,-102 485,-102 485,-96 491,-90 497,-90 497,-90 654,-90 654,-90 660,-90 666,-96 666,-102 666,-102 666,-131 666,-131 666,-137 660,-143 654,-143"/>
<polygon fill="white" stroke="transparent" points="499.5,-103.5 499.5,-128.5 652.5,-128.5 652.5,-103.5 499.5,-103.5"/>
<polygon fill="none" stroke="black" points="499.5,-103.5 499.5,-128.5 652.5,-128.5 652.5,-103.5 499.5,-103.5"/>
<text text-anchor="start" x="506.5" y="-114.5" font-family="Courier,monospace" font-style="italic" font-size="10.00">p = handler_finalize(p)</text>
</g>
<!-- handler_a_x&#45;&gt;handler_finalize -->
<g id="edge1" class="edge">
<title>handler_a_x&#45;&gt;handler_finalize</title>
<path fill="none" stroke="black" d="M365.02,-182.26C401.18,-171.14 444.8,-157.71 482.94,-145.98"/>
<polygon fill="black" stroke="black" points="483.98,-149.32 492.51,-143.04 481.92,-142.63 483.98,-149.32"/>
</g>
<!-- handler_a_y&#45;&gt;handler_finalize -->
<g id="edge2" class="edge">
<title>handler_a_y&#45;&gt;handler_finalize</title>
<path fill="none" stroke="black" d="M516.25,-179.57C524.88,-170.53 534.68,-160.26 543.8,-150.71"/>
<polygon fill="black" stroke="black" points="546.56,-152.89 550.93,-143.24 541.49,-148.06 546.56,-152.89"/>
</g>
<!-- handler_b_x&#45;&gt;handler_finalize -->
<g id="edge3" class="edge">
<title>handler_b_x&#45;&gt;handler_finalize</title>
<path fill="none" stroke="black" d="M682.42,-179.81C665.52,-169.96 646.06,-158.62 628.41,-148.34"/>
<polygon fill="black" stroke="black" points="629.78,-145.08 619.38,-143.07 626.25,-151.13 629.78,-145.08"/>
</g>
<!-- handler_b_y&#45;&gt;handler_finalize -->
<g id="edge4" class="edge">
<title>handler_b_y&#45;&gt;handler_finalize</title>
<path fill="none" stroke="black" d="M918.62,-189.56C850.69,-175.3 750.58,-154.27 676.01,-138.61"/>
<polygon fill="black" stroke="black" points="676.63,-135.16 666.12,-136.53 675.19,-142.01 676.63,-135.16"/>
</g>
<!-- handler_finalize&#45;&gt;end_nested_if_flow -->
<g id="edge5" class="edge">
<title>handler_finalize&#45;&gt;end_nested_if_flow</title>
<path fill="none" stroke="black" d="M575.5,-89.57C575.5,-81.34 575.5,-72.08 575.5,-63.28"/>
<polygon fill="black" stroke="black" points="579,-63.24 575.5,-53.24 572,-63.24 579,-63.24"/>
</g>
<!-- handler_validate&#45;&gt;router_nested_if_flow_line_10_if -->
<g id="edge6" class="edge">
<title>handler_validate&#45;&gt;router_nested_if_flow_line_10_if</title>
<path fill="none" stroke="black" d="M592.5,-725.82C592.5,-717.92 592.5,-708.83 592.5,-699.53"/>
<polygon fill="black" stroke="black" points="596,-699.38 592.5,-689.38 589,-699.38 596,-699.38"/>
</g>
</g>
</svg>
