<?xml version="1.0" encoding="UTF-8" standalone="no"?>
<!DOCTYPE svg PUBLIC "-//W3C//DTD SVG 1.1//EN"
 "http://www.w3.org/Graphics/SVG/1.1/DTD/svg11.dtd">
<!-- Generated by graphviz version 2.43.0 (0)
 -->
<!-- Title: flow Pages: 1 -->
<svg width="906pt" height="482pt"
 viewBox="0.00 0.00 905.66 481.50" xmlns="http://www.w3.org/2000/svg" xmlns:xlink="http://www.w3.org/1999/xlink">
<g id="graph0" class="graph" transform="scale(1 1) rotate(0) translate(4 477.5)">
<title>flow</title>
<polygon fill="white" stroke="transparent" points="-4,4 -4,-477.5 901.66,-477.5 901.66,4 -4,4"/>
<g id="clust1" class="cluster">
<title>cluster_try_0</title>
<polygon fill="none" stroke="#8b8989" stroke-dasharray="5,2" points="371.5,-265 371.5,-465.5 573.5,-465.5 573.5,-265 371.5,-265"/>
<text text-anchor="middle" x="472.5" y="-453.5" font-family="Courier,monospace" font-size="10.00">try</text>
</g>
<!-- start_retry_pipeline -->
<g id="node1" class="node">
<title>start_retry_pipeline</title>
<path fill="lightgreen" stroke="black" d="M777,-451C777,-451 596,-451 596,-451 590,-451 584,-445 584,-439 584,-439 584,-385 584,-385 584,-379 590,-373 596,-373 596,-373 777,-373 777,-373 783,-373 789,-379 789,-385 789,-385 789,-439 789,-439 789,-445 783,-451 777,-451"/>
<polygon fill="white" stroke="transparent" points="598.5,-412 598.5,-437 775.5,-437 775.5,-412 598.5,-412"/>
<polygon fill="none" stroke="black" points="598.5,-412 598.5,-437 775.5,-437 775.5,-412 598.5,-412"/>
<text text-anchor="start" x="605.5" y="-423" font-family="Courier,monospace" font-style="italic" font-size="10.00">p = start_retry_pipeline(p)</text>
<polygon fill="white" stroke="transparent" points="598.5,-387 598.5,-412 775.5,-412 775.5,-387 598.5,-387"/>
<polygon fill="none" stroke="black" points="598.5,-387 598.5,-412 775.5,-412 775.5,-387 598.5,-387"/>
<text text-anchor="start" x="605.5" y="-397" font-family="Courier,monospace" font-size="10.00">p[&#39;attempt&#39;] = 0</text>
</g>
<!-- prepare_request -->
<g id="node6" class="node">
<title>prepare_request</title>
<path fill="lightblue" stroke="black" d="M754,-326C754,-326 603,-326 603,-326 597,-326 591,-320 591,-314 591,-314 591,-285 591,-285 591,-279 597,-273 603,-273 603,-273 754,-273 754,-273 760,-273 766,-279 766,-285 766,-285 766,-314 766,-314 766,-320 760,-326 754,-326"/>
<polygon fill="white" stroke="transparent" points="605.5,-286.5 605.5,-311.5 752.5,-311.5 752.5,-286.5 605.5,-286.5"/>
<polygon fill="none" stroke="black" points="605.5,-286.5 605.5,-311.5 752.5,-311.5 752.5,-286.5 605.5,-286.5"/>
<text text-anchor="start" x="612.5" y="-297.5" font-family="Courier,monospace" font-style="italic" font-size="10.00">p = prepare_request(p)</text>
</g>
<!-- start_retry_pipeline&#45;&gt;prepare_request -->
<g id="edge10" class="edge">
<title>start_retry_pipeline&#45;&gt;prepare_request</title>
<path fill="none" stroke="black" d="M683.75,-372.97C682.89,-361.12 681.95,-348.09 681.1,-336.39"/>
<polygon fill="black" stroke="black" points="684.57,-335.81 680.35,-326.09 677.58,-336.31 684.57,-335.81"/>
</g>
<!-- router_retry_pipeline_line_13_seq -->
<g id="node2" class="node">
<title>router_retry_pipeline_line_13_seq</title>
<path fill="wheat" stroke="black" d="M271,-78C271,-78 12,-78 12,-78 6,-78 0,-72 0,-66 0,-66 0,-12 0,-12 0,-6 6,0 12,0 12,0 271,0 271,0 277,0 283,-6 283,-12 283,-12 283,-66 283,-66 283,-72 277,-78 271,-78"/>
<polygon fill="white" stroke="transparent" points="14.5,-39 14.5,-64 269.5,-64 269.5,-39 14.5,-39"/>
<polygon fill="none" stroke="black" points="14.5,-39 14.5,-64 269.5,-64 269.5,-39 14.5,-39"/>
<text text-anchor="start" x="21.5" y="-50" font-family="Courier,monospace" font-style="italic" font-size="10.00">p = router_retry_pipeline_line_13_seq(p)</text>
<polygon fill="white" stroke="transparent" points="14.5,-14 14.5,-39 269.5,-39 269.5,-14 14.5,-14"/>
<polygon fill="none" stroke="black" points="14.5,-14 14.5,-39 269.5,-39 269.5,-14 14.5,-14"/>
<text text-anchor="start" x="21.5" y="-24" font-family="Courier,monospace" font-size="10.00">p[&#39;attempt&#39;] += 1</text>
</g>
<!-- call_external_api -->
<g id="node9" class="node">
<title>call_external_api</title>
<path fill="lightblue" stroke="black" d="M554,-438.5C554,-438.5 391,-438.5 391,-438.5 385,-438.5 379,-432.5 379,-426.5 379,-426.5 379,-397.5 379,-397.5 379,-391.5 385,-385.5 391,-385.5 391,-385.5 554,-385.5 554,-385.5 560,-385.5 566,-391.5 566,-397.5 566,-397.5 566,-426.5 566,-426.5 566,-432.5 560,-438.5 554,-438.5"/>
<polygon fill="white" stroke="transparent" points="393.5,-399 393.5,-424 552.5,-424 552.5,-399 393.5,-399"/>
<polygon fill="none" stroke="black" points="393.5,-399 393.5,-424 552.5,-424 552.5,-399 393.5,-399"/>
<text text-anchor="start" x="400.5" y="-410" font-family="Courier,monospace" font-style="italic" font-size="10.00">p = call_external_api(p)</text>
</g>
<!-- router_retry_pipeline_line_13_seq&#45;&gt;call_external_api -->
<g id="edge9" class="edge">
<title>router_retry_pipeline_line_13_seq&#45;&gt;call_external_api</title>
<path fill="none" stroke="black" d="M116.36,-78.41C80.8,-138.06 26.26,-253.62 84.5,-326 119.59,-369.61 266.21,-392.09 368.8,-402.71"/>
<polygon fill="black" stroke="black" points="368.59,-406.2 378.89,-403.73 369.29,-399.24 368.59,-406.2"/>
</g>
<!-- router_retry_pipeline_line_12_while_0 -->
<g id="node3" class="node">
<title>router_retry_pipeline_line_12_while_0</title>
<path fill="wheat" stroke="black" d="M539,-236C539,-236 256,-236 256,-236 250,-236 244,-230 244,-224 244,-224 244,-137 244,-137 244,-131 250,-125 256,-125 256,-125 539,-125 539,-125 545,-125 551,-131 551,-137 551,-137 551,-224 551,-224 551,-230 545,-236 539,-236"/>
<polygon fill="white" stroke="transparent" points="258.5,-196.5 258.5,-221.5 537.5,-221.5 537.5,-196.5 258.5,-196.5"/>
<polygon fill="none" stroke="black" points="258.5,-196.5 258.5,-221.5 537.5,-221.5 537.5,-196.5 258.5,-196.5"/>
<text text-anchor="start" x="265.5" y="-207.5" font-family="Courier,monospace" font-style="italic" font-size="10.00">p = router_retry_pipeline_line_12_while_0(p)</text>
<polygon fill="lightyellow" stroke="transparent" points="258.5,-171.5 258.5,-196.5 537.5,-196.5 537.5,-171.5 258.5,-171.5"/>
<polygon fill="none" stroke="black" points="258.5,-171.5 258.5,-196.5 537.5,-196.5 537.5,-171.5 258.5,-171.5"/>
<text text-anchor="start" x="340" y="-182.5" font-family="Courier,monospace" font-weight="bold" font-size="10.00">if</text>
<text text-anchor="start" x="353" y="-182.5" font-family="Courier,monospace" font-size="10.00"> p[&#39;attempt&#39;] &lt; 3</text>
<polygon fill="none" stroke="black" points="258.5,-138.5 258.5,-171.5 537.5,-171.5 537.5,-138.5 258.5,-138.5"/>
<polygon fill="#698b69" stroke="transparent" points="265.5,-145.5 265.5,-164.5 395.5,-164.5 395.5,-145.5 265.5,-145.5"/>
<text text-anchor="start" x="318" y="-153.5" font-family="Courier,monospace" font-weight="bold" font-size="10.00" fill="white">TRUE</text>
<polygon fill="#8b3a3a" stroke="transparent" points="395.5,-145.5 395.5,-164.5 530.5,-164.5 530.5,-145.5 395.5,-145.5"/>
<text text-anchor="start" x="447.5" y="-153.5" font-family="Courier,monospace" font-weight="bold" font-size="10.00" fill="white">FALSE</text>
</g>
<!-- router_retry_pipeline_line_12_while_0&#45;&gt;router_retry_pipeline_line_13_seq -->
<g id="edge8" class="edge">
<title>router_retry_pipeline_line_12_while_0&#45;&gt;router_retry_pipeline_line_13_seq</title>
<path fill="none" stroke="#698b69" d="M297.42,-124.97C271.82,-111.01 244.65,-96.21 220.28,-82.93"/>
<polygon fill="#698b69" stroke="#698b69" points="221.9,-79.83 211.44,-78.11 218.55,-85.97 221.9,-79.83"/>
<text text-anchor="middle" x="265" y="-99" font-family="Courier,monospace" font-size="10.00">T</text>
</g>
<!-- end_retry_pipeline -->
<g id="node4" class="node">
<title>end_retry_pipeline</title>
<path fill="lightgreen" stroke="black" d="M482,-65.5C482,-65.5 313,-65.5 313,-65.5 307,-65.5 301,-59.5 301,-53.5 301,-53.5 301,-24.5 301,-24.5 301,-18.5 307,-12.5 313,-12.5 313,-12.5 482,-12.5 482,-12.5 488,-12.5 494,-18.5 494,-24.5 494,-24.5 494,-53.5 494,-53.5 494,-59.5 488,-65.5 482,-65.5"/>
<polygon fill="white" stroke="transparent" points="315.5,-26 315.5,-51 480.5,-51 480.5,-26 315.5,-26"/>
<polygon fill="none" stroke="black" points="315.5,-26 315.5,-51 480.5,-51 480.5,-26 315.5,-26"/>
<text text-anchor="start" x="322.5" y="-37" font-family="Courier,monospace" font-style="italic" font-size="10.00">p = end_retry_pipeline(p)</text>
</g>
<!-- router_retry_pipeline_line_12_while_0&#45;&gt;end_retry_pipeline -->
<g id="edge7" class="edge">
<title>router_retry_pipeline_line_12_while_0&#45;&gt;end_retry_pipeline</title>
<path fill="none" stroke="#8b3a3a" d="M397.5,-124.77C397.5,-108.43 397.5,-90.94 397.5,-76.11"/>
<polygon fill="#8b3a3a" stroke="#8b3a3a" points="401,-75.84 397.5,-65.84 394,-75.84 401,-75.84"/>
<text text-anchor="middle" x="401" y="-99" font-family="Courier,monospace" font-size="10.00">F</text>
</g>
<!-- log_retry -->
<g id="node5" class="node">
<title>log_retry</title>
<path fill="lightblue" stroke="black" d="M221,-326C221,-326 106,-326 106,-326 100,-326 94,-320 94,-314 94,-314 94,-285 94,-285 94,-279 100,-273 106,-273 106,-273 221,-273 221,-273 227,-273 233,-279 233,-285 233,-285 233,-314 233,-314 233,-320 227,-326 221,-326"/>
<polygon fill="white" stroke="transparent" points="108.5,-286.5 108.5,-311.5 219.5,-311.5 219.5,-286.5 108.5,-286.5"/>
<polygon fill="none" stroke="black" points="108.5,-286.5 108.5,-311.5 219.5,-311.5 219.5,-286.5 108.5,-286.5"/>
<text text-anchor="start" x="115.5" y="-297.5" font-family="Courier,monospace" font-style="italic" font-size="10.00">p = log_retry(p)</text>
</g>
<!-- log_retry&#45;&gt;router_retry_pipeline_line_12_while_0 -->
<g id="edge5" class="edge">
<title>log_retry&#45;&gt;router_retry_pipeline_line_12_while_0</title>
<path fill="none" stroke="black" d="M214.56,-272.97C233.8,-263.35 256.56,-251.97 279.38,-240.56"/>
<polygon fill="black" stroke="black" points="281.08,-243.62 288.46,-236.02 277.95,-237.36 281.08,-243.62"/>
</g>
<!-- prepare_request&#45;&gt;router_retry_pipeline_line_12_while_0 -->
<g id="edge6" class="edge">
<title>prepare_request&#45;&gt;router_retry_pipeline_line_12_while_0</title>
<path fill="none" stroke="black" d="M617.18,-272.97C593.68,-263.18 565.78,-251.57 537.9,-239.96"/>
<polygon fill="black" stroke="black" points="539.02,-236.63 528.44,-236.02 536.33,-243.1 539.02,-236.63"/>
</g>
<!-- raise_exit_0 -->
<g id="node7" class="node">
<title>raise_exit_0</title>
<polygon fill="mistyrose" stroke="black" points="897.81,-399.7 897.81,-424.3 871.27,-441.7 833.73,-441.7 807.19,-424.3 807.19,-399.7 833.73,-382.3 871.27,-382.3 897.81,-399.7"/>
<text text-anchor="middle" x="852.5" y="-409.5" font-family="Courier,monospace" font-size="10.00" fill="crimson">raise</text>
</g>
<!-- call_another_api -->
<g id="node8" class="node">
<title>call_another_api</title>
<path fill="lightblue" stroke="black" d="M553,-326C553,-326 396,-326 396,-326 390,-326 384,-320 384,-314 384,-314 384,-285 384,-285 384,-279 390,-273 396,-273 396,-273 553,-273 553,-273 559,-273 565,-279 565,-285 565,-285 565,-314 565,-314 565,-320 559,-326 553,-326"/>
<polygon fill="white" stroke="transparent" points="398.5,-286.5 398.5,-311.5 551.5,-311.5 551.5,-286.5 398.5,-286.5"/>
<polygon fill="none" stroke="black" points="398.5,-286.5 398.5,-311.5 551.5,-311.5 551.5,-286.5 398.5,-286.5"/>
<text text-anchor="start" x="405.5" y="-297.5" font-family="Courier,monospace" font-style="italic" font-size="10.00">p = call_another_api(p)</text>
</g>
<!-- call_another_api&#45;&gt;router_retry_pipeline_line_12_while_0 -->
<g id="edge3" class="edge">
<title>call_another_api&#45;&gt;router_retry_pipeline_line_12_while_0</title>
<path fill="none" stroke="black" d="M457.6,-272.82C452.07,-264.42 445.65,-254.67 439.12,-244.74"/>
<polygon fill="black" stroke="black" points="442.04,-242.81 433.62,-236.38 436.19,-246.66 442.04,-242.81"/>
</g>
<!-- call_another_api&#45;&gt;log_retry -->
<g id="edge1" class="edge">
<title>call_another_api&#45;&gt;log_retry</title>
<path fill="none" stroke="#8b8989" stroke-dasharray="5,2" d="M371.5,-299.5C329.81,-299.5 282.42,-299.5 243.42,-299.5"/>
<polygon fill="#8b8989" stroke="#8b8989" points="243.29,-296 233.29,-299.5 243.29,-303 243.29,-296"/>
<text text-anchor="middle" x="308.5" y="-305.5" font-family="Courier,monospace" font-size="10.00">except ConnectionError</text>
</g>
<!-- call_another_api&#45;&gt;raise_exit_0 -->
<g id="edge2" class="edge">
<title>call_another_api&#45;&gt;raise_exit_0</title>
<path fill="none" stroke="crimson" stroke-dasharray="5,2" d="M573.5,-323.95C576.53,-324.64 579.54,-325.33 582.5,-326 678.31,-347.73 708.54,-333.5 798.5,-373 804.42,-375.6 810.36,-378.9 816.02,-382.47"/>
<polygon fill="crimson" stroke="crimson" points="814.37,-385.58 824.63,-388.23 818.26,-379.76 814.37,-385.58"/>
<text text-anchor="middle" x="794" y="-347" font-family="Courier,monospace" font-size="10.00">raise ValueError</text>
</g>
<!-- call_external_api&#45;&gt;call_another_api -->
<g id="edge4" class="edge">
<title>call_external_api&#45;&gt;call_another_api</title>
<path fill="none" stroke="black" d="M472.96,-385.37C473.23,-370.83 473.56,-352.41 473.85,-336.44"/>
<polygon fill="black" stroke="black" points="477.35,-336.43 474.03,-326.37 470.35,-336.31 477.35,-336.43"/>
</g>
</g>
</svg>
