<?xml version="1.0" encoding="UTF-8" standalone="no"?>
<!DOCTYPE svg PUBLIC "-//W3C//DTD SVG 1.1//EN"
 "http://www.w3.org/Graphics/SVG/1.1/DTD/svg11.dtd">
<!-- Generated by graphviz version 2.43.0 (0)
 -->
<!-- Title: flow Pages: 1 -->
<svg width="546pt" height="861pt"
 viewBox="0.00 0.00 546.00 861.00" xmlns="http://www.w3.org/2000/svg" xmlns:xlink="http://www.w3.org/1999/xlink">
<g id="graph0" class="graph" transform="scale(1 1) rotate(0) translate(4 857)">
<title>flow</title>
<polygon fill="white" stroke="transparent" points="-4,4 -4,-857 542,-857 542,4 -4,4"/>
<!-- start_adaptive_flow -->
<g id="node1" class="node">
<title>start_adaptive_flow</title>
<path fill="lightgreen" stroke="black" d="M300,-853C300,-853 125,-853 125,-853 119,-853 113,-847 113,-841 113,-841 113,-812 113,-812 113,-806 119,-800 125,-800 125,-800 300,-800 300,-800 306,-800 312,-806 312,-812 312,-812 312,-841 312,-841 312,-847 306,-853 300,-853"/>
<polygon fill="white" stroke="transparent" points="127.5,-813.5 127.5,-838.5 298.5,-838.5 298.5,-813.5 127.5,-813.5"/>
<polygon fill="none" stroke="black" points="127.5,-813.5 127.5,-838.5 298.5,-838.5 298.5,-813.5 127.5,-813.5"/>
<text text-anchor="start" x="134.5" y="-824.5" font-family="Courier,monospace" font-style="italic" font-size="10.00">p = start_adaptive_flow(p)</text>
</g>
<!-- classifier -->
<g id="node5" class="node">
<title>classifier</title>
<path fill="lightblue" stroke="black" d="M273,-763C273,-763 152,-763 152,-763 146,-763 140,-757 140,-751 140,-751 140,-722 140,-722 140,-716 146,-710 152,-710 152,-710 273,-710 273,-710 279,-710 285,-716 285,-722 285,-722 285,-751 285,-751 285,-757 279,-763 273,-763"/>
<polygon fill="white" stroke="transparent" points="154.5,-723.5 154.5,-748.5 271.5,-748.5 271.5,-723.5 154.5,-723.5"/>
<polygon fill="none" stroke="black" points="154.5,-723.5 154.5,-748.5 271.5,-748.5 271.5,-723.5 154.5,-723.5"/>
<text text-anchor="start" x="161.5" y="-734.5" font-family="Courier,monospace" font-style="italic" font-size="10.00">p = classifier(p)</text>
</g>
<!-- start_adaptive_flow&#45;&gt;classifier -->
<g id="edge12" class="edge">
<title>start_adaptive_flow&#45;&gt;classifier</title>
<path fill="none" stroke="black" d="M212.5,-799.57C212.5,-791.34 212.5,-782.08 212.5,-773.28"/>
<polygon fill="black" stroke="black" points="216,-773.24 212.5,-763.24 209,-773.24 216,-773.24"/>
</g>
<!-- fanout_adaptive_flow_line_13 -->
<g id="node2" class="node">
<title>fanout_adaptive_flow_line_13</title>
<path fill="lightblue" stroke="black" d="M327,-515C327,-515 98,-515 98,-515 92,-515 86,-509 86,-503 86,-503 86,-449 86,-449 86,-443 92,-437 98,-437 98,-437 327,-437 327,-437 333,-437 339,-443 339,-449 339,-449 339,-503 339,-503 339,-509 333,-515 327,-515"/>
<polygon fill="white" stroke="transparent" points="100.5,-476 100.5,-501 325.5,-501 325.5,-476 100.5,-476"/>
<polygon fill="none" stroke="black" points="100.5,-476 100.5,-501 325.5,-501 325.5,-476 100.5,-476"/>
<text text-anchor="start" x="107.5" y="-487" font-family="Courier,monospace" font-style="italic" font-size="10.00">p = fanout_adaptive_flow_line_13(p)</text>
<polygon fill="#9f79ee" stroke="transparent" points="100.5,-451 100.5,-476 325.5,-476 325.5,-451 100.5,-451"/>
<polygon fill="none" stroke="black" points="100.5,-451 100.5,-476 325.5,-476 325.5,-451 100.5,-451"/>
<text text-anchor="start" x="161.5" y="-462" font-family="Courier,monospace" font-weight="bold" font-size="10.00">[fan&#45;out:literal]</text>
</g>
<!-- deep_analyzer -->
<g id="node6" class="node">
<title>deep_analyzer</title>
<path fill="lightblue" stroke="black" d="M151,-348C151,-348 12,-348 12,-348 6,-348 0,-342 0,-336 0,-336 0,-307 0,-307 0,-301 6,-295 12,-295 12,-295 151,-295 151,-295 157,-295 163,-301 163,-307 163,-307 163,-336 163,-336 163,-342 157,-348 151,-348"/>
<polygon fill="white" stroke="transparent" points="14.5,-308.5 14.5,-333.5 149.5,-333.5 149.5,-308.5 14.5,-308.5"/>
<polygon fill="none" stroke="black" points="14.5,-308.5 14.5,-333.5 149.5,-333.5 149.5,-308.5 14.5,-308.5"/>
<text text-anchor="start" x="21.5" y="-319.5" font-family="Courier,monospace" font-style="italic" font-size="10.00">p = deep_analyzer(p)</text>
</g>
<!-- fanout_adaptive_flow_line_13&#45;&gt;deep_analyzer -->
<g id="edge4" class="edge">
<title>fanout_adaptive_flow_line_13&#45;&gt;deep_analyzer</title>
<path fill="none" stroke="#5d478b" stroke-width="2" d="M160.63,-436.8C154.22,-431.15 148,-425.15 142.5,-419 125.73,-400.26 110.6,-376.38 99.6,-357.07"/>
<polygon fill="#5d478b" stroke="#5d478b" stroke-width="2" points="102.62,-355.31 94.69,-348.28 96.51,-358.71 102.62,-355.31"/>
<text text-anchor="middle" x="164" y="-390" font-family="Courier,monospace" font-size="10.00">slice 2</text>
</g>
<!-- fanin_adaptive_flow_line_13 -->
<g id="node7" class="node">
<title>fanin_adaptive_flow_line_13</title>
<path fill="lightblue" stroke="black" d="M365,-258C365,-258 142,-258 142,-258 136,-258 130,-252 130,-246 130,-246 130,-192 130,-192 130,-186 136,-180 142,-180 142,-180 365,-180 365,-180 371,-180 377,-186 377,-192 377,-192 377,-246 377,-246 377,-252 371,-258 365,-258"/>
<polygon fill="white" stroke="transparent" points="144.5,-219 144.5,-244 363.5,-244 363.5,-219 144.5,-219"/>
<polygon fill="none" stroke="black" points="144.5,-219 144.5,-244 363.5,-244 363.5,-219 144.5,-219"/>
<text text-anchor="start" x="151.5" y="-230" font-family="Courier,monospace" font-style="italic" font-size="10.00">p = fanin_adaptive_flow_line_13(p)</text>
<polygon fill="#ab82ff" stroke="transparent" points="144.5,-194 144.5,-219 363.5,-219 363.5,-194 144.5,-194"/>
<polygon fill="none" stroke="black" points="144.5,-194 144.5,-219 363.5,-219 363.5,-194 144.5,-194"/>
<text text-anchor="start" x="229.5" y="-205" font-family="Courier,monospace" font-weight="bold" font-size="10.00">[fan&#45;in]</text>
</g>
<!-- fanout_adaptive_flow_line_13&#45;&gt;fanin_adaptive_flow_line_13 -->
<g id="edge5" class="edge">
<title>fanout_adaptive_flow_line_13&#45;&gt;fanin_adaptive_flow_line_13</title>
<path fill="none" stroke="#5d478b" stroke-dasharray="5,2" d="M205.78,-436.66C200.7,-399.69 196.59,-342.5 209.5,-295 212.06,-285.59 216.12,-276.16 220.77,-267.31"/>
<polygon fill="#5d478b" stroke="#5d478b" points="223.97,-268.77 225.79,-258.33 217.86,-265.35 223.97,-268.77"/>
<text text-anchor="middle" x="234" y="-324.5" font-family="Courier,monospace" font-size="10.00">slice 0</text>
<text text-anchor="middle" x="234" y="-313.5" font-family="Courier,monospace" font-size="10.00">(parent)</text>
</g>
<!-- fast_analyzer -->
<g id="node8" class="node">
<title>fast_analyzer</title>
<path fill="lightblue" stroke="black" d="M418,-348C418,-348 279,-348 279,-348 273,-348 267,-342 267,-336 267,-336 267,-307 267,-307 267,-301 273,-295 279,-295 279,-295 418,-295 418,-295 424,-295 430,-301 430,-307 430,-307 430,-336 430,-336 430,-342 424,-348 418,-348"/>
<polygon fill="white" stroke="transparent" points="281.5,-308.5 281.5,-333.5 416.5,-333.5 416.5,-308.5 281.5,-308.5"/>
<polygon fill="none" stroke="black" points="281.5,-308.5 281.5,-333.5 416.5,-333.5 416.5,-308.5 281.5,-308.5"/>
<text text-anchor="start" x="288.5" y="-319.5" font-family="Courier,monospace" font-style="italic" font-size="10.00">p = fast_analyzer(p)</text>
</g>
<!-- fanout_adaptive_flow_line_13&#45;&gt;fast_analyzer -->
<g id="edge6" class="edge">
<title>fanout_adaptive_flow_line_13&#45;&gt;fast_analyzer</title>
<path fill="none" stroke="#5d478b" stroke-width="2" d="M234.06,-436.99C247.7,-414.85 266.64,-387.21 287.5,-366 291.38,-362.06 295.65,-358.23 300.07,-354.58"/>
<polygon fill="#5d478b" stroke="#5d478b" stroke-width="2" points="302.46,-357.15 308.16,-348.22 298.13,-351.65 302.46,-357.15"/>
<text text-anchor="middle" x="309" y="-390" font-family="Courier,monospace" font-size="10.00">slice 1</text>
</g>
<!-- router_adaptive_flow_line_12_if -->
<g id="node3" class="node">
<title>router_adaptive_flow_line_12_if</title>
<path fill="wheat" stroke="black" d="M336,-673C336,-673 89,-673 89,-673 83,-673 77,-667 77,-661 77,-661 77,-574 77,-574 77,-568 83,-562 89,-562 89,-562 336,-562 336,-562 342,-562 348,-568 348,-574 348,-574 348,-661 348,-661 348,-667 342,-673 336,-673"/>
<polygon fill="white" stroke="transparent" points="91.5,-633.5 91.5,-658.5 334.5,-658.5 334.5,-633.5 91.5,-633.5"/>
<polygon fill="none" stroke="black" points="91.5,-633.5 91.5,-658.5 334.5,-658.5 334.5,-633.5 91.5,-633.5"/>
<text text-anchor="start" x="98.5" y="-644.5" font-family="Courier,monospace" font-style="italic" font-size="10.00">p = router_adaptive_flow_line_12_if(p)</text>
<polygon fill="lightyellow" stroke="transparent" points="91.5,-608.5 91.5,-633.5 334.5,-633.5 334.5,-608.5 91.5,-608.5"/>
<polygon fill="none" stroke="black" points="91.5,-608.5 91.5,-633.5 334.5,-633.5 334.5,-608.5 91.5,-608.5"/>
<text text-anchor="start" x="164" y="-619.5" font-family="Courier,monospace" font-weight="bold" font-size="10.00">if</text>
<text text-anchor="start" x="177" y="-619.5" font-family="Courier,monospace" font-size="10.00"> p[&#39;parallel&#39;]</text>
<polygon fill="none" stroke="black" points="91.5,-575.5 91.5,-608.5 334.5,-608.5 334.5,-575.5 91.5,-575.5"/>
<polygon fill="#698b69" stroke="transparent" points="98.5,-582.5 98.5,-601.5 210.5,-601.5 210.5,-582.5 98.5,-582.5"/>
<text text-anchor="start" x="142" y="-590.5" font-family="Courier,monospace" font-weight="bold" font-size="10.00" fill="white">TRUE</text>
<polygon fill="#8b3a3a" stroke="transparent" points="210.5,-582.5 210.5,-601.5 327.5,-601.5 327.5,-582.5 210.5,-582.5"/>
<text text-anchor="start" x="253.5" y="-590.5" font-family="Courier,monospace" font-weight="bold" font-size="10.00" fill="white">FALSE</text>
</g>
<!-- router_adaptive_flow_line_12_if&#45;&gt;fanout_adaptive_flow_line_13 -->
<g id="edge9" class="edge">
<title>router_adaptive_flow_line_12_if&#45;&gt;fanout_adaptive_flow_line_13</title>
<path fill="none" stroke="#698b69" d="M212.5,-561.77C212.5,-549.72 212.5,-537.05 212.5,-525.28"/>
<polygon fill="#698b69" stroke="#698b69" points="216,-525.21 212.5,-515.21 209,-525.21 216,-525.21"/>
<text text-anchor="middle" x="216" y="-536" font-family="Courier,monospace" font-size="10.00">T</text>
</g>
<!-- sequential_analyzer -->
<g id="node10" class="node">
<title>sequential_analyzer</title>
<path fill="lightblue" stroke="black" d="M526,-419C526,-419 351,-419 351,-419 345,-419 339,-413 339,-407 339,-407 339,-378 339,-378 339,-372 345,-366 351,-366 351,-366 526,-366 526,-366 532,-366 538,-372 538,-378 538,-378 538,-407 538,-407 538,-413 532,-419 526,-419"/>
<polygon fill="white" stroke="transparent" points="353.5,-379.5 353.5,-404.5 524.5,-404.5 524.5,-379.5 353.5,-379.5"/>
<polygon fill="none" stroke="black" points="353.5,-379.5 353.5,-404.5 524.5,-404.5 524.5,-379.5 353.5,-379.5"/>
<text text-anchor="start" x="360.5" y="-390.5" font-family="Courier,monospace" font-style="italic" font-size="10.00">p = sequential_analyzer(p)</text>
</g>
<!-- router_adaptive_flow_line_12_if&#45;&gt;sequential_analyzer -->
<g id="edge10" class="edge">
<title>router_adaptive_flow_line_12_if&#45;&gt;sequential_analyzer</title>
<path fill="none" stroke="#8b3a3a" d="M293.72,-561.95C312.59,-547.67 331.97,-531.59 348.5,-515 375.02,-488.39 400.02,-453.55 416.91,-428.01"/>
<polygon fill="#8b3a3a" stroke="#8b3a3a" points="420,-429.68 422.53,-419.39 414.13,-425.85 420,-429.68"/>
<text text-anchor="middle" x="332" y="-536" font-family="Courier,monospace" font-size="10.00">F</text>
</g>
<!-- end_adaptive_flow -->
<g id="node4" class="node">
<title>end_adaptive_flow</title>
<path fill="lightgreen" stroke="black" d="M464,-53C464,-53 301,-53 301,-53 295,-53 289,-47 289,-41 289,-41 289,-12 289,-12 289,-6 295,0 301,0 301,0 464,0 464,0 470,0 476,-6 476,-12 476,-12 476,-41 476,-41 476,-47 470,-53 464,-53"/>
<polygon fill="white" stroke="transparent" points="303.5,-13.5 303.5,-38.5 462.5,-38.5 462.5,-13.5 303.5,-13.5"/>
<polygon fill="none" stroke="black" points="303.5,-13.5 303.5,-38.5 462.5,-38.5 462.5,-13.5 303.5,-13.5"/>
<text text-anchor="start" x="310.5" y="-24.5" font-family="Courier,monospace" font-style="italic" font-size="10.00">p = end_adaptive_flow(p)</text>
</g>
<!-- classifier&#45;&gt;router_adaptive_flow_line_12_if -->
<g id="edge1" class="edge">
<title>classifier&#45;&gt;router_adaptive_flow_line_12_if</title>
<path fill="none" stroke="black" d="M212.5,-709.82C212.5,-701.92 212.5,-692.83 212.5,-683.53"/>
<polygon fill="black" stroke="black" points="216,-683.38 212.5,-673.38 209,-683.38 216,-683.38"/>
</g>
<!-- deep_analyzer&#45;&gt;fanin_adaptive_flow_line_13 -->
<g id="edge2" class="edge">
<title>deep_analyzer&#45;&gt;fanin_adaptive_flow_line_13</title>
<path fill="none" stroke="#473c8b" stroke-dasharray="5,2" d="M125.35,-294.88C141.84,-285.24 161.09,-273.99 179.58,-263.19"/>
<polygon fill="#473c8b" stroke="#473c8b" points="181.42,-266.17 188.29,-258.1 177.89,-260.13 181.42,-266.17"/>
</g>
<!-- formatter -->
<g id="node9" class="node">
<title>formatter</title>
<path fill="lightblue" stroke="black" d="M440,-143C440,-143 325,-143 325,-143 319,-143 313,-137 313,-131 313,-131 313,-102 313,-102 313,-96 319,-90 325,-90 325,-90 440,-90 440,-90 446,-90 452,-96 452,-102 452,-102 452,-131 452,-131 452,-137 446,-143 440,-143"/>
<polygon fill="white" stroke="transparent" points="327.5,-103.5 327.5,-128.5 438.5,-128.5 438.5,-103.5 327.5,-103.5"/>
<polygon fill="none" stroke="black" points="327.5,-103.5 327.5,-128.5 438.5,-128.5 438.5,-103.5 327.5,-103.5"/>
<text text-anchor="start" x="334.5" y="-114.5" font-family="Courier,monospace" font-style="italic" font-size="10.00">p = formatter(p)</text>
</g>
<!-- fanin_adaptive_flow_line_13&#45;&gt;formatter -->
<g id="edge3" class="edge">
<title>fanin_adaptive_flow_line_13&#45;&gt;formatter</title>
<path fill="none" stroke="black" d="M302.64,-179.72C315.49,-169.71 329.2,-159.02 341.57,-149.39"/>
<polygon fill="black" stroke="black" points="343.75,-152.13 349.49,-143.22 339.45,-146.6 343.75,-152.13"/>
</g>
<!-- fast_analyzer&#45;&gt;fanin_adaptive_flow_line_13 -->
<g id="edge7" class="edge">
<title>fast_analyzer&#45;&gt;fanin_adaptive_flow_line_13</title>
<path fill="none" stroke="#473c8b" stroke-dasharray="5,2" d="M324.28,-294.88C315.79,-285.89 305.98,-275.51 296.41,-265.4"/>
<polygon fill="#473c8b" stroke="#473c8b" points="298.93,-262.97 289.52,-258.1 293.84,-267.77 298.93,-262.97"/>
</g>
<!-- formatter&#45;&gt;end_adaptive_flow -->
<g id="edge8" class="edge">
<title>formatter&#45;&gt;end_adaptive_flow</title>
<path fill="none" stroke="black" d="M382.5,-89.57C382.5,-81.34 382.5,-72.08 382.5,-63.28"/>
<polygon fill="black" stroke="black" points="386,-63.24 382.5,-53.24 379,-63.24 386,-63.24"/>
</g>
<!-- sequential_analyzer&#45;&gt;formatter -->
<g id="edge11" class="edge">
<title>sequential_analyzer&#45;&gt;formatter</title>
<path fill="none" stroke="black" d="M441.05,-365.94C442.45,-346.39 443.23,-318.84 439.5,-295 431.51,-244 411.35,-187.64 397.29,-152.41"/>
<polygon fill="black" stroke="black" points="400.49,-151 393.5,-143.05 394.01,-153.63 400.49,-151"/>
</g>
</g>
</svg>
