<?xml version="1.0" encoding="UTF-8" standalone="no"?>
<!DOCTYPE svg PUBLIC "-//W3C//DTD SVG 1.1//EN"
 "http://www.w3.org/Graphics/SVG/1.1/DTD/svg11.dtd">
<!-- Generated by graphviz version 2.43.0 (0)
 -->
<!-- Title: flow Pages: 1 -->
<svg width="741pt" height="762pt"
 viewBox="0.00 0.00 741.00 762.00" xmlns="http://www.w3.org/2000/svg" xmlns:xlink="http://www.w3.org/1999/xlink">
<g id="graph0" class="graph" transform="scale(1 1) rotate(0) translate(4 758)">
<title>flow</title>
<polygon fill="white" stroke="transparent" points="-4,4 -4,-758 737,-758 737,4 -4,4"/>
<!-- start_evaluator_optimizer -->
<g id="node1" class="node">
<title>start_evaluator_optimizer</title>
<path fill="lightgreen" stroke="black" d="M259,-284.5C259,-284.5 12,-284.5 12,-284.5 6,-284.5 0,-278.5 0,-272.5 0,-272.5 0,-218.5 0,-218.5 0,-212.5 6,-206.5 12,-206.5 12,-206.5 259,-206.5 259,-206.5 265,-206.5 271,-212.5 271,-218.5 271,-218.5 271,-272.5 271,-272.5 271,-278.5 265,-284.5 259,-284.5"/>
<polygon fill="white" stroke="transparent" points="14.5,-245.5 14.5,-270.5 257.5,-270.5 257.5,-245.5 14.5,-245.5"/>
<polygon fill="none" stroke="black" points="14.5,-245.5 14.5,-270.5 257.5,-270.5 257.5,-245.5 14.5,-245.5"/>
<text text-anchor="start" x="21.5" y="-256.5" font-family="Courier,monospace" font-style="italic" font-size="10.00">p = await start_evaluator_optimizer(p)</text>
<polygon fill="white" stroke="transparent" points="14.5,-220.5 14.5,-245.5 257.5,-245.5 257.5,-220.5 14.5,-220.5"/>
<polygon fill="none" stroke="black" points="14.5,-220.5 14.5,-245.5 257.5,-245.5 257.5,-220.5 14.5,-220.5"/>
<text text-anchor="start" x="21.5" y="-230.5" font-family="Courier,monospace" font-size="10.00">p[&#39;iteration&#39;] = 0</text>
</g>
<!-- router_evaluator_optimizer_line_54_loop_back_0 -->
<g id="node5" class="node">
<title>router_evaluator_optimizer_line_54_loop_back_0</title>
<path fill="wheat" stroke="black" d="M360,-143C360,-143 41,-143 41,-143 35,-143 29,-137 29,-131 29,-131 29,-102 29,-102 29,-96 35,-90 41,-90 41,-90 360,-90 360,-90 366,-90 372,-96 372,-102 372,-102 372,-131 372,-131 372,-137 366,-143 360,-143"/>
<polygon fill="white" stroke="transparent" points="43.5,-103.5 43.5,-128.5 358.5,-128.5 358.5,-103.5 43.5,-103.5"/>
<polygon fill="none" stroke="black" points="43.5,-103.5 43.5,-128.5 358.5,-128.5 358.5,-103.5 43.5,-103.5"/>
<text text-anchor="start" x="50.5" y="-114.5" font-family="Courier,monospace" font-style="italic" font-size="10.00">p = await router_evaluator_optimizer_line_54_l…(p)</text>
</g>
<!-- start_evaluator_optimizer&#45;&gt;router_evaluator_optimizer_line_54_loop_back_0 -->
<g id="edge10" class="edge">
<title>start_evaluator_optimizer&#45;&gt;router_evaluator_optimizer_line_54_loop_back_0</title>
<path fill="none" stroke="black" d="M155,-206.4C163.84,-189.13 174.21,-168.88 182.81,-152.06"/>
<polygon fill="black" stroke="black" points="185.95,-153.61 187.39,-143.11 179.72,-150.42 185.95,-153.61"/>
</g>
<!-- router_evaluator_optimizer_line_68_if -->
<g id="node2" class="node">
<title>router_evaluator_optimizer_line_68_if</title>
<path fill="wheat" stroke="black" d="M620,-301C620,-301 301,-301 301,-301 295,-301 289,-295 289,-289 289,-289 289,-202 289,-202 289,-196 295,-190 301,-190 301,-190 620,-190 620,-190 626,-190 632,-196 632,-202 632,-202 632,-289 632,-289 632,-295 626,-301 620,-301"/>
<polygon fill="white" stroke="transparent" points="303.5,-261.5 303.5,-286.5 618.5,-286.5 618.5,-261.5 303.5,-261.5"/>
<polygon fill="none" stroke="black" points="303.5,-261.5 303.5,-286.5 618.5,-286.5 618.5,-261.5 303.5,-261.5"/>
<text text-anchor="start" x="310.5" y="-272.5" font-family="Courier,monospace" font-style="italic" font-size="10.00">p = await router_evaluator_optimizer_line_68_if(p)</text>
<polygon fill="lightyellow" stroke="transparent" points="303.5,-236.5 303.5,-261.5 618.5,-261.5 618.5,-236.5 303.5,-236.5"/>
<polygon fill="none" stroke="black" points="303.5,-236.5 303.5,-261.5 618.5,-261.5 618.5,-236.5 303.5,-236.5"/>
<text text-anchor="start" x="355" y="-247.5" font-family="Courier,monospace" font-weight="bold" font-size="10.00">if</text>
<text text-anchor="start" x="368" y="-247.5" font-family="Courier,monospace" font-size="10.00"> p[&#39;iteration&#39;] &gt;= MAX_ITERATIONS</text>
<polygon fill="none" stroke="black" points="303.5,-203.5 303.5,-236.5 618.5,-236.5 618.5,-203.5 303.5,-203.5"/>
<polygon fill="#698b69" stroke="transparent" points="310.5,-210.5 310.5,-229.5 461.5,-229.5 461.5,-210.5 310.5,-210.5"/>
<text text-anchor="start" x="373.5" y="-218.5" font-family="Courier,monospace" font-weight="bold" font-size="10.00" fill="white">TRUE</text>
<polygon fill="#8b3a3a" stroke="transparent" points="461.5,-210.5 461.5,-229.5 611.5,-229.5 611.5,-210.5 461.5,-210.5"/>
<text text-anchor="start" x="524" y="-218.5" font-family="Courier,monospace" font-weight="bold" font-size="10.00" fill="white">pass</text>
</g>
<!-- router_evaluator_optimizer_line_68_if&#45;&gt;router_evaluator_optimizer_line_54_loop_back_0 -->
<g id="edge9" class="edge">
<title>router_evaluator_optimizer_line_68_if&#45;&gt;router_evaluator_optimizer_line_54_loop_back_0</title>
<path fill="none" stroke="#8b3a3a" d="M348.73,-189.9C319.06,-175.41 288.11,-160.29 262.2,-147.64"/>
<polygon fill="#8b3a3a" stroke="#8b3a3a" points="263.42,-144.34 252.9,-143.1 260.35,-150.63 263.42,-144.34"/>
<text text-anchor="middle" x="311" y="-164" font-family="Courier,monospace" font-size="10.00">F</text>
</g>
<!-- polisher -->
<g id="node9" class="node">
<title>polisher</title>
<path fill="lightblue" stroke="black" d="M676,-143C676,-143 531,-143 531,-143 525,-143 519,-137 519,-131 519,-131 519,-102 519,-102 519,-96 525,-90 531,-90 531,-90 676,-90 676,-90 682,-90 688,-96 688,-102 688,-102 688,-131 688,-131 688,-137 682,-143 676,-143"/>
<polygon fill="white" stroke="transparent" points="533.5,-103.5 533.5,-128.5 674.5,-128.5 674.5,-103.5 533.5,-103.5"/>
<polygon fill="none" stroke="black" points="533.5,-103.5 533.5,-128.5 674.5,-128.5 674.5,-103.5 533.5,-103.5"/>
<text text-anchor="start" x="540.5" y="-114.5" font-family="Courier,monospace" font-style="italic" font-size="10.00">p = await polisher(p)</text>
</g>
<!-- router_evaluator_optimizer_line_68_if&#45;&gt;polisher -->
<g id="edge8" class="edge">
<title>router_evaluator_optimizer_line_68_if&#45;&gt;polisher</title>
<path fill="none" stroke="#698b69" d="M521.97,-189.9C537.29,-176.3 553.23,-162.15 566.91,-150"/>
<polygon fill="#698b69" stroke="#698b69" points="569.53,-152.35 574.68,-143.1 564.88,-147.12 569.53,-152.35"/>
<text text-anchor="middle" x="556" y="-164" font-family="Courier,monospace" font-size="10.00">T</text>
</g>
<!-- router_evaluator_optimizer_line_64_if -->
<g id="node3" class="node">
<title>router_evaluator_optimizer_line_64_if</title>
<path fill="wheat" stroke="black" d="M620,-459C620,-459 301,-459 301,-459 295,-459 289,-453 289,-447 289,-447 289,-360 289,-360 289,-354 295,-348 301,-348 301,-348 620,-348 620,-348 626,-348 632,-354 632,-360 632,-360 632,-447 632,-447 632,-453 626,-459 620,-459"/>
<polygon fill="white" stroke="transparent" points="303.5,-419.5 303.5,-444.5 618.5,-444.5 618.5,-419.5 303.5,-419.5"/>
<polygon fill="none" stroke="black" points="303.5,-419.5 303.5,-444.5 618.5,-444.5 618.5,-419.5 303.5,-419.5"/>
<text text-anchor="start" x="310.5" y="-430.5" font-family="Courier,monospace" font-style="italic" font-size="10.00">p = await router_evaluator_optimizer_line_64_if(p)</text>
<polygon fill="lightyellow" stroke="transparent" points="303.5,-394.5 303.5,-419.5 618.5,-419.5 618.5,-394.5 303.5,-394.5"/>
<polygon fill="none" stroke="black" points="303.5,-394.5 303.5,-419.5 618.5,-419.5 618.5,-394.5 303.5,-394.5"/>
<text text-anchor="start" x="343" y="-405.5" font-family="Courier,monospace" font-weight="bold" font-size="10.00">if</text>
<text text-anchor="start" x="356" y="-405.5" font-family="Courier,monospace" font-size="10.00"> p.get(&#39;score&#39;, 0) &gt;= SCORE_THRESHOLD</text>
<polygon fill="none" stroke="black" points="303.5,-361.5 303.5,-394.5 618.5,-394.5 618.5,-361.5 303.5,-361.5"/>
<polygon fill="#698b69" stroke="transparent" points="310.5,-368.5 310.5,-387.5 458.5,-387.5 458.5,-368.5 310.5,-368.5"/>
<text text-anchor="start" x="372" y="-376.5" font-family="Courier,monospace" font-weight="bold" font-size="10.00" fill="white">TRUE</text>
<polygon fill="#8b3a3a" stroke="transparent" points="458.5,-368.5 458.5,-387.5 611.5,-387.5 611.5,-368.5 458.5,-368.5"/>
<text text-anchor="start" x="519.5" y="-376.5" font-family="Courier,monospace" font-weight="bold" font-size="10.00" fill="white">FALSE</text>
</g>
<!-- router_evaluator_optimizer_line_64_if&#45;&gt;router_evaluator_optimizer_line_68_if -->
<g id="edge7" class="edge">
<title>router_evaluator_optimizer_line_64_if&#45;&gt;router_evaluator_optimizer_line_68_if</title>
<path fill="none" stroke="#8b3a3a" d="M460.5,-347.94C460.5,-336.06 460.5,-323.39 460.5,-311.17"/>
<polygon fill="#8b3a3a" stroke="#8b3a3a" points="464,-311.03 460.5,-301.03 457,-311.03 464,-311.03"/>
<text text-anchor="middle" x="464" y="-322" font-family="Courier,monospace" font-size="10.00">F</text>
</g>
<!-- router_evaluator_optimizer_line_64_if&#45;&gt;polisher -->
<g id="edge6" class="edge">
<title>router_evaluator_optimizer_line_64_if&#45;&gt;polisher</title>
<path fill="none" stroke="#698b69" d="M597.12,-347.91C614.83,-335.14 630.57,-319.65 641.5,-301 666.43,-258.43 653.29,-237.9 641.5,-190 638.28,-176.93 632.25,-163.62 625.92,-152.02"/>
<polygon fill="#698b69" stroke="#698b69" points="628.83,-150.06 620.83,-143.12 622.76,-153.54 628.83,-150.06"/>
<text text-anchor="middle" x="659" y="-243" font-family="Courier,monospace" font-size="10.00">T</text>
</g>
<!-- router_evaluator_optimizer_line_55_seq -->
<g id="node4" class="node">
<title>router_evaluator_optimizer_line_55_seq</title>
<path fill="wheat" stroke="black" d="M620,-754C620,-754 301,-754 301,-754 295,-754 289,-748 289,-742 289,-742 289,-688 289,-688 289,-682 295,-676 301,-676 301,-676 620,-676 620,-676 626,-676 632,-682 632,-688 632,-688 632,-742 632,-742 632,-748 626,-754 620,-754"/>
<polygon fill="white" stroke="transparent" points="303.5,-715 303.5,-740 618.5,-740 618.5,-715 303.5,-715"/>
<polygon fill="none" stroke="black" points="303.5,-715 303.5,-740 618.5,-740 618.5,-715 303.5,-715"/>
<text text-anchor="start" x="310.5" y="-726" font-family="Courier,monospace" font-style="italic" font-size="10.00">p = await router_evaluator_optimizer_line_55_s…(p)</text>
<polygon fill="white" stroke="transparent" points="303.5,-690 303.5,-715 618.5,-715 618.5,-690 303.5,-690"/>
<polygon fill="none" stroke="black" points="303.5,-690 303.5,-715 618.5,-715 618.5,-690 303.5,-690"/>
<text text-anchor="start" x="310.5" y="-700" font-family="Courier,monospace" font-size="10.00">p[&#39;iteration&#39;] += 1</text>
</g>
<!-- generator -->
<g id="node8" class="node">
<title>generator</title>
<path fill="lightblue" stroke="black" d="M536,-639C536,-639 385,-639 385,-639 379,-639 373,-633 373,-627 373,-627 373,-598 373,-598 373,-592 379,-586 385,-586 385,-586 536,-586 536,-586 542,-586 548,-592 548,-598 548,-598 548,-627 548,-627 548,-633 542,-639 536,-639"/>
<polygon fill="white" stroke="transparent" points="387.5,-599.5 387.5,-624.5 534.5,-624.5 534.5,-599.5 387.5,-599.5"/>
<polygon fill="none" stroke="black" points="387.5,-599.5 387.5,-624.5 534.5,-624.5 534.5,-599.5 387.5,-599.5"/>
<text text-anchor="start" x="394.5" y="-610.5" font-family="Courier,monospace" font-style="italic" font-size="10.00">p = await generator(p)</text>
</g>
<!-- router_evaluator_optimizer_line_55_seq&#45;&gt;generator -->
<g id="edge5" class="edge">
<title>router_evaluator_optimizer_line_55_seq&#45;&gt;generator</title>
<path fill="none" stroke="black" d="M460.5,-675.72C460.5,-667.04 460.5,-657.86 460.5,-649.29"/>
<polygon fill="black" stroke="black" points="464,-649.22 460.5,-639.22 457,-649.22 464,-649.22"/>
</g>
<!-- router_evaluator_optimizer_line_54_loop_back_0&#45;&gt;router_evaluator_optimizer_line_55_seq -->
<g id="edge4" class="edge">
<title>router_evaluator_optimizer_line_54_loop_back_0&#45;&gt;router_evaluator_optimizer_line_55_seq</title>
<path fill="none" stroke="black" d="M372.12,-132.69C497.38,-145.67 648.33,-166.01 666.5,-190 790.48,-353.7 685.76,-478.63 557.5,-639 548.78,-649.9 538.16,-660.14 527.19,-669.34"/>
<polygon fill="black" stroke="black" points="524.73,-666.83 519.16,-675.85 529.13,-672.27 524.73,-666.83"/>
</g>
<!-- end_evaluator_optimizer -->
<g id="node6" class="node">
<title>end_evaluator_optimizer</title>
<path fill="lightgreen" stroke="black" d="M721,-53C721,-53 486,-53 486,-53 480,-53 474,-47 474,-41 474,-41 474,-12 474,-12 474,-6 480,0 486,0 486,0 721,0 721,0 727,0 733,-6 733,-12 733,-12 733,-41 733,-41 733,-47 727,-53 721,-53"/>
<polygon fill="white" stroke="transparent" points="488.5,-13.5 488.5,-38.5 719.5,-38.5 719.5,-13.5 488.5,-13.5"/>
<polygon fill="none" stroke="black" points="488.5,-13.5 488.5,-38.5 719.5,-38.5 719.5,-13.5 488.5,-13.5"/>
<text text-anchor="start" x="495.5" y="-24.5" font-family="Courier,monospace" font-style="italic" font-size="10.00">p = await end_evaluator_optimizer(p)</text>
</g>
<!-- evaluator -->
<g id="node7" class="node">
<title>evaluator</title>
<path fill="lightblue" stroke="black" d="M536,-549C536,-549 385,-549 385,-549 379,-549 373,-543 373,-537 373,-537 373,-508 373,-508 373,-502 379,-496 385,-496 385,-496 536,-496 536,-496 542,-496 548,-502 548,-508 548,-508 548,-537 548,-537 548,-543 542,-549 536,-549"/>
<polygon fill="white" stroke="transparent" points="387.5,-509.5 387.5,-534.5 534.5,-534.5 534.5,-509.5 387.5,-509.5"/>
<polygon fill="none" stroke="black" points="387.5,-509.5 387.5,-534.5 534.5,-534.5 534.5,-509.5 387.5,-509.5"/>
<text text-anchor="start" x="394.5" y="-520.5" font-family="Courier,monospace" font-style="italic" font-size="10.00">p = await evaluator(p)</text>
</g>
<!-- evaluator&#45;&gt;router_evaluator_optimizer_line_64_if -->
<g id="edge1" class="edge">
<title>evaluator&#45;&gt;router_evaluator_optimizer_line_64_if</title>
<path fill="none" stroke="black" d="M460.5,-495.82C460.5,-487.92 460.5,-478.83 460.5,-469.53"/>
<polygon fill="black" stroke="black" points="464,-469.38 460.5,-459.38 457,-469.38 464,-469.38"/>
</g>
<!-- generator&#45;&gt;evaluator -->
<g id="edge2" class="edge">
<title>generator&#45;&gt;evaluator</title>
<path fill="none" stroke="black" d="M460.5,-585.57C460.5,-577.34 460.5,-568.08 460.5,-559.28"/>
<polygon fill="black" stroke="black" points="464,-559.24 460.5,-549.24 457,-559.24 464,-559.24"/>
</g>
<!-- polisher&#45;&gt;end_evaluator_optimizer -->
<g id="edge3" class="edge">
<title>polisher&#45;&gt;end_evaluator_optimizer</title>
<path fill="none" stroke="black" d="M603.5,-89.57C603.5,-81.34 603.5,-72.08 603.5,-63.28"/>
<polygon fill="black" stroke="black" points="607,-63.24 603.5,-53.24 600,-63.24 607,-63.24"/>
</g>
</g>
</svg>
