<?xml version="1.0" encoding="UTF-8" standalone="no"?>
<!DOCTYPE svg PUBLIC "-//W3C//DTD SVG 1.1//EN"
 "http://www.w3.org/Graphics/SVG/1.1/DTD/svg11.dtd">
<!-- Generated by graphviz version 2.43.0 (0)
 -->
<!-- Title: flow Pages: 1 -->
<svg width="627pt" height="979pt"
 viewBox="0.00 0.00 627.00 979.00" xmlns="http://www.w3.org/2000/svg" xmlns:xlink="http://www.w3.org/1999/xlink">
<g id="graph0" class="graph" transform="scale(1 1) rotate(0) translate(4 975)">
<title>flow</title>
<polygon fill="white" stroke="transparent" points="-4,4 -4,-975 623,-975 623,4 -4,4"/>
<!-- start_routing_classifier -->
<g id="node1" class="node">
<title>start_routing_classifier</title>
<path fill="lightgreen" stroke="black" d="M329,-971C329,-971 88,-971 88,-971 82,-971 76,-965 76,-959 76,-959 76,-930 76,-930 76,-924 82,-918 88,-918 88,-918 329,-918 329,-918 335,-918 341,-924 341,-930 341,-930 341,-959 341,-959 341,-965 335,-971 329,-971"/>
<polygon fill="white" stroke="transparent" points="90.5,-931.5 90.5,-956.5 327.5,-956.5 327.5,-931.5 90.5,-931.5"/>
<polygon fill="none" stroke="black" points="90.5,-931.5 90.5,-956.5 327.5,-956.5 327.5,-931.5 90.5,-931.5"/>
<text text-anchor="start" x="97.5" y="-942.5" font-family="Courier,monospace" font-style="italic" font-size="10.00">p = await start_routing_classifier(p)</text>
</g>
<!-- classifier -->
<g id="node8" class="node">
<title>classifier</title>
<path fill="lightblue" stroke="black" d="M287,-881C287,-881 130,-881 130,-881 124,-881 118,-875 118,-869 118,-869 118,-840 118,-840 118,-834 124,-828 130,-828 130,-828 287,-828 287,-828 293,-828 299,-834 299,-840 299,-840 299,-869 299,-869 299,-875 293,-881 287,-881"/>
<polygon fill="white" stroke="transparent" points="132.5,-841.5 132.5,-866.5 285.5,-866.5 285.5,-841.5 132.5,-841.5"/>
<polygon fill="none" stroke="black" points="132.5,-841.5 132.5,-866.5 285.5,-866.5 285.5,-841.5 132.5,-841.5"/>
<text text-anchor="start" x="139.5" y="-852.5" font-family="Courier,monospace" font-style="italic" font-size="10.00">p = await classifier(p)</text>
</g>
<!-- start_routing_classifier&#45;&gt;classifier -->
<g id="edge12" class="edge">
<title>start_routing_classifier&#45;&gt;classifier</title>
<path fill="none" stroke="black" d="M208.5,-917.57C208.5,-909.34 208.5,-900.08 208.5,-891.28"/>
<polygon fill="black" stroke="black" points="212,-891.24 208.5,-881.24 205,-891.24 212,-891.24"/>
</g>
<!-- router_routing_classifier_line_47_if -->
<g id="node2" class="node">
<title>router_routing_classifier_line_47_if</title>
<path fill="wheat" stroke="black" d="M365,-433C365,-433 52,-433 52,-433 46,-433 40,-427 40,-421 40,-421 40,-334 40,-334 40,-328 46,-322 52,-322 52,-322 365,-322 365,-322 371,-322 377,-328 377,-334 377,-334 377,-421 377,-421 377,-427 371,-433 365,-433"/>
<polygon fill="white" stroke="transparent" points="54.5,-393.5 54.5,-418.5 363.5,-418.5 363.5,-393.5 54.5,-393.5"/>
<polygon fill="none" stroke="black" points="54.5,-393.5 54.5,-418.5 363.5,-418.5 363.5,-393.5 54.5,-393.5"/>
<text text-anchor="start" x="61.5" y="-404.5" font-family="Courier,monospace" font-style="italic" font-size="10.00">p = await router_routing_classifier_line_47_if(p)</text>
<polygon fill="lightyellow" stroke="transparent" points="54.5,-368.5 54.5,-393.5 363.5,-393.5 363.5,-368.5 54.5,-368.5"/>
<polygon fill="none" stroke="black" points="54.5,-368.5 54.5,-393.5 363.5,-393.5 363.5,-368.5 54.5,-368.5"/>
<text text-anchor="start" x="109" y="-379.5" font-family="Courier,monospace" font-weight="bold" font-size="10.00">if</text>
<text text-anchor="start" x="122" y="-379.5" font-family="Courier,monospace" font-size="10.00"> p.get(&#39;category&#39;) == &#39;account&#39;</text>
<polygon fill="none" stroke="black" points="54.5,-335.5 54.5,-368.5 363.5,-368.5 363.5,-335.5 54.5,-335.5"/>
<polygon fill="#698b69" stroke="transparent" points="61.5,-342.5 61.5,-361.5 206.5,-361.5 206.5,-342.5 61.5,-342.5"/>
<text text-anchor="start" x="121.5" y="-350.5" font-family="Courier,monospace" font-weight="bold" font-size="10.00" fill="white">TRUE</text>
<polygon fill="#8b3a3a" stroke="transparent" points="206.5,-342.5 206.5,-361.5 356.5,-361.5 356.5,-342.5 206.5,-342.5"/>
<text text-anchor="start" x="266" y="-350.5" font-family="Courier,monospace" font-weight="bold" font-size="10.00" fill="white">FALSE</text>
</g>
<!-- account_agent -->
<g id="node6" class="node">
<title>account_agent</title>
<path fill="lightblue" stroke="black" d="M187,-233C187,-233 12,-233 12,-233 6,-233 0,-227 0,-221 0,-221 0,-192 0,-192 0,-186 6,-180 12,-180 12,-180 187,-180 187,-180 193,-180 199,-186 199,-192 199,-192 199,-221 199,-221 199,-227 193,-233 187,-233"/>
<polygon fill="white" stroke="transparent" points="14.5,-193.5 14.5,-218.5 185.5,-218.5 185.5,-193.5 14.5,-193.5"/>
<polygon fill="none" stroke="black" points="14.5,-193.5 14.5,-218.5 185.5,-218.5 185.5,-193.5 14.5,-193.5"/>
<text text-anchor="start" x="21.5" y="-204.5" font-family="Courier,monospace" font-style="italic" font-size="10.00">p = await account_agent(p)</text>
</g>
<!-- router_routing_classifier_line_47_if&#45;&gt;account_agent -->
<g id="edge10" class="edge">
<title>router_routing_classifier_line_47_if&#45;&gt;account_agent</title>
<path fill="none" stroke="#698b69" d="M173.11,-321.63C156.21,-295.42 136.5,-264.86 121.73,-241.97"/>
<polygon fill="#698b69" stroke="#698b69" points="124.49,-239.79 116.13,-233.28 118.61,-243.58 124.49,-239.79"/>
<text text-anchor="middle" x="165" y="-275" font-family="Courier,monospace" font-size="10.00">T</text>
</g>
<!-- general_agent -->
<g id="node10" class="node">
<title>general_agent</title>
<path fill="lightblue" stroke="black" d="M404,-233C404,-233 229,-233 229,-233 223,-233 217,-227 217,-221 217,-221 217,-192 217,-192 217,-186 223,-180 229,-180 229,-180 404,-180 404,-180 410,-180 416,-186 416,-192 416,-192 416,-221 416,-221 416,-227 410,-233 404,-233"/>
<polygon fill="white" stroke="transparent" points="231.5,-193.5 231.5,-218.5 402.5,-218.5 402.5,-193.5 231.5,-193.5"/>
<polygon fill="none" stroke="black" points="231.5,-193.5 231.5,-218.5 402.5,-218.5 402.5,-193.5 231.5,-193.5"/>
<text text-anchor="start" x="238.5" y="-204.5" font-family="Courier,monospace" font-style="italic" font-size="10.00">p = await general_agent(p)</text>
</g>
<!-- router_routing_classifier_line_47_if&#45;&gt;general_agent -->
<g id="edge11" class="edge">
<title>router_routing_classifier_line_47_if&#45;&gt;general_agent</title>
<path fill="none" stroke="#8b3a3a" d="M237.2,-321.83C249.68,-299.36 264.97,-273.4 280.5,-251 282.76,-247.74 285.2,-244.42 287.72,-241.15"/>
<polygon fill="#8b3a3a" stroke="#8b3a3a" points="290.59,-243.17 294.05,-233.16 285.1,-238.82 290.59,-243.17"/>
<text text-anchor="middle" x="284" y="-275" font-family="Courier,monospace" font-size="10.00">F</text>
</g>
<!-- router_routing_classifier_line_45_if -->
<g id="node3" class="node">
<title>router_routing_classifier_line_45_if</title>
<path fill="wheat" stroke="black" d="M365,-633C365,-633 52,-633 52,-633 46,-633 40,-627 40,-621 40,-621 40,-534 40,-534 40,-528 46,-522 52,-522 52,-522 365,-522 365,-522 371,-522 377,-528 377,-534 377,-534 377,-621 377,-621 377,-627 371,-633 365,-633"/>
<polygon fill="white" stroke="transparent" points="54.5,-593.5 54.5,-618.5 363.5,-618.5 363.5,-593.5 54.5,-593.5"/>
<polygon fill="none" stroke="black" points="54.5,-593.5 54.5,-618.5 363.5,-618.5 363.5,-593.5 54.5,-593.5"/>
<text text-anchor="start" x="61.5" y="-604.5" font-family="Courier,monospace" font-style="italic" font-size="10.00">p = await router_routing_classifier_line_45_if(p)</text>
<polygon fill="lightyellow" stroke="transparent" points="54.5,-568.5 54.5,-593.5 363.5,-593.5 363.5,-568.5 54.5,-568.5"/>
<polygon fill="none" stroke="black" points="54.5,-568.5 54.5,-593.5 363.5,-593.5 363.5,-568.5 54.5,-568.5"/>
<text text-anchor="start" x="103" y="-579.5" font-family="Courier,monospace" font-weight="bold" font-size="10.00">if</text>
<text text-anchor="start" x="116" y="-579.5" font-family="Courier,monospace" font-size="10.00"> p.get(&#39;category&#39;) == &#39;technical&#39;</text>
<polygon fill="none" stroke="black" points="54.5,-535.5 54.5,-568.5 363.5,-568.5 363.5,-535.5 54.5,-535.5"/>
<polygon fill="#698b69" stroke="transparent" points="61.5,-542.5 61.5,-561.5 206.5,-561.5 206.5,-542.5 61.5,-542.5"/>
<text text-anchor="start" x="121.5" y="-550.5" font-family="Courier,monospace" font-weight="bold" font-size="10.00" fill="white">TRUE</text>
<polygon fill="#8b3a3a" stroke="transparent" points="206.5,-542.5 206.5,-561.5 356.5,-561.5 356.5,-542.5 206.5,-542.5"/>
<text text-anchor="start" x="266" y="-550.5" font-family="Courier,monospace" font-weight="bold" font-size="10.00" fill="white">FALSE</text>
</g>
<!-- router_routing_classifier_line_45_if&#45;&gt;router_routing_classifier_line_47_if -->
<g id="edge8" class="edge">
<title>router_routing_classifier_line_45_if&#45;&gt;router_routing_classifier_line_47_if</title>
<path fill="none" stroke="#8b3a3a" d="M208.5,-521.87C208.5,-497.63 208.5,-468.9 208.5,-443.56"/>
<polygon fill="#8b3a3a" stroke="#8b3a3a" points="212,-443.29 208.5,-433.29 205,-443.29 212,-443.29"/>
<text text-anchor="middle" x="212" y="-475" font-family="Courier,monospace" font-size="10.00">F</text>
</g>
<!-- technical_agent -->
<g id="node11" class="node">
<title>technical_agent</title>
<path fill="lightblue" stroke="black" d="M496,-304C496,-304 309,-304 309,-304 303,-304 297,-298 297,-292 297,-292 297,-263 297,-263 297,-257 303,-251 309,-251 309,-251 496,-251 496,-251 502,-251 508,-257 508,-263 508,-263 508,-292 508,-292 508,-298 502,-304 496,-304"/>
<polygon fill="white" stroke="transparent" points="311.5,-264.5 311.5,-289.5 494.5,-289.5 494.5,-264.5 311.5,-264.5"/>
<polygon fill="none" stroke="black" points="311.5,-264.5 311.5,-289.5 494.5,-289.5 494.5,-264.5 311.5,-264.5"/>
<text text-anchor="start" x="318.5" y="-275.5" font-family="Courier,monospace" font-style="italic" font-size="10.00">p = await technical_agent(p)</text>
</g>
<!-- router_routing_classifier_line_45_if&#45;&gt;technical_agent -->
<g id="edge9" class="edge">
<title>router_routing_classifier_line_45_if&#45;&gt;technical_agent</title>
<path fill="none" stroke="#698b69" d="M302.15,-521.98C333.83,-498.69 366.08,-468.59 385.5,-433 405.62,-396.13 407.56,-346.98 405.99,-314.11"/>
<polygon fill="#698b69" stroke="#698b69" points="409.47,-313.81 405.37,-304.05 402.49,-314.24 409.47,-313.81"/>
<text text-anchor="middle" x="378" y="-475" font-family="Courier,monospace" font-size="10.00">T</text>
</g>
<!-- router_routing_classifier_line_43_if -->
<g id="node4" class="node">
<title>router_routing_classifier_line_43_if</title>
<path fill="wheat" stroke="black" d="M365,-791C365,-791 52,-791 52,-791 46,-791 40,-785 40,-779 40,-779 40,-692 40,-692 40,-686 46,-680 52,-680 52,-680 365,-680 365,-680 371,-680 377,-686 377,-692 377,-692 377,-779 377,-779 377,-785 371,-791 365,-791"/>
<polygon fill="white" stroke="transparent" points="54.5,-751.5 54.5,-776.5 363.5,-776.5 363.5,-751.5 54.5,-751.5"/>
<polygon fill="none" stroke="black" points="54.5,-751.5 54.5,-776.5 363.5,-776.5 363.5,-751.5 54.5,-751.5"/>
<text text-anchor="start" x="61.5" y="-762.5" font-family="Courier,monospace" font-style="italic" font-size="10.00">p = await router_routing_classifier_line_43_if(p)</text>
<polygon fill="lightyellow" stroke="transparent" points="54.5,-726.5 54.5,-751.5 363.5,-751.5 363.5,-726.5 54.5,-726.5"/>
<polygon fill="none" stroke="black" points="54.5,-726.5 54.5,-751.5 363.5,-751.5 363.5,-726.5 54.5,-726.5"/>
<text text-anchor="start" x="109" y="-737.5" font-family="Courier,monospace" font-weight="bold" font-size="10.00">if</text>
<text text-anchor="start" x="122" y="-737.5" font-family="Courier,monospace" font-size="10.00"> p.get(&#39;category&#39;) == &#39;billing&#39;</text>
<polygon fill="none" stroke="black" points="54.5,-693.5 54.5,-726.5 363.5,-726.5 363.5,-693.5 54.5,-693.5"/>
<polygon fill="#698b69" stroke="transparent" points="61.5,-700.5 61.5,-719.5 206.5,-719.5 206.5,-700.5 61.5,-700.5"/>
<text text-anchor="start" x="121.5" y="-708.5" font-family="Courier,monospace" font-weight="bold" font-size="10.00" fill="white">TRUE</text>
<polygon fill="#8b3a3a" stroke="transparent" points="206.5,-700.5 206.5,-719.5 356.5,-719.5 356.5,-700.5 206.5,-700.5"/>
<text text-anchor="start" x="266" y="-708.5" font-family="Courier,monospace" font-weight="bold" font-size="10.00" fill="white">FALSE</text>
</g>
<!-- router_routing_classifier_line_43_if&#45;&gt;router_routing_classifier_line_45_if -->
<g id="edge7" class="edge">
<title>router_routing_classifier_line_43_if&#45;&gt;router_routing_classifier_line_45_if</title>
<path fill="none" stroke="#8b3a3a" d="M208.5,-679.94C208.5,-668.06 208.5,-655.39 208.5,-643.17"/>
<polygon fill="#8b3a3a" stroke="#8b3a3a" points="212,-643.03 208.5,-633.03 205,-643.03 212,-643.03"/>
<text text-anchor="middle" x="212" y="-654" font-family="Courier,monospace" font-size="10.00">F</text>
</g>
<!-- billing_agent -->
<g id="node7" class="node">
<title>billing_agent</title>
<path fill="lightblue" stroke="black" d="M607,-504C607,-504 432,-504 432,-504 426,-504 420,-498 420,-492 420,-492 420,-463 420,-463 420,-457 426,-451 432,-451 432,-451 607,-451 607,-451 613,-451 619,-457 619,-463 619,-463 619,-492 619,-492 619,-498 613,-504 607,-504"/>
<polygon fill="white" stroke="transparent" points="434.5,-464.5 434.5,-489.5 605.5,-489.5 605.5,-464.5 434.5,-464.5"/>
<polygon fill="none" stroke="black" points="434.5,-464.5 434.5,-489.5 605.5,-489.5 605.5,-464.5 434.5,-464.5"/>
<text text-anchor="start" x="441.5" y="-475.5" font-family="Courier,monospace" font-style="italic" font-size="10.00">p = await billing_agent(p)</text>
</g>
<!-- router_routing_classifier_line_43_if&#45;&gt;billing_agent -->
<g id="edge6" class="edge">
<title>router_routing_classifier_line_43_if&#45;&gt;billing_agent</title>
<path fill="none" stroke="#698b69" d="M317.13,-679.9C340.67,-666 364.71,-650.11 385.5,-633 429.35,-596.92 470.72,-545.61 495.58,-512.19"/>
<polygon fill="#698b69" stroke="#698b69" points="498.43,-514.23 501.54,-504.1 492.79,-510.08 498.43,-514.23"/>
<text text-anchor="middle" x="364" y="-654" font-family="Courier,monospace" font-size="10.00">T</text>
</g>
<!-- end_routing_classifier -->
<g id="node5" class="node">
<title>end_routing_classifier</title>
<path fill="lightgreen" stroke="black" d="M527,-53C527,-53 298,-53 298,-53 292,-53 286,-47 286,-41 286,-41 286,-12 286,-12 286,-6 292,0 298,0 298,0 527,0 527,0 533,0 539,-6 539,-12 539,-12 539,-41 539,-41 539,-47 533,-53 527,-53"/>
<polygon fill="white" stroke="transparent" points="300.5,-13.5 300.5,-38.5 525.5,-38.5 525.5,-13.5 300.5,-13.5"/>
<polygon fill="none" stroke="black" points="300.5,-13.5 300.5,-38.5 525.5,-38.5 525.5,-13.5 300.5,-13.5"/>
<text text-anchor="start" x="307.5" y="-24.5" font-family="Courier,monospace" font-style="italic" font-size="10.00">p = await end_routing_classifier(p)</text>
</g>
<!-- format_reply -->
<g id="node9" class="node">
<title>format_reply</title>
<path fill="lightblue" stroke="black" d="M497,-143C497,-143 328,-143 328,-143 322,-143 316,-137 316,-131 316,-131 316,-102 316,-102 316,-96 322,-90 328,-90 328,-90 497,-90 497,-90 503,-90 509,-96 509,-102 509,-102 509,-131 509,-131 509,-137 503,-143 497,-143"/>
<polygon fill="white" stroke="transparent" points="330.5,-103.5 330.5,-128.5 495.5,-128.5 495.5,-103.5 330.5,-103.5"/>
<polygon fill="none" stroke="black" points="330.5,-103.5 330.5,-128.5 495.5,-128.5 495.5,-103.5 330.5,-103.5"/>
<text text-anchor="start" x="337.5" y="-114.5" font-family="Courier,monospace" font-style="italic" font-size="10.00">p = await format_reply(p)</text>
</g>
<!-- account_agent&#45;&gt;format_reply -->
<g id="edge1" class="edge">
<title>account_agent&#45;&gt;format_reply</title>
<path fill="none" stroke="black" d="M190.45,-179.93C228.47,-169.24 272.8,-156.78 311.8,-145.81"/>
<polygon fill="black" stroke="black" points="312.91,-149.14 321.59,-143.06 311.02,-142.4 312.91,-149.14"/>
</g>
<!-- billing_agent&#45;&gt;format_reply -->
<g id="edge2" class="edge">
<title>billing_agent&#45;&gt;format_reply</title>
<path fill="none" stroke="black" d="M523.02,-450.92C527.9,-408.14 533.62,-319.99 509.5,-251 496.13,-212.77 467.95,-176.05 445.39,-150.83"/>
<polygon fill="black" stroke="black" points="447.92,-148.41 438.59,-143.38 442.75,-153.13 447.92,-148.41"/>
</g>
<!-- classifier&#45;&gt;router_routing_classifier_line_43_if -->
<g id="edge3" class="edge">
<title>classifier&#45;&gt;router_routing_classifier_line_43_if</title>
<path fill="none" stroke="black" d="M208.5,-827.82C208.5,-819.92 208.5,-810.83 208.5,-801.53"/>
<polygon fill="black" stroke="black" points="212,-801.38 208.5,-791.38 205,-801.38 212,-801.38"/>
</g>
<!-- format_reply&#45;&gt;end_routing_classifier -->
<g id="edge4" class="edge">
<title>format_reply&#45;&gt;end_routing_classifier</title>
<path fill="none" stroke="black" d="M412.5,-89.57C412.5,-81.34 412.5,-72.08 412.5,-63.28"/>
<polygon fill="black" stroke="black" points="416,-63.24 412.5,-53.24 409,-63.24 416,-63.24"/>
</g>
<!-- general_agent&#45;&gt;format_reply -->
<g id="edge5" class="edge">
<title>general_agent&#45;&gt;format_reply</title>
<path fill="none" stroke="black" d="M344.53,-179.81C354.68,-170.5 366.28,-159.86 377,-150.04"/>
<polygon fill="black" stroke="black" points="379.6,-152.41 384.61,-143.07 374.87,-147.25 379.6,-152.41"/>
</g>
<!-- technical_agent&#45;&gt;format_reply -->
<g id="edge13" class="edge">
<title>technical_agent&#45;&gt;format_reply</title>
<path fill="none" stroke="black" d="M418.07,-250.57C420.73,-244.96 423.09,-238.93 424.5,-233 430.79,-206.64 427.16,-176.12 422.3,-153.08"/>
<polygon fill="black" stroke="black" points="425.65,-152.02 420.01,-143.05 418.83,-153.58 425.65,-152.02"/>
</g>
</g>
</svg>
