<?xml version="1.0" encoding="UTF-8" standalone="no"?>
<!DOCTYPE svg PUBLIC "-//W3C//DTD SVG 1.1//EN"
 "http://www.w3.org/Graphics/SVG/1.1/DTD/svg11.dtd">
<!-- Generated by graphviz version 2.43.0 (0)
 -->
<!-- Title: flow Pages: 1 -->
<svg width="351pt" height="428pt"
 viewBox="0.00 0.00 351.00 428.00" xmlns="http://www.w3.org/2000/svg" xmlns:xlink="http://www.w3.org/1999/xlink">
<g id="graph0" class="graph" transform="scale(1 1) rotate(0) translate(4 424)">
<title>flow</title>
<polygon fill="white" stroke="transparent" points="-4,4 -4,-424 347,-424 347,4 -4,4"/>
<!-- start_mutations_with_handler_flow -->
<g id="node1" class="node">
<title>start_mutations_with_handler_flow</title>
<path fill="lightgreen" stroke="black" d="M301,-420C301,-420 42,-420 42,-420 36,-420 30,-414 30,-408 30,-408 30,-304 30,-304 30,-298 36,-292 42,-292 42,-292 301,-292 301,-292 307,-292 313,-298 313,-304 313,-304 313,-408 313,-408 313,-414 307,-420 301,-420"/>
<polygon fill="white" stroke="transparent" points="44.5,-381 44.5,-406 299.5,-406 299.5,-381 44.5,-381"/>
<polygon fill="none" stroke="black" points="44.5,-381 44.5,-406 299.5,-406 299.5,-381 44.5,-381"/>
<text text-anchor="start" x="51.5" y="-392" font-family="Courier,monospace" font-style="italic" font-size="10.00">p = start_mutations_with_handler_flow(p)</text>
<polygon fill="white" stroke="transparent" points="44.5,-356 44.5,-381 299.5,-381 299.5,-356 44.5,-356"/>
<polygon fill="none" stroke="black" points="44.5,-356 44.5,-381 299.5,-381 299.5,-356 44.5,-356"/>
<text text-anchor="start" x="51.5" y="-366" font-family="Courier,monospace" font-size="10.00">p[&#39;initialized&#39;] = True</text>
<polygon fill="white" stroke="transparent" points="44.5,-331 44.5,-356 299.5,-356 299.5,-331 44.5,-331"/>
<polygon fill="none" stroke="black" points="44.5,-331 44.5,-356 299.5,-356 299.5,-331 44.5,-331"/>
<text text-anchor="start" x="51.5" y="-341" font-family="Courier,monospace" font-size="10.00">p[&#39;step&#39;] = 1</text>
<polygon fill="white" stroke="transparent" points="44.5,-306 44.5,-331 299.5,-331 299.5,-306 44.5,-306"/>
<polygon fill="none" stroke="black" points="44.5,-306 44.5,-331 299.5,-331 299.5,-306 44.5,-306"/>
<text text-anchor="start" x="51.5" y="-316" font-family="Courier,monospace" font-size="10.00">p[&#39;count&#39;] = 0</text>
</g>
<!-- handler_process -->
<g id="node4" class="node">
<title>handler_process</title>
<path fill="lightblue" stroke="black" d="M247,-256C247,-256 96,-256 96,-256 90,-256 84,-250 84,-244 84,-244 84,-215 84,-215 84,-209 90,-203 96,-203 96,-203 247,-203 247,-203 253,-203 259,-209 259,-215 259,-215 259,-244 259,-244 259,-250 253,-256 247,-256"/>
<polygon fill="white" stroke="transparent" points="98.5,-216.5 98.5,-241.5 245.5,-241.5 245.5,-216.5 98.5,-216.5"/>
<polygon fill="none" stroke="black" points="98.5,-216.5 98.5,-241.5 245.5,-241.5 245.5,-216.5 98.5,-216.5"/>
<text text-anchor="start" x="105.5" y="-227.5" font-family="Courier,monospace" font-style="italic" font-size="10.00">p = handler_process(p)</text>
</g>
<!-- start_mutations_with_handler_flow&#45;&gt;handler_process -->
<g id="edge3" class="edge">
<title>start_mutations_with_handler_flow&#45;&gt;handler_process</title>
<path fill="none" stroke="black" d="M171.5,-291.66C171.5,-282.88 171.5,-274.14 171.5,-266.13"/>
<polygon fill="black" stroke="black" points="175,-266.06 171.5,-256.06 168,-266.06 175,-266.06"/>
</g>
<!-- router_mutations_with_handler_flow_line_13_seq -->
<g id="node2" class="node">
<title>router_mutations_with_handler_flow_line_13_seq</title>
<path fill="wheat" stroke="black" d="M331,-167C331,-167 12,-167 12,-167 6,-167 0,-161 0,-155 0,-155 0,-101 0,-101 0,-95 6,-89 12,-89 12,-89 331,-89 331,-89 337,-89 343,-95 343,-101 343,-101 343,-155 343,-155 343,-161 337,-167 331,-167"/>
<polygon fill="white" stroke="transparent" points="14.5,-128 14.5,-153 329.5,-153 329.5,-128 14.5,-128"/>
<polygon fill="none" stroke="black" points="14.5,-128 14.5,-153 329.5,-153 329.5,-128 14.5,-128"/>
<text text-anchor="start" x="21.5" y="-139" font-family="Courier,monospace" font-style="italic" font-size="10.00">p = router_mutations_with_handler_flow_line_13…(p)</text>
<polygon fill="white" stroke="transparent" points="14.5,-103 14.5,-128 329.5,-128 329.5,-103 14.5,-103"/>
<polygon fill="none" stroke="black" points="14.5,-103 14.5,-128 329.5,-128 329.5,-103 14.5,-103"/>
<text text-anchor="start" x="21.5" y="-113" font-family="Courier,monospace" font-size="10.00">p[&#39;finalized&#39;] = True</text>
</g>
<!-- end_mutations_with_handler_flow -->
<g id="node3" class="node">
<title>end_mutations_with_handler_flow</title>
<path fill="lightgreen" stroke="black" d="M295,-53C295,-53 48,-53 48,-53 42,-53 36,-47 36,-41 36,-41 36,-12 36,-12 36,-6 42,0 48,0 48,0 295,0 295,0 301,0 307,-6 307,-12 307,-12 307,-41 307,-41 307,-47 301,-53 295,-53"/>
<polygon fill="white" stroke="transparent" points="50.5,-13.5 50.5,-38.5 293.5,-38.5 293.5,-13.5 50.5,-13.5"/>
<polygon fill="none" stroke="black" points="50.5,-13.5 50.5,-38.5 293.5,-38.5 293.5,-13.5 50.5,-13.5"/>
<text text-anchor="start" x="57.5" y="-24.5" font-family="Courier,monospace" font-style="italic" font-size="10.00">p = end_mutations_with_handler_flow(p)</text>
</g>
<!-- router_mutations_with_handler_flow_line_13_seq&#45;&gt;end_mutations_with_handler_flow -->
<g id="edge2" class="edge">
<title>router_mutations_with_handler_flow_line_13_seq&#45;&gt;end_mutations_with_handler_flow</title>
<path fill="none" stroke="black" d="M171.5,-88.82C171.5,-80.41 171.5,-71.55 171.5,-63.25"/>
<polygon fill="black" stroke="black" points="175,-63.12 171.5,-53.12 168,-63.12 175,-63.12"/>
</g>
<!-- handler_process&#45;&gt;router_mutations_with_handler_flow_line_13_seq -->
<g id="edge1" class="edge">
<title>handler_process&#45;&gt;router_mutations_with_handler_flow_line_13_seq</title>
<path fill="none" stroke="black" d="M171.5,-202.88C171.5,-195.1 171.5,-186.28 171.5,-177.51"/>
<polygon fill="black" stroke="black" points="175,-177.3 171.5,-167.3 168,-177.3 175,-177.3"/>
</g>
</g>
</svg>
