<?xml version="1.0" encoding="UTF-8" standalone="no"?>
<!DOCTYPE svg PUBLIC "-//W3C//DTD SVG 1.1//EN"
 "http://www.w3.org/Graphics/SVG/1.1/DTD/svg11.dtd">
<!-- Generated by graphviz version 2.43.0 (0)
 -->
<!-- Title: flow Pages: 1 -->
<svg width="625pt" height="769pt"
 viewBox="0.00 0.00 625.00 769.00" xmlns="http://www.w3.org/2000/svg" xmlns:xlink="http://www.w3.org/1999/xlink">
<g id="graph0" class="graph" transform="scale(1 1) rotate(0) translate(4 765)">
<title>flow</title>
<polygon fill="white" stroke="transparent" points="-4,4 -4,-765 621,-765 621,4 -4,4"/>
<!-- start_if_mutations_in_branches_flow -->
<g id="node1" class="node">
<title>start_if_mutations_in_branches_flow</title>
<path fill="lightgreen" stroke="black" d="M307,-761C307,-761 36,-761 36,-761 30,-761 24,-755 24,-749 24,-749 24,-720 24,-720 24,-714 30,-708 36,-708 36,-708 307,-708 307,-708 313,-708 319,-714 319,-720 319,-720 319,-749 319,-749 319,-755 313,-761 307,-761"/>
<polygon fill="white" stroke="transparent" points="38.5,-721.5 38.5,-746.5 305.5,-746.5 305.5,-721.5 38.5,-721.5"/>
<polygon fill="none" stroke="black" points="38.5,-721.5 38.5,-746.5 305.5,-746.5 305.5,-721.5 38.5,-721.5"/>
<text text-anchor="start" x="45.5" y="-732.5" font-family="Courier,monospace" font-style="italic" font-size="10.00">p = start_if_mutations_in_branches_flow(p)</text>
</g>
<!-- handler_setup -->
<g id="node7" class="node">
<title>handler_setup</title>
<path fill="lightblue" stroke="black" d="M241,-671C241,-671 102,-671 102,-671 96,-671 90,-665 90,-659 90,-659 90,-630 90,-630 90,-624 96,-618 102,-618 102,-618 241,-618 241,-618 247,-618 253,-624 253,-630 253,-630 253,-659 253,-659 253,-665 247,-671 241,-671"/>
<polygon fill="white" stroke="transparent" points="104.5,-631.5 104.5,-656.5 239.5,-656.5 239.5,-631.5 104.5,-631.5"/>
<polygon fill="none" stroke="black" points="104.5,-631.5 104.5,-656.5 239.5,-656.5 239.5,-631.5 104.5,-631.5"/>
<text text-anchor="start" x="111.5" y="-642.5" font-family="Courier,monospace" font-style="italic" font-size="10.00">p = handler_setup(p)</text>
</g>
<!-- start_if_mutations_in_branches_flow&#45;&gt;handler_setup -->
<g id="edge9" class="edge">
<title>start_if_mutations_in_branches_flow&#45;&gt;handler_setup</title>
<path fill="none" stroke="black" d="M171.5,-707.57C171.5,-699.34 171.5,-690.08 171.5,-681.28"/>
<polygon fill="black" stroke="black" points="175,-681.24 171.5,-671.24 168,-681.24 175,-681.24"/>
</g>
<!-- router_if_mutations_in_branches_flow_line_11_seq -->
<g id="node2" class="node">
<title>router_if_mutations_in_branches_flow_line_11_seq</title>
<path fill="wheat" stroke="black" d="M331,-423C331,-423 12,-423 12,-423 6,-423 0,-417 0,-411 0,-411 0,-332 0,-332 0,-326 6,-320 12,-320 12,-320 331,-320 331,-320 337,-320 343,-326 343,-332 343,-332 343,-411 343,-411 343,-417 337,-423 331,-423"/>
<polygon fill="white" stroke="transparent" points="14.5,-383.5 14.5,-408.5 329.5,-408.5 329.5,-383.5 14.5,-383.5"/>
<polygon fill="none" stroke="black" points="14.5,-383.5 14.5,-408.5 329.5,-408.5 329.5,-383.5 14.5,-383.5"/>
<text text-anchor="start" x="21.5" y="-394.5" font-family="Courier,monospace" font-style="italic" font-size="10.00">p = router_if_mutations_in_branches_flow_line_…(p)</text>
<polygon fill="white" stroke="transparent" points="14.5,-358.5 14.5,-383.5 329.5,-383.5 329.5,-358.5 14.5,-358.5"/>
<polygon fill="none" stroke="black" points="14.5,-358.5 14.5,-383.5 329.5,-383.5 329.5,-358.5 14.5,-358.5"/>
<text text-anchor="start" x="21.5" y="-368.5" font-family="Courier,monospace" font-size="10.00">p[&#39;branch&#39;] = &#39;A&#39;</text>
<polygon fill="white" stroke="transparent" points="14.5,-333.5 14.5,-358.5 329.5,-358.5 329.5,-333.5 14.5,-333.5"/>
<polygon fill="none" stroke="black" points="14.5,-333.5 14.5,-358.5 329.5,-358.5 329.5,-333.5 14.5,-333.5"/>
<text text-anchor="start" x="21.5" y="-343.5" font-family="Courier,monospace" font-size="10.00">p[&#39;value&#39;] = 100</text>
</g>
<!-- handler_type_a -->
<g id="node8" class="node">
<title>handler_type_a</title>
<path fill="lightblue" stroke="black" d="M244,-258C244,-258 99,-258 99,-258 93,-258 87,-252 87,-246 87,-246 87,-217 87,-217 87,-211 93,-205 99,-205 99,-205 244,-205 244,-205 250,-205 256,-211 256,-217 256,-217 256,-246 256,-246 256,-252 250,-258 244,-258"/>
<polygon fill="white" stroke="transparent" points="101.5,-218.5 101.5,-243.5 242.5,-243.5 242.5,-218.5 101.5,-218.5"/>
<polygon fill="none" stroke="black" points="101.5,-218.5 101.5,-243.5 242.5,-243.5 242.5,-218.5 101.5,-218.5"/>
<text text-anchor="start" x="108.5" y="-229.5" font-family="Courier,monospace" font-style="italic" font-size="10.00">p = handler_type_a(p)</text>
</g>
<!-- router_if_mutations_in_branches_flow_line_11_seq&#45;&gt;handler_type_a -->
<g id="edge7" class="edge">
<title>router_if_mutations_in_branches_flow_line_11_seq&#45;&gt;handler_type_a</title>
<path fill="none" stroke="black" d="M171.5,-319.9C171.5,-302.9 171.5,-284.29 171.5,-268.63"/>
<polygon fill="black" stroke="black" points="175,-268.32 171.5,-258.32 168,-268.32 175,-268.32"/>
</g>
<!-- router_if_mutations_in_branches_flow_line_16_seq -->
<g id="node3" class="node">
<title>router_if_mutations_in_branches_flow_line_16_seq</title>
<path fill="wheat" stroke="black" d="M605,-283C605,-283 286,-283 286,-283 280,-283 274,-277 274,-271 274,-271 274,-192 274,-192 274,-186 280,-180 286,-180 286,-180 605,-180 605,-180 611,-180 617,-186 617,-192 617,-192 617,-271 617,-271 617,-277 611,-283 605,-283"/>
<polygon fill="white" stroke="transparent" points="288.5,-243.5 288.5,-268.5 603.5,-268.5 603.5,-243.5 288.5,-243.5"/>
<polygon fill="none" stroke="black" points="288.5,-243.5 288.5,-268.5 603.5,-268.5 603.5,-243.5 288.5,-243.5"/>
<text text-anchor="start" x="295.5" y="-254.5" font-family="Courier,monospace" font-style="italic" font-size="10.00">p = router_if_mutations_in_branches_flow_line_…(p)</text>
<polygon fill="white" stroke="transparent" points="288.5,-218.5 288.5,-243.5 603.5,-243.5 603.5,-218.5 288.5,-218.5"/>
<polygon fill="none" stroke="black" points="288.5,-218.5 288.5,-243.5 603.5,-243.5 603.5,-218.5 288.5,-218.5"/>
<text text-anchor="start" x="295.5" y="-228.5" font-family="Courier,monospace" font-size="10.00">p[&#39;branch&#39;] = &#39;B&#39;</text>
<polygon fill="white" stroke="transparent" points="288.5,-193.5 288.5,-218.5 603.5,-218.5 603.5,-193.5 288.5,-193.5"/>
<polygon fill="none" stroke="black" points="288.5,-193.5 288.5,-218.5 603.5,-218.5 603.5,-193.5 288.5,-193.5"/>
<text text-anchor="start" x="295.5" y="-203.5" font-family="Courier,monospace" font-size="10.00">p[&#39;value&#39;] = 200</text>
</g>
<!-- handler_finalize -->
<g id="node6" class="node">
<title>handler_finalize</title>
<path fill="lightblue" stroke="black" d="M386,-143C386,-143 229,-143 229,-143 223,-143 217,-137 217,-131 217,-131 217,-102 217,-102 217,-96 223,-90 229,-90 229,-90 386,-90 386,-90 392,-90 398,-96 398,-102 398,-102 398,-131 398,-131 398,-137 392,-143 386,-143"/>
<polygon fill="white" stroke="transparent" points="231.5,-103.5 231.5,-128.5 384.5,-128.5 384.5,-103.5 231.5,-103.5"/>
<polygon fill="none" stroke="black" points="231.5,-103.5 231.5,-128.5 384.5,-128.5 384.5,-103.5 231.5,-103.5"/>
<text text-anchor="start" x="238.5" y="-114.5" font-family="Courier,monospace" font-style="italic" font-size="10.00">p = handler_finalize(p)</text>
</g>
<!-- router_if_mutations_in_branches_flow_line_16_seq&#45;&gt;handler_finalize -->
<g id="edge8" class="edge">
<title>router_if_mutations_in_branches_flow_line_16_seq&#45;&gt;handler_finalize</title>
<path fill="none" stroke="black" d="M383.77,-179.95C371.17,-169.64 358.25,-159.06 346.71,-149.6"/>
<polygon fill="black" stroke="black" points="348.91,-146.88 338.95,-143.26 344.47,-152.3 348.91,-146.88"/>
</g>
<!-- router_if_mutations_in_branches_flow_line_10_if -->
<g id="node4" class="node">
<title>router_if_mutations_in_branches_flow_line_10_if</title>
<path fill="wheat" stroke="black" d="M331,-581C331,-581 12,-581 12,-581 6,-581 0,-575 0,-569 0,-569 0,-482 0,-482 0,-476 6,-470 12,-470 12,-470 331,-470 331,-470 337,-470 343,-476 343,-482 343,-482 343,-569 343,-569 343,-575 337,-581 331,-581"/>
<polygon fill="white" stroke="transparent" points="14.5,-541.5 14.5,-566.5 329.5,-566.5 329.5,-541.5 14.5,-541.5"/>
<polygon fill="none" stroke="black" points="14.5,-541.5 14.5,-566.5 329.5,-566.5 329.5,-541.5 14.5,-541.5"/>
<text text-anchor="start" x="21.5" y="-552.5" font-family="Courier,monospace" font-style="italic" font-size="10.00">p = router_if_mutations_in_branches_flow_line_…(p)</text>
<polygon fill="lightyellow" stroke="transparent" points="14.5,-516.5 14.5,-541.5 329.5,-541.5 329.5,-516.5 14.5,-516.5"/>
<polygon fill="none" stroke="black" points="14.5,-516.5 14.5,-541.5 329.5,-541.5 329.5,-516.5 14.5,-516.5"/>
<text text-anchor="start" x="114" y="-527.5" font-family="Courier,monospace" font-weight="bold" font-size="10.00">if</text>
<text text-anchor="start" x="127" y="-527.5" font-family="Courier,monospace" font-size="10.00"> p[&#39;type&#39;] == &#39;A&#39;</text>
<polygon fill="none" stroke="black" points="14.5,-483.5 14.5,-516.5 329.5,-516.5 329.5,-483.5 14.5,-483.5"/>
<polygon fill="#698b69" stroke="transparent" points="21.5,-490.5 21.5,-509.5 169.5,-509.5 169.5,-490.5 21.5,-490.5"/>
<text text-anchor="start" x="83" y="-498.5" font-family="Courier,monospace" font-weight="bold" font-size="10.00" fill="white">TRUE</text>
<polygon fill="#8b3a3a" stroke="transparent" points="169.5,-490.5 169.5,-509.5 322.5,-509.5 322.5,-490.5 169.5,-490.5"/>
<text text-anchor="start" x="230.5" y="-498.5" font-family="Courier,monospace" font-weight="bold" font-size="10.00" fill="white">FALSE</text>
</g>
<!-- router_if_mutations_in_branches_flow_line_10_if&#45;&gt;router_if_mutations_in_branches_flow_line_11_seq -->
<g id="edge6" class="edge">
<title>router_if_mutations_in_branches_flow_line_10_if&#45;&gt;router_if_mutations_in_branches_flow_line_11_seq</title>
<path fill="none" stroke="#698b69" d="M171.5,-469.62C171.5,-457.92 171.5,-445.48 171.5,-433.56"/>
<polygon fill="#698b69" stroke="#698b69" points="175,-433.25 171.5,-423.25 168,-433.25 175,-433.25"/>
<text text-anchor="middle" x="175" y="-444" font-family="Courier,monospace" font-size="10.00">T</text>
</g>
<!-- handler_type_b -->
<g id="node9" class="node">
<title>handler_type_b</title>
<path fill="lightblue" stroke="black" d="M518,-398C518,-398 373,-398 373,-398 367,-398 361,-392 361,-386 361,-386 361,-357 361,-357 361,-351 367,-345 373,-345 373,-345 518,-345 518,-345 524,-345 530,-351 530,-357 530,-357 530,-386 530,-386 530,-392 524,-398 518,-398"/>
<polygon fill="white" stroke="transparent" points="375.5,-358.5 375.5,-383.5 516.5,-383.5 516.5,-358.5 375.5,-358.5"/>
<polygon fill="none" stroke="black" points="375.5,-358.5 375.5,-383.5 516.5,-383.5 516.5,-358.5 375.5,-358.5"/>
<text text-anchor="start" x="382.5" y="-369.5" font-family="Courier,monospace" font-style="italic" font-size="10.00">p = handler_type_b(p)</text>
</g>
<!-- router_if_mutations_in_branches_flow_line_10_if&#45;&gt;handler_type_b -->
<g id="edge5" class="edge">
<title>router_if_mutations_in_branches_flow_line_10_if&#45;&gt;handler_type_b</title>
<path fill="none" stroke="#8b3a3a" d="M270.03,-469.84C310.59,-447.34 356.05,-422.12 390.53,-402.99"/>
<polygon fill="#8b3a3a" stroke="#8b3a3a" points="392.46,-405.93 399.5,-398.02 389.06,-399.81 392.46,-405.93"/>
<text text-anchor="middle" x="321" y="-444" font-family="Courier,monospace" font-size="10.00">F</text>
</g>
<!-- end_if_mutations_in_branches_flow -->
<g id="node5" class="node">
<title>end_if_mutations_in_branches_flow</title>
<path fill="lightgreen" stroke="black" d="M437,-53C437,-53 178,-53 178,-53 172,-53 166,-47 166,-41 166,-41 166,-12 166,-12 166,-6 172,0 178,0 178,0 437,0 437,0 443,0 449,-6 449,-12 449,-12 449,-41 449,-41 449,-47 443,-53 437,-53"/>
<polygon fill="white" stroke="transparent" points="180.5,-13.5 180.5,-38.5 435.5,-38.5 435.5,-13.5 180.5,-13.5"/>
<polygon fill="none" stroke="black" points="180.5,-13.5 180.5,-38.5 435.5,-38.5 435.5,-13.5 180.5,-13.5"/>
<text text-anchor="start" x="187.5" y="-24.5" font-family="Courier,monospace" font-style="italic" font-size="10.00">p = end_if_mutations_in_branches_flow(p)</text>
</g>
<!-- handler_finalize&#45;&gt;end_if_mutations_in_branches_flow -->
<g id="edge1" class="edge">
<title>handler_finalize&#45;&gt;end_if_mutations_in_branches_flow</title>
<path fill="none" stroke="black" d="M307.5,-89.57C307.5,-81.34 307.5,-72.08 307.5,-63.28"/>
<polygon fill="black" stroke="black" points="311,-63.24 307.5,-53.24 304,-63.24 311,-63.24"/>
</g>
<!-- handler_setup&#45;&gt;router_if_mutations_in_branches_flow_line_10_if -->
<g id="edge2" class="edge">
<title>handler_setup&#45;&gt;router_if_mutations_in_branches_flow_line_10_if</title>
<path fill="none" stroke="black" d="M171.5,-617.82C171.5,-609.92 171.5,-600.83 171.5,-591.53"/>
<polygon fill="black" stroke="black" points="175,-591.38 171.5,-581.38 168,-591.38 175,-591.38"/>
</g>
<!-- handler_type_a&#45;&gt;handler_finalize -->
<g id="edge3" class="edge">
<title>handler_type_a&#45;&gt;handler_finalize</title>
<path fill="none" stroke="black" d="M202.36,-204.86C222.1,-188.46 247.85,-167.06 268.93,-149.54"/>
<polygon fill="black" stroke="black" points="271.31,-152.12 276.76,-143.04 266.83,-146.74 271.31,-152.12"/>
</g>
<!-- handler_type_b&#45;&gt;router_if_mutations_in_branches_flow_line_16_seq -->
<g id="edge4" class="edge">
<title>handler_type_b&#45;&gt;router_if_mutations_in_branches_flow_line_16_seq</title>
<path fill="none" stroke="black" d="M445.5,-344.87C445.5,-330.33 445.5,-311.48 445.5,-293.39"/>
<polygon fill="black" stroke="black" points="449,-293.16 445.5,-283.16 442,-293.16 449,-293.16"/>
</g>
</g>
</svg>
