<?xml version="1.0" encoding="UTF-8" standalone="no"?>
<!DOCTYPE svg PUBLIC "-//W3C//DTD SVG 1.1//EN"
 "http://www.w3.org/Graphics/SVG/1.1/DTD/svg11.dtd">
<!-- Generated by graphviz version 2.43.0 (0)
 -->
<!-- Title: flow Pages: 1 -->
<svg width="591pt" height="779pt"
 viewBox="0.00 0.00 591.00 779.00" xmlns="http://www.w3.org/2000/svg" xmlns:xlink="http://www.w3.org/1999/xlink">
<g id="graph0" class="graph" transform="scale(1 1) rotate(0) translate(4 775)">
<title>flow</title>
<polygon fill="white" stroke="transparent" points="-4,4 -4,-775 587,-775 587,4 -4,4"/>
<!-- start_content_pipeline_flow -->
<g id="node1" class="node">
<title>start_content_pipeline_flow</title>
<path fill="lightgreen" stroke="black" d="M411,-771C411,-771 152,-771 152,-771 146,-771 140,-765 140,-759 140,-759 140,-730 140,-730 140,-724 146,-718 152,-718 152,-718 411,-718 411,-718 417,-718 423,-724 423,-730 423,-730 423,-759 423,-759 423,-765 417,-771 411,-771"/>
<polygon fill="white" stroke="transparent" points="154.5,-731.5 154.5,-756.5 409.5,-756.5 409.5,-731.5 154.5,-731.5"/>
<polygon fill="none" stroke="black" points="154.5,-731.5 154.5,-756.5 409.5,-756.5 409.5,-731.5 154.5,-731.5"/>
<text text-anchor="start" x="161.5" y="-742.5" font-family="Courier,monospace" font-style="italic" font-size="10.00">p = await start_content_pipeline_flow(p)</text>
</g>
<!-- classifier -->
<g id="node5" class="node">
<title>classifier</title>
<path fill="lightblue" stroke="black" d="M360,-681C360,-681 203,-681 203,-681 197,-681 191,-675 191,-669 191,-669 191,-640 191,-640 191,-634 197,-628 203,-628 203,-628 360,-628 360,-628 366,-628 372,-634 372,-640 372,-640 372,-669 372,-669 372,-675 366,-681 360,-681"/>
<polygon fill="white" stroke="transparent" points="205.5,-641.5 205.5,-666.5 358.5,-666.5 358.5,-641.5 205.5,-641.5"/>
<polygon fill="none" stroke="black" points="205.5,-641.5 205.5,-666.5 358.5,-666.5 358.5,-641.5 205.5,-641.5"/>
<text text-anchor="start" x="212.5" y="-652.5" font-family="Courier,monospace" font-style="italic" font-size="10.00">p = await classifier(p)</text>
</g>
<!-- start_content_pipeline_flow&#45;&gt;classifier -->
<g id="edge9" class="edge">
<title>start_content_pipeline_flow&#45;&gt;classifier</title>
<path fill="none" stroke="black" d="M281.5,-717.57C281.5,-709.34 281.5,-700.08 281.5,-691.28"/>
<polygon fill="black" stroke="black" points="285,-691.24 281.5,-681.24 278,-691.24 285,-691.24"/>
</g>
<!-- router_content_pipeline_flow_line_14_if -->
<g id="node2" class="node">
<title>router_content_pipeline_flow_line_14_if</title>
<path fill="wheat" stroke="black" d="M441,-433C441,-433 122,-433 122,-433 116,-433 110,-427 110,-421 110,-421 110,-334 110,-334 110,-328 116,-322 122,-322 122,-322 441,-322 441,-322 447,-322 453,-328 453,-334 453,-334 453,-421 453,-421 453,-427 447,-433 441,-433"/>
<polygon fill="white" stroke="transparent" points="124.5,-393.5 124.5,-418.5 439.5,-418.5 439.5,-393.5 124.5,-393.5"/>
<polygon fill="none" stroke="black" points="124.5,-393.5 124.5,-418.5 439.5,-418.5 439.5,-393.5 124.5,-393.5"/>
<text text-anchor="start" x="131.5" y="-404.5" font-family="Courier,monospace" font-style="italic" font-size="10.00">p = await router_content_pipeline_flow_line_14…(p)</text>
<polygon fill="lightyellow" stroke="transparent" points="124.5,-368.5 124.5,-393.5 439.5,-393.5 439.5,-368.5 124.5,-368.5"/>
<polygon fill="none" stroke="black" points="124.5,-368.5 124.5,-393.5 439.5,-393.5 439.5,-368.5 124.5,-368.5"/>
<text text-anchor="start" x="188" y="-379.5" font-family="Courier,monospace" font-weight="bold" font-size="10.00">if</text>
<text text-anchor="start" x="201" y="-379.5" font-family="Courier,monospace" font-size="10.00"> p[&#39;content_type&#39;] == &#39;image&#39;</text>
<polygon fill="none" stroke="black" points="124.5,-335.5 124.5,-368.5 439.5,-368.5 439.5,-335.5 124.5,-335.5"/>
<polygon fill="#698b69" stroke="transparent" points="131.5,-342.5 131.5,-361.5 279.5,-361.5 279.5,-342.5 131.5,-342.5"/>
<text text-anchor="start" x="193" y="-350.5" font-family="Courier,monospace" font-weight="bold" font-size="10.00" fill="white">TRUE</text>
<polygon fill="#8b3a3a" stroke="transparent" points="279.5,-342.5 279.5,-361.5 432.5,-361.5 432.5,-342.5 279.5,-342.5"/>
<text text-anchor="start" x="340.5" y="-350.5" font-family="Courier,monospace" font-weight="bold" font-size="10.00" fill="white">FALSE</text>
</g>
<!-- generic_processor -->
<g id="node6" class="node">
<title>generic_processor</title>
<path fill="lightblue" stroke="black" d="M211,-233C211,-233 12,-233 12,-233 6,-233 0,-227 0,-221 0,-221 0,-192 0,-192 0,-186 6,-180 12,-180 12,-180 211,-180 211,-180 217,-180 223,-186 223,-192 223,-192 223,-221 223,-221 223,-227 217,-233 211,-233"/>
<polygon fill="white" stroke="transparent" points="14.5,-193.5 14.5,-218.5 209.5,-218.5 209.5,-193.5 14.5,-193.5"/>
<polygon fill="none" stroke="black" points="14.5,-193.5 14.5,-218.5 209.5,-218.5 209.5,-193.5 14.5,-193.5"/>
<text text-anchor="start" x="21.5" y="-204.5" font-family="Courier,monospace" font-style="italic" font-size="10.00">p = await generic_processor(p)</text>
</g>
<!-- router_content_pipeline_flow_line_14_if&#45;&gt;generic_processor -->
<g id="edge7" class="edge">
<title>router_content_pipeline_flow_line_14_if&#45;&gt;generic_processor</title>
<path fill="none" stroke="#8b3a3a" d="M226.31,-321.63C199.36,-294.84 167.84,-263.51 144.65,-240.46"/>
<polygon fill="#8b3a3a" stroke="#8b3a3a" points="146.99,-237.85 137.43,-233.28 142.06,-242.81 146.99,-237.85"/>
<text text-anchor="middle" x="211" y="-275" font-family="Courier,monospace" font-size="10.00">F</text>
</g>
<!-- image_processor -->
<g id="node7" class="node">
<title>image_processor</title>
<path fill="lightblue" stroke="black" d="M440,-233C440,-233 253,-233 253,-233 247,-233 241,-227 241,-221 241,-221 241,-192 241,-192 241,-186 247,-180 253,-180 253,-180 440,-180 440,-180 446,-180 452,-186 452,-192 452,-192 452,-221 452,-221 452,-227 446,-233 440,-233"/>
<polygon fill="white" stroke="transparent" points="255.5,-193.5 255.5,-218.5 438.5,-218.5 438.5,-193.5 255.5,-193.5"/>
<polygon fill="none" stroke="black" points="255.5,-193.5 255.5,-218.5 438.5,-218.5 438.5,-193.5 255.5,-193.5"/>
<text text-anchor="start" x="262.5" y="-204.5" font-family="Courier,monospace" font-style="italic" font-size="10.00">p = await image_processor(p)</text>
</g>
<!-- router_content_pipeline_flow_line_14_if&#45;&gt;image_processor -->
<g id="edge8" class="edge">
<title>router_content_pipeline_flow_line_14_if&#45;&gt;image_processor</title>
<path fill="none" stroke="#698b69" d="M302.6,-321.63C312.55,-295.77 324.13,-265.67 332.89,-242.88"/>
<polygon fill="#698b69" stroke="#698b69" points="336.26,-243.87 336.58,-233.28 329.73,-241.36 336.26,-243.87"/>
<text text-anchor="middle" x="333" y="-275" font-family="Courier,monospace" font-size="10.00">T</text>
</g>
<!-- router_content_pipeline_flow_line_12_if -->
<g id="node3" class="node">
<title>router_content_pipeline_flow_line_12_if</title>
<path fill="wheat" stroke="black" d="M441,-591C441,-591 122,-591 122,-591 116,-591 110,-585 110,-579 110,-579 110,-492 110,-492 110,-486 116,-480 122,-480 122,-480 441,-480 441,-480 447,-480 453,-486 453,-492 453,-492 453,-579 453,-579 453,-585 447,-591 441,-591"/>
<polygon fill="white" stroke="transparent" points="124.5,-551.5 124.5,-576.5 439.5,-576.5 439.5,-551.5 124.5,-551.5"/>
<polygon fill="none" stroke="black" points="124.5,-551.5 124.5,-576.5 439.5,-576.5 439.5,-551.5 124.5,-551.5"/>
<text text-anchor="start" x="131.5" y="-562.5" font-family="Courier,monospace" font-style="italic" font-size="10.00">p = await router_content_pipeline_flow_line_12…(p)</text>
<polygon fill="lightyellow" stroke="transparent" points="124.5,-526.5 124.5,-551.5 439.5,-551.5 439.5,-526.5 124.5,-526.5"/>
<polygon fill="none" stroke="black" points="124.5,-526.5 124.5,-551.5 439.5,-551.5 439.5,-526.5 124.5,-526.5"/>
<text text-anchor="start" x="191" y="-537.5" font-family="Courier,monospace" font-weight="bold" font-size="10.00">if</text>
<text text-anchor="start" x="204" y="-537.5" font-family="Courier,monospace" font-size="10.00"> p[&#39;content_type&#39;] == &#39;text&#39;</text>
<polygon fill="none" stroke="black" points="124.5,-493.5 124.5,-526.5 439.5,-526.5 439.5,-493.5 124.5,-493.5"/>
<polygon fill="#698b69" stroke="transparent" points="131.5,-500.5 131.5,-519.5 279.5,-519.5 279.5,-500.5 131.5,-500.5"/>
<text text-anchor="start" x="193" y="-508.5" font-family="Courier,monospace" font-weight="bold" font-size="10.00" fill="white">TRUE</text>
<polygon fill="#8b3a3a" stroke="transparent" points="279.5,-500.5 279.5,-519.5 432.5,-519.5 432.5,-500.5 279.5,-500.5"/>
<text text-anchor="start" x="340.5" y="-508.5" font-family="Courier,monospace" font-weight="bold" font-size="10.00" fill="white">FALSE</text>
</g>
<!-- router_content_pipeline_flow_line_12_if&#45;&gt;router_content_pipeline_flow_line_14_if -->
<g id="edge5" class="edge">
<title>router_content_pipeline_flow_line_12_if&#45;&gt;router_content_pipeline_flow_line_14_if</title>
<path fill="none" stroke="#8b3a3a" d="M281.5,-479.94C281.5,-468.06 281.5,-455.39 281.5,-443.17"/>
<polygon fill="#8b3a3a" stroke="#8b3a3a" points="285,-443.03 281.5,-433.03 278,-443.03 285,-443.03"/>
<text text-anchor="middle" x="285" y="-454" font-family="Courier,monospace" font-size="10.00">F</text>
</g>
<!-- text_processor -->
<g id="node9" class="node">
<title>text_processor</title>
<path fill="lightblue" stroke="black" d="M571,-304C571,-304 390,-304 390,-304 384,-304 378,-298 378,-292 378,-292 378,-263 378,-263 378,-257 384,-251 390,-251 390,-251 571,-251 571,-251 577,-251 583,-257 583,-263 583,-263 583,-292 583,-292 583,-298 577,-304 571,-304"/>
<polygon fill="white" stroke="transparent" points="392.5,-264.5 392.5,-289.5 569.5,-289.5 569.5,-264.5 392.5,-264.5"/>
<polygon fill="none" stroke="black" points="392.5,-264.5 392.5,-289.5 569.5,-289.5 569.5,-264.5 392.5,-264.5"/>
<text text-anchor="start" x="399.5" y="-275.5" font-family="Courier,monospace" font-style="italic" font-size="10.00">p = await text_processor(p)</text>
</g>
<!-- router_content_pipeline_flow_line_12_if&#45;&gt;text_processor -->
<g id="edge6" class="edge">
<title>router_content_pipeline_flow_line_12_if&#45;&gt;text_processor</title>
<path fill="none" stroke="#698b69" d="M413.62,-479.82C432.19,-466.97 449.13,-451.48 461.5,-433 485.03,-397.84 486.89,-347.9 484.78,-314.41"/>
<polygon fill="#698b69" stroke="#698b69" points="488.25,-313.85 483.98,-304.15 481.27,-314.4 488.25,-313.85"/>
<text text-anchor="middle" x="451" y="-454" font-family="Courier,monospace" font-size="10.00">T</text>
</g>
<!-- end_content_pipeline_flow -->
<g id="node4" class="node">
<title>end_content_pipeline_flow</title>
<path fill="lightgreen" stroke="black" d="M470,-53C470,-53 223,-53 223,-53 217,-53 211,-47 211,-41 211,-41 211,-12 211,-12 211,-6 217,0 223,0 223,0 470,0 470,0 476,0 482,-6 482,-12 482,-12 482,-41 482,-41 482,-47 476,-53 470,-53"/>
<polygon fill="white" stroke="transparent" points="225.5,-13.5 225.5,-38.5 468.5,-38.5 468.5,-13.5 225.5,-13.5"/>
<polygon fill="none" stroke="black" points="225.5,-13.5 225.5,-38.5 468.5,-38.5 468.5,-13.5 225.5,-13.5"/>
<text text-anchor="start" x="232.5" y="-24.5" font-family="Courier,monospace" font-style="italic" font-size="10.00">p = await end_content_pipeline_flow(p)</text>
</g>
<!-- classifier&#45;&gt;router_content_pipeline_flow_line_12_if -->
<g id="edge1" class="edge">
<title>classifier&#45;&gt;router_content_pipeline_flow_line_12_if</title>
<path fill="none" stroke="black" d="M281.5,-627.82C281.5,-619.92 281.5,-610.83 281.5,-601.53"/>
<polygon fill="black" stroke="black" points="285,-601.38 281.5,-591.38 278,-601.38 285,-601.38"/>
</g>
<!-- quality_check -->
<g id="node8" class="node">
<title>quality_check</title>
<path fill="lightblue" stroke="black" d="M434,-143C434,-143 259,-143 259,-143 253,-143 247,-137 247,-131 247,-131 247,-102 247,-102 247,-96 253,-90 259,-90 259,-90 434,-90 434,-90 440,-90 446,-96 446,-102 446,-102 446,-131 446,-131 446,-137 440,-143 434,-143"/>
<polygon fill="white" stroke="transparent" points="261.5,-103.5 261.5,-128.5 432.5,-128.5 432.5,-103.5 261.5,-103.5"/>
<polygon fill="none" stroke="black" points="261.5,-103.5 261.5,-128.5 432.5,-128.5 432.5,-103.5 261.5,-103.5"/>
<text text-anchor="start" x="268.5" y="-114.5" font-family="Courier,monospace" font-style="italic" font-size="10.00">p = await quality_check(p)</text>
</g>
<!-- generic_processor&#45;&gt;quality_check -->
<g id="edge2" class="edge">
<title>generic_processor&#45;&gt;quality_check</title>
<path fill="none" stroke="black" d="M179.79,-179.93C207.55,-169.53 239.78,-157.46 268.46,-146.72"/>
<polygon fill="black" stroke="black" points="269.9,-149.92 278.04,-143.14 267.45,-143.36 269.9,-149.92"/>
</g>
<!-- image_processor&#45;&gt;quality_check -->
<g id="edge3" class="edge">
<title>image_processor&#45;&gt;quality_check</title>
<path fill="none" stroke="black" d="M346.5,-179.57C346.5,-171.34 346.5,-162.08 346.5,-153.28"/>
<polygon fill="black" stroke="black" points="350,-153.24 346.5,-143.24 343,-153.24 350,-153.24"/>
</g>
<!-- quality_check&#45;&gt;end_content_pipeline_flow -->
<g id="edge4" class="edge">
<title>quality_check&#45;&gt;end_content_pipeline_flow</title>
<path fill="none" stroke="black" d="M346.5,-89.57C346.5,-81.34 346.5,-72.08 346.5,-63.28"/>
<polygon fill="black" stroke="black" points="350,-63.24 346.5,-53.24 343,-63.24 350,-63.24"/>
</g>
<!-- text_processor&#45;&gt;quality_check -->
<g id="edge10" class="edge">
<title>text_processor&#45;&gt;quality_check</title>
<path fill="none" stroke="black" d="M480.88,-250.76C479.95,-229.82 475.66,-200.5 460.5,-180 451,-167.15 438.03,-156.63 424.24,-148.13"/>
<polygon fill="black" stroke="black" points="425.98,-145.09 415.57,-143.1 422.46,-151.14 425.98,-145.09"/>
</g>
</g>
</svg>
