<?xml version="1.0" encoding="UTF-8" standalone="no"?>
<!DOCTYPE svg PUBLIC "-//W3C//DTD SVG 1.1//EN"
 "http://www.w3.org/Graphics/SVG/1.1/DTD/svg11.dtd">
<!-- Generated by graphviz version 2.43.0 (0)
 -->
<!-- Title: flow Pages: 1 -->
<svg width="348pt" height="631pt"
 viewBox="0.00 0.00 348.00 631.00" xmlns="http://www.w3.org/2000/svg" xmlns:xlink="http://www.w3.org/1999/xlink">
<g id="graph0" class="graph" transform="scale(1 1) rotate(0) translate(4 627)">
<title>flow</title>
<polygon fill="white" stroke="transparent" points="-4,4 -4,-627 344,-627 344,4 -4,4"/>
<!-- start_early_return_flow -->
<g id="node1" class="node">
<title>start_early_return_flow</title>
<path fill="lightgreen" stroke="black" d="M247,-623C247,-623 48,-623 48,-623 42,-623 36,-617 36,-611 36,-611 36,-582 36,-582 36,-576 42,-570 48,-570 48,-570 247,-570 247,-570 253,-570 259,-576 259,-582 259,-582 259,-611 259,-611 259,-617 253,-623 247,-623"/>
<polygon fill="white" stroke="transparent" points="50.5,-583.5 50.5,-608.5 245.5,-608.5 245.5,-583.5 50.5,-583.5"/>
<polygon fill="none" stroke="black" points="50.5,-583.5 50.5,-608.5 245.5,-608.5 245.5,-583.5 50.5,-583.5"/>
<text text-anchor="start" x="57.5" y="-594.5" font-family="Courier,monospace" font-style="italic" font-size="10.00">p = start_early_return_flow(p)</text>
</g>
<!-- handler_validate -->
<g id="node7" class="node">
<title>handler_validate</title>
<path fill="lightblue" stroke="black" d="M226,-533C226,-533 69,-533 69,-533 63,-533 57,-527 57,-521 57,-521 57,-492 57,-492 57,-486 63,-480 69,-480 69,-480 226,-480 226,-480 232,-480 238,-486 238,-492 238,-492 238,-521 238,-521 238,-527 232,-533 226,-533"/>
<polygon fill="white" stroke="transparent" points="71.5,-493.5 71.5,-518.5 224.5,-518.5 224.5,-493.5 71.5,-493.5"/>
<polygon fill="none" stroke="black" points="71.5,-493.5 71.5,-518.5 224.5,-518.5 224.5,-493.5 71.5,-493.5"/>
<text text-anchor="start" x="78.5" y="-504.5" font-family="Courier,monospace" font-style="italic" font-size="10.00">p = handler_validate(p)</text>
</g>
<!-- start_early_return_flow&#45;&gt;handler_validate -->
<g id="edge7" class="edge">
<title>start_early_return_flow&#45;&gt;handler_validate</title>
<path fill="none" stroke="black" d="M147.5,-569.57C147.5,-561.34 147.5,-552.08 147.5,-543.28"/>
<polygon fill="black" stroke="black" points="151,-543.24 147.5,-533.24 144,-543.24 151,-543.24"/>
</g>
<!-- router_early_return_flow_line_10_if -->
<g id="node2" class="node">
<title>router_early_return_flow_line_10_if</title>
<path fill="wheat" stroke="black" d="M283,-443C283,-443 12,-443 12,-443 6,-443 0,-437 0,-431 0,-431 0,-344 0,-344 0,-338 6,-332 12,-332 12,-332 283,-332 283,-332 289,-332 295,-338 295,-344 295,-344 295,-431 295,-431 295,-437 289,-443 283,-443"/>
<polygon fill="white" stroke="transparent" points="14.5,-403.5 14.5,-428.5 281.5,-428.5 281.5,-403.5 14.5,-403.5"/>
<polygon fill="none" stroke="black" points="14.5,-403.5 14.5,-428.5 281.5,-428.5 281.5,-403.5 14.5,-403.5"/>
<text text-anchor="start" x="21.5" y="-414.5" font-family="Courier,monospace" font-style="italic" font-size="10.00">p = router_early_return_flow_line_10_if(p)</text>
<polygon fill="lightyellow" stroke="transparent" points="14.5,-378.5 14.5,-403.5 281.5,-403.5 281.5,-378.5 14.5,-378.5"/>
<polygon fill="none" stroke="black" points="14.5,-378.5 14.5,-403.5 281.5,-403.5 281.5,-378.5 14.5,-378.5"/>
<text text-anchor="start" x="96" y="-389.5" font-family="Courier,monospace" font-weight="bold" font-size="10.00">if</text>
<text text-anchor="start" x="109" y="-389.5" font-family="Courier,monospace" font-size="10.00"> not p[&#39;valid&#39;]</text>
<polygon fill="none" stroke="black" points="14.5,-345.5 14.5,-378.5 281.5,-378.5 281.5,-345.5 14.5,-345.5"/>
<polygon fill="#698b69" stroke="transparent" points="21.5,-352.5 21.5,-371.5 145.5,-371.5 145.5,-352.5 21.5,-352.5"/>
<text text-anchor="start" x="71" y="-360.5" font-family="Courier,monospace" font-weight="bold" font-size="10.00" fill="white">TRUE</text>
<polygon fill="#8b3a3a" stroke="transparent" points="145.5,-352.5 145.5,-371.5 274.5,-371.5 274.5,-352.5 145.5,-352.5"/>
<text text-anchor="start" x="194.5" y="-360.5" font-family="Courier,monospace" font-weight="bold" font-size="10.00" fill="white">FALSE</text>
</g>
<!-- handler_error -->
<g id="node4" class="node">
<title>handler_error</title>
<path fill="lightblue" stroke="black" d="M201,-214C201,-214 62,-214 62,-214 56,-214 50,-208 50,-202 50,-202 50,-173 50,-173 50,-167 56,-161 62,-161 62,-161 201,-161 201,-161 207,-161 213,-167 213,-173 213,-173 213,-202 213,-202 213,-208 207,-214 201,-214"/>
<polygon fill="white" stroke="transparent" points="64.5,-174.5 64.5,-199.5 199.5,-199.5 199.5,-174.5 64.5,-174.5"/>
<polygon fill="none" stroke="black" points="64.5,-174.5 64.5,-199.5 199.5,-199.5 199.5,-174.5 64.5,-174.5"/>
<text text-anchor="start" x="71.5" y="-185.5" font-family="Courier,monospace" font-style="italic" font-size="10.00">p = handler_error(p)</text>
</g>
<!-- router_early_return_flow_line_10_if&#45;&gt;handler_error -->
<g id="edge5" class="edge">
<title>router_early_return_flow_line_10_if&#45;&gt;handler_error</title>
<path fill="none" stroke="#698b69" d="M143.09,-331.87C140.31,-297.47 136.8,-254.05 134.37,-224.06"/>
<polygon fill="#698b69" stroke="#698b69" points="137.86,-223.73 133.56,-214.04 130.88,-224.29 137.86,-223.73"/>
<text text-anchor="middle" x="146" y="-306" font-family="Courier,monospace" font-size="10.00">T</text>
</g>
<!-- handler_process -->
<g id="node6" class="node">
<title>handler_process</title>
<path fill="lightblue" stroke="black" d="M324,-285C324,-285 173,-285 173,-285 167,-285 161,-279 161,-273 161,-273 161,-244 161,-244 161,-238 167,-232 173,-232 173,-232 324,-232 324,-232 330,-232 336,-238 336,-244 336,-244 336,-273 336,-273 336,-279 330,-285 324,-285"/>
<polygon fill="white" stroke="transparent" points="175.5,-245.5 175.5,-270.5 322.5,-270.5 322.5,-245.5 175.5,-245.5"/>
<polygon fill="none" stroke="black" points="175.5,-245.5 175.5,-270.5 322.5,-270.5 322.5,-245.5 175.5,-245.5"/>
<text text-anchor="start" x="182.5" y="-256.5" font-family="Courier,monospace" font-style="italic" font-size="10.00">p = handler_process(p)</text>
</g>
<!-- router_early_return_flow_line_10_if&#45;&gt;handler_process -->
<g id="edge6" class="edge">
<title>router_early_return_flow_line_10_if&#45;&gt;handler_process</title>
<path fill="none" stroke="#8b3a3a" d="M190.92,-331.9C201.43,-318.68 212.36,-304.94 221.84,-293.02"/>
<polygon fill="#8b3a3a" stroke="#8b3a3a" points="224.66,-295.1 228.14,-285.1 219.18,-290.74 224.66,-295.1"/>
<text text-anchor="middle" x="217" y="-306" font-family="Courier,monospace" font-size="10.00">F</text>
</g>
<!-- end_early_return_flow -->
<g id="node3" class="node">
<title>end_early_return_flow</title>
<path fill="lightgreen" stroke="black" d="M236,-53C236,-53 49,-53 49,-53 43,-53 37,-47 37,-41 37,-41 37,-12 37,-12 37,-6 43,0 49,0 49,0 236,0 236,0 242,0 248,-6 248,-12 248,-12 248,-41 248,-41 248,-47 242,-53 236,-53"/>
<polygon fill="white" stroke="transparent" points="51.5,-13.5 51.5,-38.5 234.5,-38.5 234.5,-13.5 51.5,-13.5"/>
<polygon fill="none" stroke="black" points="51.5,-13.5 51.5,-38.5 234.5,-38.5 234.5,-13.5 51.5,-13.5"/>
<text text-anchor="start" x="58.5" y="-24.5" font-family="Courier,monospace" font-style="italic" font-size="10.00">p = end_early_return_flow(p)</text>
</g>
<!-- handler_error&#45;&gt;end_early_return_flow -->
<g id="edge1" class="edge">
<title>handler_error&#45;&gt;end_early_return_flow</title>
<path fill="none" stroke="black" d="M133.27,-160.95C135.09,-134.61 137.95,-93.29 140,-63.61"/>
<polygon fill="black" stroke="black" points="143.52,-63.46 140.72,-53.25 136.54,-62.98 143.52,-63.46"/>
</g>
<!-- handler_finalize -->
<g id="node5" class="node">
<title>handler_finalize</title>
<path fill="lightblue" stroke="black" d="M328,-143C328,-143 171,-143 171,-143 165,-143 159,-137 159,-131 159,-131 159,-102 159,-102 159,-96 165,-90 171,-90 171,-90 328,-90 328,-90 334,-90 340,-96 340,-102 340,-102 340,-131 340,-131 340,-137 334,-143 328,-143"/>
<polygon fill="white" stroke="transparent" points="173.5,-103.5 173.5,-128.5 326.5,-128.5 326.5,-103.5 173.5,-103.5"/>
<polygon fill="none" stroke="black" points="173.5,-103.5 173.5,-128.5 326.5,-128.5 326.5,-103.5 173.5,-103.5"/>
<text text-anchor="start" x="180.5" y="-114.5" font-family="Courier,monospace" font-style="italic" font-size="10.00">p = handler_finalize(p)</text>
</g>
<!-- handler_finalize&#45;&gt;end_early_return_flow -->
<g id="edge2" class="edge">
<title>handler_finalize&#45;&gt;end_early_return_flow</title>
<path fill="none" stroke="black" d="M218.26,-89.81C206.73,-80.32 193.51,-69.45 181.38,-59.47"/>
<polygon fill="black" stroke="black" points="183.54,-56.72 173.59,-53.07 179.09,-62.12 183.54,-56.72"/>
</g>
<!-- handler_process&#45;&gt;handler_finalize -->
<g id="edge3" class="edge">
<title>handler_process&#45;&gt;handler_finalize</title>
<path fill="none" stroke="black" d="M248.68,-231.82C248.84,-209.72 249.07,-177.6 249.25,-153.03"/>
<polygon fill="black" stroke="black" points="252.75,-153.04 249.32,-143.02 245.75,-152.99 252.75,-153.04"/>
</g>
<!-- handler_validate&#45;&gt;router_early_return_flow_line_10_if -->
<g id="edge4" class="edge">
<title>handler_validate&#45;&gt;router_early_return_flow_line_10_if</title>
<path fill="none" stroke="black" d="M147.5,-479.82C147.5,-471.92 147.5,-462.83 147.5,-453.53"/>
<polygon fill="black" stroke="black" points="151,-453.38 147.5,-443.38 144,-453.38 151,-453.38"/>
</g>
</g>
</svg>
