<?xml version="1.0" encoding="UTF-8" standalone="no"?>
<!DOCTYPE svg PUBLIC "-//W3C//DTD SVG 1.1//EN"
 "http://www.w3.org/Graphics/SVG/1.1/DTD/svg11.dtd">
<!-- Generated by graphviz version 2.43.0 (0)
 -->
<!-- Title: flow Pages: 1 -->
<svg width="351pt" height="175pt"
 viewBox="0.00 0.00 351.00 175.00" xmlns="http://www.w3.org/2000/svg" xmlns:xlink="http://www.w3.org/1999/xlink">
<g id="graph0" class="graph" transform="scale(1 1) rotate(0) translate(4 171)">
<title>flow</title>
<polygon fill="white" stroke="transparent" points="-4,4 -4,-171 347,-171 347,4 -4,4"/>
<!-- start_ingester -->
<g id="node1" class="node">
<title>start_ingester</title>
<path fill="lightgreen" stroke="black" d="M331,-167C331,-167 12,-167 12,-167 6,-167 0,-161 0,-155 0,-155 0,-101 0,-101 0,-95 6,-89 12,-89 12,-89 331,-89 331,-89 337,-89 343,-95 343,-101 343,-101 343,-155 343,-155 343,-161 337,-167 331,-167"/>
<polygon fill="white" stroke="transparent" points="14.5,-128 14.5,-153 329.5,-153 329.5,-128 14.5,-128"/>
<polygon fill="none" stroke="black" points="14.5,-128 14.5,-153 329.5,-153 329.5,-128 14.5,-128"/>
<text text-anchor="start" x="108.5" y="-139" font-family="Courier,monospace" font-style="italic" font-size="10.00">p = start_ingester(p)</text>
<polygon fill="white" stroke="transparent" points="14.5,-103 14.5,-128 329.5,-128 329.5,-103 14.5,-103"/>
<polygon fill="none" stroke="black" points="14.5,-103 14.5,-128 329.5,-128 329.5,-103 14.5,-103"/>
<text text-anchor="start" x="21.5" y="-113" font-family="Courier,monospace" font-size="10.00">p[&#39;candidates&#39;] = retrieve(p[&#39;query&#39;]…top_k&#39;, 10))</text>
</g>
<!-- end_ingester -->
<g id="node2" class="node">
<title>end_ingester</title>
<path fill="lightgreen" stroke="black" d="M238,-53C238,-53 105,-53 105,-53 99,-53 93,-47 93,-41 93,-41 93,-12 93,-12 93,-6 99,0 105,0 105,0 238,0 238,0 244,0 250,-6 250,-12 250,-12 250,-41 250,-41 250,-47 244,-53 238,-53"/>
<polygon fill="white" stroke="transparent" points="107.5,-13.5 107.5,-38.5 236.5,-38.5 236.5,-13.5 107.5,-13.5"/>
<polygon fill="none" stroke="black" points="107.5,-13.5 107.5,-38.5 236.5,-38.5 236.5,-13.5 107.5,-13.5"/>
<text text-anchor="start" x="114.5" y="-24.5" font-family="Courier,monospace" font-style="italic" font-size="10.00">p = end_ingester(p)</text>
</g>
<!-- start_ingester&#45;&gt;end_ingester -->
<g id="edge1" class="edge">
<title>start_ingester&#45;&gt;end_ingester</title>
<path fill="none" stroke="black" d="M171.5,-88.82C171.5,-80.41 171.5,-71.55 171.5,-63.25"/>
<polygon fill="black" stroke="black" points="175,-63.12 171.5,-53.12 168,-63.12 175,-63.12"/>
</g>
</g>
</svg>
