<?xml version="1.0" encoding="UTF-8" standalone="no"?>
<!DOCTYPE svg PUBLIC "-//W3C//DTD SVG 1.1//EN"
 "http://www.w3.org/Graphics/SVG/1.1/DTD/svg11.dtd">
<!-- Generated by graphviz version 2.43.0 (0)
 -->
<!-- Title: flow Pages: 1 -->
<svg width="243pt" height="275pt"
 viewBox="0.00 0.00 243.00 275.00" xmlns="http://www.w3.org/2000/svg" xmlns:xlink="http://www.w3.org/1999/xlink">
<g id="graph0" class="graph" transform="scale(1 1) rotate(0) translate(4 271)">
<title>flow</title>
<polygon fill="white" stroke="transparent" points="-4,4 -4,-271 239,-271 239,4 -4,4"/>
<!-- start_mutations_only_flow -->
<g id="node1" class="node">
<title>start_mutations_only_flow</title>
<path fill="lightgreen" stroke="black" d="M223,-267C223,-267 12,-267 12,-267 6,-267 0,-261 0,-255 0,-255 0,-101 0,-101 0,-95 6,-89 12,-89 12,-89 223,-89 223,-89 229,-89 235,-95 235,-101 235,-101 235,-255 235,-255 235,-261 229,-267 223,-267"/>
<polygon fill="white" stroke="transparent" points="14.5,-228 14.5,-253 221.5,-253 221.5,-228 14.5,-228"/>
<polygon fill="none" stroke="black" points="14.5,-228 14.5,-253 221.5,-253 221.5,-228 14.5,-228"/>
<text text-anchor="start" x="21.5" y="-239" font-family="Courier,monospace" font-style="italic" font-size="10.00">p = start_mutations_only_flow(p)</text>
<polygon fill="white" stroke="transparent" points="14.5,-203 14.5,-228 221.5,-228 221.5,-203 14.5,-203"/>
<polygon fill="none" stroke="black" points="14.5,-203 14.5,-228 221.5,-228 221.5,-203 14.5,-203"/>
<text text-anchor="start" x="21.5" y="-213" font-family="Courier,monospace" font-size="10.00">p[&#39;step&#39;] = 1</text>
<polygon fill="white" stroke="transparent" points="14.5,-178 14.5,-203 221.5,-203 221.5,-178 14.5,-178"/>
<polygon fill="none" stroke="black" points="14.5,-178 14.5,-203 221.5,-203 221.5,-178 14.5,-178"/>
<text text-anchor="start" x="21.5" y="-188" font-family="Courier,monospace" font-size="10.00">p[&#39;x&#39;] = 10</text>
<polygon fill="white" stroke="transparent" points="14.5,-153 14.5,-178 221.5,-178 221.5,-153 14.5,-153"/>
<polygon fill="none" stroke="black" points="14.5,-153 14.5,-178 221.5,-178 221.5,-153 14.5,-153"/>
<text text-anchor="start" x="21.5" y="-163" font-family="Courier,monospace" font-size="10.00">p[&#39;y&#39;] = 20</text>
<polygon fill="white" stroke="transparent" points="14.5,-128 14.5,-153 221.5,-153 221.5,-128 14.5,-128"/>
<polygon fill="none" stroke="black" points="14.5,-128 14.5,-153 221.5,-153 221.5,-128 14.5,-128"/>
<text text-anchor="start" x="21.5" y="-138" font-family="Courier,monospace" font-size="10.00">p[&#39;x&#39;] += p[&#39;y&#39;]</text>
<polygon fill="white" stroke="transparent" points="14.5,-103 14.5,-128 221.5,-128 221.5,-103 14.5,-103"/>
<polygon fill="none" stroke="black" points="14.5,-103 14.5,-128 221.5,-128 221.5,-103 14.5,-103"/>
<text text-anchor="start" x="21.5" y="-113" font-family="Courier,monospace" font-size="10.00">p[&#39;z&#39;] = p[&#39;x&#39;] + 30</text>
</g>
<!-- end_mutations_only_flow -->
<g id="node2" class="node">
<title>end_mutations_only_flow</title>
<path fill="lightgreen" stroke="black" d="M217,-53C217,-53 18,-53 18,-53 12,-53 6,-47 6,-41 6,-41 6,-12 6,-12 6,-6 12,0 18,0 18,0 217,0 217,0 223,0 229,-6 229,-12 229,-12 229,-41 229,-41 229,-47 223,-53 217,-53"/>
<polygon fill="white" stroke="transparent" points="20.5,-13.5 20.5,-38.5 215.5,-38.5 215.5,-13.5 20.5,-13.5"/>
<polygon fill="none" stroke="black" points="20.5,-13.5 20.5,-38.5 215.5,-38.5 215.5,-13.5 20.5,-13.5"/>
<text text-anchor="start" x="27.5" y="-24.5" font-family="Courier,monospace" font-style="italic" font-size="10.00">p = end_mutations_only_flow(p)</text>
</g>
<!-- start_mutations_only_flow&#45;&gt;end_mutations_only_flow -->
<g id="edge1" class="edge">
<title>start_mutations_only_flow&#45;&gt;end_mutations_only_flow</title>
<path fill="none" stroke="black" d="M117.5,-88.74C117.5,-79.79 117.5,-71.1 117.5,-63.22"/>
<polygon fill="black" stroke="black" points="121,-63.02 117.5,-53.02 114,-63.02 121,-63.02"/>
</g>
</g>
</svg>
