<?xml version="1.0" encoding="UTF-8" standalone="no"?>
<!DOCTYPE svg PUBLIC "-//W3C//DTD SVG 1.1//EN"
 "http://www.w3.org/Graphics/SVG/1.1/DTD/svg11.dtd">
<!-- Generated by graphviz version 2.43.0 (0)
 -->
<!-- Title: flow Pages: 1 -->
<svg width="548pt" height="593pt"
 viewBox="0.00 0.00 547.50 592.50" xmlns="http://www.w3.org/2000/svg" xmlns:xlink="http://www.w3.org/1999/xlink">
<g id="graph0" class="graph" transform="scale(1 1) rotate(0) translate(4 588.5)">
<title>flow</title>
<polygon fill="white" stroke="transparent" points="-4,4 -4,-588.5 543.5,-588.5 543.5,4 -4,4"/>
<g id="clust1" class="cluster">
<title>cluster_try_0</title>
<polygon fill="none" stroke="#8b8989" stroke-dasharray="5,2" points="8,-279 8,-479.5 236,-479.5 236,-279 8,-279"/>
<text text-anchor="middle" x="122" y="-467.5" font-family="Courier,monospace" font-size="10.00">try</text>
</g>
<g id="clust2" class="cluster">
<title>cluster_finally_0</title>
<polygon fill="none" stroke="#7f7f7f" stroke-dasharray="5,2" points="34,-172 34,-260 232,-260 232,-172 34,-172"/>
<text text-anchor="middle" x="133" y="-248" font-family="Courier,monospace" font-size="10.00">finally</text>
</g>
<!-- start_resource_pipeline -->
<g id="node1" class="node">
<title>start_resource_pipeline</title>
<path fill="lightgreen" stroke="black" d="M221.5,-584.5C221.5,-584.5 22.5,-584.5 22.5,-584.5 16.5,-584.5 10.5,-578.5 10.5,-572.5 10.5,-572.5 10.5,-518.5 10.5,-518.5 10.5,-512.5 16.5,-506.5 22.5,-506.5 22.5,-506.5 221.5,-506.5 221.5,-506.5 227.5,-506.5 233.5,-512.5 233.5,-518.5 233.5,-518.5 233.5,-572.5 233.5,-572.5 233.5,-578.5 227.5,-584.5 221.5,-584.5"/>
<polygon fill="white" stroke="transparent" points="25,-545.5 25,-570.5 220,-570.5 220,-545.5 25,-545.5"/>
<polygon fill="none" stroke="black" points="25,-545.5 25,-570.5 220,-570.5 220,-545.5 25,-545.5"/>
<text text-anchor="start" x="32" y="-556.5" font-family="Courier,monospace" font-style="italic" font-size="10.00">p = start_resource_pipeline(p)</text>
<polygon fill="white" stroke="transparent" points="25,-520.5 25,-545.5 220,-545.5 220,-520.5 25,-520.5"/>
<polygon fill="none" stroke="black" points="25,-520.5 25,-545.5 220,-545.5 220,-520.5 25,-520.5"/>
<text text-anchor="start" x="32" y="-530.5" font-family="Courier,monospace" font-size="10.00">p[&#39;status&#39;] = &#39;started&#39;</text>
</g>
<!-- acquire_resource -->
<g id="node6" class="node">
<title>acquire_resource</title>
<path fill="lightblue" stroke="black" d="M200.5,-452.5C200.5,-452.5 43.5,-452.5 43.5,-452.5 37.5,-452.5 31.5,-446.5 31.5,-440.5 31.5,-440.5 31.5,-411.5 31.5,-411.5 31.5,-405.5 37.5,-399.5 43.5,-399.5 43.5,-399.5 200.5,-399.5 200.5,-399.5 206.5,-399.5 212.5,-405.5 212.5,-411.5 212.5,-411.5 212.5,-440.5 212.5,-440.5 212.5,-446.5 206.5,-452.5 200.5,-452.5"/>
<polygon fill="white" stroke="transparent" points="46,-413 46,-438 199,-438 199,-413 46,-413"/>
<polygon fill="none" stroke="black" points="46,-413 46,-438 199,-438 199,-413 46,-413"/>
<text text-anchor="start" x="53" y="-424" font-family="Courier,monospace" font-style="italic" font-size="10.00">p = acquire_resource(p)</text>
</g>
<!-- start_resource_pipeline&#45;&gt;acquire_resource -->
<g id="edge8" class="edge">
<title>start_resource_pipeline&#45;&gt;acquire_resource</title>
<path fill="none" stroke="black" d="M122,-506.35C122,-492.36 122,-476.59 122,-462.81"/>
<polygon fill="black" stroke="black" points="125.5,-462.72 122,-452.72 118.5,-462.72 125.5,-462.72"/>
</g>
<!-- router_resource_pipeline_line_7_seq -->
<g id="node2" class="node">
<title>router_resource_pipeline_line_7_seq</title>
<path fill="wheat" stroke="black" d="M527.5,-465C527.5,-465 256.5,-465 256.5,-465 250.5,-465 244.5,-459 244.5,-453 244.5,-453 244.5,-399 244.5,-399 244.5,-393 250.5,-387 256.5,-387 256.5,-387 527.5,-387 527.5,-387 533.5,-387 539.5,-393 539.5,-399 539.5,-399 539.5,-453 539.5,-453 539.5,-459 533.5,-465 527.5,-465"/>
<polygon fill="white" stroke="transparent" points="259,-426 259,-451 526,-451 526,-426 259,-426"/>
<polygon fill="none" stroke="black" points="259,-426 259,-451 526,-451 526,-426 259,-426"/>
<text text-anchor="start" x="266" y="-437" font-family="Courier,monospace" font-style="italic" font-size="10.00">p = router_resource_pipeline_line_7_seq(p)</text>
<polygon fill="white" stroke="transparent" points="259,-401 259,-426 526,-426 526,-401 259,-401"/>
<polygon fill="none" stroke="black" points="259,-401 259,-426 526,-426 526,-401 259,-401"/>
<text text-anchor="start" x="266" y="-411" font-family="Courier,monospace" font-size="10.00">p[&#39;status&#39;] = &#39;failed&#39;</text>
</g>
<!-- handle_failure -->
<g id="node5" class="node">
<title>handle_failure</title>
<path fill="lightblue" stroke="black" d="M416.5,-340C416.5,-340 271.5,-340 271.5,-340 265.5,-340 259.5,-334 259.5,-328 259.5,-328 259.5,-299 259.5,-299 259.5,-293 265.5,-287 271.5,-287 271.5,-287 416.5,-287 416.5,-287 422.5,-287 428.5,-293 428.5,-299 428.5,-299 428.5,-328 428.5,-328 428.5,-334 422.5,-340 416.5,-340"/>
<polygon fill="white" stroke="transparent" points="274,-300.5 274,-325.5 415,-325.5 415,-300.5 274,-300.5"/>
<polygon fill="none" stroke="black" points="274,-300.5 274,-325.5 415,-325.5 415,-300.5 274,-300.5"/>
<text text-anchor="start" x="281" y="-311.5" font-family="Courier,monospace" font-style="italic" font-size="10.00">p = handle_failure(p)</text>
</g>
<!-- router_resource_pipeline_line_7_seq&#45;&gt;handle_failure -->
<g id="edge7" class="edge">
<title>router_resource_pipeline_line_7_seq&#45;&gt;handle_failure</title>
<path fill="none" stroke="black" d="M373.98,-386.86C371.25,-380.9 368.52,-374.8 366,-369 363.27,-362.71 360.46,-355.97 357.8,-349.44"/>
<polygon fill="black" stroke="black" points="361.02,-348.08 354.03,-340.12 354.53,-350.7 361.02,-348.08"/>
</g>
<!-- end_resource_pipeline -->
<g id="node3" class="node">
<title>end_resource_pipeline</title>
<path fill="lightgreen" stroke="black" d="M226.5,-53C226.5,-53 39.5,-53 39.5,-53 33.5,-53 27.5,-47 27.5,-41 27.5,-41 27.5,-12 27.5,-12 27.5,-6 33.5,0 39.5,0 39.5,0 226.5,0 226.5,0 232.5,0 238.5,-6 238.5,-12 238.5,-12 238.5,-41 238.5,-41 238.5,-47 232.5,-53 226.5,-53"/>
<polygon fill="white" stroke="transparent" points="42,-13.5 42,-38.5 225,-38.5 225,-13.5 42,-13.5"/>
<polygon fill="none" stroke="black" points="42,-13.5 42,-38.5 225,-38.5 225,-13.5 42,-13.5"/>
<text text-anchor="start" x="49" y="-24.5" font-family="Courier,monospace" font-style="italic" font-size="10.00">p = end_resource_pipeline(p)</text>
</g>
<!-- finalize -->
<g id="node4" class="node">
<title>finalize</title>
<path fill="lightblue" stroke="black" d="M187.5,-143C187.5,-143 78.5,-143 78.5,-143 72.5,-143 66.5,-137 66.5,-131 66.5,-131 66.5,-102 66.5,-102 66.5,-96 72.5,-90 78.5,-90 78.5,-90 187.5,-90 187.5,-90 193.5,-90 199.5,-96 199.5,-102 199.5,-102 199.5,-131 199.5,-131 199.5,-137 193.5,-143 187.5,-143"/>
<polygon fill="white" stroke="transparent" points="81,-103.5 81,-128.5 186,-128.5 186,-103.5 81,-103.5"/>
<polygon fill="none" stroke="black" points="81,-103.5 81,-128.5 186,-128.5 186,-103.5 81,-103.5"/>
<text text-anchor="start" x="88" y="-114.5" font-family="Courier,monospace" font-style="italic" font-size="10.00">p = finalize(p)</text>
</g>
<!-- finalize&#45;&gt;end_resource_pipeline -->
<g id="edge2" class="edge">
<title>finalize&#45;&gt;end_resource_pipeline</title>
<path fill="none" stroke="black" d="M133,-89.57C133,-81.34 133,-72.08 133,-63.28"/>
<polygon fill="black" stroke="black" points="136.5,-63.24 133,-53.24 129.5,-63.24 136.5,-63.24"/>
</g>
<!-- release_resource -->
<g id="node8" class="node">
<title>release_resource</title>
<path fill="lightblue" stroke="black" d="M211.5,-233C211.5,-233 54.5,-233 54.5,-233 48.5,-233 42.5,-227 42.5,-221 42.5,-221 42.5,-192 42.5,-192 42.5,-186 48.5,-180 54.5,-180 54.5,-180 211.5,-180 211.5,-180 217.5,-180 223.5,-186 223.5,-192 223.5,-192 223.5,-221 223.5,-221 223.5,-227 217.5,-233 211.5,-233"/>
<polygon fill="white" stroke="transparent" points="57,-193.5 57,-218.5 210,-218.5 210,-193.5 57,-193.5"/>
<polygon fill="none" stroke="black" points="57,-193.5 57,-218.5 210,-218.5 210,-193.5 57,-193.5"/>
<text text-anchor="start" x="64" y="-204.5" font-family="Courier,monospace" font-style="italic" font-size="10.00">p = release_resource(p)</text>
</g>
<!-- handle_failure&#45;&gt;release_resource -->
<g id="edge3" class="edge">
<title>handle_failure&#45;&gt;release_resource</title>
<path fill="none" stroke="black" d="M292.65,-286.95C262.79,-272.09 224.98,-253.27 193.65,-237.68"/>
<polygon fill="black" stroke="black" points="195.09,-234.49 184.58,-233.17 191.97,-240.75 195.09,-234.49"/>
</g>
<!-- process_with_resource -->
<g id="node7" class="node">
<title>process_with_resource</title>
<path fill="lightblue" stroke="black" d="M215.5,-340C215.5,-340 28.5,-340 28.5,-340 22.5,-340 16.5,-334 16.5,-328 16.5,-328 16.5,-299 16.5,-299 16.5,-293 22.5,-287 28.5,-287 28.5,-287 215.5,-287 215.5,-287 221.5,-287 227.5,-293 227.5,-299 227.5,-299 227.5,-328 227.5,-328 227.5,-334 221.5,-340 215.5,-340"/>
<polygon fill="white" stroke="transparent" points="31,-300.5 31,-325.5 214,-325.5 214,-300.5 31,-300.5"/>
<polygon fill="none" stroke="black" points="31,-300.5 31,-325.5 214,-325.5 214,-300.5 31,-300.5"/>
<text text-anchor="start" x="38" y="-311.5" font-family="Courier,monospace" font-style="italic" font-size="10.00">p = process_with_resource(p)</text>
</g>
<!-- acquire_resource&#45;&gt;process_with_resource -->
<g id="edge1" class="edge">
<title>acquire_resource&#45;&gt;process_with_resource</title>
<path fill="none" stroke="black" d="M122,-399.37C122,-384.83 122,-366.41 122,-350.44"/>
<polygon fill="black" stroke="black" points="125.5,-350.37 122,-340.37 118.5,-350.37 125.5,-350.37"/>
</g>
<!-- process_with_resource&#45;&gt;router_resource_pipeline_line_7_seq -->
<g id="edge5" class="edge">
<title>process_with_resource&#45;&gt;router_resource_pipeline_line_7_seq</title>
<path fill="none" stroke="#8b8989" stroke-dasharray="5,2" d="M236,-361.15C253.82,-368.45 272.14,-375.95 289.68,-383.12"/>
<polygon fill="#8b8989" stroke="#8b8989" points="288.5,-386.42 299.08,-386.97 291.15,-379.95 288.5,-386.42"/>
<text text-anchor="middle" x="305.5" y="-361" font-family="Courier,monospace" font-size="10.00">except RuntimeError</text>
</g>
<!-- process_with_resource&#45;&gt;release_resource -->
<g id="edge4" class="edge">
<title>process_with_resource&#45;&gt;release_resource</title>
<path fill="none" stroke="black" d="M124.69,-286.81C126.06,-273.72 127.75,-257.59 129.25,-243.3"/>
<polygon fill="black" stroke="black" points="132.74,-243.59 130.3,-233.28 125.78,-242.87 132.74,-243.59"/>
</g>
<!-- release_resource&#45;&gt;finalize -->
<g id="edge6" class="edge">
<title>release_resource&#45;&gt;finalize</title>
<path fill="none" stroke="black" d="M133,-179.57C133,-171.34 133,-162.08 133,-153.28"/>
<polygon fill="black" stroke="black" points="136.5,-153.24 133,-143.24 129.5,-153.24 136.5,-153.24"/>
</g>
</g>
</svg>
