<?xml version="1.0" encoding="UTF-8" standalone="no"?>
<!DOCTYPE svg PUBLIC "-//W3C//DTD SVG 1.1//EN"
 "http://www.w3.org/Graphics/SVG/1.1/DTD/svg11.dtd">
<!-- Generated by graphviz version 2.43.0 (0)
 -->
<!-- Title: flow Pages: 1 -->
<svg width="859pt" height="1572pt"
 viewBox="0.00 0.00 859.36 1572.00" xmlns="http://www.w3.org/2000/svg" xmlns:xlink="http://www.w3.org/1999/xlink">
<g id="graph0" class="graph" transform="scale(1 1) rotate(0) translate(4 1568)">
<title>flow</title>
<polygon fill="white" stroke="transparent" points="-4,4 -4,-1568 855.36,-1568 855.36,4 -4,4"/>
<!-- start_complex_combined_flow -->
<g id="node1" class="node">
<title>start_complex_combined_flow</title>
<path fill="lightgreen" stroke="black" d="M665.36,-1564C665.36,-1564 442.36,-1564 442.36,-1564 436.36,-1564 430.36,-1558 430.36,-1552 430.36,-1552 430.36,-1523 430.36,-1523 430.36,-1517 436.36,-1511 442.36,-1511 442.36,-1511 665.36,-1511 665.36,-1511 671.36,-1511 677.36,-1517 677.36,-1523 677.36,-1523 677.36,-1552 677.36,-1552 677.36,-1558 671.36,-1564 665.36,-1564"/>
<polygon fill="white" stroke="transparent" points="444.86,-1524.5 444.86,-1549.5 663.86,-1549.5 663.86,-1524.5 444.86,-1524.5"/>
<polygon fill="none" stroke="black" points="444.86,-1524.5 444.86,-1549.5 663.86,-1549.5 663.86,-1524.5 444.86,-1524.5"/>
<text text-anchor="start" x="451.86" y="-1535.5" font-family="Courier,monospace" font-style="italic" font-size="10.00">p = start_complex_combined_flow(p)</text>
</g>
<!-- handler_init -->
<g id="node14" class="node">
<title>handler_init</title>
<path fill="lightblue" stroke="black" d="M620.36,-1474C620.36,-1474 487.36,-1474 487.36,-1474 481.36,-1474 475.36,-1468 475.36,-1462 475.36,-1462 475.36,-1433 475.36,-1433 475.36,-1427 481.36,-1421 487.36,-1421 487.36,-1421 620.36,-1421 620.36,-1421 626.36,-1421 632.36,-1427 632.36,-1433 632.36,-1433 632.36,-1462 632.36,-1462 632.36,-1468 626.36,-1474 620.36,-1474"/>
<polygon fill="white" stroke="transparent" points="489.86,-1434.5 489.86,-1459.5 618.86,-1459.5 618.86,-1434.5 489.86,-1434.5"/>
<polygon fill="none" stroke="black" points="489.86,-1434.5 489.86,-1459.5 618.86,-1459.5 618.86,-1434.5 489.86,-1434.5"/>
<text text-anchor="start" x="496.86" y="-1445.5" font-family="Courier,monospace" font-style="italic" font-size="10.00">p = handler_init(p)</text>
</g>
<!-- start_complex_combined_flow&#45;&gt;handler_init -->
<g id="edge23" class="edge">
<title>start_complex_combined_flow&#45;&gt;handler_init</title>
<path fill="none" stroke="black" d="M553.86,-1510.57C553.86,-1502.34 553.86,-1493.08 553.86,-1484.28"/>
<polygon fill="black" stroke="black" points="557.36,-1484.24 553.86,-1474.24 550.36,-1484.24 557.36,-1484.24"/>
</g>
<!-- router_complex_combined_flow_line_25_if -->
<g id="node2" class="node">
<title>router_complex_combined_flow_line_25_if</title>
<path fill="wheat" stroke="black" d="M335.36,-301C335.36,-301 40.36,-301 40.36,-301 34.36,-301 28.36,-295 28.36,-289 28.36,-289 28.36,-202 28.36,-202 28.36,-196 34.36,-190 40.36,-190 40.36,-190 335.36,-190 335.36,-190 341.36,-190 347.36,-196 347.36,-202 347.36,-202 347.36,-289 347.36,-289 347.36,-295 341.36,-301 335.36,-301"/>
<polygon fill="white" stroke="transparent" points="42.86,-261.5 42.86,-286.5 333.86,-286.5 333.86,-261.5 42.86,-261.5"/>
<polygon fill="none" stroke="black" points="42.86,-261.5 42.86,-286.5 333.86,-286.5 333.86,-261.5 42.86,-261.5"/>
<text text-anchor="start" x="49.86" y="-272.5" font-family="Courier,monospace" font-style="italic" font-size="10.00">p = router_complex_combined_flow_line_25_if(p)</text>
<polygon fill="lightyellow" stroke="transparent" points="42.86,-236.5 42.86,-261.5 333.86,-261.5 333.86,-236.5 42.86,-236.5"/>
<polygon fill="none" stroke="black" points="42.86,-236.5 42.86,-261.5 333.86,-261.5 333.86,-236.5 42.86,-236.5"/>
<text text-anchor="start" x="133.36" y="-247.5" font-family="Courier,monospace" font-weight="bold" font-size="10.00">if</text>
<text text-anchor="start" x="146.36" y="-247.5" font-family="Courier,monospace" font-size="10.00"> p[&#39;stop_early&#39;]</text>
<polygon fill="none" stroke="black" points="42.86,-203.5 42.86,-236.5 333.86,-236.5 333.86,-203.5 42.86,-203.5"/>
<polygon fill="#698b69" stroke="transparent" points="49.86,-210.5 49.86,-229.5 188.86,-229.5 188.86,-210.5 49.86,-210.5"/>
<text text-anchor="start" x="106.86" y="-218.5" font-family="Courier,monospace" font-weight="bold" font-size="10.00" fill="white">TRUE</text>
<polygon fill="#8b3a3a" stroke="transparent" points="188.86,-210.5 188.86,-229.5 326.86,-229.5 326.86,-210.5 188.86,-210.5"/>
<text text-anchor="start" x="245.36" y="-218.5" font-family="Courier,monospace" font-weight="bold" font-size="10.00" fill="white">pass</text>
</g>
<!-- router_complex_combined_flow_line_17_while_0 -->
<g id="node4" class="node">
<title>router_complex_combined_flow_line_17_while_0</title>
<path fill="wheat" stroke="black" d="M364.36,-868C364.36,-868 45.36,-868 45.36,-868 39.36,-868 33.36,-862 33.36,-856 33.36,-856 33.36,-769 33.36,-769 33.36,-763 39.36,-757 45.36,-757 45.36,-757 364.36,-757 364.36,-757 370.36,-757 376.36,-763 376.36,-769 376.36,-769 376.36,-856 376.36,-856 376.36,-862 370.36,-868 364.36,-868"/>
<polygon fill="white" stroke="transparent" points="47.86,-828.5 47.86,-853.5 362.86,-853.5 362.86,-828.5 47.86,-828.5"/>
<polygon fill="none" stroke="black" points="47.86,-828.5 47.86,-853.5 362.86,-853.5 362.86,-828.5 47.86,-828.5"/>
<text text-anchor="start" x="54.86" y="-839.5" font-family="Courier,monospace" font-style="italic" font-size="10.00">p = router_complex_combined_flow_line_17_while…(p)</text>
<polygon fill="lightyellow" stroke="transparent" points="47.86,-803.5 47.86,-828.5 362.86,-828.5 362.86,-803.5 47.86,-803.5"/>
<polygon fill="none" stroke="black" points="47.86,-803.5 47.86,-828.5 362.86,-828.5 362.86,-803.5 47.86,-803.5"/>
<text text-anchor="start" x="111.36" y="-814.5" font-family="Courier,monospace" font-weight="bold" font-size="10.00">if</text>
<text text-anchor="start" x="124.36" y="-814.5" font-family="Courier,monospace" font-size="10.00"> p[&#39;i&#39;] &lt; p[&#39;max_iterations&#39;]</text>
<polygon fill="none" stroke="black" points="47.86,-770.5 47.86,-803.5 362.86,-803.5 362.86,-770.5 47.86,-770.5"/>
<polygon fill="#698b69" stroke="transparent" points="54.86,-777.5 54.86,-796.5 202.86,-796.5 202.86,-777.5 54.86,-777.5"/>
<text text-anchor="start" x="116.36" y="-785.5" font-family="Courier,monospace" font-weight="bold" font-size="10.00" fill="white">TRUE</text>
<polygon fill="#8b3a3a" stroke="transparent" points="202.86,-777.5 202.86,-796.5 355.86,-796.5 355.86,-777.5 202.86,-777.5"/>
<text text-anchor="start" x="263.86" y="-785.5" font-family="Courier,monospace" font-weight="bold" font-size="10.00" fill="white">FALSE</text>
</g>
<!-- router_complex_combined_flow_line_25_if&#45;&gt;router_complex_combined_flow_line_17_while_0 -->
<g id="edge18" class="edge">
<title>router_complex_combined_flow_line_25_if&#45;&gt;router_complex_combined_flow_line_17_while_0</title>
<path fill="none" stroke="#8b3a3a" d="M136.34,-301.2C66.15,-382.69 -44,-540.11 18.86,-668 35.14,-701.12 63.15,-728.76 92.56,-750.65"/>
<polygon fill="#8b3a3a" stroke="#8b3a3a" points="90.73,-753.65 100.89,-756.67 94.84,-747.97 90.73,-753.65"/>
<text text-anchor="middle" x="33.36" y="-485" font-family="Courier,monospace" font-size="10.00">F</text>
</g>
<!-- handler_finalize -->
<g id="node13" class="node">
<title>handler_finalize</title>
<path fill="lightblue" stroke="black" d="M584.36,-143C584.36,-143 427.36,-143 427.36,-143 421.36,-143 415.36,-137 415.36,-131 415.36,-131 415.36,-102 415.36,-102 415.36,-96 421.36,-90 427.36,-90 427.36,-90 584.36,-90 584.36,-90 590.36,-90 596.36,-96 596.36,-102 596.36,-102 596.36,-131 596.36,-131 596.36,-137 590.36,-143 584.36,-143"/>
<polygon fill="white" stroke="transparent" points="429.86,-103.5 429.86,-128.5 582.86,-128.5 582.86,-103.5 429.86,-103.5"/>
<polygon fill="none" stroke="black" points="429.86,-103.5 429.86,-128.5 582.86,-128.5 582.86,-103.5 429.86,-103.5"/>
<text text-anchor="start" x="436.86" y="-114.5" font-family="Courier,monospace" font-style="italic" font-size="10.00">p = handler_finalize(p)</text>
</g>
<!-- router_complex_combined_flow_line_25_if&#45;&gt;handler_finalize -->
<g id="edge17" class="edge">
<title>router_complex_combined_flow_line_25_if&#45;&gt;handler_finalize</title>
<path fill="none" stroke="#698b69" d="M289.86,-189.81C311.02,-179.52 333.42,-169.37 354.86,-161 370.9,-154.74 388.21,-148.92 405.18,-143.71"/>
<polygon fill="#698b69" stroke="#698b69" points="406.56,-146.95 415.13,-140.71 404.54,-140.25 406.56,-146.95"/>
<text text-anchor="middle" x="358.36" y="-164" font-family="Courier,monospace" font-size="10.00">T</text>
</g>
<!-- router_complex_combined_flow_line_20_if -->
<g id="node3" class="node">
<title>router_complex_combined_flow_line_20_if</title>
<path fill="wheat" stroke="black" d="M335.36,-668C335.36,-668 40.36,-668 40.36,-668 34.36,-668 28.36,-662 28.36,-656 28.36,-656 28.36,-544 28.36,-544 28.36,-538 34.36,-532 40.36,-532 40.36,-532 335.36,-532 335.36,-532 341.36,-532 347.36,-538 347.36,-544 347.36,-544 347.36,-656 347.36,-656 347.36,-662 341.36,-668 335.36,-668"/>
<polygon fill="white" stroke="transparent" points="42.86,-629 42.86,-654 333.86,-654 333.86,-629 42.86,-629"/>
<polygon fill="none" stroke="black" points="42.86,-629 42.86,-654 333.86,-654 333.86,-629 42.86,-629"/>
<text text-anchor="start" x="49.86" y="-640" font-family="Courier,monospace" font-style="italic" font-size="10.00">p = router_complex_combined_flow_line_20_if(p)</text>
<polygon fill="white" stroke="transparent" points="42.86,-604 42.86,-629 333.86,-629 333.86,-604 42.86,-604"/>
<polygon fill="none" stroke="black" points="42.86,-604 42.86,-629 333.86,-629 333.86,-604 42.86,-604"/>
<text text-anchor="start" x="49.86" y="-614" font-family="Courier,monospace" font-size="10.00">p[&#39;i&#39;] += 1</text>
<polygon fill="lightyellow" stroke="transparent" points="42.86,-579 42.86,-604 333.86,-604 333.86,-579 42.86,-579"/>
<polygon fill="none" stroke="black" points="42.86,-579 42.86,-604 333.86,-604 333.86,-579 42.86,-579"/>
<text text-anchor="start" x="76.36" y="-590" font-family="Courier,monospace" font-weight="bold" font-size="10.00">if</text>
<text text-anchor="start" x="89.36" y="-590" font-family="Courier,monospace" font-size="10.00"> p[&#39;skip_even&#39;] and p[&#39;i&#39;] % 2 == 0</text>
<polygon fill="none" stroke="black" points="42.86,-546 42.86,-579 333.86,-579 333.86,-546 42.86,-546"/>
<polygon fill="#698b69" stroke="transparent" points="49.86,-553 49.86,-572 185.86,-572 185.86,-553 49.86,-553"/>
<text text-anchor="start" x="105.36" y="-561" font-family="Courier,monospace" font-weight="bold" font-size="10.00" fill="white">TRUE</text>
<polygon fill="#8b3a3a" stroke="transparent" points="185.86,-553 185.86,-572 326.86,-572 326.86,-553 185.86,-553"/>
<text text-anchor="start" x="240.86" y="-561" font-family="Courier,monospace" font-weight="bold" font-size="10.00" fill="white">FALSE</text>
</g>
<!-- router_complex_combined_flow_line_20_if&#45;&gt;router_complex_combined_flow_line_17_while_0 -->
<g id="edge16" class="edge">
<title>router_complex_combined_flow_line_20_if&#45;&gt;router_complex_combined_flow_line_17_while_0</title>
<path fill="none" stroke="#698b69" d="M193.29,-668.27C195.32,-693.37 197.61,-721.8 199.62,-746.68"/>
<polygon fill="#698b69" stroke="#698b69" points="196.14,-747.06 200.43,-756.74 203.12,-746.49 196.14,-747.06"/>
<text text-anchor="middle" x="202.36" y="-710" font-family="Courier,monospace" font-size="10.00">T</text>
</g>
<!-- handler_process -->
<g id="node15" class="node">
<title>handler_process</title>
<path fill="lightblue" stroke="black" d="M263.36,-443C263.36,-443 112.36,-443 112.36,-443 106.36,-443 100.36,-437 100.36,-431 100.36,-431 100.36,-402 100.36,-402 100.36,-396 106.36,-390 112.36,-390 112.36,-390 263.36,-390 263.36,-390 269.36,-390 275.36,-396 275.36,-402 275.36,-402 275.36,-431 275.36,-431 275.36,-437 269.36,-443 263.36,-443"/>
<polygon fill="white" stroke="transparent" points="114.86,-403.5 114.86,-428.5 261.86,-428.5 261.86,-403.5 114.86,-403.5"/>
<polygon fill="none" stroke="black" points="114.86,-403.5 114.86,-428.5 261.86,-428.5 261.86,-403.5 114.86,-403.5"/>
<text text-anchor="start" x="121.86" y="-414.5" font-family="Courier,monospace" font-style="italic" font-size="10.00">p = handler_process(p)</text>
</g>
<!-- router_complex_combined_flow_line_20_if&#45;&gt;handler_process -->
<g id="edge15" class="edge">
<title>router_complex_combined_flow_line_20_if&#45;&gt;handler_process</title>
<path fill="none" stroke="#8b3a3a" d="M187.86,-531.93C187.86,-505.26 187.86,-475.65 187.86,-453.23"/>
<polygon fill="#8b3a3a" stroke="#8b3a3a" points="191.36,-453.16 187.86,-443.16 184.36,-453.16 191.36,-453.16"/>
<text text-anchor="middle" x="191.36" y="-485" font-family="Courier,monospace" font-size="10.00">F</text>
</g>
<!-- router_complex_combined_flow_line_17_while_0&#45;&gt;router_complex_combined_flow_line_20_if -->
<g id="edge14" class="edge">
<title>router_complex_combined_flow_line_17_while_0&#45;&gt;router_complex_combined_flow_line_20_if</title>
<path fill="none" stroke="#698b69" d="M188.1,-756.8C186.77,-750.84 185.65,-744.82 184.86,-739 182.21,-719.49 181.58,-698.28 181.93,-678.48"/>
<polygon fill="#698b69" stroke="#698b69" points="185.44,-678.36 182.2,-668.27 178.44,-678.17 185.44,-678.36"/>
<text text-anchor="middle" x="188.36" y="-710" font-family="Courier,monospace" font-size="10.00">T</text>
</g>
<!-- router_complex_combined_flow_line_17_while_0&#45;&gt;handler_finalize -->
<g id="edge13" class="edge">
<title>router_complex_combined_flow_line_17_while_0&#45;&gt;handler_finalize</title>
<path fill="none" stroke="#8b3a3a" d="M284.35,-756.63C329,-718.81 375.86,-664.09 375.86,-601 375.86,-601 375.86,-601 375.86,-244.5 375.86,-202.61 410.81,-170.02 444.47,-148.34"/>
<polygon fill="#8b3a3a" stroke="#8b3a3a" points="446.33,-151.31 452.98,-143.07 442.64,-145.36 446.33,-151.31"/>
<text text-anchor="middle" x="379.36" y="-414" font-family="Courier,monospace" font-size="10.00">F</text>
</g>
<!-- router_complex_combined_flow_line_16_seq -->
<g id="node5" class="node">
<title>router_complex_combined_flow_line_16_seq</title>
<path fill="wheat" stroke="black" d="M362.36,-1009.5C362.36,-1009.5 61.36,-1009.5 61.36,-1009.5 55.36,-1009.5 49.36,-1003.5 49.36,-997.5 49.36,-997.5 49.36,-943.5 49.36,-943.5 49.36,-937.5 55.36,-931.5 61.36,-931.5 61.36,-931.5 362.36,-931.5 362.36,-931.5 368.36,-931.5 374.36,-937.5 374.36,-943.5 374.36,-943.5 374.36,-997.5 374.36,-997.5 374.36,-1003.5 368.36,-1009.5 362.36,-1009.5"/>
<polygon fill="white" stroke="transparent" points="63.86,-970.5 63.86,-995.5 360.86,-995.5 360.86,-970.5 63.86,-970.5"/>
<polygon fill="none" stroke="black" points="63.86,-970.5 63.86,-995.5 360.86,-995.5 360.86,-970.5 63.86,-970.5"/>
<text text-anchor="start" x="70.86" y="-981.5" font-family="Courier,monospace" font-style="italic" font-size="10.00">p = router_complex_combined_flow_line_16_seq(p)</text>
<polygon fill="white" stroke="transparent" points="63.86,-945.5 63.86,-970.5 360.86,-970.5 360.86,-945.5 63.86,-945.5"/>
<polygon fill="none" stroke="black" points="63.86,-945.5 63.86,-970.5 360.86,-970.5 360.86,-945.5 63.86,-945.5"/>
<text text-anchor="start" x="70.86" y="-955.5" font-family="Courier,monospace" font-size="10.00">p[&#39;i&#39;] = 0</text>
</g>
<!-- router_complex_combined_flow_line_16_seq&#45;&gt;router_complex_combined_flow_line_17_while_0 -->
<g id="edge12" class="edge">
<title>router_complex_combined_flow_line_16_seq&#45;&gt;router_complex_combined_flow_line_17_while_0</title>
<path fill="none" stroke="black" d="M210.14,-931.34C209.43,-915.35 208.57,-896.32 207.76,-878.26"/>
<polygon fill="black" stroke="black" points="211.25,-877.89 207.3,-868.06 204.26,-878.21 211.25,-877.89"/>
</g>
<!-- router_complex_combined_flow_line_30_if -->
<g id="node6" class="node">
<title>router_complex_combined_flow_line_30_if</title>
<path fill="wheat" stroke="black" d="M701.36,-868C701.36,-868 406.36,-868 406.36,-868 400.36,-868 394.36,-862 394.36,-856 394.36,-856 394.36,-769 394.36,-769 394.36,-763 400.36,-757 406.36,-757 406.36,-757 701.36,-757 701.36,-757 707.36,-757 713.36,-763 713.36,-769 713.36,-769 713.36,-856 713.36,-856 713.36,-862 707.36,-868 701.36,-868"/>
<polygon fill="white" stroke="transparent" points="408.86,-828.5 408.86,-853.5 699.86,-853.5 699.86,-828.5 408.86,-828.5"/>
<polygon fill="none" stroke="black" points="408.86,-828.5 408.86,-853.5 699.86,-853.5 699.86,-828.5 408.86,-828.5"/>
<text text-anchor="start" x="415.86" y="-839.5" font-family="Courier,monospace" font-style="italic" font-size="10.00">p = router_complex_combined_flow_line_30_if(p)</text>
<polygon fill="lightyellow" stroke="transparent" points="408.86,-803.5 408.86,-828.5 699.86,-828.5 699.86,-803.5 408.86,-803.5"/>
<polygon fill="none" stroke="black" points="408.86,-803.5 408.86,-828.5 699.86,-828.5 699.86,-803.5 408.86,-803.5"/>
<text text-anchor="start" x="496.36" y="-814.5" font-family="Courier,monospace" font-weight="bold" font-size="10.00">if</text>
<text text-anchor="start" x="509.36" y="-814.5" font-family="Courier,monospace" font-size="10.00"> p[&#39;type&#39;] == &#39;B&#39;</text>
<polygon fill="none" stroke="black" points="408.86,-770.5 408.86,-803.5 699.86,-803.5 699.86,-770.5 408.86,-770.5"/>
<polygon fill="#698b69" stroke="transparent" points="415.86,-777.5 415.86,-796.5 551.86,-796.5 551.86,-777.5 415.86,-777.5"/>
<text text-anchor="start" x="471.36" y="-785.5" font-family="Courier,monospace" font-weight="bold" font-size="10.00" fill="white">TRUE</text>
<polygon fill="#8b3a3a" stroke="transparent" points="551.86,-777.5 551.86,-796.5 692.86,-796.5 692.86,-777.5 551.86,-777.5"/>
<text text-anchor="start" x="606.86" y="-785.5" font-family="Courier,monospace" font-weight="bold" font-size="10.00" fill="white">FALSE</text>
</g>
<!-- handler_default -->
<g id="node11" class="node">
<title>handler_default</title>
<path fill="lightblue" stroke="black" d="M554.36,-514C554.36,-514 403.36,-514 403.36,-514 397.36,-514 391.36,-508 391.36,-502 391.36,-502 391.36,-473 391.36,-473 391.36,-467 397.36,-461 403.36,-461 403.36,-461 554.36,-461 554.36,-461 560.36,-461 566.36,-467 566.36,-473 566.36,-473 566.36,-502 566.36,-502 566.36,-508 560.36,-514 554.36,-514"/>
<polygon fill="white" stroke="transparent" points="405.86,-474.5 405.86,-499.5 552.86,-499.5 552.86,-474.5 405.86,-474.5"/>
<polygon fill="none" stroke="black" points="405.86,-474.5 405.86,-499.5 552.86,-499.5 552.86,-474.5 405.86,-474.5"/>
<text text-anchor="start" x="412.86" y="-485.5" font-family="Courier,monospace" font-style="italic" font-size="10.00">p = handler_default(p)</text>
</g>
<!-- router_complex_combined_flow_line_30_if&#45;&gt;handler_default -->
<g id="edge21" class="edge">
<title>router_complex_combined_flow_line_30_if&#45;&gt;handler_default</title>
<path fill="none" stroke="#8b3a3a" d="M541.13,-756.71C525.71,-690.29 500.17,-580.28 487.1,-524.02"/>
<polygon fill="#8b3a3a" stroke="#8b3a3a" points="490.49,-523.12 484.82,-514.17 483.67,-524.7 490.49,-523.12"/>
<text text-anchor="middle" x="539.36" y="-710" font-family="Courier,monospace" font-size="10.00">F</text>
</g>
<!-- handler_type_b -->
<g id="node17" class="node">
<title>handler_type_b</title>
<path fill="lightblue" stroke="black" d="M653.36,-372C653.36,-372 508.36,-372 508.36,-372 502.36,-372 496.36,-366 496.36,-360 496.36,-360 496.36,-331 496.36,-331 496.36,-325 502.36,-319 508.36,-319 508.36,-319 653.36,-319 653.36,-319 659.36,-319 665.36,-325 665.36,-331 665.36,-331 665.36,-360 665.36,-360 665.36,-366 659.36,-372 653.36,-372"/>
<polygon fill="white" stroke="transparent" points="510.86,-332.5 510.86,-357.5 651.86,-357.5 651.86,-332.5 510.86,-332.5"/>
<polygon fill="none" stroke="black" points="510.86,-332.5 510.86,-357.5 651.86,-357.5 651.86,-332.5 510.86,-332.5"/>
<text text-anchor="start" x="517.86" y="-343.5" font-family="Courier,monospace" font-style="italic" font-size="10.00">p = handler_type_b(p)</text>
</g>
<!-- router_complex_combined_flow_line_30_if&#45;&gt;handler_type_b -->
<g id="edge22" class="edge">
<title>router_complex_combined_flow_line_30_if&#45;&gt;handler_type_b</title>
<path fill="none" stroke="#698b69" d="M557.03,-756.79C562.62,-660.52 574.07,-463.38 578.77,-382.42"/>
<polygon fill="#698b69" stroke="#698b69" points="582.28,-382.42 579.36,-372.24 575.29,-382.02 582.28,-382.42"/>
<text text-anchor="middle" x="573.36" y="-597.5" font-family="Courier,monospace" font-size="10.00">T</text>
</g>
<!-- router_complex_combined_flow_line_28_if -->
<g id="node7" class="node">
<title>router_complex_combined_flow_line_28_if</title>
<path fill="wheat" stroke="black" d="M701.36,-1026C701.36,-1026 406.36,-1026 406.36,-1026 400.36,-1026 394.36,-1020 394.36,-1014 394.36,-1014 394.36,-927 394.36,-927 394.36,-921 400.36,-915 406.36,-915 406.36,-915 701.36,-915 701.36,-915 707.36,-915 713.36,-921 713.36,-927 713.36,-927 713.36,-1014 713.36,-1014 713.36,-1020 707.36,-1026 701.36,-1026"/>
<polygon fill="white" stroke="transparent" points="408.86,-986.5 408.86,-1011.5 699.86,-1011.5 699.86,-986.5 408.86,-986.5"/>
<polygon fill="none" stroke="black" points="408.86,-986.5 408.86,-1011.5 699.86,-1011.5 699.86,-986.5 408.86,-986.5"/>
<text text-anchor="start" x="415.86" y="-997.5" font-family="Courier,monospace" font-style="italic" font-size="10.00">p = router_complex_combined_flow_line_28_if(p)</text>
<polygon fill="lightyellow" stroke="transparent" points="408.86,-961.5 408.86,-986.5 699.86,-986.5 699.86,-961.5 408.86,-961.5"/>
<polygon fill="none" stroke="black" points="408.86,-961.5 408.86,-986.5 699.86,-986.5 699.86,-961.5 408.86,-961.5"/>
<text text-anchor="start" x="496.36" y="-972.5" font-family="Courier,monospace" font-weight="bold" font-size="10.00">if</text>
<text text-anchor="start" x="509.36" y="-972.5" font-family="Courier,monospace" font-size="10.00"> p[&#39;type&#39;] == &#39;A&#39;</text>
<polygon fill="none" stroke="black" points="408.86,-928.5 408.86,-961.5 699.86,-961.5 699.86,-928.5 408.86,-928.5"/>
<polygon fill="#698b69" stroke="transparent" points="415.86,-935.5 415.86,-954.5 551.86,-954.5 551.86,-935.5 415.86,-935.5"/>
<text text-anchor="start" x="471.36" y="-943.5" font-family="Courier,monospace" font-weight="bold" font-size="10.00" fill="white">TRUE</text>
<polygon fill="#8b3a3a" stroke="transparent" points="551.86,-935.5 551.86,-954.5 692.86,-954.5 692.86,-935.5 551.86,-935.5"/>
<text text-anchor="start" x="606.86" y="-943.5" font-family="Courier,monospace" font-weight="bold" font-size="10.00" fill="white">FALSE</text>
</g>
<!-- router_complex_combined_flow_line_28_if&#45;&gt;router_complex_combined_flow_line_30_if -->
<g id="edge20" class="edge">
<title>router_complex_combined_flow_line_28_if&#45;&gt;router_complex_combined_flow_line_30_if</title>
<path fill="none" stroke="#8b3a3a" d="M553.86,-914.94C553.86,-903.06 553.86,-890.39 553.86,-878.17"/>
<polygon fill="#8b3a3a" stroke="#8b3a3a" points="557.36,-878.03 553.86,-868.03 550.36,-878.03 557.36,-878.03"/>
<text text-anchor="middle" x="557.36" y="-889" font-family="Courier,monospace" font-size="10.00">F</text>
</g>
<!-- handler_type_a -->
<g id="node16" class="node">
<title>handler_type_a</title>
<path fill="lightblue" stroke="black" d="M753.36,-739C753.36,-739 608.36,-739 608.36,-739 602.36,-739 596.36,-733 596.36,-727 596.36,-727 596.36,-698 596.36,-698 596.36,-692 602.36,-686 608.36,-686 608.36,-686 753.36,-686 753.36,-686 759.36,-686 765.36,-692 765.36,-698 765.36,-698 765.36,-727 765.36,-727 765.36,-733 759.36,-739 753.36,-739"/>
<polygon fill="white" stroke="transparent" points="610.86,-699.5 610.86,-724.5 751.86,-724.5 751.86,-699.5 610.86,-699.5"/>
<polygon fill="none" stroke="black" points="610.86,-699.5 610.86,-724.5 751.86,-724.5 751.86,-699.5 610.86,-699.5"/>
<text text-anchor="start" x="617.86" y="-710.5" font-family="Courier,monospace" font-style="italic" font-size="10.00">p = handler_type_a(p)</text>
</g>
<!-- router_complex_combined_flow_line_28_if&#45;&gt;handler_type_a -->
<g id="edge19" class="edge">
<title>router_complex_combined_flow_line_28_if&#45;&gt;handler_type_a</title>
<path fill="none" stroke="#698b69" d="M679.91,-914.79C697.1,-901.94 712.41,-886.47 722.86,-868 747.15,-825.06 741.34,-802.74 722.86,-757 721.52,-753.69 719.79,-750.49 717.81,-747.43"/>
<polygon fill="#698b69" stroke="#698b69" points="720.44,-745.1 711.63,-739.2 714.84,-749.3 720.44,-745.1"/>
<text text-anchor="middle" x="713.36" y="-889" font-family="Courier,monospace" font-size="10.00">T</text>
</g>
<!-- router_complex_combined_flow_line_15_if -->
<g id="node8" class="node">
<title>router_complex_combined_flow_line_15_if</title>
<path fill="wheat" stroke="black" d="M701.36,-1226C701.36,-1226 406.36,-1226 406.36,-1226 400.36,-1226 394.36,-1220 394.36,-1214 394.36,-1214 394.36,-1127 394.36,-1127 394.36,-1121 400.36,-1115 406.36,-1115 406.36,-1115 701.36,-1115 701.36,-1115 707.36,-1115 713.36,-1121 713.36,-1127 713.36,-1127 713.36,-1214 713.36,-1214 713.36,-1220 707.36,-1226 701.36,-1226"/>
<polygon fill="white" stroke="transparent" points="408.86,-1186.5 408.86,-1211.5 699.86,-1211.5 699.86,-1186.5 408.86,-1186.5"/>
<polygon fill="none" stroke="black" points="408.86,-1186.5 408.86,-1211.5 699.86,-1211.5 699.86,-1186.5 408.86,-1186.5"/>
<text text-anchor="start" x="415.86" y="-1197.5" font-family="Courier,monospace" font-style="italic" font-size="10.00">p = router_complex_combined_flow_line_15_if(p)</text>
<polygon fill="lightyellow" stroke="transparent" points="408.86,-1161.5 408.86,-1186.5 699.86,-1186.5 699.86,-1161.5 408.86,-1161.5"/>
<polygon fill="none" stroke="black" points="408.86,-1161.5 408.86,-1186.5 699.86,-1186.5 699.86,-1161.5 408.86,-1161.5"/>
<text text-anchor="start" x="499.36" y="-1172.5" font-family="Courier,monospace" font-weight="bold" font-size="10.00">if</text>
<text text-anchor="start" x="512.36" y="-1172.5" font-family="Courier,monospace" font-size="10.00"> p[&#39;needs_loop&#39;]</text>
<polygon fill="none" stroke="black" points="408.86,-1128.5 408.86,-1161.5 699.86,-1161.5 699.86,-1128.5 408.86,-1128.5"/>
<polygon fill="#698b69" stroke="transparent" points="415.86,-1135.5 415.86,-1154.5 551.86,-1154.5 551.86,-1135.5 415.86,-1135.5"/>
<text text-anchor="start" x="471.36" y="-1143.5" font-family="Courier,monospace" font-weight="bold" font-size="10.00" fill="white">TRUE</text>
<polygon fill="#8b3a3a" stroke="transparent" points="551.86,-1135.5 551.86,-1154.5 692.86,-1154.5 692.86,-1135.5 551.86,-1135.5"/>
<text text-anchor="start" x="606.86" y="-1143.5" font-family="Courier,monospace" font-weight="bold" font-size="10.00" fill="white">FALSE</text>
</g>
<!-- router_complex_combined_flow_line_15_if&#45;&gt;router_complex_combined_flow_line_16_seq -->
<g id="edge10" class="edge">
<title>router_complex_combined_flow_line_15_if&#45;&gt;router_complex_combined_flow_line_16_seq</title>
<path fill="none" stroke="#698b69" d="M459.5,-1114.87C405.04,-1083.34 337.49,-1044.24 286.71,-1014.84"/>
<polygon fill="#698b69" stroke="#698b69" points="288.16,-1011.63 277.75,-1009.65 284.65,-1017.69 288.16,-1011.63"/>
<text text-anchor="middle" x="426.36" y="-1068" font-family="Courier,monospace" font-size="10.00">T</text>
</g>
<!-- router_complex_combined_flow_line_15_if&#45;&gt;router_complex_combined_flow_line_28_if -->
<g id="edge11" class="edge">
<title>router_complex_combined_flow_line_15_if&#45;&gt;router_complex_combined_flow_line_28_if</title>
<path fill="none" stroke="#8b3a3a" d="M553.86,-1114.87C553.86,-1090.63 553.86,-1061.9 553.86,-1036.56"/>
<polygon fill="#8b3a3a" stroke="#8b3a3a" points="557.36,-1036.29 553.86,-1026.29 550.36,-1036.29 557.36,-1036.29"/>
<text text-anchor="middle" x="557.36" y="-1068" font-family="Courier,monospace" font-size="10.00">F</text>
</g>
<!-- router_complex_combined_flow_line_11_if -->
<g id="node9" class="node">
<title>router_complex_combined_flow_line_11_if</title>
<path fill="wheat" stroke="black" d="M701.36,-1384C701.36,-1384 406.36,-1384 406.36,-1384 400.36,-1384 394.36,-1378 394.36,-1372 394.36,-1372 394.36,-1285 394.36,-1285 394.36,-1279 400.36,-1273 406.36,-1273 406.36,-1273 701.36,-1273 701.36,-1273 707.36,-1273 713.36,-1279 713.36,-1285 713.36,-1285 713.36,-1372 713.36,-1372 713.36,-1378 707.36,-1384 701.36,-1384"/>
<polygon fill="white" stroke="transparent" points="408.86,-1344.5 408.86,-1369.5 699.86,-1369.5 699.86,-1344.5 408.86,-1344.5"/>
<polygon fill="none" stroke="black" points="408.86,-1344.5 408.86,-1369.5 699.86,-1369.5 699.86,-1344.5 408.86,-1344.5"/>
<text text-anchor="start" x="415.86" y="-1355.5" font-family="Courier,monospace" font-style="italic" font-size="10.00">p = router_complex_combined_flow_line_11_if(p)</text>
<polygon fill="lightyellow" stroke="transparent" points="408.86,-1319.5 408.86,-1344.5 699.86,-1344.5 699.86,-1319.5 408.86,-1319.5"/>
<polygon fill="none" stroke="black" points="408.86,-1319.5 408.86,-1344.5 699.86,-1344.5 699.86,-1319.5 408.86,-1319.5"/>
<text text-anchor="start" x="502.36" y="-1330.5" font-family="Courier,monospace" font-weight="bold" font-size="10.00">if</text>
<text text-anchor="start" x="515.36" y="-1330.5" font-family="Courier,monospace" font-size="10.00"> not p[&#39;valid&#39;]</text>
<polygon fill="none" stroke="black" points="408.86,-1286.5 408.86,-1319.5 699.86,-1319.5 699.86,-1286.5 408.86,-1286.5"/>
<polygon fill="#698b69" stroke="transparent" points="415.86,-1293.5 415.86,-1312.5 551.86,-1312.5 551.86,-1293.5 415.86,-1293.5"/>
<text text-anchor="start" x="471.36" y="-1301.5" font-family="Courier,monospace" font-weight="bold" font-size="10.00" fill="white">TRUE</text>
<polygon fill="#8b3a3a" stroke="transparent" points="551.86,-1293.5 551.86,-1312.5 692.86,-1312.5 692.86,-1293.5 551.86,-1293.5"/>
<text text-anchor="start" x="606.86" y="-1301.5" font-family="Courier,monospace" font-weight="bold" font-size="10.00" fill="white">FALSE</text>
</g>
<!-- router_complex_combined_flow_line_11_if&#45;&gt;router_complex_combined_flow_line_15_if -->
<g id="edge9" class="edge">
<title>router_complex_combined_flow_line_11_if&#45;&gt;router_complex_combined_flow_line_15_if</title>
<path fill="none" stroke="#8b3a3a" d="M553.86,-1272.94C553.86,-1261.06 553.86,-1248.39 553.86,-1236.17"/>
<polygon fill="#8b3a3a" stroke="#8b3a3a" points="557.36,-1236.03 553.86,-1226.03 550.36,-1236.03 557.36,-1236.03"/>
<text text-anchor="middle" x="557.36" y="-1247" font-family="Courier,monospace" font-size="10.00">F</text>
</g>
<!-- handler_error -->
<g id="node12" class="node">
<title>handler_error</title>
<path fill="lightblue" stroke="black" d="M839.36,-1097C839.36,-1097 700.36,-1097 700.36,-1097 694.36,-1097 688.36,-1091 688.36,-1085 688.36,-1085 688.36,-1056 688.36,-1056 688.36,-1050 694.36,-1044 700.36,-1044 700.36,-1044 839.36,-1044 839.36,-1044 845.36,-1044 851.36,-1050 851.36,-1056 851.36,-1056 851.36,-1085 851.36,-1085 851.36,-1091 845.36,-1097 839.36,-1097"/>
<polygon fill="white" stroke="transparent" points="702.86,-1057.5 702.86,-1082.5 837.86,-1082.5 837.86,-1057.5 702.86,-1057.5"/>
<polygon fill="none" stroke="black" points="702.86,-1057.5 702.86,-1082.5 837.86,-1082.5 837.86,-1057.5 702.86,-1057.5"/>
<text text-anchor="start" x="709.86" y="-1068.5" font-family="Courier,monospace" font-style="italic" font-size="10.00">p = handler_error(p)</text>
</g>
<!-- router_complex_combined_flow_line_11_if&#45;&gt;handler_error -->
<g id="edge8" class="edge">
<title>router_complex_combined_flow_line_11_if&#45;&gt;handler_error</title>
<path fill="none" stroke="#698b69" d="M671.12,-1272.78C690.45,-1259.65 708.75,-1244.08 722.86,-1226 749.94,-1191.3 761.48,-1141.05 766.36,-1107.37"/>
<polygon fill="#698b69" stroke="#698b69" points="769.88,-1107.43 767.72,-1097.06 762.94,-1106.52 769.88,-1107.43"/>
<text text-anchor="middle" x="708.36" y="-1247" font-family="Courier,monospace" font-size="10.00">T</text>
</g>
<!-- end_complex_combined_flow -->
<g id="node10" class="node">
<title>end_complex_combined_flow</title>
<path fill="lightgreen" stroke="black" d="M760.36,-53C760.36,-53 549.36,-53 549.36,-53 543.36,-53 537.36,-47 537.36,-41 537.36,-41 537.36,-12 537.36,-12 537.36,-6 543.36,0 549.36,0 549.36,0 760.36,0 760.36,0 766.36,0 772.36,-6 772.36,-12 772.36,-12 772.36,-41 772.36,-41 772.36,-47 766.36,-53 760.36,-53"/>
<polygon fill="white" stroke="transparent" points="551.86,-13.5 551.86,-38.5 758.86,-38.5 758.86,-13.5 551.86,-13.5"/>
<polygon fill="none" stroke="black" points="551.86,-13.5 551.86,-38.5 758.86,-38.5 758.86,-13.5 551.86,-13.5"/>
<text text-anchor="start" x="558.86" y="-24.5" font-family="Courier,monospace" font-style="italic" font-size="10.00">p = end_complex_combined_flow(p)</text>
</g>
<!-- handler_default&#45;&gt;handler_finalize -->
<g id="edge1" class="edge">
<title>handler_default&#45;&gt;handler_finalize</title>
<path fill="none" stroke="black" d="M480.73,-460.85C485.44,-396.51 497.76,-228.15 503.2,-153.75"/>
<polygon fill="black" stroke="black" points="506.72,-153.7 503.96,-143.48 499.74,-153.19 506.72,-153.7"/>
</g>
<!-- handler_error&#45;&gt;end_complex_combined_flow -->
<g id="edge2" class="edge">
<title>handler_error&#45;&gt;end_complex_combined_flow</title>
<path fill="none" stroke="black" d="M772.23,-1043.73C775.18,-1009.3 779.86,-946.36 779.86,-892.5 779.86,-892.5 779.86,-892.5 779.86,-115.5 779.86,-90.31 762.68,-71.71 741.06,-58.26"/>
<polygon fill="black" stroke="black" points="742.65,-55.14 732.24,-53.18 739.16,-61.21 742.65,-55.14"/>
</g>
<!-- handler_finalize&#45;&gt;end_complex_combined_flow -->
<g id="edge3" class="edge">
<title>handler_finalize&#45;&gt;end_complex_combined_flow</title>
<path fill="none" stroke="black" d="M549.35,-89.81C566.03,-79.96 585.23,-68.62 602.64,-58.34"/>
<polygon fill="black" stroke="black" points="604.73,-61.17 611.56,-53.07 601.17,-55.14 604.73,-61.17"/>
</g>
<!-- handler_init&#45;&gt;router_complex_combined_flow_line_11_if -->
<g id="edge4" class="edge">
<title>handler_init&#45;&gt;router_complex_combined_flow_line_11_if</title>
<path fill="none" stroke="black" d="M553.86,-1420.82C553.86,-1412.92 553.86,-1403.83 553.86,-1394.53"/>
<polygon fill="black" stroke="black" points="557.36,-1394.38 553.86,-1384.38 550.36,-1394.38 557.36,-1394.38"/>
</g>
<!-- handler_process&#45;&gt;router_complex_combined_flow_line_25_if -->
<g id="edge5" class="edge">
<title>handler_process&#45;&gt;router_complex_combined_flow_line_25_if</title>
<path fill="none" stroke="black" d="M187.86,-389.83C187.86,-369.04 187.86,-338.8 187.86,-311.45"/>
<polygon fill="black" stroke="black" points="191.36,-311.14 187.86,-301.14 184.36,-311.14 191.36,-311.14"/>
</g>
<!-- handler_type_a&#45;&gt;handler_finalize -->
<g id="edge6" class="edge">
<title>handler_type_a&#45;&gt;handler_finalize</title>
<path fill="none" stroke="black" d="M680.86,-685.75C680.86,-644.23 680.86,-559.93 680.86,-488.5 680.86,-488.5 680.86,-488.5 680.86,-244.5 680.86,-198.25 640.32,-167.1 598.27,-147.23"/>
<polygon fill="black" stroke="black" points="599.55,-143.97 589,-143.04 596.67,-150.35 599.55,-143.97"/>
</g>
<!-- handler_type_b&#45;&gt;handler_finalize -->
<g id="edge7" class="edge">
<title>handler_type_b&#45;&gt;handler_finalize</title>
<path fill="none" stroke="black" d="M572.4,-318.9C558.94,-278.18 532.63,-198.55 517.44,-152.56"/>
<polygon fill="black" stroke="black" points="520.74,-151.4 514.28,-143 514.1,-153.6 520.74,-151.4"/>
</g>
</g>
</svg>
