<?xml version="1.0" encoding="UTF-8" standalone="no"?>
<!DOCTYPE svg PUBLIC "-//W3C//DTD SVG 1.1//EN"
 "http://www.w3.org/Graphics/SVG/1.1/DTD/svg11.dtd">
<!-- Generated by graphviz version 2.43.0 (0)
 -->
<!-- Title: flow Pages: 1 -->
<svg width="404pt" height="631pt"
 viewBox="0.00 0.00 404.00 631.00" xmlns="http://www.w3.org/2000/svg" xmlns:xlink="http://www.w3.org/1999/xlink">
<g id="graph0" class="graph" transform="scale(1 1) rotate(0) translate(4 627)">
<title>flow</title>
<polygon fill="white" stroke="transparent" points="-4,4 -4,-627 400,-627 400,4 -4,4"/>
<!-- start_review_pipeline_flow -->
<g id="node1" class="node">
<title>start_review_pipeline_flow</title>
<path fill="lightgreen" stroke="black" d="M298,-623C298,-623 45,-623 45,-623 39,-623 33,-617 33,-611 33,-611 33,-582 33,-582 33,-576 39,-570 45,-570 45,-570 298,-570 298,-570 304,-570 310,-576 310,-582 310,-582 310,-611 310,-611 310,-617 304,-623 298,-623"/>
<polygon fill="white" stroke="transparent" points="47.5,-583.5 47.5,-608.5 296.5,-608.5 296.5,-583.5 47.5,-583.5"/>
<polygon fill="none" stroke="black" points="47.5,-583.5 47.5,-608.5 296.5,-608.5 296.5,-583.5 47.5,-583.5"/>
<text text-anchor="start" x="54.5" y="-594.5" font-family="Courier,monospace" font-style="italic" font-size="10.00">p = await start_review_pipeline_flow(p)</text>
</g>
<!-- initial_review -->
<g id="node7" class="node">
<title>initial_review</title>
<path fill="lightblue" stroke="black" d="M262,-533C262,-533 81,-533 81,-533 75,-533 69,-527 69,-521 69,-521 69,-492 69,-492 69,-486 75,-480 81,-480 81,-480 262,-480 262,-480 268,-480 274,-486 274,-492 274,-492 274,-521 274,-521 274,-527 268,-533 262,-533"/>
<polygon fill="white" stroke="transparent" points="83.5,-493.5 83.5,-518.5 260.5,-518.5 260.5,-493.5 83.5,-493.5"/>
<polygon fill="none" stroke="black" points="83.5,-493.5 83.5,-518.5 260.5,-518.5 260.5,-493.5 83.5,-493.5"/>
<text text-anchor="start" x="90.5" y="-504.5" font-family="Courier,monospace" font-style="italic" font-size="10.00">p = await initial_review(p)</text>
</g>
<!-- start_review_pipeline_flow&#45;&gt;initial_review -->
<g id="edge7" class="edge">
<title>start_review_pipeline_flow&#45;&gt;initial_review</title>
<path fill="none" stroke="black" d="M171.5,-569.57C171.5,-561.34 171.5,-552.08 171.5,-543.28"/>
<polygon fill="black" stroke="black" points="175,-543.24 171.5,-533.24 168,-543.24 175,-543.24"/>
</g>
<!-- router_review_pipeline_flow_line_13_if -->
<g id="node2" class="node">
<title>router_review_pipeline_flow_line_13_if</title>
<path fill="wheat" stroke="black" d="M331,-443C331,-443 12,-443 12,-443 6,-443 0,-437 0,-431 0,-431 0,-344 0,-344 0,-338 6,-332 12,-332 12,-332 331,-332 331,-332 337,-332 343,-338 343,-344 343,-344 343,-431 343,-431 343,-437 337,-443 331,-443"/>
<polygon fill="white" stroke="transparent" points="14.5,-403.5 14.5,-428.5 329.5,-428.5 329.5,-403.5 14.5,-403.5"/>
<polygon fill="none" stroke="black" points="14.5,-403.5 14.5,-428.5 329.5,-428.5 329.5,-403.5 14.5,-403.5"/>
<text text-anchor="start" x="21.5" y="-414.5" font-family="Courier,monospace" font-style="italic" font-size="10.00">p = await router_review_pipeline_flow_line_13_…(p)</text>
<polygon fill="lightyellow" stroke="transparent" points="14.5,-378.5 14.5,-403.5 329.5,-403.5 329.5,-378.5 14.5,-378.5"/>
<polygon fill="none" stroke="black" points="14.5,-378.5 14.5,-403.5 329.5,-403.5 329.5,-378.5 14.5,-378.5"/>
<text text-anchor="start" x="114" y="-389.5" font-family="Courier,monospace" font-weight="bold" font-size="10.00">if</text>
<text text-anchor="start" x="127" y="-389.5" font-family="Courier,monospace" font-size="10.00"> p[&#39;score&#39;] &lt; 0.5</text>
<polygon fill="none" stroke="black" points="14.5,-345.5 14.5,-378.5 329.5,-378.5 329.5,-345.5 14.5,-345.5"/>
<polygon fill="#698b69" stroke="transparent" points="21.5,-352.5 21.5,-371.5 169.5,-371.5 169.5,-352.5 21.5,-352.5"/>
<text text-anchor="start" x="83" y="-360.5" font-family="Courier,monospace" font-weight="bold" font-size="10.00" fill="white">TRUE</text>
<polygon fill="#8b3a3a" stroke="transparent" points="169.5,-352.5 169.5,-371.5 322.5,-371.5 322.5,-352.5 169.5,-352.5"/>
<text text-anchor="start" x="230.5" y="-360.5" font-family="Courier,monospace" font-weight="bold" font-size="10.00" fill="white">FALSE</text>
</g>
<!-- auto_approve -->
<g id="node4" class="node">
<title>auto_approve</title>
<path fill="lightblue" stroke="black" d="M243,-214C243,-214 74,-214 74,-214 68,-214 62,-208 62,-202 62,-202 62,-173 62,-173 62,-167 68,-161 74,-161 74,-161 243,-161 243,-161 249,-161 255,-167 255,-173 255,-173 255,-202 255,-202 255,-208 249,-214 243,-214"/>
<polygon fill="white" stroke="transparent" points="76.5,-174.5 76.5,-199.5 241.5,-199.5 241.5,-174.5 76.5,-174.5"/>
<polygon fill="none" stroke="black" points="76.5,-174.5 76.5,-199.5 241.5,-199.5 241.5,-174.5 76.5,-174.5"/>
<text text-anchor="start" x="83.5" y="-185.5" font-family="Courier,monospace" font-style="italic" font-size="10.00">p = await auto_approve(p)</text>
</g>
<!-- router_review_pipeline_flow_line_13_if&#45;&gt;auto_approve -->
<g id="edge5" class="edge">
<title>router_review_pipeline_flow_line_13_if&#45;&gt;auto_approve</title>
<path fill="none" stroke="#8b3a3a" d="M167.91,-331.87C165.65,-297.47 162.8,-254.05 160.83,-224.06"/>
<polygon fill="#8b3a3a" stroke="#8b3a3a" points="164.32,-223.79 160.18,-214.04 157.34,-224.25 164.32,-223.79"/>
<text text-anchor="middle" x="171" y="-306" font-family="Courier,monospace" font-size="10.00">F</text>
</g>
<!-- detailed_review -->
<g id="node5" class="node">
<title>detailed_review</title>
<path fill="lightblue" stroke="black" d="M384,-285C384,-285 197,-285 197,-285 191,-285 185,-279 185,-273 185,-273 185,-244 185,-244 185,-238 191,-232 197,-232 197,-232 384,-232 384,-232 390,-232 396,-238 396,-244 396,-244 396,-273 396,-273 396,-279 390,-285 384,-285"/>
<polygon fill="white" stroke="transparent" points="199.5,-245.5 199.5,-270.5 382.5,-270.5 382.5,-245.5 199.5,-245.5"/>
<polygon fill="none" stroke="black" points="199.5,-245.5 199.5,-270.5 382.5,-270.5 382.5,-245.5 199.5,-245.5"/>
<text text-anchor="start" x="206.5" y="-256.5" font-family="Courier,monospace" font-style="italic" font-size="10.00">p = await detailed_review(p)</text>
</g>
<!-- router_review_pipeline_flow_line_13_if&#45;&gt;detailed_review -->
<g id="edge6" class="edge">
<title>router_review_pipeline_flow_line_13_if&#45;&gt;detailed_review</title>
<path fill="none" stroke="#698b69" d="M222.66,-331.9C235.16,-318.56 248.17,-304.68 259.41,-292.68"/>
<polygon fill="#698b69" stroke="#698b69" points="262.23,-294.79 266.52,-285.1 257.13,-290 262.23,-294.79"/>
<text text-anchor="middle" x="253" y="-306" font-family="Courier,monospace" font-size="10.00">T</text>
</g>
<!-- end_review_pipeline_flow -->
<g id="node3" class="node">
<title>end_review_pipeline_flow</title>
<path fill="lightgreen" stroke="black" d="M295,-53C295,-53 54,-53 54,-53 48,-53 42,-47 42,-41 42,-41 42,-12 42,-12 42,-6 48,0 54,0 54,0 295,0 295,0 301,0 307,-6 307,-12 307,-12 307,-41 307,-41 307,-47 301,-53 295,-53"/>
<polygon fill="white" stroke="transparent" points="56.5,-13.5 56.5,-38.5 293.5,-38.5 293.5,-13.5 56.5,-13.5"/>
<polygon fill="none" stroke="black" points="56.5,-13.5 56.5,-38.5 293.5,-38.5 293.5,-13.5 56.5,-13.5"/>
<text text-anchor="start" x="63.5" y="-24.5" font-family="Courier,monospace" font-style="italic" font-size="10.00">p = await end_review_pipeline_flow(p)</text>
</g>
<!-- auto_approve&#45;&gt;end_review_pipeline_flow -->
<g id="edge1" class="edge">
<title>auto_approve&#45;&gt;end_review_pipeline_flow</title>
<path fill="none" stroke="black" d="M161.07,-160.95C163.73,-134.49 167.92,-92.93 170.91,-63.22"/>
<polygon fill="black" stroke="black" points="174.39,-63.55 171.91,-53.25 167.43,-62.85 174.39,-63.55"/>
</g>
<!-- human_review -->
<g id="node6" class="node">
<title>human_review</title>
<path fill="lightblue" stroke="black" d="M373,-143C373,-143 204,-143 204,-143 198,-143 192,-137 192,-131 192,-131 192,-102 192,-102 192,-96 198,-90 204,-90 204,-90 373,-90 373,-90 379,-90 385,-96 385,-102 385,-102 385,-131 385,-131 385,-137 379,-143 373,-143"/>
<polygon fill="white" stroke="transparent" points="206.5,-103.5 206.5,-128.5 371.5,-128.5 371.5,-103.5 206.5,-103.5"/>
<polygon fill="none" stroke="black" points="206.5,-103.5 206.5,-128.5 371.5,-128.5 371.5,-103.5 206.5,-103.5"/>
<text text-anchor="start" x="213.5" y="-114.5" font-family="Courier,monospace" font-style="italic" font-size="10.00">p = await human_review(p)</text>
</g>
<!-- detailed_review&#45;&gt;human_review -->
<g id="edge2" class="edge">
<title>detailed_review&#45;&gt;human_review</title>
<path fill="none" stroke="black" d="M290.13,-231.82C289.82,-209.72 289.36,-177.6 289.01,-153.03"/>
<polygon fill="black" stroke="black" points="292.51,-152.96 288.86,-143.02 285.51,-153.06 292.51,-152.96"/>
</g>
<!-- human_review&#45;&gt;end_review_pipeline_flow -->
<g id="edge3" class="edge">
<title>human_review&#45;&gt;end_review_pipeline_flow</title>
<path fill="none" stroke="black" d="M255.22,-89.81C242.81,-80.23 228.58,-69.24 215.55,-59.19"/>
<polygon fill="black" stroke="black" points="217.68,-56.41 207.62,-53.07 213.4,-61.95 217.68,-56.41"/>
</g>
<!-- initial_review&#45;&gt;router_review_pipeline_flow_line_13_if -->
<g id="edge4" class="edge">
<title>initial_review&#45;&gt;router_review_pipeline_flow_line_13_if</title>
<path fill="none" stroke="black" d="M171.5,-479.82C171.5,-471.92 171.5,-462.83 171.5,-453.53"/>
<polygon fill="black" stroke="black" points="175,-453.38 171.5,-443.38 168,-453.38 175,-453.38"/>
</g>
</g>
</svg>
