<?xml version="1.0" encoding="UTF-8" standalone="no"?>
<!DOCTYPE svg PUBLIC "-//W3C//DTD SVG 1.1//EN"
 "http://www.w3.org/Graphics/SVG/1.1/DTD/svg11.dtd">
<!-- Generated by graphviz version 2.43.0 (0)
 -->
<!-- Title: flow Pages: 1 -->
<svg width="685pt" height="571pt"
 viewBox="0.00 0.00 685.00 571.00" xmlns="http://www.w3.org/2000/svg" xmlns:xlink="http://www.w3.org/1999/xlink">
<g id="graph0" class="graph" transform="scale(1 1) rotate(0) translate(4 567)">
<title>flow</title>
<polygon fill="white" stroke="transparent" points="-4,4 -4,-567 681,-567 681,4 -4,4"/>
<!-- start_analysis_flow -->
<g id="node1" class="node">
<title>start_analysis_flow</title>
<path fill="lightgreen" stroke="black" d="M327,-563C327,-563 152,-563 152,-563 146,-563 140,-557 140,-551 140,-551 140,-522 140,-522 140,-516 146,-510 152,-510 152,-510 327,-510 327,-510 333,-510 339,-516 339,-522 339,-522 339,-551 339,-551 339,-557 333,-563 327,-563"/>
<polygon fill="white" stroke="transparent" points="154.5,-523.5 154.5,-548.5 325.5,-548.5 325.5,-523.5 154.5,-523.5"/>
<polygon fill="none" stroke="black" points="154.5,-523.5 154.5,-548.5 325.5,-548.5 325.5,-523.5 154.5,-523.5"/>
<text text-anchor="start" x="161.5" y="-534.5" font-family="Courier,monospace" font-style="italic" font-size="10.00">p = start_analysis_flow(p)</text>
</g>
<!-- fanout_analysis_flow_line_10 -->
<g id="node2" class="node">
<title>fanout_analysis_flow_line_10</title>
<path fill="lightblue" stroke="black" d="M354,-473C354,-473 125,-473 125,-473 119,-473 113,-467 113,-461 113,-461 113,-407 113,-407 113,-401 119,-395 125,-395 125,-395 354,-395 354,-395 360,-395 366,-401 366,-407 366,-407 366,-461 366,-461 366,-467 360,-473 354,-473"/>
<polygon fill="white" stroke="transparent" points="127.5,-434 127.5,-459 352.5,-459 352.5,-434 127.5,-434"/>
<polygon fill="none" stroke="black" points="127.5,-434 127.5,-459 352.5,-459 352.5,-434 127.5,-434"/>
<text text-anchor="start" x="134.5" y="-445" font-family="Courier,monospace" font-style="italic" font-size="10.00">p = fanout_analysis_flow_line_10(p)</text>
<polygon fill="#9f79ee" stroke="transparent" points="127.5,-409 127.5,-434 352.5,-434 352.5,-409 127.5,-409"/>
<polygon fill="none" stroke="black" points="127.5,-409 127.5,-434 352.5,-434 352.5,-409 127.5,-409"/>
<text text-anchor="start" x="188.5" y="-420" font-family="Courier,monospace" font-weight="bold" font-size="10.00">[fan&#45;out:literal]</text>
</g>
<!-- start_analysis_flow&#45;&gt;fanout_analysis_flow_line_10 -->
<g id="edge9" class="edge">
<title>start_analysis_flow&#45;&gt;fanout_analysis_flow_line_10</title>
<path fill="none" stroke="black" d="M239.5,-509.88C239.5,-501.77 239.5,-492.52 239.5,-483.35"/>
<polygon fill="black" stroke="black" points="243,-483.1 239.5,-473.1 236,-483.1 243,-483.1"/>
</g>
<!-- entity_recognizer -->
<g id="node4" class="node">
<title>entity_recognizer</title>
<path fill="lightblue" stroke="black" d="M175,-348C175,-348 12,-348 12,-348 6,-348 0,-342 0,-336 0,-336 0,-307 0,-307 0,-301 6,-295 12,-295 12,-295 175,-295 175,-295 181,-295 187,-301 187,-307 187,-307 187,-336 187,-336 187,-342 181,-348 175,-348"/>
<polygon fill="white" stroke="transparent" points="14.5,-308.5 14.5,-333.5 173.5,-333.5 173.5,-308.5 14.5,-308.5"/>
<polygon fill="none" stroke="black" points="14.5,-308.5 14.5,-333.5 173.5,-333.5 173.5,-308.5 14.5,-308.5"/>
<text text-anchor="start" x="21.5" y="-319.5" font-family="Courier,monospace" font-style="italic" font-size="10.00">p = entity_recognizer(p)</text>
</g>
<!-- fanout_analysis_flow_line_10&#45;&gt;entity_recognizer -->
<g id="edge3" class="edge">
<title>fanout_analysis_flow_line_10&#45;&gt;entity_recognizer</title>
<path fill="none" stroke="#5d478b" stroke-width="2" d="M189.26,-394.97C171.68,-381.67 152.14,-366.88 135.32,-354.15"/>
<polygon fill="#5d478b" stroke="#5d478b" stroke-width="2" points="137.39,-351.33 127.3,-348.09 133.17,-356.91 137.39,-351.33"/>
<text text-anchor="middle" x="184" y="-369" font-family="Courier,monospace" font-size="10.00">slice 3</text>
</g>
<!-- fanin_analysis_flow_line_10 -->
<g id="node5" class="node">
<title>fanin_analysis_flow_line_10</title>
<path fill="lightblue" stroke="black" d="M382,-258C382,-258 159,-258 159,-258 153,-258 147,-252 147,-246 147,-246 147,-192 147,-192 147,-186 153,-180 159,-180 159,-180 382,-180 382,-180 388,-180 394,-186 394,-192 394,-192 394,-246 394,-246 394,-252 388,-258 382,-258"/>
<polygon fill="white" stroke="transparent" points="161.5,-219 161.5,-244 380.5,-244 380.5,-219 161.5,-219"/>
<polygon fill="none" stroke="black" points="161.5,-219 161.5,-244 380.5,-244 380.5,-219 161.5,-219"/>
<text text-anchor="start" x="168.5" y="-230" font-family="Courier,monospace" font-style="italic" font-size="10.00">p = fanin_analysis_flow_line_10(p)</text>
<polygon fill="#ab82ff" stroke="transparent" points="161.5,-194 161.5,-219 380.5,-219 380.5,-194 161.5,-194"/>
<polygon fill="none" stroke="black" points="161.5,-194 161.5,-219 380.5,-219 380.5,-194 161.5,-194"/>
<text text-anchor="start" x="246.5" y="-205" font-family="Courier,monospace" font-weight="bold" font-size="10.00">[fan&#45;in]</text>
</g>
<!-- fanout_analysis_flow_line_10&#45;&gt;fanin_analysis_flow_line_10 -->
<g id="edge4" class="edge">
<title>fanout_analysis_flow_line_10&#45;&gt;fanin_analysis_flow_line_10</title>
<path fill="none" stroke="#5d478b" stroke-dasharray="5,2" d="M231.86,-394.99C227.6,-366.97 224.59,-328.13 232.5,-295 234.72,-285.73 238.27,-276.3 242.35,-267.41"/>
<polygon fill="#5d478b" stroke="#5d478b" points="245.52,-268.89 246.74,-258.36 239.22,-265.83 245.52,-268.89"/>
<text text-anchor="middle" x="257" y="-324.5" font-family="Courier,monospace" font-size="10.00">slice 0</text>
<text text-anchor="middle" x="257" y="-313.5" font-family="Courier,monospace" font-size="10.00">(parent)</text>
</g>
<!-- sentiment_analyzer -->
<g id="node7" class="node">
<title>sentiment_analyzer</title>
<path fill="lightblue" stroke="black" d="M472,-348C472,-348 303,-348 303,-348 297,-348 291,-342 291,-336 291,-336 291,-307 291,-307 291,-301 297,-295 303,-295 303,-295 472,-295 472,-295 478,-295 484,-301 484,-307 484,-307 484,-336 484,-336 484,-342 478,-348 472,-348"/>
<polygon fill="white" stroke="transparent" points="305.5,-308.5 305.5,-333.5 470.5,-333.5 470.5,-308.5 305.5,-308.5"/>
<polygon fill="none" stroke="black" points="305.5,-308.5 305.5,-333.5 470.5,-333.5 470.5,-308.5 305.5,-308.5"/>
<text text-anchor="start" x="312.5" y="-319.5" font-family="Courier,monospace" font-style="italic" font-size="10.00">p = sentiment_analyzer(p)</text>
</g>
<!-- fanout_analysis_flow_line_10&#45;&gt;sentiment_analyzer -->
<g id="edge5" class="edge">
<title>fanout_analysis_flow_line_10&#45;&gt;sentiment_analyzer</title>
<path fill="none" stroke="#5d478b" stroke-width="2" d="M290.43,-394.97C308.25,-381.67 328.06,-366.88 345.11,-354.15"/>
<polygon fill="#5d478b" stroke="#5d478b" stroke-width="2" points="347.31,-356.87 353.23,-348.09 343.13,-351.26 347.31,-356.87"/>
<text text-anchor="middle" x="349" y="-369" font-family="Courier,monospace" font-size="10.00">slice 1</text>
</g>
<!-- topic_extractor -->
<g id="node8" class="node">
<title>topic_extractor</title>
<path fill="lightblue" stroke="black" d="M665,-348C665,-348 514,-348 514,-348 508,-348 502,-342 502,-336 502,-336 502,-307 502,-307 502,-301 508,-295 514,-295 514,-295 665,-295 665,-295 671,-295 677,-301 677,-307 677,-307 677,-336 677,-336 677,-342 671,-348 665,-348"/>
<polygon fill="white" stroke="transparent" points="516.5,-308.5 516.5,-333.5 663.5,-333.5 663.5,-308.5 516.5,-308.5"/>
<polygon fill="none" stroke="black" points="516.5,-308.5 516.5,-333.5 663.5,-333.5 663.5,-308.5 516.5,-308.5"/>
<text text-anchor="start" x="523.5" y="-319.5" font-family="Courier,monospace" font-style="italic" font-size="10.00">p = topic_extractor(p)</text>
</g>
<!-- fanout_analysis_flow_line_10&#45;&gt;topic_extractor -->
<g id="edge6" class="edge">
<title>fanout_analysis_flow_line_10&#45;&gt;topic_extractor</title>
<path fill="none" stroke="#5d478b" stroke-width="2" d="M359.95,-394.97C405.54,-380.58 456.61,-364.45 498.99,-351.08"/>
<polygon fill="#5d478b" stroke="#5d478b" stroke-width="2" points="500.25,-354.35 508.73,-348 498.14,-347.67 500.25,-354.35"/>
<text text-anchor="middle" x="467" y="-369" font-family="Courier,monospace" font-size="10.00">slice 2</text>
</g>
<!-- end_analysis_flow -->
<g id="node3" class="node">
<title>end_analysis_flow</title>
<path fill="lightgreen" stroke="black" d="M352,-53C352,-53 189,-53 189,-53 183,-53 177,-47 177,-41 177,-41 177,-12 177,-12 177,-6 183,0 189,0 189,0 352,0 352,0 358,0 364,-6 364,-12 364,-12 364,-41 364,-41 364,-47 358,-53 352,-53"/>
<polygon fill="white" stroke="transparent" points="191.5,-13.5 191.5,-38.5 350.5,-38.5 350.5,-13.5 191.5,-13.5"/>
<polygon fill="none" stroke="black" points="191.5,-13.5 191.5,-38.5 350.5,-38.5 350.5,-13.5 191.5,-13.5"/>
<text text-anchor="start" x="198.5" y="-24.5" font-family="Courier,monospace" font-style="italic" font-size="10.00">p = end_analysis_flow(p)</text>
</g>
<!-- entity_recognizer&#45;&gt;fanin_analysis_flow_line_10 -->
<g id="edge1" class="edge">
<title>entity_recognizer&#45;&gt;fanin_analysis_flow_line_10</title>
<path fill="none" stroke="#473c8b" stroke-dasharray="5,2" d="M138.62,-294.88C155.68,-285.2 175.58,-273.89 194.69,-263.05"/>
<polygon fill="#473c8b" stroke="#473c8b" points="196.43,-266.08 203.39,-258.1 192.97,-260 196.43,-266.08"/>
</g>
<!-- merge_analysis -->
<g id="node6" class="node">
<title>merge_analysis</title>
<path fill="lightblue" stroke="black" d="M343,-143C343,-143 198,-143 198,-143 192,-143 186,-137 186,-131 186,-131 186,-102 186,-102 186,-96 192,-90 198,-90 198,-90 343,-90 343,-90 349,-90 355,-96 355,-102 355,-102 355,-131 355,-131 355,-137 349,-143 343,-143"/>
<polygon fill="white" stroke="transparent" points="200.5,-103.5 200.5,-128.5 341.5,-128.5 341.5,-103.5 200.5,-103.5"/>
<polygon fill="none" stroke="black" points="200.5,-103.5 200.5,-128.5 341.5,-128.5 341.5,-103.5 200.5,-103.5"/>
<text text-anchor="start" x="207.5" y="-114.5" font-family="Courier,monospace" font-style="italic" font-size="10.00">p = merge_analysis(p)</text>
</g>
<!-- fanin_analysis_flow_line_10&#45;&gt;merge_analysis -->
<g id="edge2" class="edge">
<title>fanin_analysis_flow_line_10&#45;&gt;merge_analysis</title>
<path fill="none" stroke="black" d="M270.5,-179.72C270.5,-171.04 270.5,-161.86 270.5,-153.29"/>
<polygon fill="black" stroke="black" points="274,-153.22 270.5,-143.22 267,-153.22 274,-153.22"/>
</g>
<!-- merge_analysis&#45;&gt;end_analysis_flow -->
<g id="edge7" class="edge">
<title>merge_analysis&#45;&gt;end_analysis_flow</title>
<path fill="none" stroke="black" d="M270.5,-89.57C270.5,-81.34 270.5,-72.08 270.5,-63.28"/>
<polygon fill="black" stroke="black" points="274,-63.24 270.5,-53.24 267,-63.24 274,-63.24"/>
</g>
<!-- sentiment_analyzer&#45;&gt;fanin_analysis_flow_line_10 -->
<g id="edge8" class="edge">
<title>sentiment_analyzer&#45;&gt;fanin_analysis_flow_line_10</title>
<path fill="none" stroke="#473c8b" stroke-dasharray="5,2" d="M357.67,-294.88C347.01,-285.72 334.66,-275.11 322.67,-264.81"/>
<polygon fill="#473c8b" stroke="#473c8b" points="324.72,-261.96 314.86,-258.1 320.16,-267.27 324.72,-261.96"/>
</g>
<!-- topic_extractor&#45;&gt;fanin_analysis_flow_line_10 -->
<g id="edge10" class="edge">
<title>topic_extractor&#45;&gt;fanin_analysis_flow_line_10</title>
<path fill="none" stroke="#473c8b" stroke-dasharray="5,2" d="M508.18,-294.88C475.56,-284.6 437.14,-272.5 400.82,-261.06"/>
<polygon fill="#473c8b" stroke="#473c8b" points="401.73,-257.67 391.14,-258.01 399.62,-264.35 401.73,-257.67"/>
</g>
</g>
</svg>
