<?xml version="1.0" encoding="UTF-8" standalone="no"?>
<!DOCTYPE svg PUBLIC "-//W3C//DTD SVG 1.1//EN"
 "http://www.w3.org/Graphics/SVG/1.1/DTD/svg11.dtd">
<!-- Generated by graphviz version 2.43.0 (0)
 -->
<!-- Title: flow Pages: 1 -->
<svg width="1070pt" height="1279pt"
 viewBox="0.00 0.00 1070.00 1279.00" xmlns="http://www.w3.org/2000/svg" xmlns:xlink="http://www.w3.org/1999/xlink">
<g id="graph0" class="graph" transform="scale(1 1) rotate(0) translate(4 1275)">
<title>flow</title>
<polygon fill="white" stroke="transparent" points="-4,4 -4,-1275 1066,-1275 1066,4 -4,4"/>
<!-- start_hierarchical_delegation -->
<g id="node1" class="node">
<title>start_hierarchical_delegation</title>
<path fill="lightgreen" stroke="black" d="M606,-1271C606,-1271 335,-1271 335,-1271 329,-1271 323,-1265 323,-1259 323,-1259 323,-1230 323,-1230 323,-1224 329,-1218 335,-1218 335,-1218 606,-1218 606,-1218 612,-1218 618,-1224 618,-1230 618,-1230 618,-1259 618,-1259 618,-1265 612,-1271 606,-1271"/>
<polygon fill="white" stroke="transparent" points="337.5,-1231.5 337.5,-1256.5 604.5,-1256.5 604.5,-1231.5 337.5,-1231.5"/>
<polygon fill="none" stroke="black" points="337.5,-1231.5 337.5,-1256.5 604.5,-1256.5 604.5,-1231.5 337.5,-1231.5"/>
<text text-anchor="start" x="344.5" y="-1242.5" font-family="Courier,monospace" font-style="italic" font-size="10.00">p = await start_hierarchical_delegation(p)</text>
</g>
<!-- root_agent -->
<g id="node17" class="node">
<title>root_agent</title>
<path fill="lightblue" stroke="black" d="M549,-1181C549,-1181 392,-1181 392,-1181 386,-1181 380,-1175 380,-1169 380,-1169 380,-1140 380,-1140 380,-1134 386,-1128 392,-1128 392,-1128 549,-1128 549,-1128 555,-1128 561,-1134 561,-1140 561,-1140 561,-1169 561,-1169 561,-1175 555,-1181 549,-1181"/>
<polygon fill="white" stroke="transparent" points="394.5,-1141.5 394.5,-1166.5 547.5,-1166.5 547.5,-1141.5 394.5,-1141.5"/>
<polygon fill="none" stroke="black" points="394.5,-1141.5 394.5,-1166.5 547.5,-1166.5 547.5,-1141.5 394.5,-1141.5"/>
<text text-anchor="start" x="401.5" y="-1152.5" font-family="Courier,monospace" font-style="italic" font-size="10.00">p = await root_agent(p)</text>
</g>
<!-- start_hierarchical_delegation&#45;&gt;root_agent -->
<g id="edge23" class="edge">
<title>start_hierarchical_delegation&#45;&gt;root_agent</title>
<path fill="none" stroke="black" d="M470.5,-1217.57C470.5,-1209.34 470.5,-1200.08 470.5,-1191.28"/>
<polygon fill="black" stroke="black" points="474,-1191.24 470.5,-1181.24 467,-1191.24 474,-1191.24"/>
</g>
<!-- router_hierarchical_delegation_line_63_if -->
<g id="node2" class="node">
<title>router_hierarchical_delegation_line_63_if</title>
<path fill="wheat" stroke="black" d="M911,-433C911,-433 592,-433 592,-433 586,-433 580,-427 580,-421 580,-421 580,-334 580,-334 580,-328 586,-322 592,-322 592,-322 911,-322 911,-322 917,-322 923,-328 923,-334 923,-334 923,-421 923,-421 923,-427 917,-433 911,-433"/>
<polygon fill="white" stroke="transparent" points="594.5,-393.5 594.5,-418.5 909.5,-418.5 909.5,-393.5 594.5,-393.5"/>
<polygon fill="none" stroke="black" points="594.5,-393.5 594.5,-418.5 909.5,-418.5 909.5,-393.5 594.5,-393.5"/>
<text text-anchor="start" x="601.5" y="-404.5" font-family="Courier,monospace" font-style="italic" font-size="10.00">p = await router_hierarchical_delegation_line_…(p)</text>
<polygon fill="lightyellow" stroke="transparent" points="594.5,-368.5 594.5,-393.5 909.5,-393.5 909.5,-368.5 594.5,-368.5"/>
<polygon fill="none" stroke="black" points="594.5,-368.5 594.5,-393.5 909.5,-393.5 909.5,-368.5 594.5,-368.5"/>
<text text-anchor="start" x="667" y="-379.5" font-family="Courier,monospace" font-weight="bold" font-size="10.00">if</text>
<text text-anchor="start" x="680" y="-379.5" font-family="Courier,monospace" font-size="10.00"> p.get(&#39;subtask&#39;) == &#39;api&#39;</text>
<polygon fill="none" stroke="black" points="594.5,-335.5 594.5,-368.5 909.5,-368.5 909.5,-335.5 594.5,-335.5"/>
<polygon fill="#698b69" stroke="transparent" points="601.5,-342.5 601.5,-361.5 749.5,-361.5 749.5,-342.5 601.5,-342.5"/>
<text text-anchor="start" x="663" y="-350.5" font-family="Courier,monospace" font-weight="bold" font-size="10.00" fill="white">TRUE</text>
<polygon fill="#8b3a3a" stroke="transparent" points="749.5,-342.5 749.5,-361.5 902.5,-361.5 902.5,-342.5 749.5,-342.5"/>
<text text-anchor="start" x="810.5" y="-350.5" font-family="Courier,monospace" font-weight="bold" font-size="10.00" fill="white">FALSE</text>
</g>
<!-- api_specialist -->
<g id="node9" class="node">
<title>api_specialist</title>
<path fill="lightblue" stroke="black" d="M692,-233C692,-233 511,-233 511,-233 505,-233 499,-227 499,-221 499,-221 499,-192 499,-192 499,-186 505,-180 511,-180 511,-180 692,-180 692,-180 698,-180 704,-186 704,-192 704,-192 704,-221 704,-221 704,-227 698,-233 692,-233"/>
<polygon fill="white" stroke="transparent" points="513.5,-193.5 513.5,-218.5 690.5,-218.5 690.5,-193.5 513.5,-193.5"/>
<polygon fill="none" stroke="black" points="513.5,-193.5 513.5,-218.5 690.5,-218.5 690.5,-193.5 513.5,-193.5"/>
<text text-anchor="start" x="520.5" y="-204.5" font-family="Courier,monospace" font-style="italic" font-size="10.00">p = await api_specialist(p)</text>
</g>
<!-- router_hierarchical_delegation_line_63_if&#45;&gt;api_specialist -->
<g id="edge14" class="edge">
<title>router_hierarchical_delegation_line_63_if&#45;&gt;api_specialist</title>
<path fill="none" stroke="#698b69" d="M702.8,-321.63C679.23,-295.08 651.69,-264.05 631.28,-241.06"/>
<polygon fill="#698b69" stroke="#698b69" points="633.64,-238.44 624.38,-233.28 628.4,-243.08 633.64,-238.44"/>
<text text-anchor="middle" x="688" y="-275" font-family="Courier,monospace" font-size="10.00">T</text>
</g>
<!-- data_generalist -->
<g id="node12" class="node">
<title>data_generalist</title>
<path fill="lightblue" stroke="black" d="M921,-233C921,-233 734,-233 734,-233 728,-233 722,-227 722,-221 722,-221 722,-192 722,-192 722,-186 728,-180 734,-180 734,-180 921,-180 921,-180 927,-180 933,-186 933,-192 933,-192 933,-221 933,-221 933,-227 927,-233 921,-233"/>
<polygon fill="white" stroke="transparent" points="736.5,-193.5 736.5,-218.5 919.5,-218.5 919.5,-193.5 736.5,-193.5"/>
<polygon fill="none" stroke="black" points="736.5,-193.5 736.5,-218.5 919.5,-218.5 919.5,-193.5 736.5,-193.5"/>
<text text-anchor="start" x="743.5" y="-204.5" font-family="Courier,monospace" font-style="italic" font-size="10.00">p = await data_generalist(p)</text>
</g>
<!-- router_hierarchical_delegation_line_63_if&#45;&gt;data_generalist -->
<g id="edge15" class="edge">
<title>router_hierarchical_delegation_line_63_if&#45;&gt;data_generalist</title>
<path fill="none" stroke="#8b3a3a" d="M776.18,-321.63C787.86,-295.66 801.46,-265.4 811.73,-242.58"/>
<polygon fill="#8b3a3a" stroke="#8b3a3a" points="815,-243.84 815.91,-233.28 808.61,-240.96 815,-243.84"/>
<text text-anchor="middle" x="810" y="-275" font-family="Courier,monospace" font-size="10.00">F</text>
</g>
<!-- router_hierarchical_delegation_line_61_if -->
<g id="node3" class="node">
<title>router_hierarchical_delegation_line_61_if</title>
<path fill="wheat" stroke="black" d="M911,-591C911,-591 592,-591 592,-591 586,-591 580,-585 580,-579 580,-579 580,-492 580,-492 580,-486 586,-480 592,-480 592,-480 911,-480 911,-480 917,-480 923,-486 923,-492 923,-492 923,-579 923,-579 923,-585 917,-591 911,-591"/>
<polygon fill="white" stroke="transparent" points="594.5,-551.5 594.5,-576.5 909.5,-576.5 909.5,-551.5 594.5,-551.5"/>
<polygon fill="none" stroke="black" points="594.5,-551.5 594.5,-576.5 909.5,-576.5 909.5,-551.5 594.5,-551.5"/>
<text text-anchor="start" x="601.5" y="-562.5" font-family="Courier,monospace" font-style="italic" font-size="10.00">p = await router_hierarchical_delegation_line_…(p)</text>
<polygon fill="lightyellow" stroke="transparent" points="594.5,-526.5 594.5,-551.5 909.5,-551.5 909.5,-526.5 594.5,-526.5"/>
<polygon fill="none" stroke="black" points="594.5,-526.5 594.5,-551.5 909.5,-551.5 909.5,-526.5 594.5,-526.5"/>
<text text-anchor="start" x="667" y="-537.5" font-family="Courier,monospace" font-weight="bold" font-size="10.00">if</text>
<text text-anchor="start" x="680" y="-537.5" font-family="Courier,monospace" font-size="10.00"> p.get(&#39;subtask&#39;) == &#39;sql&#39;</text>
<polygon fill="none" stroke="black" points="594.5,-493.5 594.5,-526.5 909.5,-526.5 909.5,-493.5 594.5,-493.5"/>
<polygon fill="#698b69" stroke="transparent" points="601.5,-500.5 601.5,-519.5 749.5,-519.5 749.5,-500.5 601.5,-500.5"/>
<text text-anchor="start" x="663" y="-508.5" font-family="Courier,monospace" font-weight="bold" font-size="10.00" fill="white">TRUE</text>
<polygon fill="#8b3a3a" stroke="transparent" points="749.5,-500.5 749.5,-519.5 902.5,-519.5 902.5,-500.5 749.5,-500.5"/>
<text text-anchor="start" x="810.5" y="-508.5" font-family="Courier,monospace" font-weight="bold" font-size="10.00" fill="white">FALSE</text>
</g>
<!-- router_hierarchical_delegation_line_61_if&#45;&gt;router_hierarchical_delegation_line_63_if -->
<g id="edge12" class="edge">
<title>router_hierarchical_delegation_line_61_if&#45;&gt;router_hierarchical_delegation_line_63_if</title>
<path fill="none" stroke="#8b3a3a" d="M751.5,-479.94C751.5,-468.06 751.5,-455.39 751.5,-443.17"/>
<polygon fill="#8b3a3a" stroke="#8b3a3a" points="755,-443.03 751.5,-433.03 748,-443.03 755,-443.03"/>
<text text-anchor="middle" x="755" y="-454" font-family="Courier,monospace" font-size="10.00">F</text>
</g>
<!-- sql_specialist -->
<g id="node18" class="node">
<title>sql_specialist</title>
<path fill="lightblue" stroke="black" d="M1050,-304C1050,-304 869,-304 869,-304 863,-304 857,-298 857,-292 857,-292 857,-263 857,-263 857,-257 863,-251 869,-251 869,-251 1050,-251 1050,-251 1056,-251 1062,-257 1062,-263 1062,-263 1062,-292 1062,-292 1062,-298 1056,-304 1050,-304"/>
<polygon fill="white" stroke="transparent" points="871.5,-264.5 871.5,-289.5 1048.5,-289.5 1048.5,-264.5 871.5,-264.5"/>
<polygon fill="none" stroke="black" points="871.5,-264.5 871.5,-289.5 1048.5,-289.5 1048.5,-264.5 871.5,-264.5"/>
<text text-anchor="start" x="878.5" y="-275.5" font-family="Courier,monospace" font-style="italic" font-size="10.00">p = await sql_specialist(p)</text>
</g>
<!-- router_hierarchical_delegation_line_61_if&#45;&gt;sql_specialist -->
<g id="edge13" class="edge">
<title>router_hierarchical_delegation_line_61_if&#45;&gt;sql_specialist</title>
<path fill="none" stroke="#698b69" d="M882.64,-480C901.75,-467.07 919.38,-451.52 932.5,-433 957.21,-398.11 961.77,-347.91 961.6,-314.29"/>
<polygon fill="#698b69" stroke="#698b69" points="965.09,-313.93 961.39,-304 958.09,-314.07 965.09,-313.93"/>
<text text-anchor="middle" x="920" y="-454" font-family="Courier,monospace" font-size="10.00">T</text>
</g>
<!-- router_hierarchical_delegation_line_74_if -->
<g id="node4" class="node">
<title>router_hierarchical_delegation_line_74_if</title>
<path fill="wheat" stroke="black" d="M365,-433C365,-433 46,-433 46,-433 40,-433 34,-427 34,-421 34,-421 34,-334 34,-334 34,-328 40,-322 46,-322 46,-322 365,-322 365,-322 371,-322 377,-328 377,-334 377,-334 377,-421 377,-421 377,-427 371,-433 365,-433"/>
<polygon fill="white" stroke="transparent" points="48.5,-393.5 48.5,-418.5 363.5,-418.5 363.5,-393.5 48.5,-393.5"/>
<polygon fill="none" stroke="black" points="48.5,-393.5 48.5,-418.5 363.5,-418.5 363.5,-393.5 48.5,-393.5"/>
<text text-anchor="start" x="55.5" y="-404.5" font-family="Courier,monospace" font-style="italic" font-size="10.00">p = await router_hierarchical_delegation_line_…(p)</text>
<polygon fill="lightyellow" stroke="transparent" points="48.5,-368.5 48.5,-393.5 363.5,-393.5 363.5,-368.5 48.5,-368.5"/>
<polygon fill="none" stroke="black" points="48.5,-368.5 48.5,-393.5 363.5,-393.5 363.5,-368.5 48.5,-368.5"/>
<text text-anchor="start" x="118" y="-379.5" font-family="Courier,monospace" font-weight="bold" font-size="10.00">if</text>
<text text-anchor="start" x="131" y="-379.5" font-family="Courier,monospace" font-size="10.00"> p.get(&#39;subtask&#39;) == &#39;edit&#39;</text>
<polygon fill="none" stroke="black" points="48.5,-335.5 48.5,-368.5 363.5,-368.5 363.5,-335.5 48.5,-335.5"/>
<polygon fill="#698b69" stroke="transparent" points="55.5,-342.5 55.5,-361.5 203.5,-361.5 203.5,-342.5 55.5,-342.5"/>
<text text-anchor="start" x="117" y="-350.5" font-family="Courier,monospace" font-weight="bold" font-size="10.00" fill="white">TRUE</text>
<polygon fill="#8b3a3a" stroke="transparent" points="203.5,-342.5 203.5,-361.5 356.5,-361.5 356.5,-342.5 203.5,-342.5"/>
<text text-anchor="start" x="264.5" y="-350.5" font-family="Courier,monospace" font-weight="bold" font-size="10.00" fill="white">FALSE</text>
</g>
<!-- content_generalist -->
<g id="node10" class="node">
<title>content_generalist</title>
<path fill="lightblue" stroke="black" d="M217,-233C217,-233 12,-233 12,-233 6,-233 0,-227 0,-221 0,-221 0,-192 0,-192 0,-186 6,-180 12,-180 12,-180 217,-180 217,-180 223,-180 229,-186 229,-192 229,-192 229,-221 229,-221 229,-227 223,-233 217,-233"/>
<polygon fill="white" stroke="transparent" points="14.5,-193.5 14.5,-218.5 215.5,-218.5 215.5,-193.5 14.5,-193.5"/>
<polygon fill="none" stroke="black" points="14.5,-193.5 14.5,-218.5 215.5,-218.5 215.5,-193.5 14.5,-193.5"/>
<text text-anchor="start" x="21.5" y="-204.5" font-family="Courier,monospace" font-style="italic" font-size="10.00">p = await content_generalist(p)</text>
</g>
<!-- router_hierarchical_delegation_line_74_if&#45;&gt;content_generalist -->
<g id="edge20" class="edge">
<title>router_hierarchical_delegation_line_74_if&#45;&gt;content_generalist</title>
<path fill="none" stroke="#8b3a3a" d="M175.95,-321.63C161.91,-295.54 145.53,-265.13 133.22,-242.27"/>
<polygon fill="#8b3a3a" stroke="#8b3a3a" points="136.2,-240.42 128.38,-233.28 130.04,-243.74 136.2,-240.42"/>
<text text-anchor="middle" x="169" y="-275" font-family="Courier,monospace" font-size="10.00">F</text>
</g>
<!-- editor -->
<g id="node14" class="node">
<title>editor</title>
<path fill="lightblue" stroke="black" d="M392,-233C392,-233 259,-233 259,-233 253,-233 247,-227 247,-221 247,-221 247,-192 247,-192 247,-186 253,-180 259,-180 259,-180 392,-180 392,-180 398,-180 404,-186 404,-192 404,-192 404,-221 404,-221 404,-227 398,-233 392,-233"/>
<polygon fill="white" stroke="transparent" points="261.5,-193.5 261.5,-218.5 390.5,-218.5 390.5,-193.5 261.5,-193.5"/>
<polygon fill="none" stroke="black" points="261.5,-193.5 261.5,-218.5 390.5,-218.5 390.5,-193.5 261.5,-193.5"/>
<text text-anchor="start" x="268.5" y="-204.5" font-family="Courier,monospace" font-style="italic" font-size="10.00">p = await editor(p)</text>
</g>
<!-- router_hierarchical_delegation_line_74_if&#45;&gt;editor -->
<g id="edge21" class="edge">
<title>router_hierarchical_delegation_line_74_if&#45;&gt;editor</title>
<path fill="none" stroke="#698b69" d="M234.71,-321.76C247.83,-299.03 264.23,-272.9 281.5,-251 284.27,-247.49 287.3,-243.97 290.44,-240.54"/>
<polygon fill="#698b69" stroke="#698b69" points="293.06,-242.86 297.41,-233.2 287.98,-238.04 293.06,-242.86"/>
<text text-anchor="middle" x="285" y="-275" font-family="Courier,monospace" font-size="10.00">T</text>
</g>
<!-- router_hierarchical_delegation_line_72_if -->
<g id="node5" class="node">
<title>router_hierarchical_delegation_line_72_if</title>
<path fill="wheat" stroke="black" d="M365,-591C365,-591 46,-591 46,-591 40,-591 34,-585 34,-579 34,-579 34,-492 34,-492 34,-486 40,-480 46,-480 46,-480 365,-480 365,-480 371,-480 377,-486 377,-492 377,-492 377,-579 377,-579 377,-585 371,-591 365,-591"/>
<polygon fill="white" stroke="transparent" points="48.5,-551.5 48.5,-576.5 363.5,-576.5 363.5,-551.5 48.5,-551.5"/>
<polygon fill="none" stroke="black" points="48.5,-551.5 48.5,-576.5 363.5,-576.5 363.5,-551.5 48.5,-551.5"/>
<text text-anchor="start" x="55.5" y="-562.5" font-family="Courier,monospace" font-style="italic" font-size="10.00">p = await router_hierarchical_delegation_line_…(p)</text>
<polygon fill="lightyellow" stroke="transparent" points="48.5,-526.5 48.5,-551.5 363.5,-551.5 363.5,-526.5 48.5,-526.5"/>
<polygon fill="none" stroke="black" points="48.5,-526.5 48.5,-551.5 363.5,-551.5 363.5,-526.5 48.5,-526.5"/>
<text text-anchor="start" x="115" y="-537.5" font-family="Courier,monospace" font-weight="bold" font-size="10.00">if</text>
<text text-anchor="start" x="128" y="-537.5" font-family="Courier,monospace" font-size="10.00"> p.get(&#39;subtask&#39;) == &#39;write&#39;</text>
<polygon fill="none" stroke="black" points="48.5,-493.5 48.5,-526.5 363.5,-526.5 363.5,-493.5 48.5,-493.5"/>
<polygon fill="#698b69" stroke="transparent" points="55.5,-500.5 55.5,-519.5 203.5,-519.5 203.5,-500.5 55.5,-500.5"/>
<text text-anchor="start" x="117" y="-508.5" font-family="Courier,monospace" font-weight="bold" font-size="10.00" fill="white">TRUE</text>
<polygon fill="#8b3a3a" stroke="transparent" points="203.5,-500.5 203.5,-519.5 356.5,-519.5 356.5,-500.5 203.5,-500.5"/>
<text text-anchor="start" x="264.5" y="-508.5" font-family="Courier,monospace" font-weight="bold" font-size="10.00" fill="white">FALSE</text>
</g>
<!-- router_hierarchical_delegation_line_72_if&#45;&gt;router_hierarchical_delegation_line_74_if -->
<g id="edge18" class="edge">
<title>router_hierarchical_delegation_line_72_if&#45;&gt;router_hierarchical_delegation_line_74_if</title>
<path fill="none" stroke="#8b3a3a" d="M205.5,-479.94C205.5,-468.06 205.5,-455.39 205.5,-443.17"/>
<polygon fill="#8b3a3a" stroke="#8b3a3a" points="209,-443.03 205.5,-433.03 202,-443.03 209,-443.03"/>
<text text-anchor="middle" x="209" y="-454" font-family="Courier,monospace" font-size="10.00">F</text>
</g>
<!-- writer -->
<g id="node19" class="node">
<title>writer</title>
<path fill="lightblue" stroke="black" d="M443,-304C443,-304 310,-304 310,-304 304,-304 298,-298 298,-292 298,-292 298,-263 298,-263 298,-257 304,-251 310,-251 310,-251 443,-251 443,-251 449,-251 455,-257 455,-263 455,-263 455,-292 455,-292 455,-298 449,-304 443,-304"/>
<polygon fill="white" stroke="transparent" points="312.5,-264.5 312.5,-289.5 441.5,-289.5 441.5,-264.5 312.5,-264.5"/>
<polygon fill="none" stroke="black" points="312.5,-264.5 312.5,-289.5 441.5,-289.5 441.5,-264.5 312.5,-264.5"/>
<text text-anchor="start" x="319.5" y="-275.5" font-family="Courier,monospace" font-style="italic" font-size="10.00">p = await writer(p)</text>
</g>
<!-- router_hierarchical_delegation_line_72_if&#45;&gt;writer -->
<g id="edge19" class="edge">
<title>router_hierarchical_delegation_line_72_if&#45;&gt;writer</title>
<path fill="none" stroke="#698b69" d="M341.38,-479.8C358.99,-467.04 374.64,-451.59 385.5,-433 406.75,-396.63 398.59,-346.86 389.08,-313.74"/>
<polygon fill="#698b69" stroke="#698b69" points="392.39,-312.58 386.12,-304.03 385.69,-314.62 392.39,-312.58"/>
<text text-anchor="middle" x="376" y="-454" font-family="Courier,monospace" font-size="10.00">T</text>
</g>
<!-- router_hierarchical_delegation_line_68_if -->
<g id="node6" class="node">
<title>router_hierarchical_delegation_line_68_if</title>
<path fill="wheat" stroke="black" d="M630,-933C630,-933 311,-933 311,-933 305,-933 299,-927 299,-921 299,-921 299,-834 299,-834 299,-828 305,-822 311,-822 311,-822 630,-822 630,-822 636,-822 642,-828 642,-834 642,-834 642,-921 642,-921 642,-927 636,-933 630,-933"/>
<polygon fill="white" stroke="transparent" points="313.5,-893.5 313.5,-918.5 628.5,-918.5 628.5,-893.5 313.5,-893.5"/>
<polygon fill="none" stroke="black" points="313.5,-893.5 313.5,-918.5 628.5,-918.5 628.5,-893.5 313.5,-893.5"/>
<text text-anchor="start" x="320.5" y="-904.5" font-family="Courier,monospace" font-style="italic" font-size="10.00">p = await router_hierarchical_delegation_line_…(p)</text>
<polygon fill="lightyellow" stroke="transparent" points="313.5,-868.5 313.5,-893.5 628.5,-893.5 628.5,-868.5 313.5,-868.5"/>
<polygon fill="none" stroke="black" points="313.5,-868.5 313.5,-893.5 628.5,-893.5 628.5,-868.5 313.5,-868.5"/>
<text text-anchor="start" x="377" y="-879.5" font-family="Courier,monospace" font-weight="bold" font-size="10.00">if</text>
<text text-anchor="start" x="390" y="-879.5" font-family="Courier,monospace" font-size="10.00"> p.get(&#39;domain&#39;) == &#39;content&#39;</text>
<polygon fill="none" stroke="black" points="313.5,-835.5 313.5,-868.5 628.5,-868.5 628.5,-835.5 313.5,-835.5"/>
<polygon fill="#698b69" stroke="transparent" points="320.5,-842.5 320.5,-861.5 468.5,-861.5 468.5,-842.5 320.5,-842.5"/>
<text text-anchor="start" x="382" y="-850.5" font-family="Courier,monospace" font-weight="bold" font-size="10.00" fill="white">TRUE</text>
<polygon fill="#8b3a3a" stroke="transparent" points="468.5,-842.5 468.5,-861.5 621.5,-861.5 621.5,-842.5 468.5,-842.5"/>
<text text-anchor="start" x="529.5" y="-850.5" font-family="Courier,monospace" font-weight="bold" font-size="10.00" fill="white">FALSE</text>
</g>
<!-- content_team_lead -->
<g id="node11" class="node">
<title>content_team_lead</title>
<path fill="lightblue" stroke="black" d="M406,-733C406,-733 207,-733 207,-733 201,-733 195,-727 195,-721 195,-721 195,-692 195,-692 195,-686 201,-680 207,-680 207,-680 406,-680 406,-680 412,-680 418,-686 418,-692 418,-692 418,-721 418,-721 418,-727 412,-733 406,-733"/>
<polygon fill="white" stroke="transparent" points="209.5,-693.5 209.5,-718.5 404.5,-718.5 404.5,-693.5 209.5,-693.5"/>
<polygon fill="none" stroke="black" points="209.5,-693.5 209.5,-718.5 404.5,-718.5 404.5,-693.5 209.5,-693.5"/>
<text text-anchor="start" x="216.5" y="-704.5" font-family="Courier,monospace" font-style="italic" font-size="10.00">p = await content_team_lead(p)</text>
</g>
<!-- router_hierarchical_delegation_line_68_if&#45;&gt;content_team_lead -->
<g id="edge16" class="edge">
<title>router_hierarchical_delegation_line_68_if&#45;&gt;content_team_lead</title>
<path fill="none" stroke="#698b69" d="M417.25,-821.63C391.26,-794.84 360.85,-763.51 338.48,-740.46"/>
<polygon fill="#698b69" stroke="#698b69" points="340.99,-738.02 331.52,-733.28 335.97,-742.89 340.99,-738.02"/>
<text text-anchor="middle" x="402" y="-775" font-family="Courier,monospace" font-size="10.00">T</text>
</g>
<!-- generalist -->
<g id="node16" class="node">
<title>generalist</title>
<path fill="lightblue" stroke="black" d="M549,-662C549,-662 392,-662 392,-662 386,-662 380,-656 380,-650 380,-650 380,-621 380,-621 380,-615 386,-609 392,-609 392,-609 549,-609 549,-609 555,-609 561,-615 561,-621 561,-621 561,-650 561,-650 561,-656 555,-662 549,-662"/>
<polygon fill="white" stroke="transparent" points="394.5,-622.5 394.5,-647.5 547.5,-647.5 547.5,-622.5 394.5,-622.5"/>
<polygon fill="none" stroke="black" points="394.5,-622.5 394.5,-647.5 547.5,-647.5 547.5,-622.5 394.5,-622.5"/>
<text text-anchor="start" x="401.5" y="-633.5" font-family="Courier,monospace" font-style="italic" font-size="10.00">p = await generalist(p)</text>
</g>
<!-- router_hierarchical_delegation_line_68_if&#45;&gt;generalist -->
<g id="edge17" class="edge">
<title>router_hierarchical_delegation_line_68_if&#45;&gt;generalist</title>
<path fill="none" stroke="#8b3a3a" d="M470.5,-821.74C470.5,-775.99 470.5,-712.07 470.5,-672.53"/>
<polygon fill="#8b3a3a" stroke="#8b3a3a" points="474,-672.3 470.5,-662.3 467,-672.3 474,-672.3"/>
<text text-anchor="middle" x="474" y="-775" font-family="Courier,monospace" font-size="10.00">F</text>
</g>
<!-- router_hierarchical_delegation_line_57_if -->
<g id="node7" class="node">
<title>router_hierarchical_delegation_line_57_if</title>
<path fill="wheat" stroke="black" d="M630,-1091C630,-1091 311,-1091 311,-1091 305,-1091 299,-1085 299,-1079 299,-1079 299,-992 299,-992 299,-986 305,-980 311,-980 311,-980 630,-980 630,-980 636,-980 642,-986 642,-992 642,-992 642,-1079 642,-1079 642,-1085 636,-1091 630,-1091"/>
<polygon fill="white" stroke="transparent" points="313.5,-1051.5 313.5,-1076.5 628.5,-1076.5 628.5,-1051.5 313.5,-1051.5"/>
<polygon fill="none" stroke="black" points="313.5,-1051.5 313.5,-1076.5 628.5,-1076.5 628.5,-1051.5 313.5,-1051.5"/>
<text text-anchor="start" x="320.5" y="-1062.5" font-family="Courier,monospace" font-style="italic" font-size="10.00">p = await router_hierarchical_delegation_line_…(p)</text>
<polygon fill="lightyellow" stroke="transparent" points="313.5,-1026.5 313.5,-1051.5 628.5,-1051.5 628.5,-1026.5 313.5,-1026.5"/>
<polygon fill="none" stroke="black" points="313.5,-1026.5 313.5,-1051.5 628.5,-1051.5 628.5,-1026.5 313.5,-1026.5"/>
<text text-anchor="start" x="386" y="-1037.5" font-family="Courier,monospace" font-weight="bold" font-size="10.00">if</text>
<text text-anchor="start" x="399" y="-1037.5" font-family="Courier,monospace" font-size="10.00"> p.get(&#39;domain&#39;) == &#39;data&#39;</text>
<polygon fill="none" stroke="black" points="313.5,-993.5 313.5,-1026.5 628.5,-1026.5 628.5,-993.5 313.5,-993.5"/>
<polygon fill="#698b69" stroke="transparent" points="320.5,-1000.5 320.5,-1019.5 468.5,-1019.5 468.5,-1000.5 320.5,-1000.5"/>
<text text-anchor="start" x="382" y="-1008.5" font-family="Courier,monospace" font-weight="bold" font-size="10.00" fill="white">TRUE</text>
<polygon fill="#8b3a3a" stroke="transparent" points="468.5,-1000.5 468.5,-1019.5 621.5,-1019.5 621.5,-1000.5 468.5,-1000.5"/>
<text text-anchor="start" x="529.5" y="-1008.5" font-family="Courier,monospace" font-weight="bold" font-size="10.00" fill="white">FALSE</text>
</g>
<!-- router_hierarchical_delegation_line_57_if&#45;&gt;router_hierarchical_delegation_line_68_if -->
<g id="edge11" class="edge">
<title>router_hierarchical_delegation_line_57_if&#45;&gt;router_hierarchical_delegation_line_68_if</title>
<path fill="none" stroke="#8b3a3a" d="M470.5,-979.94C470.5,-968.06 470.5,-955.39 470.5,-943.17"/>
<polygon fill="#8b3a3a" stroke="#8b3a3a" points="474,-943.03 470.5,-933.03 467,-943.03 474,-943.03"/>
<text text-anchor="middle" x="474" y="-954" font-family="Courier,monospace" font-size="10.00">F</text>
</g>
<!-- data_team_lead -->
<g id="node13" class="node">
<title>data_team_lead</title>
<path fill="lightblue" stroke="black" d="M784,-804C784,-804 603,-804 603,-804 597,-804 591,-798 591,-792 591,-792 591,-763 591,-763 591,-757 597,-751 603,-751 603,-751 784,-751 784,-751 790,-751 796,-757 796,-763 796,-763 796,-792 796,-792 796,-798 790,-804 784,-804"/>
<polygon fill="white" stroke="transparent" points="605.5,-764.5 605.5,-789.5 782.5,-789.5 782.5,-764.5 605.5,-764.5"/>
<polygon fill="none" stroke="black" points="605.5,-764.5 605.5,-789.5 782.5,-789.5 782.5,-764.5 605.5,-764.5"/>
<text text-anchor="start" x="612.5" y="-775.5" font-family="Courier,monospace" font-style="italic" font-size="10.00">p = await data_team_lead(p)</text>
</g>
<!-- router_hierarchical_delegation_line_57_if&#45;&gt;data_team_lead -->
<g id="edge10" class="edge">
<title>router_hierarchical_delegation_line_57_if&#45;&gt;data_team_lead</title>
<path fill="none" stroke="#698b69" d="M597.57,-979.97C617.44,-966.94 636.12,-951.36 650.5,-933 677.45,-898.58 687.52,-848.27 691.27,-814.5"/>
<polygon fill="#698b69" stroke="#698b69" points="694.8,-814.45 692.29,-804.16 687.83,-813.77 694.8,-814.45"/>
<text text-anchor="middle" x="635" y="-954" font-family="Courier,monospace" font-size="10.00">T</text>
</g>
<!-- end_hierarchical_delegation -->
<g id="node8" class="node">
<title>end_hierarchical_delegation</title>
<path fill="lightgreen" stroke="black" d="M600,-53C600,-53 341,-53 341,-53 335,-53 329,-47 329,-41 329,-41 329,-12 329,-12 329,-6 335,0 341,0 341,0 600,0 600,0 606,0 612,-6 612,-12 612,-12 612,-41 612,-41 612,-47 606,-53 600,-53"/>
<polygon fill="white" stroke="transparent" points="343.5,-13.5 343.5,-38.5 598.5,-38.5 598.5,-13.5 343.5,-13.5"/>
<polygon fill="none" stroke="black" points="343.5,-13.5 343.5,-38.5 598.5,-38.5 598.5,-13.5 343.5,-13.5"/>
<text text-anchor="start" x="350.5" y="-24.5" font-family="Courier,monospace" font-style="italic" font-size="10.00">p = await end_hierarchical_delegation(p)</text>
</g>
<!-- final_assembler -->
<g id="node15" class="node">
<title>final_assembler</title>
<path fill="lightblue" stroke="black" d="M564,-143C564,-143 377,-143 377,-143 371,-143 365,-137 365,-131 365,-131 365,-102 365,-102 365,-96 371,-90 377,-90 377,-90 564,-90 564,-90 570,-90 576,-96 576,-102 576,-102 576,-131 576,-131 576,-137 570,-143 564,-143"/>
<polygon fill="white" stroke="transparent" points="379.5,-103.5 379.5,-128.5 562.5,-128.5 562.5,-103.5 379.5,-103.5"/>
<polygon fill="none" stroke="black" points="379.5,-103.5 379.5,-128.5 562.5,-128.5 562.5,-103.5 379.5,-103.5"/>
<text text-anchor="start" x="386.5" y="-114.5" font-family="Courier,monospace" font-style="italic" font-size="10.00">p = await final_assembler(p)</text>
</g>
<!-- api_specialist&#45;&gt;final_assembler -->
<g id="edge1" class="edge">
<title>api_specialist&#45;&gt;final_assembler</title>
<path fill="none" stroke="black" d="M563.26,-179.81C548.86,-170.14 532.33,-159.04 517.25,-148.9"/>
<polygon fill="black" stroke="black" points="518.82,-145.74 508.56,-143.07 514.91,-151.55 518.82,-145.74"/>
</g>
<!-- content_generalist&#45;&gt;final_assembler -->
<g id="edge2" class="edge">
<title>content_generalist&#45;&gt;final_assembler</title>
<path fill="none" stroke="black" d="M217.95,-179.93C261.65,-169.13 312.67,-156.51 357.37,-145.46"/>
<polygon fill="black" stroke="black" points="358.23,-148.86 367.1,-143.06 356.55,-142.06 358.23,-148.86"/>
</g>
<!-- content_team_lead&#45;&gt;router_hierarchical_delegation_line_72_if -->
<g id="edge3" class="edge">
<title>content_team_lead&#45;&gt;router_hierarchical_delegation_line_72_if</title>
<path fill="none" stroke="black" d="M291.16,-679.83C278.51,-658.67 260.02,-627.73 243.46,-600.01"/>
<polygon fill="black" stroke="black" points="246.29,-597.93 238.15,-591.14 240.28,-601.52 246.29,-597.93"/>
</g>
<!-- data_generalist&#45;&gt;final_assembler -->
<g id="edge4" class="edge">
<title>data_generalist&#45;&gt;final_assembler</title>
<path fill="none" stroke="black" d="M723.76,-179.93C679.94,-169.13 628.77,-156.51 583.95,-145.46"/>
<polygon fill="black" stroke="black" points="584.74,-142.05 574.19,-143.06 583.06,-148.85 584.74,-142.05"/>
</g>
<!-- data_team_lead&#45;&gt;router_hierarchical_delegation_line_61_if -->
<g id="edge5" class="edge">
<title>data_team_lead&#45;&gt;router_hierarchical_delegation_line_61_if</title>
<path fill="none" stroke="black" d="M699.71,-750.82C708.26,-715.41 723.97,-650.4 735.86,-601.23"/>
<polygon fill="black" stroke="black" points="739.31,-601.85 738.25,-591.31 732.5,-600.2 739.31,-601.85"/>
</g>
<!-- editor&#45;&gt;final_assembler -->
<g id="edge6" class="edge">
<title>editor&#45;&gt;final_assembler</title>
<path fill="none" stroke="black" d="M367.83,-179.81C384.06,-169.96 402.74,-158.62 419.69,-148.34"/>
<polygon fill="black" stroke="black" points="421.64,-151.25 428.37,-143.07 418,-145.27 421.64,-151.25"/>
</g>
<!-- final_assembler&#45;&gt;end_hierarchical_delegation -->
<g id="edge7" class="edge">
<title>final_assembler&#45;&gt;end_hierarchical_delegation</title>
<path fill="none" stroke="black" d="M470.5,-89.57C470.5,-81.34 470.5,-72.08 470.5,-63.28"/>
<polygon fill="black" stroke="black" points="474,-63.24 470.5,-53.24 467,-63.24 474,-63.24"/>
</g>
<!-- generalist&#45;&gt;final_assembler -->
<g id="edge8" class="edge">
<title>generalist&#45;&gt;final_assembler</title>
<path fill="none" stroke="black" d="M470.5,-609C470.5,-574.6 470.5,-511.43 470.5,-457.5 470.5,-457.5 470.5,-457.5 470.5,-205.5 470.5,-188.33 470.5,-169.28 470.5,-153.3"/>
<polygon fill="black" stroke="black" points="474,-153.3 470.5,-143.3 467,-153.3 474,-153.3"/>
</g>
<!-- root_agent&#45;&gt;router_hierarchical_delegation_line_57_if -->
<g id="edge9" class="edge">
<title>root_agent&#45;&gt;router_hierarchical_delegation_line_57_if</title>
<path fill="none" stroke="black" d="M470.5,-1127.82C470.5,-1119.92 470.5,-1110.83 470.5,-1101.53"/>
<polygon fill="black" stroke="black" points="474,-1101.38 470.5,-1091.38 467,-1101.38 474,-1101.38"/>
</g>
<!-- sql_specialist&#45;&gt;final_assembler -->
<g id="edge22" class="edge">
<title>sql_specialist&#45;&gt;final_assembler</title>
<path fill="none" stroke="black" d="M962.59,-250.95C963.69,-228.96 961.29,-198.01 942.5,-180 893.01,-132.58 709.56,-120.37 586.49,-117.65"/>
<polygon fill="black" stroke="black" points="586.32,-114.15 576.25,-117.44 586.18,-121.15 586.32,-114.15"/>
</g>
<!-- writer&#45;&gt;final_assembler -->
<g id="edge24" class="edge">
<title>writer&#45;&gt;final_assembler</title>
<path fill="none" stroke="black" d="M399.58,-250.55C404.11,-244.94 408.64,-238.91 412.5,-233 429.32,-207.24 444.76,-175.94 455.47,-152.43"/>
<polygon fill="black" stroke="black" points="458.72,-153.74 459.62,-143.19 452.33,-150.87 458.72,-153.74"/>
</g>
</g>
</svg>
