<?xml version="1.0" encoding="UTF-8" standalone="no"?>
<!DOCTYPE svg PUBLIC "-//W3C//DTD SVG 1.1//EN"
 "http://www.w3.org/Graphics/SVG/1.1/DTD/svg11.dtd">
<!-- Generated by graphviz version 2.43.0 (0)
 -->
<!-- Title: flow Pages: 1 -->
<svg width="615pt" height="747pt"
 viewBox="0.00 0.00 615.00 747.00" xmlns="http://www.w3.org/2000/svg" xmlns:xlink="http://www.w3.org/1999/xlink">
<g id="graph0" class="graph" transform="scale(1 1) rotate(0) translate(4 743)">
<title>flow</title>
<polygon fill="white" stroke="transparent" points="-4,4 -4,-743 611,-743 611,4 -4,4"/>
<!-- start_plan_and_execute -->
<g id="node1" class="node">
<title>start_plan_and_execute</title>
<path fill="lightgreen" stroke="black" d="M550,-739C550,-739 321,-739 321,-739 315,-739 309,-733 309,-727 309,-727 309,-648 309,-648 309,-642 315,-636 321,-636 321,-636 550,-636 550,-636 556,-636 562,-642 562,-648 562,-648 562,-727 562,-727 562,-733 556,-739 550,-739"/>
<polygon fill="white" stroke="transparent" points="323.5,-699.5 323.5,-724.5 548.5,-724.5 548.5,-699.5 323.5,-699.5"/>
<polygon fill="none" stroke="black" points="323.5,-699.5 323.5,-724.5 548.5,-724.5 548.5,-699.5 323.5,-699.5"/>
<text text-anchor="start" x="330.5" y="-710.5" font-family="Courier,monospace" font-style="italic" font-size="10.00">p = await start_plan_and_execute(p)</text>
<polygon fill="white" stroke="transparent" points="323.5,-674.5 323.5,-699.5 548.5,-699.5 548.5,-674.5 323.5,-674.5"/>
<polygon fill="none" stroke="black" points="323.5,-674.5 323.5,-699.5 548.5,-699.5 548.5,-674.5 323.5,-674.5"/>
<text text-anchor="start" x="330.5" y="-684.5" font-family="Courier,monospace" font-size="10.00">p[&#39;current_step&#39;] = 0</text>
<polygon fill="white" stroke="transparent" points="323.5,-649.5 323.5,-674.5 548.5,-674.5 548.5,-649.5 323.5,-649.5"/>
<polygon fill="none" stroke="black" points="323.5,-649.5 323.5,-674.5 548.5,-674.5 548.5,-649.5 323.5,-649.5"/>
<text text-anchor="start" x="330.5" y="-659.5" font-family="Courier,monospace" font-size="10.00">p[&#39;step_results&#39;] = []</text>
</g>
<!-- planner -->
<g id="node7" class="node">
<title>planner</title>
<path fill="lightblue" stroke="black" d="M505,-599C505,-599 366,-599 366,-599 360,-599 354,-593 354,-587 354,-587 354,-558 354,-558 354,-552 360,-546 366,-546 366,-546 505,-546 505,-546 511,-546 517,-552 517,-558 517,-558 517,-587 517,-587 517,-593 511,-599 505,-599"/>
<polygon fill="white" stroke="transparent" points="368.5,-559.5 368.5,-584.5 503.5,-584.5 503.5,-559.5 368.5,-559.5"/>
<polygon fill="none" stroke="black" points="368.5,-559.5 368.5,-584.5 503.5,-584.5 503.5,-559.5 368.5,-559.5"/>
<text text-anchor="start" x="375.5" y="-570.5" font-family="Courier,monospace" font-style="italic" font-size="10.00">p = await planner(p)</text>
</g>
<!-- start_plan_and_execute&#45;&gt;planner -->
<g id="edge8" class="edge">
<title>start_plan_and_execute&#45;&gt;planner</title>
<path fill="none" stroke="black" d="M435.5,-635.95C435.5,-627.02 435.5,-617.9 435.5,-609.48"/>
<polygon fill="black" stroke="black" points="439,-609.26 435.5,-599.26 432,-609.26 439,-609.26"/>
</g>
<!-- router_plan_and_execute_line_58_seq -->
<g id="node2" class="node">
<title>router_plan_and_execute_line_58_seq</title>
<path fill="wheat" stroke="black" d="M589,-351C589,-351 282,-351 282,-351 276,-351 270,-345 270,-339 270,-339 270,-285 270,-285 270,-279 276,-273 282,-273 282,-273 589,-273 589,-273 595,-273 601,-279 601,-285 601,-285 601,-339 601,-339 601,-345 595,-351 589,-351"/>
<polygon fill="white" stroke="transparent" points="284.5,-312 284.5,-337 587.5,-337 587.5,-312 284.5,-312"/>
<polygon fill="none" stroke="black" points="284.5,-312 284.5,-337 587.5,-337 587.5,-312 284.5,-312"/>
<text text-anchor="start" x="291.5" y="-323" font-family="Courier,monospace" font-style="italic" font-size="10.00">p = await router_plan_and_execute_line_58_seq(p)</text>
<polygon fill="white" stroke="transparent" points="284.5,-287 284.5,-312 587.5,-312 587.5,-287 284.5,-287"/>
<polygon fill="none" stroke="black" points="284.5,-287 284.5,-312 587.5,-312 587.5,-287 284.5,-287"/>
<text text-anchor="start" x="291.5" y="-297" font-family="Courier,monospace" font-size="10.00">p[&#39;completed&#39;] = True</text>
</g>
<!-- synthesizer -->
<g id="node9" class="node">
<title>synthesizer</title>
<path fill="lightblue" stroke="black" d="M518,-194.5C518,-194.5 355,-194.5 355,-194.5 349,-194.5 343,-188.5 343,-182.5 343,-182.5 343,-153.5 343,-153.5 343,-147.5 349,-141.5 355,-141.5 355,-141.5 518,-141.5 518,-141.5 524,-141.5 530,-147.5 530,-153.5 530,-153.5 530,-182.5 530,-182.5 530,-188.5 524,-194.5 518,-194.5"/>
<polygon fill="white" stroke="transparent" points="357.5,-155 357.5,-180 516.5,-180 516.5,-155 357.5,-155"/>
<polygon fill="none" stroke="black" points="357.5,-155 357.5,-180 516.5,-180 516.5,-155 357.5,-155"/>
<text text-anchor="start" x="364.5" y="-166" font-family="Courier,monospace" font-style="italic" font-size="10.00">p = await synthesizer(p)</text>
</g>
<!-- router_plan_and_execute_line_58_seq&#45;&gt;synthesizer -->
<g id="edge7" class="edge">
<title>router_plan_and_execute_line_58_seq&#45;&gt;synthesizer</title>
<path fill="none" stroke="black" d="M435.77,-272.95C435.92,-251.72 436.1,-225.45 436.25,-204.63"/>
<polygon fill="black" stroke="black" points="439.75,-204.62 436.32,-194.59 432.75,-204.57 439.75,-204.62"/>
</g>
<!-- router_plan_and_execute_line_55_if -->
<g id="node3" class="node">
<title>router_plan_and_execute_line_55_if</title>
<path fill="wheat" stroke="black" d="M313,-236C313,-236 12,-236 12,-236 6,-236 0,-230 0,-224 0,-224 0,-112 0,-112 0,-106 6,-100 12,-100 12,-100 313,-100 313,-100 319,-100 325,-106 325,-112 325,-112 325,-224 325,-224 325,-230 319,-236 313,-236"/>
<polygon fill="white" stroke="transparent" points="14.5,-197 14.5,-222 311.5,-222 311.5,-197 14.5,-197"/>
<polygon fill="none" stroke="black" points="14.5,-197 14.5,-222 311.5,-222 311.5,-197 14.5,-197"/>
<text text-anchor="start" x="21.5" y="-208" font-family="Courier,monospace" font-style="italic" font-size="10.00">p = await router_plan_and_execute_line_55_if(p)</text>
<polygon fill="white" stroke="transparent" points="14.5,-172 14.5,-197 311.5,-197 311.5,-172 14.5,-172"/>
<polygon fill="none" stroke="black" points="14.5,-172 14.5,-197 311.5,-197 311.5,-172 14.5,-172"/>
<text text-anchor="start" x="21.5" y="-182" font-family="Courier,monospace" font-size="10.00">p[&#39;current_step&#39;] += 1</text>
<polygon fill="lightyellow" stroke="transparent" points="14.5,-147 14.5,-172 311.5,-172 311.5,-147 14.5,-147"/>
<polygon fill="none" stroke="black" points="14.5,-147 14.5,-172 311.5,-172 311.5,-147 14.5,-147"/>
<text text-anchor="start" x="27" y="-158" font-family="Courier,monospace" font-weight="bold" font-size="10.00">if</text>
<text text-anchor="start" x="40" y="-158" font-family="Courier,monospace" font-size="10.00"> p[&#39;current_step&#39;] &lt; len(p.get(&#39;plan&#39;, []))</text>
<polygon fill="none" stroke="black" points="14.5,-114 14.5,-147 311.5,-147 311.5,-114 14.5,-114"/>
<polygon fill="#698b69" stroke="transparent" points="21.5,-121 21.5,-140 163.5,-140 163.5,-121 21.5,-121"/>
<text text-anchor="start" x="80" y="-129" font-family="Courier,monospace" font-weight="bold" font-size="10.00" fill="white">TRUE</text>
<polygon fill="#8b3a3a" stroke="transparent" points="163.5,-121 163.5,-140 304.5,-140 304.5,-121 163.5,-121"/>
<text text-anchor="start" x="221.5" y="-129" font-family="Courier,monospace" font-weight="bold" font-size="10.00" fill="white">pass</text>
</g>
<!-- router_plan_and_execute_line_50_while_0 -->
<g id="node4" class="node">
<title>router_plan_and_execute_line_50_while_0</title>
<path fill="wheat" stroke="black" d="M595,-509C595,-509 276,-509 276,-509 270,-509 264,-503 264,-497 264,-497 264,-410 264,-410 264,-404 270,-398 276,-398 276,-398 595,-398 595,-398 601,-398 607,-404 607,-410 607,-410 607,-497 607,-497 607,-503 601,-509 595,-509"/>
<polygon fill="white" stroke="transparent" points="278.5,-469.5 278.5,-494.5 593.5,-494.5 593.5,-469.5 278.5,-469.5"/>
<polygon fill="none" stroke="black" points="278.5,-469.5 278.5,-494.5 593.5,-494.5 593.5,-469.5 278.5,-469.5"/>
<text text-anchor="start" x="285.5" y="-480.5" font-family="Courier,monospace" font-style="italic" font-size="10.00">p = await router_plan_and_execute_line_50_whil…(p)</text>
<polygon fill="lightyellow" stroke="transparent" points="278.5,-444.5 278.5,-469.5 593.5,-469.5 593.5,-444.5 278.5,-444.5"/>
<polygon fill="none" stroke="black" points="278.5,-444.5 278.5,-469.5 593.5,-469.5 593.5,-444.5 278.5,-444.5"/>
<text text-anchor="start" x="300" y="-455.5" font-family="Courier,monospace" font-weight="bold" font-size="10.00">if</text>
<text text-anchor="start" x="313" y="-455.5" font-family="Courier,monospace" font-size="10.00"> p[&#39;current_step&#39;] &lt; len(p.get(&#39;plan&#39;, []))</text>
<polygon fill="none" stroke="black" points="278.5,-411.5 278.5,-444.5 593.5,-444.5 593.5,-411.5 278.5,-411.5"/>
<polygon fill="#698b69" stroke="transparent" points="285.5,-418.5 285.5,-437.5 433.5,-437.5 433.5,-418.5 285.5,-418.5"/>
<text text-anchor="start" x="347" y="-426.5" font-family="Courier,monospace" font-weight="bold" font-size="10.00" fill="white">TRUE</text>
<polygon fill="#8b3a3a" stroke="transparent" points="433.5,-418.5 433.5,-437.5 586.5,-437.5 586.5,-418.5 433.5,-418.5"/>
<text text-anchor="start" x="494.5" y="-426.5" font-family="Courier,monospace" font-weight="bold" font-size="10.00" fill="white">FALSE</text>
</g>
<!-- router_plan_and_execute_line_55_if&#45;&gt;router_plan_and_execute_line_50_while_0 -->
<g id="edge6" class="edge">
<title>router_plan_and_execute_line_55_if&#45;&gt;router_plan_and_execute_line_50_while_0</title>
<path fill="none" stroke="#8b3a3a" d="M90.25,-236.11C60.49,-271.89 38.58,-315.7 65.5,-351 89.76,-382.81 172.71,-407.11 253.94,-423.95"/>
<polygon fill="#8b3a3a" stroke="#8b3a3a" points="253.33,-427.4 263.83,-425.97 254.73,-420.54 253.33,-427.4"/>
<text text-anchor="middle" x="69" y="-309.5" font-family="Courier,monospace" font-size="10.00">F</text>
</g>
<!-- re_planner -->
<g id="node8" class="node">
<title>re_planner</title>
<path fill="lightblue" stroke="black" d="M241,-53C241,-53 84,-53 84,-53 78,-53 72,-47 72,-41 72,-41 72,-12 72,-12 72,-6 78,0 84,0 84,0 241,0 241,0 247,0 253,-6 253,-12 253,-12 253,-41 253,-41 253,-47 247,-53 241,-53"/>
<polygon fill="white" stroke="transparent" points="86.5,-13.5 86.5,-38.5 239.5,-38.5 239.5,-13.5 86.5,-13.5"/>
<polygon fill="none" stroke="black" points="86.5,-13.5 86.5,-38.5 239.5,-38.5 239.5,-13.5 86.5,-13.5"/>
<text text-anchor="start" x="93.5" y="-24.5" font-family="Courier,monospace" font-style="italic" font-size="10.00">p = await re_planner(p)</text>
</g>
<!-- router_plan_and_execute_line_55_if&#45;&gt;re_planner -->
<g id="edge5" class="edge">
<title>router_plan_and_execute_line_55_if&#45;&gt;re_planner</title>
<path fill="none" stroke="#698b69" d="M162.5,-99.7C162.5,-87.14 162.5,-74.46 162.5,-63.32"/>
<polygon fill="#698b69" stroke="#698b69" points="166,-63.15 162.5,-53.15 159,-63.16 166,-63.15"/>
<text text-anchor="middle" x="166" y="-74" font-family="Courier,monospace" font-size="10.00">T</text>
</g>
<!-- router_plan_and_execute_line_50_while_0&#45;&gt;router_plan_and_execute_line_58_seq -->
<g id="edge4" class="edge">
<title>router_plan_and_execute_line_50_while_0&#45;&gt;router_plan_and_execute_line_58_seq</title>
<path fill="none" stroke="#8b3a3a" d="M435.5,-397.77C435.5,-385.72 435.5,-373.05 435.5,-361.28"/>
<polygon fill="#8b3a3a" stroke="#8b3a3a" points="439,-361.21 435.5,-351.21 432,-361.21 439,-361.21"/>
<text text-anchor="middle" x="439" y="-372" font-family="Courier,monospace" font-size="10.00">F</text>
</g>
<!-- executor -->
<g id="node6" class="node">
<title>executor</title>
<path fill="lightblue" stroke="black" d="M239,-338.5C239,-338.5 94,-338.5 94,-338.5 88,-338.5 82,-332.5 82,-326.5 82,-326.5 82,-297.5 82,-297.5 82,-291.5 88,-285.5 94,-285.5 94,-285.5 239,-285.5 239,-285.5 245,-285.5 251,-291.5 251,-297.5 251,-297.5 251,-326.5 251,-326.5 251,-332.5 245,-338.5 239,-338.5"/>
<polygon fill="white" stroke="transparent" points="96.5,-299 96.5,-324 237.5,-324 237.5,-299 96.5,-299"/>
<polygon fill="none" stroke="black" points="96.5,-299 96.5,-324 237.5,-324 237.5,-299 96.5,-299"/>
<text text-anchor="start" x="103.5" y="-310" font-family="Courier,monospace" font-style="italic" font-size="10.00">p = await executor(p)</text>
</g>
<!-- router_plan_and_execute_line_50_while_0&#45;&gt;executor -->
<g id="edge3" class="edge">
<title>router_plan_and_execute_line_50_while_0&#45;&gt;executor</title>
<path fill="none" stroke="#698b69" d="M330.34,-397.97C294.4,-379.33 255.52,-359.16 224.65,-343.16"/>
<polygon fill="#698b69" stroke="#698b69" points="226.25,-340.04 215.76,-338.54 223.02,-346.26 226.25,-340.04"/>
<text text-anchor="middle" x="297" y="-372" font-family="Courier,monospace" font-size="10.00">T</text>
</g>
<!-- end_plan_and_execute -->
<g id="node5" class="node">
<title>end_plan_and_execute</title>
<path fill="lightgreen" stroke="black" d="M545,-53C545,-53 328,-53 328,-53 322,-53 316,-47 316,-41 316,-41 316,-12 316,-12 316,-6 322,0 328,0 328,0 545,0 545,0 551,0 557,-6 557,-12 557,-12 557,-41 557,-41 557,-47 551,-53 545,-53"/>
<polygon fill="white" stroke="transparent" points="330.5,-13.5 330.5,-38.5 543.5,-38.5 543.5,-13.5 330.5,-13.5"/>
<polygon fill="none" stroke="black" points="330.5,-13.5 330.5,-38.5 543.5,-38.5 543.5,-13.5 330.5,-13.5"/>
<text text-anchor="start" x="337.5" y="-24.5" font-family="Courier,monospace" font-style="italic" font-size="10.00">p = await end_plan_and_execute(p)</text>
</g>
<!-- executor&#45;&gt;router_plan_and_execute_line_55_if -->
<g id="edge1" class="edge">
<title>executor&#45;&gt;router_plan_and_execute_line_55_if</title>
<path fill="none" stroke="black" d="M165.78,-285.28C165.46,-274.16 165.08,-260.49 164.68,-246.47"/>
<polygon fill="black" stroke="black" points="168.17,-246.14 164.39,-236.24 161.18,-246.34 168.17,-246.14"/>
</g>
<!-- planner&#45;&gt;router_plan_and_execute_line_50_while_0 -->
<g id="edge2" class="edge">
<title>planner&#45;&gt;router_plan_and_execute_line_50_while_0</title>
<path fill="none" stroke="black" d="M435.5,-545.82C435.5,-537.92 435.5,-528.83 435.5,-519.53"/>
<polygon fill="black" stroke="black" points="439,-519.38 435.5,-509.38 432,-519.38 439,-519.38"/>
</g>
<!-- synthesizer&#45;&gt;end_plan_and_execute -->
<g id="edge9" class="edge">
<title>synthesizer&#45;&gt;end_plan_and_execute</title>
<path fill="none" stroke="black" d="M436.5,-141.41C436.5,-119.62 436.5,-88.07 436.5,-63.69"/>
<polygon fill="black" stroke="black" points="440,-63.4 436.5,-53.4 433,-63.4 440,-63.4"/>
</g>
</g>
</svg>
