<?xml version="1.0" encoding="UTF-8" standalone="no"?>
<!DOCTYPE svg PUBLIC "-//W3C//DTD SVG 1.1//EN"
 "http://www.w3.org/Graphics/SVG/1.1/DTD/svg11.dtd">
<!-- Generated by graphviz version 2.43.0 (0)
 -->
<!-- Title: flow Pages: 1 -->
<svg width="566pt" height="438pt"
 viewBox="0.00 0.00 566.00 438.00" xmlns="http://www.w3.org/2000/svg" xmlns:xlink="http://www.w3.org/1999/xlink">
<g id="graph0" class="graph" transform="scale(1 1) rotate(0) translate(4 434)">
<title>flow</title>
<polygon fill="white" stroke="transparent" points="-4,4 -4,-434 562,-434 562,4 -4,4"/>
<g id="clust1" class="cluster">
<title>cluster_try_0</title>
<polygon fill="none" stroke="#8b8989" stroke-dasharray="5,2" points="18.5,-82 18.5,-350 252.5,-350 252.5,-82 18.5,-82"/>
<text text-anchor="middle" x="135.5" y="-338" font-family="Courier,monospace" font-size="10.00">try</text>
</g>
<!-- start_guardrails_sandwich -->
<g id="node1" class="node">
<title>start_guardrails_sandwich</title>
<path fill="lightgreen" stroke="black" d="M259,-430C259,-430 12,-430 12,-430 6,-430 0,-424 0,-418 0,-418 0,-389 0,-389 0,-383 6,-377 12,-377 12,-377 259,-377 259,-377 265,-377 271,-383 271,-389 271,-389 271,-418 271,-418 271,-424 265,-430 259,-430"/>
<polygon fill="white" stroke="transparent" points="14.5,-390.5 14.5,-415.5 257.5,-415.5 257.5,-390.5 14.5,-390.5"/>
<polygon fill="none" stroke="black" points="14.5,-390.5 14.5,-415.5 257.5,-415.5 257.5,-390.5 14.5,-390.5"/>
<text text-anchor="start" x="21.5" y="-401.5" font-family="Courier,monospace" font-style="italic" font-size="10.00">p = await start_guardrails_sandwich(p)</text>
</g>
<!-- input_validator -->
<g id="node5" class="node">
<title>input_validator</title>
<path fill="lightblue" stroke="black" d="M229,-323C229,-323 42,-323 42,-323 36,-323 30,-317 30,-311 30,-311 30,-282 30,-282 30,-276 36,-270 42,-270 42,-270 229,-270 229,-270 235,-270 241,-276 241,-282 241,-282 241,-311 241,-311 241,-317 235,-323 229,-323"/>
<polygon fill="white" stroke="transparent" points="44.5,-283.5 44.5,-308.5 227.5,-308.5 227.5,-283.5 44.5,-283.5"/>
<polygon fill="none" stroke="black" points="44.5,-283.5 44.5,-308.5 227.5,-308.5 227.5,-283.5 44.5,-283.5"/>
<text text-anchor="start" x="51.5" y="-294.5" font-family="Courier,monospace" font-style="italic" font-size="10.00">p = await input_validator(p)</text>
</g>
<!-- start_guardrails_sandwich&#45;&gt;input_validator -->
<g id="edge6" class="edge">
<title>start_guardrails_sandwich&#45;&gt;input_validator</title>
<path fill="none" stroke="black" d="M135.5,-376.81C135.5,-363.72 135.5,-347.59 135.5,-333.3"/>
<polygon fill="black" stroke="black" points="139,-333.28 135.5,-323.28 132,-333.28 139,-333.28"/>
</g>
<!-- end_guardrails_sandwich -->
<g id="node2" class="node">
<title>end_guardrails_sandwich</title>
<path fill="lightgreen" stroke="black" d="M414,-53C414,-53 179,-53 179,-53 173,-53 167,-47 167,-41 167,-41 167,-12 167,-12 167,-6 173,0 179,0 179,0 414,0 414,0 420,0 426,-6 426,-12 426,-12 426,-41 426,-41 426,-47 420,-53 414,-53"/>
<polygon fill="white" stroke="transparent" points="181.5,-13.5 181.5,-38.5 412.5,-38.5 412.5,-13.5 181.5,-13.5"/>
<polygon fill="none" stroke="black" points="181.5,-13.5 181.5,-38.5 412.5,-38.5 412.5,-13.5 181.5,-13.5"/>
<text text-anchor="start" x="188.5" y="-24.5" font-family="Courier,monospace" font-style="italic" font-size="10.00">p = await end_guardrails_sandwich(p)</text>
</g>
<!-- safe_fallback -->
<g id="node3" class="node">
<title>safe_fallback</title>
<path fill="lightblue" stroke="black" d="M546,-143C546,-143 371,-143 371,-143 365,-143 359,-137 359,-131 359,-131 359,-102 359,-102 359,-96 365,-90 371,-90 371,-90 546,-90 546,-90 552,-90 558,-96 558,-102 558,-102 558,-131 558,-131 558,-137 552,-143 546,-143"/>
<polygon fill="white" stroke="transparent" points="373.5,-103.5 373.5,-128.5 544.5,-128.5 544.5,-103.5 373.5,-103.5"/>
<polygon fill="none" stroke="black" points="373.5,-103.5 373.5,-128.5 544.5,-128.5 544.5,-103.5 373.5,-103.5"/>
<text text-anchor="start" x="380.5" y="-114.5" font-family="Courier,monospace" font-style="italic" font-size="10.00">p = await safe_fallback(p)</text>
</g>
<!-- safe_fallback&#45;&gt;end_guardrails_sandwich -->
<g id="edge5" class="edge">
<title>safe_fallback&#45;&gt;end_guardrails_sandwich</title>
<path fill="none" stroke="black" d="M411.21,-89.81C392.83,-79.82 371.62,-68.31 352.49,-57.91"/>
<polygon fill="black" stroke="black" points="354.03,-54.77 343.57,-53.07 350.69,-60.92 354.03,-54.77"/>
</g>
<!-- core_agent -->
<g id="node4" class="node">
<title>core_agent</title>
<path fill="lightblue" stroke="black" d="M214,-233C214,-233 57,-233 57,-233 51,-233 45,-227 45,-221 45,-221 45,-192 45,-192 45,-186 51,-180 57,-180 57,-180 214,-180 214,-180 220,-180 226,-186 226,-192 226,-192 226,-221 226,-221 226,-227 220,-233 214,-233"/>
<polygon fill="white" stroke="transparent" points="59.5,-193.5 59.5,-218.5 212.5,-218.5 212.5,-193.5 59.5,-193.5"/>
<polygon fill="none" stroke="black" points="59.5,-193.5 59.5,-218.5 212.5,-218.5 212.5,-193.5 59.5,-193.5"/>
<text text-anchor="start" x="66.5" y="-204.5" font-family="Courier,monospace" font-style="italic" font-size="10.00">p = await core_agent(p)</text>
</g>
<!-- output_validator -->
<g id="node6" class="node">
<title>output_validator</title>
<path fill="lightblue" stroke="black" d="M232,-143C232,-143 39,-143 39,-143 33,-143 27,-137 27,-131 27,-131 27,-102 27,-102 27,-96 33,-90 39,-90 39,-90 232,-90 232,-90 238,-90 244,-96 244,-102 244,-102 244,-131 244,-131 244,-137 238,-143 232,-143"/>
<polygon fill="white" stroke="transparent" points="41.5,-103.5 41.5,-128.5 230.5,-128.5 230.5,-103.5 41.5,-103.5"/>
<polygon fill="none" stroke="black" points="41.5,-103.5 41.5,-128.5 230.5,-128.5 230.5,-103.5 41.5,-103.5"/>
<text text-anchor="start" x="48.5" y="-114.5" font-family="Courier,monospace" font-style="italic" font-size="10.00">p = await output_validator(p)</text>
</g>
<!-- core_agent&#45;&gt;output_validator -->
<g id="edge1" class="edge">
<title>core_agent&#45;&gt;output_validator</title>
<path fill="none" stroke="black" d="M135.5,-179.57C135.5,-171.34 135.5,-162.08 135.5,-153.28"/>
<polygon fill="black" stroke="black" points="139,-153.24 135.5,-143.24 132,-153.24 139,-153.24"/>
</g>
<!-- input_validator&#45;&gt;core_agent -->
<g id="edge2" class="edge">
<title>input_validator&#45;&gt;core_agent</title>
<path fill="none" stroke="black" d="M135.5,-269.57C135.5,-261.34 135.5,-252.08 135.5,-243.28"/>
<polygon fill="black" stroke="black" points="139,-243.24 135.5,-233.24 132,-243.24 139,-243.24"/>
</g>
<!-- output_validator&#45;&gt;end_guardrails_sandwich -->
<g id="edge3" class="edge">
<title>output_validator&#45;&gt;end_guardrails_sandwich</title>
<path fill="none" stroke="black" d="M182.5,-89.81C200.77,-79.82 221.84,-68.31 240.86,-57.91"/>
<polygon fill="black" stroke="black" points="242.62,-60.94 249.72,-53.07 239.27,-54.79 242.62,-60.94"/>
</g>
<!-- output_validator&#45;&gt;safe_fallback -->
<g id="edge4" class="edge">
<title>output_validator&#45;&gt;safe_fallback</title>
<path fill="none" stroke="#8b8989" stroke-dasharray="5,2" d="M252.5,-116.5C283.81,-116.5 317.54,-116.5 348.45,-116.5"/>
<polygon fill="#8b8989" stroke="#8b8989" points="348.77,-120 358.77,-116.5 348.77,-113 348.77,-120"/>
<text text-anchor="middle" x="301.5" y="-122.5" font-family="Courier,monospace" font-size="10.00">except Exception</text>
</g>
</g>
</svg>
