<?xml version="1.0" encoding="UTF-8" standalone="no"?>
<!DOCTYPE svg PUBLIC "-//W3C//DTD SVG 1.1//EN"
 "http://www.w3.org/Graphics/SVG/1.1/DTD/svg11.dtd">
<!-- Generated by graphviz version 2.43.0 (0)
 -->
<!-- Title: flow Pages: 1 -->
<svg width="1064pt" height="371pt"
 viewBox="0.00 0.00 1063.50 370.50" xmlns="http://www.w3.org/2000/svg" xmlns:xlink="http://www.w3.org/1999/xlink">
<g id="graph0" class="graph" transform="scale(1 1) rotate(0) translate(4 366.5)">
<title>flow</title>
<polygon fill="white" stroke="transparent" points="-4,4 -4,-366.5 1059.5,-366.5 1059.5,4 -4,4"/>
<g id="clust1" class="cluster">
<title>cluster_try_0</title>
<polygon fill="none" stroke="#8b8989" stroke-dasharray="5,2" points="8,-82 8,-282.5 192,-282.5 192,-82 8,-82"/>
<text text-anchor="middle" x="100" y="-270.5" font-family="Courier,monospace" font-size="10.00">try</text>
</g>
<!-- start_data_pipeline -->
<g id="node1" class="node">
<title>start_data_pipeline</title>
<path fill="lightgreen" stroke="black" d="M187.5,-362.5C187.5,-362.5 12.5,-362.5 12.5,-362.5 6.5,-362.5 0.5,-356.5 0.5,-350.5 0.5,-350.5 0.5,-321.5 0.5,-321.5 0.5,-315.5 6.5,-309.5 12.5,-309.5 12.5,-309.5 187.5,-309.5 187.5,-309.5 193.5,-309.5 199.5,-315.5 199.5,-321.5 199.5,-321.5 199.5,-350.5 199.5,-350.5 199.5,-356.5 193.5,-362.5 187.5,-362.5"/>
<polygon fill="white" stroke="transparent" points="15,-323 15,-348 186,-348 186,-323 15,-323"/>
<polygon fill="none" stroke="black" points="15,-323 15,-348 186,-348 186,-323 15,-323"/>
<text text-anchor="start" x="22" y="-334" font-family="Courier,monospace" font-style="italic" font-size="10.00">p = start_data_pipeline(p)</text>
</g>
<!-- parse_input -->
<g id="node9" class="node">
<title>parse_input</title>
<path fill="lightblue" stroke="black" d="M163.5,-255.5C163.5,-255.5 36.5,-255.5 36.5,-255.5 30.5,-255.5 24.5,-249.5 24.5,-243.5 24.5,-243.5 24.5,-214.5 24.5,-214.5 24.5,-208.5 30.5,-202.5 36.5,-202.5 36.5,-202.5 163.5,-202.5 163.5,-202.5 169.5,-202.5 175.5,-208.5 175.5,-214.5 175.5,-214.5 175.5,-243.5 175.5,-243.5 175.5,-249.5 169.5,-255.5 163.5,-255.5"/>
<polygon fill="white" stroke="transparent" points="39,-216 39,-241 162,-241 162,-216 39,-216"/>
<polygon fill="none" stroke="black" points="39,-216 39,-241 162,-241 162,-216 39,-216"/>
<text text-anchor="start" x="46" y="-227" font-family="Courier,monospace" font-style="italic" font-size="10.00">p = parse_input(p)</text>
</g>
<!-- start_data_pipeline&#45;&gt;parse_input -->
<g id="edge8" class="edge">
<title>start_data_pipeline&#45;&gt;parse_input</title>
<path fill="none" stroke="black" d="M100,-309.31C100,-296.22 100,-280.09 100,-265.8"/>
<polygon fill="black" stroke="black" points="103.5,-265.78 100,-255.78 96.5,-265.78 103.5,-265.78"/>
</g>
<!-- router_data_pipeline_line_6_seq -->
<g id="node2" class="node">
<title>router_data_pipeline_line_6_seq</title>
<path fill="wheat" stroke="black" d="M1043.5,-268C1043.5,-268 796.5,-268 796.5,-268 790.5,-268 784.5,-262 784.5,-256 784.5,-256 784.5,-202 784.5,-202 784.5,-196 790.5,-190 796.5,-190 796.5,-190 1043.5,-190 1043.5,-190 1049.5,-190 1055.5,-196 1055.5,-202 1055.5,-202 1055.5,-256 1055.5,-256 1055.5,-262 1049.5,-268 1043.5,-268"/>
<polygon fill="white" stroke="transparent" points="799,-229 799,-254 1042,-254 1042,-229 799,-229"/>
<polygon fill="none" stroke="black" points="799,-229 799,-254 1042,-254 1042,-229 799,-229"/>
<text text-anchor="start" x="806" y="-240" font-family="Courier,monospace" font-style="italic" font-size="10.00">p = router_data_pipeline_line_6_seq(p)</text>
<polygon fill="white" stroke="transparent" points="799,-204 799,-229 1042,-229 1042,-204 799,-204"/>
<polygon fill="none" stroke="black" points="799,-204 799,-229 1042,-229 1042,-204 799,-204"/>
<text text-anchor="start" x="806" y="-214" font-family="Courier,monospace" font-size="10.00">p[&#39;error_type&#39;] = &#39;validation&#39;</text>
</g>
<!-- handle_validation_error -->
<g id="node8" class="node">
<title>handle_validation_error</title>
<path fill="lightblue" stroke="black" d="M945.5,-143C945.5,-143 746.5,-143 746.5,-143 740.5,-143 734.5,-137 734.5,-131 734.5,-131 734.5,-102 734.5,-102 734.5,-96 740.5,-90 746.5,-90 746.5,-90 945.5,-90 945.5,-90 951.5,-90 957.5,-96 957.5,-102 957.5,-102 957.5,-131 957.5,-131 957.5,-137 951.5,-143 945.5,-143"/>
<polygon fill="white" stroke="transparent" points="749,-103.5 749,-128.5 944,-128.5 944,-103.5 749,-103.5"/>
<polygon fill="none" stroke="black" points="749,-103.5 749,-128.5 944,-128.5 944,-103.5 749,-103.5"/>
<text text-anchor="start" x="756" y="-114.5" font-family="Courier,monospace" font-style="italic" font-size="10.00">p = handle_validation_error(p)</text>
</g>
<!-- router_data_pipeline_line_6_seq&#45;&gt;handle_validation_error -->
<g id="edge6" class="edge">
<title>router_data_pipeline_line_6_seq&#45;&gt;handle_validation_error</title>
<path fill="none" stroke="black" d="M894.53,-189.97C886.19,-177.51 876.98,-163.76 868.84,-151.61"/>
<polygon fill="black" stroke="black" points="871.61,-149.45 863.13,-143.09 865.79,-153.34 871.61,-149.45"/>
</g>
<!-- router_data_pipeline_line_9_seq -->
<g id="node3" class="node">
<title>router_data_pipeline_line_9_seq</title>
<path fill="wheat" stroke="black" d="M754.5,-268C754.5,-268 507.5,-268 507.5,-268 501.5,-268 495.5,-262 495.5,-256 495.5,-256 495.5,-202 495.5,-202 495.5,-196 501.5,-190 507.5,-190 507.5,-190 754.5,-190 754.5,-190 760.5,-190 766.5,-196 766.5,-202 766.5,-202 766.5,-256 766.5,-256 766.5,-262 760.5,-268 754.5,-268"/>
<polygon fill="white" stroke="transparent" points="510,-229 510,-254 753,-254 753,-229 510,-229"/>
<polygon fill="none" stroke="black" points="510,-229 510,-254 753,-254 753,-229 510,-229"/>
<text text-anchor="start" x="517" y="-240" font-family="Courier,monospace" font-style="italic" font-size="10.00">p = router_data_pipeline_line_9_seq(p)</text>
<polygon fill="white" stroke="transparent" points="510,-204 510,-229 753,-229 753,-204 510,-204"/>
<polygon fill="none" stroke="black" points="510,-204 510,-229 753,-229 753,-204 510,-204"/>
<text text-anchor="start" x="517" y="-214" font-family="Courier,monospace" font-size="10.00">p[&#39;error_type&#39;] = &#39;type_mismatch&#39;</text>
</g>
<!-- handle_type_error -->
<g id="node7" class="node">
<title>handle_type_error</title>
<path fill="lightblue" stroke="black" d="M654.5,-143C654.5,-143 491.5,-143 491.5,-143 485.5,-143 479.5,-137 479.5,-131 479.5,-131 479.5,-102 479.5,-102 479.5,-96 485.5,-90 491.5,-90 491.5,-90 654.5,-90 654.5,-90 660.5,-90 666.5,-96 666.5,-102 666.5,-102 666.5,-131 666.5,-131 666.5,-137 660.5,-143 654.5,-143"/>
<polygon fill="white" stroke="transparent" points="494,-103.5 494,-128.5 653,-128.5 653,-103.5 494,-103.5"/>
<polygon fill="none" stroke="black" points="494,-103.5 494,-128.5 653,-128.5 653,-103.5 494,-103.5"/>
<text text-anchor="start" x="501" y="-114.5" font-family="Courier,monospace" font-style="italic" font-size="10.00">p = handle_type_error(p)</text>
</g>
<!-- router_data_pipeline_line_9_seq&#45;&gt;handle_type_error -->
<g id="edge7" class="edge">
<title>router_data_pipeline_line_9_seq&#45;&gt;handle_type_error</title>
<path fill="none" stroke="black" d="M611.04,-189.97C604.56,-177.63 597.42,-164.02 591.09,-151.96"/>
<polygon fill="black" stroke="black" points="594.18,-150.31 586.43,-143.09 587.98,-153.57 594.18,-150.31"/>
</g>
<!-- router_data_pipeline_line_12_seq -->
<g id="node4" class="node">
<title>router_data_pipeline_line_12_seq</title>
<path fill="wheat" stroke="black" d="M465.5,-268C465.5,-268 212.5,-268 212.5,-268 206.5,-268 200.5,-262 200.5,-256 200.5,-256 200.5,-202 200.5,-202 200.5,-196 206.5,-190 212.5,-190 212.5,-190 465.5,-190 465.5,-190 471.5,-190 477.5,-196 477.5,-202 477.5,-202 477.5,-256 477.5,-256 477.5,-262 471.5,-268 465.5,-268"/>
<polygon fill="white" stroke="transparent" points="215,-229 215,-254 464,-254 464,-229 215,-229"/>
<polygon fill="none" stroke="black" points="215,-229 215,-254 464,-254 464,-229 215,-229"/>
<text text-anchor="start" x="222" y="-240" font-family="Courier,monospace" font-style="italic" font-size="10.00">p = router_data_pipeline_line_12_seq(p)</text>
<polygon fill="white" stroke="transparent" points="215,-204 215,-229 464,-229 464,-204 215,-204"/>
<polygon fill="none" stroke="black" points="215,-204 215,-229 464,-229 464,-204 215,-204"/>
<text text-anchor="start" x="222" y="-214" font-family="Courier,monospace" font-size="10.00">p[&#39;error_type&#39;] = &#39;runtime&#39;</text>
</g>
<!-- handle_runtime_error -->
<g id="node6" class="node">
<title>handle_runtime_error</title>
<path fill="lightblue" stroke="black" d="M438.5,-143C438.5,-143 257.5,-143 257.5,-143 251.5,-143 245.5,-137 245.5,-131 245.5,-131 245.5,-102 245.5,-102 245.5,-96 251.5,-90 257.5,-90 257.5,-90 438.5,-90 438.5,-90 444.5,-90 450.5,-96 450.5,-102 450.5,-102 450.5,-131 450.5,-131 450.5,-137 444.5,-143 438.5,-143"/>
<polygon fill="white" stroke="transparent" points="260,-103.5 260,-128.5 437,-128.5 437,-103.5 260,-103.5"/>
<polygon fill="none" stroke="black" points="260,-103.5 260,-128.5 437,-128.5 437,-103.5 260,-103.5"/>
<text text-anchor="start" x="267" y="-114.5" font-family="Courier,monospace" font-style="italic" font-size="10.00">p = handle_runtime_error(p)</text>
</g>
<!-- router_data_pipeline_line_12_seq&#45;&gt;handle_runtime_error -->
<g id="edge5" class="edge">
<title>router_data_pipeline_line_12_seq&#45;&gt;handle_runtime_error</title>
<path fill="none" stroke="black" d="M342.1,-189.97C343.06,-178.12 344.12,-165.09 345.08,-153.39"/>
<polygon fill="black" stroke="black" points="348.59,-153.34 345.92,-143.09 341.62,-152.77 348.59,-153.34"/>
</g>
<!-- end_data_pipeline -->
<g id="node5" class="node">
<title>end_data_pipeline</title>
<path fill="lightgreen" stroke="black" d="M541.5,-53C541.5,-53 378.5,-53 378.5,-53 372.5,-53 366.5,-47 366.5,-41 366.5,-41 366.5,-12 366.5,-12 366.5,-6 372.5,0 378.5,0 378.5,0 541.5,0 541.5,0 547.5,0 553.5,-6 553.5,-12 553.5,-12 553.5,-41 553.5,-41 553.5,-47 547.5,-53 541.5,-53"/>
<polygon fill="white" stroke="transparent" points="381,-13.5 381,-38.5 540,-38.5 540,-13.5 381,-13.5"/>
<polygon fill="none" stroke="black" points="381,-13.5 381,-38.5 540,-38.5 540,-13.5 381,-13.5"/>
<text text-anchor="start" x="388" y="-24.5" font-family="Courier,monospace" font-style="italic" font-size="10.00">p = end_data_pipeline(p)</text>
</g>
<!-- handle_runtime_error&#45;&gt;end_data_pipeline -->
<g id="edge1" class="edge">
<title>handle_runtime_error&#45;&gt;end_data_pipeline</title>
<path fill="none" stroke="black" d="M380.7,-89.81C392.77,-80.32 406.61,-69.45 419.31,-59.47"/>
<polygon fill="black" stroke="black" points="421.76,-62 427.46,-53.07 417.43,-56.5 421.76,-62"/>
</g>
<!-- handle_type_error&#45;&gt;end_data_pipeline -->
<g id="edge2" class="edge">
<title>handle_type_error&#45;&gt;end_data_pipeline</title>
<path fill="none" stroke="black" d="M540.01,-89.81C527.83,-80.32 513.87,-69.45 501.06,-59.47"/>
<polygon fill="black" stroke="black" points="502.87,-56.45 492.83,-53.07 498.57,-61.98 502.87,-56.45"/>
</g>
<!-- handle_validation_error&#45;&gt;end_data_pipeline -->
<g id="edge3" class="edge">
<title>handle_validation_error&#45;&gt;end_data_pipeline</title>
<path fill="none" stroke="black" d="M734.35,-90.05C680.59,-77.79 616.53,-63.19 563.83,-51.17"/>
<polygon fill="black" stroke="black" points="564.32,-47.69 553.79,-48.88 562.76,-54.52 564.32,-47.69"/>
</g>
<!-- transform_data -->
<g id="node10" class="node">
<title>transform_data</title>
<path fill="lightblue" stroke="black" d="M172.5,-143C172.5,-143 27.5,-143 27.5,-143 21.5,-143 15.5,-137 15.5,-131 15.5,-131 15.5,-102 15.5,-102 15.5,-96 21.5,-90 27.5,-90 27.5,-90 172.5,-90 172.5,-90 178.5,-90 184.5,-96 184.5,-102 184.5,-102 184.5,-131 184.5,-131 184.5,-137 178.5,-143 172.5,-143"/>
<polygon fill="white" stroke="transparent" points="30,-103.5 30,-128.5 171,-128.5 171,-103.5 30,-103.5"/>
<polygon fill="none" stroke="black" points="30,-103.5 30,-128.5 171,-128.5 171,-103.5 30,-103.5"/>
<text text-anchor="start" x="37" y="-114.5" font-family="Courier,monospace" font-style="italic" font-size="10.00">p = transform_data(p)</text>
</g>
<!-- parse_input&#45;&gt;transform_data -->
<g id="edge4" class="edge">
<title>parse_input&#45;&gt;transform_data</title>
<path fill="none" stroke="black" d="M100,-202.37C100,-187.83 100,-169.41 100,-153.44"/>
<polygon fill="black" stroke="black" points="103.5,-153.37 100,-143.37 96.5,-153.37 103.5,-153.37"/>
</g>
<!-- transform_data&#45;&gt;router_data_pipeline_line_6_seq -->
<g id="edge11" class="edge">
<title>transform_data&#45;&gt;router_data_pipeline_line_6_seq</title>
<path fill="none" stroke="#8b8989" stroke-dasharray="5,2" d="M192,-136.09C206.99,-138.7 222.4,-141.13 237,-143 348.37,-157.3 377.13,-151.35 489,-161 613.49,-171.73 648.11,-167.37 774.4,-189.79"/>
<polygon fill="#8b8989" stroke="#8b8989" points="774,-193.27 784.46,-191.6 775.24,-186.39 774,-193.27"/>
<text text-anchor="middle" x="693.5" y="-164" font-family="Courier,monospace" font-size="10.00">except ValueError</text>
</g>
<!-- transform_data&#45;&gt;router_data_pipeline_line_9_seq -->
<g id="edge12" class="edge">
<title>transform_data&#45;&gt;router_data_pipeline_line_9_seq</title>
<path fill="none" stroke="#8b8989" stroke-dasharray="5,2" d="M192,-134.65C292.28,-153.36 443.46,-181.6 485.38,-189.87"/>
<polygon fill="#8b8989" stroke="#8b8989" points="484.9,-193.35 495.4,-191.92 486.3,-186.49 484.9,-193.35"/>
<text text-anchor="middle" x="436.5" y="-164" font-family="Courier,monospace" font-size="10.00">except TypeError</text>
</g>
<!-- transform_data&#45;&gt;router_data_pipeline_line_12_seq -->
<g id="edge10" class="edge">
<title>transform_data&#45;&gt;router_data_pipeline_line_12_seq</title>
<path fill="none" stroke="#8b8989" stroke-dasharray="5,2" d="M192,-160.03C210.25,-168.47 229.4,-177.33 247.63,-185.75"/>
<polygon fill="#8b8989" stroke="#8b8989" points="246.2,-188.95 256.75,-189.97 249.14,-182.6 246.2,-188.95"/>
<text text-anchor="middle" x="269.5" y="-164" font-family="Courier,monospace" font-size="10.00">except RuntimeError</text>
</g>
<!-- transform_data&#45;&gt;end_data_pipeline -->
<g id="edge9" class="edge">
<title>transform_data&#45;&gt;end_data_pipeline</title>
<path fill="none" stroke="black" d="M184.77,-94.77C202.05,-90.54 220.11,-86.13 237,-82 276,-72.47 318.85,-61.99 356.46,-52.8"/>
<polygon fill="black" stroke="black" points="357.53,-56.14 366.42,-50.37 355.87,-49.34 357.53,-56.14"/>
</g>
</g>
</svg>
