<?xml version="1.0" encoding="UTF-8" standalone="no"?>
<!DOCTYPE svg PUBLIC "-//W3C//DTD SVG 1.1//EN"
 "http://www.w3.org/Graphics/SVG/1.1/DTD/svg11.dtd">
<!-- Generated by graphviz version 2.43.0 (0)
 -->
<!-- Title: flow Pages: 1 -->
<svg width="547pt" height="629pt"
 viewBox="0.00 0.00 547.49 629.00" xmlns="http://www.w3.org/2000/svg" xmlns:xlink="http://www.w3.org/1999/xlink">
<g id="graph0" class="graph" transform="scale(1 1) rotate(0) translate(4 625)">
<title>flow</title>
<polygon fill="white" stroke="transparent" points="-4,4 -4,-625 543.49,-625 543.49,4 -4,4"/>
<!-- start_while_simple_flow -->
<g id="node1" class="node">
<title>start_while_simple_flow</title>
<path fill="lightgreen" stroke="black" d="M262,-621C262,-621 63,-621 63,-621 57,-621 51,-615 51,-609 51,-609 51,-580 51,-580 51,-574 57,-568 63,-568 63,-568 262,-568 262,-568 268,-568 274,-574 274,-580 274,-580 274,-609 274,-609 274,-615 268,-621 262,-621"/>
<polygon fill="white" stroke="transparent" points="65.5,-581.5 65.5,-606.5 260.5,-606.5 260.5,-581.5 65.5,-581.5"/>
<polygon fill="none" stroke="black" points="65.5,-581.5 65.5,-606.5 260.5,-606.5 260.5,-581.5 65.5,-581.5"/>
<text text-anchor="start" x="72.5" y="-592.5" font-family="Courier,monospace" font-style="italic" font-size="10.00">p = start_while_simple_flow(p)</text>
</g>
<!-- handler_init -->
<g id="node7" class="node">
<title>handler_init</title>
<path fill="lightblue" stroke="black" d="M229,-531C229,-531 96,-531 96,-531 90,-531 84,-525 84,-519 84,-519 84,-490 84,-490 84,-484 90,-478 96,-478 96,-478 229,-478 229,-478 235,-478 241,-484 241,-490 241,-490 241,-519 241,-519 241,-525 235,-531 229,-531"/>
<polygon fill="white" stroke="transparent" points="98.5,-491.5 98.5,-516.5 227.5,-516.5 227.5,-491.5 98.5,-491.5"/>
<polygon fill="none" stroke="black" points="98.5,-491.5 98.5,-516.5 227.5,-516.5 227.5,-491.5 98.5,-491.5"/>
<text text-anchor="start" x="105.5" y="-502.5" font-family="Courier,monospace" font-style="italic" font-size="10.00">p = handler_init(p)</text>
</g>
<!-- start_while_simple_flow&#45;&gt;handler_init -->
<g id="edge8" class="edge">
<title>start_while_simple_flow&#45;&gt;handler_init</title>
<path fill="none" stroke="black" d="M162.5,-567.57C162.5,-559.34 162.5,-550.08 162.5,-541.28"/>
<polygon fill="black" stroke="black" points="166,-541.24 162.5,-531.24 159,-541.24 166,-541.24"/>
</g>
<!-- router_while_simple_flow_line_12_seq -->
<g id="node2" class="node">
<title>router_while_simple_flow_line_12_seq</title>
<path fill="wheat" stroke="black" d="M301,-168C301,-168 24,-168 24,-168 18,-168 12,-162 12,-156 12,-156 12,-102 12,-102 12,-96 18,-90 24,-90 24,-90 301,-90 301,-90 307,-90 313,-96 313,-102 313,-102 313,-156 313,-156 313,-162 307,-168 301,-168"/>
<polygon fill="white" stroke="transparent" points="26.5,-129 26.5,-154 299.5,-154 299.5,-129 26.5,-129"/>
<polygon fill="none" stroke="black" points="26.5,-129 26.5,-154 299.5,-154 299.5,-129 26.5,-129"/>
<text text-anchor="start" x="33.5" y="-140" font-family="Courier,monospace" font-style="italic" font-size="10.00">p = router_while_simple_flow_line_12_seq(p)</text>
<polygon fill="white" stroke="transparent" points="26.5,-104 26.5,-129 299.5,-129 299.5,-104 26.5,-104"/>
<polygon fill="none" stroke="black" points="26.5,-104 26.5,-129 299.5,-129 299.5,-104 26.5,-104"/>
<text text-anchor="start" x="33.5" y="-114" font-family="Courier,monospace" font-size="10.00">p[&#39;i&#39;] += 1</text>
</g>
<!-- handler_process -->
<g id="node8" class="node">
<title>handler_process</title>
<path fill="lightblue" stroke="black" d="M238,-53C238,-53 87,-53 87,-53 81,-53 75,-47 75,-41 75,-41 75,-12 75,-12 75,-6 81,0 87,0 87,0 238,0 238,0 244,0 250,-6 250,-12 250,-12 250,-41 250,-41 250,-47 244,-53 238,-53"/>
<polygon fill="white" stroke="transparent" points="89.5,-13.5 89.5,-38.5 236.5,-38.5 236.5,-13.5 89.5,-13.5"/>
<polygon fill="none" stroke="black" points="89.5,-13.5 89.5,-38.5 236.5,-38.5 236.5,-13.5 89.5,-13.5"/>
<text text-anchor="start" x="96.5" y="-24.5" font-family="Courier,monospace" font-style="italic" font-size="10.00">p = handler_process(p)</text>
</g>
<!-- router_while_simple_flow_line_12_seq&#45;&gt;handler_process -->
<g id="edge7" class="edge">
<title>router_while_simple_flow_line_12_seq&#45;&gt;handler_process</title>
<path fill="none" stroke="black" d="M162.5,-89.72C162.5,-81.04 162.5,-71.86 162.5,-63.29"/>
<polygon fill="black" stroke="black" points="166,-63.22 162.5,-53.22 159,-63.22 166,-63.22"/>
</g>
<!-- router_while_simple_flow_line_11_while_0 -->
<g id="node3" class="node">
<title>router_while_simple_flow_line_11_while_0</title>
<path fill="wheat" stroke="black" d="M313,-326C313,-326 12,-326 12,-326 6,-326 0,-320 0,-314 0,-314 0,-227 0,-227 0,-221 6,-215 12,-215 12,-215 313,-215 313,-215 319,-215 325,-221 325,-227 325,-227 325,-314 325,-314 325,-320 319,-326 313,-326"/>
<polygon fill="white" stroke="transparent" points="14.5,-286.5 14.5,-311.5 311.5,-311.5 311.5,-286.5 14.5,-286.5"/>
<polygon fill="none" stroke="black" points="14.5,-286.5 14.5,-311.5 311.5,-311.5 311.5,-286.5 14.5,-286.5"/>
<text text-anchor="start" x="21.5" y="-297.5" font-family="Courier,monospace" font-style="italic" font-size="10.00">p = router_while_simple_flow_line_11_while_0(p)</text>
<polygon fill="lightyellow" stroke="transparent" points="14.5,-261.5 14.5,-286.5 311.5,-286.5 311.5,-261.5 14.5,-261.5"/>
<polygon fill="none" stroke="black" points="14.5,-261.5 14.5,-286.5 311.5,-286.5 311.5,-261.5 14.5,-261.5"/>
<text text-anchor="start" x="69" y="-272.5" font-family="Courier,monospace" font-weight="bold" font-size="10.00">if</text>
<text text-anchor="start" x="82" y="-272.5" font-family="Courier,monospace" font-size="10.00"> p[&#39;i&#39;] &lt; p[&#39;max_iterations&#39;]</text>
<polygon fill="none" stroke="black" points="14.5,-228.5 14.5,-261.5 311.5,-261.5 311.5,-228.5 14.5,-228.5"/>
<polygon fill="#698b69" stroke="transparent" points="21.5,-235.5 21.5,-254.5 160.5,-254.5 160.5,-235.5 21.5,-235.5"/>
<text text-anchor="start" x="78.5" y="-243.5" font-family="Courier,monospace" font-weight="bold" font-size="10.00" fill="white">TRUE</text>
<polygon fill="#8b3a3a" stroke="transparent" points="160.5,-235.5 160.5,-254.5 304.5,-254.5 304.5,-235.5 160.5,-235.5"/>
<text text-anchor="start" x="217" y="-243.5" font-family="Courier,monospace" font-weight="bold" font-size="10.00" fill="white">FALSE</text>
</g>
<!-- router_while_simple_flow_line_11_while_0&#45;&gt;router_while_simple_flow_line_12_seq -->
<g id="edge6" class="edge">
<title>router_while_simple_flow_line_11_while_0&#45;&gt;router_while_simple_flow_line_12_seq</title>
<path fill="none" stroke="#698b69" d="M162.5,-214.77C162.5,-202.72 162.5,-190.05 162.5,-178.28"/>
<polygon fill="#698b69" stroke="#698b69" points="166,-178.21 162.5,-168.21 159,-178.21 166,-178.21"/>
<text text-anchor="middle" x="166" y="-189" font-family="Courier,monospace" font-size="10.00">T</text>
</g>
<!-- handler_finalize -->
<g id="node6" class="node">
<title>handler_finalize</title>
<path fill="lightblue" stroke="black" d="M500,-155.5C500,-155.5 343,-155.5 343,-155.5 337,-155.5 331,-149.5 331,-143.5 331,-143.5 331,-114.5 331,-114.5 331,-108.5 337,-102.5 343,-102.5 343,-102.5 500,-102.5 500,-102.5 506,-102.5 512,-108.5 512,-114.5 512,-114.5 512,-143.5 512,-143.5 512,-149.5 506,-155.5 500,-155.5"/>
<polygon fill="white" stroke="transparent" points="345.5,-116 345.5,-141 498.5,-141 498.5,-116 345.5,-116"/>
<polygon fill="none" stroke="black" points="345.5,-116 345.5,-141 498.5,-141 498.5,-116 345.5,-116"/>
<text text-anchor="start" x="352.5" y="-127" font-family="Courier,monospace" font-style="italic" font-size="10.00">p = handler_finalize(p)</text>
</g>
<!-- router_while_simple_flow_line_11_while_0&#45;&gt;handler_finalize -->
<g id="edge5" class="edge">
<title>router_while_simple_flow_line_11_while_0&#45;&gt;handler_finalize</title>
<path fill="none" stroke="#8b3a3a" d="M263.75,-214.97C298.21,-196.41 335.47,-176.34 365.13,-160.36"/>
<polygon fill="#8b3a3a" stroke="#8b3a3a" points="366.93,-163.37 374.07,-155.54 363.61,-157.21 366.93,-163.37"/>
<text text-anchor="middle" x="319" y="-189" font-family="Courier,monospace" font-size="10.00">F</text>
</g>
<!-- router_while_simple_flow_line_10_seq -->
<g id="node4" class="node">
<title>router_while_simple_flow_line_10_seq</title>
<path fill="wheat" stroke="black" d="M301,-441C301,-441 24,-441 24,-441 18,-441 12,-435 12,-429 12,-429 12,-375 12,-375 12,-369 18,-363 24,-363 24,-363 301,-363 301,-363 307,-363 313,-369 313,-375 313,-375 313,-429 313,-429 313,-435 307,-441 301,-441"/>
<polygon fill="white" stroke="transparent" points="26.5,-402 26.5,-427 299.5,-427 299.5,-402 26.5,-402"/>
<polygon fill="none" stroke="black" points="26.5,-402 26.5,-427 299.5,-427 299.5,-402 26.5,-402"/>
<text text-anchor="start" x="33.5" y="-413" font-family="Courier,monospace" font-style="italic" font-size="10.00">p = router_while_simple_flow_line_10_seq(p)</text>
<polygon fill="white" stroke="transparent" points="26.5,-377 26.5,-402 299.5,-402 299.5,-377 26.5,-377"/>
<polygon fill="none" stroke="black" points="26.5,-377 26.5,-402 299.5,-402 299.5,-377 26.5,-377"/>
<text text-anchor="start" x="33.5" y="-387" font-family="Courier,monospace" font-size="10.00">p[&#39;i&#39;] = 0</text>
</g>
<!-- router_while_simple_flow_line_10_seq&#45;&gt;router_while_simple_flow_line_11_while_0 -->
<g id="edge4" class="edge">
<title>router_while_simple_flow_line_10_seq&#45;&gt;router_while_simple_flow_line_11_while_0</title>
<path fill="none" stroke="black" d="M162.5,-362.85C162.5,-354.5 162.5,-345.44 162.5,-336.37"/>
<polygon fill="black" stroke="black" points="166,-336.17 162.5,-326.17 159,-336.17 166,-336.17"/>
</g>
<!-- end_while_simple_flow -->
<g id="node5" class="node">
<title>end_while_simple_flow</title>
<path fill="lightgreen" stroke="black" d="M515,-53C515,-53 328,-53 328,-53 322,-53 316,-47 316,-41 316,-41 316,-12 316,-12 316,-6 322,0 328,0 328,0 515,0 515,0 521,0 527,-6 527,-12 527,-12 527,-41 527,-41 527,-47 521,-53 515,-53"/>
<polygon fill="white" stroke="transparent" points="330.5,-13.5 330.5,-38.5 513.5,-38.5 513.5,-13.5 330.5,-13.5"/>
<polygon fill="none" stroke="black" points="330.5,-13.5 330.5,-38.5 513.5,-38.5 513.5,-13.5 330.5,-13.5"/>
<text text-anchor="start" x="337.5" y="-24.5" font-family="Courier,monospace" font-style="italic" font-size="10.00">p = end_while_simple_flow(p)</text>
</g>
<!-- handler_finalize&#45;&gt;end_while_simple_flow -->
<g id="edge1" class="edge">
<title>handler_finalize&#45;&gt;end_while_simple_flow</title>
<path fill="none" stroke="black" d="M421.5,-102.38C421.5,-90.45 421.5,-76.06 421.5,-63.09"/>
<polygon fill="black" stroke="black" points="425,-63.07 421.5,-53.07 418,-63.07 425,-63.07"/>
</g>
<!-- handler_init&#45;&gt;router_while_simple_flow_line_10_seq -->
<g id="edge2" class="edge">
<title>handler_init&#45;&gt;router_while_simple_flow_line_10_seq</title>
<path fill="none" stroke="black" d="M162.5,-477.88C162.5,-469.77 162.5,-460.52 162.5,-451.35"/>
<polygon fill="black" stroke="black" points="166,-451.1 162.5,-441.1 159,-451.1 166,-451.1"/>
</g>
<!-- handler_process&#45;&gt;router_while_simple_flow_line_11_while_0 -->
<g id="edge3" class="edge">
<title>handler_process&#45;&gt;router_while_simple_flow_line_11_while_0</title>
<path fill="none" stroke="black" d="M250.06,-43.08C268.69,-46.37 288.24,-49.81 306.5,-53 354.26,-61.34 490.26,-52.93 521.5,-90 588.06,-168.99 457.17,-216.69 335.17,-242.85"/>
<polygon fill="black" stroke="black" points="334.35,-239.44 325.28,-244.93 335.79,-246.29 334.35,-239.44"/>
</g>
</g>
</svg>
