<?xml version="1.0" encoding="UTF-8" standalone="no"?>
<!DOCTYPE svg PUBLIC "-//W3C//DTD SVG 1.1//EN"
 "http://www.w3.org/Graphics/SVG/1.1/DTD/svg11.dtd">
<!-- Generated by graphviz version 2.43.0 (0)
 -->
<!-- Title: flow Pages: 1 -->
<svg width="819pt" height="862pt"
 viewBox="0.00 0.00 818.99 862.00" xmlns="http://www.w3.org/2000/svg" xmlns:xlink="http://www.w3.org/1999/xlink">
<g id="graph0" class="graph" transform="scale(1 1) rotate(0) translate(4 858)">
<title>flow</title>
<polygon fill="white" stroke="transparent" points="-4,4 -4,-858 814.99,-858 814.99,4 -4,4"/>
<!-- start_research_and_refine -->
<g id="node1" class="node">
<title>start_research_and_refine</title>
<path fill="lightgreen" stroke="black" d="M277,-297C277,-297 12,-297 12,-297 6,-297 0,-291 0,-285 0,-285 0,-206 0,-206 0,-200 6,-194 12,-194 12,-194 277,-194 277,-194 283,-194 289,-200 289,-206 289,-206 289,-285 289,-285 289,-291 283,-297 277,-297"/>
<polygon fill="white" stroke="transparent" points="14.5,-257.5 14.5,-282.5 275.5,-282.5 275.5,-257.5 14.5,-257.5"/>
<polygon fill="none" stroke="black" points="14.5,-257.5 14.5,-282.5 275.5,-282.5 275.5,-257.5 14.5,-257.5"/>
<text text-anchor="start" x="30.5" y="-268.5" font-family="Courier,monospace" font-style="italic" font-size="10.00">p = await start_research_and_refine(p)</text>
<polygon fill="white" stroke="transparent" points="14.5,-232.5 14.5,-257.5 275.5,-257.5 275.5,-232.5 14.5,-232.5"/>
<polygon fill="none" stroke="black" points="14.5,-232.5 14.5,-257.5 275.5,-257.5 275.5,-232.5 14.5,-232.5"/>
<text text-anchor="start" x="21.5" y="-242.5" font-family="Courier,monospace" font-size="10.00">p[&#39;iteration&#39;] = 0</text>
<polygon fill="white" stroke="transparent" points="14.5,-207.5 14.5,-232.5 275.5,-232.5 275.5,-207.5 14.5,-207.5"/>
<polygon fill="none" stroke="black" points="14.5,-207.5 14.5,-232.5 275.5,-232.5 275.5,-207.5 14.5,-207.5"/>
<text text-anchor="start" x="21.5" y="-217.5" font-family="Courier,monospace" font-size="10.00">p[&#39;search_query&#39;] = p.get(&#39;question&#39;, &#39;&#39;)</text>
</g>
<!-- router_research_and_refine_line_46_loop_back_0 -->
<g id="node5" class="node">
<title>router_research_and_refine_line_46_loop_back_0</title>
<path fill="wheat" stroke="black" d="M366,-143C366,-143 47,-143 47,-143 41,-143 35,-137 35,-131 35,-131 35,-102 35,-102 35,-96 41,-90 47,-90 47,-90 366,-90 366,-90 372,-90 378,-96 378,-102 378,-102 378,-131 378,-131 378,-137 372,-143 366,-143"/>
<polygon fill="white" stroke="transparent" points="49.5,-103.5 49.5,-128.5 364.5,-128.5 364.5,-103.5 49.5,-103.5"/>
<polygon fill="none" stroke="black" points="49.5,-103.5 49.5,-128.5 364.5,-128.5 364.5,-103.5 49.5,-103.5"/>
<text text-anchor="start" x="56.5" y="-114.5" font-family="Courier,monospace" font-style="italic" font-size="10.00">p = await router_research_and_refine_line_46_l…(p)</text>
</g>
<!-- start_research_and_refine&#45;&gt;router_research_and_refine_line_46_loop_back_0 -->
<g id="edge10" class="edge">
<title>start_research_and_refine&#45;&gt;router_research_and_refine_line_46_loop_back_0</title>
<path fill="none" stroke="black" d="M169.18,-193.94C176.03,-179.91 183.31,-165.01 189.6,-152.12"/>
<polygon fill="black" stroke="black" points="192.75,-153.65 193.99,-143.13 186.45,-150.58 192.75,-153.65"/>
</g>
<!-- router_research_and_refine_line_55_if -->
<g id="node2" class="node">
<title>router_research_and_refine_line_55_if</title>
<path fill="wheat" stroke="black" d="M638,-301C638,-301 319,-301 319,-301 313,-301 307,-295 307,-289 307,-289 307,-202 307,-202 307,-196 313,-190 319,-190 319,-190 638,-190 638,-190 644,-190 650,-196 650,-202 650,-202 650,-289 650,-289 650,-295 644,-301 638,-301"/>
<polygon fill="white" stroke="transparent" points="321.5,-261.5 321.5,-286.5 636.5,-286.5 636.5,-261.5 321.5,-261.5"/>
<polygon fill="none" stroke="black" points="321.5,-261.5 321.5,-286.5 636.5,-286.5 636.5,-261.5 321.5,-261.5"/>
<text text-anchor="start" x="328.5" y="-272.5" font-family="Courier,monospace" font-style="italic" font-size="10.00">p = await router_research_and_refine_line_55_if(p)</text>
<polygon fill="lightyellow" stroke="transparent" points="321.5,-236.5 321.5,-261.5 636.5,-261.5 636.5,-236.5 321.5,-236.5"/>
<polygon fill="none" stroke="black" points="321.5,-236.5 321.5,-261.5 636.5,-261.5 636.5,-236.5 321.5,-236.5"/>
<text text-anchor="start" x="412" y="-247.5" font-family="Courier,monospace" font-weight="bold" font-size="10.00">if</text>
<text text-anchor="start" x="425" y="-247.5" font-family="Courier,monospace" font-size="10.00"> p[&#39;iteration&#39;] &gt;= 5</text>
<polygon fill="none" stroke="black" points="321.5,-203.5 321.5,-236.5 636.5,-236.5 636.5,-203.5 321.5,-203.5"/>
<polygon fill="#698b69" stroke="transparent" points="328.5,-210.5 328.5,-229.5 479.5,-229.5 479.5,-210.5 328.5,-210.5"/>
<text text-anchor="start" x="391.5" y="-218.5" font-family="Courier,monospace" font-weight="bold" font-size="10.00" fill="white">TRUE</text>
<polygon fill="#8b3a3a" stroke="transparent" points="479.5,-210.5 479.5,-229.5 629.5,-229.5 629.5,-210.5 479.5,-210.5"/>
<text text-anchor="start" x="542" y="-218.5" font-family="Courier,monospace" font-weight="bold" font-size="10.00" fill="white">pass</text>
</g>
<!-- router_research_and_refine_line_55_if&#45;&gt;router_research_and_refine_line_46_loop_back_0 -->
<g id="edge8" class="edge">
<title>router_research_and_refine_line_55_if&#45;&gt;router_research_and_refine_line_46_loop_back_0</title>
<path fill="none" stroke="#8b3a3a" d="M361.57,-189.9C330.4,-175.35 297.87,-160.16 270.69,-147.47"/>
<polygon fill="#8b3a3a" stroke="#8b3a3a" points="271.86,-144.15 261.32,-143.1 268.9,-150.5 271.86,-144.15"/>
<text text-anchor="middle" x="321" y="-164" font-family="Courier,monospace" font-size="10.00">F</text>
</g>
<!-- write_report -->
<g id="node10" class="node">
<title>write_report</title>
<path fill="lightblue" stroke="black" d="M700,-143C700,-143 531,-143 531,-143 525,-143 519,-137 519,-131 519,-131 519,-102 519,-102 519,-96 525,-90 531,-90 531,-90 700,-90 700,-90 706,-90 712,-96 712,-102 712,-102 712,-131 712,-131 712,-137 706,-143 700,-143"/>
<polygon fill="white" stroke="transparent" points="533.5,-103.5 533.5,-128.5 698.5,-128.5 698.5,-103.5 533.5,-103.5"/>
<polygon fill="none" stroke="black" points="533.5,-103.5 533.5,-128.5 698.5,-128.5 698.5,-103.5 533.5,-103.5"/>
<text text-anchor="start" x="540.5" y="-114.5" font-family="Courier,monospace" font-style="italic" font-size="10.00">p = await write_report(p)</text>
</g>
<!-- router_research_and_refine_line_55_if&#45;&gt;write_report -->
<g id="edge9" class="edge">
<title>router_research_and_refine_line_55_if&#45;&gt;write_report</title>
<path fill="none" stroke="#698b69" d="M537.4,-189.9C552.07,-176.3 567.34,-162.15 580.44,-150"/>
<polygon fill="#698b69" stroke="#698b69" points="582.94,-152.46 587.89,-143.1 578.18,-147.33 582.94,-152.46"/>
<text text-anchor="middle" x="570" y="-164" font-family="Courier,monospace" font-size="10.00">T</text>
</g>
<!-- router_research_and_refine_line_51_if -->
<g id="node3" class="node">
<title>router_research_and_refine_line_51_if</title>
<path fill="wheat" stroke="black" d="M775.5,-559C775.5,-559 437.5,-559 437.5,-559 431.5,-559 425.5,-553 425.5,-547 425.5,-547 425.5,-460 425.5,-460 425.5,-454 431.5,-448 437.5,-448 437.5,-448 775.5,-448 775.5,-448 781.5,-448 787.5,-454 787.5,-460 787.5,-460 787.5,-547 787.5,-547 787.5,-553 781.5,-559 775.5,-559"/>
<polygon fill="white" stroke="transparent" points="439.5,-519.5 439.5,-544.5 773.5,-544.5 773.5,-519.5 439.5,-519.5"/>
<polygon fill="none" stroke="black" points="439.5,-519.5 439.5,-544.5 773.5,-544.5 773.5,-519.5 439.5,-519.5"/>
<text text-anchor="start" x="456" y="-530.5" font-family="Courier,monospace" font-style="italic" font-size="10.00">p = await router_research_and_refine_line_51_if(p)</text>
<polygon fill="lightyellow" stroke="transparent" points="439.5,-494.5 439.5,-519.5 773.5,-519.5 773.5,-494.5 439.5,-494.5"/>
<polygon fill="none" stroke="black" points="439.5,-494.5 439.5,-519.5 773.5,-519.5 773.5,-494.5 439.5,-494.5"/>
<text text-anchor="start" x="446.5" y="-505.5" font-family="Courier,monospace" font-weight="bold" font-size="10.00">if</text>
<text text-anchor="start" x="459.5" y="-505.5" font-family="Courier,monospace" font-size="10.00"> not p.get(&#39;gaps&#39;) or p.get(&#39;quality_s…e&#39;, 0) &gt;= 85</text>
<polygon fill="none" stroke="black" points="439.5,-461.5 439.5,-494.5 773.5,-494.5 773.5,-461.5 439.5,-461.5"/>
<polygon fill="#698b69" stroke="transparent" points="446.5,-468.5 446.5,-487.5 603.5,-487.5 603.5,-468.5 446.5,-468.5"/>
<text text-anchor="start" x="512.5" y="-476.5" font-family="Courier,monospace" font-weight="bold" font-size="10.00" fill="white">TRUE</text>
<polygon fill="#8b3a3a" stroke="transparent" points="603.5,-468.5 603.5,-487.5 766.5,-487.5 766.5,-468.5 603.5,-468.5"/>
<text text-anchor="start" x="669.5" y="-476.5" font-family="Courier,monospace" font-weight="bold" font-size="10.00" fill="white">FALSE</text>
</g>
<!-- refine_query -->
<g id="node8" class="node">
<title>refine_query</title>
<path fill="lightblue" stroke="black" d="M619,-401C619,-401 450,-401 450,-401 444,-401 438,-395 438,-389 438,-389 438,-360 438,-360 438,-354 444,-348 450,-348 450,-348 619,-348 619,-348 625,-348 631,-354 631,-360 631,-360 631,-389 631,-389 631,-395 625,-401 619,-401"/>
<polygon fill="white" stroke="transparent" points="452.5,-361.5 452.5,-386.5 617.5,-386.5 617.5,-361.5 452.5,-361.5"/>
<polygon fill="none" stroke="black" points="452.5,-361.5 452.5,-386.5 617.5,-386.5 617.5,-361.5 452.5,-361.5"/>
<text text-anchor="start" x="459.5" y="-372.5" font-family="Courier,monospace" font-style="italic" font-size="10.00">p = await refine_query(p)</text>
</g>
<!-- router_research_and_refine_line_51_if&#45;&gt;refine_query -->
<g id="edge6" class="edge">
<title>router_research_and_refine_line_51_if&#45;&gt;refine_query</title>
<path fill="none" stroke="#8b3a3a" d="M575.55,-447.9C568.27,-435.07 560.71,-421.73 554.09,-410.06"/>
<polygon fill="#8b3a3a" stroke="#8b3a3a" points="556.99,-408.07 549.01,-401.1 550.9,-411.52 556.99,-408.07"/>
<text text-anchor="middle" x="567" y="-422" font-family="Courier,monospace" font-size="10.00">F</text>
</g>
<!-- router_research_and_refine_line_51_if&#45;&gt;write_report -->
<g id="edge7" class="edge">
<title>router_research_and_refine_line_51_if&#45;&gt;write_report</title>
<path fill="none" stroke="#698b69" d="M630.13,-447.82C654.07,-384.84 684.29,-278.63 659.5,-190 655.74,-176.55 648.73,-163.12 641.39,-151.54"/>
<polygon fill="#698b69" stroke="#698b69" points="644.21,-149.46 635.76,-143.07 638.38,-153.34 644.21,-149.46"/>
<text text-anchor="middle" x="667" y="-322" font-family="Courier,monospace" font-size="10.00">T</text>
</g>
<!-- router_research_and_refine_line_47_seq -->
<g id="node4" class="node">
<title>router_research_and_refine_line_47_seq</title>
<path fill="wheat" stroke="black" d="M766,-854C766,-854 447,-854 447,-854 441,-854 435,-848 435,-842 435,-842 435,-788 435,-788 435,-782 441,-776 447,-776 447,-776 766,-776 766,-776 772,-776 778,-782 778,-788 778,-788 778,-842 778,-842 778,-848 772,-854 766,-854"/>
<polygon fill="white" stroke="transparent" points="449.5,-815 449.5,-840 764.5,-840 764.5,-815 449.5,-815"/>
<polygon fill="none" stroke="black" points="449.5,-815 449.5,-840 764.5,-840 764.5,-815 449.5,-815"/>
<text text-anchor="start" x="456.5" y="-826" font-family="Courier,monospace" font-style="italic" font-size="10.00">p = await router_research_and_refine_line_47_s…(p)</text>
<polygon fill="white" stroke="transparent" points="449.5,-790 449.5,-815 764.5,-815 764.5,-790 449.5,-790"/>
<polygon fill="none" stroke="black" points="449.5,-790 449.5,-815 764.5,-815 764.5,-790 449.5,-790"/>
<text text-anchor="start" x="456.5" y="-800" font-family="Courier,monospace" font-size="10.00">p[&#39;iteration&#39;] += 1</text>
</g>
<!-- researcher -->
<g id="node9" class="node">
<title>researcher</title>
<path fill="lightblue" stroke="black" d="M685,-739C685,-739 528,-739 528,-739 522,-739 516,-733 516,-727 516,-727 516,-698 516,-698 516,-692 522,-686 528,-686 528,-686 685,-686 685,-686 691,-686 697,-692 697,-698 697,-698 697,-727 697,-727 697,-733 691,-739 685,-739"/>
<polygon fill="white" stroke="transparent" points="530.5,-699.5 530.5,-724.5 683.5,-724.5 683.5,-699.5 530.5,-699.5"/>
<polygon fill="none" stroke="black" points="530.5,-699.5 530.5,-724.5 683.5,-724.5 683.5,-699.5 530.5,-699.5"/>
<text text-anchor="start" x="537.5" y="-710.5" font-family="Courier,monospace" font-style="italic" font-size="10.00">p = await researcher(p)</text>
</g>
<!-- router_research_and_refine_line_47_seq&#45;&gt;researcher -->
<g id="edge5" class="edge">
<title>router_research_and_refine_line_47_seq&#45;&gt;researcher</title>
<path fill="none" stroke="black" d="M606.5,-775.72C606.5,-767.04 606.5,-757.86 606.5,-749.29"/>
<polygon fill="black" stroke="black" points="610,-749.22 606.5,-739.22 603,-749.22 610,-749.22"/>
</g>
<!-- router_research_and_refine_line_46_loop_back_0&#45;&gt;router_research_and_refine_line_47_seq -->
<g id="edge4" class="edge">
<title>router_research_and_refine_line_46_loop_back_0&#45;&gt;router_research_and_refine_line_47_seq</title>
<path fill="none" stroke="black" d="M378.26,-129.58C441.44,-136.13 513.23,-146.06 577.5,-161 615.15,-169.75 630.22,-164.76 659.5,-190 792.02,-304.2 836.69,-388.74 796.5,-559 775.95,-646.05 763.81,-670.33 706.5,-739 697.29,-750.03 686.16,-760.38 674.71,-769.65"/>
<polygon fill="black" stroke="black" points="672.46,-766.97 666.75,-775.89 676.78,-772.47 672.46,-766.97"/>
</g>
<!-- end_research_and_refine -->
<g id="node6" class="node">
<title>end_research_and_refine</title>
<path fill="lightgreen" stroke="black" d="M733,-53C733,-53 498,-53 498,-53 492,-53 486,-47 486,-41 486,-41 486,-12 486,-12 486,-6 492,0 498,0 498,0 733,0 733,0 739,0 745,-6 745,-12 745,-12 745,-41 745,-41 745,-47 739,-53 733,-53"/>
<polygon fill="white" stroke="transparent" points="500.5,-13.5 500.5,-38.5 731.5,-38.5 731.5,-13.5 500.5,-13.5"/>
<polygon fill="none" stroke="black" points="500.5,-13.5 500.5,-38.5 731.5,-38.5 731.5,-13.5 500.5,-13.5"/>
<text text-anchor="start" x="507.5" y="-24.5" font-family="Courier,monospace" font-style="italic" font-size="10.00">p = await end_research_and_refine(p)</text>
</g>
<!-- critic -->
<g id="node7" class="node">
<title>critic</title>
<path fill="lightblue" stroke="black" d="M673,-649C673,-649 540,-649 540,-649 534,-649 528,-643 528,-637 528,-637 528,-608 528,-608 528,-602 534,-596 540,-596 540,-596 673,-596 673,-596 679,-596 685,-602 685,-608 685,-608 685,-637 685,-637 685,-643 679,-649 673,-649"/>
<polygon fill="white" stroke="transparent" points="542.5,-609.5 542.5,-634.5 671.5,-634.5 671.5,-609.5 542.5,-609.5"/>
<polygon fill="none" stroke="black" points="542.5,-609.5 542.5,-634.5 671.5,-634.5 671.5,-609.5 542.5,-609.5"/>
<text text-anchor="start" x="549.5" y="-620.5" font-family="Courier,monospace" font-style="italic" font-size="10.00">p = await critic(p)</text>
</g>
<!-- critic&#45;&gt;router_research_and_refine_line_51_if -->
<g id="edge1" class="edge">
<title>critic&#45;&gt;router_research_and_refine_line_51_if</title>
<path fill="none" stroke="black" d="M606.5,-595.82C606.5,-587.92 606.5,-578.83 606.5,-569.53"/>
<polygon fill="black" stroke="black" points="610,-569.38 606.5,-559.38 603,-569.38 610,-569.38"/>
</g>
<!-- refine_query&#45;&gt;router_research_and_refine_line_55_if -->
<g id="edge2" class="edge">
<title>refine_query&#45;&gt;router_research_and_refine_line_55_if</title>
<path fill="none" stroke="black" d="M523.17,-347.8C518.34,-336.85 512.47,-323.53 506.59,-310.21"/>
<polygon fill="black" stroke="black" points="509.77,-308.75 502.54,-301.01 503.37,-311.57 509.77,-308.75"/>
</g>
<!-- researcher&#45;&gt;critic -->
<g id="edge3" class="edge">
<title>researcher&#45;&gt;critic</title>
<path fill="none" stroke="black" d="M606.5,-685.57C606.5,-677.34 606.5,-668.08 606.5,-659.28"/>
<polygon fill="black" stroke="black" points="610,-659.24 606.5,-649.24 603,-659.24 610,-659.24"/>
</g>
<!-- write_report&#45;&gt;end_research_and_refine -->
<g id="edge11" class="edge">
<title>write_report&#45;&gt;end_research_and_refine</title>
<path fill="none" stroke="black" d="M615.5,-89.57C615.5,-81.34 615.5,-72.08 615.5,-63.28"/>
<polygon fill="black" stroke="black" points="619,-63.24 615.5,-53.24 612,-63.24 619,-63.24"/>
</g>
</g>
</svg>
