<?xml version="1.0" encoding="UTF-8" standalone="no"?>
<!DOCTYPE svg PUBLIC "-//W3C//DTD SVG 1.1//EN"
 "http://www.w3.org/Graphics/SVG/1.1/DTD/svg11.dtd">
<!-- Generated by graphviz version 2.43.0 (0)
 -->
<!-- Title: flow Pages: 1 -->
<svg width="351pt" height="442pt"
 viewBox="0.00 0.00 351.00 442.00" xmlns="http://www.w3.org/2000/svg" xmlns:xlink="http://www.w3.org/1999/xlink">
<g id="graph0" class="graph" transform="scale(1 1) rotate(0) translate(4 438)">
<title>flow</title>
<polygon fill="white" stroke="transparent" points="-4,4 -4,-438 347,-438 347,4 -4,4"/>
<!-- start_parallel_sectioning -->
<g id="node1" class="node">
<title>start_parallel_sectioning</title>
<path fill="lightgreen" stroke="black" d="M295,-434C295,-434 48,-434 48,-434 42,-434 36,-428 36,-422 36,-422 36,-393 36,-393 36,-387 42,-381 48,-381 48,-381 295,-381 295,-381 301,-381 307,-387 307,-393 307,-393 307,-422 307,-422 307,-428 301,-434 295,-434"/>
<polygon fill="white" stroke="transparent" points="50.5,-394.5 50.5,-419.5 293.5,-419.5 293.5,-394.5 50.5,-394.5"/>
<polygon fill="none" stroke="black" points="50.5,-394.5 50.5,-419.5 293.5,-419.5 293.5,-394.5 50.5,-394.5"/>
<text text-anchor="start" x="57.5" y="-405.5" font-family="Courier,monospace" font-style="italic" font-size="10.00">p = await start_parallel_sectioning(p)</text>
</g>
<!-- preprocessor -->
<g id="node5" class="node">
<title>preprocessor</title>
<path fill="lightblue" stroke="black" d="M256,-345C256,-345 87,-345 87,-345 81,-345 75,-339 75,-333 75,-333 75,-304 75,-304 75,-298 81,-292 87,-292 87,-292 256,-292 256,-292 262,-292 268,-298 268,-304 268,-304 268,-333 268,-333 268,-339 262,-345 256,-345"/>
<polygon fill="white" stroke="transparent" points="89.5,-305.5 89.5,-330.5 254.5,-330.5 254.5,-305.5 89.5,-305.5"/>
<polygon fill="none" stroke="black" points="89.5,-305.5 89.5,-330.5 254.5,-330.5 254.5,-305.5 89.5,-305.5"/>
<text text-anchor="start" x="96.5" y="-316.5" font-family="Courier,monospace" font-style="italic" font-size="10.00">p = await preprocessor(p)</text>
</g>
<!-- start_parallel_sectioning&#45;&gt;preprocessor -->
<g id="edge4" class="edge">
<title>start_parallel_sectioning&#45;&gt;preprocessor</title>
<path fill="none" stroke="black" d="M171.5,-380.87C171.5,-372.89 171.5,-363.93 171.5,-355.38"/>
<polygon fill="black" stroke="black" points="175,-355.25 171.5,-345.25 168,-355.25 175,-355.25"/>
</g>
<!-- router_parallel_sectioning_line_44_seq -->
<g id="node2" class="node">
<title>router_parallel_sectioning_line_44_seq</title>
<path fill="wheat" stroke="black" d="M331,-256C331,-256 12,-256 12,-256 6,-256 0,-250 0,-244 0,-244 0,-190 0,-190 0,-184 6,-178 12,-178 12,-178 331,-178 331,-178 337,-178 343,-184 343,-190 343,-190 343,-244 343,-244 343,-250 337,-256 331,-256"/>
<polygon fill="white" stroke="transparent" points="14.5,-217 14.5,-242 329.5,-242 329.5,-217 14.5,-217"/>
<polygon fill="none" stroke="black" points="14.5,-217 14.5,-242 329.5,-242 329.5,-217 14.5,-217"/>
<text text-anchor="start" x="21.5" y="-228" font-family="Courier,monospace" font-style="italic" font-size="10.00">p = await router_parallel_sectioning_line_44_s…(p)</text>
<polygon fill="white" stroke="transparent" points="14.5,-192 14.5,-217 329.5,-217 329.5,-192 14.5,-192"/>
<polygon fill="none" stroke="black" points="14.5,-192 14.5,-217 329.5,-217 329.5,-192 14.5,-192"/>
<text text-anchor="start" x="21.5" y="-202" font-family="Courier,monospace" font-size="10.00">p[&#39;analysis&#39;] = list(await asyncio.ga…p[&#39;text&#39;])))</text>
</g>
<!-- aggregator -->
<g id="node4" class="node">
<title>aggregator</title>
<path fill="lightblue" stroke="black" d="M250,-142C250,-142 93,-142 93,-142 87,-142 81,-136 81,-130 81,-130 81,-101 81,-101 81,-95 87,-89 93,-89 93,-89 250,-89 250,-89 256,-89 262,-95 262,-101 262,-101 262,-130 262,-130 262,-136 256,-142 250,-142"/>
<polygon fill="white" stroke="transparent" points="95.5,-102.5 95.5,-127.5 248.5,-127.5 248.5,-102.5 95.5,-102.5"/>
<polygon fill="none" stroke="black" points="95.5,-102.5 95.5,-127.5 248.5,-127.5 248.5,-102.5 95.5,-102.5"/>
<text text-anchor="start" x="102.5" y="-113.5" font-family="Courier,monospace" font-style="italic" font-size="10.00">p = await aggregator(p)</text>
</g>
<!-- router_parallel_sectioning_line_44_seq&#45;&gt;aggregator -->
<g id="edge3" class="edge">
<title>router_parallel_sectioning_line_44_seq&#45;&gt;aggregator</title>
<path fill="none" stroke="black" d="M171.5,-177.82C171.5,-169.41 171.5,-160.55 171.5,-152.25"/>
<polygon fill="black" stroke="black" points="175,-152.12 171.5,-142.12 168,-152.12 175,-152.12"/>
</g>
<!-- end_parallel_sectioning -->
<g id="node3" class="node">
<title>end_parallel_sectioning</title>
<path fill="lightgreen" stroke="black" d="M289,-53C289,-53 54,-53 54,-53 48,-53 42,-47 42,-41 42,-41 42,-12 42,-12 42,-6 48,0 54,0 54,0 289,0 289,0 295,0 301,-6 301,-12 301,-12 301,-41 301,-41 301,-47 295,-53 289,-53"/>
<polygon fill="white" stroke="transparent" points="56.5,-13.5 56.5,-38.5 287.5,-38.5 287.5,-13.5 56.5,-13.5"/>
<polygon fill="none" stroke="black" points="56.5,-13.5 56.5,-38.5 287.5,-38.5 287.5,-13.5 56.5,-13.5"/>
<text text-anchor="start" x="63.5" y="-24.5" font-family="Courier,monospace" font-style="italic" font-size="10.00">p = await end_parallel_sectioning(p)</text>
</g>
<!-- aggregator&#45;&gt;end_parallel_sectioning -->
<g id="edge1" class="edge">
<title>aggregator&#45;&gt;end_parallel_sectioning</title>
<path fill="none" stroke="black" d="M171.5,-88.87C171.5,-80.89 171.5,-71.93 171.5,-63.38"/>
<polygon fill="black" stroke="black" points="175,-63.25 171.5,-53.25 168,-63.25 175,-63.25"/>
</g>
<!-- preprocessor&#45;&gt;router_parallel_sectioning_line_44_seq -->
<g id="edge2" class="edge">
<title>preprocessor&#45;&gt;router_parallel_sectioning_line_44_seq</title>
<path fill="none" stroke="black" d="M171.5,-291.88C171.5,-284.1 171.5,-275.28 171.5,-266.51"/>
<polygon fill="black" stroke="black" points="175,-266.3 171.5,-256.3 168,-266.3 175,-266.3"/>
</g>
</g>
</svg>
