<?xml version="1.0" encoding="UTF-8" standalone="no"?>
<!DOCTYPE svg PUBLIC "-//W3C//DTD SVG 1.1//EN"
 "http://www.w3.org/Graphics/SVG/1.1/DTD/svg11.dtd">
<!-- Generated by graphviz version 2.43.0 (0)
 -->
<!-- Title: flow Pages: 1 -->
<svg width="332pt" height="489pt"
 viewBox="0.00 0.00 332.00 489.00" xmlns="http://www.w3.org/2000/svg" xmlns:xlink="http://www.w3.org/1999/xlink">
<g id="graph0" class="graph" transform="scale(1 1) rotate(0) translate(4 485)">
<title>flow</title>
<polygon fill="white" stroke="transparent" points="-4,4 -4,-485 328,-485 328,4 -4,4"/>
<!-- start_if_no_else_flow -->
<g id="node1" class="node">
<title>start_if_no_else_flow</title>
<path fill="lightgreen" stroke="black" d="M235,-481C235,-481 48,-481 48,-481 42,-481 36,-475 36,-469 36,-469 36,-440 36,-440 36,-434 42,-428 48,-428 48,-428 235,-428 235,-428 241,-428 247,-434 247,-440 247,-440 247,-469 247,-469 247,-475 241,-481 235,-481"/>
<polygon fill="white" stroke="transparent" points="50.5,-441.5 50.5,-466.5 233.5,-466.5 233.5,-441.5 50.5,-441.5"/>
<polygon fill="none" stroke="black" points="50.5,-441.5 50.5,-466.5 233.5,-466.5 233.5,-441.5 50.5,-441.5"/>
<text text-anchor="start" x="57.5" y="-452.5" font-family="Courier,monospace" font-style="italic" font-size="10.00">p = start_if_no_else_flow(p)</text>
</g>
<!-- handler_setup -->
<g id="node4" class="node">
<title>handler_setup</title>
<path fill="lightblue" stroke="black" d="M211,-391C211,-391 72,-391 72,-391 66,-391 60,-385 60,-379 60,-379 60,-350 60,-350 60,-344 66,-338 72,-338 72,-338 211,-338 211,-338 217,-338 223,-344 223,-350 223,-350 223,-379 223,-379 223,-385 217,-391 211,-391"/>
<polygon fill="white" stroke="transparent" points="74.5,-351.5 74.5,-376.5 209.5,-376.5 209.5,-351.5 74.5,-351.5"/>
<polygon fill="none" stroke="black" points="74.5,-351.5 74.5,-376.5 209.5,-376.5 209.5,-351.5 74.5,-351.5"/>
<text text-anchor="start" x="81.5" y="-362.5" font-family="Courier,monospace" font-style="italic" font-size="10.00">p = handler_setup(p)</text>
</g>
<!-- start_if_no_else_flow&#45;&gt;handler_setup -->
<g id="edge5" class="edge">
<title>start_if_no_else_flow&#45;&gt;handler_setup</title>
<path fill="none" stroke="black" d="M141.5,-427.57C141.5,-419.34 141.5,-410.08 141.5,-401.28"/>
<polygon fill="black" stroke="black" points="145,-401.24 141.5,-391.24 138,-401.24 145,-401.24"/>
</g>
<!-- router_if_no_else_flow_line_10_if -->
<g id="node2" class="node">
<title>router_if_no_else_flow_line_10_if</title>
<path fill="wheat" stroke="black" d="M271,-301C271,-301 12,-301 12,-301 6,-301 0,-295 0,-289 0,-289 0,-202 0,-202 0,-196 6,-190 12,-190 12,-190 271,-190 271,-190 277,-190 283,-196 283,-202 283,-202 283,-289 283,-289 283,-295 277,-301 271,-301"/>
<polygon fill="white" stroke="transparent" points="14.5,-261.5 14.5,-286.5 269.5,-286.5 269.5,-261.5 14.5,-261.5"/>
<polygon fill="none" stroke="black" points="14.5,-261.5 14.5,-286.5 269.5,-286.5 269.5,-261.5 14.5,-261.5"/>
<text text-anchor="start" x="21.5" y="-272.5" font-family="Courier,monospace" font-style="italic" font-size="10.00">p = router_if_no_else_flow_line_10_if(p)</text>
<polygon fill="lightyellow" stroke="transparent" points="14.5,-236.5 14.5,-261.5 269.5,-261.5 269.5,-236.5 14.5,-236.5"/>
<polygon fill="none" stroke="black" points="14.5,-236.5 14.5,-261.5 269.5,-261.5 269.5,-236.5 14.5,-236.5"/>
<text text-anchor="start" x="90" y="-247.5" font-family="Courier,monospace" font-weight="bold" font-size="10.00">if</text>
<text text-anchor="start" x="103" y="-247.5" font-family="Courier,monospace" font-size="10.00"> p[&#39;condition&#39;]</text>
<polygon fill="none" stroke="black" points="14.5,-203.5 14.5,-236.5 269.5,-236.5 269.5,-203.5 14.5,-203.5"/>
<polygon fill="#698b69" stroke="transparent" points="21.5,-210.5 21.5,-229.5 139.5,-229.5 139.5,-210.5 21.5,-210.5"/>
<text text-anchor="start" x="68" y="-218.5" font-family="Courier,monospace" font-weight="bold" font-size="10.00" fill="white">TRUE</text>
<polygon fill="#8b3a3a" stroke="transparent" points="139.5,-210.5 139.5,-229.5 262.5,-229.5 262.5,-210.5 139.5,-210.5"/>
<text text-anchor="start" x="185.5" y="-218.5" font-family="Courier,monospace" font-weight="bold" font-size="10.00" fill="white">FALSE</text>
</g>
<!-- end_if_no_else_flow -->
<g id="node3" class="node">
<title>end_if_no_else_flow</title>
<path fill="lightgreen" stroke="black" d="M229,-53C229,-53 54,-53 54,-53 48,-53 42,-47 42,-41 42,-41 42,-12 42,-12 42,-6 48,0 54,0 54,0 229,0 229,0 235,0 241,-6 241,-12 241,-12 241,-41 241,-41 241,-47 235,-53 229,-53"/>
<polygon fill="white" stroke="transparent" points="56.5,-13.5 56.5,-38.5 227.5,-38.5 227.5,-13.5 56.5,-13.5"/>
<polygon fill="none" stroke="black" points="56.5,-13.5 56.5,-38.5 227.5,-38.5 227.5,-13.5 56.5,-13.5"/>
<text text-anchor="start" x="63.5" y="-24.5" font-family="Courier,monospace" font-style="italic" font-size="10.00">p = end_if_no_else_flow(p)</text>
</g>
<!-- router_if_no_else_flow_line_10_if&#45;&gt;end_if_no_else_flow -->
<g id="edge3" class="edge">
<title>router_if_no_else_flow_line_10_if&#45;&gt;end_if_no_else_flow</title>
<path fill="none" stroke="#8b3a3a" d="M141.5,-189.74C141.5,-150.03 141.5,-97.47 141.5,-63.09"/>
<polygon fill="#8b3a3a" stroke="#8b3a3a" points="145,-63.04 141.5,-53.04 138,-63.04 145,-63.04"/>
<text text-anchor="middle" x="145" y="-114" font-family="Courier,monospace" font-size="10.00">F</text>
</g>
<!-- handler_true -->
<g id="node5" class="node">
<title>handler_true</title>
<path fill="lightblue" stroke="black" d="M312,-143C312,-143 179,-143 179,-143 173,-143 167,-137 167,-131 167,-131 167,-102 167,-102 167,-96 173,-90 179,-90 179,-90 312,-90 312,-90 318,-90 324,-96 324,-102 324,-102 324,-131 324,-131 324,-137 318,-143 312,-143"/>
<polygon fill="white" stroke="transparent" points="181.5,-103.5 181.5,-128.5 310.5,-128.5 310.5,-103.5 181.5,-103.5"/>
<polygon fill="none" stroke="black" points="181.5,-103.5 181.5,-128.5 310.5,-128.5 310.5,-103.5 181.5,-103.5"/>
<text text-anchor="start" x="188.5" y="-114.5" font-family="Courier,monospace" font-style="italic" font-size="10.00">p = handler_true(p)</text>
</g>
<!-- router_if_no_else_flow_line_10_if&#45;&gt;handler_true -->
<g id="edge4" class="edge">
<title>router_if_no_else_flow_line_10_if&#45;&gt;handler_true</title>
<path fill="none" stroke="#698b69" d="M186.21,-189.9C197.03,-176.68 208.29,-162.94 218.05,-151.02"/>
<polygon fill="#698b69" stroke="#698b69" points="220.91,-153.05 224.54,-143.1 215.5,-148.61 220.91,-153.05"/>
<text text-anchor="middle" x="212" y="-164" font-family="Courier,monospace" font-size="10.00">T</text>
</g>
<!-- handler_setup&#45;&gt;router_if_no_else_flow_line_10_if -->
<g id="edge1" class="edge">
<title>handler_setup&#45;&gt;router_if_no_else_flow_line_10_if</title>
<path fill="none" stroke="black" d="M141.5,-337.82C141.5,-329.92 141.5,-320.83 141.5,-311.53"/>
<polygon fill="black" stroke="black" points="145,-311.38 141.5,-301.38 138,-311.38 145,-311.38"/>
</g>
<!-- handler_true&#45;&gt;end_if_no_else_flow -->
<g id="edge2" class="edge">
<title>handler_true&#45;&gt;end_if_no_else_flow</title>
<path fill="none" stroke="black" d="M215.14,-89.81C204.03,-80.41 191.32,-69.66 179.62,-59.76"/>
<polygon fill="black" stroke="black" points="181.61,-56.86 171.72,-53.07 177.09,-62.2 181.61,-56.86"/>
</g>
</g>
</svg>
