<?xml version="1.0" encoding="UTF-8" standalone="no"?>
<!DOCTYPE svg PUBLIC "-//W3C//DTD SVG 1.1//EN"
 "http://www.w3.org/Graphics/SVG/1.1/DTD/svg11.dtd">
<!-- Generated by graphviz version 2.43.0 (0)
 -->
<!-- Title: flow Pages: 1 -->
<svg width="356pt" height="697pt"
 viewBox="0.00 0.00 356.00 697.00" xmlns="http://www.w3.org/2000/svg" xmlns:xlink="http://www.w3.org/1999/xlink">
<g id="graph0" class="graph" transform="scale(1 1) rotate(0) translate(4 693)">
<title>flow</title>
<polygon fill="white" stroke="transparent" points="-4,4 -4,-693 352,-693 352,4 -4,4"/>
<!-- start_research_flow -->
<g id="node1" class="node">
<title>start_research_flow</title>
<path fill="lightgreen" stroke="black" d="M215,-689C215,-689 40,-689 40,-689 34,-689 28,-683 28,-677 28,-677 28,-648 28,-648 28,-642 34,-636 40,-636 40,-636 215,-636 215,-636 221,-636 227,-642 227,-648 227,-648 227,-677 227,-677 227,-683 221,-689 215,-689"/>
<polygon fill="white" stroke="transparent" points="42.5,-649.5 42.5,-674.5 213.5,-674.5 213.5,-649.5 42.5,-649.5"/>
<polygon fill="none" stroke="black" points="42.5,-649.5 42.5,-674.5 213.5,-674.5 213.5,-649.5 42.5,-649.5"/>
<text text-anchor="start" x="49.5" y="-660.5" font-family="Courier,monospace" font-style="italic" font-size="10.00">p = start_research_flow(p)</text>
</g>
<!-- preprocessor -->
<g id="node6" class="node">
<title>preprocessor</title>
<path fill="lightblue" stroke="black" d="M194,-599C194,-599 61,-599 61,-599 55,-599 49,-593 49,-587 49,-587 49,-558 49,-558 49,-552 55,-546 61,-546 61,-546 194,-546 194,-546 200,-546 206,-552 206,-558 206,-558 206,-587 206,-587 206,-593 200,-599 194,-599"/>
<polygon fill="white" stroke="transparent" points="63.5,-559.5 63.5,-584.5 192.5,-584.5 192.5,-559.5 63.5,-559.5"/>
<polygon fill="none" stroke="black" points="63.5,-559.5 63.5,-584.5 192.5,-584.5 192.5,-559.5 63.5,-559.5"/>
<text text-anchor="start" x="70.5" y="-570.5" font-family="Courier,monospace" font-style="italic" font-size="10.00">p = preprocessor(p)</text>
</g>
<!-- start_research_flow&#45;&gt;preprocessor -->
<g id="edge7" class="edge">
<title>start_research_flow&#45;&gt;preprocessor</title>
<path fill="none" stroke="black" d="M127.5,-635.57C127.5,-627.34 127.5,-618.08 127.5,-609.28"/>
<polygon fill="black" stroke="black" points="131,-609.24 127.5,-599.24 124,-609.24 131,-609.24"/>
</g>
<!-- fanout_research_flow_line_11 -->
<g id="node2" class="node">
<title>fanout_research_flow_line_11</title>
<path fill="lightblue" stroke="black" d="M242,-509C242,-509 13,-509 13,-509 7,-509 1,-503 1,-497 1,-497 1,-418 1,-418 1,-412 7,-406 13,-406 13,-406 242,-406 242,-406 248,-406 254,-412 254,-418 254,-418 254,-497 254,-497 254,-503 248,-509 242,-509"/>
<polygon fill="white" stroke="transparent" points="15.5,-469.5 15.5,-494.5 240.5,-494.5 240.5,-469.5 15.5,-469.5"/>
<polygon fill="none" stroke="black" points="15.5,-469.5 15.5,-494.5 240.5,-494.5 240.5,-469.5 15.5,-469.5"/>
<text text-anchor="start" x="22.5" y="-480.5" font-family="Courier,monospace" font-style="italic" font-size="10.00">p = fanout_research_flow_line_11(p)</text>
<polygon fill="#9f79ee" stroke="transparent" points="15.5,-444.5 15.5,-469.5 240.5,-469.5 240.5,-444.5 15.5,-444.5"/>
<polygon fill="none" stroke="black" points="15.5,-444.5 15.5,-469.5 240.5,-469.5 240.5,-444.5 15.5,-444.5"/>
<text text-anchor="start" x="58.5" y="-455.5" font-family="Courier,monospace" font-weight="bold" font-size="10.00">[fan&#45;out:comprehension]</text>
<polygon fill="#8968cd" stroke="transparent" points="15.5,-419.5 15.5,-444.5 240.5,-444.5 240.5,-419.5 15.5,-419.5"/>
<polygon fill="none" stroke="black" points="15.5,-419.5 15.5,-444.5 240.5,-444.5 240.5,-419.5 15.5,-419.5"/>
<text text-anchor="start" x="22.5" y="-429.5" font-family="Courier,monospace" font-size="10.00">for t in p[&#39;topics&#39;]</text>
</g>
<!-- fanin_research_flow_line_11 -->
<g id="node4" class="node">
<title>fanin_research_flow_line_11</title>
<path fill="lightblue" stroke="black" d="M235,-258C235,-258 12,-258 12,-258 6,-258 0,-252 0,-246 0,-246 0,-192 0,-192 0,-186 6,-180 12,-180 12,-180 235,-180 235,-180 241,-180 247,-186 247,-192 247,-192 247,-246 247,-246 247,-252 241,-258 235,-258"/>
<polygon fill="white" stroke="transparent" points="14.5,-219 14.5,-244 233.5,-244 233.5,-219 14.5,-219"/>
<polygon fill="none" stroke="black" points="14.5,-219 14.5,-244 233.5,-244 233.5,-219 14.5,-219"/>
<text text-anchor="start" x="21.5" y="-230" font-family="Courier,monospace" font-style="italic" font-size="10.00">p = fanin_research_flow_line_11(p)</text>
<polygon fill="#ab82ff" stroke="transparent" points="14.5,-194 14.5,-219 233.5,-219 233.5,-194 14.5,-194"/>
<polygon fill="none" stroke="black" points="14.5,-194 14.5,-219 233.5,-219 233.5,-194 14.5,-194"/>
<text text-anchor="start" x="99.5" y="-205" font-family="Courier,monospace" font-weight="bold" font-size="10.00">[fan&#45;in]</text>
</g>
<!-- fanout_research_flow_line_11&#45;&gt;fanin_research_flow_line_11 -->
<g id="edge2" class="edge">
<title>fanout_research_flow_line_11&#45;&gt;fanin_research_flow_line_11</title>
<path fill="none" stroke="#5d478b" stroke-dasharray="5,2" d="M124.11,-405.74C123.05,-387.54 122.02,-366.86 121.5,-348 120.85,-324.45 121.19,-318.55 121.5,-295 121.61,-286.39 121.8,-277.22 122.02,-268.36"/>
<polygon fill="#5d478b" stroke="#5d478b" points="125.53,-268.24 122.29,-258.15 118.53,-268.06 125.53,-268.24"/>
<text text-anchor="middle" x="146" y="-324.5" font-family="Courier,monospace" font-size="10.00">slice 0</text>
<text text-anchor="middle" x="146" y="-313.5" font-family="Courier,monospace" font-size="10.00">(parent)</text>
</g>
<!-- research_agent -->
<g id="node7" class="node">
<title>research_agent</title>
<path fill="lightblue" stroke="black" d="M336,-348C336,-348 191,-348 191,-348 185,-348 179,-342 179,-336 179,-336 179,-307 179,-307 179,-301 185,-295 191,-295 191,-295 336,-295 336,-295 342,-295 348,-301 348,-307 348,-307 348,-336 348,-336 348,-342 342,-348 336,-348"/>
<polygon fill="white" stroke="transparent" points="193.5,-308.5 193.5,-333.5 334.5,-333.5 334.5,-308.5 193.5,-308.5"/>
<polygon fill="none" stroke="black" points="193.5,-308.5 193.5,-333.5 334.5,-333.5 334.5,-308.5 193.5,-308.5"/>
<text text-anchor="start" x="200.5" y="-319.5" font-family="Courier,monospace" font-style="italic" font-size="10.00">p = research_agent(p)</text>
</g>
<!-- fanout_research_flow_line_11&#45;&gt;research_agent -->
<g id="edge3" class="edge">
<title>fanout_research_flow_line_11&#45;&gt;research_agent</title>
<path fill="none" stroke="#5d478b" stroke-width="2" d="M178.92,-405.84C196.11,-388.9 214.81,-370.47 230.25,-355.26"/>
<polygon fill="#5d478b" stroke="#5d478b" stroke-width="2" points="232.87,-357.59 237.54,-348.08 227.96,-352.6 232.87,-357.59"/>
<text text-anchor="middle" x="246" y="-380" font-family="Courier,monospace" font-size="10.00">slice 1..N</text>
<text text-anchor="middle" x="246" y="-369" font-family="Courier,monospace" font-size="10.00">(per t)</text>
</g>
<!-- end_research_flow -->
<g id="node3" class="node">
<title>end_research_flow</title>
<path fill="lightgreen" stroke="black" d="M205,-53C205,-53 42,-53 42,-53 36,-53 30,-47 30,-41 30,-41 30,-12 30,-12 30,-6 36,0 42,0 42,0 205,0 205,0 211,0 217,-6 217,-12 217,-12 217,-41 217,-41 217,-47 211,-53 205,-53"/>
<polygon fill="white" stroke="transparent" points="44.5,-13.5 44.5,-38.5 203.5,-38.5 203.5,-13.5 44.5,-13.5"/>
<polygon fill="none" stroke="black" points="44.5,-13.5 44.5,-38.5 203.5,-38.5 203.5,-13.5 44.5,-13.5"/>
<text text-anchor="start" x="51.5" y="-24.5" font-family="Courier,monospace" font-style="italic" font-size="10.00">p = end_research_flow(p)</text>
</g>
<!-- post_processor -->
<g id="node5" class="node">
<title>post_processor</title>
<path fill="lightblue" stroke="black" d="M196,-143C196,-143 51,-143 51,-143 45,-143 39,-137 39,-131 39,-131 39,-102 39,-102 39,-96 45,-90 51,-90 51,-90 196,-90 196,-90 202,-90 208,-96 208,-102 208,-102 208,-131 208,-131 208,-137 202,-143 196,-143"/>
<polygon fill="white" stroke="transparent" points="53.5,-103.5 53.5,-128.5 194.5,-128.5 194.5,-103.5 53.5,-103.5"/>
<polygon fill="none" stroke="black" points="53.5,-103.5 53.5,-128.5 194.5,-128.5 194.5,-103.5 53.5,-103.5"/>
<text text-anchor="start" x="60.5" y="-114.5" font-family="Courier,monospace" font-style="italic" font-size="10.00">p = post_processor(p)</text>
</g>
<!-- fanin_research_flow_line_11&#45;&gt;post_processor -->
<g id="edge1" class="edge">
<title>fanin_research_flow_line_11&#45;&gt;post_processor</title>
<path fill="none" stroke="black" d="M123.5,-179.72C123.5,-171.04 123.5,-161.86 123.5,-153.29"/>
<polygon fill="black" stroke="black" points="127,-153.22 123.5,-143.22 120,-153.22 127,-153.22"/>
</g>
<!-- post_processor&#45;&gt;end_research_flow -->
<g id="edge4" class="edge">
<title>post_processor&#45;&gt;end_research_flow</title>
<path fill="none" stroke="black" d="M123.5,-89.57C123.5,-81.34 123.5,-72.08 123.5,-63.28"/>
<polygon fill="black" stroke="black" points="127,-63.24 123.5,-53.24 120,-63.24 127,-63.24"/>
</g>
<!-- preprocessor&#45;&gt;fanout_research_flow_line_11 -->
<g id="edge5" class="edge">
<title>preprocessor&#45;&gt;fanout_research_flow_line_11</title>
<path fill="none" stroke="black" d="M127.5,-545.86C127.5,-537.92 127.5,-528.81 127.5,-519.54"/>
<polygon fill="black" stroke="black" points="131,-519.45 127.5,-509.46 124,-519.46 131,-519.45"/>
</g>
<!-- research_agent&#45;&gt;fanin_research_flow_line_11 -->
<g id="edge6" class="edge">
<title>research_agent&#45;&gt;fanin_research_flow_line_11</title>
<path fill="none" stroke="#473c8b" stroke-dasharray="5,2" d="M227.81,-294.88C214.81,-285.55 199.71,-274.71 185.1,-264.22"/>
<polygon fill="#473c8b" stroke="#473c8b" points="186.74,-261.09 176.58,-258.1 182.66,-266.78 186.74,-261.09"/>
</g>
</g>
</svg>
