<?xml version="1.0" encoding="UTF-8" standalone="no"?>
<!DOCTYPE svg PUBLIC "-//W3C//DTD SVG 1.1//EN"
 "http://www.w3.org/Graphics/SVG/1.1/DTD/svg11.dtd">
<!-- Generated by graphviz version 2.43.0 (0)
 -->
<!-- Title: flow Pages: 1 -->
<svg width="664pt" height="399pt"
 viewBox="0.00 0.00 664.00 399.00" xmlns="http://www.w3.org/2000/svg" xmlns:xlink="http://www.w3.org/1999/xlink">
<g id="graph0" class="graph" transform="scale(1 1) rotate(0) translate(4 395)">
<title>flow</title>
<polygon fill="white" stroke="transparent" points="-4,4 -4,-395 660,-395 660,4 -4,4"/>
<!-- start_react_agent -->
<g id="node1" class="node">
<title>start_react_agent</title>
<path fill="lightgreen" stroke="black" d="M238,-143C238,-143 75,-143 75,-143 69,-143 63,-137 63,-131 63,-131 63,-102 63,-102 63,-96 69,-90 75,-90 75,-90 238,-90 238,-90 244,-90 250,-96 250,-102 250,-102 250,-131 250,-131 250,-137 244,-143 238,-143"/>
<polygon fill="white" stroke="transparent" points="77.5,-103.5 77.5,-128.5 236.5,-128.5 236.5,-103.5 77.5,-103.5"/>
<polygon fill="none" stroke="black" points="77.5,-103.5 77.5,-128.5 236.5,-128.5 236.5,-103.5 77.5,-103.5"/>
<text text-anchor="start" x="84.5" y="-114.5" font-family="Courier,monospace" font-style="italic" font-size="10.00">p = start_react_agent(p)</text>
</g>
<!-- router_react_agent_line_10_loop_back_0 -->
<g id="node3" class="node">
<title>router_react_agent_line_10_loop_back_0</title>
<path fill="wheat" stroke="black" d="M301,-53C301,-53 12,-53 12,-53 6,-53 0,-47 0,-41 0,-41 0,-12 0,-12 0,-6 6,0 12,0 12,0 301,0 301,0 307,0 313,-6 313,-12 313,-12 313,-41 313,-41 313,-47 307,-53 301,-53"/>
<polygon fill="white" stroke="transparent" points="14.5,-13.5 14.5,-38.5 299.5,-38.5 299.5,-13.5 14.5,-13.5"/>
<polygon fill="none" stroke="black" points="14.5,-13.5 14.5,-38.5 299.5,-38.5 299.5,-13.5 14.5,-13.5"/>
<text text-anchor="start" x="21.5" y="-24.5" font-family="Courier,monospace" font-style="italic" font-size="10.00">p = router_react_agent_line_10_loop_back_0(p)</text>
</g>
<!-- start_react_agent&#45;&gt;router_react_agent_line_10_loop_back_0 -->
<g id="edge6" class="edge">
<title>start_react_agent&#45;&gt;router_react_agent_line_10_loop_back_0</title>
<path fill="none" stroke="black" d="M156.5,-89.57C156.5,-81.34 156.5,-72.08 156.5,-63.28"/>
<polygon fill="black" stroke="black" points="160,-63.24 156.5,-53.24 153,-63.24 160,-63.24"/>
</g>
<!-- router_react_agent_line_12_if -->
<g id="node2" class="node">
<title>router_react_agent_line_12_if</title>
<path fill="wheat" stroke="black" d="M511,-301C511,-301 276,-301 276,-301 270,-301 264,-295 264,-289 264,-289 264,-202 264,-202 264,-196 270,-190 276,-190 276,-190 511,-190 511,-190 517,-190 523,-196 523,-202 523,-202 523,-289 523,-289 523,-295 517,-301 511,-301"/>
<polygon fill="white" stroke="transparent" points="278.5,-261.5 278.5,-286.5 509.5,-286.5 509.5,-261.5 278.5,-261.5"/>
<polygon fill="none" stroke="black" points="278.5,-261.5 278.5,-286.5 509.5,-286.5 509.5,-261.5 278.5,-261.5"/>
<text text-anchor="start" x="285.5" y="-272.5" font-family="Courier,monospace" font-style="italic" font-size="10.00">p = router_react_agent_line_12_if(p)</text>
<polygon fill="lightyellow" stroke="transparent" points="278.5,-236.5 278.5,-261.5 509.5,-261.5 509.5,-236.5 278.5,-236.5"/>
<polygon fill="none" stroke="black" points="278.5,-236.5 278.5,-261.5 509.5,-261.5 509.5,-236.5 278.5,-236.5"/>
<text text-anchor="start" x="327" y="-247.5" font-family="Courier,monospace" font-weight="bold" font-size="10.00">if</text>
<text text-anchor="start" x="340" y="-247.5" font-family="Courier,monospace" font-size="10.00"> p.get(&#39;tool_calls&#39;)</text>
<polygon fill="none" stroke="black" points="278.5,-203.5 278.5,-236.5 509.5,-236.5 509.5,-203.5 278.5,-203.5"/>
<polygon fill="#698b69" stroke="transparent" points="285.5,-210.5 285.5,-229.5 391.5,-229.5 391.5,-210.5 285.5,-210.5"/>
<text text-anchor="start" x="326" y="-218.5" font-family="Courier,monospace" font-weight="bold" font-size="10.00" fill="white">TRUE</text>
<polygon fill="#8b3a3a" stroke="transparent" points="391.5,-210.5 391.5,-229.5 502.5,-229.5 502.5,-210.5 391.5,-210.5"/>
<text text-anchor="start" x="431.5" y="-218.5" font-family="Courier,monospace" font-weight="bold" font-size="10.00" fill="white">FALSE</text>
</g>
<!-- end_react_agent -->
<g id="node4" class="node">
<title>end_react_agent</title>
<path fill="lightgreen" stroke="black" d="M469,-143C469,-143 318,-143 318,-143 312,-143 306,-137 306,-131 306,-131 306,-102 306,-102 306,-96 312,-90 318,-90 318,-90 469,-90 469,-90 475,-90 481,-96 481,-102 481,-102 481,-131 481,-131 481,-137 475,-143 469,-143"/>
<polygon fill="white" stroke="transparent" points="320.5,-103.5 320.5,-128.5 467.5,-128.5 467.5,-103.5 320.5,-103.5"/>
<polygon fill="none" stroke="black" points="320.5,-103.5 320.5,-128.5 467.5,-128.5 467.5,-103.5 320.5,-103.5"/>
<text text-anchor="start" x="327.5" y="-114.5" font-family="Courier,monospace" font-style="italic" font-size="10.00">p = end_react_agent(p)</text>
</g>
<!-- router_react_agent_line_12_if&#45;&gt;end_react_agent -->
<g id="edge4" class="edge">
<title>router_react_agent_line_12_if&#45;&gt;end_react_agent</title>
<path fill="none" stroke="#8b3a3a" d="M393.5,-189.9C393.5,-177.45 393.5,-164.52 393.5,-153.1"/>
<polygon fill="#8b3a3a" stroke="#8b3a3a" points="397,-153.1 393.5,-143.1 390,-153.1 397,-153.1"/>
<text text-anchor="middle" x="397" y="-164" font-family="Courier,monospace" font-size="10.00">F</text>
</g>
<!-- execute_tool -->
<g id="node5" class="node">
<title>execute_tool</title>
<path fill="lightblue" stroke="black" d="M644,-143C644,-143 511,-143 511,-143 505,-143 499,-137 499,-131 499,-131 499,-102 499,-102 499,-96 505,-90 511,-90 511,-90 644,-90 644,-90 650,-90 656,-96 656,-102 656,-102 656,-131 656,-131 656,-137 650,-143 644,-143"/>
<polygon fill="white" stroke="transparent" points="513.5,-103.5 513.5,-128.5 642.5,-128.5 642.5,-103.5 513.5,-103.5"/>
<polygon fill="none" stroke="black" points="513.5,-103.5 513.5,-128.5 642.5,-128.5 642.5,-103.5 513.5,-103.5"/>
<text text-anchor="start" x="520.5" y="-114.5" font-family="Courier,monospace" font-style="italic" font-size="10.00">p = execute_tool(p)</text>
</g>
<!-- router_react_agent_line_12_if&#45;&gt;execute_tool -->
<g id="edge5" class="edge">
<title>router_react_agent_line_12_if&#45;&gt;execute_tool</title>
<path fill="none" stroke="#698b69" d="M472.6,-189.9C492.86,-175.92 513.97,-161.35 531.89,-148.98"/>
<polygon fill="#698b69" stroke="#698b69" points="534.18,-151.66 540.42,-143.1 530.2,-145.9 534.18,-151.66"/>
<text text-anchor="middle" x="516" y="-164" font-family="Courier,monospace" font-size="10.00">T</text>
</g>
<!-- llm_call -->
<g id="node6" class="node">
<title>llm_call</title>
<path fill="lightblue" stroke="black" d="M448,-391C448,-391 339,-391 339,-391 333,-391 327,-385 327,-379 327,-379 327,-350 327,-350 327,-344 333,-338 339,-338 339,-338 448,-338 448,-338 454,-338 460,-344 460,-350 460,-350 460,-379 460,-379 460,-385 454,-391 448,-391"/>
<polygon fill="white" stroke="transparent" points="341.5,-351.5 341.5,-376.5 446.5,-376.5 446.5,-351.5 341.5,-351.5"/>
<polygon fill="none" stroke="black" points="341.5,-351.5 341.5,-376.5 446.5,-376.5 446.5,-351.5 341.5,-351.5"/>
<text text-anchor="start" x="348.5" y="-362.5" font-family="Courier,monospace" font-style="italic" font-size="10.00">p = llm_call(p)</text>
</g>
<!-- router_react_agent_line_10_loop_back_0&#45;&gt;llm_call -->
<g id="edge3" class="edge">
<title>router_react_agent_line_10_loop_back_0&#45;&gt;llm_call</title>
<path fill="none" stroke="black" d="M220.42,-53.13C235.56,-62.39 249.82,-74.51 258.5,-90 270.01,-110.55 259.25,-119.46 258.5,-143 256.26,-213.2 217.44,-241.97 255.5,-301 269.59,-322.85 293.39,-337.15 317.28,-346.47"/>
<polygon fill="black" stroke="black" points="316.19,-349.79 326.78,-349.92 318.58,-343.21 316.19,-349.79"/>
</g>
<!-- execute_tool&#45;&gt;router_react_agent_line_10_loop_back_0 -->
<g id="edge1" class="edge">
<title>execute_tool&#45;&gt;router_react_agent_line_10_loop_back_0</title>
<path fill="none" stroke="black" d="M498.87,-92.07C496.05,-91.35 493.26,-90.66 490.5,-90 435.55,-76.84 374.95,-64.78 320.64,-54.83"/>
<polygon fill="black" stroke="black" points="321.04,-51.35 310.57,-53 319.78,-58.24 321.04,-51.35"/>
</g>
<!-- llm_call&#45;&gt;router_react_agent_line_12_if -->
<g id="edge2" class="edge">
<title>llm_call&#45;&gt;router_react_agent_line_12_if</title>
<path fill="none" stroke="black" d="M393.5,-337.82C393.5,-329.92 393.5,-320.83 393.5,-311.53"/>
<polygon fill="black" stroke="black" points="397,-311.38 393.5,-301.38 390,-311.38 397,-311.38"/>
</g>
</g>
</svg>
