<?xml version="1.0" encoding="UTF-8" standalone="no"?>
<!DOCTYPE svg PUBLIC "-//W3C//DTD SVG 1.1//EN"
 "http://www.w3.org/Graphics/SVG/1.1/DTD/svg11.dtd">
<!-- Generated by graphviz version 2.43.0 (0)
 -->
<!-- Title: flow Pages: 1 -->
<svg width="261pt" height="328pt"
 viewBox="0.00 0.00 261.00 328.00" xmlns="http://www.w3.org/2000/svg" xmlns:xlink="http://www.w3.org/1999/xlink">
<g id="graph0" class="graph" transform="scale(1 1) rotate(0) translate(4 324)">
<title>flow</title>
<polygon fill="white" stroke="transparent" points="-4,4 -4,-324 257,-324 257,4 -4,4"/>
<!-- start_llm_auditor_flow -->
<g id="node1" class="node">
<title>start_llm_auditor_flow</title>
<path fill="lightgreen" stroke="black" d="M241,-320C241,-320 12,-320 12,-320 6,-320 0,-314 0,-308 0,-308 0,-279 0,-279 0,-273 6,-267 12,-267 12,-267 241,-267 241,-267 247,-267 253,-273 253,-279 253,-279 253,-308 253,-308 253,-314 247,-320 241,-320"/>
<polygon fill="white" stroke="transparent" points="14.5,-280.5 14.5,-305.5 239.5,-305.5 239.5,-280.5 14.5,-280.5"/>
<polygon fill="none" stroke="black" points="14.5,-280.5 14.5,-305.5 239.5,-305.5 239.5,-280.5 14.5,-280.5"/>
<text text-anchor="start" x="21.5" y="-291.5" font-family="Courier,monospace" font-style="italic" font-size="10.00">p = await start_llm_auditor_flow(p)</text>
</g>
<!-- critic -->
<g id="node3" class="node">
<title>critic</title>
<path fill="lightblue" stroke="black" d="M193,-231C193,-231 60,-231 60,-231 54,-231 48,-225 48,-219 48,-219 48,-190 48,-190 48,-184 54,-178 60,-178 60,-178 193,-178 193,-178 199,-178 205,-184 205,-190 205,-190 205,-219 205,-219 205,-225 199,-231 193,-231"/>
<polygon fill="white" stroke="transparent" points="62.5,-191.5 62.5,-216.5 191.5,-216.5 191.5,-191.5 62.5,-191.5"/>
<polygon fill="none" stroke="black" points="62.5,-191.5 62.5,-216.5 191.5,-216.5 191.5,-191.5 62.5,-191.5"/>
<text text-anchor="start" x="69.5" y="-202.5" font-family="Courier,monospace" font-style="italic" font-size="10.00">p = await critic(p)</text>
</g>
<!-- start_llm_auditor_flow&#45;&gt;critic -->
<g id="edge3" class="edge">
<title>start_llm_auditor_flow&#45;&gt;critic</title>
<path fill="none" stroke="black" d="M126.5,-266.87C126.5,-258.89 126.5,-249.93 126.5,-241.38"/>
<polygon fill="black" stroke="black" points="130,-241.25 126.5,-231.25 123,-241.25 130,-241.25"/>
</g>
<!-- end_llm_auditor_flow -->
<g id="node2" class="node">
<title>end_llm_auditor_flow</title>
<path fill="lightgreen" stroke="black" d="M235,-53C235,-53 18,-53 18,-53 12,-53 6,-47 6,-41 6,-41 6,-12 6,-12 6,-6 12,0 18,0 18,0 235,0 235,0 241,0 247,-6 247,-12 247,-12 247,-41 247,-41 247,-47 241,-53 235,-53"/>
<polygon fill="white" stroke="transparent" points="20.5,-13.5 20.5,-38.5 233.5,-38.5 233.5,-13.5 20.5,-13.5"/>
<polygon fill="none" stroke="black" points="20.5,-13.5 20.5,-38.5 233.5,-38.5 233.5,-13.5 20.5,-13.5"/>
<text text-anchor="start" x="27.5" y="-24.5" font-family="Courier,monospace" font-style="italic" font-size="10.00">p = await end_llm_auditor_flow(p)</text>
</g>
<!-- reviser -->
<g id="node4" class="node">
<title>reviser</title>
<path fill="lightblue" stroke="black" d="M196,-142C196,-142 57,-142 57,-142 51,-142 45,-136 45,-130 45,-130 45,-101 45,-101 45,-95 51,-89 57,-89 57,-89 196,-89 196,-89 202,-89 208,-95 208,-101 208,-101 208,-130 208,-130 208,-136 202,-142 196,-142"/>
<polygon fill="white" stroke="transparent" points="59.5,-102.5 59.5,-127.5 194.5,-127.5 194.5,-102.5 59.5,-102.5"/>
<polygon fill="none" stroke="black" points="59.5,-102.5 59.5,-127.5 194.5,-127.5 194.5,-102.5 59.5,-102.5"/>
<text text-anchor="start" x="66.5" y="-113.5" font-family="Courier,monospace" font-style="italic" font-size="10.00">p = await reviser(p)</text>
</g>
<!-- critic&#45;&gt;reviser -->
<g id="edge1" class="edge">
<title>critic&#45;&gt;reviser</title>
<path fill="none" stroke="black" d="M126.5,-177.87C126.5,-169.89 126.5,-160.93 126.5,-152.38"/>
<polygon fill="black" stroke="black" points="130,-152.25 126.5,-142.25 123,-152.25 130,-152.25"/>
</g>
<!-- reviser&#45;&gt;end_llm_auditor_flow -->
<g id="edge2" class="edge">
<title>reviser&#45;&gt;end_llm_auditor_flow</title>
<path fill="none" stroke="black" d="M126.5,-88.87C126.5,-80.89 126.5,-71.93 126.5,-63.38"/>
<polygon fill="black" stroke="black" points="130,-63.25 126.5,-53.25 123,-63.25 130,-63.25"/>
</g>
</g>
</svg>
