<?xml version="1.0" encoding="UTF-8" standalone="no"?>
<!DOCTYPE svg PUBLIC "-//W3C//DTD SVG 1.1//EN"
 "http://www.w3.org/Graphics/SVG/1.1/DTD/svg11.dtd">
<!-- Generated by graphviz version 2.43.0 (0)
 -->
<!-- Title: flow Pages: 1 -->
<svg width="627pt" height="819pt"
 viewBox="0.00 0.00 626.60 819.00" xmlns="http://www.w3.org/2000/svg" xmlns:xlink="http://www.w3.org/1999/xlink">
<g id="graph0" class="graph" transform="scale(1 1) rotate(0) translate(4 815)">
<title>flow</title>
<polygon fill="white" stroke="transparent" points="-4,4 -4,-815 622.6,-815 622.6,4 -4,4"/>
<!-- start_while_mutations_in_loop_flow -->
<g id="node1" class="node">
<title>start_while_mutations_in_loop_flow</title>
<path fill="lightgreen" stroke="black" d="M332.6,-811C332.6,-811 67.6,-811 67.6,-811 61.6,-811 55.6,-805 55.6,-799 55.6,-799 55.6,-770 55.6,-770 55.6,-764 61.6,-758 67.6,-758 67.6,-758 332.6,-758 332.6,-758 338.6,-758 344.6,-764 344.6,-770 344.6,-770 344.6,-799 344.6,-799 344.6,-805 338.6,-811 332.6,-811"/>
<polygon fill="white" stroke="transparent" points="70.1,-771.5 70.1,-796.5 331.1,-796.5 331.1,-771.5 70.1,-771.5"/>
<polygon fill="none" stroke="black" points="70.1,-771.5 70.1,-796.5 331.1,-796.5 331.1,-771.5 70.1,-771.5"/>
<text text-anchor="start" x="77.1" y="-782.5" font-family="Courier,monospace" font-style="italic" font-size="10.00">p = start_while_mutations_in_loop_flow(p)</text>
</g>
<!-- handler_init -->
<g id="node8" class="node">
<title>handler_init</title>
<path fill="lightblue" stroke="black" d="M266.6,-721C266.6,-721 133.6,-721 133.6,-721 127.6,-721 121.6,-715 121.6,-709 121.6,-709 121.6,-680 121.6,-680 121.6,-674 127.6,-668 133.6,-668 133.6,-668 266.6,-668 266.6,-668 272.6,-668 278.6,-674 278.6,-680 278.6,-680 278.6,-709 278.6,-709 278.6,-715 272.6,-721 266.6,-721"/>
<polygon fill="white" stroke="transparent" points="136.1,-681.5 136.1,-706.5 265.1,-706.5 265.1,-681.5 136.1,-681.5"/>
<polygon fill="none" stroke="black" points="136.1,-681.5 136.1,-706.5 265.1,-706.5 265.1,-681.5 136.1,-681.5"/>
<text text-anchor="start" x="143.1" y="-692.5" font-family="Courier,monospace" font-style="italic" font-size="10.00">p = handler_init(p)</text>
</g>
<!-- start_while_mutations_in_loop_flow&#45;&gt;handler_init -->
<g id="edge9" class="edge">
<title>start_while_mutations_in_loop_flow&#45;&gt;handler_init</title>
<path fill="none" stroke="black" d="M200.1,-757.57C200.1,-749.34 200.1,-740.08 200.1,-731.28"/>
<polygon fill="black" stroke="black" points="203.6,-731.24 200.1,-721.24 196.6,-731.24 203.6,-731.24"/>
</g>
<!-- router_while_mutations_in_loop_flow_line_17_seq -->
<g id="node2" class="node">
<title>router_while_mutations_in_loop_flow_line_17_seq</title>
<path fill="wheat" stroke="black" d="M359.6,-78C359.6,-78 40.6,-78 40.6,-78 34.6,-78 28.6,-72 28.6,-66 28.6,-66 28.6,-12 28.6,-12 28.6,-6 34.6,0 40.6,0 40.6,0 359.6,0 359.6,0 365.6,0 371.6,-6 371.6,-12 371.6,-12 371.6,-66 371.6,-66 371.6,-72 365.6,-78 359.6,-78"/>
<polygon fill="white" stroke="transparent" points="43.1,-39 43.1,-64 358.1,-64 358.1,-39 43.1,-39"/>
<polygon fill="none" stroke="black" points="43.1,-39 43.1,-64 358.1,-64 358.1,-39 43.1,-39"/>
<text text-anchor="start" x="50.1" y="-50" font-family="Courier,monospace" font-style="italic" font-size="10.00">p = router_while_mutations_in_loop_flow_line_1…(p)</text>
<polygon fill="white" stroke="transparent" points="43.1,-14 43.1,-39 358.1,-39 358.1,-14 43.1,-14"/>
<polygon fill="none" stroke="black" points="43.1,-14 43.1,-39 358.1,-39 358.1,-14 43.1,-14"/>
<text text-anchor="start" x="50.1" y="-24" font-family="Courier,monospace" font-size="10.00">p[&#39;processed&#39;] = True</text>
</g>
<!-- router_while_mutations_in_loop_flow_line_12_while_0 -->
<g id="node4" class="node">
<title>router_while_mutations_in_loop_flow_line_12_while_0</title>
<path fill="wheat" stroke="black" d="M359.6,-491C359.6,-491 40.6,-491 40.6,-491 34.6,-491 28.6,-485 28.6,-479 28.6,-479 28.6,-392 28.6,-392 28.6,-386 34.6,-380 40.6,-380 40.6,-380 359.6,-380 359.6,-380 365.6,-380 371.6,-386 371.6,-392 371.6,-392 371.6,-479 371.6,-479 371.6,-485 365.6,-491 359.6,-491"/>
<polygon fill="white" stroke="transparent" points="43.1,-451.5 43.1,-476.5 358.1,-476.5 358.1,-451.5 43.1,-451.5"/>
<polygon fill="none" stroke="black" points="43.1,-451.5 43.1,-476.5 358.1,-476.5 358.1,-451.5 43.1,-451.5"/>
<text text-anchor="start" x="50.1" y="-462.5" font-family="Courier,monospace" font-style="italic" font-size="10.00">p = router_while_mutations_in_loop_flow_line_1…(p)</text>
<polygon fill="lightyellow" stroke="transparent" points="43.1,-426.5 43.1,-451.5 358.1,-451.5 358.1,-426.5 43.1,-426.5"/>
<polygon fill="none" stroke="black" points="43.1,-426.5 43.1,-451.5 358.1,-451.5 358.1,-426.5 43.1,-426.5"/>
<text text-anchor="start" x="106.6" y="-437.5" font-family="Courier,monospace" font-weight="bold" font-size="10.00">if</text>
<text text-anchor="start" x="119.6" y="-437.5" font-family="Courier,monospace" font-size="10.00"> p[&#39;i&#39;] &lt; p[&#39;max_iterations&#39;]</text>
<polygon fill="none" stroke="black" points="43.1,-393.5 43.1,-426.5 358.1,-426.5 358.1,-393.5 43.1,-393.5"/>
<polygon fill="#698b69" stroke="transparent" points="50.1,-400.5 50.1,-419.5 198.1,-419.5 198.1,-400.5 50.1,-400.5"/>
<text text-anchor="start" x="111.6" y="-408.5" font-family="Courier,monospace" font-weight="bold" font-size="10.00" fill="white">TRUE</text>
<polygon fill="#8b3a3a" stroke="transparent" points="198.1,-400.5 198.1,-419.5 351.1,-419.5 351.1,-400.5 198.1,-400.5"/>
<text text-anchor="start" x="259.1" y="-408.5" font-family="Courier,monospace" font-weight="bold" font-size="10.00" fill="white">FALSE</text>
</g>
<!-- router_while_mutations_in_loop_flow_line_17_seq&#45;&gt;router_while_mutations_in_loop_flow_line_12_while_0 -->
<g id="edge8" class="edge">
<title>router_while_mutations_in_loop_flow_line_17_seq&#45;&gt;router_while_mutations_in_loop_flow_line_12_while_0</title>
<path fill="none" stroke="black" d="M133.9,-78.06C91.53,-106.73 40.62,-150.41 19.1,-205 -1.76,-257.93 -9.65,-283.91 19.1,-333 28.32,-348.74 40.97,-362.22 55.33,-373.72"/>
<polygon fill="black" stroke="black" points="53.4,-376.65 63.48,-379.91 57.63,-371.08 53.4,-376.65"/>
</g>
<!-- router_while_mutations_in_loop_flow_line_13_seq -->
<g id="node3" class="node">
<title>router_while_mutations_in_loop_flow_line_13_seq</title>
<path fill="wheat" stroke="black" d="M359.6,-333C359.6,-333 40.6,-333 40.6,-333 34.6,-333 28.6,-327 28.6,-321 28.6,-321 28.6,-217 28.6,-217 28.6,-211 34.6,-205 40.6,-205 40.6,-205 359.6,-205 359.6,-205 365.6,-205 371.6,-211 371.6,-217 371.6,-217 371.6,-321 371.6,-321 371.6,-327 365.6,-333 359.6,-333"/>
<polygon fill="white" stroke="transparent" points="43.1,-294 43.1,-319 358.1,-319 358.1,-294 43.1,-294"/>
<polygon fill="none" stroke="black" points="43.1,-294 43.1,-319 358.1,-319 358.1,-294 43.1,-294"/>
<text text-anchor="start" x="50.1" y="-305" font-family="Courier,monospace" font-style="italic" font-size="10.00">p = router_while_mutations_in_loop_flow_line_1…(p)</text>
<polygon fill="white" stroke="transparent" points="43.1,-269 43.1,-294 358.1,-294 358.1,-269 43.1,-269"/>
<polygon fill="none" stroke="black" points="43.1,-269 43.1,-294 358.1,-294 358.1,-269 43.1,-269"/>
<text text-anchor="start" x="50.1" y="-279" font-family="Courier,monospace" font-size="10.00">p[&#39;i&#39;] += 1</text>
<polygon fill="white" stroke="transparent" points="43.1,-244 43.1,-269 358.1,-269 358.1,-244 43.1,-244"/>
<polygon fill="none" stroke="black" points="43.1,-244 43.1,-269 358.1,-269 358.1,-244 43.1,-244"/>
<text text-anchor="start" x="50.1" y="-254" font-family="Courier,monospace" font-size="10.00">p[&#39;sum&#39;] += p[&#39;i&#39;]</text>
<polygon fill="white" stroke="transparent" points="43.1,-219 43.1,-244 358.1,-244 358.1,-219 43.1,-219"/>
<polygon fill="none" stroke="black" points="43.1,-219 43.1,-244 358.1,-244 358.1,-219 43.1,-219"/>
<text text-anchor="start" x="50.1" y="-229" font-family="Courier,monospace" font-size="10.00">p[&#39;step&#39;] = p[&#39;i&#39;]</text>
</g>
<!-- handler_process -->
<g id="node9" class="node">
<title>handler_process</title>
<path fill="lightblue" stroke="black" d="M275.6,-168C275.6,-168 124.6,-168 124.6,-168 118.6,-168 112.6,-162 112.6,-156 112.6,-156 112.6,-127 112.6,-127 112.6,-121 118.6,-115 124.6,-115 124.6,-115 275.6,-115 275.6,-115 281.6,-115 287.6,-121 287.6,-127 287.6,-127 287.6,-156 287.6,-156 287.6,-162 281.6,-168 275.6,-168"/>
<polygon fill="white" stroke="transparent" points="127.1,-128.5 127.1,-153.5 274.1,-153.5 274.1,-128.5 127.1,-128.5"/>
<polygon fill="none" stroke="black" points="127.1,-128.5 127.1,-153.5 274.1,-153.5 274.1,-128.5 127.1,-128.5"/>
<text text-anchor="start" x="134.1" y="-139.5" font-family="Courier,monospace" font-style="italic" font-size="10.00">p = handler_process(p)</text>
</g>
<!-- router_while_mutations_in_loop_flow_line_13_seq&#45;&gt;handler_process -->
<g id="edge7" class="edge">
<title>router_while_mutations_in_loop_flow_line_13_seq&#45;&gt;handler_process</title>
<path fill="none" stroke="black" d="M200.1,-204.88C200.1,-195.7 200.1,-186.52 200.1,-178.15"/>
<polygon fill="black" stroke="black" points="203.6,-178.02 200.1,-168.02 196.6,-178.02 203.6,-178.02"/>
</g>
<!-- router_while_mutations_in_loop_flow_line_12_while_0&#45;&gt;router_while_mutations_in_loop_flow_line_13_seq -->
<g id="edge6" class="edge">
<title>router_while_mutations_in_loop_flow_line_12_while_0&#45;&gt;router_while_mutations_in_loop_flow_line_13_seq</title>
<path fill="none" stroke="#698b69" d="M200.1,-379.72C200.1,-368.04 200.1,-355.52 200.1,-343.27"/>
<polygon fill="#698b69" stroke="#698b69" points="203.6,-343.07 200.1,-333.07 196.6,-343.07 203.6,-343.07"/>
<text text-anchor="middle" x="203.6" y="-354" font-family="Courier,monospace" font-size="10.00">T</text>
</g>
<!-- handler_finalize -->
<g id="node7" class="node">
<title>handler_finalize</title>
<path fill="lightblue" stroke="black" d="M558.6,-295.5C558.6,-295.5 401.6,-295.5 401.6,-295.5 395.6,-295.5 389.6,-289.5 389.6,-283.5 389.6,-283.5 389.6,-254.5 389.6,-254.5 389.6,-248.5 395.6,-242.5 401.6,-242.5 401.6,-242.5 558.6,-242.5 558.6,-242.5 564.6,-242.5 570.6,-248.5 570.6,-254.5 570.6,-254.5 570.6,-283.5 570.6,-283.5 570.6,-289.5 564.6,-295.5 558.6,-295.5"/>
<polygon fill="white" stroke="transparent" points="404.1,-256 404.1,-281 557.1,-281 557.1,-256 404.1,-256"/>
<polygon fill="none" stroke="black" points="404.1,-256 404.1,-281 557.1,-281 557.1,-256 404.1,-256"/>
<text text-anchor="start" x="411.1" y="-267" font-family="Courier,monospace" font-style="italic" font-size="10.00">p = handler_finalize(p)</text>
</g>
<!-- router_while_mutations_in_loop_flow_line_12_while_0&#45;&gt;handler_finalize -->
<g id="edge5" class="edge">
<title>router_while_mutations_in_loop_flow_line_12_while_0&#45;&gt;handler_finalize</title>
<path fill="none" stroke="#8b3a3a" d="M299.16,-379.78C325.6,-364.87 354.06,-348.53 380.1,-333 397.05,-322.89 415.38,-311.48 431.66,-301.18"/>
<polygon fill="#8b3a3a" stroke="#8b3a3a" points="433.9,-303.9 440.47,-295.59 430.15,-297.99 433.9,-303.9"/>
<text text-anchor="middle" x="349.6" y="-354" font-family="Courier,monospace" font-size="10.00">F</text>
</g>
<!-- router_while_mutations_in_loop_flow_line_10_seq -->
<g id="node5" class="node">
<title>router_while_mutations_in_loop_flow_line_10_seq</title>
<path fill="wheat" stroke="black" d="M359.6,-631C359.6,-631 40.6,-631 40.6,-631 34.6,-631 28.6,-625 28.6,-619 28.6,-619 28.6,-540 28.6,-540 28.6,-534 34.6,-528 40.6,-528 40.6,-528 359.6,-528 359.6,-528 365.6,-528 371.6,-534 371.6,-540 371.6,-540 371.6,-619 371.6,-619 371.6,-625 365.6,-631 359.6,-631"/>
<polygon fill="white" stroke="transparent" points="43.1,-591.5 43.1,-616.5 358.1,-616.5 358.1,-591.5 43.1,-591.5"/>
<polygon fill="none" stroke="black" points="43.1,-591.5 43.1,-616.5 358.1,-616.5 358.1,-591.5 43.1,-591.5"/>
<text text-anchor="start" x="50.1" y="-602.5" font-family="Courier,monospace" font-style="italic" font-size="10.00">p = router_while_mutations_in_loop_flow_line_1…(p)</text>
<polygon fill="white" stroke="transparent" points="43.1,-566.5 43.1,-591.5 358.1,-591.5 358.1,-566.5 43.1,-566.5"/>
<polygon fill="none" stroke="black" points="43.1,-566.5 43.1,-591.5 358.1,-591.5 358.1,-566.5 43.1,-566.5"/>
<text text-anchor="start" x="50.1" y="-576.5" font-family="Courier,monospace" font-size="10.00">p[&#39;i&#39;] = 0</text>
<polygon fill="white" stroke="transparent" points="43.1,-541.5 43.1,-566.5 358.1,-566.5 358.1,-541.5 43.1,-541.5"/>
<polygon fill="none" stroke="black" points="43.1,-541.5 43.1,-566.5 358.1,-566.5 358.1,-541.5 43.1,-541.5"/>
<text text-anchor="start" x="50.1" y="-551.5" font-family="Courier,monospace" font-size="10.00">p[&#39;sum&#39;] = 0</text>
</g>
<!-- router_while_mutations_in_loop_flow_line_10_seq&#45;&gt;router_while_mutations_in_loop_flow_line_12_while_0 -->
<g id="edge4" class="edge">
<title>router_while_mutations_in_loop_flow_line_10_seq&#45;&gt;router_while_mutations_in_loop_flow_line_12_while_0</title>
<path fill="none" stroke="black" d="M200.1,-527.64C200.1,-519.17 200.1,-510.29 200.1,-501.53"/>
<polygon fill="black" stroke="black" points="203.6,-501.33 200.1,-491.33 196.6,-501.33 203.6,-501.33"/>
</g>
<!-- end_while_mutations_in_loop_flow -->
<g id="node6" class="node">
<title>end_while_mutations_in_loop_flow</title>
<path fill="lightgreen" stroke="black" d="M606.6,-168C606.6,-168 353.6,-168 353.6,-168 347.6,-168 341.6,-162 341.6,-156 341.6,-156 341.6,-127 341.6,-127 341.6,-121 347.6,-115 353.6,-115 353.6,-115 606.6,-115 606.6,-115 612.6,-115 618.6,-121 618.6,-127 618.6,-127 618.6,-156 618.6,-156 618.6,-162 612.6,-168 606.6,-168"/>
<polygon fill="white" stroke="transparent" points="356.1,-128.5 356.1,-153.5 605.1,-153.5 605.1,-128.5 356.1,-128.5"/>
<polygon fill="none" stroke="black" points="356.1,-128.5 356.1,-153.5 605.1,-153.5 605.1,-128.5 356.1,-128.5"/>
<text text-anchor="start" x="363.1" y="-139.5" font-family="Courier,monospace" font-style="italic" font-size="10.00">p = end_while_mutations_in_loop_flow(p)</text>
</g>
<!-- handler_finalize&#45;&gt;end_while_mutations_in_loop_flow -->
<g id="edge1" class="edge">
<title>handler_finalize&#45;&gt;end_while_mutations_in_loop_flow</title>
<path fill="none" stroke="black" d="M480.1,-242.3C480.1,-223.86 480.1,-198.76 480.1,-178.35"/>
<polygon fill="black" stroke="black" points="483.6,-178.17 480.1,-168.17 476.6,-178.17 483.6,-178.17"/>
</g>
<!-- handler_init&#45;&gt;router_while_mutations_in_loop_flow_line_10_seq -->
<g id="edge2" class="edge">
<title>handler_init&#45;&gt;router_while_mutations_in_loop_flow_line_10_seq</title>
<path fill="none" stroke="black" d="M200.1,-667.86C200.1,-659.92 200.1,-650.81 200.1,-641.54"/>
<polygon fill="black" stroke="black" points="203.6,-641.45 200.1,-631.46 196.6,-641.46 203.6,-641.45"/>
</g>
<!-- handler_process&#45;&gt;router_while_mutations_in_loop_flow_line_17_seq -->
<g id="edge3" class="edge">
<title>handler_process&#45;&gt;router_while_mutations_in_loop_flow_line_17_seq</title>
<path fill="none" stroke="black" d="M200.1,-114.88C200.1,-106.77 200.1,-97.52 200.1,-88.35"/>
<polygon fill="black" stroke="black" points="203.6,-88.1 200.1,-78.1 196.6,-88.1 203.6,-88.1"/>
</g>
</g>
</svg>
