<?xml version="1.0" encoding="UTF-8" standalone="no"?>
<!DOCTYPE svg PUBLIC "-//W3C//DTD SVG 1.1//EN"
 "http://www.w3.org/Graphics/SVG/1.1/DTD/svg11.dtd">
<!-- Generated by graphviz version 2.43.0 (0)
 -->
<!-- Title: flow Pages: 1 -->
<svg width="991pt" height="1395pt"
 viewBox="0.00 0.00 991.26 1395.00" xmlns="http://www.w3.org/2000/svg" xmlns:xlink="http://www.w3.org/1999/xlink">
<g id="graph0" class="graph" transform="scale(1 1) rotate(0) translate(4 1391)">
<title>flow</title>
<polygon fill="white" stroke="transparent" points="-4,4 -4,-1391 987.26,-1391 987.26,4 -4,4"/>
<!-- start_react_tool_loop -->
<g id="node1" class="node">
<title>start_react_tool_loop</title>
<path fill="lightgreen" stroke="black" d="M253,-309.5C253,-309.5 12,-309.5 12,-309.5 6,-309.5 0,-303.5 0,-297.5 0,-297.5 0,-218.5 0,-218.5 0,-212.5 6,-206.5 12,-206.5 12,-206.5 253,-206.5 253,-206.5 259,-206.5 265,-212.5 265,-218.5 265,-218.5 265,-297.5 265,-297.5 265,-303.5 259,-309.5 253,-309.5"/>
<polygon fill="white" stroke="transparent" points="14.5,-270 14.5,-295 251.5,-295 251.5,-270 14.5,-270"/>
<polygon fill="none" stroke="black" points="14.5,-270 14.5,-295 251.5,-295 251.5,-270 14.5,-270"/>
<text text-anchor="start" x="30.5" y="-281" font-family="Courier,monospace" font-style="italic" font-size="10.00">p = await start_react_tool_loop(p)</text>
<polygon fill="white" stroke="transparent" points="14.5,-245 14.5,-270 251.5,-270 251.5,-245 14.5,-245"/>
<polygon fill="none" stroke="black" points="14.5,-245 14.5,-270 251.5,-270 251.5,-245 14.5,-245"/>
<text text-anchor="start" x="21.5" y="-255" font-family="Courier,monospace" font-size="10.00">p[&#39;messages&#39;] = p.get(&#39;messages&#39;, [])</text>
<polygon fill="white" stroke="transparent" points="14.5,-220 14.5,-245 251.5,-245 251.5,-220 14.5,-220"/>
<polygon fill="none" stroke="black" points="14.5,-220 14.5,-245 251.5,-245 251.5,-220 14.5,-220"/>
<text text-anchor="start" x="21.5" y="-230" font-family="Courier,monospace" font-size="10.00">p[&#39;iteration&#39;] = 0</text>
</g>
<!-- router_react_tool_loop_line_46_loop_back_0 -->
<g id="node9" class="node">
<title>router_react_tool_loop_line_46_loop_back_0</title>
<path fill="wheat" stroke="black" d="M447,-143C447,-143 128,-143 128,-143 122,-143 116,-137 116,-131 116,-131 116,-102 116,-102 116,-96 122,-90 128,-90 128,-90 447,-90 447,-90 453,-90 459,-96 459,-102 459,-102 459,-131 459,-131 459,-137 453,-143 447,-143"/>
<polygon fill="white" stroke="transparent" points="130.5,-103.5 130.5,-128.5 445.5,-128.5 445.5,-103.5 130.5,-103.5"/>
<polygon fill="none" stroke="black" points="130.5,-103.5 130.5,-128.5 445.5,-128.5 445.5,-103.5 130.5,-103.5"/>
<text text-anchor="start" x="137.5" y="-114.5" font-family="Courier,monospace" font-style="italic" font-size="10.00">p = await router_react_tool_loop_line_46_loop_…(p)</text>
</g>
<!-- start_react_tool_loop&#45;&gt;router_react_tool_loop_line_46_loop_back_0 -->
<g id="edge18" class="edge">
<title>start_react_tool_loop&#45;&gt;router_react_tool_loop_line_46_loop_back_0</title>
<path fill="none" stroke="black" d="M188.9,-206.24C209.65,-187.57 232.59,-166.92 251.11,-150.25"/>
<polygon fill="black" stroke="black" points="253.67,-152.65 258.76,-143.36 248.99,-147.45 253.67,-152.65"/>
</g>
<!-- router_react_tool_loop_line_66_seq -->
<g id="node2" class="node">
<title>router_react_tool_loop_line_66_seq</title>
<path fill="wheat" stroke="black" d="M593,-441C593,-441 292,-441 292,-441 286,-441 280,-435 280,-429 280,-429 280,-375 280,-375 280,-369 286,-363 292,-363 292,-363 593,-363 593,-363 599,-363 605,-369 605,-375 605,-375 605,-429 605,-429 605,-435 599,-441 593,-441"/>
<polygon fill="white" stroke="transparent" points="294.5,-402 294.5,-427 591.5,-427 591.5,-402 294.5,-402"/>
<polygon fill="none" stroke="black" points="294.5,-402 294.5,-427 591.5,-427 591.5,-402 294.5,-402"/>
<text text-anchor="start" x="301.5" y="-413" font-family="Courier,monospace" font-style="italic" font-size="10.00">p = await router_react_tool_loop_line_66_seq(p)</text>
<polygon fill="white" stroke="transparent" points="294.5,-377 294.5,-402 591.5,-402 591.5,-377 294.5,-377"/>
<polygon fill="none" stroke="black" points="294.5,-377 294.5,-402 591.5,-402 591.5,-377 294.5,-377"/>
<text text-anchor="start" x="301.5" y="-387" font-family="Courier,monospace" font-size="10.00">p[&#39;observation&#39;] = &#39;Unknown tool&#39;</text>
</g>
<!-- router_react_tool_loop_line_72_if -->
<g id="node5" class="node">
<title>router_react_tool_loop_line_72_if</title>
<path fill="wheat" stroke="black" d="M590,-326C590,-326 295,-326 295,-326 289,-326 283,-320 283,-314 283,-314 283,-202 283,-202 283,-196 289,-190 295,-190 295,-190 590,-190 590,-190 596,-190 602,-196 602,-202 602,-202 602,-314 602,-314 602,-320 596,-326 590,-326"/>
<polygon fill="white" stroke="transparent" points="297.5,-287 297.5,-312 588.5,-312 588.5,-287 297.5,-287"/>
<polygon fill="none" stroke="black" points="297.5,-287 297.5,-312 588.5,-312 588.5,-287 297.5,-287"/>
<text text-anchor="start" x="304.5" y="-298" font-family="Courier,monospace" font-style="italic" font-size="10.00">p = await router_react_tool_loop_line_72_if(p)</text>
<polygon fill="white" stroke="transparent" points="297.5,-262 297.5,-287 588.5,-287 588.5,-262 297.5,-262"/>
<polygon fill="none" stroke="black" points="297.5,-262 297.5,-287 588.5,-287 588.5,-262 297.5,-262"/>
<text text-anchor="start" x="304.5" y="-272" font-family="Courier,monospace" font-size="10.00">p[&#39;messages&#39;] = p.get(&#39;messages&#39;, [])</text>
<polygon fill="lightyellow" stroke="transparent" points="297.5,-237 297.5,-262 588.5,-262 588.5,-237 297.5,-237"/>
<polygon fill="none" stroke="black" points="297.5,-237 297.5,-262 588.5,-262 588.5,-237 297.5,-237"/>
<text text-anchor="start" x="373" y="-248" font-family="Courier,monospace" font-weight="bold" font-size="10.00">if</text>
<text text-anchor="start" x="386" y="-248" font-family="Courier,monospace" font-size="10.00"> p[&#39;iteration&#39;] &gt;= 10</text>
<polygon fill="none" stroke="black" points="297.5,-204 297.5,-237 588.5,-237 588.5,-204 297.5,-204"/>
<polygon fill="#698b69" stroke="transparent" points="304.5,-211 304.5,-230 443.5,-230 443.5,-211 304.5,-211"/>
<text text-anchor="start" x="361.5" y="-219" font-family="Courier,monospace" font-weight="bold" font-size="10.00" fill="white">TRUE</text>
<polygon fill="#8b3a3a" stroke="transparent" points="443.5,-211 443.5,-230 581.5,-230 581.5,-211 443.5,-211"/>
<text text-anchor="start" x="500" y="-219" font-family="Courier,monospace" font-weight="bold" font-size="10.00" fill="white">pass</text>
</g>
<!-- router_react_tool_loop_line_66_seq&#45;&gt;router_react_tool_loop_line_72_if -->
<g id="edge15" class="edge">
<title>router_react_tool_loop_line_66_seq&#45;&gt;router_react_tool_loop_line_72_if</title>
<path fill="none" stroke="black" d="M442.5,-362.95C442.5,-354.62 442.5,-345.52 442.5,-336.27"/>
<polygon fill="black" stroke="black" points="446,-336.22 442.5,-326.22 439,-336.22 446,-336.22"/>
</g>
<!-- router_react_tool_loop_line_63_if -->
<g id="node3" class="node">
<title>router_react_tool_loop_line_63_if</title>
<path fill="wheat" stroke="black" d="M590,-641C590,-641 295,-641 295,-641 289,-641 283,-635 283,-629 283,-629 283,-542 283,-542 283,-536 289,-530 295,-530 295,-530 590,-530 590,-530 596,-530 602,-536 602,-542 602,-542 602,-629 602,-629 602,-635 596,-641 590,-641"/>
<polygon fill="white" stroke="transparent" points="297.5,-601.5 297.5,-626.5 588.5,-626.5 588.5,-601.5 297.5,-601.5"/>
<polygon fill="none" stroke="black" points="297.5,-601.5 297.5,-626.5 588.5,-626.5 588.5,-601.5 297.5,-601.5"/>
<text text-anchor="start" x="304.5" y="-612.5" font-family="Courier,monospace" font-style="italic" font-size="10.00">p = await router_react_tool_loop_line_63_if(p)</text>
<polygon fill="lightyellow" stroke="transparent" points="297.5,-576.5 297.5,-601.5 588.5,-601.5 588.5,-576.5 297.5,-576.5"/>
<polygon fill="none" stroke="black" points="297.5,-576.5 297.5,-601.5 588.5,-601.5 588.5,-576.5 297.5,-576.5"/>
<text text-anchor="start" x="343" y="-587.5" font-family="Courier,monospace" font-weight="bold" font-size="10.00">if</text>
<text text-anchor="start" x="356" y="-587.5" font-family="Courier,monospace" font-size="10.00"> p[&#39;tool_name&#39;] == &#39;calculator&#39;</text>
<polygon fill="none" stroke="black" points="297.5,-543.5 297.5,-576.5 588.5,-576.5 588.5,-543.5 297.5,-543.5"/>
<polygon fill="#698b69" stroke="transparent" points="304.5,-550.5 304.5,-569.5 440.5,-569.5 440.5,-550.5 304.5,-550.5"/>
<text text-anchor="start" x="360" y="-558.5" font-family="Courier,monospace" font-weight="bold" font-size="10.00" fill="white">TRUE</text>
<polygon fill="#8b3a3a" stroke="transparent" points="440.5,-550.5 440.5,-569.5 581.5,-569.5 581.5,-550.5 440.5,-550.5"/>
<text text-anchor="start" x="495.5" y="-558.5" font-family="Courier,monospace" font-weight="bold" font-size="10.00" fill="white">FALSE</text>
</g>
<!-- router_react_tool_loop_line_63_if&#45;&gt;router_react_tool_loop_line_66_seq -->
<g id="edge14" class="edge">
<title>router_react_tool_loop_line_63_if&#45;&gt;router_react_tool_loop_line_66_seq</title>
<path fill="none" stroke="#8b3a3a" d="M442.5,-529.55C442.5,-504.65 442.5,-475.46 442.5,-451.4"/>
<polygon fill="#8b3a3a" stroke="#8b3a3a" points="446,-451.08 442.5,-441.08 439,-451.08 446,-451.08"/>
<text text-anchor="middle" x="446" y="-483" font-family="Courier,monospace" font-size="10.00">F</text>
</g>
<!-- calculator -->
<g id="node11" class="node">
<title>calculator</title>
<path fill="lightblue" stroke="black" d="M792,-428.5C792,-428.5 635,-428.5 635,-428.5 629,-428.5 623,-422.5 623,-416.5 623,-416.5 623,-387.5 623,-387.5 623,-381.5 629,-375.5 635,-375.5 635,-375.5 792,-375.5 792,-375.5 798,-375.5 804,-381.5 804,-387.5 804,-387.5 804,-416.5 804,-416.5 804,-422.5 798,-428.5 792,-428.5"/>
<polygon fill="white" stroke="transparent" points="637.5,-389 637.5,-414 790.5,-414 790.5,-389 637.5,-389"/>
<polygon fill="none" stroke="black" points="637.5,-389 637.5,-414 790.5,-414 790.5,-389 637.5,-389"/>
<text text-anchor="start" x="644.5" y="-400" font-family="Courier,monospace" font-style="italic" font-size="10.00">p = await calculator(p)</text>
</g>
<!-- router_react_tool_loop_line_63_if&#45;&gt;calculator -->
<g id="edge13" class="edge">
<title>router_react_tool_loop_line_63_if&#45;&gt;calculator</title>
<path fill="none" stroke="#698b69" d="M509.82,-529.8C539.33,-506.82 574.86,-480.5 608.5,-459 622.41,-450.11 637.87,-441.31 652.55,-433.42"/>
<polygon fill="#698b69" stroke="#698b69" points="654.39,-436.41 661.58,-428.62 651.1,-430.23 654.39,-436.41"/>
<text text-anchor="middle" x="612" y="-483" font-family="Courier,monospace" font-size="10.00">T</text>
</g>
<!-- router_react_tool_loop_line_61_if -->
<g id="node4" class="node">
<title>router_react_tool_loop_line_61_if</title>
<path fill="wheat" stroke="black" d="M590,-841C590,-841 295,-841 295,-841 289,-841 283,-835 283,-829 283,-829 283,-742 283,-742 283,-736 289,-730 295,-730 295,-730 590,-730 590,-730 596,-730 602,-736 602,-742 602,-742 602,-829 602,-829 602,-835 596,-841 590,-841"/>
<polygon fill="white" stroke="transparent" points="297.5,-801.5 297.5,-826.5 588.5,-826.5 588.5,-801.5 297.5,-801.5"/>
<polygon fill="none" stroke="black" points="297.5,-801.5 297.5,-826.5 588.5,-826.5 588.5,-801.5 297.5,-801.5"/>
<text text-anchor="start" x="304.5" y="-812.5" font-family="Courier,monospace" font-style="italic" font-size="10.00">p = await router_react_tool_loop_line_61_if(p)</text>
<polygon fill="lightyellow" stroke="transparent" points="297.5,-776.5 297.5,-801.5 588.5,-801.5 588.5,-776.5 297.5,-776.5"/>
<polygon fill="none" stroke="black" points="297.5,-776.5 297.5,-801.5 588.5,-801.5 588.5,-776.5 297.5,-776.5"/>
<text text-anchor="start" x="346" y="-787.5" font-family="Courier,monospace" font-weight="bold" font-size="10.00">if</text>
<text text-anchor="start" x="359" y="-787.5" font-family="Courier,monospace" font-size="10.00"> p[&#39;tool_name&#39;] == &#39;code_exec&#39;</text>
<polygon fill="none" stroke="black" points="297.5,-743.5 297.5,-776.5 588.5,-776.5 588.5,-743.5 297.5,-743.5"/>
<polygon fill="#698b69" stroke="transparent" points="304.5,-750.5 304.5,-769.5 440.5,-769.5 440.5,-750.5 304.5,-750.5"/>
<text text-anchor="start" x="360" y="-758.5" font-family="Courier,monospace" font-weight="bold" font-size="10.00" fill="white">TRUE</text>
<polygon fill="#8b3a3a" stroke="transparent" points="440.5,-750.5 440.5,-769.5 581.5,-769.5 581.5,-750.5 440.5,-750.5"/>
<text text-anchor="start" x="495.5" y="-758.5" font-family="Courier,monospace" font-weight="bold" font-size="10.00" fill="white">FALSE</text>
</g>
<!-- router_react_tool_loop_line_61_if&#45;&gt;router_react_tool_loop_line_63_if -->
<g id="edge12" class="edge">
<title>router_react_tool_loop_line_61_if&#45;&gt;router_react_tool_loop_line_63_if</title>
<path fill="none" stroke="#8b3a3a" d="M442.5,-729.87C442.5,-705.63 442.5,-676.9 442.5,-651.56"/>
<polygon fill="#8b3a3a" stroke="#8b3a3a" points="446,-651.29 442.5,-641.29 439,-651.29 446,-651.29"/>
<text text-anchor="middle" x="446" y="-683" font-family="Courier,monospace" font-size="10.00">F</text>
</g>
<!-- code_exec -->
<g id="node12" class="node">
<title>code_exec</title>
<path fill="lightblue" stroke="black" d="M787,-512C787,-512 636,-512 636,-512 630,-512 624,-506 624,-500 624,-500 624,-471 624,-471 624,-465 630,-459 636,-459 636,-459 787,-459 787,-459 793,-459 799,-465 799,-471 799,-471 799,-500 799,-500 799,-506 793,-512 787,-512"/>
<polygon fill="white" stroke="transparent" points="638.5,-472.5 638.5,-497.5 785.5,-497.5 785.5,-472.5 638.5,-472.5"/>
<polygon fill="none" stroke="black" points="638.5,-472.5 638.5,-497.5 785.5,-497.5 785.5,-472.5 638.5,-472.5"/>
<text text-anchor="start" x="645.5" y="-483.5" font-family="Courier,monospace" font-style="italic" font-size="10.00">p = await code_exec(p)</text>
</g>
<!-- router_react_tool_loop_line_61_if&#45;&gt;code_exec -->
<g id="edge11" class="edge">
<title>router_react_tool_loop_line_61_if&#45;&gt;code_exec</title>
<path fill="none" stroke="#698b69" d="M516.18,-729.78C547.47,-704.63 583.18,-673.25 611.5,-641 644.65,-603.26 674.8,-553.6 693.13,-520.9"/>
<polygon fill="#698b69" stroke="#698b69" points="696.19,-522.59 697.98,-512.15 690.07,-519.2 696.19,-522.59"/>
<text text-anchor="middle" x="597" y="-683" font-family="Courier,monospace" font-size="10.00">T</text>
</g>
<!-- router_react_tool_loop_line_72_if&#45;&gt;router_react_tool_loop_line_46_loop_back_0 -->
<g id="edge17" class="edge">
<title>router_react_tool_loop_line_72_if&#45;&gt;router_react_tool_loop_line_46_loop_back_0</title>
<path fill="none" stroke="#8b3a3a" d="M367.72,-189.7C352.32,-175.84 336.78,-161.85 323.52,-149.92"/>
<polygon fill="#8b3a3a" stroke="#8b3a3a" points="325.78,-147.24 316.01,-143.15 321.1,-152.45 325.78,-147.24"/>
<text text-anchor="middle" x="351" y="-164" font-family="Courier,monospace" font-size="10.00">F</text>
</g>
<!-- format_response -->
<g id="node13" class="node">
<title>format_response</title>
<path fill="lightblue" stroke="black" d="M843,-143C843,-143 656,-143 656,-143 650,-143 644,-137 644,-131 644,-131 644,-102 644,-102 644,-96 650,-90 656,-90 656,-90 843,-90 843,-90 849,-90 855,-96 855,-102 855,-102 855,-131 855,-131 855,-137 849,-143 843,-143"/>
<polygon fill="white" stroke="transparent" points="658.5,-103.5 658.5,-128.5 841.5,-128.5 841.5,-103.5 658.5,-103.5"/>
<polygon fill="none" stroke="black" points="658.5,-103.5 658.5,-128.5 841.5,-128.5 841.5,-103.5 658.5,-103.5"/>
<text text-anchor="start" x="665.5" y="-114.5" font-family="Courier,monospace" font-style="italic" font-size="10.00">p = await format_response(p)</text>
</g>
<!-- router_react_tool_loop_line_72_if&#45;&gt;format_response -->
<g id="edge16" class="edge">
<title>router_react_tool_loop_line_72_if&#45;&gt;format_response</title>
<path fill="none" stroke="#698b69" d="M590.16,-189.91C623.14,-174.92 656.48,-159.77 684.08,-147.22"/>
<polygon fill="#698b69" stroke="#698b69" points="685.56,-150.4 693.22,-143.08 682.66,-144.03 685.56,-150.4"/>
<text text-anchor="middle" x="653" y="-164" font-family="Courier,monospace" font-size="10.00">T</text>
</g>
<!-- router_react_tool_loop_line_59_if -->
<g id="node6" class="node">
<title>router_react_tool_loop_line_59_if</title>
<path fill="wheat" stroke="black" d="M590,-1024C590,-1024 295,-1024 295,-1024 289,-1024 283,-1018 283,-1012 283,-1012 283,-900 283,-900 283,-894 289,-888 295,-888 295,-888 590,-888 590,-888 596,-888 602,-894 602,-900 602,-900 602,-1012 602,-1012 602,-1018 596,-1024 590,-1024"/>
<polygon fill="white" stroke="transparent" points="297.5,-985 297.5,-1010 588.5,-1010 588.5,-985 297.5,-985"/>
<polygon fill="none" stroke="black" points="297.5,-985 297.5,-1010 588.5,-1010 588.5,-985 297.5,-985"/>
<text text-anchor="start" x="304.5" y="-996" font-family="Courier,monospace" font-style="italic" font-size="10.00">p = await router_react_tool_loop_line_59_if(p)</text>
<polygon fill="white" stroke="transparent" points="297.5,-960 297.5,-985 588.5,-985 588.5,-960 297.5,-960"/>
<polygon fill="none" stroke="black" points="297.5,-960 297.5,-985 588.5,-985 588.5,-960 297.5,-960"/>
<text text-anchor="start" x="304.5" y="-970" font-family="Courier,monospace" font-size="10.00">p[&#39;tool_name&#39;] = p[&#39;tool_calls&#39;][0][&#39;name&#39;]</text>
<polygon fill="lightyellow" stroke="transparent" points="297.5,-935 297.5,-960 588.5,-960 588.5,-935 297.5,-935"/>
<polygon fill="none" stroke="black" points="297.5,-935 297.5,-960 588.5,-960 588.5,-935 297.5,-935"/>
<text text-anchor="start" x="343" y="-946" font-family="Courier,monospace" font-weight="bold" font-size="10.00">if</text>
<text text-anchor="start" x="356" y="-946" font-family="Courier,monospace" font-size="10.00"> p[&#39;tool_name&#39;] == &#39;web_search&#39;</text>
<polygon fill="none" stroke="black" points="297.5,-902 297.5,-935 588.5,-935 588.5,-902 297.5,-902"/>
<polygon fill="#698b69" stroke="transparent" points="304.5,-909 304.5,-928 440.5,-928 440.5,-909 304.5,-909"/>
<text text-anchor="start" x="360" y="-917" font-family="Courier,monospace" font-weight="bold" font-size="10.00" fill="white">TRUE</text>
<polygon fill="#8b3a3a" stroke="transparent" points="440.5,-909 440.5,-928 581.5,-928 581.5,-909 440.5,-909"/>
<text text-anchor="start" x="495.5" y="-917" font-family="Courier,monospace" font-weight="bold" font-size="10.00" fill="white">FALSE</text>
</g>
<!-- router_react_tool_loop_line_59_if&#45;&gt;router_react_tool_loop_line_61_if -->
<g id="edge9" class="edge">
<title>router_react_tool_loop_line_59_if&#45;&gt;router_react_tool_loop_line_61_if</title>
<path fill="none" stroke="#8b3a3a" d="M442.5,-887.92C442.5,-875.92 442.5,-863.44 442.5,-851.51"/>
<polygon fill="#8b3a3a" stroke="#8b3a3a" points="446,-851.18 442.5,-841.18 439,-851.18 446,-851.18"/>
<text text-anchor="middle" x="446" y="-862" font-family="Courier,monospace" font-size="10.00">F</text>
</g>
<!-- web_search -->
<g id="node15" class="node">
<title>web_search</title>
<path fill="lightblue" stroke="black" d="M872,-712C872,-712 715,-712 715,-712 709,-712 703,-706 703,-700 703,-700 703,-671 703,-671 703,-665 709,-659 715,-659 715,-659 872,-659 872,-659 878,-659 884,-665 884,-671 884,-671 884,-700 884,-700 884,-706 878,-712 872,-712"/>
<polygon fill="white" stroke="transparent" points="717.5,-672.5 717.5,-697.5 870.5,-697.5 870.5,-672.5 717.5,-672.5"/>
<polygon fill="none" stroke="black" points="717.5,-672.5 717.5,-697.5 870.5,-697.5 870.5,-672.5 717.5,-672.5"/>
<text text-anchor="start" x="724.5" y="-683.5" font-family="Courier,monospace" font-style="italic" font-size="10.00">p = await web_search(p)</text>
</g>
<!-- router_react_tool_loop_line_59_if&#45;&gt;web_search -->
<g id="edge10" class="edge">
<title>router_react_tool_loop_line_59_if&#45;&gt;web_search</title>
<path fill="none" stroke="#698b69" d="M546.1,-887.75C568.01,-872.8 590.77,-856.71 611.5,-841 664.01,-801.19 721.49,-751.25 757.52,-719.1"/>
<polygon fill="#698b69" stroke="#698b69" points="760.19,-721.4 765.31,-712.13 755.52,-716.19 760.19,-721.4"/>
<text text-anchor="middle" x="589" y="-862" font-family="Courier,monospace" font-size="10.00">T</text>
</g>
<!-- router_react_tool_loop_line_53_if -->
<g id="node7" class="node">
<title>router_react_tool_loop_line_53_if</title>
<path fill="wheat" stroke="black" d="M590,-1182C590,-1182 295,-1182 295,-1182 289,-1182 283,-1176 283,-1170 283,-1170 283,-1083 283,-1083 283,-1077 289,-1071 295,-1071 295,-1071 590,-1071 590,-1071 596,-1071 602,-1077 602,-1083 602,-1083 602,-1170 602,-1170 602,-1176 596,-1182 590,-1182"/>
<polygon fill="white" stroke="transparent" points="297.5,-1142.5 297.5,-1167.5 588.5,-1167.5 588.5,-1142.5 297.5,-1142.5"/>
<polygon fill="none" stroke="black" points="297.5,-1142.5 297.5,-1167.5 588.5,-1167.5 588.5,-1142.5 297.5,-1142.5"/>
<text text-anchor="start" x="304.5" y="-1153.5" font-family="Courier,monospace" font-style="italic" font-size="10.00">p = await router_react_tool_loop_line_53_if(p)</text>
<polygon fill="lightyellow" stroke="transparent" points="297.5,-1117.5 297.5,-1142.5 588.5,-1142.5 588.5,-1117.5 297.5,-1117.5"/>
<polygon fill="none" stroke="black" points="297.5,-1117.5 297.5,-1142.5 588.5,-1142.5 588.5,-1117.5 297.5,-1117.5"/>
<text text-anchor="start" x="364" y="-1128.5" font-family="Courier,monospace" font-weight="bold" font-size="10.00">if</text>
<text text-anchor="start" x="377" y="-1128.5" font-family="Courier,monospace" font-size="10.00"> not p.get(&#39;tool_calls&#39;)</text>
<polygon fill="none" stroke="black" points="297.5,-1084.5 297.5,-1117.5 588.5,-1117.5 588.5,-1084.5 297.5,-1084.5"/>
<polygon fill="#698b69" stroke="transparent" points="304.5,-1091.5 304.5,-1110.5 440.5,-1110.5 440.5,-1091.5 304.5,-1091.5"/>
<text text-anchor="start" x="360" y="-1099.5" font-family="Courier,monospace" font-weight="bold" font-size="10.00" fill="white">TRUE</text>
<polygon fill="#8b3a3a" stroke="transparent" points="440.5,-1091.5 440.5,-1110.5 581.5,-1110.5 581.5,-1091.5 440.5,-1091.5"/>
<text text-anchor="start" x="495.5" y="-1099.5" font-family="Courier,monospace" font-weight="bold" font-size="10.00" fill="white">FALSE</text>
</g>
<!-- router_react_tool_loop_line_53_if&#45;&gt;router_react_tool_loop_line_59_if -->
<g id="edge8" class="edge">
<title>router_react_tool_loop_line_53_if&#45;&gt;router_react_tool_loop_line_59_if</title>
<path fill="none" stroke="#8b3a3a" d="M442.5,-1070.79C442.5,-1059.16 442.5,-1046.66 442.5,-1034.36"/>
<polygon fill="#8b3a3a" stroke="#8b3a3a" points="446,-1034.1 442.5,-1024.1 439,-1034.1 446,-1034.1"/>
<text text-anchor="middle" x="446" y="-1045" font-family="Courier,monospace" font-size="10.00">F</text>
</g>
<!-- router_react_tool_loop_line_53_if&#45;&gt;format_response -->
<g id="edge7" class="edge">
<title>router_react_tool_loop_line_53_if&#45;&gt;format_response</title>
<path fill="none" stroke="#698b69" d="M602.31,-1099.77C739.92,-1072.94 916.5,-1025.23 916.5,-957 916.5,-957 916.5,-957 916.5,-257 916.5,-206.11 870.25,-170.15 826.43,-147.5"/>
<polygon fill="#698b69" stroke="#698b69" points="827.94,-144.33 817.43,-143 824.81,-150.6 827.94,-144.33"/>
<text text-anchor="middle" x="920" y="-583" font-family="Courier,monospace" font-size="10.00">T</text>
</g>
<!-- router_react_tool_loop_line_47_seq -->
<g id="node8" class="node">
<title>router_react_tool_loop_line_47_seq</title>
<path fill="wheat" stroke="black" d="M593,-1387C593,-1387 292,-1387 292,-1387 286,-1387 280,-1381 280,-1375 280,-1375 280,-1321 280,-1321 280,-1315 286,-1309 292,-1309 292,-1309 593,-1309 593,-1309 599,-1309 605,-1315 605,-1321 605,-1321 605,-1375 605,-1375 605,-1381 599,-1387 593,-1387"/>
<polygon fill="white" stroke="transparent" points="294.5,-1348 294.5,-1373 591.5,-1373 591.5,-1348 294.5,-1348"/>
<polygon fill="none" stroke="black" points="294.5,-1348 294.5,-1373 591.5,-1373 591.5,-1348 294.5,-1348"/>
<text text-anchor="start" x="301.5" y="-1359" font-family="Courier,monospace" font-style="italic" font-size="10.00">p = await router_react_tool_loop_line_47_seq(p)</text>
<polygon fill="white" stroke="transparent" points="294.5,-1323 294.5,-1348 591.5,-1348 591.5,-1323 294.5,-1323"/>
<polygon fill="none" stroke="black" points="294.5,-1323 294.5,-1348 591.5,-1348 591.5,-1323 294.5,-1323"/>
<text text-anchor="start" x="301.5" y="-1333" font-family="Courier,monospace" font-size="10.00">p[&#39;iteration&#39;] += 1</text>
</g>
<!-- llm_reason -->
<g id="node14" class="node">
<title>llm_reason</title>
<path fill="lightblue" stroke="black" d="M521,-1272C521,-1272 364,-1272 364,-1272 358,-1272 352,-1266 352,-1260 352,-1260 352,-1231 352,-1231 352,-1225 358,-1219 364,-1219 364,-1219 521,-1219 521,-1219 527,-1219 533,-1225 533,-1231 533,-1231 533,-1260 533,-1260 533,-1266 527,-1272 521,-1272"/>
<polygon fill="white" stroke="transparent" points="366.5,-1232.5 366.5,-1257.5 519.5,-1257.5 519.5,-1232.5 366.5,-1232.5"/>
<polygon fill="none" stroke="black" points="366.5,-1232.5 366.5,-1257.5 519.5,-1257.5 519.5,-1232.5 366.5,-1232.5"/>
<text text-anchor="start" x="373.5" y="-1243.5" font-family="Courier,monospace" font-style="italic" font-size="10.00">p = await llm_reason(p)</text>
</g>
<!-- router_react_tool_loop_line_47_seq&#45;&gt;llm_reason -->
<g id="edge6" class="edge">
<title>router_react_tool_loop_line_47_seq&#45;&gt;llm_reason</title>
<path fill="none" stroke="black" d="M442.5,-1308.72C442.5,-1300.04 442.5,-1290.86 442.5,-1282.29"/>
<polygon fill="black" stroke="black" points="446,-1282.22 442.5,-1272.22 439,-1282.22 446,-1282.22"/>
</g>
<!-- router_react_tool_loop_line_46_loop_back_0&#45;&gt;router_react_tool_loop_line_47_seq -->
<g id="edge5" class="edge">
<title>router_react_tool_loop_line_46_loop_back_0&#45;&gt;router_react_tool_loop_line_47_seq</title>
<path fill="none" stroke="black" d="M459.43,-129.66C538.88,-136.87 623.68,-147.31 660.5,-161 796.38,-211.51 862.59,-215.93 930.5,-344 1002.77,-480.29 1006.76,-859.85 900.5,-1024 813.29,-1158.72 648.33,-1253.93 542.01,-1304.61"/>
<polygon fill="black" stroke="black" points="540.42,-1301.49 532.87,-1308.93 543.41,-1307.82 540.42,-1301.49"/>
</g>
<!-- end_react_tool_loop -->
<g id="node10" class="node">
<title>end_react_tool_loop</title>
<path fill="lightgreen" stroke="black" d="M855,-53C855,-53 644,-53 644,-53 638,-53 632,-47 632,-41 632,-41 632,-12 632,-12 632,-6 638,0 644,0 644,0 855,0 855,0 861,0 867,-6 867,-12 867,-12 867,-41 867,-41 867,-47 861,-53 855,-53"/>
<polygon fill="white" stroke="transparent" points="646.5,-13.5 646.5,-38.5 853.5,-38.5 853.5,-13.5 646.5,-13.5"/>
<polygon fill="none" stroke="black" points="646.5,-13.5 646.5,-38.5 853.5,-38.5 853.5,-13.5 646.5,-13.5"/>
<text text-anchor="start" x="653.5" y="-24.5" font-family="Courier,monospace" font-style="italic" font-size="10.00">p = await end_react_tool_loop(p)</text>
</g>
<!-- calculator&#45;&gt;router_react_tool_loop_line_72_if -->
<g id="edge1" class="edge">
<title>calculator&#45;&gt;router_react_tool_loop_line_72_if</title>
<path fill="none" stroke="black" d="M664.74,-375.45C640.6,-362.8 610.14,-346.84 579.57,-330.82"/>
<polygon fill="black" stroke="black" points="581,-327.62 570.52,-326.08 577.75,-333.82 581,-327.62"/>
</g>
<!-- code_exec&#45;&gt;router_react_tool_loop_line_72_if -->
<g id="edge2" class="edge">
<title>code_exec&#45;&gt;router_react_tool_loop_line_72_if</title>
<path fill="none" stroke="black" d="M795.89,-458.95C802.75,-453.99 808.83,-448.07 813.5,-441 832.61,-412.08 834.45,-390.62 813.5,-363 787.96,-329.32 697.22,-303.55 611.88,-286.08"/>
<polygon fill="black" stroke="black" points="612.54,-282.64 602.04,-284.1 611.15,-289.51 612.54,-282.64"/>
</g>
<!-- format_response&#45;&gt;end_react_tool_loop -->
<g id="edge3" class="edge">
<title>format_response&#45;&gt;end_react_tool_loop</title>
<path fill="none" stroke="black" d="M749.5,-89.57C749.5,-81.34 749.5,-72.08 749.5,-63.28"/>
<polygon fill="black" stroke="black" points="753,-63.24 749.5,-53.24 746,-63.24 753,-63.24"/>
</g>
<!-- llm_reason&#45;&gt;router_react_tool_loop_line_53_if -->
<g id="edge4" class="edge">
<title>llm_reason&#45;&gt;router_react_tool_loop_line_53_if</title>
<path fill="none" stroke="black" d="M442.5,-1218.82C442.5,-1210.92 442.5,-1201.83 442.5,-1192.53"/>
<polygon fill="black" stroke="black" points="446,-1192.38 442.5,-1182.38 439,-1192.38 446,-1192.38"/>
</g>
<!-- web_search&#45;&gt;router_react_tool_loop_line_72_if -->
<g id="edge19" class="edge">
<title>web_search&#45;&gt;router_react_tool_loop_line_72_if</title>
<path fill="none" stroke="black" d="M806.29,-658.93C832.8,-602.03 887.06,-462.19 834.5,-363 812.61,-321.69 707.94,-295.25 612.27,-279.37"/>
<polygon fill="black" stroke="black" points="612.58,-275.88 602.15,-277.73 611.46,-282.79 612.58,-275.88"/>
</g>
</g>
</svg>
