<?xml version="1.0" encoding="UTF-8" standalone="no"?>
<!DOCTYPE svg PUBLIC "-//W3C//DTD SVG 1.1//EN"
 "http://www.w3.org/Graphics/SVG/1.1/DTD/svg11.dtd">
<!-- Generated by graphviz version 2.43.0 (0)
 -->
<!-- Title: flow Pages: 1 -->
<svg width="333pt" height="489pt"
 viewBox="0.00 0.00 333.00 489.00" xmlns="http://www.w3.org/2000/svg" xmlns:xlink="http://www.w3.org/1999/xlink">
<g id="graph0" class="graph" transform="scale(1 1) rotate(0) translate(4 485)">
<title>flow</title>
<polygon fill="white" stroke="transparent" points="-4,4 -4,-485 329,-485 329,4 -4,4"/>
<!-- start_if_empty_branches_flow -->
<g id="node1" class="node">
<title>start_if_empty_branches_flow</title>
<path fill="lightgreen" stroke="black" d="M277,-481C277,-481 48,-481 48,-481 42,-481 36,-475 36,-469 36,-469 36,-440 36,-440 36,-434 42,-428 48,-428 48,-428 277,-428 277,-428 283,-428 289,-434 289,-440 289,-440 289,-469 289,-469 289,-475 283,-481 277,-481"/>
<polygon fill="white" stroke="transparent" points="50.5,-441.5 50.5,-466.5 275.5,-466.5 275.5,-441.5 50.5,-441.5"/>
<polygon fill="none" stroke="black" points="50.5,-441.5 50.5,-466.5 275.5,-466.5 275.5,-441.5 50.5,-441.5"/>
<text text-anchor="start" x="57.5" y="-452.5" font-family="Courier,monospace" font-style="italic" font-size="10.00">p = start_if_empty_branches_flow(p)</text>
</g>
<!-- handler_setup -->
<g id="node5" class="node">
<title>handler_setup</title>
<path fill="lightblue" stroke="black" d="M232,-391C232,-391 93,-391 93,-391 87,-391 81,-385 81,-379 81,-379 81,-350 81,-350 81,-344 87,-338 93,-338 93,-338 232,-338 232,-338 238,-338 244,-344 244,-350 244,-350 244,-379 244,-379 244,-385 238,-391 232,-391"/>
<polygon fill="white" stroke="transparent" points="95.5,-351.5 95.5,-376.5 230.5,-376.5 230.5,-351.5 95.5,-351.5"/>
<polygon fill="none" stroke="black" points="95.5,-351.5 95.5,-376.5 230.5,-376.5 230.5,-351.5 95.5,-351.5"/>
<text text-anchor="start" x="102.5" y="-362.5" font-family="Courier,monospace" font-style="italic" font-size="10.00">p = handler_setup(p)</text>
</g>
<!-- start_if_empty_branches_flow&#45;&gt;handler_setup -->
<g id="edge5" class="edge">
<title>start_if_empty_branches_flow&#45;&gt;handler_setup</title>
<path fill="none" stroke="black" d="M162.5,-427.57C162.5,-419.34 162.5,-410.08 162.5,-401.28"/>
<polygon fill="black" stroke="black" points="166,-401.24 162.5,-391.24 159,-401.24 166,-401.24"/>
</g>
<!-- router_if_empty_branches_flow_line_10_if -->
<g id="node2" class="node">
<title>router_if_empty_branches_flow_line_10_if</title>
<path fill="wheat" stroke="black" d="M313,-301C313,-301 12,-301 12,-301 6,-301 0,-295 0,-289 0,-289 0,-202 0,-202 0,-196 6,-190 12,-190 12,-190 313,-190 313,-190 319,-190 325,-196 325,-202 325,-202 325,-289 325,-289 325,-295 319,-301 313,-301"/>
<polygon fill="white" stroke="transparent" points="14.5,-261.5 14.5,-286.5 311.5,-286.5 311.5,-261.5 14.5,-261.5"/>
<polygon fill="none" stroke="black" points="14.5,-261.5 14.5,-286.5 311.5,-286.5 311.5,-261.5 14.5,-261.5"/>
<text text-anchor="start" x="21.5" y="-272.5" font-family="Courier,monospace" font-style="italic" font-size="10.00">p = router_if_empty_branches_flow_line_10_if(p)</text>
<polygon fill="lightyellow" stroke="transparent" points="14.5,-236.5 14.5,-261.5 311.5,-261.5 311.5,-236.5 14.5,-236.5"/>
<polygon fill="none" stroke="black" points="14.5,-236.5 14.5,-261.5 311.5,-261.5 311.5,-236.5 14.5,-236.5"/>
<text text-anchor="start" x="93" y="-247.5" font-family="Courier,monospace" font-weight="bold" font-size="10.00">if</text>
<text text-anchor="start" x="106" y="-247.5" font-family="Courier,monospace" font-size="10.00"> p[&#39;skip_processing&#39;]</text>
<polygon fill="none" stroke="black" points="14.5,-203.5 14.5,-236.5 311.5,-236.5 311.5,-203.5 14.5,-203.5"/>
<polygon fill="#698b69" stroke="transparent" points="21.5,-210.5 21.5,-229.5 160.5,-229.5 160.5,-210.5 21.5,-210.5"/>
<text text-anchor="start" x="78.5" y="-218.5" font-family="Courier,monospace" font-weight="bold" font-size="10.00" fill="white">TRUE</text>
<polygon fill="#8b3a3a" stroke="transparent" points="160.5,-210.5 160.5,-229.5 304.5,-229.5 304.5,-210.5 160.5,-210.5"/>
<text text-anchor="start" x="217" y="-218.5" font-family="Courier,monospace" font-weight="bold" font-size="10.00" fill="white">FALSE</text>
</g>
<!-- handler_finalize -->
<g id="node4" class="node">
<title>handler_finalize</title>
<path fill="lightblue" stroke="black" d="M241,-143C241,-143 84,-143 84,-143 78,-143 72,-137 72,-131 72,-131 72,-102 72,-102 72,-96 78,-90 84,-90 84,-90 241,-90 241,-90 247,-90 253,-96 253,-102 253,-102 253,-131 253,-131 253,-137 247,-143 241,-143"/>
<polygon fill="white" stroke="transparent" points="86.5,-103.5 86.5,-128.5 239.5,-128.5 239.5,-103.5 86.5,-103.5"/>
<polygon fill="none" stroke="black" points="86.5,-103.5 86.5,-128.5 239.5,-128.5 239.5,-103.5 86.5,-103.5"/>
<text text-anchor="start" x="93.5" y="-114.5" font-family="Courier,monospace" font-style="italic" font-size="10.00">p = handler_finalize(p)</text>
</g>
<!-- router_if_empty_branches_flow_line_10_if&#45;&gt;handler_finalize -->
<g id="edge3" class="edge">
<title>router_if_empty_branches_flow_line_10_if&#45;&gt;handler_finalize</title>
<path fill="none" stroke="#8b3a3a" d="M150.25,-189.72C149.36,-180.15 149.24,-170.29 150.5,-161 150.86,-158.33 151.34,-155.59 151.91,-152.84"/>
<polygon fill="#8b3a3a" stroke="#8b3a3a" points="155.33,-153.56 154.23,-143.02 148.52,-151.95 155.33,-153.56"/>
<text text-anchor="middle" x="154" y="-164" font-family="Courier,monospace" font-size="10.00">F</text>
</g>
<!-- router_if_empty_branches_flow_line_10_if&#45;&gt;handler_finalize -->
<g id="edge4" class="edge">
<title>router_if_empty_branches_flow_line_10_if&#45;&gt;handler_finalize</title>
<path fill="none" stroke="#698b69" d="M162.5,-189.9C162.5,-177.45 162.5,-164.52 162.5,-153.1"/>
<polygon fill="#698b69" stroke="#698b69" points="166,-153.1 162.5,-143.1 159,-153.1 166,-153.1"/>
<text text-anchor="middle" x="166" y="-164" font-family="Courier,monospace" font-size="10.00">T</text>
</g>
<!-- end_if_empty_branches_flow -->
<g id="node3" class="node">
<title>end_if_empty_branches_flow</title>
<path fill="lightgreen" stroke="black" d="M271,-53C271,-53 54,-53 54,-53 48,-53 42,-47 42,-41 42,-41 42,-12 42,-12 42,-6 48,0 54,0 54,0 271,0 271,0 277,0 283,-6 283,-12 283,-12 283,-41 283,-41 283,-47 277,-53 271,-53"/>
<polygon fill="white" stroke="transparent" points="56.5,-13.5 56.5,-38.5 269.5,-38.5 269.5,-13.5 56.5,-13.5"/>
<polygon fill="none" stroke="black" points="56.5,-13.5 56.5,-38.5 269.5,-38.5 269.5,-13.5 56.5,-13.5"/>
<text text-anchor="start" x="63.5" y="-24.5" font-family="Courier,monospace" font-style="italic" font-size="10.00">p = end_if_empty_branches_flow(p)</text>
</g>
<!-- handler_finalize&#45;&gt;end_if_empty_branches_flow -->
<g id="edge1" class="edge">
<title>handler_finalize&#45;&gt;end_if_empty_branches_flow</title>
<path fill="none" stroke="black" d="M162.5,-89.57C162.5,-81.34 162.5,-72.08 162.5,-63.28"/>
<polygon fill="black" stroke="black" points="166,-63.24 162.5,-53.24 159,-63.24 166,-63.24"/>
</g>
<!-- handler_setup&#45;&gt;router_if_empty_branches_flow_line_10_if -->
<g id="edge2" class="edge">
<title>handler_setup&#45;&gt;router_if_empty_branches_flow_line_10_if</title>
<path fill="none" stroke="black" d="M162.5,-337.82C162.5,-329.92 162.5,-320.83 162.5,-311.53"/>
<polygon fill="black" stroke="black" points="166,-311.38 162.5,-301.38 159,-311.38 166,-311.38"/>
</g>
</g>
</svg>
