<?xml version="1.0" encoding="UTF-8" standalone="no"?>
<!DOCTYPE svg PUBLIC "-//W3C//DTD SVG 1.1//EN"
 "http://www.w3.org/Graphics/SVG/1.1/DTD/svg11.dtd">
<!-- Generated by graphviz version 2.43.0 (0)
 -->
<!-- Title: flow Pages: 1 -->
<svg width="499pt" height="719pt"
 viewBox="0.00 0.00 499.00 719.00" xmlns="http://www.w3.org/2000/svg" xmlns:xlink="http://www.w3.org/1999/xlink">
<g id="graph0" class="graph" transform="scale(1 1) rotate(0) translate(4 715)">
<title>flow</title>
<polygon fill="white" stroke="transparent" points="-4,4 -4,-715 495,-715 495,4 -4,4"/>
<!-- start_sample_flow -->
<g id="node1" class="node">
<title>start_sample_flow</title>
<path fill="lightgreen" stroke="black" d="M211,-711C211,-711 48,-711 48,-711 42,-711 36,-705 36,-699 36,-699 36,-670 36,-670 36,-664 42,-658 48,-658 48,-658 211,-658 211,-658 217,-658 223,-664 223,-670 223,-670 223,-699 223,-699 223,-705 217,-711 211,-711"/>
<polygon fill="white" stroke="transparent" points="50.5,-671.5 50.5,-696.5 209.5,-696.5 209.5,-671.5 50.5,-671.5"/>
<polygon fill="none" stroke="black" points="50.5,-671.5 50.5,-696.5 209.5,-696.5 209.5,-671.5 50.5,-671.5"/>
<text text-anchor="start" x="57.5" y="-682.5" font-family="Courier,monospace" font-style="italic" font-size="10.00">p = start_sample_flow(p)</text>
</g>
<!-- handler_setup -->
<g id="node7" class="node">
<title>handler_setup</title>
<path fill="lightblue" stroke="black" d="M199,-621C199,-621 60,-621 60,-621 54,-621 48,-615 48,-609 48,-609 48,-580 48,-580 48,-574 54,-568 60,-568 60,-568 199,-568 199,-568 205,-568 211,-574 211,-580 211,-580 211,-609 211,-609 211,-615 205,-621 199,-621"/>
<polygon fill="white" stroke="transparent" points="62.5,-581.5 62.5,-606.5 197.5,-606.5 197.5,-581.5 62.5,-581.5"/>
<polygon fill="none" stroke="black" points="62.5,-581.5 62.5,-606.5 197.5,-606.5 197.5,-581.5 62.5,-581.5"/>
<text text-anchor="start" x="69.5" y="-592.5" font-family="Courier,monospace" font-style="italic" font-size="10.00">p = handler_setup(p)</text>
</g>
<!-- start_sample_flow&#45;&gt;handler_setup -->
<g id="edge9" class="edge">
<title>start_sample_flow&#45;&gt;handler_setup</title>
<path fill="none" stroke="black" d="M129.5,-657.57C129.5,-649.34 129.5,-640.08 129.5,-631.28"/>
<polygon fill="black" stroke="black" points="133,-631.24 129.5,-621.24 126,-631.24 133,-631.24"/>
</g>
<!-- router_sample_flow_line_4_seq -->
<g id="node2" class="node">
<title>router_sample_flow_line_4_seq</title>
<path fill="wheat" stroke="black" d="M247,-373C247,-373 12,-373 12,-373 6,-373 0,-367 0,-361 0,-361 0,-307 0,-307 0,-301 6,-295 12,-295 12,-295 247,-295 247,-295 253,-295 259,-301 259,-307 259,-307 259,-361 259,-361 259,-367 253,-373 247,-373"/>
<polygon fill="white" stroke="transparent" points="14.5,-334 14.5,-359 245.5,-359 245.5,-334 14.5,-334"/>
<polygon fill="none" stroke="black" points="14.5,-334 14.5,-359 245.5,-359 245.5,-334 14.5,-334"/>
<text text-anchor="start" x="21.5" y="-345" font-family="Courier,monospace" font-style="italic" font-size="10.00">p = router_sample_flow_line_4_seq(p)</text>
<polygon fill="white" stroke="transparent" points="14.5,-309 14.5,-334 245.5,-334 245.5,-309 14.5,-309"/>
<polygon fill="none" stroke="black" points="14.5,-309 14.5,-334 245.5,-334 245.5,-309 14.5,-309"/>
<text text-anchor="start" x="21.5" y="-319" font-family="Courier,monospace" font-size="10.00">p[&#39;branch&#39;] = &#39;A&#39;</text>
</g>
<!-- handler_type_a -->
<g id="node8" class="node">
<title>handler_type_a</title>
<path fill="lightblue" stroke="black" d="M202,-245.5C202,-245.5 57,-245.5 57,-245.5 51,-245.5 45,-239.5 45,-233.5 45,-233.5 45,-204.5 45,-204.5 45,-198.5 51,-192.5 57,-192.5 57,-192.5 202,-192.5 202,-192.5 208,-192.5 214,-198.5 214,-204.5 214,-204.5 214,-233.5 214,-233.5 214,-239.5 208,-245.5 202,-245.5"/>
<polygon fill="white" stroke="transparent" points="59.5,-206 59.5,-231 200.5,-231 200.5,-206 59.5,-206"/>
<polygon fill="none" stroke="black" points="59.5,-206 59.5,-231 200.5,-231 200.5,-206 59.5,-206"/>
<text text-anchor="start" x="66.5" y="-217" font-family="Courier,monospace" font-style="italic" font-size="10.00">p = handler_type_a(p)</text>
</g>
<!-- router_sample_flow_line_4_seq&#45;&gt;handler_type_a -->
<g id="edge7" class="edge">
<title>router_sample_flow_line_4_seq&#45;&gt;handler_type_a</title>
<path fill="none" stroke="black" d="M129.5,-294.74C129.5,-282.26 129.5,-268.45 129.5,-256.14"/>
<polygon fill="black" stroke="black" points="133,-255.77 129.5,-245.77 126,-255.77 133,-255.77"/>
</g>
<!-- router_sample_flow_line_8_seq -->
<g id="node3" class="node">
<title>router_sample_flow_line_8_seq</title>
<path fill="wheat" stroke="black" d="M479,-258C479,-258 244,-258 244,-258 238,-258 232,-252 232,-246 232,-246 232,-192 232,-192 232,-186 238,-180 244,-180 244,-180 479,-180 479,-180 485,-180 491,-186 491,-192 491,-192 491,-246 491,-246 491,-252 485,-258 479,-258"/>
<polygon fill="white" stroke="transparent" points="246.5,-219 246.5,-244 477.5,-244 477.5,-219 246.5,-219"/>
<polygon fill="none" stroke="black" points="246.5,-219 246.5,-244 477.5,-244 477.5,-219 246.5,-219"/>
<text text-anchor="start" x="253.5" y="-230" font-family="Courier,monospace" font-style="italic" font-size="10.00">p = router_sample_flow_line_8_seq(p)</text>
<polygon fill="white" stroke="transparent" points="246.5,-194 246.5,-219 477.5,-219 477.5,-194 246.5,-194"/>
<polygon fill="none" stroke="black" points="246.5,-194 246.5,-219 477.5,-219 477.5,-194 246.5,-194"/>
<text text-anchor="start" x="253.5" y="-204" font-family="Courier,monospace" font-size="10.00">p[&#39;branch&#39;] = &#39;B&#39;</text>
</g>
<!-- handler_finalize -->
<g id="node6" class="node">
<title>handler_finalize</title>
<path fill="lightblue" stroke="black" d="M323,-143C323,-143 166,-143 166,-143 160,-143 154,-137 154,-131 154,-131 154,-102 154,-102 154,-96 160,-90 166,-90 166,-90 323,-90 323,-90 329,-90 335,-96 335,-102 335,-102 335,-131 335,-131 335,-137 329,-143 323,-143"/>
<polygon fill="white" stroke="transparent" points="168.5,-103.5 168.5,-128.5 321.5,-128.5 321.5,-103.5 168.5,-103.5"/>
<polygon fill="none" stroke="black" points="168.5,-103.5 168.5,-128.5 321.5,-128.5 321.5,-103.5 168.5,-103.5"/>
<text text-anchor="start" x="175.5" y="-114.5" font-family="Courier,monospace" font-style="italic" font-size="10.00">p = handler_finalize(p)</text>
</g>
<!-- router_sample_flow_line_8_seq&#45;&gt;handler_finalize -->
<g id="edge8" class="edge">
<title>router_sample_flow_line_8_seq&#45;&gt;handler_finalize</title>
<path fill="none" stroke="black" d="M316.93,-179.72C305.5,-169.9 293.31,-159.43 282.26,-149.94"/>
<polygon fill="black" stroke="black" points="284.31,-147.08 274.44,-143.22 279.75,-152.39 284.31,-147.08"/>
</g>
<!-- router_sample_flow_line_3_if -->
<g id="node4" class="node">
<title>router_sample_flow_line_3_if</title>
<path fill="wheat" stroke="black" d="M244,-531C244,-531 15,-531 15,-531 9,-531 3,-525 3,-519 3,-519 3,-432 3,-432 3,-426 9,-420 15,-420 15,-420 244,-420 244,-420 250,-420 256,-426 256,-432 256,-432 256,-519 256,-519 256,-525 250,-531 244,-531"/>
<polygon fill="white" stroke="transparent" points="17.5,-491.5 17.5,-516.5 242.5,-516.5 242.5,-491.5 17.5,-491.5"/>
<polygon fill="none" stroke="black" points="17.5,-491.5 17.5,-516.5 242.5,-516.5 242.5,-491.5 17.5,-491.5"/>
<text text-anchor="start" x="24.5" y="-502.5" font-family="Courier,monospace" font-style="italic" font-size="10.00">p = router_sample_flow_line_3_if(p)</text>
<polygon fill="lightyellow" stroke="transparent" points="17.5,-466.5 17.5,-491.5 242.5,-491.5 242.5,-466.5 17.5,-466.5"/>
<polygon fill="none" stroke="black" points="17.5,-466.5 17.5,-491.5 242.5,-491.5 242.5,-466.5 17.5,-466.5"/>
<text text-anchor="start" x="72" y="-477.5" font-family="Courier,monospace" font-weight="bold" font-size="10.00">if</text>
<text text-anchor="start" x="85" y="-477.5" font-family="Courier,monospace" font-size="10.00"> p[&#39;type&#39;] == &#39;A&#39;</text>
<polygon fill="none" stroke="black" points="17.5,-433.5 17.5,-466.5 242.5,-466.5 242.5,-433.5 17.5,-433.5"/>
<polygon fill="#698b69" stroke="transparent" points="24.5,-440.5 24.5,-459.5 127.5,-459.5 127.5,-440.5 24.5,-440.5"/>
<text text-anchor="start" x="63.5" y="-448.5" font-family="Courier,monospace" font-weight="bold" font-size="10.00" fill="white">TRUE</text>
<polygon fill="#8b3a3a" stroke="transparent" points="127.5,-440.5 127.5,-459.5 235.5,-459.5 235.5,-440.5 127.5,-440.5"/>
<text text-anchor="start" x="166" y="-448.5" font-family="Courier,monospace" font-weight="bold" font-size="10.00" fill="white">FALSE</text>
</g>
<!-- router_sample_flow_line_3_if&#45;&gt;router_sample_flow_line_4_seq -->
<g id="edge6" class="edge">
<title>router_sample_flow_line_3_if&#45;&gt;router_sample_flow_line_4_seq</title>
<path fill="none" stroke="#698b69" d="M129.5,-419.77C129.5,-407.72 129.5,-395.05 129.5,-383.28"/>
<polygon fill="#698b69" stroke="#698b69" points="133,-383.21 129.5,-373.21 126,-383.21 133,-383.21"/>
<text text-anchor="middle" x="133" y="-394" font-family="Courier,monospace" font-size="10.00">T</text>
</g>
<!-- handler_type_b -->
<g id="node9" class="node">
<title>handler_type_b</title>
<path fill="lightblue" stroke="black" d="M434,-360.5C434,-360.5 289,-360.5 289,-360.5 283,-360.5 277,-354.5 277,-348.5 277,-348.5 277,-319.5 277,-319.5 277,-313.5 283,-307.5 289,-307.5 289,-307.5 434,-307.5 434,-307.5 440,-307.5 446,-313.5 446,-319.5 446,-319.5 446,-348.5 446,-348.5 446,-354.5 440,-360.5 434,-360.5"/>
<polygon fill="white" stroke="transparent" points="291.5,-321 291.5,-346 432.5,-346 432.5,-321 291.5,-321"/>
<polygon fill="none" stroke="black" points="291.5,-321 291.5,-346 432.5,-346 432.5,-321 291.5,-321"/>
<text text-anchor="start" x="298.5" y="-332" font-family="Courier,monospace" font-style="italic" font-size="10.00">p = handler_type_b(p)</text>
</g>
<!-- router_sample_flow_line_3_if&#45;&gt;handler_type_b -->
<g id="edge5" class="edge">
<title>router_sample_flow_line_3_if&#45;&gt;handler_type_b</title>
<path fill="none" stroke="#8b3a3a" d="M220.19,-419.97C250.79,-401.57 283.86,-381.68 310.31,-365.78"/>
<polygon fill="#8b3a3a" stroke="#8b3a3a" points="312.25,-368.7 319.02,-360.54 308.64,-362.7 312.25,-368.7"/>
<text text-anchor="middle" x="269" y="-394" font-family="Courier,monospace" font-size="10.00">F</text>
</g>
<!-- end_sample_flow -->
<g id="node5" class="node">
<title>end_sample_flow</title>
<path fill="lightgreen" stroke="black" d="M320,-53C320,-53 169,-53 169,-53 163,-53 157,-47 157,-41 157,-41 157,-12 157,-12 157,-6 163,0 169,0 169,0 320,0 320,0 326,0 332,-6 332,-12 332,-12 332,-41 332,-41 332,-47 326,-53 320,-53"/>
<polygon fill="white" stroke="transparent" points="171.5,-13.5 171.5,-38.5 318.5,-38.5 318.5,-13.5 171.5,-13.5"/>
<polygon fill="none" stroke="black" points="171.5,-13.5 171.5,-38.5 318.5,-38.5 318.5,-13.5 171.5,-13.5"/>
<text text-anchor="start" x="178.5" y="-24.5" font-family="Courier,monospace" font-style="italic" font-size="10.00">p = end_sample_flow(p)</text>
</g>
<!-- handler_finalize&#45;&gt;end_sample_flow -->
<g id="edge1" class="edge">
<title>handler_finalize&#45;&gt;end_sample_flow</title>
<path fill="none" stroke="black" d="M244.5,-89.57C244.5,-81.34 244.5,-72.08 244.5,-63.28"/>
<polygon fill="black" stroke="black" points="248,-63.24 244.5,-53.24 241,-63.24 248,-63.24"/>
</g>
<!-- handler_setup&#45;&gt;router_sample_flow_line_3_if -->
<g id="edge2" class="edge">
<title>handler_setup&#45;&gt;router_sample_flow_line_3_if</title>
<path fill="none" stroke="black" d="M129.5,-567.82C129.5,-559.92 129.5,-550.83 129.5,-541.53"/>
<polygon fill="black" stroke="black" points="133,-541.38 129.5,-531.38 126,-541.38 133,-541.38"/>
</g>
<!-- handler_type_a&#45;&gt;handler_finalize -->
<g id="edge3" class="edge">
<title>handler_type_a&#45;&gt;handler_finalize</title>
<path fill="none" stroke="black" d="M158.82,-192.38C173.69,-179.39 191.9,-163.47 207.7,-149.66"/>
<polygon fill="black" stroke="black" points="210.01,-152.29 215.24,-143.07 205.4,-147.02 210.01,-152.29"/>
</g>
<!-- handler_type_b&#45;&gt;router_sample_flow_line_8_seq -->
<g id="edge4" class="edge">
<title>handler_type_b&#45;&gt;router_sample_flow_line_8_seq</title>
<path fill="none" stroke="black" d="M361.5,-307.36C361.5,-295.84 361.5,-281.85 361.5,-268.47"/>
<polygon fill="black" stroke="black" points="365,-268.42 361.5,-258.42 358,-268.42 365,-268.42"/>
</g>
</g>
</svg>
