<?xml version="1.0" encoding="UTF-8" standalone="no"?>
<!DOCTYPE svg PUBLIC "-//W3C//DTD SVG 1.1//EN"
 "http://www.w3.org/Graphics/SVG/1.1/DTD/svg11.dtd">
<!-- Generated by graphviz version 2.43.0 (0)
 -->
<!-- Title: flow Pages: 1 -->
<svg width="579pt" height="1107pt"
 viewBox="0.00 0.00 579.07 1107.00" xmlns="http://www.w3.org/2000/svg" xmlns:xlink="http://www.w3.org/1999/xlink">
<g id="graph0" class="graph" transform="scale(1 1) rotate(0) translate(4 1103)">
<title>flow</title>
<polygon fill="white" stroke="transparent" points="-4,4 -4,-1103 575.07,-1103 575.07,4 -4,4"/>
<!-- start_while_nested_flow -->
<g id="node1" class="node">
<title>start_while_nested_flow</title>
<path fill="lightgreen" stroke="black" d="M262,-1099C262,-1099 63,-1099 63,-1099 57,-1099 51,-1093 51,-1087 51,-1087 51,-1058 51,-1058 51,-1052 57,-1046 63,-1046 63,-1046 262,-1046 262,-1046 268,-1046 274,-1052 274,-1058 274,-1058 274,-1087 274,-1087 274,-1093 268,-1099 262,-1099"/>
<polygon fill="white" stroke="transparent" points="65.5,-1059.5 65.5,-1084.5 260.5,-1084.5 260.5,-1059.5 65.5,-1059.5"/>
<polygon fill="none" stroke="black" points="65.5,-1059.5 65.5,-1084.5 260.5,-1084.5 260.5,-1059.5 65.5,-1059.5"/>
<text text-anchor="start" x="72.5" y="-1070.5" font-family="Courier,monospace" font-style="italic" font-size="10.00">p = start_while_nested_flow(p)</text>
</g>
<!-- handler_init -->
<g id="node10" class="node">
<title>handler_init</title>
<path fill="lightblue" stroke="black" d="M229,-1009C229,-1009 96,-1009 96,-1009 90,-1009 84,-1003 84,-997 84,-997 84,-968 84,-968 84,-962 90,-956 96,-956 96,-956 229,-956 229,-956 235,-956 241,-962 241,-968 241,-968 241,-997 241,-997 241,-1003 235,-1009 229,-1009"/>
<polygon fill="white" stroke="transparent" points="98.5,-969.5 98.5,-994.5 227.5,-994.5 227.5,-969.5 98.5,-969.5"/>
<polygon fill="none" stroke="black" points="98.5,-969.5 98.5,-994.5 227.5,-994.5 227.5,-969.5 98.5,-969.5"/>
<text text-anchor="start" x="105.5" y="-980.5" font-family="Courier,monospace" font-style="italic" font-size="10.00">p = handler_init(p)</text>
</g>
<!-- start_while_nested_flow&#45;&gt;handler_init -->
<g id="edge14" class="edge">
<title>start_while_nested_flow&#45;&gt;handler_init</title>
<path fill="none" stroke="black" d="M162.5,-1045.57C162.5,-1037.34 162.5,-1028.08 162.5,-1019.28"/>
<polygon fill="black" stroke="black" points="166,-1019.24 162.5,-1009.24 159,-1019.24 166,-1019.24"/>
</g>
<!-- router_while_nested_flow_line_16_seq -->
<g id="node2" class="node">
<title>router_while_nested_flow_line_16_seq</title>
<path fill="wheat" stroke="black" d="M301,-168C301,-168 24,-168 24,-168 18,-168 12,-162 12,-156 12,-156 12,-102 12,-102 12,-96 18,-90 24,-90 24,-90 301,-90 301,-90 307,-90 313,-96 313,-102 313,-102 313,-156 313,-156 313,-162 307,-168 301,-168"/>
<polygon fill="white" stroke="transparent" points="26.5,-129 26.5,-154 299.5,-154 299.5,-129 26.5,-129"/>
<polygon fill="none" stroke="black" points="26.5,-129 26.5,-154 299.5,-154 299.5,-129 26.5,-129"/>
<text text-anchor="start" x="33.5" y="-140" font-family="Courier,monospace" font-style="italic" font-size="10.00">p = router_while_nested_flow_line_16_seq(p)</text>
<polygon fill="white" stroke="transparent" points="26.5,-104 26.5,-129 299.5,-129 299.5,-104 26.5,-104"/>
<polygon fill="none" stroke="black" points="26.5,-104 26.5,-129 299.5,-129 299.5,-104 26.5,-104"/>
<text text-anchor="start" x="33.5" y="-114" font-family="Courier,monospace" font-size="10.00">p[&#39;j&#39;] += 1</text>
</g>
<!-- handler_inner -->
<g id="node11" class="node">
<title>handler_inner</title>
<path fill="lightblue" stroke="black" d="M232,-53C232,-53 93,-53 93,-53 87,-53 81,-47 81,-41 81,-41 81,-12 81,-12 81,-6 87,0 93,0 93,0 232,0 232,0 238,0 244,-6 244,-12 244,-12 244,-41 244,-41 244,-47 238,-53 232,-53"/>
<polygon fill="white" stroke="transparent" points="95.5,-13.5 95.5,-38.5 230.5,-38.5 230.5,-13.5 95.5,-13.5"/>
<polygon fill="none" stroke="black" points="95.5,-13.5 95.5,-38.5 230.5,-38.5 230.5,-13.5 95.5,-13.5"/>
<text text-anchor="start" x="102.5" y="-24.5" font-family="Courier,monospace" font-style="italic" font-size="10.00">p = handler_inner(p)</text>
</g>
<!-- router_while_nested_flow_line_16_seq&#45;&gt;handler_inner -->
<g id="edge13" class="edge">
<title>router_while_nested_flow_line_16_seq&#45;&gt;handler_inner</title>
<path fill="none" stroke="black" d="M162.5,-89.72C162.5,-81.04 162.5,-71.86 162.5,-63.29"/>
<polygon fill="black" stroke="black" points="166,-63.22 162.5,-53.22 159,-63.22 166,-63.22"/>
</g>
<!-- router_while_nested_flow_line_15_while_1 -->
<g id="node3" class="node">
<title>router_while_nested_flow_line_15_while_1</title>
<path fill="wheat" stroke="black" d="M313,-326C313,-326 12,-326 12,-326 6,-326 0,-320 0,-314 0,-314 0,-227 0,-227 0,-221 6,-215 12,-215 12,-215 313,-215 313,-215 319,-215 325,-221 325,-227 325,-227 325,-314 325,-314 325,-320 319,-326 313,-326"/>
<polygon fill="white" stroke="transparent" points="14.5,-286.5 14.5,-311.5 311.5,-311.5 311.5,-286.5 14.5,-286.5"/>
<polygon fill="none" stroke="black" points="14.5,-286.5 14.5,-311.5 311.5,-311.5 311.5,-286.5 14.5,-286.5"/>
<text text-anchor="start" x="21.5" y="-297.5" font-family="Courier,monospace" font-style="italic" font-size="10.00">p = router_while_nested_flow_line_15_while_1(p)</text>
<polygon fill="lightyellow" stroke="transparent" points="14.5,-261.5 14.5,-286.5 311.5,-286.5 311.5,-261.5 14.5,-261.5"/>
<polygon fill="none" stroke="black" points="14.5,-261.5 14.5,-286.5 311.5,-286.5 311.5,-261.5 14.5,-261.5"/>
<text text-anchor="start" x="96" y="-272.5" font-family="Courier,monospace" font-weight="bold" font-size="10.00">if</text>
<text text-anchor="start" x="109" y="-272.5" font-family="Courier,monospace" font-size="10.00"> p[&#39;j&#39;] &lt; p[&#39;max_j&#39;]</text>
<polygon fill="none" stroke="black" points="14.5,-228.5 14.5,-261.5 311.5,-261.5 311.5,-228.5 14.5,-228.5"/>
<polygon fill="#698b69" stroke="transparent" points="21.5,-235.5 21.5,-254.5 160.5,-254.5 160.5,-235.5 21.5,-235.5"/>
<text text-anchor="start" x="78.5" y="-243.5" font-family="Courier,monospace" font-weight="bold" font-size="10.00" fill="white">TRUE</text>
<polygon fill="#8b3a3a" stroke="transparent" points="160.5,-235.5 160.5,-254.5 304.5,-254.5 304.5,-235.5 160.5,-235.5"/>
<text text-anchor="start" x="217" y="-243.5" font-family="Courier,monospace" font-weight="bold" font-size="10.00" fill="white">FALSE</text>
</g>
<!-- router_while_nested_flow_line_15_while_1&#45;&gt;router_while_nested_flow_line_16_seq -->
<g id="edge12" class="edge">
<title>router_while_nested_flow_line_15_while_1&#45;&gt;router_while_nested_flow_line_16_seq</title>
<path fill="none" stroke="#698b69" d="M162.5,-214.77C162.5,-202.72 162.5,-190.05 162.5,-178.28"/>
<polygon fill="#698b69" stroke="#698b69" points="166,-178.21 162.5,-168.21 159,-178.21 166,-178.21"/>
<text text-anchor="middle" x="166" y="-189" font-family="Courier,monospace" font-size="10.00">T</text>
</g>
<!-- handler_outer_end -->
<g id="node13" class="node">
<title>handler_outer_end</title>
<path fill="lightblue" stroke="black" d="M506,-155.5C506,-155.5 343,-155.5 343,-155.5 337,-155.5 331,-149.5 331,-143.5 331,-143.5 331,-114.5 331,-114.5 331,-108.5 337,-102.5 343,-102.5 343,-102.5 506,-102.5 506,-102.5 512,-102.5 518,-108.5 518,-114.5 518,-114.5 518,-143.5 518,-143.5 518,-149.5 512,-155.5 506,-155.5"/>
<polygon fill="white" stroke="transparent" points="345.5,-116 345.5,-141 504.5,-141 504.5,-116 345.5,-116"/>
<polygon fill="none" stroke="black" points="345.5,-116 345.5,-141 504.5,-141 504.5,-116 345.5,-116"/>
<text text-anchor="start" x="352.5" y="-127" font-family="Courier,monospace" font-style="italic" font-size="10.00">p = handler_outer_end(p)</text>
</g>
<!-- router_while_nested_flow_line_15_while_1&#45;&gt;handler_outer_end -->
<g id="edge11" class="edge">
<title>router_while_nested_flow_line_15_while_1&#45;&gt;handler_outer_end</title>
<path fill="none" stroke="#8b3a3a" d="M231.42,-214.98C246.17,-204.62 261.98,-194.4 277.5,-186 284.33,-182.3 314.11,-170.84 345.09,-159.24"/>
<polygon fill="#8b3a3a" stroke="#8b3a3a" points="346.58,-162.42 354.72,-155.64 344.13,-155.86 346.58,-162.42"/>
<text text-anchor="middle" x="281" y="-189" font-family="Courier,monospace" font-size="10.00">F</text>
</g>
<!-- router_while_nested_flow_line_14_seq -->
<g id="node4" class="node">
<title>router_while_nested_flow_line_14_seq</title>
<path fill="wheat" stroke="black" d="M301,-441C301,-441 24,-441 24,-441 18,-441 12,-435 12,-429 12,-429 12,-375 12,-375 12,-369 18,-363 24,-363 24,-363 301,-363 301,-363 307,-363 313,-369 313,-375 313,-375 313,-429 313,-429 313,-435 307,-441 301,-441"/>
<polygon fill="white" stroke="transparent" points="26.5,-402 26.5,-427 299.5,-427 299.5,-402 26.5,-402"/>
<polygon fill="none" stroke="black" points="26.5,-402 26.5,-427 299.5,-427 299.5,-402 26.5,-402"/>
<text text-anchor="start" x="33.5" y="-413" font-family="Courier,monospace" font-style="italic" font-size="10.00">p = router_while_nested_flow_line_14_seq(p)</text>
<polygon fill="white" stroke="transparent" points="26.5,-377 26.5,-402 299.5,-402 299.5,-377 26.5,-377"/>
<polygon fill="none" stroke="black" points="26.5,-377 26.5,-402 299.5,-402 299.5,-377 26.5,-377"/>
<text text-anchor="start" x="33.5" y="-387" font-family="Courier,monospace" font-size="10.00">p[&#39;j&#39;] = 0</text>
</g>
<!-- router_while_nested_flow_line_14_seq&#45;&gt;router_while_nested_flow_line_15_while_1 -->
<g id="edge10" class="edge">
<title>router_while_nested_flow_line_14_seq&#45;&gt;router_while_nested_flow_line_15_while_1</title>
<path fill="none" stroke="black" d="M162.5,-362.85C162.5,-354.5 162.5,-345.44 162.5,-336.37"/>
<polygon fill="black" stroke="black" points="166,-336.17 162.5,-326.17 159,-336.17 166,-336.17"/>
</g>
<!-- router_while_nested_flow_line_12_seq -->
<g id="node5" class="node">
<title>router_while_nested_flow_line_12_seq</title>
<path fill="wheat" stroke="black" d="M301,-646C301,-646 24,-646 24,-646 18,-646 12,-640 12,-634 12,-634 12,-580 12,-580 12,-574 18,-568 24,-568 24,-568 301,-568 301,-568 307,-568 313,-574 313,-580 313,-580 313,-634 313,-634 313,-640 307,-646 301,-646"/>
<polygon fill="white" stroke="transparent" points="26.5,-607 26.5,-632 299.5,-632 299.5,-607 26.5,-607"/>
<polygon fill="none" stroke="black" points="26.5,-607 26.5,-632 299.5,-632 299.5,-607 26.5,-607"/>
<text text-anchor="start" x="33.5" y="-618" font-family="Courier,monospace" font-style="italic" font-size="10.00">p = router_while_nested_flow_line_12_seq(p)</text>
<polygon fill="white" stroke="transparent" points="26.5,-582 26.5,-607 299.5,-607 299.5,-582 26.5,-582"/>
<polygon fill="none" stroke="black" points="26.5,-582 26.5,-607 299.5,-607 299.5,-582 26.5,-582"/>
<text text-anchor="start" x="33.5" y="-592" font-family="Courier,monospace" font-size="10.00">p[&#39;i&#39;] += 1</text>
</g>
<!-- handler_outer -->
<g id="node12" class="node">
<title>handler_outer</title>
<path fill="lightblue" stroke="black" d="M232,-531C232,-531 93,-531 93,-531 87,-531 81,-525 81,-519 81,-519 81,-490 81,-490 81,-484 87,-478 93,-478 93,-478 232,-478 232,-478 238,-478 244,-484 244,-490 244,-490 244,-519 244,-519 244,-525 238,-531 232,-531"/>
<polygon fill="white" stroke="transparent" points="95.5,-491.5 95.5,-516.5 230.5,-516.5 230.5,-491.5 95.5,-491.5"/>
<polygon fill="none" stroke="black" points="95.5,-491.5 95.5,-516.5 230.5,-516.5 230.5,-491.5 95.5,-491.5"/>
<text text-anchor="start" x="102.5" y="-502.5" font-family="Courier,monospace" font-style="italic" font-size="10.00">p = handler_outer(p)</text>
</g>
<!-- router_while_nested_flow_line_12_seq&#45;&gt;handler_outer -->
<g id="edge9" class="edge">
<title>router_while_nested_flow_line_12_seq&#45;&gt;handler_outer</title>
<path fill="none" stroke="black" d="M162.5,-567.72C162.5,-559.04 162.5,-549.86 162.5,-541.29"/>
<polygon fill="black" stroke="black" points="166,-541.22 162.5,-531.22 159,-541.22 166,-541.22"/>
</g>
<!-- router_while_nested_flow_line_11_while_0 -->
<g id="node6" class="node">
<title>router_while_nested_flow_line_11_while_0</title>
<path fill="wheat" stroke="black" d="M313,-804C313,-804 12,-804 12,-804 6,-804 0,-798 0,-792 0,-792 0,-705 0,-705 0,-699 6,-693 12,-693 12,-693 313,-693 313,-693 319,-693 325,-699 325,-705 325,-705 325,-792 325,-792 325,-798 319,-804 313,-804"/>
<polygon fill="white" stroke="transparent" points="14.5,-764.5 14.5,-789.5 311.5,-789.5 311.5,-764.5 14.5,-764.5"/>
<polygon fill="none" stroke="black" points="14.5,-764.5 14.5,-789.5 311.5,-789.5 311.5,-764.5 14.5,-764.5"/>
<text text-anchor="start" x="21.5" y="-775.5" font-family="Courier,monospace" font-style="italic" font-size="10.00">p = router_while_nested_flow_line_11_while_0(p)</text>
<polygon fill="lightyellow" stroke="transparent" points="14.5,-739.5 14.5,-764.5 311.5,-764.5 311.5,-739.5 14.5,-739.5"/>
<polygon fill="none" stroke="black" points="14.5,-739.5 14.5,-764.5 311.5,-764.5 311.5,-739.5 14.5,-739.5"/>
<text text-anchor="start" x="96" y="-750.5" font-family="Courier,monospace" font-weight="bold" font-size="10.00">if</text>
<text text-anchor="start" x="109" y="-750.5" font-family="Courier,monospace" font-size="10.00"> p[&#39;i&#39;] &lt; p[&#39;max_i&#39;]</text>
<polygon fill="none" stroke="black" points="14.5,-706.5 14.5,-739.5 311.5,-739.5 311.5,-706.5 14.5,-706.5"/>
<polygon fill="#698b69" stroke="transparent" points="21.5,-713.5 21.5,-732.5 160.5,-732.5 160.5,-713.5 21.5,-713.5"/>
<text text-anchor="start" x="78.5" y="-721.5" font-family="Courier,monospace" font-weight="bold" font-size="10.00" fill="white">TRUE</text>
<polygon fill="#8b3a3a" stroke="transparent" points="160.5,-713.5 160.5,-732.5 304.5,-732.5 304.5,-713.5 160.5,-713.5"/>
<text text-anchor="start" x="217" y="-721.5" font-family="Courier,monospace" font-weight="bold" font-size="10.00" fill="white">FALSE</text>
</g>
<!-- router_while_nested_flow_line_11_while_0&#45;&gt;router_while_nested_flow_line_12_seq -->
<g id="edge8" class="edge">
<title>router_while_nested_flow_line_11_while_0&#45;&gt;router_while_nested_flow_line_12_seq</title>
<path fill="none" stroke="#698b69" d="M162.5,-692.77C162.5,-680.72 162.5,-668.05 162.5,-656.28"/>
<polygon fill="#698b69" stroke="#698b69" points="166,-656.21 162.5,-646.21 159,-656.21 166,-656.21"/>
<text text-anchor="middle" x="166" y="-667" font-family="Courier,monospace" font-size="10.00">T</text>
</g>
<!-- handler_finalize -->
<g id="node9" class="node">
<title>handler_finalize</title>
<path fill="lightblue" stroke="black" d="M500,-633.5C500,-633.5 343,-633.5 343,-633.5 337,-633.5 331,-627.5 331,-621.5 331,-621.5 331,-592.5 331,-592.5 331,-586.5 337,-580.5 343,-580.5 343,-580.5 500,-580.5 500,-580.5 506,-580.5 512,-586.5 512,-592.5 512,-592.5 512,-621.5 512,-621.5 512,-627.5 506,-633.5 500,-633.5"/>
<polygon fill="white" stroke="transparent" points="345.5,-594 345.5,-619 498.5,-619 498.5,-594 345.5,-594"/>
<polygon fill="none" stroke="black" points="345.5,-594 345.5,-619 498.5,-619 498.5,-594 345.5,-594"/>
<text text-anchor="start" x="352.5" y="-605" font-family="Courier,monospace" font-style="italic" font-size="10.00">p = handler_finalize(p)</text>
</g>
<!-- router_while_nested_flow_line_11_while_0&#45;&gt;handler_finalize -->
<g id="edge7" class="edge">
<title>router_while_nested_flow_line_11_while_0&#45;&gt;handler_finalize</title>
<path fill="none" stroke="#8b3a3a" d="M263.75,-692.97C298.21,-674.41 335.47,-654.34 365.13,-638.36"/>
<polygon fill="#8b3a3a" stroke="#8b3a3a" points="366.93,-641.37 374.07,-633.54 363.61,-635.21 366.93,-641.37"/>
<text text-anchor="middle" x="319" y="-667" font-family="Courier,monospace" font-size="10.00">F</text>
</g>
<!-- router_while_nested_flow_line_10_seq -->
<g id="node7" class="node">
<title>router_while_nested_flow_line_10_seq</title>
<path fill="wheat" stroke="black" d="M301,-919C301,-919 24,-919 24,-919 18,-919 12,-913 12,-907 12,-907 12,-853 12,-853 12,-847 18,-841 24,-841 24,-841 301,-841 301,-841 307,-841 313,-847 313,-853 313,-853 313,-907 313,-907 313,-913 307,-919 301,-919"/>
<polygon fill="white" stroke="transparent" points="26.5,-880 26.5,-905 299.5,-905 299.5,-880 26.5,-880"/>
<polygon fill="none" stroke="black" points="26.5,-880 26.5,-905 299.5,-905 299.5,-880 26.5,-880"/>
<text text-anchor="start" x="33.5" y="-891" font-family="Courier,monospace" font-style="italic" font-size="10.00">p = router_while_nested_flow_line_10_seq(p)</text>
<polygon fill="white" stroke="transparent" points="26.5,-855 26.5,-880 299.5,-880 299.5,-855 26.5,-855"/>
<polygon fill="none" stroke="black" points="26.5,-855 26.5,-880 299.5,-880 299.5,-855 26.5,-855"/>
<text text-anchor="start" x="33.5" y="-865" font-family="Courier,monospace" font-size="10.00">p[&#39;i&#39;] = 0</text>
</g>
<!-- router_while_nested_flow_line_10_seq&#45;&gt;router_while_nested_flow_line_11_while_0 -->
<g id="edge6" class="edge">
<title>router_while_nested_flow_line_10_seq&#45;&gt;router_while_nested_flow_line_11_while_0</title>
<path fill="none" stroke="black" d="M162.5,-840.85C162.5,-832.5 162.5,-823.44 162.5,-814.37"/>
<polygon fill="black" stroke="black" points="166,-814.17 162.5,-804.17 159,-814.17 166,-814.17"/>
</g>
<!-- end_while_nested_flow -->
<g id="node8" class="node">
<title>end_while_nested_flow</title>
<path fill="lightgreen" stroke="black" d="M515,-531C515,-531 328,-531 328,-531 322,-531 316,-525 316,-519 316,-519 316,-490 316,-490 316,-484 322,-478 328,-478 328,-478 515,-478 515,-478 521,-478 527,-484 527,-490 527,-490 527,-519 527,-519 527,-525 521,-531 515,-531"/>
<polygon fill="white" stroke="transparent" points="330.5,-491.5 330.5,-516.5 513.5,-516.5 513.5,-491.5 330.5,-491.5"/>
<polygon fill="none" stroke="black" points="330.5,-491.5 330.5,-516.5 513.5,-516.5 513.5,-491.5 330.5,-491.5"/>
<text text-anchor="start" x="337.5" y="-502.5" font-family="Courier,monospace" font-style="italic" font-size="10.00">p = end_while_nested_flow(p)</text>
</g>
<!-- handler_finalize&#45;&gt;end_while_nested_flow -->
<g id="edge1" class="edge">
<title>handler_finalize&#45;&gt;end_while_nested_flow</title>
<path fill="none" stroke="black" d="M421.5,-580.38C421.5,-568.45 421.5,-554.06 421.5,-541.09"/>
<polygon fill="black" stroke="black" points="425,-541.07 421.5,-531.07 418,-541.07 425,-541.07"/>
</g>
<!-- handler_init&#45;&gt;router_while_nested_flow_line_10_seq -->
<g id="edge2" class="edge">
<title>handler_init&#45;&gt;router_while_nested_flow_line_10_seq</title>
<path fill="none" stroke="black" d="M162.5,-955.88C162.5,-947.77 162.5,-938.52 162.5,-929.35"/>
<polygon fill="black" stroke="black" points="166,-929.1 162.5,-919.1 159,-929.1 166,-929.1"/>
</g>
<!-- handler_inner&#45;&gt;router_while_nested_flow_line_15_while_1 -->
<g id="edge3" class="edge">
<title>handler_inner&#45;&gt;router_while_nested_flow_line_15_while_1</title>
<path fill="none" stroke="black" d="M244.13,-29.71C340.19,-34.24 491.12,-48.02 526.5,-90 594.2,-170.32 459.6,-217.97 335.36,-243.75"/>
<polygon fill="black" stroke="black" points="334.39,-240.38 325.29,-245.8 335.79,-247.24 334.39,-240.38"/>
</g>
<!-- handler_outer&#45;&gt;router_while_nested_flow_line_14_seq -->
<g id="edge4" class="edge">
<title>handler_outer&#45;&gt;router_while_nested_flow_line_14_seq</title>
<path fill="none" stroke="black" d="M162.5,-477.88C162.5,-469.77 162.5,-460.52 162.5,-451.35"/>
<polygon fill="black" stroke="black" points="166,-451.1 162.5,-441.1 159,-451.1 166,-451.1"/>
</g>
<!-- handler_outer_end&#45;&gt;router_while_nested_flow_line_11_while_0 -->
<g id="edge5" class="edge">
<title>handler_outer_end&#45;&gt;router_while_nested_flow_line_11_while_0</title>
<path fill="none" stroke="black" d="M442.15,-155.77C496.27,-238.21 648.72,-498.73 521.5,-646 495.87,-675.67 414.18,-699.98 335.2,-717.36"/>
<polygon fill="black" stroke="black" points="334.12,-714.01 325.08,-719.55 335.6,-720.86 334.12,-714.01"/>
</g>
</g>
</svg>
