<?xml version="1.0" encoding="UTF-8" standalone="no"?>
<!DOCTYPE svg PUBLIC "-//W3C//DTD SVG 1.1//EN"
 "http://www.w3.org/Graphics/SVG/1.1/DTD/svg11.dtd">
<!-- Generated by graphviz version 2.43.0 (0)
 -->
<!-- Title: flow Pages: 1 -->
<svg width="875pt" height="293pt"
 viewBox="0.00 0.00 875.00 293.00" xmlns="http://www.w3.org/2000/svg" xmlns:xlink="http://www.w3.org/1999/xlink">
<g id="graph0" class="graph" transform="scale(1 1) rotate(0) translate(4 289)">
<title>flow</title>
<polygon fill="white" stroke="transparent" points="-4,4 -4,-289 871,-289 871,4 -4,4"/>
<g id="clust1" class="cluster">
<title>cluster_try_0</title>
<polygon fill="none" stroke="#8b8989" stroke-dasharray="5,2" points="58.5,-82 58.5,-170 250.5,-170 250.5,-82 58.5,-82"/>
<text text-anchor="middle" x="154.5" y="-158" font-family="Courier,monospace" font-size="10.00">try</text>
</g>
<!-- start_resilient_pipeline -->
<g id="node1" class="node">
<title>start_resilient_pipeline</title>
<path fill="lightgreen" stroke="black" d="M217,-272.5C217,-272.5 12,-272.5 12,-272.5 6,-272.5 0,-266.5 0,-260.5 0,-260.5 0,-231.5 0,-231.5 0,-225.5 6,-219.5 12,-219.5 12,-219.5 217,-219.5 217,-219.5 223,-219.5 229,-225.5 229,-231.5 229,-231.5 229,-260.5 229,-260.5 229,-266.5 223,-272.5 217,-272.5"/>
<polygon fill="white" stroke="transparent" points="14.5,-233 14.5,-258 215.5,-258 215.5,-233 14.5,-233"/>
<polygon fill="none" stroke="black" points="14.5,-233 14.5,-258 215.5,-258 215.5,-233 14.5,-233"/>
<text text-anchor="start" x="21.5" y="-244" font-family="Courier,monospace" font-style="italic" font-size="10.00">p = start_resilient_pipeline(p)</text>
</g>
<!-- risky_operation -->
<g id="node7" class="node">
<title>risky_operation</title>
<path fill="lightblue" stroke="black" d="M230,-143C230,-143 79,-143 79,-143 73,-143 67,-137 67,-131 67,-131 67,-102 67,-102 67,-96 73,-90 79,-90 79,-90 230,-90 230,-90 236,-90 242,-96 242,-102 242,-102 242,-131 242,-131 242,-137 236,-143 230,-143"/>
<polygon fill="white" stroke="transparent" points="81.5,-103.5 81.5,-128.5 228.5,-128.5 228.5,-103.5 81.5,-103.5"/>
<polygon fill="none" stroke="black" points="81.5,-103.5 81.5,-128.5 228.5,-128.5 228.5,-103.5 81.5,-103.5"/>
<text text-anchor="start" x="88.5" y="-114.5" font-family="Courier,monospace" font-style="italic" font-size="10.00">p = risky_operation(p)</text>
</g>
<!-- start_resilient_pipeline&#45;&gt;risky_operation -->
<g id="edge8" class="edge">
<title>start_resilient_pipeline&#45;&gt;risky_operation</title>
<path fill="none" stroke="black" d="M122.59,-219.2C128.59,-200.1 136.82,-173.86 143.42,-152.82"/>
<polygon fill="black" stroke="black" points="146.76,-153.85 146.42,-143.26 140.08,-151.76 146.76,-153.85"/>
</g>
<!-- router_resilient_pipeline_line_5_seq -->
<g id="node2" class="node">
<title>router_resilient_pipeline_line_5_seq</title>
<path fill="wheat" stroke="black" d="M536,-285C536,-285 259,-285 259,-285 253,-285 247,-279 247,-273 247,-273 247,-219 247,-219 247,-213 253,-207 259,-207 259,-207 536,-207 536,-207 542,-207 548,-213 548,-219 548,-219 548,-273 548,-273 548,-279 542,-285 536,-285"/>
<polygon fill="white" stroke="transparent" points="261.5,-246 261.5,-271 534.5,-271 534.5,-246 261.5,-246"/>
<polygon fill="none" stroke="black" points="261.5,-246 261.5,-271 534.5,-271 534.5,-246 261.5,-246"/>
<text text-anchor="start" x="268.5" y="-257" font-family="Courier,monospace" font-style="italic" font-size="10.00">p = router_resilient_pipeline_line_5_seq(p)</text>
<polygon fill="white" stroke="transparent" points="261.5,-221 261.5,-246 534.5,-246 534.5,-221 261.5,-221"/>
<polygon fill="none" stroke="black" points="261.5,-221 261.5,-246 534.5,-246 534.5,-221 261.5,-221"/>
<text text-anchor="start" x="268.5" y="-231" font-family="Courier,monospace" font-size="10.00">p[&#39;error_type&#39;] = &#39;known&#39;</text>
</g>
<!-- handle_known_error -->
<g id="node5" class="node">
<title>handle_known_error</title>
<path fill="lightblue" stroke="black" d="M482,-143C482,-143 313,-143 313,-143 307,-143 301,-137 301,-131 301,-131 301,-102 301,-102 301,-96 307,-90 313,-90 313,-90 482,-90 482,-90 488,-90 494,-96 494,-102 494,-102 494,-131 494,-131 494,-137 488,-143 482,-143"/>
<polygon fill="white" stroke="transparent" points="315.5,-103.5 315.5,-128.5 480.5,-128.5 480.5,-103.5 315.5,-103.5"/>
<polygon fill="none" stroke="black" points="315.5,-103.5 315.5,-128.5 480.5,-128.5 480.5,-103.5 315.5,-103.5"/>
<text text-anchor="start" x="322.5" y="-114.5" font-family="Courier,monospace" font-style="italic" font-size="10.00">p = handle_known_error(p)</text>
</g>
<!-- router_resilient_pipeline_line_5_seq&#45;&gt;handle_known_error -->
<g id="edge6" class="edge">
<title>router_resilient_pipeline_line_5_seq&#45;&gt;handle_known_error</title>
<path fill="none" stroke="black" d="M397.5,-206.75C397.5,-189.9 397.5,-170.21 397.5,-153.61"/>
<polygon fill="black" stroke="black" points="401,-153.22 397.5,-143.22 394,-153.22 401,-153.22"/>
</g>
<!-- router_resilient_pipeline_line_8_seq -->
<g id="node3" class="node">
<title>router_resilient_pipeline_line_8_seq</title>
<path fill="wheat" stroke="black" d="M855,-285C855,-285 578,-285 578,-285 572,-285 566,-279 566,-273 566,-273 566,-219 566,-219 566,-213 572,-207 578,-207 578,-207 855,-207 855,-207 861,-207 867,-213 867,-219 867,-219 867,-273 867,-273 867,-279 861,-285 855,-285"/>
<polygon fill="white" stroke="transparent" points="580.5,-246 580.5,-271 853.5,-271 853.5,-246 580.5,-246"/>
<polygon fill="none" stroke="black" points="580.5,-246 580.5,-271 853.5,-271 853.5,-246 580.5,-246"/>
<text text-anchor="start" x="587.5" y="-257" font-family="Courier,monospace" font-style="italic" font-size="10.00">p = router_resilient_pipeline_line_8_seq(p)</text>
<polygon fill="white" stroke="transparent" points="580.5,-221 580.5,-246 853.5,-246 853.5,-221 580.5,-221"/>
<polygon fill="none" stroke="black" points="580.5,-221 580.5,-246 853.5,-246 853.5,-221 580.5,-221"/>
<text text-anchor="start" x="587.5" y="-231" font-family="Courier,monospace" font-size="10.00">p[&#39;error_type&#39;] = &#39;unknown&#39;</text>
</g>
<!-- handle_unknown_error -->
<g id="node6" class="node">
<title>handle_unknown_error</title>
<path fill="lightblue" stroke="black" d="M739,-143C739,-143 558,-143 558,-143 552,-143 546,-137 546,-131 546,-131 546,-102 546,-102 546,-96 552,-90 558,-90 558,-90 739,-90 739,-90 745,-90 751,-96 751,-102 751,-102 751,-131 751,-131 751,-137 745,-143 739,-143"/>
<polygon fill="white" stroke="transparent" points="560.5,-103.5 560.5,-128.5 737.5,-128.5 737.5,-103.5 560.5,-103.5"/>
<polygon fill="none" stroke="black" points="560.5,-103.5 560.5,-128.5 737.5,-128.5 737.5,-103.5 560.5,-103.5"/>
<text text-anchor="start" x="567.5" y="-114.5" font-family="Courier,monospace" font-style="italic" font-size="10.00">p = handle_unknown_error(p)</text>
</g>
<!-- router_resilient_pipeline_line_8_seq&#45;&gt;handle_unknown_error -->
<g id="edge7" class="edge">
<title>router_resilient_pipeline_line_8_seq&#45;&gt;handle_unknown_error</title>
<path fill="none" stroke="black" d="M695.18,-206.82C691.91,-200.87 688.59,-194.78 685.5,-189 679.1,-177.04 672.23,-163.87 666.17,-152.13"/>
<polygon fill="black" stroke="black" points="669.2,-150.36 661.51,-143.07 662.97,-153.56 669.2,-150.36"/>
</g>
<!-- end_resilient_pipeline -->
<g id="node4" class="node">
<title>end_resilient_pipeline</title>
<path fill="lightgreen" stroke="black" d="M494,-53C494,-53 301,-53 301,-53 295,-53 289,-47 289,-41 289,-41 289,-12 289,-12 289,-6 295,0 301,0 301,0 494,0 494,0 500,0 506,-6 506,-12 506,-12 506,-41 506,-41 506,-47 500,-53 494,-53"/>
<polygon fill="white" stroke="transparent" points="303.5,-13.5 303.5,-38.5 492.5,-38.5 492.5,-13.5 303.5,-13.5"/>
<polygon fill="none" stroke="black" points="303.5,-13.5 303.5,-38.5 492.5,-38.5 492.5,-13.5 303.5,-13.5"/>
<text text-anchor="start" x="310.5" y="-24.5" font-family="Courier,monospace" font-style="italic" font-size="10.00">p = end_resilient_pipeline(p)</text>
</g>
<!-- handle_known_error&#45;&gt;end_resilient_pipeline -->
<g id="edge1" class="edge">
<title>handle_known_error&#45;&gt;end_resilient_pipeline</title>
<path fill="none" stroke="black" d="M397.5,-89.57C397.5,-81.34 397.5,-72.08 397.5,-63.28"/>
<polygon fill="black" stroke="black" points="401,-63.24 397.5,-53.24 394,-63.24 401,-63.24"/>
</g>
<!-- handle_unknown_error&#45;&gt;end_resilient_pipeline -->
<g id="edge2" class="edge">
<title>handle_unknown_error&#45;&gt;end_resilient_pipeline</title>
<path fill="none" stroke="black" d="M575.56,-89.93C545.78,-79.49 511.19,-67.36 480.45,-56.58"/>
<polygon fill="black" stroke="black" points="481.21,-53.14 470.62,-53.14 478.9,-59.75 481.21,-53.14"/>
</g>
<!-- risky_operation&#45;&gt;router_resilient_pipeline_line_5_seq -->
<g id="edge4" class="edge">
<title>risky_operation&#45;&gt;router_resilient_pipeline_line_5_seq</title>
<path fill="none" stroke="#8b8989" stroke-dasharray="5,2" d="M250.5,-167.87C272.19,-179.25 295.02,-191.23 316.04,-202.26"/>
<polygon fill="#8b8989" stroke="#8b8989" points="314.44,-205.37 324.92,-206.92 317.69,-199.17 314.44,-205.37"/>
<text text-anchor="middle" x="342" y="-181" font-family="Courier,monospace" font-size="10.00">except ValueError</text>
</g>
<!-- risky_operation&#45;&gt;router_resilient_pipeline_line_8_seq -->
<g id="edge5" class="edge">
<title>risky_operation&#45;&gt;router_resilient_pipeline_line_8_seq</title>
<path fill="none" stroke="#8b8989" stroke-dasharray="5,2" d="M250.5,-158.02C264.4,-162.71 278.68,-166.91 292.5,-170 338.18,-180.2 351.08,-172.04 397.5,-178 466.1,-186.81 485.16,-191.72 556.03,-206.7"/>
<polygon fill="#8b8989" stroke="#8b8989" points="555.4,-210.15 565.9,-208.78 556.84,-203.3 555.4,-210.15"/>
<text text-anchor="middle" x="488" y="-181" font-family="Courier,monospace" font-size="10.00">except</text>
</g>
<!-- risky_operation&#45;&gt;end_resilient_pipeline -->
<g id="edge3" class="edge">
<title>risky_operation&#45;&gt;end_resilient_pipeline</title>
<path fill="none" stroke="black" d="M225.11,-89.93C253.94,-79.49 287.44,-67.36 317.19,-56.58"/>
<polygon fill="black" stroke="black" points="318.5,-59.83 326.71,-53.14 316.12,-53.25 318.5,-59.83"/>
</g>
</g>
</svg>
