<?xml version="1.0" encoding="UTF-8" standalone="no"?>
<!DOCTYPE svg PUBLIC "-//W3C//DTD SVG 1.1//EN"
 "http://www.w3.org/Graphics/SVG/1.1/DTD/svg11.dtd">
<!-- Generated by graphviz version 2.43.0 (0)
 -->
<!-- Title: flow Pages: 1 -->
<svg width="532pt" height="293pt"
 viewBox="0.00 0.00 532.00 293.00" xmlns="http://www.w3.org/2000/svg" xmlns:xlink="http://www.w3.org/1999/xlink">
<g id="graph0" class="graph" transform="scale(1 1) rotate(0) translate(4 289)">
<title>flow</title>
<polygon fill="white" stroke="transparent" points="-4,4 -4,-289 528,-289 528,4 -4,4"/>
<g id="clust1" class="cluster">
<title>cluster_try_0</title>
<polygon fill="none" stroke="#8b8989" stroke-dasharray="5,2" points="22.5,-82 22.5,-170 206.5,-170 206.5,-82 22.5,-82"/>
<text text-anchor="middle" x="114.5" y="-158" font-family="Courier,monospace" font-size="10.00">try</text>
</g>
<!-- start_order_processing -->
<g id="node1" class="node">
<title>start_order_processing</title>
<path fill="lightgreen" stroke="black" d="M205,-272.5C205,-272.5 12,-272.5 12,-272.5 6,-272.5 0,-266.5 0,-260.5 0,-260.5 0,-231.5 0,-231.5 0,-225.5 6,-219.5 12,-219.5 12,-219.5 205,-219.5 205,-219.5 211,-219.5 217,-225.5 217,-231.5 217,-231.5 217,-260.5 217,-260.5 217,-266.5 211,-272.5 205,-272.5"/>
<polygon fill="white" stroke="transparent" points="14.5,-233 14.5,-258 203.5,-258 203.5,-233 14.5,-233"/>
<polygon fill="none" stroke="black" points="14.5,-233 14.5,-258 203.5,-258 203.5,-233 14.5,-233"/>
<text text-anchor="start" x="21.5" y="-244" font-family="Courier,monospace" font-style="italic" font-size="10.00">p = start_order_processing(p)</text>
</g>
<!-- validate_order -->
<g id="node5" class="node">
<title>validate_order</title>
<path fill="lightblue" stroke="black" d="M187,-143C187,-143 42,-143 42,-143 36,-143 30,-137 30,-131 30,-131 30,-102 30,-102 30,-96 36,-90 42,-90 42,-90 187,-90 187,-90 193,-90 199,-96 199,-102 199,-102 199,-131 199,-131 199,-137 193,-143 187,-143"/>
<polygon fill="white" stroke="transparent" points="44.5,-103.5 44.5,-128.5 185.5,-128.5 185.5,-103.5 44.5,-103.5"/>
<polygon fill="none" stroke="black" points="44.5,-103.5 44.5,-128.5 185.5,-128.5 185.5,-103.5 44.5,-103.5"/>
<text text-anchor="start" x="51.5" y="-114.5" font-family="Courier,monospace" font-style="italic" font-size="10.00">p = validate_order(p)</text>
</g>
<!-- start_order_processing&#45;&gt;validate_order -->
<g id="edge3" class="edge">
<title>start_order_processing&#45;&gt;validate_order</title>
<path fill="none" stroke="black" d="M109.71,-219.2C110.6,-200.27 111.83,-174.34 112.81,-153.39"/>
<polygon fill="black" stroke="black" points="116.31,-153.42 113.29,-143.26 109.32,-153.09 116.31,-153.42"/>
</g>
<!-- router_order_processing_line_5_seq -->
<g id="node2" class="node">
<title>router_order_processing_line_5_seq</title>
<path fill="wheat" stroke="black" d="M512,-285C512,-285 247,-285 247,-285 241,-285 235,-279 235,-273 235,-273 235,-219 235,-219 235,-213 241,-207 247,-207 247,-207 512,-207 512,-207 518,-207 524,-213 524,-219 524,-219 524,-273 524,-273 524,-279 518,-285 512,-285"/>
<polygon fill="white" stroke="transparent" points="249.5,-246 249.5,-271 510.5,-271 510.5,-246 249.5,-246"/>
<polygon fill="none" stroke="black" points="249.5,-246 249.5,-271 510.5,-271 510.5,-246 249.5,-246"/>
<text text-anchor="start" x="256.5" y="-257" font-family="Courier,monospace" font-style="italic" font-size="10.00">p = router_order_processing_line_5_seq(p)</text>
<polygon fill="white" stroke="transparent" points="249.5,-221 249.5,-246 510.5,-246 510.5,-221 249.5,-221"/>
<polygon fill="none" stroke="black" points="249.5,-221 249.5,-246 510.5,-246 510.5,-221 249.5,-221"/>
<text text-anchor="start" x="256.5" y="-231" font-family="Courier,monospace" font-size="10.00">p[&#39;status&#39;] = &#39;invalid&#39;</text>
</g>
<!-- notify_rejection -->
<g id="node4" class="node">
<title>notify_rejection</title>
<path fill="lightblue" stroke="black" d="M408,-143C408,-143 251,-143 251,-143 245,-143 239,-137 239,-131 239,-131 239,-102 239,-102 239,-96 245,-90 251,-90 251,-90 408,-90 408,-90 414,-90 420,-96 420,-102 420,-102 420,-131 420,-131 420,-137 414,-143 408,-143"/>
<polygon fill="white" stroke="transparent" points="253.5,-103.5 253.5,-128.5 406.5,-128.5 406.5,-103.5 253.5,-103.5"/>
<polygon fill="none" stroke="black" points="253.5,-103.5 253.5,-128.5 406.5,-128.5 406.5,-103.5 253.5,-103.5"/>
<text text-anchor="start" x="260.5" y="-114.5" font-family="Courier,monospace" font-style="italic" font-size="10.00">p = notify_rejection(p)</text>
</g>
<!-- router_order_processing_line_5_seq&#45;&gt;notify_rejection -->
<g id="edge2" class="edge">
<title>router_order_processing_line_5_seq&#45;&gt;notify_rejection</title>
<path fill="none" stroke="black" d="M361.99,-206.92C359.4,-200.96 356.82,-194.84 354.5,-189 349.88,-177.37 345.24,-164.51 341.24,-152.94"/>
<polygon fill="black" stroke="black" points="344.44,-151.5 337.9,-143.17 337.82,-153.77 344.44,-151.5"/>
</g>
<!-- end_order_processing -->
<g id="node3" class="node">
<title>end_order_processing</title>
<path fill="lightgreen" stroke="black" d="M312,-53C312,-53 131,-53 131,-53 125,-53 119,-47 119,-41 119,-41 119,-12 119,-12 119,-6 125,0 131,0 131,0 312,0 312,0 318,0 324,-6 324,-12 324,-12 324,-41 324,-41 324,-47 318,-53 312,-53"/>
<polygon fill="white" stroke="transparent" points="133.5,-13.5 133.5,-38.5 310.5,-38.5 310.5,-13.5 133.5,-13.5"/>
<polygon fill="none" stroke="black" points="133.5,-13.5 133.5,-38.5 310.5,-38.5 310.5,-13.5 133.5,-13.5"/>
<text text-anchor="start" x="140.5" y="-24.5" font-family="Courier,monospace" font-style="italic" font-size="10.00">p = end_order_processing(p)</text>
</g>
<!-- notify_rejection&#45;&gt;end_order_processing -->
<g id="edge1" class="edge">
<title>notify_rejection&#45;&gt;end_order_processing</title>
<path fill="none" stroke="black" d="M297.97,-89.81C286.33,-80.32 272.99,-69.45 260.74,-59.47"/>
<polygon fill="black" stroke="black" points="262.84,-56.67 252.88,-53.07 258.42,-62.1 262.84,-56.67"/>
</g>
<!-- validate_order&#45;&gt;router_order_processing_line_5_seq -->
<g id="edge5" class="edge">
<title>validate_order&#45;&gt;router_order_processing_line_5_seq</title>
<path fill="none" stroke="#8b8989" stroke-dasharray="5,2" d="M206.5,-161.76C233.95,-174.97 263.97,-189.42 291.19,-202.51"/>
<polygon fill="#8b8989" stroke="#8b8989" points="289.82,-205.74 300.35,-206.92 292.86,-199.43 289.82,-205.74"/>
<text text-anchor="middle" x="314" y="-181" font-family="Courier,monospace" font-size="10.00">except ValueError</text>
</g>
<!-- validate_order&#45;&gt;end_order_processing -->
<g id="edge4" class="edge">
<title>validate_order&#45;&gt;end_order_processing</title>
<path fill="none" stroke="black" d="M145.74,-89.81C157.27,-80.32 170.49,-69.45 182.62,-59.47"/>
<polygon fill="black" stroke="black" points="184.91,-62.12 190.41,-53.07 180.46,-56.72 184.91,-62.12"/>
</g>
</g>
</svg>
