<?xml version="1.0" encoding="UTF-8" standalone="no"?>
<!DOCTYPE svg PUBLIC "-//W3C//DTD SVG 1.1//EN"
 "http://www.w3.org/Graphics/SVG/1.1/DTD/svg11.dtd">
<!-- Generated by graphviz version 2.43.0 (0)
 -->
<!-- Title: flow Pages: 1 -->
<svg width="428pt" height="697pt"
 viewBox="0.00 0.00 428.00 697.00" xmlns="http://www.w3.org/2000/svg" xmlns:xlink="http://www.w3.org/1999/xlink">
<g id="graph0" class="graph" transform="scale(1 1) rotate(0) translate(4 693)">
<title>flow</title>
<polygon fill="white" stroke="transparent" points="-4,4 -4,-693 424,-693 424,4 -4,4"/>
<!-- start_async_research_flow -->
<g id="node1" class="node">
<title>start_async_research_flow</title>
<path fill="lightgreen" stroke="black" d="M287,-689C287,-689 40,-689 40,-689 34,-689 28,-683 28,-677 28,-677 28,-648 28,-648 28,-642 34,-636 40,-636 40,-636 287,-636 287,-636 293,-636 299,-642 299,-648 299,-648 299,-677 299,-677 299,-683 293,-689 287,-689"/>
<polygon fill="white" stroke="transparent" points="42.5,-649.5 42.5,-674.5 285.5,-674.5 285.5,-649.5 42.5,-649.5"/>
<polygon fill="none" stroke="black" points="42.5,-649.5 42.5,-674.5 285.5,-674.5 285.5,-649.5 42.5,-649.5"/>
<text text-anchor="start" x="49.5" y="-660.5" font-family="Courier,monospace" font-style="italic" font-size="10.00">p = await start_async_research_flow(p)</text>
</g>
<!-- preprocessor -->
<g id="node6" class="node">
<title>preprocessor</title>
<path fill="lightblue" stroke="black" d="M248,-599C248,-599 79,-599 79,-599 73,-599 67,-593 67,-587 67,-587 67,-558 67,-558 67,-552 73,-546 79,-546 79,-546 248,-546 248,-546 254,-546 260,-552 260,-558 260,-558 260,-587 260,-587 260,-593 254,-599 248,-599"/>
<polygon fill="white" stroke="transparent" points="81.5,-559.5 81.5,-584.5 246.5,-584.5 246.5,-559.5 81.5,-559.5"/>
<polygon fill="none" stroke="black" points="81.5,-559.5 81.5,-584.5 246.5,-584.5 246.5,-559.5 81.5,-559.5"/>
<text text-anchor="start" x="88.5" y="-570.5" font-family="Courier,monospace" font-style="italic" font-size="10.00">p = await preprocessor(p)</text>
</g>
<!-- start_async_research_flow&#45;&gt;preprocessor -->
<g id="edge7" class="edge">
<title>start_async_research_flow&#45;&gt;preprocessor</title>
<path fill="none" stroke="black" d="M163.5,-635.57C163.5,-627.34 163.5,-618.08 163.5,-609.28"/>
<polygon fill="black" stroke="black" points="167,-609.24 163.5,-599.24 160,-609.24 167,-609.24"/>
</g>
<!-- fanout_async_research_flow_line_12 -->
<g id="node2" class="node">
<title>fanout_async_research_flow_line_12</title>
<path fill="lightblue" stroke="black" d="M314,-509C314,-509 13,-509 13,-509 7,-509 1,-503 1,-497 1,-497 1,-418 1,-418 1,-412 7,-406 13,-406 13,-406 314,-406 314,-406 320,-406 326,-412 326,-418 326,-418 326,-497 326,-497 326,-503 320,-509 314,-509"/>
<polygon fill="white" stroke="transparent" points="15.5,-469.5 15.5,-494.5 312.5,-494.5 312.5,-469.5 15.5,-469.5"/>
<polygon fill="none" stroke="black" points="15.5,-469.5 15.5,-494.5 312.5,-494.5 312.5,-469.5 15.5,-469.5"/>
<text text-anchor="start" x="22.5" y="-480.5" font-family="Courier,monospace" font-style="italic" font-size="10.00">p = await fanout_async_research_flow_line_12(p)</text>
<polygon fill="#9f79ee" stroke="transparent" points="15.5,-444.5 15.5,-469.5 312.5,-469.5 312.5,-444.5 15.5,-444.5"/>
<polygon fill="none" stroke="black" points="15.5,-444.5 15.5,-469.5 312.5,-469.5 312.5,-444.5 15.5,-444.5"/>
<text text-anchor="start" x="115.5" y="-455.5" font-family="Courier,monospace" font-weight="bold" font-size="10.00">[fan&#45;out:gather]</text>
<polygon fill="#8968cd" stroke="transparent" points="15.5,-419.5 15.5,-444.5 312.5,-444.5 312.5,-419.5 15.5,-419.5"/>
<polygon fill="none" stroke="black" points="15.5,-419.5 15.5,-444.5 312.5,-444.5 312.5,-419.5 15.5,-419.5"/>
<text text-anchor="start" x="22.5" y="-429.5" font-family="Courier,monospace" font-size="10.00">for t in p[&#39;topics&#39;]</text>
</g>
<!-- fanin_async_research_flow_line_12 -->
<g id="node4" class="node">
<title>fanin_async_research_flow_line_12</title>
<path fill="lightblue" stroke="black" d="M307,-258C307,-258 12,-258 12,-258 6,-258 0,-252 0,-246 0,-246 0,-192 0,-192 0,-186 6,-180 12,-180 12,-180 307,-180 307,-180 313,-180 319,-186 319,-192 319,-192 319,-246 319,-246 319,-252 313,-258 307,-258"/>
<polygon fill="white" stroke="transparent" points="14.5,-219 14.5,-244 305.5,-244 305.5,-219 14.5,-219"/>
<polygon fill="none" stroke="black" points="14.5,-219 14.5,-244 305.5,-244 305.5,-219 14.5,-219"/>
<text text-anchor="start" x="21.5" y="-230" font-family="Courier,monospace" font-style="italic" font-size="10.00">p = await fanin_async_research_flow_line_12(p)</text>
<polygon fill="#ab82ff" stroke="transparent" points="14.5,-194 14.5,-219 305.5,-219 305.5,-194 14.5,-194"/>
<polygon fill="none" stroke="black" points="14.5,-194 14.5,-219 305.5,-219 305.5,-194 14.5,-194"/>
<text text-anchor="start" x="135.5" y="-205" font-family="Courier,monospace" font-weight="bold" font-size="10.00">[fan&#45;in]</text>
</g>
<!-- fanout_async_research_flow_line_12&#45;&gt;fanin_async_research_flow_line_12 -->
<g id="edge2" class="edge">
<title>fanout_async_research_flow_line_12&#45;&gt;fanin_async_research_flow_line_12</title>
<path fill="none" stroke="#5d478b" stroke-dasharray="5,2" d="M160.11,-405.74C159.05,-387.54 158.02,-366.86 157.5,-348 156.85,-324.45 157.19,-318.55 157.5,-295 157.61,-286.39 157.8,-277.22 158.02,-268.36"/>
<polygon fill="#5d478b" stroke="#5d478b" points="161.53,-268.24 158.29,-258.15 154.53,-268.06 161.53,-268.24"/>
<text text-anchor="middle" x="182" y="-324.5" font-family="Courier,monospace" font-size="10.00">slice 0</text>
<text text-anchor="middle" x="182" y="-313.5" font-family="Courier,monospace" font-size="10.00">(parent)</text>
</g>
<!-- research_agent -->
<g id="node7" class="node">
<title>research_agent</title>
<path fill="lightblue" stroke="black" d="M408,-348C408,-348 227,-348 227,-348 221,-348 215,-342 215,-336 215,-336 215,-307 215,-307 215,-301 221,-295 227,-295 227,-295 408,-295 408,-295 414,-295 420,-301 420,-307 420,-307 420,-336 420,-336 420,-342 414,-348 408,-348"/>
<polygon fill="white" stroke="transparent" points="229.5,-308.5 229.5,-333.5 406.5,-333.5 406.5,-308.5 229.5,-308.5"/>
<polygon fill="none" stroke="black" points="229.5,-308.5 229.5,-333.5 406.5,-333.5 406.5,-308.5 229.5,-308.5"/>
<text text-anchor="start" x="236.5" y="-319.5" font-family="Courier,monospace" font-style="italic" font-size="10.00">p = await research_agent(p)</text>
</g>
<!-- fanout_async_research_flow_line_12&#45;&gt;research_agent -->
<g id="edge3" class="edge">
<title>fanout_async_research_flow_line_12&#45;&gt;research_agent</title>
<path fill="none" stroke="#5d478b" stroke-width="2" d="M221.72,-405.84C241.37,-388.74 262.75,-370.14 280.32,-354.85"/>
<polygon fill="#5d478b" stroke="#5d478b" stroke-width="2" points="282.86,-357.28 288.11,-348.08 278.26,-352 282.86,-357.28"/>
<text text-anchor="middle" x="293" y="-380" font-family="Courier,monospace" font-size="10.00">slice 1..N</text>
<text text-anchor="middle" x="293" y="-369" font-family="Courier,monospace" font-size="10.00">(per t)</text>
</g>
<!-- end_async_research_flow -->
<g id="node3" class="node">
<title>end_async_research_flow</title>
<path fill="lightgreen" stroke="black" d="M277,-53C277,-53 42,-53 42,-53 36,-53 30,-47 30,-41 30,-41 30,-12 30,-12 30,-6 36,0 42,0 42,0 277,0 277,0 283,0 289,-6 289,-12 289,-12 289,-41 289,-41 289,-47 283,-53 277,-53"/>
<polygon fill="white" stroke="transparent" points="44.5,-13.5 44.5,-38.5 275.5,-38.5 275.5,-13.5 44.5,-13.5"/>
<polygon fill="none" stroke="black" points="44.5,-13.5 44.5,-38.5 275.5,-38.5 275.5,-13.5 44.5,-13.5"/>
<text text-anchor="start" x="51.5" y="-24.5" font-family="Courier,monospace" font-style="italic" font-size="10.00">p = await end_async_research_flow(p)</text>
</g>
<!-- postprocessor -->
<g id="node5" class="node">
<title>postprocessor</title>
<path fill="lightblue" stroke="black" d="M247,-143C247,-143 72,-143 72,-143 66,-143 60,-137 60,-131 60,-131 60,-102 60,-102 60,-96 66,-90 72,-90 72,-90 247,-90 247,-90 253,-90 259,-96 259,-102 259,-102 259,-131 259,-131 259,-137 253,-143 247,-143"/>
<polygon fill="white" stroke="transparent" points="74.5,-103.5 74.5,-128.5 245.5,-128.5 245.5,-103.5 74.5,-103.5"/>
<polygon fill="none" stroke="black" points="74.5,-103.5 74.5,-128.5 245.5,-128.5 245.5,-103.5 74.5,-103.5"/>
<text text-anchor="start" x="81.5" y="-114.5" font-family="Courier,monospace" font-style="italic" font-size="10.00">p = await postprocessor(p)</text>
</g>
<!-- fanin_async_research_flow_line_12&#45;&gt;postprocessor -->
<g id="edge1" class="edge">
<title>fanin_async_research_flow_line_12&#45;&gt;postprocessor</title>
<path fill="none" stroke="black" d="M159.5,-179.72C159.5,-171.04 159.5,-161.86 159.5,-153.29"/>
<polygon fill="black" stroke="black" points="163,-153.22 159.5,-143.22 156,-153.22 163,-153.22"/>
</g>
<!-- postprocessor&#45;&gt;end_async_research_flow -->
<g id="edge4" class="edge">
<title>postprocessor&#45;&gt;end_async_research_flow</title>
<path fill="none" stroke="black" d="M159.5,-89.57C159.5,-81.34 159.5,-72.08 159.5,-63.28"/>
<polygon fill="black" stroke="black" points="163,-63.24 159.5,-53.24 156,-63.24 163,-63.24"/>
</g>
<!-- preprocessor&#45;&gt;fanout_async_research_flow_line_12 -->
<g id="edge5" class="edge">
<title>preprocessor&#45;&gt;fanout_async_research_flow_line_12</title>
<path fill="none" stroke="black" d="M163.5,-545.86C163.5,-537.92 163.5,-528.81 163.5,-519.54"/>
<polygon fill="black" stroke="black" points="167,-519.45 163.5,-509.46 160,-519.46 167,-519.45"/>
</g>
<!-- research_agent&#45;&gt;fanin_async_research_flow_line_12 -->
<g id="edge6" class="edge">
<title>research_agent&#45;&gt;fanin_async_research_flow_line_12</title>
<path fill="none" stroke="#473c8b" stroke-dasharray="5,2" d="M277.22,-294.88C262.27,-285.37 244.87,-274.3 228.1,-263.63"/>
<polygon fill="#473c8b" stroke="#473c8b" points="229.72,-260.52 219.4,-258.1 225.96,-266.42 229.72,-260.52"/>
</g>
</g>
</svg>
