<?xml version="1.0" encoding="UTF-8" standalone="no"?>
<!DOCTYPE svg PUBLIC "-//W3C//DTD SVG 1.1//EN"
 "http://www.w3.org/Graphics/SVG/1.1/DTD/svg11.dtd">
<!-- Generated by graphviz version 2.43.0 (0)
 -->
<!-- Title: flow Pages: 1 -->
<svg width="364pt" height="579pt"
 viewBox="0.00 0.00 364.00 579.00" xmlns="http://www.w3.org/2000/svg" xmlns:xlink="http://www.w3.org/1999/xlink">
<g id="graph0" class="graph" transform="scale(1 1) rotate(0) translate(4 575)">
<title>flow</title>
<polygon fill="white" stroke="transparent" points="-4,4 -4,-575 360,-575 360,4 -4,4"/>
<!-- start_if_else_simple_flow -->
<g id="node1" class="node">
<title>start_if_else_simple_flow</title>
<path fill="lightgreen" stroke="black" d="M283,-571C283,-571 72,-571 72,-571 66,-571 60,-565 60,-559 60,-559 60,-530 60,-530 60,-524 66,-518 72,-518 72,-518 283,-518 283,-518 289,-518 295,-524 295,-530 295,-530 295,-559 295,-559 295,-565 289,-571 283,-571"/>
<polygon fill="white" stroke="transparent" points="74.5,-531.5 74.5,-556.5 281.5,-556.5 281.5,-531.5 74.5,-531.5"/>
<polygon fill="none" stroke="black" points="74.5,-531.5 74.5,-556.5 281.5,-556.5 281.5,-531.5 74.5,-531.5"/>
<text text-anchor="start" x="81.5" y="-542.5" font-family="Courier,monospace" font-style="italic" font-size="10.00">p = start_if_else_simple_flow(p)</text>
</g>
<!-- handler_setup -->
<g id="node5" class="node">
<title>handler_setup</title>
<path fill="lightblue" stroke="black" d="M247,-481C247,-481 108,-481 108,-481 102,-481 96,-475 96,-469 96,-469 96,-440 96,-440 96,-434 102,-428 108,-428 108,-428 247,-428 247,-428 253,-428 259,-434 259,-440 259,-440 259,-469 259,-469 259,-475 253,-481 247,-481"/>
<polygon fill="white" stroke="transparent" points="110.5,-441.5 110.5,-466.5 245.5,-466.5 245.5,-441.5 110.5,-441.5"/>
<polygon fill="none" stroke="black" points="110.5,-441.5 110.5,-466.5 245.5,-466.5 245.5,-441.5 110.5,-441.5"/>
<text text-anchor="start" x="117.5" y="-452.5" font-family="Courier,monospace" font-style="italic" font-size="10.00">p = handler_setup(p)</text>
</g>
<!-- start_if_else_simple_flow&#45;&gt;handler_setup -->
<g id="edge7" class="edge">
<title>start_if_else_simple_flow&#45;&gt;handler_setup</title>
<path fill="none" stroke="black" d="M177.5,-517.57C177.5,-509.34 177.5,-500.08 177.5,-491.28"/>
<polygon fill="black" stroke="black" points="181,-491.24 177.5,-481.24 174,-491.24 181,-491.24"/>
</g>
<!-- router_if_else_simple_flow_line_10_if -->
<g id="node2" class="node">
<title>router_if_else_simple_flow_line_10_if</title>
<path fill="wheat" stroke="black" d="M319,-391C319,-391 36,-391 36,-391 30,-391 24,-385 24,-379 24,-379 24,-292 24,-292 24,-286 30,-280 36,-280 36,-280 319,-280 319,-280 325,-280 331,-286 331,-292 331,-292 331,-379 331,-379 331,-385 325,-391 319,-391"/>
<polygon fill="white" stroke="transparent" points="38.5,-351.5 38.5,-376.5 317.5,-376.5 317.5,-351.5 38.5,-351.5"/>
<polygon fill="none" stroke="black" points="38.5,-351.5 38.5,-376.5 317.5,-376.5 317.5,-351.5 38.5,-351.5"/>
<text text-anchor="start" x="45.5" y="-362.5" font-family="Courier,monospace" font-style="italic" font-size="10.00">p = router_if_else_simple_flow_line_10_if(p)</text>
<polygon fill="lightyellow" stroke="transparent" points="38.5,-326.5 38.5,-351.5 317.5,-351.5 317.5,-326.5 38.5,-326.5"/>
<polygon fill="none" stroke="black" points="38.5,-326.5 38.5,-351.5 317.5,-351.5 317.5,-326.5 38.5,-326.5"/>
<text text-anchor="start" x="120" y="-337.5" font-family="Courier,monospace" font-weight="bold" font-size="10.00">if</text>
<text text-anchor="start" x="133" y="-337.5" font-family="Courier,monospace" font-size="10.00"> p[&#39;type&#39;] == &#39;A&#39;</text>
<polygon fill="none" stroke="black" points="38.5,-293.5 38.5,-326.5 317.5,-326.5 317.5,-293.5 38.5,-293.5"/>
<polygon fill="#698b69" stroke="transparent" points="45.5,-300.5 45.5,-319.5 175.5,-319.5 175.5,-300.5 45.5,-300.5"/>
<text text-anchor="start" x="98" y="-308.5" font-family="Courier,monospace" font-weight="bold" font-size="10.00" fill="white">TRUE</text>
<polygon fill="#8b3a3a" stroke="transparent" points="175.5,-300.5 175.5,-319.5 310.5,-319.5 310.5,-300.5 175.5,-300.5"/>
<text text-anchor="start" x="227.5" y="-308.5" font-family="Courier,monospace" font-weight="bold" font-size="10.00" fill="white">FALSE</text>
</g>
<!-- handler_type_a -->
<g id="node6" class="node">
<title>handler_type_a</title>
<path fill="lightblue" stroke="black" d="M157,-233C157,-233 12,-233 12,-233 6,-233 0,-227 0,-221 0,-221 0,-192 0,-192 0,-186 6,-180 12,-180 12,-180 157,-180 157,-180 163,-180 169,-186 169,-192 169,-192 169,-221 169,-221 169,-227 163,-233 157,-233"/>
<polygon fill="white" stroke="transparent" points="14.5,-193.5 14.5,-218.5 155.5,-218.5 155.5,-193.5 14.5,-193.5"/>
<polygon fill="none" stroke="black" points="14.5,-193.5 14.5,-218.5 155.5,-218.5 155.5,-193.5 14.5,-193.5"/>
<text text-anchor="start" x="21.5" y="-204.5" font-family="Courier,monospace" font-style="italic" font-size="10.00">p = handler_type_a(p)</text>
</g>
<!-- router_if_else_simple_flow_line_10_if&#45;&gt;handler_type_a -->
<g id="edge5" class="edge">
<title>router_if_else_simple_flow_line_10_if&#45;&gt;handler_type_a</title>
<path fill="none" stroke="#698b69" d="M137.52,-279.9C127.93,-266.81 117.97,-253.2 109.3,-241.37"/>
<polygon fill="#698b69" stroke="#698b69" points="111.98,-239.1 103.24,-233.1 106.33,-243.23 111.98,-239.1"/>
<text text-anchor="middle" x="127" y="-254" font-family="Courier,monospace" font-size="10.00">T</text>
</g>
<!-- handler_type_b -->
<g id="node7" class="node">
<title>handler_type_b</title>
<path fill="lightblue" stroke="black" d="M344,-233C344,-233 199,-233 199,-233 193,-233 187,-227 187,-221 187,-221 187,-192 187,-192 187,-186 193,-180 199,-180 199,-180 344,-180 344,-180 350,-180 356,-186 356,-192 356,-192 356,-221 356,-221 356,-227 350,-233 344,-233"/>
<polygon fill="white" stroke="transparent" points="201.5,-193.5 201.5,-218.5 342.5,-218.5 342.5,-193.5 201.5,-193.5"/>
<polygon fill="none" stroke="black" points="201.5,-193.5 201.5,-218.5 342.5,-218.5 342.5,-193.5 201.5,-193.5"/>
<text text-anchor="start" x="208.5" y="-204.5" font-family="Courier,monospace" font-style="italic" font-size="10.00">p = handler_type_b(p)</text>
</g>
<!-- router_if_else_simple_flow_line_10_if&#45;&gt;handler_type_b -->
<g id="edge6" class="edge">
<title>router_if_else_simple_flow_line_10_if&#45;&gt;handler_type_b</title>
<path fill="none" stroke="#8b3a3a" d="M217.91,-279.9C227.6,-266.81 237.67,-253.2 246.43,-241.37"/>
<polygon fill="#8b3a3a" stroke="#8b3a3a" points="249.42,-243.22 252.56,-233.1 243.79,-239.05 249.42,-243.22"/>
<text text-anchor="middle" x="241" y="-254" font-family="Courier,monospace" font-size="10.00">F</text>
</g>
<!-- end_if_else_simple_flow -->
<g id="node3" class="node">
<title>end_if_else_simple_flow</title>
<path fill="lightgreen" stroke="black" d="M277,-53C277,-53 78,-53 78,-53 72,-53 66,-47 66,-41 66,-41 66,-12 66,-12 66,-6 72,0 78,0 78,0 277,0 277,0 283,0 289,-6 289,-12 289,-12 289,-41 289,-41 289,-47 283,-53 277,-53"/>
<polygon fill="white" stroke="transparent" points="80.5,-13.5 80.5,-38.5 275.5,-38.5 275.5,-13.5 80.5,-13.5"/>
<polygon fill="none" stroke="black" points="80.5,-13.5 80.5,-38.5 275.5,-38.5 275.5,-13.5 80.5,-13.5"/>
<text text-anchor="start" x="87.5" y="-24.5" font-family="Courier,monospace" font-style="italic" font-size="10.00">p = end_if_else_simple_flow(p)</text>
</g>
<!-- handler_finalize -->
<g id="node4" class="node">
<title>handler_finalize</title>
<path fill="lightblue" stroke="black" d="M256,-143C256,-143 99,-143 99,-143 93,-143 87,-137 87,-131 87,-131 87,-102 87,-102 87,-96 93,-90 99,-90 99,-90 256,-90 256,-90 262,-90 268,-96 268,-102 268,-102 268,-131 268,-131 268,-137 262,-143 256,-143"/>
<polygon fill="white" stroke="transparent" points="101.5,-103.5 101.5,-128.5 254.5,-128.5 254.5,-103.5 101.5,-103.5"/>
<polygon fill="none" stroke="black" points="101.5,-103.5 101.5,-128.5 254.5,-128.5 254.5,-103.5 101.5,-103.5"/>
<text text-anchor="start" x="108.5" y="-114.5" font-family="Courier,monospace" font-style="italic" font-size="10.00">p = handler_finalize(p)</text>
</g>
<!-- handler_finalize&#45;&gt;end_if_else_simple_flow -->
<g id="edge1" class="edge">
<title>handler_finalize&#45;&gt;end_if_else_simple_flow</title>
<path fill="none" stroke="black" d="M177.5,-89.57C177.5,-81.34 177.5,-72.08 177.5,-63.28"/>
<polygon fill="black" stroke="black" points="181,-63.24 177.5,-53.24 174,-63.24 181,-63.24"/>
</g>
<!-- handler_setup&#45;&gt;router_if_else_simple_flow_line_10_if -->
<g id="edge2" class="edge">
<title>handler_setup&#45;&gt;router_if_else_simple_flow_line_10_if</title>
<path fill="none" stroke="black" d="M177.5,-427.82C177.5,-419.92 177.5,-410.83 177.5,-401.53"/>
<polygon fill="black" stroke="black" points="181,-401.38 177.5,-391.38 174,-401.38 181,-401.38"/>
</g>
<!-- handler_type_a&#45;&gt;handler_finalize -->
<g id="edge3" class="edge">
<title>handler_type_a&#45;&gt;handler_finalize</title>
<path fill="none" stroke="black" d="M111.9,-179.57C121.64,-170.35 132.74,-159.85 143,-150.14"/>
<polygon fill="black" stroke="black" points="145.44,-152.66 150.3,-143.24 140.63,-147.57 145.44,-152.66"/>
</g>
<!-- handler_type_b&#45;&gt;handler_finalize -->
<g id="edge4" class="edge">
<title>handler_type_b&#45;&gt;handler_finalize</title>
<path fill="none" stroke="black" d="M244.06,-179.81C234.12,-170.5 222.75,-159.86 212.26,-150.04"/>
<polygon fill="black" stroke="black" points="214.51,-147.35 204.81,-143.07 209.72,-152.46 214.51,-147.35"/>
</g>
</g>
</svg>
