<?xml version="1.0" encoding="UTF-8" standalone="no"?>
<!DOCTYPE svg PUBLIC "-//W3C//DTD SVG 1.1//EN"
 "http://www.w3.org/Graphics/SVG/1.1/DTD/svg11.dtd">
<!-- Generated by graphviz version 2.43.0 (0)
 -->
<!-- Title: flow Pages: 1 -->
<svg width="582pt" height="697pt"
 viewBox="0.00 0.00 581.60 697.00" xmlns="http://www.w3.org/2000/svg" xmlns:xlink="http://www.w3.org/1999/xlink">
<g id="graph0" class="graph" transform="scale(1 1) rotate(0) translate(4 693)">
<title>flow</title>
<polygon fill="white" stroke="transparent" points="-4,4 -4,-693 577.6,-693 577.6,4 -4,4"/>
<!-- start_while_with_continue_flow -->
<g id="node1" class="node">
<title>start_while_with_continue_flow</title>
<path fill="lightgreen" stroke="black" d="M319,-689C319,-689 78,-689 78,-689 72,-689 66,-683 66,-677 66,-677 66,-648 66,-648 66,-642 72,-636 78,-636 78,-636 319,-636 319,-636 325,-636 331,-642 331,-648 331,-648 331,-677 331,-677 331,-683 325,-689 319,-689"/>
<polygon fill="white" stroke="transparent" points="80.5,-649.5 80.5,-674.5 317.5,-674.5 317.5,-649.5 80.5,-649.5"/>
<polygon fill="none" stroke="black" points="80.5,-649.5 80.5,-674.5 317.5,-674.5 317.5,-649.5 80.5,-649.5"/>
<text text-anchor="start" x="87.5" y="-660.5" font-family="Courier,monospace" font-style="italic" font-size="10.00">p = start_while_with_continue_flow(p)</text>
</g>
<!-- handler_init -->
<g id="node7" class="node">
<title>handler_init</title>
<path fill="lightblue" stroke="black" d="M265,-599C265,-599 132,-599 132,-599 126,-599 120,-593 120,-587 120,-587 120,-558 120,-558 120,-552 126,-546 132,-546 132,-546 265,-546 265,-546 271,-546 277,-552 277,-558 277,-558 277,-587 277,-587 277,-593 271,-599 265,-599"/>
<polygon fill="white" stroke="transparent" points="134.5,-559.5 134.5,-584.5 263.5,-584.5 263.5,-559.5 134.5,-559.5"/>
<polygon fill="none" stroke="black" points="134.5,-559.5 134.5,-584.5 263.5,-584.5 263.5,-559.5 134.5,-559.5"/>
<text text-anchor="start" x="141.5" y="-570.5" font-family="Courier,monospace" font-style="italic" font-size="10.00">p = handler_init(p)</text>
</g>
<!-- start_while_with_continue_flow&#45;&gt;handler_init -->
<g id="edge9" class="edge">
<title>start_while_with_continue_flow&#45;&gt;handler_init</title>
<path fill="none" stroke="black" d="M198.5,-635.57C198.5,-627.34 198.5,-618.08 198.5,-609.28"/>
<polygon fill="black" stroke="black" points="202,-609.24 198.5,-599.24 195,-609.24 202,-609.24"/>
</g>
<!-- router_while_with_continue_flow_line_13_if -->
<g id="node2" class="node">
<title>router_while_with_continue_flow_line_13_if</title>
<path fill="wheat" stroke="black" d="M325,-236C325,-236 12,-236 12,-236 6,-236 0,-230 0,-224 0,-224 0,-112 0,-112 0,-106 6,-100 12,-100 12,-100 325,-100 325,-100 331,-100 337,-106 337,-112 337,-112 337,-224 337,-224 337,-230 331,-236 325,-236"/>
<polygon fill="white" stroke="transparent" points="14.5,-197 14.5,-222 323.5,-222 323.5,-197 14.5,-197"/>
<polygon fill="none" stroke="black" points="14.5,-197 14.5,-222 323.5,-222 323.5,-197 14.5,-197"/>
<text text-anchor="start" x="21.5" y="-208" font-family="Courier,monospace" font-style="italic" font-size="10.00">p = router_while_with_continue_flow_line_13_if(p)</text>
<polygon fill="white" stroke="transparent" points="14.5,-172 14.5,-197 323.5,-197 323.5,-172 14.5,-172"/>
<polygon fill="none" stroke="black" points="14.5,-172 14.5,-197 323.5,-197 323.5,-172 14.5,-172"/>
<text text-anchor="start" x="21.5" y="-182" font-family="Courier,monospace" font-size="10.00">p[&#39;i&#39;] += 1</text>
<polygon fill="lightyellow" stroke="transparent" points="14.5,-147 14.5,-172 323.5,-172 323.5,-147 14.5,-147"/>
<polygon fill="none" stroke="black" points="14.5,-147 14.5,-172 323.5,-172 323.5,-147 14.5,-147"/>
<text text-anchor="start" x="102" y="-158" font-family="Courier,monospace" font-weight="bold" font-size="10.00">if</text>
<text text-anchor="start" x="115" y="-158" font-family="Courier,monospace" font-size="10.00"> p[&#39;skip_iteration&#39;]</text>
<polygon fill="none" stroke="black" points="14.5,-114 14.5,-147 323.5,-147 323.5,-114 14.5,-114"/>
<polygon fill="#698b69" stroke="transparent" points="21.5,-121 21.5,-140 166.5,-140 166.5,-121 21.5,-121"/>
<text text-anchor="start" x="81.5" y="-129" font-family="Courier,monospace" font-weight="bold" font-size="10.00" fill="white">TRUE</text>
<polygon fill="#8b3a3a" stroke="transparent" points="166.5,-121 166.5,-140 316.5,-140 316.5,-121 166.5,-121"/>
<text text-anchor="start" x="226" y="-129" font-family="Courier,monospace" font-weight="bold" font-size="10.00" fill="white">FALSE</text>
</g>
<!-- router_while_with_continue_flow_line_11_while_0 -->
<g id="node3" class="node">
<title>router_while_with_continue_flow_line_11_while_0</title>
<path fill="wheat" stroke="black" d="M358,-394C358,-394 39,-394 39,-394 33,-394 27,-388 27,-382 27,-382 27,-295 27,-295 27,-289 33,-283 39,-283 39,-283 358,-283 358,-283 364,-283 370,-289 370,-295 370,-295 370,-382 370,-382 370,-388 364,-394 358,-394"/>
<polygon fill="white" stroke="transparent" points="41.5,-354.5 41.5,-379.5 356.5,-379.5 356.5,-354.5 41.5,-354.5"/>
<polygon fill="none" stroke="black" points="41.5,-354.5 41.5,-379.5 356.5,-379.5 356.5,-354.5 41.5,-354.5"/>
<text text-anchor="start" x="48.5" y="-365.5" font-family="Courier,monospace" font-style="italic" font-size="10.00">p = router_while_with_continue_flow_line_11_wh…(p)</text>
<polygon fill="lightyellow" stroke="transparent" points="41.5,-329.5 41.5,-354.5 356.5,-354.5 356.5,-329.5 41.5,-329.5"/>
<polygon fill="none" stroke="black" points="41.5,-329.5 41.5,-354.5 356.5,-354.5 356.5,-329.5 41.5,-329.5"/>
<text text-anchor="start" x="105" y="-340.5" font-family="Courier,monospace" font-weight="bold" font-size="10.00">if</text>
<text text-anchor="start" x="118" y="-340.5" font-family="Courier,monospace" font-size="10.00"> p[&#39;i&#39;] &lt; p[&#39;max_iterations&#39;]</text>
<polygon fill="none" stroke="black" points="41.5,-296.5 41.5,-329.5 356.5,-329.5 356.5,-296.5 41.5,-296.5"/>
<polygon fill="#698b69" stroke="transparent" points="48.5,-303.5 48.5,-322.5 196.5,-322.5 196.5,-303.5 48.5,-303.5"/>
<text text-anchor="start" x="110" y="-311.5" font-family="Courier,monospace" font-weight="bold" font-size="10.00" fill="white">TRUE</text>
<polygon fill="#8b3a3a" stroke="transparent" points="196.5,-303.5 196.5,-322.5 349.5,-322.5 349.5,-303.5 196.5,-303.5"/>
<text text-anchor="start" x="257.5" y="-311.5" font-family="Courier,monospace" font-weight="bold" font-size="10.00" fill="white">FALSE</text>
</g>
<!-- router_while_with_continue_flow_line_13_if&#45;&gt;router_while_with_continue_flow_line_11_while_0 -->
<g id="edge8" class="edge">
<title>router_while_with_continue_flow_line_13_if&#45;&gt;router_while_with_continue_flow_line_11_while_0</title>
<path fill="none" stroke="#698b69" d="M180.45,-236.1C182.6,-248.2 184.84,-260.8 186.99,-272.84"/>
<polygon fill="#698b69" stroke="#698b69" points="183.56,-273.56 188.76,-282.79 190.45,-272.33 183.56,-273.56"/>
<text text-anchor="middle" x="189" y="-257" font-family="Courier,monospace" font-size="10.00">T</text>
</g>
<!-- handler_process -->
<g id="node8" class="node">
<title>handler_process</title>
<path fill="lightblue" stroke="black" d="M244,-53C244,-53 93,-53 93,-53 87,-53 81,-47 81,-41 81,-41 81,-12 81,-12 81,-6 87,0 93,0 93,0 244,0 244,0 250,0 256,-6 256,-12 256,-12 256,-41 256,-41 256,-47 250,-53 244,-53"/>
<polygon fill="white" stroke="transparent" points="95.5,-13.5 95.5,-38.5 242.5,-38.5 242.5,-13.5 95.5,-13.5"/>
<polygon fill="none" stroke="black" points="95.5,-13.5 95.5,-38.5 242.5,-38.5 242.5,-13.5 95.5,-13.5"/>
<text text-anchor="start" x="102.5" y="-24.5" font-family="Courier,monospace" font-style="italic" font-size="10.00">p = handler_process(p)</text>
</g>
<!-- router_while_with_continue_flow_line_13_if&#45;&gt;handler_process -->
<g id="edge7" class="edge">
<title>router_while_with_continue_flow_line_13_if&#45;&gt;handler_process</title>
<path fill="none" stroke="#8b3a3a" d="M168.5,-99.7C168.5,-87.14 168.5,-74.46 168.5,-63.32"/>
<polygon fill="#8b3a3a" stroke="#8b3a3a" points="172,-63.15 168.5,-53.15 165,-63.16 172,-63.15"/>
<text text-anchor="middle" x="172" y="-74" font-family="Courier,monospace" font-size="10.00">F</text>
</g>
<!-- router_while_with_continue_flow_line_11_while_0&#45;&gt;router_while_with_continue_flow_line_13_if -->
<g id="edge6" class="edge">
<title>router_while_with_continue_flow_line_11_while_0&#45;&gt;router_while_with_continue_flow_line_13_if</title>
<path fill="none" stroke="#698b69" d="M175.96,-282.62C174.18,-276.75 172.64,-270.8 171.5,-265 170.31,-258.93 169.4,-252.61 168.72,-246.23"/>
<polygon fill="#698b69" stroke="#698b69" points="172.2,-245.84 167.82,-236.19 165.22,-246.46 172.2,-245.84"/>
<text text-anchor="middle" x="175" y="-257" font-family="Courier,monospace" font-size="10.00">T</text>
</g>
<!-- handler_finalize -->
<g id="node6" class="node">
<title>handler_finalize</title>
<path fill="lightblue" stroke="black" d="M524,-194.5C524,-194.5 367,-194.5 367,-194.5 361,-194.5 355,-188.5 355,-182.5 355,-182.5 355,-153.5 355,-153.5 355,-147.5 361,-141.5 367,-141.5 367,-141.5 524,-141.5 524,-141.5 530,-141.5 536,-147.5 536,-153.5 536,-153.5 536,-182.5 536,-182.5 536,-188.5 530,-194.5 524,-194.5"/>
<polygon fill="white" stroke="transparent" points="369.5,-155 369.5,-180 522.5,-180 522.5,-155 369.5,-155"/>
<polygon fill="none" stroke="black" points="369.5,-155 369.5,-180 522.5,-180 522.5,-155 369.5,-155"/>
<text text-anchor="start" x="376.5" y="-166" font-family="Courier,monospace" font-style="italic" font-size="10.00">p = handler_finalize(p)</text>
</g>
<!-- router_while_with_continue_flow_line_11_while_0&#45;&gt;handler_finalize -->
<g id="edge5" class="edge">
<title>router_while_with_continue_flow_line_11_while_0&#45;&gt;handler_finalize</title>
<path fill="none" stroke="#8b3a3a" d="M278.69,-282.79C318.69,-255.51 365.63,-223.49 399.5,-200.38"/>
<polygon fill="#8b3a3a" stroke="#8b3a3a" points="401.53,-203.23 407.82,-194.7 397.59,-197.45 401.53,-203.23"/>
<text text-anchor="middle" x="319" y="-257" font-family="Courier,monospace" font-size="10.00">F</text>
</g>
<!-- router_while_with_continue_flow_line_10_seq -->
<g id="node4" class="node">
<title>router_while_with_continue_flow_line_10_seq</title>
<path fill="wheat" stroke="black" d="M358,-509C358,-509 39,-509 39,-509 33,-509 27,-503 27,-497 27,-497 27,-443 27,-443 27,-437 33,-431 39,-431 39,-431 358,-431 358,-431 364,-431 370,-437 370,-443 370,-443 370,-497 370,-497 370,-503 364,-509 358,-509"/>
<polygon fill="white" stroke="transparent" points="41.5,-470 41.5,-495 356.5,-495 356.5,-470 41.5,-470"/>
<polygon fill="none" stroke="black" points="41.5,-470 41.5,-495 356.5,-495 356.5,-470 41.5,-470"/>
<text text-anchor="start" x="48.5" y="-481" font-family="Courier,monospace" font-style="italic" font-size="10.00">p = router_while_with_continue_flow_line_10_seq(p)</text>
<polygon fill="white" stroke="transparent" points="41.5,-445 41.5,-470 356.5,-470 356.5,-445 41.5,-445"/>
<polygon fill="none" stroke="black" points="41.5,-445 41.5,-470 356.5,-470 356.5,-445 41.5,-445"/>
<text text-anchor="start" x="48.5" y="-455" font-family="Courier,monospace" font-size="10.00">p[&#39;i&#39;] = 0</text>
</g>
<!-- router_while_with_continue_flow_line_10_seq&#45;&gt;router_while_with_continue_flow_line_11_while_0 -->
<g id="edge4" class="edge">
<title>router_while_with_continue_flow_line_10_seq&#45;&gt;router_while_with_continue_flow_line_11_while_0</title>
<path fill="none" stroke="black" d="M198.5,-430.85C198.5,-422.5 198.5,-413.44 198.5,-404.37"/>
<polygon fill="black" stroke="black" points="202,-404.17 198.5,-394.17 195,-404.17 202,-404.17"/>
</g>
<!-- end_while_with_continue_flow -->
<g id="node5" class="node">
<title>end_while_with_continue_flow</title>
<path fill="lightgreen" stroke="black" d="M560,-53C560,-53 331,-53 331,-53 325,-53 319,-47 319,-41 319,-41 319,-12 319,-12 319,-6 325,0 331,0 331,0 560,0 560,0 566,0 572,-6 572,-12 572,-12 572,-41 572,-41 572,-47 566,-53 560,-53"/>
<polygon fill="white" stroke="transparent" points="333.5,-13.5 333.5,-38.5 558.5,-38.5 558.5,-13.5 333.5,-13.5"/>
<polygon fill="none" stroke="black" points="333.5,-13.5 333.5,-38.5 558.5,-38.5 558.5,-13.5 333.5,-13.5"/>
<text text-anchor="start" x="340.5" y="-24.5" font-family="Courier,monospace" font-style="italic" font-size="10.00">p = end_while_with_continue_flow(p)</text>
</g>
<!-- handler_finalize&#45;&gt;end_while_with_continue_flow -->
<g id="edge1" class="edge">
<title>handler_finalize&#45;&gt;end_while_with_continue_flow</title>
<path fill="none" stroke="black" d="M445.5,-141.41C445.5,-119.62 445.5,-88.07 445.5,-63.69"/>
<polygon fill="black" stroke="black" points="449,-63.4 445.5,-53.4 442,-63.4 449,-63.4"/>
</g>
<!-- handler_init&#45;&gt;router_while_with_continue_flow_line_10_seq -->
<g id="edge2" class="edge">
<title>handler_init&#45;&gt;router_while_with_continue_flow_line_10_seq</title>
<path fill="none" stroke="black" d="M198.5,-545.88C198.5,-537.77 198.5,-528.52 198.5,-519.35"/>
<polygon fill="black" stroke="black" points="202,-519.1 198.5,-509.1 195,-519.1 202,-519.1"/>
</g>
<!-- handler_process&#45;&gt;router_while_with_continue_flow_line_11_while_0 -->
<g id="edge3" class="edge">
<title>handler_process&#45;&gt;router_while_with_continue_flow_line_11_while_0</title>
<path fill="none" stroke="black" d="M256.2,-43.66C366.86,-64.15 543.17,-97.18 545.5,-100 583.99,-146.6 581.75,-187.63 545.5,-236 523.98,-264.72 452.43,-288.04 379.85,-305.05"/>
<polygon fill="black" stroke="black" points="379.03,-301.64 370.07,-307.3 380.6,-308.47 379.03,-301.64"/>
</g>
</g>
</svg>
