<?xml version="1.0" encoding="UTF-8" standalone="no"?>
<!DOCTYPE svg PUBLIC "-//W3C//DTD SVG 1.1//EN"
 "http://www.w3.org/Graphics/SVG/1.1/DTD/svg11.dtd">
<!-- Generated by graphviz version 2.43.0 (0)
 -->
<!-- Title: flow Pages: 1 -->
<svg width="201pt" height="239pt"
 viewBox="0.00 0.00 201.00 239.00" xmlns="http://www.w3.org/2000/svg" xmlns:xlink="http://www.w3.org/1999/xlink">
<g id="graph0" class="graph" transform="scale(1 1) rotate(0) translate(4 235)">
<title>flow</title>
<polygon fill="white" stroke="transparent" points="-4,4 -4,-235 197,-235 197,4 -4,4"/>
<!-- start_minimal_flow -->
<g id="node1" class="node">
<title>start_minimal_flow</title>
<path fill="lightgreen" stroke="black" d="M181,-231C181,-231 12,-231 12,-231 6,-231 0,-225 0,-219 0,-219 0,-190 0,-190 0,-184 6,-178 12,-178 12,-178 181,-178 181,-178 187,-178 193,-184 193,-190 193,-190 193,-219 193,-219 193,-225 187,-231 181,-231"/>
<polygon fill="white" stroke="transparent" points="14.5,-191.5 14.5,-216.5 179.5,-216.5 179.5,-191.5 14.5,-191.5"/>
<polygon fill="none" stroke="black" points="14.5,-191.5 14.5,-216.5 179.5,-216.5 179.5,-191.5 14.5,-191.5"/>
<text text-anchor="start" x="21.5" y="-202.5" font-family="Courier,monospace" font-style="italic" font-size="10.00">p = start_minimal_flow(p)</text>
</g>
<!-- handler_a -->
<g id="node3" class="node">
<title>handler_a</title>
<path fill="lightblue" stroke="black" d="M154,-142C154,-142 39,-142 39,-142 33,-142 27,-136 27,-130 27,-130 27,-101 27,-101 27,-95 33,-89 39,-89 39,-89 154,-89 154,-89 160,-89 166,-95 166,-101 166,-101 166,-130 166,-130 166,-136 160,-142 154,-142"/>
<polygon fill="white" stroke="transparent" points="41.5,-102.5 41.5,-127.5 152.5,-127.5 152.5,-102.5 41.5,-102.5"/>
<polygon fill="none" stroke="black" points="41.5,-102.5 41.5,-127.5 152.5,-127.5 152.5,-102.5 41.5,-102.5"/>
<text text-anchor="start" x="48.5" y="-113.5" font-family="Courier,monospace" font-style="italic" font-size="10.00">p = handler_a(p)</text>
</g>
<!-- start_minimal_flow&#45;&gt;handler_a -->
<g id="edge2" class="edge">
<title>start_minimal_flow&#45;&gt;handler_a</title>
<path fill="none" stroke="black" d="M96.5,-177.87C96.5,-169.89 96.5,-160.93 96.5,-152.38"/>
<polygon fill="black" stroke="black" points="100,-152.25 96.5,-142.25 93,-152.25 100,-152.25"/>
</g>
<!-- end_minimal_flow -->
<g id="node2" class="node">
<title>end_minimal_flow</title>
<path fill="lightgreen" stroke="black" d="M175,-53C175,-53 18,-53 18,-53 12,-53 6,-47 6,-41 6,-41 6,-12 6,-12 6,-6 12,0 18,0 18,0 175,0 175,0 181,0 187,-6 187,-12 187,-12 187,-41 187,-41 187,-47 181,-53 175,-53"/>
<polygon fill="white" stroke="transparent" points="20.5,-13.5 20.5,-38.5 173.5,-38.5 173.5,-13.5 20.5,-13.5"/>
<polygon fill="none" stroke="black" points="20.5,-13.5 20.5,-38.5 173.5,-38.5 173.5,-13.5 20.5,-13.5"/>
<text text-anchor="start" x="27.5" y="-24.5" font-family="Courier,monospace" font-style="italic" font-size="10.00">p = end_minimal_flow(p)</text>
</g>
<!-- handler_a&#45;&gt;end_minimal_flow -->
<g id="edge1" class="edge">
<title>handler_a&#45;&gt;end_minimal_flow</title>
<path fill="none" stroke="black" d="M96.5,-88.87C96.5,-80.89 96.5,-71.93 96.5,-63.38"/>
<polygon fill="black" stroke="black" points="100,-63.25 96.5,-53.25 93,-63.25 100,-63.25"/>
</g>
</g>
</svg>
