<?xml version="1.0" encoding="UTF-8" standalone="no"?>
<!DOCTYPE svg PUBLIC "-//W3C//DTD SVG 1.1//EN"
 "http://www.w3.org/Graphics/SVG/1.1/DTD/svg11.dtd">
<!-- Generated by graphviz version 2.43.0 (0)
 -->
<!-- Title: flow Pages: 1 -->
<svg width="767pt" height="399pt"
 viewBox="0.00 0.00 767.00 399.00" xmlns="http://www.w3.org/2000/svg" xmlns:xlink="http://www.w3.org/1999/xlink">
<g id="graph0" class="graph" transform="scale(1 1) rotate(0) translate(4 395)">
<title>flow</title>
<polygon fill="white" stroke="transparent" points="-4,4 -4,-395 763,-395 763,4 -4,4"/>
<!-- start_while_true_flow -->
<g id="node1" class="node">
<title>start_while_true_flow</title>
<path fill="lightgreen" stroke="black" d="M199,-391C199,-391 12,-391 12,-391 6,-391 0,-385 0,-379 0,-379 0,-350 0,-350 0,-344 6,-338 12,-338 12,-338 199,-338 199,-338 205,-338 211,-344 211,-350 211,-350 211,-379 211,-379 211,-385 205,-391 199,-391"/>
<polygon fill="white" stroke="transparent" points="14.5,-351.5 14.5,-376.5 197.5,-376.5 197.5,-351.5 14.5,-351.5"/>
<polygon fill="none" stroke="black" points="14.5,-351.5 14.5,-376.5 197.5,-376.5 197.5,-351.5 14.5,-351.5"/>
<text text-anchor="start" x="21.5" y="-362.5" font-family="Courier,monospace" font-style="italic" font-size="10.00">p = start_while_true_flow(p)</text>
</g>
<!-- handler_init -->
<g id="node6" class="node">
<title>handler_init</title>
<path fill="lightblue" stroke="black" d="M172,-272C172,-272 39,-272 39,-272 33,-272 27,-266 27,-260 27,-260 27,-231 27,-231 27,-225 33,-219 39,-219 39,-219 172,-219 172,-219 178,-219 184,-225 184,-231 184,-231 184,-260 184,-260 184,-266 178,-272 172,-272"/>
<polygon fill="white" stroke="transparent" points="41.5,-232.5 41.5,-257.5 170.5,-257.5 170.5,-232.5 41.5,-232.5"/>
<polygon fill="none" stroke="black" points="41.5,-232.5 41.5,-257.5 170.5,-257.5 170.5,-232.5 41.5,-232.5"/>
<text text-anchor="start" x="48.5" y="-243.5" font-family="Courier,monospace" font-style="italic" font-size="10.00">p = handler_init(p)</text>
</g>
<!-- start_while_true_flow&#45;&gt;handler_init -->
<g id="edge7" class="edge">
<title>start_while_true_flow&#45;&gt;handler_init</title>
<path fill="none" stroke="black" d="M105.5,-337.82C105.5,-321.52 105.5,-300.18 105.5,-282.23"/>
<polygon fill="black" stroke="black" points="109,-282.12 105.5,-272.12 102,-282.12 109,-282.12"/>
</g>
<!-- router_while_true_flow_line_12_if -->
<g id="node2" class="node">
<title>router_while_true_flow_line_12_if</title>
<path fill="wheat" stroke="black" d="M512,-301C512,-301 253,-301 253,-301 247,-301 241,-295 241,-289 241,-289 241,-202 241,-202 241,-196 247,-190 253,-190 253,-190 512,-190 512,-190 518,-190 524,-196 524,-202 524,-202 524,-289 524,-289 524,-295 518,-301 512,-301"/>
<polygon fill="white" stroke="transparent" points="255.5,-261.5 255.5,-286.5 510.5,-286.5 510.5,-261.5 255.5,-261.5"/>
<polygon fill="none" stroke="black" points="255.5,-261.5 255.5,-286.5 510.5,-286.5 510.5,-261.5 255.5,-261.5"/>
<text text-anchor="start" x="262.5" y="-272.5" font-family="Courier,monospace" font-style="italic" font-size="10.00">p = router_while_true_flow_line_12_if(p)</text>
<polygon fill="lightyellow" stroke="transparent" points="255.5,-236.5 255.5,-261.5 510.5,-261.5 510.5,-236.5 255.5,-236.5"/>
<polygon fill="none" stroke="black" points="255.5,-236.5 255.5,-261.5 510.5,-261.5 510.5,-236.5 255.5,-236.5"/>
<text text-anchor="start" x="313" y="-247.5" font-family="Courier,monospace" font-weight="bold" font-size="10.00">if</text>
<text text-anchor="start" x="326" y="-247.5" font-family="Courier,monospace" font-size="10.00"> p.get(&#39;done&#39;, False)</text>
<polygon fill="none" stroke="black" points="255.5,-203.5 255.5,-236.5 510.5,-236.5 510.5,-203.5 255.5,-203.5"/>
<polygon fill="#698b69" stroke="transparent" points="262.5,-210.5 262.5,-229.5 383.5,-229.5 383.5,-210.5 262.5,-210.5"/>
<text text-anchor="start" x="310.5" y="-218.5" font-family="Courier,monospace" font-weight="bold" font-size="10.00" fill="white">TRUE</text>
<polygon fill="#8b3a3a" stroke="transparent" points="383.5,-210.5 383.5,-229.5 503.5,-229.5 503.5,-210.5 383.5,-210.5"/>
<text text-anchor="start" x="431" y="-218.5" font-family="Courier,monospace" font-weight="bold" font-size="10.00" fill="white">pass</text>
</g>
<!-- router_while_true_flow_line_10_loop_back_0 -->
<g id="node3" class="node">
<title>router_while_true_flow_line_10_loop_back_0</title>
<path fill="wheat" stroke="black" d="M539,-143C539,-143 226,-143 226,-143 220,-143 214,-137 214,-131 214,-131 214,-102 214,-102 214,-96 220,-90 226,-90 226,-90 539,-90 539,-90 545,-90 551,-96 551,-102 551,-102 551,-131 551,-131 551,-137 545,-143 539,-143"/>
<polygon fill="white" stroke="transparent" points="228.5,-103.5 228.5,-128.5 537.5,-128.5 537.5,-103.5 228.5,-103.5"/>
<polygon fill="none" stroke="black" points="228.5,-103.5 228.5,-128.5 537.5,-128.5 537.5,-103.5 228.5,-103.5"/>
<text text-anchor="start" x="235.5" y="-114.5" font-family="Courier,monospace" font-style="italic" font-size="10.00">p = router_while_true_flow_line_10_loop_back_0(p)</text>
</g>
<!-- router_while_true_flow_line_12_if&#45;&gt;router_while_true_flow_line_10_loop_back_0 -->
<g id="edge6" class="edge">
<title>router_while_true_flow_line_12_if&#45;&gt;router_while_true_flow_line_10_loop_back_0</title>
<path fill="none" stroke="#8b3a3a" d="M382.5,-189.9C382.5,-177.45 382.5,-164.52 382.5,-153.1"/>
<polygon fill="#8b3a3a" stroke="#8b3a3a" points="386,-153.1 382.5,-143.1 379,-153.1 386,-153.1"/>
<text text-anchor="middle" x="386" y="-164" font-family="Courier,monospace" font-size="10.00">F</text>
</g>
<!-- handler_finalize -->
<g id="node5" class="node">
<title>handler_finalize</title>
<path fill="lightblue" stroke="black" d="M738,-143C738,-143 581,-143 581,-143 575,-143 569,-137 569,-131 569,-131 569,-102 569,-102 569,-96 575,-90 581,-90 581,-90 738,-90 738,-90 744,-90 750,-96 750,-102 750,-102 750,-131 750,-131 750,-137 744,-143 738,-143"/>
<polygon fill="white" stroke="transparent" points="583.5,-103.5 583.5,-128.5 736.5,-128.5 736.5,-103.5 583.5,-103.5"/>
<polygon fill="none" stroke="black" points="583.5,-103.5 583.5,-128.5 736.5,-128.5 736.5,-103.5 583.5,-103.5"/>
<text text-anchor="start" x="590.5" y="-114.5" font-family="Courier,monospace" font-style="italic" font-size="10.00">p = handler_finalize(p)</text>
</g>
<!-- router_while_true_flow_line_12_if&#45;&gt;handler_finalize -->
<g id="edge5" class="edge">
<title>router_while_true_flow_line_12_if&#45;&gt;handler_finalize</title>
<path fill="none" stroke="#698b69" d="M501.58,-189.9C533.46,-175.29 566.74,-160.03 594.49,-147.31"/>
<polygon fill="#698b69" stroke="#698b69" points="596.04,-150.44 603.67,-143.1 593.13,-144.08 596.04,-150.44"/>
<text text-anchor="middle" x="565" y="-164" font-family="Courier,monospace" font-size="10.00">T</text>
</g>
<!-- handler_process -->
<g id="node7" class="node">
<title>handler_process</title>
<path fill="lightblue" stroke="black" d="M458,-391C458,-391 307,-391 307,-391 301,-391 295,-385 295,-379 295,-379 295,-350 295,-350 295,-344 301,-338 307,-338 307,-338 458,-338 458,-338 464,-338 470,-344 470,-350 470,-350 470,-379 470,-379 470,-385 464,-391 458,-391"/>
<polygon fill="white" stroke="transparent" points="309.5,-351.5 309.5,-376.5 456.5,-376.5 456.5,-351.5 309.5,-351.5"/>
<polygon fill="none" stroke="black" points="309.5,-351.5 309.5,-376.5 456.5,-376.5 456.5,-351.5 309.5,-351.5"/>
<text text-anchor="start" x="316.5" y="-362.5" font-family="Courier,monospace" font-style="italic" font-size="10.00">p = handler_process(p)</text>
</g>
<!-- router_while_true_flow_line_10_loop_back_0&#45;&gt;handler_process -->
<g id="edge4" class="edge">
<title>router_while_true_flow_line_10_loop_back_0&#45;&gt;handler_process</title>
<path fill="none" stroke="black" d="M328.35,-143.1C285.33,-163.49 232.24,-188.83 231.5,-190 205.23,-231.76 204.09,-259.98 231.5,-301 244.27,-320.11 264.08,-333.38 285.2,-342.6"/>
<polygon fill="black" stroke="black" points="284.06,-345.92 294.64,-346.43 286.69,-339.43 284.06,-345.92"/>
</g>
<!-- end_while_true_flow -->
<g id="node4" class="node">
<title>end_while_true_flow</title>
<path fill="lightgreen" stroke="black" d="M747,-53C747,-53 572,-53 572,-53 566,-53 560,-47 560,-41 560,-41 560,-12 560,-12 560,-6 566,0 572,0 572,0 747,0 747,0 753,0 759,-6 759,-12 759,-12 759,-41 759,-41 759,-47 753,-53 747,-53"/>
<polygon fill="white" stroke="transparent" points="574.5,-13.5 574.5,-38.5 745.5,-38.5 745.5,-13.5 574.5,-13.5"/>
<polygon fill="none" stroke="black" points="574.5,-13.5 574.5,-38.5 745.5,-38.5 745.5,-13.5 574.5,-13.5"/>
<text text-anchor="start" x="581.5" y="-24.5" font-family="Courier,monospace" font-style="italic" font-size="10.00">p = end_while_true_flow(p)</text>
</g>
<!-- handler_finalize&#45;&gt;end_while_true_flow -->
<g id="edge1" class="edge">
<title>handler_finalize&#45;&gt;end_while_true_flow</title>
<path fill="none" stroke="black" d="M659.5,-89.57C659.5,-81.34 659.5,-72.08 659.5,-63.28"/>
<polygon fill="black" stroke="black" points="663,-63.24 659.5,-53.24 656,-63.24 663,-63.24"/>
</g>
<!-- handler_init&#45;&gt;router_while_true_flow_line_10_loop_back_0 -->
<g id="edge2" class="edge">
<title>handler_init&#45;&gt;router_while_true_flow_line_10_loop_back_0</title>
<path fill="none" stroke="black" d="M145.96,-218.96C162.01,-209.31 180.83,-198.59 198.5,-190 231.24,-174.08 268.42,-158.91 300.75,-146.6"/>
<polygon fill="black" stroke="black" points="302.06,-149.84 310.18,-143.04 299.59,-143.3 302.06,-149.84"/>
</g>
<!-- handler_process&#45;&gt;router_while_true_flow_line_12_if -->
<g id="edge3" class="edge">
<title>handler_process&#45;&gt;router_while_true_flow_line_12_if</title>
<path fill="none" stroke="black" d="M382.5,-337.82C382.5,-329.92 382.5,-320.83 382.5,-311.53"/>
<polygon fill="black" stroke="black" points="386,-311.38 382.5,-301.38 379,-311.38 386,-311.38"/>
</g>
</g>
</svg>
