<?xml version="1.0" encoding="UTF-8" standalone="no"?>
<!DOCTYPE svg PUBLIC "-//W3C//DTD SVG 1.1//EN"
 "http://www.w3.org/Graphics/SVG/1.1/DTD/svg11.dtd">
<!-- Generated by graphviz version 2.43.0 (0)
 -->
<!-- Title: flow Pages: 1 -->
<svg width="633pt" height="1235pt"
 viewBox="0.00 0.00 633.13 1235.00" xmlns="http://www.w3.org/2000/svg" xmlns:xlink="http://www.w3.org/1999/xlink">
<g id="graph0" class="graph" transform="scale(1 1) rotate(0) translate(4 1231)">
<title>flow</title>
<polygon fill="white" stroke="transparent" points="-4,4 -4,-1231 629.13,-1231 629.13,4 -4,4"/>
<!-- start_while_break_continue_flow -->
<g id="node1" class="node">
<title>start_while_break_continue_flow</title>
<path fill="lightgreen" stroke="black" d="M519.13,-1227C519.13,-1227 272.13,-1227 272.13,-1227 266.13,-1227 260.13,-1221 260.13,-1215 260.13,-1215 260.13,-1186 260.13,-1186 260.13,-1180 266.13,-1174 272.13,-1174 272.13,-1174 519.13,-1174 519.13,-1174 525.13,-1174 531.13,-1180 531.13,-1186 531.13,-1186 531.13,-1215 531.13,-1215 531.13,-1221 525.13,-1227 519.13,-1227"/>
<polygon fill="white" stroke="transparent" points="274.63,-1187.5 274.63,-1212.5 517.63,-1212.5 517.63,-1187.5 274.63,-1187.5"/>
<polygon fill="none" stroke="black" points="274.63,-1187.5 274.63,-1212.5 517.63,-1212.5 517.63,-1187.5 274.63,-1187.5"/>
<text text-anchor="start" x="281.63" y="-1198.5" font-family="Courier,monospace" font-style="italic" font-size="10.00">p = start_while_break_continue_flow(p)</text>
</g>
<!-- handler_init -->
<g id="node10" class="node">
<title>handler_init</title>
<path fill="lightblue" stroke="black" d="M462.13,-1137C462.13,-1137 329.13,-1137 329.13,-1137 323.13,-1137 317.13,-1131 317.13,-1125 317.13,-1125 317.13,-1096 317.13,-1096 317.13,-1090 323.13,-1084 329.13,-1084 329.13,-1084 462.13,-1084 462.13,-1084 468.13,-1084 474.13,-1090 474.13,-1096 474.13,-1096 474.13,-1125 474.13,-1125 474.13,-1131 468.13,-1137 462.13,-1137"/>
<polygon fill="white" stroke="transparent" points="331.63,-1097.5 331.63,-1122.5 460.63,-1122.5 460.63,-1097.5 331.63,-1097.5"/>
<polygon fill="none" stroke="black" points="331.63,-1097.5 331.63,-1122.5 460.63,-1122.5 460.63,-1097.5 331.63,-1097.5"/>
<text text-anchor="start" x="338.63" y="-1108.5" font-family="Courier,monospace" font-style="italic" font-size="10.00">p = handler_init(p)</text>
</g>
<!-- start_while_break_continue_flow&#45;&gt;handler_init -->
<g id="edge13" class="edge">
<title>start_while_break_continue_flow&#45;&gt;handler_init</title>
<path fill="none" stroke="black" d="M395.63,-1173.57C395.63,-1165.34 395.63,-1156.08 395.63,-1147.28"/>
<polygon fill="black" stroke="black" points="399.13,-1147.24 395.63,-1137.24 392.13,-1147.24 399.13,-1147.24"/>
</g>
<!-- router_while_break_continue_flow_line_17_if -->
<g id="node2" class="node">
<title>router_while_break_continue_flow_line_17_if</title>
<path fill="wheat" stroke="black" d="M505.13,-301C505.13,-301 186.13,-301 186.13,-301 180.13,-301 174.13,-295 174.13,-289 174.13,-289 174.13,-202 174.13,-202 174.13,-196 180.13,-190 186.13,-190 186.13,-190 505.13,-190 505.13,-190 511.13,-190 517.13,-196 517.13,-202 517.13,-202 517.13,-289 517.13,-289 517.13,-295 511.13,-301 505.13,-301"/>
<polygon fill="white" stroke="transparent" points="188.63,-261.5 188.63,-286.5 503.63,-286.5 503.63,-261.5 188.63,-261.5"/>
<polygon fill="none" stroke="black" points="188.63,-261.5 188.63,-286.5 503.63,-286.5 503.63,-261.5 188.63,-261.5"/>
<text text-anchor="start" x="195.63" y="-272.5" font-family="Courier,monospace" font-style="italic" font-size="10.00">p = router_while_break_continue_flow_line_17_if(p)</text>
<polygon fill="lightyellow" stroke="transparent" points="188.63,-236.5 188.63,-261.5 503.63,-261.5 503.63,-236.5 188.63,-236.5"/>
<polygon fill="none" stroke="black" points="188.63,-236.5 188.63,-261.5 503.63,-261.5 503.63,-236.5 188.63,-236.5"/>
<text text-anchor="start" x="309.13" y="-247.5" font-family="Courier,monospace" font-weight="bold" font-size="10.00">if</text>
<text text-anchor="start" x="322.13" y="-247.5" font-family="Courier,monospace" font-size="10.00"> p[&#39;stop&#39;]</text>
<polygon fill="none" stroke="black" points="188.63,-203.5 188.63,-236.5 503.63,-236.5 503.63,-203.5 188.63,-203.5"/>
<polygon fill="#698b69" stroke="transparent" points="195.63,-210.5 195.63,-229.5 346.63,-229.5 346.63,-210.5 195.63,-210.5"/>
<text text-anchor="start" x="258.63" y="-218.5" font-family="Courier,monospace" font-weight="bold" font-size="10.00" fill="white">TRUE</text>
<polygon fill="#8b3a3a" stroke="transparent" points="346.63,-210.5 346.63,-229.5 496.63,-229.5 496.63,-210.5 346.63,-210.5"/>
<text text-anchor="start" x="409.13" y="-218.5" font-family="Courier,monospace" font-weight="bold" font-size="10.00" fill="white">pass</text>
</g>
<!-- router_while_break_continue_flow_line_11_while_0 -->
<g id="node5" class="node">
<title>router_while_break_continue_flow_line_11_while_0</title>
<path fill="wheat" stroke="black" d="M555.13,-932C555.13,-932 236.13,-932 236.13,-932 230.13,-932 224.13,-926 224.13,-920 224.13,-920 224.13,-833 224.13,-833 224.13,-827 230.13,-821 236.13,-821 236.13,-821 555.13,-821 555.13,-821 561.13,-821 567.13,-827 567.13,-833 567.13,-833 567.13,-920 567.13,-920 567.13,-926 561.13,-932 555.13,-932"/>
<polygon fill="white" stroke="transparent" points="238.63,-892.5 238.63,-917.5 553.63,-917.5 553.63,-892.5 238.63,-892.5"/>
<polygon fill="none" stroke="black" points="238.63,-892.5 238.63,-917.5 553.63,-917.5 553.63,-892.5 238.63,-892.5"/>
<text text-anchor="start" x="245.63" y="-903.5" font-family="Courier,monospace" font-style="italic" font-size="10.00">p = router_while_break_continue_flow_line_11_w…(p)</text>
<polygon fill="lightyellow" stroke="transparent" points="238.63,-867.5 238.63,-892.5 553.63,-892.5 553.63,-867.5 238.63,-867.5"/>
<polygon fill="none" stroke="black" points="238.63,-867.5 238.63,-892.5 553.63,-892.5 553.63,-867.5 238.63,-867.5"/>
<text text-anchor="start" x="302.13" y="-878.5" font-family="Courier,monospace" font-weight="bold" font-size="10.00">if</text>
<text text-anchor="start" x="315.13" y="-878.5" font-family="Courier,monospace" font-size="10.00"> p[&#39;i&#39;] &lt; p[&#39;max_iterations&#39;]</text>
<polygon fill="none" stroke="black" points="238.63,-834.5 238.63,-867.5 553.63,-867.5 553.63,-834.5 238.63,-834.5"/>
<polygon fill="#698b69" stroke="transparent" points="245.63,-841.5 245.63,-860.5 393.63,-860.5 393.63,-841.5 245.63,-841.5"/>
<text text-anchor="start" x="307.13" y="-849.5" font-family="Courier,monospace" font-weight="bold" font-size="10.00" fill="white">TRUE</text>
<polygon fill="#8b3a3a" stroke="transparent" points="393.63,-841.5 393.63,-860.5 546.63,-860.5 546.63,-841.5 393.63,-841.5"/>
<text text-anchor="start" x="454.63" y="-849.5" font-family="Courier,monospace" font-weight="bold" font-size="10.00" fill="white">FALSE</text>
</g>
<!-- router_while_break_continue_flow_line_17_if&#45;&gt;router_while_break_continue_flow_line_11_while_0 -->
<g id="edge12" class="edge">
<title>router_while_break_continue_flow_line_17_if&#45;&gt;router_while_break_continue_flow_line_11_while_0</title>
<path fill="none" stroke="#8b3a3a" d="M180.67,-301.11C117.43,-331.02 51.83,-375.15 15.63,-438 -8.99,-480.75 0.08,-502.18 15.63,-549 61.89,-688.28 97.79,-732.73 226.63,-803 234.95,-807.54 243.62,-812 252.43,-816.34"/>
<polygon fill="#8b3a3a" stroke="#8b3a3a" points="251.14,-819.6 261.66,-820.82 254.19,-813.3 251.14,-819.6"/>
<text text-anchor="middle" x="29.13" y="-570" font-family="Courier,monospace" font-size="10.00">F</text>
</g>
<!-- handler_finalize -->
<g id="node9" class="node">
<title>handler_finalize</title>
<path fill="lightblue" stroke="black" d="M574.13,-143C574.13,-143 417.13,-143 417.13,-143 411.13,-143 405.13,-137 405.13,-131 405.13,-131 405.13,-102 405.13,-102 405.13,-96 411.13,-90 417.13,-90 417.13,-90 574.13,-90 574.13,-90 580.13,-90 586.13,-96 586.13,-102 586.13,-102 586.13,-131 586.13,-131 586.13,-137 580.13,-143 574.13,-143"/>
<polygon fill="white" stroke="transparent" points="419.63,-103.5 419.63,-128.5 572.63,-128.5 572.63,-103.5 419.63,-103.5"/>
<polygon fill="none" stroke="black" points="419.63,-103.5 419.63,-128.5 572.63,-128.5 572.63,-103.5 419.63,-103.5"/>
<text text-anchor="start" x="426.63" y="-114.5" font-family="Courier,monospace" font-style="italic" font-size="10.00">p = handler_finalize(p)</text>
</g>
<!-- router_while_break_continue_flow_line_17_if&#45;&gt;handler_finalize -->
<g id="edge11" class="edge">
<title>router_while_break_continue_flow_line_17_if&#45;&gt;handler_finalize</title>
<path fill="none" stroke="#698b69" d="M410.11,-189.9C426.33,-176.18 443.21,-161.88 457.65,-149.66"/>
<polygon fill="#698b69" stroke="#698b69" points="460.03,-152.23 465.4,-143.1 455.51,-146.89 460.03,-152.23"/>
<text text-anchor="middle" x="446.13" y="-164" font-family="Courier,monospace" font-size="10.00">T</text>
</g>
<!-- router_while_break_continue_flow_line_14_if -->
<g id="node3" class="node">
<title>router_while_break_continue_flow_line_14_if</title>
<path fill="wheat" stroke="black" d="M356.13,-549C356.13,-549 37.13,-549 37.13,-549 31.13,-549 25.13,-543 25.13,-537 25.13,-537 25.13,-450 25.13,-450 25.13,-444 31.13,-438 37.13,-438 37.13,-438 356.13,-438 356.13,-438 362.13,-438 368.13,-444 368.13,-450 368.13,-450 368.13,-537 368.13,-537 368.13,-543 362.13,-549 356.13,-549"/>
<polygon fill="white" stroke="transparent" points="39.63,-509.5 39.63,-534.5 354.63,-534.5 354.63,-509.5 39.63,-509.5"/>
<polygon fill="none" stroke="black" points="39.63,-509.5 39.63,-534.5 354.63,-534.5 354.63,-509.5 39.63,-509.5"/>
<text text-anchor="start" x="46.63" y="-520.5" font-family="Courier,monospace" font-style="italic" font-size="10.00">p = router_while_break_continue_flow_line_14_if(p)</text>
<polygon fill="lightyellow" stroke="transparent" points="39.63,-484.5 39.63,-509.5 354.63,-509.5 354.63,-484.5 39.63,-484.5"/>
<polygon fill="none" stroke="black" points="39.63,-484.5 39.63,-509.5 354.63,-509.5 354.63,-484.5 39.63,-484.5"/>
<text text-anchor="start" x="160.13" y="-495.5" font-family="Courier,monospace" font-weight="bold" font-size="10.00">if</text>
<text text-anchor="start" x="173.13" y="-495.5" font-family="Courier,monospace" font-size="10.00"> p[&#39;skip&#39;]</text>
<polygon fill="none" stroke="black" points="39.63,-451.5 39.63,-484.5 354.63,-484.5 354.63,-451.5 39.63,-451.5"/>
<polygon fill="#698b69" stroke="transparent" points="46.63,-458.5 46.63,-477.5 194.63,-477.5 194.63,-458.5 46.63,-458.5"/>
<text text-anchor="start" x="108.13" y="-466.5" font-family="Courier,monospace" font-weight="bold" font-size="10.00" fill="white">TRUE</text>
<polygon fill="#8b3a3a" stroke="transparent" points="194.63,-458.5 194.63,-477.5 347.63,-477.5 347.63,-458.5 194.63,-458.5"/>
<text text-anchor="start" x="255.63" y="-466.5" font-family="Courier,monospace" font-weight="bold" font-size="10.00" fill="white">FALSE</text>
</g>
<!-- router_while_break_continue_flow_line_14_if&#45;&gt;router_while_break_continue_flow_line_11_while_0 -->
<g id="edge10" class="edge">
<title>router_while_break_continue_flow_line_14_if&#45;&gt;router_while_break_continue_flow_line_11_while_0</title>
<path fill="none" stroke="#698b69" d="M185.98,-549.07C177.33,-609.05 172.7,-705.91 215.63,-774 225.48,-789.62 238.64,-803.06 253.39,-814.57"/>
<polygon fill="#698b69" stroke="#698b69" points="251.62,-817.61 261.74,-820.76 255.8,-811.99 251.62,-817.61"/>
<text text-anchor="middle" x="187.13" y="-670" font-family="Courier,monospace" font-size="10.00">T</text>
</g>
<!-- handler_process -->
<g id="node11" class="node">
<title>handler_process</title>
<path fill="lightblue" stroke="black" d="M383.13,-391C383.13,-391 232.13,-391 232.13,-391 226.13,-391 220.13,-385 220.13,-379 220.13,-379 220.13,-350 220.13,-350 220.13,-344 226.13,-338 232.13,-338 232.13,-338 383.13,-338 383.13,-338 389.13,-338 395.13,-344 395.13,-350 395.13,-350 395.13,-379 395.13,-379 395.13,-385 389.13,-391 383.13,-391"/>
<polygon fill="white" stroke="transparent" points="234.63,-351.5 234.63,-376.5 381.63,-376.5 381.63,-351.5 234.63,-351.5"/>
<polygon fill="none" stroke="black" points="234.63,-351.5 234.63,-376.5 381.63,-376.5 381.63,-351.5 234.63,-351.5"/>
<text text-anchor="start" x="241.63" y="-362.5" font-family="Courier,monospace" font-style="italic" font-size="10.00">p = handler_process(p)</text>
</g>
<!-- router_while_break_continue_flow_line_14_if&#45;&gt;handler_process -->
<g id="edge9" class="edge">
<title>router_while_break_continue_flow_line_14_if&#45;&gt;handler_process</title>
<path fill="none" stroke="#8b3a3a" d="M244.35,-437.9C256.01,-424.56 268.15,-410.68 278.63,-398.68"/>
<polygon fill="#8b3a3a" stroke="#8b3a3a" points="281.31,-400.93 285.26,-391.1 276.04,-396.32 281.31,-400.93"/>
<text text-anchor="middle" x="272.13" y="-412" font-family="Courier,monospace" font-size="10.00">F</text>
</g>
<!-- router_while_break_continue_flow_line_12_seq -->
<g id="node4" class="node">
<title>router_while_break_continue_flow_line_12_seq</title>
<path fill="wheat" stroke="black" d="M555.13,-774C555.13,-774 236.13,-774 236.13,-774 230.13,-774 224.13,-768 224.13,-762 224.13,-762 224.13,-708 224.13,-708 224.13,-702 230.13,-696 236.13,-696 236.13,-696 555.13,-696 555.13,-696 561.13,-696 567.13,-702 567.13,-708 567.13,-708 567.13,-762 567.13,-762 567.13,-768 561.13,-774 555.13,-774"/>
<polygon fill="white" stroke="transparent" points="238.63,-735 238.63,-760 553.63,-760 553.63,-735 238.63,-735"/>
<polygon fill="none" stroke="black" points="238.63,-735 238.63,-760 553.63,-760 553.63,-735 238.63,-735"/>
<text text-anchor="start" x="245.63" y="-746" font-family="Courier,monospace" font-style="italic" font-size="10.00">p = router_while_break_continue_flow_line_12_s…(p)</text>
<polygon fill="white" stroke="transparent" points="238.63,-710 238.63,-735 553.63,-735 553.63,-710 238.63,-710"/>
<polygon fill="none" stroke="black" points="238.63,-710 238.63,-735 553.63,-735 553.63,-710 238.63,-710"/>
<text text-anchor="start" x="245.63" y="-720" font-family="Courier,monospace" font-size="10.00">p[&#39;i&#39;] += 1</text>
</g>
<!-- handler_check -->
<g id="node8" class="node">
<title>handler_check</title>
<path fill="lightblue" stroke="black" d="M400.13,-649C400.13,-649 261.13,-649 261.13,-649 255.13,-649 249.13,-643 249.13,-637 249.13,-637 249.13,-608 249.13,-608 249.13,-602 255.13,-596 261.13,-596 261.13,-596 400.13,-596 400.13,-596 406.13,-596 412.13,-602 412.13,-608 412.13,-608 412.13,-637 412.13,-637 412.13,-643 406.13,-649 400.13,-649"/>
<polygon fill="white" stroke="transparent" points="263.63,-609.5 263.63,-634.5 398.63,-634.5 398.63,-609.5 263.63,-609.5"/>
<polygon fill="none" stroke="black" points="263.63,-609.5 263.63,-634.5 398.63,-634.5 398.63,-609.5 263.63,-609.5"/>
<text text-anchor="start" x="270.63" y="-620.5" font-family="Courier,monospace" font-style="italic" font-size="10.00">p = handler_check(p)</text>
</g>
<!-- router_while_break_continue_flow_line_12_seq&#45;&gt;handler_check -->
<g id="edge8" class="edge">
<title>router_while_break_continue_flow_line_12_seq&#45;&gt;handler_check</title>
<path fill="none" stroke="black" d="M373.26,-695.97C366,-683.63 358,-670.02 350.9,-657.96"/>
<polygon fill="black" stroke="black" points="353.77,-655.93 345.68,-649.09 347.73,-659.48 353.77,-655.93"/>
</g>
<!-- router_while_break_continue_flow_line_11_while_0&#45;&gt;router_while_break_continue_flow_line_12_seq -->
<g id="edge7" class="edge">
<title>router_while_break_continue_flow_line_11_while_0&#45;&gt;router_while_break_continue_flow_line_12_seq</title>
<path fill="none" stroke="#698b69" d="M395.63,-820.77C395.63,-808.72 395.63,-796.05 395.63,-784.28"/>
<polygon fill="#698b69" stroke="#698b69" points="399.13,-784.21 395.63,-774.21 392.13,-784.21 399.13,-784.21"/>
<text text-anchor="middle" x="399.13" y="-795" font-family="Courier,monospace" font-size="10.00">T</text>
</g>
<!-- router_while_break_continue_flow_line_11_while_0&#45;&gt;handler_finalize -->
<g id="edge6" class="edge">
<title>router_while_break_continue_flow_line_11_while_0&#45;&gt;handler_finalize</title>
<path fill="none" stroke="#8b3a3a" d="M542.09,-820.84C572.04,-800.09 594.63,-772.39 594.63,-736 594.63,-736 594.63,-736 594.63,-244.5 594.63,-206.33 566.47,-172.76 540.19,-149.73"/>
<polygon fill="#8b3a3a" stroke="#8b3a3a" points="542.39,-147 532.49,-143.22 537.87,-152.35 542.39,-147"/>
<text text-anchor="middle" x="598.13" y="-491" font-family="Courier,monospace" font-size="10.00">F</text>
</g>
<!-- router_while_break_continue_flow_line_10_seq -->
<g id="node6" class="node">
<title>router_while_break_continue_flow_line_10_seq</title>
<path fill="wheat" stroke="black" d="M555.13,-1047C555.13,-1047 236.13,-1047 236.13,-1047 230.13,-1047 224.13,-1041 224.13,-1035 224.13,-1035 224.13,-981 224.13,-981 224.13,-975 230.13,-969 236.13,-969 236.13,-969 555.13,-969 555.13,-969 561.13,-969 567.13,-975 567.13,-981 567.13,-981 567.13,-1035 567.13,-1035 567.13,-1041 561.13,-1047 555.13,-1047"/>
<polygon fill="white" stroke="transparent" points="238.63,-1008 238.63,-1033 553.63,-1033 553.63,-1008 238.63,-1008"/>
<polygon fill="none" stroke="black" points="238.63,-1008 238.63,-1033 553.63,-1033 553.63,-1008 238.63,-1008"/>
<text text-anchor="start" x="245.63" y="-1019" font-family="Courier,monospace" font-style="italic" font-size="10.00">p = router_while_break_continue_flow_line_10_s…(p)</text>
<polygon fill="white" stroke="transparent" points="238.63,-983 238.63,-1008 553.63,-1008 553.63,-983 238.63,-983"/>
<polygon fill="none" stroke="black" points="238.63,-983 238.63,-1008 553.63,-1008 553.63,-983 238.63,-983"/>
<text text-anchor="start" x="245.63" y="-993" font-family="Courier,monospace" font-size="10.00">p[&#39;i&#39;] = 0</text>
</g>
<!-- router_while_break_continue_flow_line_10_seq&#45;&gt;router_while_break_continue_flow_line_11_while_0 -->
<g id="edge5" class="edge">
<title>router_while_break_continue_flow_line_10_seq&#45;&gt;router_while_break_continue_flow_line_11_while_0</title>
<path fill="none" stroke="black" d="M395.63,-968.85C395.63,-960.5 395.63,-951.44 395.63,-942.37"/>
<polygon fill="black" stroke="black" points="399.13,-942.17 395.63,-932.17 392.13,-942.17 399.13,-942.17"/>
</g>
<!-- end_while_break_continue_flow -->
<g id="node7" class="node">
<title>end_while_break_continue_flow</title>
<path fill="lightgreen" stroke="black" d="M613.13,-53C613.13,-53 378.13,-53 378.13,-53 372.13,-53 366.13,-47 366.13,-41 366.13,-41 366.13,-12 366.13,-12 366.13,-6 372.13,0 378.13,0 378.13,0 613.13,0 613.13,0 619.13,0 625.13,-6 625.13,-12 625.13,-12 625.13,-41 625.13,-41 625.13,-47 619.13,-53 613.13,-53"/>
<polygon fill="white" stroke="transparent" points="380.63,-13.5 380.63,-38.5 611.63,-38.5 611.63,-13.5 380.63,-13.5"/>
<polygon fill="none" stroke="black" points="380.63,-13.5 380.63,-38.5 611.63,-38.5 611.63,-13.5 380.63,-13.5"/>
<text text-anchor="start" x="387.63" y="-24.5" font-family="Courier,monospace" font-style="italic" font-size="10.00">p = end_while_break_continue_flow(p)</text>
</g>
<!-- handler_check&#45;&gt;router_while_break_continue_flow_line_14_if -->
<g id="edge1" class="edge">
<title>handler_check&#45;&gt;router_while_break_continue_flow_line_14_if</title>
<path fill="none" stroke="black" d="M303.51,-595.8C291.29,-584.21 276.28,-569.99 261.42,-555.9"/>
<polygon fill="black" stroke="black" points="263.81,-553.35 254.15,-549.01 259,-558.43 263.81,-553.35"/>
</g>
<!-- handler_finalize&#45;&gt;end_while_break_continue_flow -->
<g id="edge2" class="edge">
<title>handler_finalize&#45;&gt;end_while_break_continue_flow</title>
<path fill="none" stroke="black" d="M495.63,-89.57C495.63,-81.34 495.63,-72.08 495.63,-63.28"/>
<polygon fill="black" stroke="black" points="499.13,-63.24 495.63,-53.24 492.13,-63.24 499.13,-63.24"/>
</g>
<!-- handler_init&#45;&gt;router_while_break_continue_flow_line_10_seq -->
<g id="edge3" class="edge">
<title>handler_init&#45;&gt;router_while_break_continue_flow_line_10_seq</title>
<path fill="none" stroke="black" d="M395.63,-1083.88C395.63,-1075.77 395.63,-1066.52 395.63,-1057.35"/>
<polygon fill="black" stroke="black" points="399.13,-1057.1 395.63,-1047.1 392.13,-1057.1 399.13,-1057.1"/>
</g>
<!-- handler_process&#45;&gt;router_while_break_continue_flow_line_17_if -->
<g id="edge4" class="edge">
<title>handler_process&#45;&gt;router_while_break_continue_flow_line_17_if</title>
<path fill="none" stroke="black" d="M315.97,-337.82C318.59,-329.75 321.61,-320.45 324.7,-310.93"/>
<polygon fill="black" stroke="black" points="328.05,-311.97 327.81,-301.38 321.39,-309.81 328.05,-311.97"/>
</g>
</g>
</svg>
