<?xml version="1.0" encoding="UTF-8" standalone="no"?>
<!DOCTYPE svg PUBLIC "-//W3C//DTD SVG 1.1//EN"
 "http://www.w3.org/Graphics/SVG/1.1/DTD/svg11.dtd">
<!-- Generated by graphviz version 2.43.0 (0)
 -->
<!-- Title: flow Pages: 1 -->
<svg width="585pt" height="1009pt"
 viewBox="0.00 0.00 585.00 1009.00" xmlns="http://www.w3.org/2000/svg" xmlns:xlink="http://www.w3.org/1999/xlink">
<g id="graph0" class="graph" transform="scale(1 1) rotate(0) translate(4 1005)">
<title>flow</title>
<polygon fill="white" stroke="transparent" points="-4,4 -4,-1005 581,-1005 581,4 -4,4"/>
<!-- start_text_analysis_flow -->
<g id="node1" class="node">
<title>start_text_analysis_flow</title>
<path fill="lightgreen" stroke="black" d="M256,-1001C256,-1001 51,-1001 51,-1001 45,-1001 39,-995 39,-989 39,-989 39,-960 39,-960 39,-954 45,-948 51,-948 51,-948 256,-948 256,-948 262,-948 268,-954 268,-960 268,-960 268,-989 268,-989 268,-995 262,-1001 256,-1001"/>
<polygon fill="white" stroke="transparent" points="53.5,-961.5 53.5,-986.5 254.5,-986.5 254.5,-961.5 53.5,-961.5"/>
<polygon fill="none" stroke="black" points="53.5,-961.5 53.5,-986.5 254.5,-986.5 254.5,-961.5 53.5,-961.5"/>
<text text-anchor="start" x="60.5" y="-972.5" font-family="Courier,monospace" font-style="italic" font-size="10.00">p = start_text_analysis_flow(p)</text>
</g>
<!-- clean_text -->
<g id="node7" class="node">
<title>clean_text</title>
<path fill="lightblue" stroke="black" d="M214,-911C214,-911 93,-911 93,-911 87,-911 81,-905 81,-899 81,-899 81,-870 81,-870 81,-864 87,-858 93,-858 93,-858 214,-858 214,-858 220,-858 226,-864 226,-870 226,-870 226,-899 226,-899 226,-905 220,-911 214,-911"/>
<polygon fill="white" stroke="transparent" points="95.5,-871.5 95.5,-896.5 212.5,-896.5 212.5,-871.5 95.5,-871.5"/>
<polygon fill="none" stroke="black" points="95.5,-871.5 95.5,-896.5 212.5,-896.5 212.5,-871.5 95.5,-871.5"/>
<text text-anchor="start" x="102.5" y="-882.5" font-family="Courier,monospace" font-style="italic" font-size="10.00">p = clean_text(p)</text>
</g>
<!-- start_text_analysis_flow&#45;&gt;clean_text -->
<g id="edge11" class="edge">
<title>start_text_analysis_flow&#45;&gt;clean_text</title>
<path fill="none" stroke="black" d="M153.5,-947.57C153.5,-939.34 153.5,-930.08 153.5,-921.28"/>
<polygon fill="black" stroke="black" points="157,-921.24 153.5,-911.24 150,-921.24 157,-921.24"/>
</g>
<!-- router_text_analysis_flow_line_14_seq -->
<g id="node2" class="node">
<title>router_text_analysis_flow_line_14_seq</title>
<path fill="wheat" stroke="black" d="M295,-373C295,-373 12,-373 12,-373 6,-373 0,-367 0,-361 0,-361 0,-307 0,-307 0,-301 6,-295 12,-295 12,-295 295,-295 295,-295 301,-295 307,-301 307,-307 307,-307 307,-361 307,-361 307,-367 301,-373 295,-373"/>
<polygon fill="white" stroke="transparent" points="14.5,-334 14.5,-359 293.5,-359 293.5,-334 14.5,-334"/>
<polygon fill="none" stroke="black" points="14.5,-334 14.5,-359 293.5,-359 293.5,-334 14.5,-334"/>
<text text-anchor="start" x="21.5" y="-345" font-family="Courier,monospace" font-style="italic" font-size="10.00">p = router_text_analysis_flow_line_14_seq(p)</text>
<polygon fill="white" stroke="transparent" points="14.5,-309 14.5,-334 293.5,-334 293.5,-309 14.5,-309"/>
<polygon fill="none" stroke="black" points="14.5,-309 14.5,-334 293.5,-334 293.5,-309 14.5,-309"/>
<text text-anchor="start" x="21.5" y="-319" font-family="Courier,monospace" font-size="10.00">p[&#39;sentiment&#39;] = &#39;neutral&#39;</text>
</g>
<!-- extract_entities -->
<g id="node9" class="node">
<title>extract_entities</title>
<path fill="lightblue" stroke="black" d="M497,-258C497,-258 340,-258 340,-258 334,-258 328,-252 328,-246 328,-246 328,-217 328,-217 328,-211 334,-205 340,-205 340,-205 497,-205 497,-205 503,-205 509,-211 509,-217 509,-217 509,-246 509,-246 509,-252 503,-258 497,-258"/>
<polygon fill="white" stroke="transparent" points="342.5,-218.5 342.5,-243.5 495.5,-243.5 495.5,-218.5 342.5,-218.5"/>
<polygon fill="none" stroke="black" points="342.5,-218.5 342.5,-243.5 495.5,-243.5 495.5,-218.5 342.5,-218.5"/>
<text text-anchor="start" x="349.5" y="-229.5" font-family="Courier,monospace" font-style="italic" font-size="10.00">p = extract_entities(p)</text>
</g>
<!-- router_text_analysis_flow_line_14_seq&#45;&gt;extract_entities -->
<g id="edge6" class="edge">
<title>router_text_analysis_flow_line_14_seq&#45;&gt;extract_entities</title>
<path fill="none" stroke="black" d="M254.06,-294.86C283.01,-283.88 314.12,-272.09 341.4,-261.74"/>
<polygon fill="black" stroke="black" points="342.77,-264.96 350.88,-258.14 340.29,-258.42 342.77,-264.96"/>
</g>
<!-- router_text_analysis_flow_line_11_if -->
<g id="node3" class="node">
<title>router_text_analysis_flow_line_11_if</title>
<path fill="wheat" stroke="black" d="M292,-573C292,-573 15,-573 15,-573 9,-573 3,-567 3,-561 3,-561 3,-474 3,-474 3,-468 9,-462 15,-462 15,-462 292,-462 292,-462 298,-462 304,-468 304,-474 304,-474 304,-561 304,-561 304,-567 298,-573 292,-573"/>
<polygon fill="white" stroke="transparent" points="17.5,-533.5 17.5,-558.5 290.5,-558.5 290.5,-533.5 17.5,-533.5"/>
<polygon fill="none" stroke="black" points="17.5,-533.5 17.5,-558.5 290.5,-558.5 290.5,-533.5 17.5,-533.5"/>
<text text-anchor="start" x="24.5" y="-544.5" font-family="Courier,monospace" font-style="italic" font-size="10.00">p = router_text_analysis_flow_line_11_if(p)</text>
<polygon fill="lightyellow" stroke="transparent" points="17.5,-508.5 17.5,-533.5 290.5,-533.5 290.5,-508.5 17.5,-508.5"/>
<polygon fill="none" stroke="black" points="17.5,-508.5 17.5,-533.5 290.5,-533.5 290.5,-508.5 17.5,-508.5"/>
<text text-anchor="start" x="81" y="-519.5" font-family="Courier,monospace" font-weight="bold" font-size="10.00">if</text>
<text text-anchor="start" x="94" y="-519.5" font-family="Courier,monospace" font-size="10.00"> p[&#39;language&#39;] == &#39;es&#39;</text>
<polygon fill="none" stroke="black" points="17.5,-475.5 17.5,-508.5 290.5,-508.5 290.5,-475.5 17.5,-475.5"/>
<polygon fill="#698b69" stroke="transparent" points="24.5,-482.5 24.5,-501.5 151.5,-501.5 151.5,-482.5 24.5,-482.5"/>
<text text-anchor="start" x="75.5" y="-490.5" font-family="Courier,monospace" font-weight="bold" font-size="10.00" fill="white">TRUE</text>
<polygon fill="#8b3a3a" stroke="transparent" points="151.5,-482.5 151.5,-501.5 283.5,-501.5 283.5,-482.5 151.5,-482.5"/>
<text text-anchor="start" x="202" y="-490.5" font-family="Courier,monospace" font-weight="bold" font-size="10.00" fill="white">FALSE</text>
</g>
<!-- router_text_analysis_flow_line_11_if&#45;&gt;router_text_analysis_flow_line_14_seq -->
<g id="edge4" class="edge">
<title>router_text_analysis_flow_line_11_if&#45;&gt;router_text_analysis_flow_line_14_seq</title>
<path fill="none" stroke="#8b3a3a" d="M153.5,-461.55C153.5,-436.65 153.5,-407.46 153.5,-383.4"/>
<polygon fill="#8b3a3a" stroke="#8b3a3a" points="157,-383.08 153.5,-373.08 150,-383.08 157,-383.08"/>
<text text-anchor="middle" x="157" y="-415" font-family="Courier,monospace" font-size="10.00">F</text>
</g>
<!-- spanish_sentiment -->
<g id="node10" class="node">
<title>spanish_sentiment</title>
<path fill="lightblue" stroke="black" d="M500,-360.5C500,-360.5 337,-360.5 337,-360.5 331,-360.5 325,-354.5 325,-348.5 325,-348.5 325,-319.5 325,-319.5 325,-313.5 331,-307.5 337,-307.5 337,-307.5 500,-307.5 500,-307.5 506,-307.5 512,-313.5 512,-319.5 512,-319.5 512,-348.5 512,-348.5 512,-354.5 506,-360.5 500,-360.5"/>
<polygon fill="white" stroke="transparent" points="339.5,-321 339.5,-346 498.5,-346 498.5,-321 339.5,-321"/>
<polygon fill="none" stroke="black" points="339.5,-321 339.5,-346 498.5,-346 498.5,-321 339.5,-321"/>
<text text-anchor="start" x="346.5" y="-332" font-family="Courier,monospace" font-style="italic" font-size="10.00">p = spanish_sentiment(p)</text>
</g>
<!-- router_text_analysis_flow_line_11_if&#45;&gt;spanish_sentiment -->
<g id="edge5" class="edge">
<title>router_text_analysis_flow_line_11_if&#45;&gt;spanish_sentiment</title>
<path fill="none" stroke="#698b69" d="M233.37,-461.8C278.99,-430.55 334.55,-392.5 372.83,-366.28"/>
<polygon fill="#698b69" stroke="#698b69" points="374.94,-369.08 381.21,-360.54 370.98,-363.3 374.94,-369.08"/>
<text text-anchor="middle" x="336" y="-415" font-family="Courier,monospace" font-size="10.00">T</text>
</g>
<!-- router_text_analysis_flow_line_18_seq -->
<g id="node4" class="node">
<title>router_text_analysis_flow_line_18_seq</title>
<path fill="wheat" stroke="black" d="M560,-168C560,-168 277,-168 277,-168 271,-168 265,-162 265,-156 265,-156 265,-102 265,-102 265,-96 271,-90 277,-90 277,-90 560,-90 560,-90 566,-90 572,-96 572,-102 572,-102 572,-156 572,-156 572,-162 566,-168 560,-168"/>
<polygon fill="white" stroke="transparent" points="279.5,-129 279.5,-154 558.5,-154 558.5,-129 279.5,-129"/>
<polygon fill="none" stroke="black" points="279.5,-129 279.5,-154 558.5,-154 558.5,-129 279.5,-129"/>
<text text-anchor="start" x="286.5" y="-140" font-family="Courier,monospace" font-style="italic" font-size="10.00">p = router_text_analysis_flow_line_18_seq(p)</text>
<polygon fill="white" stroke="transparent" points="279.5,-104 279.5,-129 558.5,-129 558.5,-104 279.5,-104"/>
<polygon fill="none" stroke="black" points="279.5,-104 279.5,-129 558.5,-129 558.5,-104 279.5,-104"/>
<text text-anchor="start" x="286.5" y="-114" font-family="Courier,monospace" font-size="10.00">p[&#39;extracted&#39;] = True</text>
</g>
<!-- end_text_analysis_flow -->
<g id="node6" class="node">
<title>end_text_analysis_flow</title>
<path fill="lightgreen" stroke="black" d="M515,-53C515,-53 322,-53 322,-53 316,-53 310,-47 310,-41 310,-41 310,-12 310,-12 310,-6 316,0 322,0 322,0 515,0 515,0 521,0 527,-6 527,-12 527,-12 527,-41 527,-41 527,-47 521,-53 515,-53"/>
<polygon fill="white" stroke="transparent" points="324.5,-13.5 324.5,-38.5 513.5,-38.5 513.5,-13.5 324.5,-13.5"/>
<polygon fill="none" stroke="black" points="324.5,-13.5 324.5,-38.5 513.5,-38.5 513.5,-13.5 324.5,-13.5"/>
<text text-anchor="start" x="331.5" y="-24.5" font-family="Courier,monospace" font-style="italic" font-size="10.00">p = end_text_analysis_flow(p)</text>
</g>
<!-- router_text_analysis_flow_line_18_seq&#45;&gt;end_text_analysis_flow -->
<g id="edge7" class="edge">
<title>router_text_analysis_flow_line_18_seq&#45;&gt;end_text_analysis_flow</title>
<path fill="none" stroke="black" d="M418.5,-89.72C418.5,-81.04 418.5,-71.86 418.5,-63.29"/>
<polygon fill="black" stroke="black" points="422,-63.22 418.5,-53.22 415,-63.22 422,-63.22"/>
</g>
<!-- router_text_analysis_flow_line_9_if -->
<g id="node5" class="node">
<title>router_text_analysis_flow_line_9_if</title>
<path fill="wheat" stroke="black" d="M289,-731C289,-731 18,-731 18,-731 12,-731 6,-725 6,-719 6,-719 6,-632 6,-632 6,-626 12,-620 18,-620 18,-620 289,-620 289,-620 295,-620 301,-626 301,-632 301,-632 301,-719 301,-719 301,-725 295,-731 289,-731"/>
<polygon fill="white" stroke="transparent" points="20.5,-691.5 20.5,-716.5 287.5,-716.5 287.5,-691.5 20.5,-691.5"/>
<polygon fill="none" stroke="black" points="20.5,-691.5 20.5,-716.5 287.5,-716.5 287.5,-691.5 20.5,-691.5"/>
<text text-anchor="start" x="27.5" y="-702.5" font-family="Courier,monospace" font-style="italic" font-size="10.00">p = router_text_analysis_flow_line_9_if(p)</text>
<polygon fill="lightyellow" stroke="transparent" points="20.5,-666.5 20.5,-691.5 287.5,-691.5 287.5,-666.5 20.5,-666.5"/>
<polygon fill="none" stroke="black" points="20.5,-666.5 20.5,-691.5 287.5,-691.5 287.5,-666.5 20.5,-666.5"/>
<text text-anchor="start" x="81" y="-677.5" font-family="Courier,monospace" font-weight="bold" font-size="10.00">if</text>
<text text-anchor="start" x="94" y="-677.5" font-family="Courier,monospace" font-size="10.00"> p[&#39;language&#39;] == &#39;en&#39;</text>
<polygon fill="none" stroke="black" points="20.5,-633.5 20.5,-666.5 287.5,-666.5 287.5,-633.5 20.5,-633.5"/>
<polygon fill="#698b69" stroke="transparent" points="27.5,-640.5 27.5,-659.5 151.5,-659.5 151.5,-640.5 27.5,-640.5"/>
<text text-anchor="start" x="77" y="-648.5" font-family="Courier,monospace" font-weight="bold" font-size="10.00" fill="white">TRUE</text>
<polygon fill="#8b3a3a" stroke="transparent" points="151.5,-640.5 151.5,-659.5 280.5,-659.5 280.5,-640.5 151.5,-640.5"/>
<text text-anchor="start" x="200.5" y="-648.5" font-family="Courier,monospace" font-weight="bold" font-size="10.00" fill="white">FALSE</text>
</g>
<!-- router_text_analysis_flow_line_9_if&#45;&gt;router_text_analysis_flow_line_11_if -->
<g id="edge9" class="edge">
<title>router_text_analysis_flow_line_9_if&#45;&gt;router_text_analysis_flow_line_11_if</title>
<path fill="none" stroke="#8b3a3a" d="M153.5,-619.94C153.5,-608.06 153.5,-595.39 153.5,-583.17"/>
<polygon fill="#8b3a3a" stroke="#8b3a3a" points="157,-583.03 153.5,-573.03 150,-583.03 157,-583.03"/>
<text text-anchor="middle" x="157" y="-594" font-family="Courier,monospace" font-size="10.00">F</text>
</g>
<!-- english_sentiment -->
<g id="node8" class="node">
<title>english_sentiment</title>
<path fill="lightblue" stroke="black" d="M565,-444C565,-444 402,-444 402,-444 396,-444 390,-438 390,-432 390,-432 390,-403 390,-403 390,-397 396,-391 402,-391 402,-391 565,-391 565,-391 571,-391 577,-397 577,-403 577,-403 577,-432 577,-432 577,-438 571,-444 565,-444"/>
<polygon fill="white" stroke="transparent" points="404.5,-404.5 404.5,-429.5 563.5,-429.5 563.5,-404.5 404.5,-404.5"/>
<polygon fill="none" stroke="black" points="404.5,-404.5 404.5,-429.5 563.5,-429.5 563.5,-404.5 404.5,-404.5"/>
<text text-anchor="start" x="411.5" y="-415.5" font-family="Courier,monospace" font-style="italic" font-size="10.00">p = english_sentiment(p)</text>
</g>
<!-- router_text_analysis_flow_line_9_if&#45;&gt;english_sentiment -->
<g id="edge8" class="edge">
<title>router_text_analysis_flow_line_9_if&#45;&gt;english_sentiment</title>
<path fill="none" stroke="#698b69" d="M245.46,-619.97C268.22,-605.45 292.18,-589.26 313.5,-573 364.21,-534.33 417.9,-483.69 451.06,-451.12"/>
<polygon fill="#698b69" stroke="#698b69" points="453.56,-453.57 458.22,-444.05 448.64,-448.58 453.56,-453.57"/>
<text text-anchor="middle" x="291" y="-594" font-family="Courier,monospace" font-size="10.00">T</text>
</g>
<!-- tokenize -->
<g id="node11" class="node">
<title>tokenize</title>
<path fill="lightblue" stroke="black" d="M208,-821C208,-821 99,-821 99,-821 93,-821 87,-815 87,-809 87,-809 87,-780 87,-780 87,-774 93,-768 99,-768 99,-768 208,-768 208,-768 214,-768 220,-774 220,-780 220,-780 220,-809 220,-809 220,-815 214,-821 208,-821"/>
<polygon fill="white" stroke="transparent" points="101.5,-781.5 101.5,-806.5 206.5,-806.5 206.5,-781.5 101.5,-781.5"/>
<polygon fill="none" stroke="black" points="101.5,-781.5 101.5,-806.5 206.5,-806.5 206.5,-781.5 101.5,-781.5"/>
<text text-anchor="start" x="108.5" y="-792.5" font-family="Courier,monospace" font-style="italic" font-size="10.00">p = tokenize(p)</text>
</g>
<!-- clean_text&#45;&gt;tokenize -->
<g id="edge1" class="edge">
<title>clean_text&#45;&gt;tokenize</title>
<path fill="none" stroke="black" d="M153.5,-857.57C153.5,-849.34 153.5,-840.08 153.5,-831.28"/>
<polygon fill="black" stroke="black" points="157,-831.24 153.5,-821.24 150,-831.24 157,-831.24"/>
</g>
<!-- english_sentiment&#45;&gt;extract_entities -->
<g id="edge2" class="edge">
<title>english_sentiment&#45;&gt;extract_entities</title>
<path fill="none" stroke="black" d="M511,-390.91C515.3,-385.45 519.1,-379.38 521.5,-373 533.68,-340.54 538.51,-325.21 521.5,-295 514.37,-282.34 503.53,-271.95 491.51,-263.52"/>
<polygon fill="black" stroke="black" points="493.32,-260.53 483.03,-258 489.5,-266.39 493.32,-260.53"/>
</g>
<!-- extract_entities&#45;&gt;router_text_analysis_flow_line_18_seq -->
<g id="edge3" class="edge">
<title>extract_entities&#45;&gt;router_text_analysis_flow_line_18_seq</title>
<path fill="none" stroke="black" d="M418.5,-204.88C418.5,-196.77 418.5,-187.52 418.5,-178.35"/>
<polygon fill="black" stroke="black" points="422,-178.1 418.5,-168.1 415,-178.1 422,-178.1"/>
</g>
<!-- spanish_sentiment&#45;&gt;extract_entities -->
<g id="edge10" class="edge">
<title>spanish_sentiment&#45;&gt;extract_entities</title>
<path fill="none" stroke="black" d="M418.5,-307.38C418.5,-295.45 418.5,-281.06 418.5,-268.09"/>
<polygon fill="black" stroke="black" points="422,-268.07 418.5,-258.07 415,-268.07 422,-268.07"/>
</g>
<!-- tokenize&#45;&gt;router_text_analysis_flow_line_9_if -->
<g id="edge12" class="edge">
<title>tokenize&#45;&gt;router_text_analysis_flow_line_9_if</title>
<path fill="none" stroke="black" d="M153.5,-767.82C153.5,-759.92 153.5,-750.83 153.5,-741.53"/>
<polygon fill="black" stroke="black" points="157,-741.38 153.5,-731.38 150,-741.38 157,-741.38"/>
</g>
</g>
</svg>
