<?xml version="1.0" encoding="UTF-8" standalone="no"?>
<!DOCTYPE svg PUBLIC "-//W3C//DTD SVG 1.1//EN"
 "http://www.w3.org/Graphics/SVG/1.1/DTD/svg11.dtd">
<!-- Generated by graphviz version 2.43.0 (0)
 -->
<!-- Title: flow Pages: 1 -->
<svg width="327pt" height="721pt"
 viewBox="0.00 0.00 327.00 721.00" xmlns="http://www.w3.org/2000/svg" xmlns:xlink="http://www.w3.org/1999/xlink">
<g id="graph0" class="graph" transform="scale(1 1) rotate(0) translate(4 717)">
<title>flow</title>
<polygon fill="white" stroke="transparent" points="-4,4 -4,-717 323,-717 323,4 -4,4"/>
<!-- start_typeddict_pipeline -->
<g id="node1" class="node">
<title>start_typeddict_pipeline</title>
<path fill="lightgreen" stroke="black" d="M253,-713C253,-713 48,-713 48,-713 42,-713 36,-707 36,-701 36,-701 36,-672 36,-672 36,-666 42,-660 48,-660 48,-660 253,-660 253,-660 259,-660 265,-666 265,-672 265,-672 265,-701 265,-701 265,-707 259,-713 253,-713"/>
<polygon fill="white" stroke="transparent" points="50.5,-673.5 50.5,-698.5 251.5,-698.5 251.5,-673.5 50.5,-673.5"/>
<polygon fill="none" stroke="black" points="50.5,-673.5 50.5,-698.5 251.5,-698.5 251.5,-673.5 50.5,-673.5"/>
<text text-anchor="start" x="57.5" y="-684.5" font-family="Courier,monospace" font-style="italic" font-size="10.00">p = start_typeddict_pipeline(p)</text>
</g>
<!-- parser -->
<g id="node5" class="node">
<title>parser</title>
<path fill="lightblue" stroke="black" d="M199,-623C199,-623 102,-623 102,-623 96,-623 90,-617 90,-611 90,-611 90,-582 90,-582 90,-576 96,-570 102,-570 102,-570 199,-570 199,-570 205,-570 211,-576 211,-582 211,-582 211,-611 211,-611 211,-617 205,-623 199,-623"/>
<polygon fill="white" stroke="transparent" points="104.5,-583.5 104.5,-608.5 197.5,-608.5 197.5,-583.5 104.5,-583.5"/>
<polygon fill="none" stroke="black" points="104.5,-583.5 104.5,-608.5 197.5,-608.5 197.5,-583.5 104.5,-583.5"/>
<text text-anchor="start" x="111.5" y="-594.5" font-family="Courier,monospace" font-style="italic" font-size="10.00">p = parser(p)</text>
</g>
<!-- start_typeddict_pipeline&#45;&gt;parser -->
<g id="edge6" class="edge">
<title>start_typeddict_pipeline&#45;&gt;parser</title>
<path fill="none" stroke="black" d="M150.5,-659.57C150.5,-651.34 150.5,-642.08 150.5,-633.28"/>
<polygon fill="black" stroke="black" points="154,-633.24 150.5,-623.24 147,-633.24 154,-633.24"/>
</g>
<!-- router_typeddict_pipeline_line_73_if -->
<g id="node2" class="node">
<title>router_typeddict_pipeline_line_73_if</title>
<path fill="wheat" stroke="black" d="M289,-443C289,-443 12,-443 12,-443 6,-443 0,-437 0,-431 0,-431 0,-344 0,-344 0,-338 6,-332 12,-332 12,-332 289,-332 289,-332 295,-332 301,-338 301,-344 301,-344 301,-431 301,-431 301,-437 295,-443 289,-443"/>
<polygon fill="white" stroke="transparent" points="14.5,-403.5 14.5,-428.5 287.5,-428.5 287.5,-403.5 14.5,-403.5"/>
<polygon fill="none" stroke="black" points="14.5,-403.5 14.5,-428.5 287.5,-428.5 287.5,-403.5 14.5,-403.5"/>
<text text-anchor="start" x="21.5" y="-414.5" font-family="Courier,monospace" font-style="italic" font-size="10.00">p = router_typeddict_pipeline_line_73_if(p)</text>
<polygon fill="lightyellow" stroke="transparent" points="14.5,-378.5 14.5,-403.5 287.5,-403.5 287.5,-378.5 14.5,-378.5"/>
<polygon fill="none" stroke="black" points="14.5,-378.5 14.5,-403.5 287.5,-403.5 287.5,-378.5 14.5,-378.5"/>
<text text-anchor="start" x="69" y="-389.5" font-family="Courier,monospace" font-weight="bold" font-size="10.00">if</text>
<text text-anchor="start" x="82" y="-389.5" font-family="Courier,monospace" font-size="10.00"> not p.get(&#39;valid&#39;, True)</text>
<polygon fill="none" stroke="black" points="14.5,-345.5 14.5,-378.5 287.5,-378.5 287.5,-345.5 14.5,-345.5"/>
<polygon fill="#698b69" stroke="transparent" points="21.5,-352.5 21.5,-371.5 148.5,-371.5 148.5,-352.5 21.5,-352.5"/>
<text text-anchor="start" x="72.5" y="-360.5" font-family="Courier,monospace" font-weight="bold" font-size="10.00" fill="white">TRUE</text>
<polygon fill="#8b3a3a" stroke="transparent" points="148.5,-352.5 148.5,-371.5 280.5,-371.5 280.5,-352.5 148.5,-352.5"/>
<text text-anchor="start" x="199" y="-360.5" font-family="Courier,monospace" font-weight="bold" font-size="10.00" fill="white">FALSE</text>
</g>
<!-- error_handler -->
<g id="node4" class="node">
<title>error_handler</title>
<path fill="lightblue" stroke="black" d="M204,-214C204,-214 65,-214 65,-214 59,-214 53,-208 53,-202 53,-202 53,-173 53,-173 53,-167 59,-161 65,-161 65,-161 204,-161 204,-161 210,-161 216,-167 216,-173 216,-173 216,-202 216,-202 216,-208 210,-214 204,-214"/>
<polygon fill="white" stroke="transparent" points="67.5,-174.5 67.5,-199.5 202.5,-199.5 202.5,-174.5 67.5,-174.5"/>
<polygon fill="none" stroke="black" points="67.5,-174.5 67.5,-199.5 202.5,-199.5 202.5,-174.5 67.5,-174.5"/>
<text text-anchor="start" x="74.5" y="-185.5" font-family="Courier,monospace" font-style="italic" font-size="10.00">p = error_handler(p)</text>
</g>
<!-- router_typeddict_pipeline_line_73_if&#45;&gt;error_handler -->
<g id="edge3" class="edge">
<title>router_typeddict_pipeline_line_73_if&#45;&gt;error_handler</title>
<path fill="none" stroke="#698b69" d="M146.09,-331.87C143.31,-297.47 139.8,-254.05 137.37,-224.06"/>
<polygon fill="#698b69" stroke="#698b69" points="140.86,-223.73 136.56,-214.04 133.88,-224.29 140.86,-223.73"/>
<text text-anchor="middle" x="149" y="-306" font-family="Courier,monospace" font-size="10.00">T</text>
</g>
<!-- transformer -->
<g id="node7" class="node">
<title>transformer</title>
<path fill="lightblue" stroke="black" d="M303,-285C303,-285 176,-285 176,-285 170,-285 164,-279 164,-273 164,-273 164,-244 164,-244 164,-238 170,-232 176,-232 176,-232 303,-232 303,-232 309,-232 315,-238 315,-244 315,-244 315,-273 315,-273 315,-279 309,-285 303,-285"/>
<polygon fill="white" stroke="transparent" points="178.5,-245.5 178.5,-270.5 301.5,-270.5 301.5,-245.5 178.5,-245.5"/>
<polygon fill="none" stroke="black" points="178.5,-245.5 178.5,-270.5 301.5,-270.5 301.5,-245.5 178.5,-245.5"/>
<text text-anchor="start" x="185.5" y="-256.5" font-family="Courier,monospace" font-style="italic" font-size="10.00">p = transformer(p)</text>
</g>
<!-- router_typeddict_pipeline_line_73_if&#45;&gt;transformer -->
<g id="edge4" class="edge">
<title>router_typeddict_pipeline_line_73_if&#45;&gt;transformer</title>
<path fill="none" stroke="#8b3a3a" d="M188.76,-331.9C197.94,-318.81 207.47,-305.2 215.77,-293.37"/>
<polygon fill="#8b3a3a" stroke="#8b3a3a" points="218.69,-295.29 221.56,-285.1 212.96,-291.28 218.69,-295.29"/>
<text text-anchor="middle" x="212" y="-306" font-family="Courier,monospace" font-size="10.00">F</text>
</g>
<!-- end_typeddict_pipeline -->
<g id="node3" class="node">
<title>end_typeddict_pipeline</title>
<path fill="lightgreen" stroke="black" d="M242,-53C242,-53 49,-53 49,-53 43,-53 37,-47 37,-41 37,-41 37,-12 37,-12 37,-6 43,0 49,0 49,0 242,0 242,0 248,0 254,-6 254,-12 254,-12 254,-41 254,-41 254,-47 248,-53 242,-53"/>
<polygon fill="white" stroke="transparent" points="51.5,-13.5 51.5,-38.5 240.5,-38.5 240.5,-13.5 51.5,-13.5"/>
<polygon fill="none" stroke="black" points="51.5,-13.5 51.5,-38.5 240.5,-38.5 240.5,-13.5 51.5,-13.5"/>
<text text-anchor="start" x="58.5" y="-24.5" font-family="Courier,monospace" font-style="italic" font-size="10.00">p = end_typeddict_pipeline(p)</text>
</g>
<!-- error_handler&#45;&gt;end_typeddict_pipeline -->
<g id="edge1" class="edge">
<title>error_handler&#45;&gt;end_typeddict_pipeline</title>
<path fill="none" stroke="black" d="M136.27,-160.95C138.09,-134.61 140.95,-93.29 143,-63.61"/>
<polygon fill="black" stroke="black" points="146.52,-63.46 143.72,-53.25 139.54,-62.98 146.52,-63.46"/>
</g>
<!-- validator -->
<g id="node8" class="node">
<title>validator</title>
<path fill="lightblue" stroke="black" d="M208,-533C208,-533 93,-533 93,-533 87,-533 81,-527 81,-521 81,-521 81,-492 81,-492 81,-486 87,-480 93,-480 93,-480 208,-480 208,-480 214,-480 220,-486 220,-492 220,-492 220,-521 220,-521 220,-527 214,-533 208,-533"/>
<polygon fill="white" stroke="transparent" points="95.5,-493.5 95.5,-518.5 206.5,-518.5 206.5,-493.5 95.5,-493.5"/>
<polygon fill="none" stroke="black" points="95.5,-493.5 95.5,-518.5 206.5,-518.5 206.5,-493.5 95.5,-493.5"/>
<text text-anchor="start" x="102.5" y="-504.5" font-family="Courier,monospace" font-style="italic" font-size="10.00">p = validator(p)</text>
</g>
<!-- parser&#45;&gt;validator -->
<g id="edge2" class="edge">
<title>parser&#45;&gt;validator</title>
<path fill="none" stroke="black" d="M150.5,-569.57C150.5,-561.34 150.5,-552.08 150.5,-543.28"/>
<polygon fill="black" stroke="black" points="154,-543.24 150.5,-533.24 147,-543.24 154,-543.24"/>
</g>
<!-- sink_adapter -->
<g id="node6" class="node">
<title>sink_adapter</title>
<path fill="lightblue" stroke="black" d="M307,-143C307,-143 174,-143 174,-143 168,-143 162,-137 162,-131 162,-131 162,-102 162,-102 162,-96 168,-90 174,-90 174,-90 307,-90 307,-90 313,-90 319,-96 319,-102 319,-102 319,-131 319,-131 319,-137 313,-143 307,-143"/>
<polygon fill="white" stroke="transparent" points="176.5,-103.5 176.5,-128.5 305.5,-128.5 305.5,-103.5 176.5,-103.5"/>
<polygon fill="none" stroke="black" points="176.5,-103.5 176.5,-128.5 305.5,-128.5 305.5,-103.5 176.5,-103.5"/>
<text text-anchor="start" x="183.5" y="-114.5" font-family="Courier,monospace" font-style="italic" font-size="10.00">p = sink_adapter(p)</text>
</g>
<!-- sink_adapter&#45;&gt;end_typeddict_pipeline -->
<g id="edge5" class="edge">
<title>sink_adapter&#45;&gt;end_typeddict_pipeline</title>
<path fill="none" stroke="black" d="M212.77,-89.81C202.72,-80.5 191.23,-69.86 180.63,-60.04"/>
<polygon fill="black" stroke="black" points="182.82,-57.3 173.1,-53.07 178.06,-62.43 182.82,-57.3"/>
</g>
<!-- transformer&#45;&gt;sink_adapter -->
<g id="edge7" class="edge">
<title>transformer&#45;&gt;sink_adapter</title>
<path fill="none" stroke="black" d="M239.68,-231.82C239.84,-209.72 240.07,-177.6 240.25,-153.03"/>
<polygon fill="black" stroke="black" points="243.75,-153.04 240.32,-143.02 236.75,-152.99 243.75,-153.04"/>
</g>
<!-- validator&#45;&gt;router_typeddict_pipeline_line_73_if -->
<g id="edge8" class="edge">
<title>validator&#45;&gt;router_typeddict_pipeline_line_73_if</title>
<path fill="none" stroke="black" d="M150.5,-479.82C150.5,-471.92 150.5,-462.83 150.5,-453.53"/>
<polygon fill="black" stroke="black" points="154,-453.38 150.5,-443.38 147,-453.38 154,-453.38"/>
</g>
</g>
</svg>
