<?xml version="1.0" encoding="UTF-8" standalone="no"?>
<!DOCTYPE svg PUBLIC "-//W3C//DTD SVG 1.1//EN"
 "http://www.w3.org/Graphics/SVG/1.1/DTD/svg11.dtd">
<!-- Generated by graphviz version 2.43.0 (0)
 -->
<!-- Title: flow Pages: 1 -->
<svg width="719pt" height="1275pt"
 viewBox="0.00 0.00 719.00 1275.00" xmlns="http://www.w3.org/2000/svg" xmlns:xlink="http://www.w3.org/1999/xlink">
<g id="graph0" class="graph" transform="scale(1 1) rotate(0) translate(4 1271)">
<title>flow</title>
<polygon fill="white" stroke="transparent" points="-4,4 -4,-1271 715,-1271 715,4 -4,4"/>
<!-- start_loop_flow -->
<g id="node1" class="node">
<title>start_loop_flow</title>
<path fill="lightgreen" stroke="black" d="M505,-1267C505,-1267 354,-1267 354,-1267 348,-1267 342,-1261 342,-1255 342,-1255 342,-1226 342,-1226 342,-1220 348,-1214 354,-1214 354,-1214 505,-1214 505,-1214 511,-1214 517,-1220 517,-1226 517,-1226 517,-1255 517,-1255 517,-1261 511,-1267 505,-1267"/>
<polygon fill="white" stroke="transparent" points="356.5,-1227.5 356.5,-1252.5 503.5,-1252.5 503.5,-1227.5 356.5,-1227.5"/>
<polygon fill="none" stroke="black" points="356.5,-1227.5 356.5,-1252.5 503.5,-1252.5 503.5,-1227.5 356.5,-1227.5"/>
<text text-anchor="start" x="363.5" y="-1238.5" font-family="Courier,monospace" font-style="italic" font-size="10.00">p = start_loop_flow(p)</text>
</g>
<!-- initialize -->
<g id="node12" class="node">
<title>initialize</title>
<path fill="lightblue" stroke="black" d="M490,-1177C490,-1177 369,-1177 369,-1177 363,-1177 357,-1171 357,-1165 357,-1165 357,-1136 357,-1136 357,-1130 363,-1124 369,-1124 369,-1124 490,-1124 490,-1124 496,-1124 502,-1130 502,-1136 502,-1136 502,-1165 502,-1165 502,-1171 496,-1177 490,-1177"/>
<polygon fill="white" stroke="transparent" points="371.5,-1137.5 371.5,-1162.5 488.5,-1162.5 488.5,-1137.5 371.5,-1137.5"/>
<polygon fill="none" stroke="black" points="371.5,-1137.5 371.5,-1162.5 488.5,-1162.5 488.5,-1137.5 371.5,-1137.5"/>
<text text-anchor="start" x="378.5" y="-1148.5" font-family="Courier,monospace" font-style="italic" font-size="10.00">p = initialize(p)</text>
</g>
<!-- start_loop_flow&#45;&gt;initialize -->
<g id="edge16" class="edge">
<title>start_loop_flow&#45;&gt;initialize</title>
<path fill="none" stroke="black" d="M429.5,-1213.57C429.5,-1205.34 429.5,-1196.08 429.5,-1187.28"/>
<polygon fill="black" stroke="black" points="433,-1187.24 429.5,-1177.24 426,-1187.24 433,-1187.24"/>
</g>
<!-- router_loop_flow_line_19_seq -->
<g id="node2" class="node">
<title>router_loop_flow_line_19_seq</title>
<path fill="wheat" stroke="black" d="M699,-168C699,-168 470,-168 470,-168 464,-168 458,-162 458,-156 458,-156 458,-102 458,-102 458,-96 464,-90 470,-90 470,-90 699,-90 699,-90 705,-90 711,-96 711,-102 711,-102 711,-156 711,-156 711,-162 705,-168 699,-168"/>
<polygon fill="white" stroke="transparent" points="472.5,-129 472.5,-154 697.5,-154 697.5,-129 472.5,-129"/>
<polygon fill="none" stroke="black" points="472.5,-129 472.5,-154 697.5,-154 697.5,-129 472.5,-129"/>
<text text-anchor="start" x="479.5" y="-140" font-family="Courier,monospace" font-style="italic" font-size="10.00">p = router_loop_flow_line_19_seq(p)</text>
<polygon fill="white" stroke="transparent" points="472.5,-104 472.5,-129 697.5,-129 697.5,-104 472.5,-104"/>
<polygon fill="none" stroke="black" points="472.5,-104 472.5,-129 697.5,-129 697.5,-104 472.5,-104"/>
<text text-anchor="start" x="479.5" y="-114" font-family="Courier,monospace" font-size="10.00">p[&#39;abort&#39;] = 2</text>
</g>
<!-- router_loop_flow_line_12_while_0 -->
<g id="node7" class="node">
<title>router_loop_flow_line_12_while_0</title>
<path fill="wheat" stroke="black" d="M556.5,-972C556.5,-972 302.5,-972 302.5,-972 296.5,-972 290.5,-966 290.5,-960 290.5,-960 290.5,-873 290.5,-873 290.5,-867 296.5,-861 302.5,-861 302.5,-861 556.5,-861 556.5,-861 562.5,-861 568.5,-867 568.5,-873 568.5,-873 568.5,-960 568.5,-960 568.5,-966 562.5,-972 556.5,-972"/>
<polygon fill="white" stroke="transparent" points="304.5,-932.5 304.5,-957.5 554.5,-957.5 554.5,-932.5 304.5,-932.5"/>
<polygon fill="none" stroke="black" points="304.5,-932.5 304.5,-957.5 554.5,-957.5 554.5,-932.5 304.5,-932.5"/>
<text text-anchor="start" x="312" y="-943.5" font-family="Courier,monospace" font-style="italic" font-size="10.00">p = router_loop_flow_line_12_while_0(p)</text>
<polygon fill="lightyellow" stroke="transparent" points="304.5,-907.5 304.5,-932.5 554.5,-932.5 554.5,-907.5 304.5,-907.5"/>
<polygon fill="none" stroke="black" points="304.5,-907.5 304.5,-932.5 554.5,-932.5 554.5,-907.5 304.5,-907.5"/>
<text text-anchor="start" x="311.5" y="-918.5" font-family="Courier,monospace" font-weight="bold" font-size="10.00">if</text>
<text text-anchor="start" x="324.5" y="-918.5" font-family="Courier,monospace" font-size="10.00"> p[&#39;iteration&#39;] &lt; p[&#39;max_iterations&#39;]</text>
<polygon fill="none" stroke="black" points="304.5,-874.5 304.5,-907.5 554.5,-907.5 554.5,-874.5 304.5,-874.5"/>
<polygon fill="#698b69" stroke="transparent" points="311.5,-881.5 311.5,-900.5 426.5,-900.5 426.5,-881.5 311.5,-881.5"/>
<text text-anchor="start" x="356.5" y="-889.5" font-family="Courier,monospace" font-weight="bold" font-size="10.00" fill="white">TRUE</text>
<polygon fill="#8b3a3a" stroke="transparent" points="426.5,-881.5 426.5,-900.5 547.5,-900.5 547.5,-881.5 426.5,-881.5"/>
<text text-anchor="start" x="471.5" y="-889.5" font-family="Courier,monospace" font-weight="bold" font-size="10.00" fill="white">FALSE</text>
</g>
<!-- router_loop_flow_line_19_seq&#45;&gt;router_loop_flow_line_12_while_0 -->
<g id="edge13" class="edge">
<title>router_loop_flow_line_19_seq&#45;&gt;router_loop_flow_line_12_while_0</title>
<path fill="none" stroke="black" d="M584.5,-168.19C584.5,-196.23 584.5,-235.23 584.5,-269.5 584.5,-776 584.5,-776 584.5,-776 584.5,-807.36 566.75,-833.47 543.27,-854.29"/>
<polygon fill="black" stroke="black" points="540.85,-851.75 535.46,-860.87 545.36,-857.11 540.85,-851.75"/>
</g>
<!-- router_loop_flow_line_17_seq -->
<g id="node3" class="node">
<title>router_loop_flow_line_17_seq</title>
<path fill="wheat" stroke="black" d="M544,-441C544,-441 315,-441 315,-441 309,-441 303,-435 303,-429 303,-429 303,-375 303,-375 303,-369 309,-363 315,-363 315,-363 544,-363 544,-363 550,-363 556,-369 556,-375 556,-375 556,-429 556,-429 556,-435 550,-441 544,-441"/>
<polygon fill="white" stroke="transparent" points="317.5,-402 317.5,-427 542.5,-427 542.5,-402 317.5,-402"/>
<polygon fill="none" stroke="black" points="317.5,-402 317.5,-427 542.5,-427 542.5,-402 317.5,-402"/>
<text text-anchor="start" x="324.5" y="-413" font-family="Courier,monospace" font-style="italic" font-size="10.00">p = router_loop_flow_line_17_seq(p)</text>
<polygon fill="white" stroke="transparent" points="317.5,-377 317.5,-402 542.5,-402 542.5,-377 317.5,-377"/>
<polygon fill="none" stroke="black" points="317.5,-377 317.5,-402 542.5,-402 542.5,-377 317.5,-377"/>
<text text-anchor="start" x="324.5" y="-387" font-family="Courier,monospace" font-size="10.00">p[&#39;abort&#39;] = 1</text>
</g>
<!-- process_abort -->
<g id="node13" class="node">
<title>process_abort</title>
<path fill="lightblue" stroke="black" d="M522,-297C522,-297 383,-297 383,-297 377,-297 371,-291 371,-285 371,-285 371,-256 371,-256 371,-250 377,-244 383,-244 383,-244 522,-244 522,-244 528,-244 534,-250 534,-256 534,-256 534,-285 534,-285 534,-291 528,-297 522,-297"/>
<polygon fill="white" stroke="transparent" points="385.5,-257.5 385.5,-282.5 520.5,-282.5 520.5,-257.5 385.5,-257.5"/>
<polygon fill="none" stroke="black" points="385.5,-257.5 385.5,-282.5 520.5,-282.5 520.5,-257.5 385.5,-257.5"/>
<text text-anchor="start" x="392.5" y="-268.5" font-family="Courier,monospace" font-style="italic" font-size="10.00">p = process_abort(p)</text>
</g>
<!-- router_loop_flow_line_17_seq&#45;&gt;process_abort -->
<g id="edge12" class="edge">
<title>router_loop_flow_line_17_seq&#45;&gt;process_abort</title>
<path fill="none" stroke="black" d="M436.28,-362.85C439.39,-345.3 443.07,-324.6 446.13,-307.34"/>
<polygon fill="black" stroke="black" points="449.65,-307.56 447.95,-297.1 442.76,-306.34 449.65,-307.56"/>
</g>
<!-- router_loop_flow_line_23_if -->
<g id="node4" class="node">
<title>router_loop_flow_line_23_if</title>
<path fill="wheat" stroke="black" d="M308,-326C308,-326 85,-326 85,-326 79,-326 73,-320 73,-314 73,-314 73,-227 73,-227 73,-221 79,-215 85,-215 85,-215 308,-215 308,-215 314,-215 320,-221 320,-227 320,-227 320,-314 320,-314 320,-320 314,-326 308,-326"/>
<polygon fill="white" stroke="transparent" points="87.5,-286.5 87.5,-311.5 306.5,-311.5 306.5,-286.5 87.5,-286.5"/>
<polygon fill="none" stroke="black" points="87.5,-286.5 87.5,-311.5 306.5,-311.5 306.5,-286.5 87.5,-286.5"/>
<text text-anchor="start" x="94.5" y="-297.5" font-family="Courier,monospace" font-style="italic" font-size="10.00">p = router_loop_flow_line_23_if(p)</text>
<polygon fill="lightyellow" stroke="transparent" points="87.5,-261.5 87.5,-286.5 306.5,-286.5 306.5,-261.5 87.5,-261.5"/>
<polygon fill="none" stroke="black" points="87.5,-261.5 87.5,-286.5 306.5,-286.5 306.5,-261.5 87.5,-261.5"/>
<text text-anchor="start" x="133" y="-272.5" font-family="Courier,monospace" font-weight="bold" font-size="10.00">if</text>
<text text-anchor="start" x="146" y="-272.5" font-family="Courier,monospace" font-size="10.00"> p[&#39;threshold_met&#39;]</text>
<polygon fill="none" stroke="black" points="87.5,-228.5 87.5,-261.5 306.5,-261.5 306.5,-228.5 87.5,-228.5"/>
<polygon fill="#698b69" stroke="transparent" points="94.5,-235.5 94.5,-254.5 197.5,-254.5 197.5,-235.5 94.5,-235.5"/>
<text text-anchor="start" x="133.5" y="-243.5" font-family="Courier,monospace" font-weight="bold" font-size="10.00" fill="white">TRUE</text>
<polygon fill="#8b3a3a" stroke="transparent" points="197.5,-235.5 197.5,-254.5 299.5,-254.5 299.5,-235.5 197.5,-235.5"/>
<text text-anchor="start" x="236" y="-243.5" font-family="Courier,monospace" font-weight="bold" font-size="10.00" fill="white">pass</text>
</g>
<!-- router_loop_flow_line_23_if&#45;&gt;router_loop_flow_line_12_while_0 -->
<g id="edge15" class="edge">
<title>router_loop_flow_line_23_if&#45;&gt;router_loop_flow_line_12_while_0</title>
<path fill="none" stroke="#8b3a3a" d="M125.05,-326.11C115.06,-337.16 106.26,-349.56 100.5,-363 86.85,-394.87 92.3,-407.32 100.5,-441 144.64,-622.36 172.74,-671.67 293.5,-814 305.84,-828.54 320.63,-842.21 335.84,-854.53"/>
<polygon fill="#8b3a3a" stroke="#8b3a3a" points="333.81,-857.39 343.83,-860.85 338.15,-851.9 333.81,-857.39"/>
<text text-anchor="middle" x="165" y="-620" font-family="Courier,monospace" font-size="10.00">F</text>
</g>
<!-- finalize_loop -->
<g id="node11" class="node">
<title>finalize_loop</title>
<path fill="lightblue" stroke="black" d="M151,-155.5C151,-155.5 12,-155.5 12,-155.5 6,-155.5 0,-149.5 0,-143.5 0,-143.5 0,-114.5 0,-114.5 0,-108.5 6,-102.5 12,-102.5 12,-102.5 151,-102.5 151,-102.5 157,-102.5 163,-108.5 163,-114.5 163,-114.5 163,-143.5 163,-143.5 163,-149.5 157,-155.5 151,-155.5"/>
<polygon fill="white" stroke="transparent" points="14.5,-116 14.5,-141 149.5,-141 149.5,-116 14.5,-116"/>
<polygon fill="none" stroke="black" points="14.5,-116 14.5,-141 149.5,-141 149.5,-116 14.5,-116"/>
<text text-anchor="start" x="21.5" y="-127" font-family="Courier,monospace" font-style="italic" font-size="10.00">p = finalize_loop(p)</text>
</g>
<!-- router_loop_flow_line_23_if&#45;&gt;finalize_loop -->
<g id="edge14" class="edge">
<title>router_loop_flow_line_23_if&#45;&gt;finalize_loop</title>
<path fill="none" stroke="#698b69" d="M151.38,-214.77C137.26,-197.63 122.09,-179.23 109.5,-163.97"/>
<polygon fill="#698b69" stroke="#698b69" points="111.86,-161.33 102.8,-155.84 106.46,-165.78 111.86,-161.33"/>
<text text-anchor="middle" x="140" y="-189" font-family="Courier,monospace" font-size="10.00">T</text>
</g>
<!-- router_loop_flow_line_16_if -->
<g id="node5" class="node">
<title>router_loop_flow_line_16_if</title>
<path fill="wheat" stroke="black" d="M541,-599C541,-599 318,-599 318,-599 312,-599 306,-593 306,-587 306,-587 306,-500 306,-500 306,-494 312,-488 318,-488 318,-488 541,-488 541,-488 547,-488 553,-494 553,-500 553,-500 553,-587 553,-587 553,-593 547,-599 541,-599"/>
<polygon fill="white" stroke="transparent" points="320.5,-559.5 320.5,-584.5 539.5,-584.5 539.5,-559.5 320.5,-559.5"/>
<polygon fill="none" stroke="black" points="320.5,-559.5 320.5,-584.5 539.5,-584.5 539.5,-559.5 320.5,-559.5"/>
<text text-anchor="start" x="327.5" y="-570.5" font-family="Courier,monospace" font-style="italic" font-size="10.00">p = router_loop_flow_line_16_if(p)</text>
<polygon fill="lightyellow" stroke="transparent" points="320.5,-534.5 320.5,-559.5 539.5,-559.5 539.5,-534.5 320.5,-534.5"/>
<polygon fill="none" stroke="black" points="320.5,-534.5 320.5,-559.5 539.5,-559.5 539.5,-534.5 320.5,-534.5"/>
<text text-anchor="start" x="333" y="-545.5" font-family="Courier,monospace" font-weight="bold" font-size="10.00">if</text>
<text text-anchor="start" x="346" y="-545.5" font-family="Courier,monospace" font-size="10.00"> p.get(&#39;skip_threshold_check&#39;)</text>
<polygon fill="none" stroke="black" points="320.5,-501.5 320.5,-534.5 539.5,-534.5 539.5,-501.5 320.5,-501.5"/>
<polygon fill="#698b69" stroke="transparent" points="327.5,-508.5 327.5,-527.5 427.5,-527.5 427.5,-508.5 327.5,-508.5"/>
<text text-anchor="start" x="365" y="-516.5" font-family="Courier,monospace" font-weight="bold" font-size="10.00" fill="white">TRUE</text>
<polygon fill="#8b3a3a" stroke="transparent" points="427.5,-508.5 427.5,-527.5 532.5,-527.5 532.5,-508.5 427.5,-508.5"/>
<text text-anchor="start" x="464.5" y="-516.5" font-family="Courier,monospace" font-weight="bold" font-size="10.00" fill="white">FALSE</text>
</g>
<!-- router_loop_flow_line_16_if&#45;&gt;router_loop_flow_line_17_seq -->
<g id="edge11" class="edge">
<title>router_loop_flow_line_16_if&#45;&gt;router_loop_flow_line_17_seq</title>
<path fill="none" stroke="#698b69" d="M429.5,-487.77C429.5,-475.72 429.5,-463.05 429.5,-451.28"/>
<polygon fill="#698b69" stroke="#698b69" points="433,-451.21 429.5,-441.21 426,-451.21 433,-451.21"/>
<text text-anchor="middle" x="433" y="-462" font-family="Courier,monospace" font-size="10.00">T</text>
</g>
<!-- check_threshold -->
<g id="node10" class="node">
<title>check_threshold</title>
<path fill="lightblue" stroke="black" d="M273,-428.5C273,-428.5 122,-428.5 122,-428.5 116,-428.5 110,-422.5 110,-416.5 110,-416.5 110,-387.5 110,-387.5 110,-381.5 116,-375.5 122,-375.5 122,-375.5 273,-375.5 273,-375.5 279,-375.5 285,-381.5 285,-387.5 285,-387.5 285,-416.5 285,-416.5 285,-422.5 279,-428.5 273,-428.5"/>
<polygon fill="white" stroke="transparent" points="124.5,-389 124.5,-414 271.5,-414 271.5,-389 124.5,-389"/>
<polygon fill="none" stroke="black" points="124.5,-389 124.5,-414 271.5,-414 271.5,-389 124.5,-389"/>
<text text-anchor="start" x="131.5" y="-400" font-family="Courier,monospace" font-style="italic" font-size="10.00">p = check_threshold(p)</text>
</g>
<!-- router_loop_flow_line_16_if&#45;&gt;check_threshold -->
<g id="edge10" class="edge">
<title>router_loop_flow_line_16_if&#45;&gt;check_threshold</title>
<path fill="none" stroke="#8b3a3a" d="M338.81,-487.97C308.21,-469.57 275.14,-449.68 248.69,-433.78"/>
<polygon fill="#8b3a3a" stroke="#8b3a3a" points="250.36,-430.7 239.98,-428.54 246.75,-436.7 250.36,-430.7"/>
<text text-anchor="middle" x="311" y="-462" font-family="Courier,monospace" font-size="10.00">F</text>
</g>
<!-- router_loop_flow_line_13_seq -->
<g id="node6" class="node">
<title>router_loop_flow_line_13_seq</title>
<path fill="wheat" stroke="black" d="M544,-814C544,-814 315,-814 315,-814 309,-814 303,-808 303,-802 303,-802 303,-748 303,-748 303,-742 309,-736 315,-736 315,-736 544,-736 544,-736 550,-736 556,-742 556,-748 556,-748 556,-802 556,-802 556,-808 550,-814 544,-814"/>
<polygon fill="white" stroke="transparent" points="317.5,-775 317.5,-800 542.5,-800 542.5,-775 317.5,-775"/>
<polygon fill="none" stroke="black" points="317.5,-775 317.5,-800 542.5,-800 542.5,-775 317.5,-775"/>
<text text-anchor="start" x="324.5" y="-786" font-family="Courier,monospace" font-style="italic" font-size="10.00">p = router_loop_flow_line_13_seq(p)</text>
<polygon fill="white" stroke="transparent" points="317.5,-750 317.5,-775 542.5,-775 542.5,-750 317.5,-750"/>
<polygon fill="none" stroke="black" points="317.5,-750 317.5,-775 542.5,-775 542.5,-750 317.5,-750"/>
<text text-anchor="start" x="324.5" y="-760" font-family="Courier,monospace" font-size="10.00">p[&#39;iteration&#39;] += 1</text>
</g>
<!-- process_item -->
<g id="node14" class="node">
<title>process_item</title>
<path fill="lightblue" stroke="black" d="M496,-699C496,-699 363,-699 363,-699 357,-699 351,-693 351,-687 351,-687 351,-658 351,-658 351,-652 357,-646 363,-646 363,-646 496,-646 496,-646 502,-646 508,-652 508,-658 508,-658 508,-687 508,-687 508,-693 502,-699 496,-699"/>
<polygon fill="white" stroke="transparent" points="365.5,-659.5 365.5,-684.5 494.5,-684.5 494.5,-659.5 365.5,-659.5"/>
<polygon fill="none" stroke="black" points="365.5,-659.5 365.5,-684.5 494.5,-684.5 494.5,-659.5 365.5,-659.5"/>
<text text-anchor="start" x="372.5" y="-670.5" font-family="Courier,monospace" font-style="italic" font-size="10.00">p = process_item(p)</text>
</g>
<!-- router_loop_flow_line_13_seq&#45;&gt;process_item -->
<g id="edge9" class="edge">
<title>router_loop_flow_line_13_seq&#45;&gt;process_item</title>
<path fill="none" stroke="black" d="M429.5,-735.72C429.5,-727.04 429.5,-717.86 429.5,-709.29"/>
<polygon fill="black" stroke="black" points="433,-709.22 429.5,-699.22 426,-709.22 433,-709.22"/>
</g>
<!-- router_loop_flow_line_12_while_0&#45;&gt;router_loop_flow_line_13_seq -->
<g id="edge8" class="edge">
<title>router_loop_flow_line_12_while_0&#45;&gt;router_loop_flow_line_13_seq</title>
<path fill="none" stroke="#698b69" d="M429.5,-860.77C429.5,-848.72 429.5,-836.05 429.5,-824.28"/>
<polygon fill="#698b69" stroke="#698b69" points="433,-824.21 429.5,-814.21 426,-824.21 433,-824.21"/>
<text text-anchor="middle" x="433" y="-835" font-family="Courier,monospace" font-size="10.00">T</text>
</g>
<!-- router_loop_flow_line_12_while_0&#45;&gt;finalize_loop -->
<g id="edge7" class="edge">
<title>router_loop_flow_line_12_while_0&#45;&gt;finalize_loop</title>
<path fill="none" stroke="#8b3a3a" d="M290.42,-892.01C179.8,-869.24 43.5,-830.2 43.5,-776 43.5,-776 43.5,-776 43.5,-269.5 43.5,-233.06 55.72,-193.09 66.3,-165.31"/>
<polygon fill="#8b3a3a" stroke="#8b3a3a" points="69.69,-166.24 70.1,-155.66 63.18,-163.68 69.69,-166.24"/>
<text text-anchor="middle" x="47" y="-541" font-family="Courier,monospace" font-size="10.00">F</text>
</g>
<!-- router_loop_flow_line_11_seq -->
<g id="node8" class="node">
<title>router_loop_flow_line_11_seq</title>
<path fill="wheat" stroke="black" d="M544,-1087C544,-1087 315,-1087 315,-1087 309,-1087 303,-1081 303,-1075 303,-1075 303,-1021 303,-1021 303,-1015 309,-1009 315,-1009 315,-1009 544,-1009 544,-1009 550,-1009 556,-1015 556,-1021 556,-1021 556,-1075 556,-1075 556,-1081 550,-1087 544,-1087"/>
<polygon fill="white" stroke="transparent" points="317.5,-1048 317.5,-1073 542.5,-1073 542.5,-1048 317.5,-1048"/>
<polygon fill="none" stroke="black" points="317.5,-1048 317.5,-1073 542.5,-1073 542.5,-1048 317.5,-1048"/>
<text text-anchor="start" x="324.5" y="-1059" font-family="Courier,monospace" font-style="italic" font-size="10.00">p = router_loop_flow_line_11_seq(p)</text>
<polygon fill="white" stroke="transparent" points="317.5,-1023 317.5,-1048 542.5,-1048 542.5,-1023 317.5,-1023"/>
<polygon fill="none" stroke="black" points="317.5,-1023 317.5,-1048 542.5,-1048 542.5,-1023 317.5,-1023"/>
<text text-anchor="start" x="324.5" y="-1033" font-family="Courier,monospace" font-size="10.00">p[&#39;iteration&#39;] = 0</text>
</g>
<!-- router_loop_flow_line_11_seq&#45;&gt;router_loop_flow_line_12_while_0 -->
<g id="edge6" class="edge">
<title>router_loop_flow_line_11_seq&#45;&gt;router_loop_flow_line_12_while_0</title>
<path fill="none" stroke="black" d="M429.5,-1008.85C429.5,-1000.5 429.5,-991.44 429.5,-982.37"/>
<polygon fill="black" stroke="black" points="433,-982.17 429.5,-972.17 426,-982.17 433,-982.17"/>
</g>
<!-- end_loop_flow -->
<g id="node9" class="node">
<title>end_loop_flow</title>
<path fill="lightgreen" stroke="black" d="M151,-53C151,-53 12,-53 12,-53 6,-53 0,-47 0,-41 0,-41 0,-12 0,-12 0,-6 6,0 12,0 12,0 151,0 151,0 157,0 163,-6 163,-12 163,-12 163,-41 163,-41 163,-47 157,-53 151,-53"/>
<polygon fill="white" stroke="transparent" points="14.5,-13.5 14.5,-38.5 149.5,-38.5 149.5,-13.5 14.5,-13.5"/>
<polygon fill="none" stroke="black" points="14.5,-13.5 14.5,-38.5 149.5,-38.5 149.5,-13.5 14.5,-13.5"/>
<text text-anchor="start" x="21.5" y="-24.5" font-family="Courier,monospace" font-style="italic" font-size="10.00">p = end_loop_flow(p)</text>
</g>
<!-- check_threshold&#45;&gt;router_loop_flow_line_23_if -->
<g id="edge1" class="edge">
<title>check_threshold&#45;&gt;router_loop_flow_line_23_if</title>
<path fill="none" stroke="black" d="M197.3,-375.41C197.21,-364.09 197.11,-350.19 197,-336.3"/>
<polygon fill="black" stroke="black" points="200.5,-336.19 196.92,-326.22 193.5,-336.25 200.5,-336.19"/>
</g>
<!-- finalize_loop&#45;&gt;end_loop_flow -->
<g id="edge2" class="edge">
<title>finalize_loop&#45;&gt;end_loop_flow</title>
<path fill="none" stroke="black" d="M81.5,-102.38C81.5,-90.45 81.5,-76.06 81.5,-63.09"/>
<polygon fill="black" stroke="black" points="85,-63.07 81.5,-53.07 78,-63.07 85,-63.07"/>
</g>
<!-- initialize&#45;&gt;router_loop_flow_line_11_seq -->
<g id="edge3" class="edge">
<title>initialize&#45;&gt;router_loop_flow_line_11_seq</title>
<path fill="none" stroke="black" d="M429.5,-1123.88C429.5,-1115.77 429.5,-1106.52 429.5,-1097.35"/>
<polygon fill="black" stroke="black" points="433,-1097.1 429.5,-1087.1 426,-1097.1 433,-1097.1"/>
</g>
<!-- process_abort&#45;&gt;router_loop_flow_line_19_seq -->
<g id="edge4" class="edge">
<title>process_abort&#45;&gt;router_loop_flow_line_19_seq</title>
<path fill="none" stroke="black" d="M476.71,-243.91C494.77,-224.83 519.91,-198.26 541.37,-175.58"/>
<polygon fill="black" stroke="black" points="544.16,-177.72 548.49,-168.06 539.07,-172.91 544.16,-177.72"/>
</g>
<!-- process_item&#45;&gt;router_loop_flow_line_16_if -->
<g id="edge5" class="edge">
<title>process_item&#45;&gt;router_loop_flow_line_16_if</title>
<path fill="none" stroke="black" d="M429.5,-645.8C429.5,-635.16 429.5,-622.3 429.5,-609.36"/>
<polygon fill="black" stroke="black" points="433,-609.01 429.5,-599.01 426,-609.01 433,-609.01"/>
</g>
</g>
</svg>
