<?xml version="1.0" encoding="UTF-8" standalone="no"?>
<!DOCTYPE svg PUBLIC "-//W3C//DTD SVG 1.1//EN"
 "http://www.w3.org/Graphics/SVG/1.1/DTD/svg11.dtd">
<!-- Generated by graphviz version 2.43.0 (0)
 -->
<!-- Title: flow Pages: 1 -->
<svg width="351pt" height="581pt"
 viewBox="0.00 0.00 351.00 581.00" xmlns="http://www.w3.org/2000/svg" xmlns:xlink="http://www.w3.org/1999/xlink">
<g id="graph0" class="graph" transform="scale(1 1) rotate(0) translate(4 577)">
<title>flow</title>
<polygon fill="white" stroke="transparent" points="-4,4 -4,-577 347,-577 347,4 -4,4"/>
<!-- start_mutations_before_after_handler_flow -->
<g id="node1" class="node">
<title>start_mutations_before_after_handler_flow</title>
<path fill="lightgreen" stroke="black" d="M325,-573C325,-573 18,-573 18,-573 12,-573 6,-567 6,-561 6,-561 6,-507 6,-507 6,-501 12,-495 18,-495 18,-495 325,-495 325,-495 331,-495 337,-501 337,-507 337,-507 337,-561 337,-561 337,-567 331,-573 325,-573"/>
<polygon fill="white" stroke="transparent" points="20.5,-534 20.5,-559 323.5,-559 323.5,-534 20.5,-534"/>
<polygon fill="none" stroke="black" points="20.5,-534 20.5,-559 323.5,-559 323.5,-534 20.5,-534"/>
<text text-anchor="start" x="27.5" y="-545" font-family="Courier,monospace" font-style="italic" font-size="10.00">p = start_mutations_before_after_handler_flow(p)</text>
<polygon fill="white" stroke="transparent" points="20.5,-509 20.5,-534 323.5,-534 323.5,-509 20.5,-509"/>
<polygon fill="none" stroke="black" points="20.5,-509 20.5,-534 323.5,-534 323.5,-509 20.5,-509"/>
<text text-anchor="start" x="27.5" y="-519" font-family="Courier,monospace" font-size="10.00">p[&#39;step&#39;] = 1</text>
</g>
<!-- handler_a -->
<g id="node5" class="node">
<title>handler_a</title>
<path fill="lightblue" stroke="black" d="M229,-459C229,-459 114,-459 114,-459 108,-459 102,-453 102,-447 102,-447 102,-418 102,-418 102,-412 108,-406 114,-406 114,-406 229,-406 229,-406 235,-406 241,-412 241,-418 241,-418 241,-447 241,-447 241,-453 235,-459 229,-459"/>
<polygon fill="white" stroke="transparent" points="116.5,-419.5 116.5,-444.5 227.5,-444.5 227.5,-419.5 116.5,-419.5"/>
<polygon fill="none" stroke="black" points="116.5,-419.5 116.5,-444.5 227.5,-444.5 227.5,-419.5 116.5,-419.5"/>
<text text-anchor="start" x="123.5" y="-430.5" font-family="Courier,monospace" font-style="italic" font-size="10.00">p = handler_a(p)</text>
</g>
<!-- start_mutations_before_after_handler_flow&#45;&gt;handler_a -->
<g id="edge5" class="edge">
<title>start_mutations_before_after_handler_flow&#45;&gt;handler_a</title>
<path fill="none" stroke="black" d="M171.5,-494.82C171.5,-486.41 171.5,-477.55 171.5,-469.25"/>
<polygon fill="black" stroke="black" points="175,-469.12 171.5,-459.12 168,-469.12 175,-469.12"/>
</g>
<!-- router_mutations_before_after_handler_flow_line_13_seq -->
<g id="node2" class="node">
<title>router_mutations_before_after_handler_flow_line_13_seq</title>
<path fill="wheat" stroke="black" d="M331,-167C331,-167 12,-167 12,-167 6,-167 0,-161 0,-155 0,-155 0,-101 0,-101 0,-95 6,-89 12,-89 12,-89 331,-89 331,-89 337,-89 343,-95 343,-101 343,-101 343,-155 343,-155 343,-161 337,-167 331,-167"/>
<polygon fill="white" stroke="transparent" points="14.5,-128 14.5,-153 329.5,-153 329.5,-128 14.5,-128"/>
<polygon fill="none" stroke="black" points="14.5,-128 14.5,-153 329.5,-153 329.5,-128 14.5,-128"/>
<text text-anchor="start" x="21.5" y="-139" font-family="Courier,monospace" font-style="italic" font-size="10.00">p = router_mutations_before_after_handler_flow…(p)</text>
<polygon fill="white" stroke="transparent" points="14.5,-103 14.5,-128 329.5,-128 329.5,-103 14.5,-103"/>
<polygon fill="none" stroke="black" points="14.5,-103 14.5,-128 329.5,-128 329.5,-103 14.5,-103"/>
<text text-anchor="start" x="21.5" y="-113" font-family="Courier,monospace" font-size="10.00">p[&#39;step&#39;] = 3</text>
</g>
<!-- end_mutations_before_after_handler_flow -->
<g id="node4" class="node">
<title>end_mutations_before_after_handler_flow</title>
<path fill="lightgreen" stroke="black" d="M319,-53C319,-53 24,-53 24,-53 18,-53 12,-47 12,-41 12,-41 12,-12 12,-12 12,-6 18,0 24,0 24,0 319,0 319,0 325,0 331,-6 331,-12 331,-12 331,-41 331,-41 331,-47 325,-53 319,-53"/>
<polygon fill="white" stroke="transparent" points="26.5,-13.5 26.5,-38.5 317.5,-38.5 317.5,-13.5 26.5,-13.5"/>
<polygon fill="none" stroke="black" points="26.5,-13.5 26.5,-38.5 317.5,-38.5 317.5,-13.5 26.5,-13.5"/>
<text text-anchor="start" x="33.5" y="-24.5" font-family="Courier,monospace" font-style="italic" font-size="10.00">p = end_mutations_before_after_handler_flow(p)</text>
</g>
<!-- router_mutations_before_after_handler_flow_line_13_seq&#45;&gt;end_mutations_before_after_handler_flow -->
<g id="edge4" class="edge">
<title>router_mutations_before_after_handler_flow_line_13_seq&#45;&gt;end_mutations_before_after_handler_flow</title>
<path fill="none" stroke="black" d="M171.5,-88.82C171.5,-80.41 171.5,-71.55 171.5,-63.25"/>
<polygon fill="black" stroke="black" points="175,-63.12 171.5,-53.12 168,-63.12 175,-63.12"/>
</g>
<!-- router_mutations_before_after_handler_flow_line_11_seq -->
<g id="node3" class="node">
<title>router_mutations_before_after_handler_flow_line_11_seq</title>
<path fill="wheat" stroke="black" d="M331,-370C331,-370 12,-370 12,-370 6,-370 0,-364 0,-358 0,-358 0,-304 0,-304 0,-298 6,-292 12,-292 12,-292 331,-292 331,-292 337,-292 343,-298 343,-304 343,-304 343,-358 343,-358 343,-364 337,-370 331,-370"/>
<polygon fill="white" stroke="transparent" points="14.5,-331 14.5,-356 329.5,-356 329.5,-331 14.5,-331"/>
<polygon fill="none" stroke="black" points="14.5,-331 14.5,-356 329.5,-356 329.5,-331 14.5,-331"/>
<text text-anchor="start" x="21.5" y="-342" font-family="Courier,monospace" font-style="italic" font-size="10.00">p = router_mutations_before_after_handler_flow…(p)</text>
<polygon fill="white" stroke="transparent" points="14.5,-306 14.5,-331 329.5,-331 329.5,-306 14.5,-306"/>
<polygon fill="none" stroke="black" points="14.5,-306 14.5,-331 329.5,-331 329.5,-306 14.5,-306"/>
<text text-anchor="start" x="21.5" y="-316" font-family="Courier,monospace" font-size="10.00">p[&#39;step&#39;] = 2</text>
</g>
<!-- handler_b -->
<g id="node6" class="node">
<title>handler_b</title>
<path fill="lightblue" stroke="black" d="M229,-256C229,-256 114,-256 114,-256 108,-256 102,-250 102,-244 102,-244 102,-215 102,-215 102,-209 108,-203 114,-203 114,-203 229,-203 229,-203 235,-203 241,-209 241,-215 241,-215 241,-244 241,-244 241,-250 235,-256 229,-256"/>
<polygon fill="white" stroke="transparent" points="116.5,-216.5 116.5,-241.5 227.5,-241.5 227.5,-216.5 116.5,-216.5"/>
<polygon fill="none" stroke="black" points="116.5,-216.5 116.5,-241.5 227.5,-241.5 227.5,-216.5 116.5,-216.5"/>
<text text-anchor="start" x="123.5" y="-227.5" font-family="Courier,monospace" font-style="italic" font-size="10.00">p = handler_b(p)</text>
</g>
<!-- router_mutations_before_after_handler_flow_line_11_seq&#45;&gt;handler_b -->
<g id="edge3" class="edge">
<title>router_mutations_before_after_handler_flow_line_11_seq&#45;&gt;handler_b</title>
<path fill="none" stroke="black" d="M171.5,-291.82C171.5,-283.41 171.5,-274.55 171.5,-266.25"/>
<polygon fill="black" stroke="black" points="175,-266.12 171.5,-256.12 168,-266.12 175,-266.12"/>
</g>
<!-- handler_a&#45;&gt;router_mutations_before_after_handler_flow_line_11_seq -->
<g id="edge1" class="edge">
<title>handler_a&#45;&gt;router_mutations_before_after_handler_flow_line_11_seq</title>
<path fill="none" stroke="black" d="M171.5,-405.88C171.5,-398.1 171.5,-389.28 171.5,-380.51"/>
<polygon fill="black" stroke="black" points="175,-380.3 171.5,-370.3 168,-380.3 175,-380.3"/>
</g>
<!-- handler_b&#45;&gt;router_mutations_before_after_handler_flow_line_13_seq -->
<g id="edge2" class="edge">
<title>handler_b&#45;&gt;router_mutations_before_after_handler_flow_line_13_seq</title>
<path fill="none" stroke="black" d="M171.5,-202.88C171.5,-195.1 171.5,-186.28 171.5,-177.51"/>
<polygon fill="black" stroke="black" points="175,-177.3 171.5,-167.3 168,-177.3 175,-177.3"/>
</g>
</g>
</svg>
