<?xml version="1.0" encoding="UTF-8" standalone="no"?>
<!DOCTYPE svg PUBLIC "-//W3C//DTD SVG 1.1//EN"
 "http://www.w3.org/Graphics/SVG/1.1/DTD/svg11.dtd">
<!-- Generated by graphviz version 2.43.0 (0)
 -->
<!-- Title: flow Pages: 1 -->
<svg width="403pt" height="977pt"
 viewBox="0.00 0.00 403.43 977.00" xmlns="http://www.w3.org/2000/svg" xmlns:xlink="http://www.w3.org/1999/xlink">
<g id="graph0" class="graph" transform="scale(1 1) rotate(0) translate(4 973)">
<title>flow</title>
<polygon fill="white" stroke="transparent" points="-4,4 -4,-973 399.43,-973 399.43,4 -4,4"/>
<!-- start_while_with_break_flow -->
<g id="node1" class="node">
<title>start_while_with_break_flow</title>
<path fill="lightgreen" stroke="black" d="M293.43,-969C293.43,-969 70.43,-969 70.43,-969 64.43,-969 58.43,-963 58.43,-957 58.43,-957 58.43,-928 58.43,-928 58.43,-922 64.43,-916 70.43,-916 70.43,-916 293.43,-916 293.43,-916 299.43,-916 305.43,-922 305.43,-928 305.43,-928 305.43,-957 305.43,-957 305.43,-963 299.43,-969 293.43,-969"/>
<polygon fill="white" stroke="transparent" points="72.93,-929.5 72.93,-954.5 291.93,-954.5 291.93,-929.5 72.93,-929.5"/>
<polygon fill="none" stroke="black" points="72.93,-929.5 72.93,-954.5 291.93,-954.5 291.93,-929.5 72.93,-929.5"/>
<text text-anchor="start" x="79.93" y="-940.5" font-family="Courier,monospace" font-style="italic" font-size="10.00">p = start_while_with_break_flow(p)</text>
</g>
<!-- handler_init -->
<g id="node8" class="node">
<title>handler_init</title>
<path fill="lightblue" stroke="black" d="M248.43,-879C248.43,-879 115.43,-879 115.43,-879 109.43,-879 103.43,-873 103.43,-867 103.43,-867 103.43,-838 103.43,-838 103.43,-832 109.43,-826 115.43,-826 115.43,-826 248.43,-826 248.43,-826 254.43,-826 260.43,-832 260.43,-838 260.43,-838 260.43,-867 260.43,-867 260.43,-873 254.43,-879 248.43,-879"/>
<polygon fill="white" stroke="transparent" points="117.93,-839.5 117.93,-864.5 246.93,-864.5 246.93,-839.5 117.93,-839.5"/>
<polygon fill="none" stroke="black" points="117.93,-839.5 117.93,-864.5 246.93,-864.5 246.93,-839.5 117.93,-839.5"/>
<text text-anchor="start" x="124.93" y="-850.5" font-family="Courier,monospace" font-style="italic" font-size="10.00">p = handler_init(p)</text>
</g>
<!-- start_while_with_break_flow&#45;&gt;handler_init -->
<g id="edge10" class="edge">
<title>start_while_with_break_flow&#45;&gt;handler_init</title>
<path fill="none" stroke="black" d="M181.93,-915.57C181.93,-907.34 181.93,-898.08 181.93,-889.28"/>
<polygon fill="black" stroke="black" points="185.43,-889.24 181.93,-879.24 178.43,-889.24 185.43,-889.24"/>
</g>
<!-- router_while_with_break_flow_line_14_if -->
<g id="node2" class="node">
<title>router_while_with_break_flow_line_14_if</title>
<path fill="wheat" stroke="black" d="M331.43,-301C331.43,-301 36.43,-301 36.43,-301 30.43,-301 24.43,-295 24.43,-289 24.43,-289 24.43,-202 24.43,-202 24.43,-196 30.43,-190 36.43,-190 36.43,-190 331.43,-190 331.43,-190 337.43,-190 343.43,-196 343.43,-202 343.43,-202 343.43,-289 343.43,-289 343.43,-295 337.43,-301 331.43,-301"/>
<polygon fill="white" stroke="transparent" points="38.93,-261.5 38.93,-286.5 329.93,-286.5 329.93,-261.5 38.93,-261.5"/>
<polygon fill="none" stroke="black" points="38.93,-261.5 38.93,-286.5 329.93,-286.5 329.93,-261.5 38.93,-261.5"/>
<text text-anchor="start" x="45.93" y="-272.5" font-family="Courier,monospace" font-style="italic" font-size="10.00">p = router_while_with_break_flow_line_14_if(p)</text>
<polygon fill="lightyellow" stroke="transparent" points="38.93,-236.5 38.93,-261.5 329.93,-261.5 329.93,-236.5 38.93,-236.5"/>
<polygon fill="none" stroke="black" points="38.93,-236.5 38.93,-261.5 329.93,-261.5 329.93,-236.5 38.93,-236.5"/>
<text text-anchor="start" x="117.43" y="-247.5" font-family="Courier,monospace" font-weight="bold" font-size="10.00">if</text>
<text text-anchor="start" x="130.43" y="-247.5" font-family="Courier,monospace" font-size="10.00"> p[&#39;stop_condition&#39;]</text>
<polygon fill="none" stroke="black" points="38.93,-203.5 38.93,-236.5 329.93,-236.5 329.93,-203.5 38.93,-203.5"/>
<polygon fill="#698b69" stroke="transparent" points="45.93,-210.5 45.93,-229.5 184.93,-229.5 184.93,-210.5 45.93,-210.5"/>
<text text-anchor="start" x="102.93" y="-218.5" font-family="Courier,monospace" font-weight="bold" font-size="10.00" fill="white">TRUE</text>
<polygon fill="#8b3a3a" stroke="transparent" points="184.93,-210.5 184.93,-229.5 322.93,-229.5 322.93,-210.5 184.93,-210.5"/>
<text text-anchor="start" x="241.43" y="-218.5" font-family="Courier,monospace" font-weight="bold" font-size="10.00" fill="white">pass</text>
</g>
<!-- router_while_with_break_flow_line_11_while_0 -->
<g id="node4" class="node">
<title>router_while_with_break_flow_line_11_while_0</title>
<path fill="wheat" stroke="black" d="M341.43,-674C341.43,-674 22.43,-674 22.43,-674 16.43,-674 10.43,-668 10.43,-662 10.43,-662 10.43,-575 10.43,-575 10.43,-569 16.43,-563 22.43,-563 22.43,-563 341.43,-563 341.43,-563 347.43,-563 353.43,-569 353.43,-575 353.43,-575 353.43,-662 353.43,-662 353.43,-668 347.43,-674 341.43,-674"/>
<polygon fill="white" stroke="transparent" points="24.93,-634.5 24.93,-659.5 339.93,-659.5 339.93,-634.5 24.93,-634.5"/>
<polygon fill="none" stroke="black" points="24.93,-634.5 24.93,-659.5 339.93,-659.5 339.93,-634.5 24.93,-634.5"/>
<text text-anchor="start" x="31.93" y="-645.5" font-family="Courier,monospace" font-style="italic" font-size="10.00">p = router_while_with_break_flow_line_11_while…(p)</text>
<polygon fill="lightyellow" stroke="transparent" points="24.93,-609.5 24.93,-634.5 339.93,-634.5 339.93,-609.5 24.93,-609.5"/>
<polygon fill="none" stroke="black" points="24.93,-609.5 24.93,-634.5 339.93,-634.5 339.93,-609.5 24.93,-609.5"/>
<text text-anchor="start" x="88.43" y="-620.5" font-family="Courier,monospace" font-weight="bold" font-size="10.00">if</text>
<text text-anchor="start" x="101.43" y="-620.5" font-family="Courier,monospace" font-size="10.00"> p[&#39;i&#39;] &lt; p[&#39;max_iterations&#39;]</text>
<polygon fill="none" stroke="black" points="24.93,-576.5 24.93,-609.5 339.93,-609.5 339.93,-576.5 24.93,-576.5"/>
<polygon fill="#698b69" stroke="transparent" points="31.93,-583.5 31.93,-602.5 179.93,-602.5 179.93,-583.5 31.93,-583.5"/>
<text text-anchor="start" x="93.43" y="-591.5" font-family="Courier,monospace" font-weight="bold" font-size="10.00" fill="white">TRUE</text>
<polygon fill="#8b3a3a" stroke="transparent" points="179.93,-583.5 179.93,-602.5 332.93,-602.5 332.93,-583.5 179.93,-583.5"/>
<text text-anchor="start" x="240.93" y="-591.5" font-family="Courier,monospace" font-weight="bold" font-size="10.00" fill="white">FALSE</text>
</g>
<!-- router_while_with_break_flow_line_14_if&#45;&gt;router_while_with_break_flow_line_11_while_0 -->
<g id="edge9" class="edge">
<title>router_while_with_break_flow_line_14_if&#45;&gt;router_while_with_break_flow_line_11_while_0</title>
<path fill="none" stroke="#8b3a3a" d="M111.48,-301.04C72.65,-335.34 29.14,-383.38 10.93,-438 -0.03,-470.89 -6.22,-485.87 10.93,-516 19.79,-531.57 32.09,-545 46.06,-556.51"/>
<polygon fill="#8b3a3a" stroke="#8b3a3a" points="43.95,-559.3 53.99,-562.71 48.27,-553.79 43.95,-559.3"/>
<text text-anchor="middle" x="26.43" y="-412" font-family="Courier,monospace" font-size="10.00">F</text>
</g>
<!-- handler_finalize -->
<g id="node7" class="node">
<title>handler_finalize</title>
<path fill="lightblue" stroke="black" d="M356.43,-143C356.43,-143 199.43,-143 199.43,-143 193.43,-143 187.43,-137 187.43,-131 187.43,-131 187.43,-102 187.43,-102 187.43,-96 193.43,-90 199.43,-90 199.43,-90 356.43,-90 356.43,-90 362.43,-90 368.43,-96 368.43,-102 368.43,-102 368.43,-131 368.43,-131 368.43,-137 362.43,-143 356.43,-143"/>
<polygon fill="white" stroke="transparent" points="201.93,-103.5 201.93,-128.5 354.93,-128.5 354.93,-103.5 201.93,-103.5"/>
<polygon fill="none" stroke="black" points="201.93,-103.5 201.93,-128.5 354.93,-128.5 354.93,-103.5 201.93,-103.5"/>
<text text-anchor="start" x="208.93" y="-114.5" font-family="Courier,monospace" font-style="italic" font-size="10.00">p = handler_finalize(p)</text>
</g>
<!-- router_while_with_break_flow_line_14_if&#45;&gt;handler_finalize -->
<g id="edge8" class="edge">
<title>router_while_with_break_flow_line_14_if&#45;&gt;handler_finalize</title>
<path fill="none" stroke="#698b69" d="M224.34,-189.9C234.03,-176.81 244.1,-163.2 252.86,-151.37"/>
<polygon fill="#698b69" stroke="#698b69" points="255.85,-153.22 258.99,-143.1 250.22,-149.05 255.85,-153.22"/>
<text text-anchor="middle" x="247.43" y="-164" font-family="Courier,monospace" font-size="10.00">T</text>
</g>
<!-- router_while_with_break_flow_line_12_seq -->
<g id="node3" class="node">
<title>router_while_with_break_flow_line_12_seq</title>
<path fill="wheat" stroke="black" d="M332.43,-516C332.43,-516 31.43,-516 31.43,-516 25.43,-516 19.43,-510 19.43,-504 19.43,-504 19.43,-450 19.43,-450 19.43,-444 25.43,-438 31.43,-438 31.43,-438 332.43,-438 332.43,-438 338.43,-438 344.43,-444 344.43,-450 344.43,-450 344.43,-504 344.43,-504 344.43,-510 338.43,-516 332.43,-516"/>
<polygon fill="white" stroke="transparent" points="33.93,-477 33.93,-502 330.93,-502 330.93,-477 33.93,-477"/>
<polygon fill="none" stroke="black" points="33.93,-477 33.93,-502 330.93,-502 330.93,-477 33.93,-477"/>
<text text-anchor="start" x="40.93" y="-488" font-family="Courier,monospace" font-style="italic" font-size="10.00">p = router_while_with_break_flow_line_12_seq(p)</text>
<polygon fill="white" stroke="transparent" points="33.93,-452 33.93,-477 330.93,-477 330.93,-452 33.93,-452"/>
<polygon fill="none" stroke="black" points="33.93,-452 33.93,-477 330.93,-477 330.93,-452 33.93,-452"/>
<text text-anchor="start" x="40.93" y="-462" font-family="Courier,monospace" font-size="10.00">p[&#39;i&#39;] += 1</text>
</g>
<!-- handler_process -->
<g id="node9" class="node">
<title>handler_process</title>
<path fill="lightblue" stroke="black" d="M258.43,-391C258.43,-391 107.43,-391 107.43,-391 101.43,-391 95.43,-385 95.43,-379 95.43,-379 95.43,-350 95.43,-350 95.43,-344 101.43,-338 107.43,-338 107.43,-338 258.43,-338 258.43,-338 264.43,-338 270.43,-344 270.43,-350 270.43,-350 270.43,-379 270.43,-379 270.43,-385 264.43,-391 258.43,-391"/>
<polygon fill="white" stroke="transparent" points="109.93,-351.5 109.93,-376.5 256.93,-376.5 256.93,-351.5 109.93,-351.5"/>
<polygon fill="none" stroke="black" points="109.93,-351.5 109.93,-376.5 256.93,-376.5 256.93,-351.5 109.93,-351.5"/>
<text text-anchor="start" x="116.93" y="-362.5" font-family="Courier,monospace" font-style="italic" font-size="10.00">p = handler_process(p)</text>
</g>
<!-- router_while_with_break_flow_line_12_seq&#45;&gt;handler_process -->
<g id="edge7" class="edge">
<title>router_while_with_break_flow_line_12_seq&#45;&gt;handler_process</title>
<path fill="none" stroke="black" d="M182.27,-437.97C182.38,-426.12 182.5,-413.09 182.6,-401.39"/>
<polygon fill="black" stroke="black" points="186.11,-401.12 182.7,-391.09 179.11,-401.05 186.11,-401.12"/>
</g>
<!-- router_while_with_break_flow_line_11_while_0&#45;&gt;router_while_with_break_flow_line_12_seq -->
<g id="edge6" class="edge">
<title>router_while_with_break_flow_line_11_while_0&#45;&gt;router_while_with_break_flow_line_12_seq</title>
<path fill="none" stroke="#698b69" d="M181.93,-562.77C181.93,-550.72 181.93,-538.05 181.93,-526.28"/>
<polygon fill="#698b69" stroke="#698b69" points="185.43,-526.21 181.93,-516.21 178.43,-526.21 185.43,-526.21"/>
<text text-anchor="middle" x="185.43" y="-537" font-family="Courier,monospace" font-size="10.00">T</text>
</g>
<!-- router_while_with_break_flow_line_11_while_0&#45;&gt;handler_finalize -->
<g id="edge5" class="edge">
<title>router_while_with_break_flow_line_11_while_0&#45;&gt;handler_finalize</title>
<path fill="none" stroke="#8b3a3a" d="M319.76,-562.82C349.35,-541.91 371.93,-514.11 371.93,-478 371.93,-478 371.93,-478 371.93,-244.5 371.93,-206.96 345.07,-173.27 320.07,-150.03"/>
<polygon fill="#8b3a3a" stroke="#8b3a3a" points="322.18,-147.23 312.4,-143.16 317.51,-152.44 322.18,-147.23"/>
<text text-anchor="middle" x="375.43" y="-362" font-family="Courier,monospace" font-size="10.00">F</text>
</g>
<!-- router_while_with_break_flow_line_10_seq -->
<g id="node5" class="node">
<title>router_while_with_break_flow_line_10_seq</title>
<path fill="wheat" stroke="black" d="M332.43,-789C332.43,-789 31.43,-789 31.43,-789 25.43,-789 19.43,-783 19.43,-777 19.43,-777 19.43,-723 19.43,-723 19.43,-717 25.43,-711 31.43,-711 31.43,-711 332.43,-711 332.43,-711 338.43,-711 344.43,-717 344.43,-723 344.43,-723 344.43,-777 344.43,-777 344.43,-783 338.43,-789 332.43,-789"/>
<polygon fill="white" stroke="transparent" points="33.93,-750 33.93,-775 330.93,-775 330.93,-750 33.93,-750"/>
<polygon fill="none" stroke="black" points="33.93,-750 33.93,-775 330.93,-775 330.93,-750 33.93,-750"/>
<text text-anchor="start" x="40.93" y="-761" font-family="Courier,monospace" font-style="italic" font-size="10.00">p = router_while_with_break_flow_line_10_seq(p)</text>
<polygon fill="white" stroke="transparent" points="33.93,-725 33.93,-750 330.93,-750 330.93,-725 33.93,-725"/>
<polygon fill="none" stroke="black" points="33.93,-725 33.93,-750 330.93,-750 330.93,-725 33.93,-725"/>
<text text-anchor="start" x="40.93" y="-735" font-family="Courier,monospace" font-size="10.00">p[&#39;i&#39;] = 0</text>
</g>
<!-- router_while_with_break_flow_line_10_seq&#45;&gt;router_while_with_break_flow_line_11_while_0 -->
<g id="edge4" class="edge">
<title>router_while_with_break_flow_line_10_seq&#45;&gt;router_while_with_break_flow_line_11_while_0</title>
<path fill="none" stroke="black" d="M181.93,-710.85C181.93,-702.5 181.93,-693.44 181.93,-684.37"/>
<polygon fill="black" stroke="black" points="185.43,-684.17 181.93,-674.17 178.43,-684.17 185.43,-684.17"/>
</g>
<!-- end_while_with_break_flow -->
<g id="node6" class="node">
<title>end_while_with_break_flow</title>
<path fill="lightgreen" stroke="black" d="M383.43,-53C383.43,-53 172.43,-53 172.43,-53 166.43,-53 160.43,-47 160.43,-41 160.43,-41 160.43,-12 160.43,-12 160.43,-6 166.43,0 172.43,0 172.43,0 383.43,0 383.43,0 389.43,0 395.43,-6 395.43,-12 395.43,-12 395.43,-41 395.43,-41 395.43,-47 389.43,-53 383.43,-53"/>
<polygon fill="white" stroke="transparent" points="174.93,-13.5 174.93,-38.5 381.93,-38.5 381.93,-13.5 174.93,-13.5"/>
<polygon fill="none" stroke="black" points="174.93,-13.5 174.93,-38.5 381.93,-38.5 381.93,-13.5 174.93,-13.5"/>
<text text-anchor="start" x="181.93" y="-24.5" font-family="Courier,monospace" font-style="italic" font-size="10.00">p = end_while_with_break_flow(p)</text>
</g>
<!-- handler_finalize&#45;&gt;end_while_with_break_flow -->
<g id="edge1" class="edge">
<title>handler_finalize&#45;&gt;end_while_with_break_flow</title>
<path fill="none" stroke="black" d="M277.93,-89.57C277.93,-81.34 277.93,-72.08 277.93,-63.28"/>
<polygon fill="black" stroke="black" points="281.43,-63.24 277.93,-53.24 274.43,-63.24 281.43,-63.24"/>
</g>
<!-- handler_init&#45;&gt;router_while_with_break_flow_line_10_seq -->
<g id="edge2" class="edge">
<title>handler_init&#45;&gt;router_while_with_break_flow_line_10_seq</title>
<path fill="none" stroke="black" d="M181.93,-825.88C181.93,-817.77 181.93,-808.52 181.93,-799.35"/>
<polygon fill="black" stroke="black" points="185.43,-799.1 181.93,-789.1 178.43,-799.1 185.43,-799.1"/>
</g>
<!-- handler_process&#45;&gt;router_while_with_break_flow_line_14_if -->
<g id="edge3" class="edge">
<title>handler_process&#45;&gt;router_while_with_break_flow_line_14_if</title>
<path fill="none" stroke="black" d="M183.15,-337.82C183.22,-329.92 183.29,-320.83 183.37,-311.53"/>
<polygon fill="black" stroke="black" points="186.87,-311.41 183.46,-301.38 179.88,-311.35 186.87,-311.41"/>
</g>
</g>
</svg>
