<?xml version="1.0" encoding="UTF-8" standalone="no"?>
<!DOCTYPE svg PUBLIC "-//W3C//DTD SVG 1.1//EN"
 "http://www.w3.org/Graphics/SVG/1.1/DTD/svg11.dtd">
<!-- Generated by graphviz version 2.43.0 (0)
 -->
<!-- Title: flow Pages: 1 -->
<svg width="595pt" height="927pt"
 viewBox="0.00 0.00 595.05 927.00" xmlns="http://www.w3.org/2000/svg" xmlns:xlink="http://www.w3.org/1999/xlink">
<g id="graph0" class="graph" transform="scale(1 1) rotate(0) translate(4 923)">
<title>flow</title>
<polygon fill="white" stroke="transparent" points="-4,4 -4,-923 591.05,-923 591.05,4 -4,4"/>
<!-- start_nested_loop_flow -->
<g id="node1" class="node">
<title>start_nested_loop_flow</title>
<path fill="lightgreen" stroke="black" d="M256,-919C256,-919 63,-919 63,-919 57,-919 51,-913 51,-907 51,-907 51,-878 51,-878 51,-872 57,-866 63,-866 63,-866 256,-866 256,-866 262,-866 268,-872 268,-878 268,-878 268,-907 268,-907 268,-913 262,-919 256,-919"/>
<polygon fill="white" stroke="transparent" points="65.5,-879.5 65.5,-904.5 254.5,-904.5 254.5,-879.5 65.5,-879.5"/>
<polygon fill="none" stroke="black" points="65.5,-879.5 65.5,-904.5 254.5,-904.5 254.5,-879.5 65.5,-879.5"/>
<text text-anchor="start" x="72.5" y="-890.5" font-family="Courier,monospace" font-style="italic" font-size="10.00">p = start_nested_loop_flow(p)</text>
</g>
<!-- initialize -->
<g id="node10" class="node">
<title>initialize</title>
<path fill="lightblue" stroke="black" d="M220,-829C220,-829 99,-829 99,-829 93,-829 87,-823 87,-817 87,-817 87,-788 87,-788 87,-782 93,-776 99,-776 99,-776 220,-776 220,-776 226,-776 232,-782 232,-788 232,-788 232,-817 232,-817 232,-823 226,-829 220,-829"/>
<polygon fill="white" stroke="transparent" points="101.5,-789.5 101.5,-814.5 218.5,-814.5 218.5,-789.5 101.5,-789.5"/>
<polygon fill="none" stroke="black" points="101.5,-789.5 101.5,-814.5 218.5,-814.5 218.5,-789.5 101.5,-789.5"/>
<text text-anchor="start" x="108.5" y="-800.5" font-family="Courier,monospace" font-style="italic" font-size="10.00">p = initialize(p)</text>
</g>
<!-- start_nested_loop_flow&#45;&gt;initialize -->
<g id="edge12" class="edge">
<title>start_nested_loop_flow&#45;&gt;initialize</title>
<path fill="none" stroke="black" d="M159.5,-865.57C159.5,-857.34 159.5,-848.08 159.5,-839.28"/>
<polygon fill="black" stroke="black" points="163,-839.24 159.5,-829.24 156,-839.24 163,-839.24"/>
</g>
<!-- router_nested_loop_flow_line_16_seq -->
<g id="node2" class="node">
<title>router_nested_loop_flow_line_16_seq</title>
<path fill="wheat" stroke="black" d="M295,-168C295,-168 24,-168 24,-168 18,-168 12,-162 12,-156 12,-156 12,-102 12,-102 12,-96 18,-90 24,-90 24,-90 295,-90 295,-90 301,-90 307,-96 307,-102 307,-102 307,-156 307,-156 307,-162 301,-168 295,-168"/>
<polygon fill="white" stroke="transparent" points="26.5,-129 26.5,-154 293.5,-154 293.5,-129 26.5,-129"/>
<polygon fill="none" stroke="black" points="26.5,-129 26.5,-154 293.5,-154 293.5,-129 26.5,-129"/>
<text text-anchor="start" x="33.5" y="-140" font-family="Courier,monospace" font-style="italic" font-size="10.00">p = router_nested_loop_flow_line_16_seq(p)</text>
<polygon fill="white" stroke="transparent" points="26.5,-104 26.5,-129 293.5,-129 293.5,-104 26.5,-104"/>
<polygon fill="none" stroke="black" points="26.5,-104 26.5,-129 293.5,-129 293.5,-104 26.5,-104"/>
<text text-anchor="start" x="33.5" y="-114" font-family="Courier,monospace" font-size="10.00">p[&#39;j&#39;] += 1</text>
</g>
<!-- process_item -->
<g id="node11" class="node">
<title>process_item</title>
<path fill="lightblue" stroke="black" d="M226,-53C226,-53 93,-53 93,-53 87,-53 81,-47 81,-41 81,-41 81,-12 81,-12 81,-6 87,0 93,0 93,0 226,0 226,0 232,0 238,-6 238,-12 238,-12 238,-41 238,-41 238,-47 232,-53 226,-53"/>
<polygon fill="white" stroke="transparent" points="95.5,-13.5 95.5,-38.5 224.5,-38.5 224.5,-13.5 95.5,-13.5"/>
<polygon fill="none" stroke="black" points="95.5,-13.5 95.5,-38.5 224.5,-38.5 224.5,-13.5 95.5,-13.5"/>
<text text-anchor="start" x="102.5" y="-24.5" font-family="Courier,monospace" font-style="italic" font-size="10.00">p = process_item(p)</text>
</g>
<!-- router_nested_loop_flow_line_16_seq&#45;&gt;process_item -->
<g id="edge11" class="edge">
<title>router_nested_loop_flow_line_16_seq&#45;&gt;process_item</title>
<path fill="none" stroke="black" d="M159.5,-89.72C159.5,-81.04 159.5,-71.86 159.5,-63.29"/>
<polygon fill="black" stroke="black" points="163,-63.22 159.5,-53.22 156,-63.22 163,-63.22"/>
</g>
<!-- router_nested_loop_flow_line_15_while_1 -->
<g id="node3" class="node">
<title>router_nested_loop_flow_line_15_while_1</title>
<path fill="wheat" stroke="black" d="M307,-326C307,-326 12,-326 12,-326 6,-326 0,-320 0,-314 0,-314 0,-227 0,-227 0,-221 6,-215 12,-215 12,-215 307,-215 307,-215 313,-215 319,-221 319,-227 319,-227 319,-314 319,-314 319,-320 313,-326 307,-326"/>
<polygon fill="white" stroke="transparent" points="14.5,-286.5 14.5,-311.5 305.5,-311.5 305.5,-286.5 14.5,-286.5"/>
<polygon fill="none" stroke="black" points="14.5,-286.5 14.5,-311.5 305.5,-311.5 305.5,-286.5 14.5,-286.5"/>
<text text-anchor="start" x="21.5" y="-297.5" font-family="Courier,monospace" font-style="italic" font-size="10.00">p = router_nested_loop_flow_line_15_while_1(p)</text>
<polygon fill="lightyellow" stroke="transparent" points="14.5,-261.5 14.5,-286.5 305.5,-286.5 305.5,-261.5 14.5,-261.5"/>
<polygon fill="none" stroke="black" points="14.5,-261.5 14.5,-286.5 305.5,-286.5 305.5,-261.5 14.5,-261.5"/>
<text text-anchor="start" x="93" y="-272.5" font-family="Courier,monospace" font-weight="bold" font-size="10.00">if</text>
<text text-anchor="start" x="106" y="-272.5" font-family="Courier,monospace" font-size="10.00"> p[&#39;j&#39;] &lt; p[&#39;max_j&#39;]</text>
<polygon fill="none" stroke="black" points="14.5,-228.5 14.5,-261.5 305.5,-261.5 305.5,-228.5 14.5,-228.5"/>
<polygon fill="#698b69" stroke="transparent" points="21.5,-235.5 21.5,-254.5 157.5,-254.5 157.5,-235.5 21.5,-235.5"/>
<text text-anchor="start" x="77" y="-243.5" font-family="Courier,monospace" font-weight="bold" font-size="10.00" fill="white">TRUE</text>
<polygon fill="#8b3a3a" stroke="transparent" points="157.5,-235.5 157.5,-254.5 298.5,-254.5 298.5,-235.5 157.5,-235.5"/>
<text text-anchor="start" x="212.5" y="-243.5" font-family="Courier,monospace" font-weight="bold" font-size="10.00" fill="white">FALSE</text>
</g>
<!-- router_nested_loop_flow_line_15_while_1&#45;&gt;router_nested_loop_flow_line_16_seq -->
<g id="edge10" class="edge">
<title>router_nested_loop_flow_line_15_while_1&#45;&gt;router_nested_loop_flow_line_16_seq</title>
<path fill="none" stroke="#698b69" d="M159.5,-214.77C159.5,-202.72 159.5,-190.05 159.5,-178.28"/>
<polygon fill="#698b69" stroke="#698b69" points="163,-178.21 159.5,-168.21 156,-178.21 163,-178.21"/>
<text text-anchor="middle" x="163" y="-189" font-family="Courier,monospace" font-size="10.00">T</text>
</g>
<!-- finalize_loop_j -->
<g id="node9" class="node">
<title>finalize_loop_j</title>
<path fill="lightblue" stroke="black" d="M488,-155.5C488,-155.5 337,-155.5 337,-155.5 331,-155.5 325,-149.5 325,-143.5 325,-143.5 325,-114.5 325,-114.5 325,-108.5 331,-102.5 337,-102.5 337,-102.5 488,-102.5 488,-102.5 494,-102.5 500,-108.5 500,-114.5 500,-114.5 500,-143.5 500,-143.5 500,-149.5 494,-155.5 488,-155.5"/>
<polygon fill="white" stroke="transparent" points="339.5,-116 339.5,-141 486.5,-141 486.5,-116 339.5,-116"/>
<polygon fill="none" stroke="black" points="339.5,-116 339.5,-141 486.5,-141 486.5,-116 339.5,-116"/>
<text text-anchor="start" x="346.5" y="-127" font-family="Courier,monospace" font-style="italic" font-size="10.00">p = finalize_loop_j(p)</text>
</g>
<!-- router_nested_loop_flow_line_15_while_1&#45;&gt;finalize_loop_j -->
<g id="edge9" class="edge">
<title>router_nested_loop_flow_line_15_while_1&#45;&gt;finalize_loop_j</title>
<path fill="none" stroke="#8b3a3a" d="M258.4,-214.97C291.92,-196.49 328.15,-176.51 357.06,-160.57"/>
<polygon fill="#8b3a3a" stroke="#8b3a3a" points="359.1,-163.44 366.17,-155.54 355.72,-157.31 359.1,-163.44"/>
<text text-anchor="middle" x="313" y="-189" font-family="Courier,monospace" font-size="10.00">F</text>
</g>
<!-- router_nested_loop_flow_line_13_seq -->
<g id="node4" class="node">
<title>router_nested_loop_flow_line_13_seq</title>
<path fill="wheat" stroke="black" d="M295,-466C295,-466 24,-466 24,-466 18,-466 12,-460 12,-454 12,-454 12,-375 12,-375 12,-369 18,-363 24,-363 24,-363 295,-363 295,-363 301,-363 307,-369 307,-375 307,-375 307,-454 307,-454 307,-460 301,-466 295,-466"/>
<polygon fill="white" stroke="transparent" points="26.5,-426.5 26.5,-451.5 293.5,-451.5 293.5,-426.5 26.5,-426.5"/>
<polygon fill="none" stroke="black" points="26.5,-426.5 26.5,-451.5 293.5,-451.5 293.5,-426.5 26.5,-426.5"/>
<text text-anchor="start" x="33.5" y="-437.5" font-family="Courier,monospace" font-style="italic" font-size="10.00">p = router_nested_loop_flow_line_13_seq(p)</text>
<polygon fill="white" stroke="transparent" points="26.5,-401.5 26.5,-426.5 293.5,-426.5 293.5,-401.5 26.5,-401.5"/>
<polygon fill="none" stroke="black" points="26.5,-401.5 26.5,-426.5 293.5,-426.5 293.5,-401.5 26.5,-401.5"/>
<text text-anchor="start" x="33.5" y="-411.5" font-family="Courier,monospace" font-size="10.00">p[&#39;i&#39;] += 1</text>
<polygon fill="white" stroke="transparent" points="26.5,-376.5 26.5,-401.5 293.5,-401.5 293.5,-376.5 26.5,-376.5"/>
<polygon fill="none" stroke="black" points="26.5,-376.5 26.5,-401.5 293.5,-401.5 293.5,-376.5 26.5,-376.5"/>
<text text-anchor="start" x="33.5" y="-386.5" font-family="Courier,monospace" font-size="10.00">p[&#39;j&#39;] = 0</text>
</g>
<!-- router_nested_loop_flow_line_13_seq&#45;&gt;router_nested_loop_flow_line_15_while_1 -->
<g id="edge8" class="edge">
<title>router_nested_loop_flow_line_13_seq&#45;&gt;router_nested_loop_flow_line_15_while_1</title>
<path fill="none" stroke="black" d="M159.5,-362.64C159.5,-354.17 159.5,-345.29 159.5,-336.53"/>
<polygon fill="black" stroke="black" points="163,-336.33 159.5,-326.33 156,-336.33 163,-336.33"/>
</g>
<!-- router_nested_loop_flow_line_12_while_0 -->
<g id="node5" class="node">
<title>router_nested_loop_flow_line_12_while_0</title>
<path fill="wheat" stroke="black" d="M307,-624C307,-624 12,-624 12,-624 6,-624 0,-618 0,-612 0,-612 0,-525 0,-525 0,-519 6,-513 12,-513 12,-513 307,-513 307,-513 313,-513 319,-519 319,-525 319,-525 319,-612 319,-612 319,-618 313,-624 307,-624"/>
<polygon fill="white" stroke="transparent" points="14.5,-584.5 14.5,-609.5 305.5,-609.5 305.5,-584.5 14.5,-584.5"/>
<polygon fill="none" stroke="black" points="14.5,-584.5 14.5,-609.5 305.5,-609.5 305.5,-584.5 14.5,-584.5"/>
<text text-anchor="start" x="21.5" y="-595.5" font-family="Courier,monospace" font-style="italic" font-size="10.00">p = router_nested_loop_flow_line_12_while_0(p)</text>
<polygon fill="lightyellow" stroke="transparent" points="14.5,-559.5 14.5,-584.5 305.5,-584.5 305.5,-559.5 14.5,-559.5"/>
<polygon fill="none" stroke="black" points="14.5,-559.5 14.5,-584.5 305.5,-584.5 305.5,-559.5 14.5,-559.5"/>
<text text-anchor="start" x="93" y="-570.5" font-family="Courier,monospace" font-weight="bold" font-size="10.00">if</text>
<text text-anchor="start" x="106" y="-570.5" font-family="Courier,monospace" font-size="10.00"> p[&#39;i&#39;] &lt; p[&#39;max_i&#39;]</text>
<polygon fill="none" stroke="black" points="14.5,-526.5 14.5,-559.5 305.5,-559.5 305.5,-526.5 14.5,-526.5"/>
<polygon fill="#698b69" stroke="transparent" points="21.5,-533.5 21.5,-552.5 157.5,-552.5 157.5,-533.5 21.5,-533.5"/>
<text text-anchor="start" x="77" y="-541.5" font-family="Courier,monospace" font-weight="bold" font-size="10.00" fill="white">TRUE</text>
<polygon fill="#8b3a3a" stroke="transparent" points="157.5,-533.5 157.5,-552.5 298.5,-552.5 298.5,-533.5 157.5,-533.5"/>
<text text-anchor="start" x="212.5" y="-541.5" font-family="Courier,monospace" font-weight="bold" font-size="10.00" fill="white">FALSE</text>
</g>
<!-- router_nested_loop_flow_line_12_while_0&#45;&gt;router_nested_loop_flow_line_13_seq -->
<g id="edge7" class="edge">
<title>router_nested_loop_flow_line_12_while_0&#45;&gt;router_nested_loop_flow_line_13_seq</title>
<path fill="none" stroke="#698b69" d="M159.5,-512.62C159.5,-500.92 159.5,-488.48 159.5,-476.56"/>
<polygon fill="#698b69" stroke="#698b69" points="163,-476.25 159.5,-466.25 156,-476.25 163,-476.25"/>
<text text-anchor="middle" x="163" y="-487" font-family="Courier,monospace" font-size="10.00">T</text>
</g>
<!-- finalize_loop_i -->
<g id="node8" class="node">
<title>finalize_loop_i</title>
<path fill="lightblue" stroke="black" d="M502,-441C502,-441 351,-441 351,-441 345,-441 339,-435 339,-429 339,-429 339,-400 339,-400 339,-394 345,-388 351,-388 351,-388 502,-388 502,-388 508,-388 514,-394 514,-400 514,-400 514,-429 514,-429 514,-435 508,-441 502,-441"/>
<polygon fill="white" stroke="transparent" points="353.5,-401.5 353.5,-426.5 500.5,-426.5 500.5,-401.5 353.5,-401.5"/>
<polygon fill="none" stroke="black" points="353.5,-401.5 353.5,-426.5 500.5,-426.5 500.5,-401.5 353.5,-401.5"/>
<text text-anchor="start" x="360.5" y="-412.5" font-family="Courier,monospace" font-style="italic" font-size="10.00">p = finalize_loop_i(p)</text>
</g>
<!-- router_nested_loop_flow_line_12_while_0&#45;&gt;finalize_loop_i -->
<g id="edge6" class="edge">
<title>router_nested_loop_flow_line_12_while_0&#45;&gt;finalize_loop_i</title>
<path fill="none" stroke="#8b3a3a" d="M255.52,-512.84C295.04,-490.34 339.34,-465.12 372.94,-445.99"/>
<polygon fill="#8b3a3a" stroke="#8b3a3a" points="374.72,-449.01 381.68,-441.02 371.26,-442.92 374.72,-449.01"/>
<text text-anchor="middle" x="305" y="-487" font-family="Courier,monospace" font-size="10.00">F</text>
</g>
<!-- router_nested_loop_flow_line_11_seq -->
<g id="node6" class="node">
<title>router_nested_loop_flow_line_11_seq</title>
<path fill="wheat" stroke="black" d="M295,-739C295,-739 24,-739 24,-739 18,-739 12,-733 12,-727 12,-727 12,-673 12,-673 12,-667 18,-661 24,-661 24,-661 295,-661 295,-661 301,-661 307,-667 307,-673 307,-673 307,-727 307,-727 307,-733 301,-739 295,-739"/>
<polygon fill="white" stroke="transparent" points="26.5,-700 26.5,-725 293.5,-725 293.5,-700 26.5,-700"/>
<polygon fill="none" stroke="black" points="26.5,-700 26.5,-725 293.5,-725 293.5,-700 26.5,-700"/>
<text text-anchor="start" x="33.5" y="-711" font-family="Courier,monospace" font-style="italic" font-size="10.00">p = router_nested_loop_flow_line_11_seq(p)</text>
<polygon fill="white" stroke="transparent" points="26.5,-675 26.5,-700 293.5,-700 293.5,-675 26.5,-675"/>
<polygon fill="none" stroke="black" points="26.5,-675 26.5,-700 293.5,-700 293.5,-675 26.5,-675"/>
<text text-anchor="start" x="33.5" y="-685" font-family="Courier,monospace" font-size="10.00">p[&#39;i&#39;] = 0</text>
</g>
<!-- router_nested_loop_flow_line_11_seq&#45;&gt;router_nested_loop_flow_line_12_while_0 -->
<g id="edge5" class="edge">
<title>router_nested_loop_flow_line_11_seq&#45;&gt;router_nested_loop_flow_line_12_while_0</title>
<path fill="none" stroke="black" d="M159.5,-660.85C159.5,-652.5 159.5,-643.44 159.5,-634.37"/>
<polygon fill="black" stroke="black" points="163,-634.17 159.5,-624.17 156,-634.17 163,-634.17"/>
</g>
<!-- end_nested_loop_flow -->
<g id="node7" class="node">
<title>end_nested_loop_flow</title>
<path fill="lightgreen" stroke="black" d="M530,-297C530,-297 349,-297 349,-297 343,-297 337,-291 337,-285 337,-285 337,-256 337,-256 337,-250 343,-244 349,-244 349,-244 530,-244 530,-244 536,-244 542,-250 542,-256 542,-256 542,-285 542,-285 542,-291 536,-297 530,-297"/>
<polygon fill="white" stroke="transparent" points="351.5,-257.5 351.5,-282.5 528.5,-282.5 528.5,-257.5 351.5,-257.5"/>
<polygon fill="none" stroke="black" points="351.5,-257.5 351.5,-282.5 528.5,-282.5 528.5,-257.5 351.5,-257.5"/>
<text text-anchor="start" x="358.5" y="-268.5" font-family="Courier,monospace" font-style="italic" font-size="10.00">p = end_nested_loop_flow(p)</text>
</g>
<!-- finalize_loop_i&#45;&gt;end_nested_loop_flow -->
<g id="edge1" class="edge">
<title>finalize_loop_i&#45;&gt;end_nested_loop_flow</title>
<path fill="none" stroke="black" d="M428.85,-387.78C430.92,-365.27 433.93,-332.32 436.23,-307.24"/>
<polygon fill="black" stroke="black" points="439.74,-307.3 437.16,-297.02 432.77,-306.66 439.74,-307.3"/>
</g>
<!-- finalize_loop_j&#45;&gt;router_nested_loop_flow_line_12_while_0 -->
<g id="edge2" class="edge">
<title>finalize_loop_j&#45;&gt;router_nested_loop_flow_line_12_while_0</title>
<path fill="none" stroke="black" d="M482.32,-155.59C508.56,-169.02 535.61,-188.35 550.5,-215 605.21,-312.96 599.54,-383.5 523.5,-466 496.05,-495.78 410.39,-520.45 329.07,-538.01"/>
<polygon fill="black" stroke="black" points="328.23,-534.61 319.17,-540.11 329.68,-541.45 328.23,-534.61"/>
</g>
<!-- initialize&#45;&gt;router_nested_loop_flow_line_11_seq -->
<g id="edge3" class="edge">
<title>initialize&#45;&gt;router_nested_loop_flow_line_11_seq</title>
<path fill="none" stroke="black" d="M159.5,-775.88C159.5,-767.77 159.5,-758.52 159.5,-749.35"/>
<polygon fill="black" stroke="black" points="163,-749.1 159.5,-739.1 156,-749.1 163,-749.1"/>
</g>
<!-- process_item&#45;&gt;router_nested_loop_flow_line_15_while_1 -->
<g id="edge4" class="edge">
<title>process_item&#45;&gt;router_nested_loop_flow_line_15_while_1</title>
<path fill="none" stroke="black" d="M238.02,-30.19C330.41,-35.2 475.57,-49.48 509.5,-90 531.75,-116.58 530.71,-140.58 509.5,-168 460.54,-231.3 412.04,-194.76 328.87,-215.14"/>
<polygon fill="black" stroke="black" points="327.85,-211.79 319.1,-217.76 329.66,-218.55 327.85,-211.79"/>
</g>
</g>
</svg>
