<?xml version="1.0" encoding="UTF-8" standalone="no"?>
<!DOCTYPE svg PUBLIC "-//W3C//DTD SVG 1.1//EN"
 "http://www.w3.org/Graphics/SVG/1.1/DTD/svg11.dtd">
<!-- Generated by graphviz version 2.43.0 (0)
 -->
<!-- Title: flow Pages: 1 -->
<svg width="355pt" height="579pt"
 viewBox="0.00 0.00 355.00 579.00" xmlns="http://www.w3.org/2000/svg" xmlns:xlink="http://www.w3.org/1999/xlink">
<g id="graph0" class="graph" transform="scale(1 1) rotate(0) translate(4 575)">
<title>flow</title>
<polygon fill="white" stroke="transparent" points="-4,4 -4,-575 351,-575 351,4 -4,4"/>
<!-- start_if_empty_branches_flow -->
<g id="node1" class="node">
<title>start_if_empty_branches_flow</title>
<path fill="lightgreen" stroke="black" d="M277,-571C277,-571 48,-571 48,-571 42,-571 36,-565 36,-559 36,-559 36,-530 36,-530 36,-524 42,-518 48,-518 48,-518 277,-518 277,-518 283,-518 289,-524 289,-530 289,-530 289,-559 289,-559 289,-565 283,-571 277,-571"/>
<polygon fill="white" stroke="transparent" points="50.5,-531.5 50.5,-556.5 275.5,-556.5 275.5,-531.5 50.5,-531.5"/>
<polygon fill="none" stroke="black" points="50.5,-531.5 50.5,-556.5 275.5,-556.5 275.5,-531.5 50.5,-531.5"/>
<text text-anchor="start" x="57.5" y="-542.5" font-family="Courier,monospace" font-style="italic" font-size="10.00">p = start_if_empty_branches_flow(p)</text>
</g>
<!-- handler_setup -->
<g id="node6" class="node">
<title>handler_setup</title>
<path fill="lightblue" stroke="black" d="M232,-481C232,-481 93,-481 93,-481 87,-481 81,-475 81,-469 81,-469 81,-440 81,-440 81,-434 87,-428 93,-428 93,-428 232,-428 232,-428 238,-428 244,-434 244,-440 244,-440 244,-469 244,-469 244,-475 238,-481 232,-481"/>
<polygon fill="white" stroke="transparent" points="95.5,-441.5 95.5,-466.5 230.5,-466.5 230.5,-441.5 95.5,-441.5"/>
<polygon fill="none" stroke="black" points="95.5,-441.5 95.5,-466.5 230.5,-466.5 230.5,-441.5 95.5,-441.5"/>
<text text-anchor="start" x="102.5" y="-452.5" font-family="Courier,monospace" font-style="italic" font-size="10.00">p = handler_setup(p)</text>
</g>
<!-- start_if_empty_branches_flow&#45;&gt;handler_setup -->
<g id="edge6" class="edge">
<title>start_if_empty_branches_flow&#45;&gt;handler_setup</title>
<path fill="none" stroke="black" d="M162.5,-517.57C162.5,-509.34 162.5,-500.08 162.5,-491.28"/>
<polygon fill="black" stroke="black" points="166,-491.24 162.5,-481.24 159,-491.24 166,-491.24"/>
</g>
<!-- router_if_empty_branches_flow_line_10_if -->
<g id="node2" class="node">
<title>router_if_empty_branches_flow_line_10_if</title>
<path fill="wheat" stroke="black" d="M313,-391C313,-391 12,-391 12,-391 6,-391 0,-385 0,-379 0,-379 0,-292 0,-292 0,-286 6,-280 12,-280 12,-280 313,-280 313,-280 319,-280 325,-286 325,-292 325,-292 325,-379 325,-379 325,-385 319,-391 313,-391"/>
<polygon fill="white" stroke="transparent" points="14.5,-351.5 14.5,-376.5 311.5,-376.5 311.5,-351.5 14.5,-351.5"/>
<polygon fill="none" stroke="black" points="14.5,-351.5 14.5,-376.5 311.5,-376.5 311.5,-351.5 14.5,-351.5"/>
<text text-anchor="start" x="21.5" y="-362.5" font-family="Courier,monospace" font-style="italic" font-size="10.00">p = router_if_empty_branches_flow_line_10_if(p)</text>
<polygon fill="lightyellow" stroke="transparent" points="14.5,-326.5 14.5,-351.5 311.5,-351.5 311.5,-326.5 14.5,-326.5"/>
<polygon fill="none" stroke="black" points="14.5,-326.5 14.5,-351.5 311.5,-351.5 311.5,-326.5 14.5,-326.5"/>
<text text-anchor="start" x="93" y="-337.5" font-family="Courier,monospace" font-weight="bold" font-size="10.00">if</text>
<text text-anchor="start" x="106" y="-337.5" font-family="Courier,monospace" font-size="10.00"> p[&#39;skip_processing&#39;]</text>
<polygon fill="none" stroke="black" points="14.5,-293.5 14.5,-326.5 311.5,-326.5 311.5,-293.5 14.5,-293.5"/>
<polygon fill="#698b69" stroke="transparent" points="21.5,-300.5 21.5,-319.5 160.5,-319.5 160.5,-300.5 21.5,-300.5"/>
<text text-anchor="start" x="78.5" y="-308.5" font-family="Courier,monospace" font-weight="bold" font-size="10.00" fill="white">TRUE</text>
<polygon fill="#8b3a3a" stroke="transparent" points="160.5,-300.5 160.5,-319.5 304.5,-319.5 304.5,-300.5 160.5,-300.5"/>
<text text-anchor="start" x="217" y="-308.5" font-family="Courier,monospace" font-weight="bold" font-size="10.00" fill="white">FALSE</text>
</g>
<!-- handler_finalize -->
<g id="node4" class="node">
<title>handler_finalize</title>
<path fill="lightblue" stroke="black" d="M237,-143C237,-143 80,-143 80,-143 74,-143 68,-137 68,-131 68,-131 68,-102 68,-102 68,-96 74,-90 80,-90 80,-90 237,-90 237,-90 243,-90 249,-96 249,-102 249,-102 249,-131 249,-131 249,-137 243,-143 237,-143"/>
<polygon fill="white" stroke="transparent" points="82.5,-103.5 82.5,-128.5 235.5,-128.5 235.5,-103.5 82.5,-103.5"/>
<polygon fill="none" stroke="black" points="82.5,-103.5 82.5,-128.5 235.5,-128.5 235.5,-103.5 82.5,-103.5"/>
<text text-anchor="start" x="89.5" y="-114.5" font-family="Courier,monospace" font-style="italic" font-size="10.00">p = handler_finalize(p)</text>
</g>
<!-- router_if_empty_branches_flow_line_10_if&#45;&gt;handler_finalize -->
<g id="edge4" class="edge">
<title>router_if_empty_branches_flow_line_10_if&#45;&gt;handler_finalize</title>
<path fill="none" stroke="#698b69" d="M158.03,-279.75C156.98,-264.62 156.02,-248.18 155.5,-233 154.69,-209.46 154.94,-203.55 155.5,-180 155.71,-171.35 156.08,-162.04 156.49,-153.31"/>
<polygon fill="#698b69" stroke="#698b69" points="160,-153.19 157,-143.03 153,-152.85 160,-153.19"/>
<text text-anchor="middle" x="159" y="-204" font-family="Courier,monospace" font-size="10.00">T</text>
</g>
<!-- handler_process -->
<g id="node5" class="node">
<title>handler_process</title>
<path fill="lightblue" stroke="black" d="M335,-233C335,-233 184,-233 184,-233 178,-233 172,-227 172,-221 172,-221 172,-192 172,-192 172,-186 178,-180 184,-180 184,-180 335,-180 335,-180 341,-180 347,-186 347,-192 347,-192 347,-221 347,-221 347,-227 341,-233 335,-233"/>
<polygon fill="white" stroke="transparent" points="186.5,-193.5 186.5,-218.5 333.5,-218.5 333.5,-193.5 186.5,-193.5"/>
<polygon fill="none" stroke="black" points="186.5,-193.5 186.5,-218.5 333.5,-218.5 333.5,-193.5 186.5,-193.5"/>
<text text-anchor="start" x="193.5" y="-204.5" font-family="Courier,monospace" font-style="italic" font-size="10.00">p = handler_process(p)</text>
</g>
<!-- router_if_empty_branches_flow_line_10_if&#45;&gt;handler_process -->
<g id="edge5" class="edge">
<title>router_if_empty_branches_flow_line_10_if&#45;&gt;handler_process</title>
<path fill="none" stroke="#8b3a3a" d="M204.2,-279.9C214.2,-266.81 224.59,-253.2 233.63,-241.37"/>
<polygon fill="#8b3a3a" stroke="#8b3a3a" points="236.66,-243.17 239.95,-233.1 231.1,-238.92 236.66,-243.17"/>
<text text-anchor="middle" x="228" y="-254" font-family="Courier,monospace" font-size="10.00">F</text>
</g>
<!-- end_if_empty_branches_flow -->
<g id="node3" class="node">
<title>end_if_empty_branches_flow</title>
<path fill="lightgreen" stroke="black" d="M267,-53C267,-53 50,-53 50,-53 44,-53 38,-47 38,-41 38,-41 38,-12 38,-12 38,-6 44,0 50,0 50,0 267,0 267,0 273,0 279,-6 279,-12 279,-12 279,-41 279,-41 279,-47 273,-53 267,-53"/>
<polygon fill="white" stroke="transparent" points="52.5,-13.5 52.5,-38.5 265.5,-38.5 265.5,-13.5 52.5,-13.5"/>
<polygon fill="none" stroke="black" points="52.5,-13.5 52.5,-38.5 265.5,-38.5 265.5,-13.5 52.5,-13.5"/>
<text text-anchor="start" x="59.5" y="-24.5" font-family="Courier,monospace" font-style="italic" font-size="10.00">p = end_if_empty_branches_flow(p)</text>
</g>
<!-- handler_finalize&#45;&gt;end_if_empty_branches_flow -->
<g id="edge1" class="edge">
<title>handler_finalize&#45;&gt;end_if_empty_branches_flow</title>
<path fill="none" stroke="black" d="M158.5,-89.57C158.5,-81.34 158.5,-72.08 158.5,-63.28"/>
<polygon fill="black" stroke="black" points="162,-63.24 158.5,-53.24 155,-63.24 162,-63.24"/>
</g>
<!-- handler_process&#45;&gt;handler_finalize -->
<g id="edge2" class="edge">
<title>handler_process&#45;&gt;handler_finalize</title>
<path fill="none" stroke="black" d="M230.02,-179.81C219.23,-170.41 206.89,-159.66 195.52,-149.76"/>
<polygon fill="black" stroke="black" points="197.69,-147 187.85,-143.07 193.09,-152.28 197.69,-147"/>
</g>
<!-- handler_setup&#45;&gt;router_if_empty_branches_flow_line_10_if -->
<g id="edge3" class="edge">
<title>handler_setup&#45;&gt;router_if_empty_branches_flow_line_10_if</title>
<path fill="none" stroke="black" d="M162.5,-427.82C162.5,-419.92 162.5,-410.83 162.5,-401.53"/>
<polygon fill="black" stroke="black" points="166,-401.38 162.5,-391.38 159,-401.38 166,-401.38"/>
</g>
</g>
</svg>
