<?xml version="1.0" encoding="UTF-8" standalone="no"?>
<!DOCTYPE svg PUBLIC "-//W3C//DTD SVG 1.1//EN"
 "http://www.w3.org/Graphics/SVG/1.1/DTD/svg11.dtd">
<!-- Generated by graphviz version 2.43.0 (0)
 -->
<!-- Title: flow Pages: 1 -->
<svg width="273pt" height="417pt"
 viewBox="0.00 0.00 273.00 417.00" xmlns="http://www.w3.org/2000/svg" xmlns:xlink="http://www.w3.org/1999/xlink">
<g id="graph0" class="graph" transform="scale(1 1) rotate(0) translate(4 413)">
<title>flow</title>
<polygon fill="white" stroke="transparent" points="-4,4 -4,-413 269,-413 269,4 -4,4"/>
<!-- start_class_instantiation_flow -->
<g id="node1" class="node">
<title>start_class_instantiation_flow</title>
<path fill="lightgreen" stroke="black" d="M253,-409C253,-409 12,-409 12,-409 6,-409 0,-403 0,-397 0,-397 0,-368 0,-368 0,-362 6,-356 12,-356 12,-356 253,-356 253,-356 259,-356 265,-362 265,-368 265,-368 265,-397 265,-397 265,-403 259,-409 253,-409"/>
<polygon fill="white" stroke="transparent" points="14.5,-369.5 14.5,-394.5 251.5,-394.5 251.5,-369.5 14.5,-369.5"/>
<polygon fill="none" stroke="black" points="14.5,-369.5 14.5,-394.5 251.5,-394.5 251.5,-369.5 14.5,-369.5"/>
<text text-anchor="start" x="21.5" y="-380.5" font-family="Courier,monospace" font-style="italic" font-size="10.00">p = start_class_instantiation_flow(p)</text>
</g>
<!-- sequential_with_class_DataPreprocessor_clean -->
<g id="node3" class="node">
<title>sequential_with_class_DataPreprocessor_clean</title>
<path fill="lightblue" stroke="black" d="M229,-320C229,-320 36,-320 36,-320 30,-320 24,-314 24,-308 24,-308 24,-279 24,-279 24,-273 30,-267 36,-267 36,-267 229,-267 229,-267 235,-267 241,-273 241,-279 241,-279 241,-308 241,-308 241,-314 235,-320 229,-320"/>
<polygon fill="white" stroke="transparent" points="38.5,-280.5 38.5,-305.5 227.5,-305.5 227.5,-280.5 38.5,-280.5"/>
<polygon fill="none" stroke="black" points="38.5,-280.5 38.5,-305.5 227.5,-305.5 227.5,-280.5 38.5,-280.5"/>
<text text-anchor="start" x="45.5" y="-291.5" font-family="Courier,monospace" font-style="italic" font-size="10.00">p = DataPreprocessor.clean(p)</text>
</g>
<!-- start_class_instantiation_flow&#45;&gt;sequential_with_class_DataPreprocessor_clean -->
<g id="edge3" class="edge">
<title>start_class_instantiation_flow&#45;&gt;sequential_with_class_DataPreprocessor_clean</title>
<path fill="none" stroke="black" d="M132.5,-355.87C132.5,-347.89 132.5,-338.93 132.5,-330.38"/>
<polygon fill="black" stroke="black" points="136,-330.25 132.5,-320.25 129,-330.25 136,-330.25"/>
</g>
<!-- end_class_instantiation_flow -->
<g id="node2" class="node">
<title>end_class_instantiation_flow</title>
<path fill="lightgreen" stroke="black" d="M247,-53C247,-53 18,-53 18,-53 12,-53 6,-47 6,-41 6,-41 6,-12 6,-12 6,-6 12,0 18,0 18,0 247,0 247,0 253,0 259,-6 259,-12 259,-12 259,-41 259,-41 259,-47 253,-53 247,-53"/>
<polygon fill="white" stroke="transparent" points="20.5,-13.5 20.5,-38.5 245.5,-38.5 245.5,-13.5 20.5,-13.5"/>
<polygon fill="none" stroke="black" points="20.5,-13.5 20.5,-38.5 245.5,-38.5 245.5,-13.5 20.5,-13.5"/>
<text text-anchor="start" x="27.5" y="-24.5" font-family="Courier,monospace" font-style="italic" font-size="10.00">p = end_class_instantiation_flow(p)</text>
</g>
<!-- transformation -->
<g id="node5" class="node">
<title>transformation</title>
<path fill="lightblue" stroke="black" d="M205,-231C205,-231 60,-231 60,-231 54,-231 48,-225 48,-219 48,-219 48,-190 48,-190 48,-184 54,-178 60,-178 60,-178 205,-178 205,-178 211,-178 217,-184 217,-190 217,-190 217,-219 217,-219 217,-225 211,-231 205,-231"/>
<polygon fill="white" stroke="transparent" points="62.5,-191.5 62.5,-216.5 203.5,-216.5 203.5,-191.5 62.5,-191.5"/>
<polygon fill="none" stroke="black" points="62.5,-191.5 62.5,-216.5 203.5,-216.5 203.5,-191.5 62.5,-191.5"/>
<text text-anchor="start" x="69.5" y="-202.5" font-family="Courier,monospace" font-style="italic" font-size="10.00">p = transformation(p)</text>
</g>
<!-- sequential_with_class_DataPreprocessor_clean&#45;&gt;transformation -->
<g id="edge1" class="edge">
<title>sequential_with_class_DataPreprocessor_clean&#45;&gt;transformation</title>
<path fill="none" stroke="black" d="M132.5,-266.87C132.5,-258.89 132.5,-249.93 132.5,-241.38"/>
<polygon fill="black" stroke="black" points="136,-241.25 132.5,-231.25 129,-241.25 136,-241.25"/>
</g>
<!-- sequential_with_class_MLModel_predict -->
<g id="node4" class="node">
<title>sequential_with_class_MLModel_predict</title>
<path fill="lightblue" stroke="black" d="M208,-142C208,-142 57,-142 57,-142 51,-142 45,-136 45,-130 45,-130 45,-101 45,-101 45,-95 51,-89 57,-89 57,-89 208,-89 208,-89 214,-89 220,-95 220,-101 220,-101 220,-130 220,-130 220,-136 214,-142 208,-142"/>
<polygon fill="white" stroke="transparent" points="59.5,-102.5 59.5,-127.5 206.5,-127.5 206.5,-102.5 59.5,-102.5"/>
<polygon fill="none" stroke="black" points="59.5,-102.5 59.5,-127.5 206.5,-127.5 206.5,-102.5 59.5,-102.5"/>
<text text-anchor="start" x="66.5" y="-113.5" font-family="Courier,monospace" font-style="italic" font-size="10.00">p = MLModel.predict(p)</text>
</g>
<!-- sequential_with_class_MLModel_predict&#45;&gt;end_class_instantiation_flow -->
<g id="edge2" class="edge">
<title>sequential_with_class_MLModel_predict&#45;&gt;end_class_instantiation_flow</title>
<path fill="none" stroke="black" d="M132.5,-88.87C132.5,-80.89 132.5,-71.93 132.5,-63.38"/>
<polygon fill="black" stroke="black" points="136,-63.25 132.5,-53.25 129,-63.25 136,-63.25"/>
</g>
<!-- transformation&#45;&gt;sequential_with_class_MLModel_predict -->
<g id="edge4" class="edge">
<title>transformation&#45;&gt;sequential_with_class_MLModel_predict</title>
<path fill="none" stroke="black" d="M132.5,-177.87C132.5,-169.89 132.5,-160.93 132.5,-152.38"/>
<polygon fill="black" stroke="black" points="136,-152.25 132.5,-142.25 129,-152.25 136,-152.25"/>
</g>
</g>
</svg>
