<?xml version="1.0" encoding="UTF-8" standalone="no"?>
<!DOCTYPE svg PUBLIC "-//W3C//DTD SVG 1.1//EN"
 "http://www.w3.org/Graphics/SVG/1.1/DTD/svg11.dtd">
<!-- Generated by graphviz version 2.43.0 (0)
 -->
<!-- Title: flow Pages: 1 -->
<svg width="1013pt" height="1702pt"
 viewBox="0.00 0.00 1012.76 1702.00" xmlns="http://www.w3.org/2000/svg" xmlns:xlink="http://www.w3.org/1999/xlink">
<g id="graph0" class="graph" transform="scale(1 1) rotate(0) translate(4 1698)">
<title>flow</title>
<polygon fill="white" stroke="transparent" points="-4,4 -4,-1698 1008.76,-1698 1008.76,4 -4,4"/>
<!-- start_conditional_nested_flow -->
<g id="node1" class="node">
<title>start_conditional_nested_flow</title>
<path fill="lightgreen" stroke="black" d="M959.76,-1694C959.76,-1694 724.76,-1694 724.76,-1694 718.76,-1694 712.76,-1688 712.76,-1682 712.76,-1682 712.76,-1653 712.76,-1653 712.76,-1647 718.76,-1641 724.76,-1641 724.76,-1641 959.76,-1641 959.76,-1641 965.76,-1641 971.76,-1647 971.76,-1653 971.76,-1653 971.76,-1682 971.76,-1682 971.76,-1688 965.76,-1694 959.76,-1694"/>
<polygon fill="white" stroke="transparent" points="727.26,-1654.5 727.26,-1679.5 958.26,-1679.5 958.26,-1654.5 727.26,-1654.5"/>
<polygon fill="none" stroke="black" points="727.26,-1654.5 727.26,-1679.5 958.26,-1679.5 958.26,-1654.5 727.26,-1654.5"/>
<text text-anchor="start" x="734.26" y="-1665.5" font-family="Courier,monospace" font-style="italic" font-size="10.00">p = start_conditional_nested_flow(p)</text>
</g>
<!-- handler_validate_input -->
<g id="node19" class="node">
<title>handler_validate_input</title>
<path fill="lightblue" stroke="black" d="M938.76,-1604C938.76,-1604 745.76,-1604 745.76,-1604 739.76,-1604 733.76,-1598 733.76,-1592 733.76,-1592 733.76,-1563 733.76,-1563 733.76,-1557 739.76,-1551 745.76,-1551 745.76,-1551 938.76,-1551 938.76,-1551 944.76,-1551 950.76,-1557 950.76,-1563 950.76,-1563 950.76,-1592 950.76,-1592 950.76,-1598 944.76,-1604 938.76,-1604"/>
<polygon fill="white" stroke="transparent" points="748.26,-1564.5 748.26,-1589.5 937.26,-1589.5 937.26,-1564.5 748.26,-1564.5"/>
<polygon fill="none" stroke="black" points="748.26,-1564.5 748.26,-1589.5 937.26,-1589.5 937.26,-1564.5 748.26,-1564.5"/>
<text text-anchor="start" x="755.26" y="-1575.5" font-family="Courier,monospace" font-style="italic" font-size="10.00">p = handler_validate_input(p)</text>
</g>
<!-- start_conditional_nested_flow&#45;&gt;handler_validate_input -->
<g id="edge22" class="edge">
<title>start_conditional_nested_flow&#45;&gt;handler_validate_input</title>
<path fill="none" stroke="black" d="M842.26,-1640.57C842.26,-1632.34 842.26,-1623.08 842.26,-1614.28"/>
<polygon fill="black" stroke="black" points="845.76,-1614.24 842.26,-1604.24 838.76,-1614.24 845.76,-1614.24"/>
</g>
<!-- router_conditional_nested_flow_line_15_seq -->
<g id="node2" class="node">
<title>router_conditional_nested_flow_line_15_seq</title>
<path fill="wheat" stroke="black" d="M386.76,-513C386.76,-513 73.76,-513 73.76,-513 67.76,-513 61.76,-507 61.76,-501 61.76,-501 61.76,-447 61.76,-447 61.76,-441 67.76,-435 73.76,-435 73.76,-435 386.76,-435 386.76,-435 392.76,-435 398.76,-441 398.76,-447 398.76,-447 398.76,-501 398.76,-501 398.76,-507 392.76,-513 386.76,-513"/>
<polygon fill="white" stroke="transparent" points="76.26,-474 76.26,-499 385.26,-499 385.26,-474 76.26,-474"/>
<polygon fill="none" stroke="black" points="76.26,-474 76.26,-499 385.26,-499 385.26,-474 76.26,-474"/>
<text text-anchor="start" x="83.26" y="-485" font-family="Courier,monospace" font-style="italic" font-size="10.00">p = router_conditional_nested_flow_line_15_seq(p)</text>
<polygon fill="white" stroke="transparent" points="76.26,-449 76.26,-474 385.26,-474 385.26,-449 76.26,-449"/>
<polygon fill="none" stroke="black" points="76.26,-449 76.26,-474 385.26,-474 385.26,-449 76.26,-449"/>
<text text-anchor="start" x="83.26" y="-459" font-family="Courier,monospace" font-size="10.00">p[&#39;x&#39;] += 4</text>
</g>
<!-- router_conditional_nested_flow_line_24_seq -->
<g id="node11" class="node">
<title>router_conditional_nested_flow_line_24_seq</title>
<path fill="wheat" stroke="black" d="M898.76,-398C898.76,-398 585.76,-398 585.76,-398 579.76,-398 573.76,-392 573.76,-386 573.76,-386 573.76,-332 573.76,-332 573.76,-326 579.76,-320 585.76,-320 585.76,-320 898.76,-320 898.76,-320 904.76,-320 910.76,-326 910.76,-332 910.76,-332 910.76,-386 910.76,-386 910.76,-392 904.76,-398 898.76,-398"/>
<polygon fill="white" stroke="transparent" points="588.26,-359 588.26,-384 897.26,-384 897.26,-359 588.26,-359"/>
<polygon fill="none" stroke="black" points="588.26,-359 588.26,-384 897.26,-384 897.26,-359 588.26,-359"/>
<text text-anchor="start" x="595.26" y="-370" font-family="Courier,monospace" font-style="italic" font-size="10.00">p = router_conditional_nested_flow_line_24_seq(p)</text>
<polygon fill="white" stroke="transparent" points="588.26,-334 588.26,-359 897.26,-359 897.26,-334 588.26,-334"/>
<polygon fill="none" stroke="black" points="588.26,-334 588.26,-359 897.26,-359 897.26,-334 588.26,-334"/>
<text text-anchor="start" x="595.26" y="-344" font-family="Courier,monospace" font-size="10.00">p[&#39;x&#39;] += 8</text>
</g>
<!-- router_conditional_nested_flow_line_15_seq&#45;&gt;router_conditional_nested_flow_line_24_seq -->
<g id="edge11" class="edge">
<title>router_conditional_nested_flow_line_15_seq&#45;&gt;router_conditional_nested_flow_line_24_seq</title>
<path fill="none" stroke="black" d="M398.97,-435.76C451.77,-424.11 510.2,-411.22 563.66,-399.42"/>
<polygon fill="black" stroke="black" points="564.57,-402.8 573.58,-397.23 563.06,-395.96 564.57,-402.8"/>
</g>
<!-- router_conditional_nested_flow_line_13_seq -->
<g id="node3" class="node">
<title>router_conditional_nested_flow_line_13_seq</title>
<path fill="wheat" stroke="black" d="M346.76,-628C346.76,-628 33.76,-628 33.76,-628 27.76,-628 21.76,-622 21.76,-616 21.76,-616 21.76,-562 21.76,-562 21.76,-556 27.76,-550 33.76,-550 33.76,-550 346.76,-550 346.76,-550 352.76,-550 358.76,-556 358.76,-562 358.76,-562 358.76,-616 358.76,-616 358.76,-622 352.76,-628 346.76,-628"/>
<polygon fill="white" stroke="transparent" points="36.26,-589 36.26,-614 345.26,-614 345.26,-589 36.26,-589"/>
<polygon fill="none" stroke="black" points="36.26,-589 36.26,-614 345.26,-614 345.26,-589 36.26,-589"/>
<text text-anchor="start" x="43.26" y="-600" font-family="Courier,monospace" font-style="italic" font-size="10.00">p = router_conditional_nested_flow_line_13_seq(p)</text>
<polygon fill="white" stroke="transparent" points="36.26,-564 36.26,-589 345.26,-589 345.26,-564 36.26,-564"/>
<polygon fill="none" stroke="black" points="36.26,-564 36.26,-589 345.26,-589 345.26,-564 36.26,-564"/>
<text text-anchor="start" x="43.26" y="-574" font-family="Courier,monospace" font-size="10.00">p[&#39;x&#39;] += 3</text>
</g>
<!-- handler_b -->
<g id="node15" class="node">
<title>handler_b</title>
<path fill="lightblue" stroke="black" d="M296.76,-955.5C296.76,-955.5 181.76,-955.5 181.76,-955.5 175.76,-955.5 169.76,-949.5 169.76,-943.5 169.76,-943.5 169.76,-914.5 169.76,-914.5 169.76,-908.5 175.76,-902.5 181.76,-902.5 181.76,-902.5 296.76,-902.5 296.76,-902.5 302.76,-902.5 308.76,-908.5 308.76,-914.5 308.76,-914.5 308.76,-943.5 308.76,-943.5 308.76,-949.5 302.76,-955.5 296.76,-955.5"/>
<polygon fill="white" stroke="transparent" points="184.26,-916 184.26,-941 295.26,-941 295.26,-916 184.26,-916"/>
<polygon fill="none" stroke="black" points="184.26,-916 184.26,-941 295.26,-941 295.26,-916 184.26,-916"/>
<text text-anchor="start" x="191.26" y="-927" font-family="Courier,monospace" font-style="italic" font-size="10.00">p = handler_b(p)</text>
</g>
<!-- router_conditional_nested_flow_line_13_seq&#45;&gt;handler_b -->
<g id="edge10" class="edge">
<title>router_conditional_nested_flow_line_13_seq&#45;&gt;handler_b</title>
<path fill="none" stroke="black" d="M189.36,-628.44C188.99,-680.16 191.23,-774.71 209.26,-853 212.34,-866.37 217.44,-880.48 222.58,-892.8"/>
<polygon fill="black" stroke="black" points="219.49,-894.47 226.67,-902.26 225.91,-891.69 219.49,-894.47"/>
</g>
<!-- router_conditional_nested_flow_line_17_seq -->
<g id="node4" class="node">
<title>router_conditional_nested_flow_line_17_seq</title>
<path fill="wheat" stroke="black" d="M701.76,-628C701.76,-628 388.76,-628 388.76,-628 382.76,-628 376.76,-622 376.76,-616 376.76,-616 376.76,-562 376.76,-562 376.76,-556 382.76,-550 388.76,-550 388.76,-550 701.76,-550 701.76,-550 707.76,-550 713.76,-556 713.76,-562 713.76,-562 713.76,-616 713.76,-616 713.76,-622 707.76,-628 701.76,-628"/>
<polygon fill="white" stroke="transparent" points="391.26,-589 391.26,-614 700.26,-614 700.26,-589 391.26,-589"/>
<polygon fill="none" stroke="black" points="391.26,-589 391.26,-614 700.26,-614 700.26,-589 391.26,-589"/>
<text text-anchor="start" x="398.26" y="-600" font-family="Courier,monospace" font-style="italic" font-size="10.00">p = router_conditional_nested_flow_line_17_seq(p)</text>
<polygon fill="white" stroke="transparent" points="391.26,-564 391.26,-589 700.26,-589 700.26,-564 391.26,-564"/>
<polygon fill="none" stroke="black" points="391.26,-564 391.26,-589 700.26,-589 700.26,-564 391.26,-564"/>
<text text-anchor="start" x="398.26" y="-574" font-family="Courier,monospace" font-size="10.00">p[&#39;x&#39;] += 5</text>
</g>
<!-- handler_c -->
<g id="node16" class="node">
<title>handler_c</title>
<path fill="lightblue" stroke="black" d="M543.76,-500.5C543.76,-500.5 428.76,-500.5 428.76,-500.5 422.76,-500.5 416.76,-494.5 416.76,-488.5 416.76,-488.5 416.76,-459.5 416.76,-459.5 416.76,-453.5 422.76,-447.5 428.76,-447.5 428.76,-447.5 543.76,-447.5 543.76,-447.5 549.76,-447.5 555.76,-453.5 555.76,-459.5 555.76,-459.5 555.76,-488.5 555.76,-488.5 555.76,-494.5 549.76,-500.5 543.76,-500.5"/>
<polygon fill="white" stroke="transparent" points="431.26,-461 431.26,-486 542.26,-486 542.26,-461 431.26,-461"/>
<polygon fill="none" stroke="black" points="431.26,-461 431.26,-486 542.26,-486 542.26,-461 431.26,-461"/>
<text text-anchor="start" x="438.26" y="-472" font-family="Courier,monospace" font-style="italic" font-size="10.00">p = handler_c(p)</text>
</g>
<!-- router_conditional_nested_flow_line_17_seq&#45;&gt;handler_c -->
<g id="edge12" class="edge">
<title>router_conditional_nested_flow_line_17_seq&#45;&gt;handler_c</title>
<path fill="none" stroke="black" d="M525.28,-549.74C518.5,-536.76 510.97,-522.34 504.35,-509.65"/>
<polygon fill="black" stroke="black" points="507.44,-508.01 499.71,-500.77 501.24,-511.25 507.44,-508.01"/>
</g>
<!-- router_conditional_nested_flow_line_12_if -->
<g id="node5" class="node">
<title>router_conditional_nested_flow_line_12_if</title>
<path fill="wheat" stroke="black" d="M537.76,-853C537.76,-853 230.76,-853 230.76,-853 224.76,-853 218.76,-847 218.76,-841 218.76,-841 218.76,-729 218.76,-729 218.76,-723 224.76,-717 230.76,-717 230.76,-717 537.76,-717 537.76,-717 543.76,-717 549.76,-723 549.76,-729 549.76,-729 549.76,-841 549.76,-841 549.76,-847 543.76,-853 537.76,-853"/>
<polygon fill="white" stroke="transparent" points="233.26,-814 233.26,-839 536.26,-839 536.26,-814 233.26,-814"/>
<polygon fill="none" stroke="black" points="233.26,-814 233.26,-839 536.26,-839 536.26,-814 233.26,-814"/>
<text text-anchor="start" x="240.26" y="-825" font-family="Courier,monospace" font-style="italic" font-size="10.00">p = router_conditional_nested_flow_line_12_if(p)</text>
<polygon fill="white" stroke="transparent" points="233.26,-789 233.26,-814 536.26,-814 536.26,-789 233.26,-789"/>
<polygon fill="none" stroke="black" points="233.26,-789 233.26,-814 536.26,-814 536.26,-789 233.26,-789"/>
<text text-anchor="start" x="240.26" y="-799" font-family="Courier,monospace" font-size="10.00">p[&#39;x&#39;] += 2</text>
<polygon fill="lightyellow" stroke="transparent" points="233.26,-764 233.26,-789 536.26,-789 536.26,-764 233.26,-764"/>
<polygon fill="none" stroke="black" points="233.26,-764 233.26,-789 536.26,-789 536.26,-764 233.26,-764"/>
<text text-anchor="start" x="344.76" y="-775" font-family="Courier,monospace" font-weight="bold" font-size="10.00">if</text>
<text text-anchor="start" x="357.76" y="-775" font-family="Courier,monospace" font-size="10.00"> p[&#39;x&#39;] &gt; 2</text>
<polygon fill="none" stroke="black" points="233.26,-731 233.26,-764 536.26,-764 536.26,-731 233.26,-731"/>
<polygon fill="#698b69" stroke="transparent" points="240.26,-738 240.26,-757 382.26,-757 382.26,-738 240.26,-738"/>
<text text-anchor="start" x="298.76" y="-746" font-family="Courier,monospace" font-weight="bold" font-size="10.00" fill="white">TRUE</text>
<polygon fill="#8b3a3a" stroke="transparent" points="382.26,-738 382.26,-757 529.26,-757 529.26,-738 382.26,-738"/>
<text text-anchor="start" x="440.26" y="-746" font-family="Courier,monospace" font-weight="bold" font-size="10.00" fill="white">FALSE</text>
</g>
<!-- router_conditional_nested_flow_line_12_if&#45;&gt;router_conditional_nested_flow_line_13_seq -->
<g id="edge8" class="edge">
<title>router_conditional_nested_flow_line_12_if&#45;&gt;router_conditional_nested_flow_line_13_seq</title>
<path fill="none" stroke="#698b69" d="M317.22,-716.96C290.32,-690.07 260.02,-659.76 235.76,-635.5"/>
<polygon fill="#698b69" stroke="#698b69" points="237.98,-632.78 228.44,-628.18 233.03,-637.73 237.98,-632.78"/>
<text text-anchor="middle" x="302.76" y="-670" font-family="Courier,monospace" font-size="10.00">T</text>
</g>
<!-- router_conditional_nested_flow_line_12_if&#45;&gt;router_conditional_nested_flow_line_17_seq -->
<g id="edge9" class="edge">
<title>router_conditional_nested_flow_line_12_if&#45;&gt;router_conditional_nested_flow_line_17_seq</title>
<path fill="none" stroke="#8b3a3a" d="M439.89,-716.96C462.02,-690.3 486.93,-660.28 506.97,-636.13"/>
<polygon fill="#8b3a3a" stroke="#8b3a3a" points="509.88,-638.11 513.57,-628.18 504.49,-633.64 509.88,-638.11"/>
<text text-anchor="middle" x="501.76" y="-670" font-family="Courier,monospace" font-size="10.00">F</text>
</g>
<!-- router_conditional_nested_flow_line_22_seq -->
<g id="node6" class="node">
<title>router_conditional_nested_flow_line_22_seq</title>
<path fill="wheat" stroke="black" d="M898.76,-513C898.76,-513 585.76,-513 585.76,-513 579.76,-513 573.76,-507 573.76,-501 573.76,-501 573.76,-447 573.76,-447 573.76,-441 579.76,-435 585.76,-435 585.76,-435 898.76,-435 898.76,-435 904.76,-435 910.76,-441 910.76,-447 910.76,-447 910.76,-501 910.76,-501 910.76,-507 904.76,-513 898.76,-513"/>
<polygon fill="white" stroke="transparent" points="588.26,-474 588.26,-499 897.26,-499 897.26,-474 588.26,-474"/>
<polygon fill="none" stroke="black" points="588.26,-474 588.26,-499 897.26,-499 897.26,-474 588.26,-474"/>
<text text-anchor="start" x="595.26" y="-485" font-family="Courier,monospace" font-style="italic" font-size="10.00">p = router_conditional_nested_flow_line_22_seq(p)</text>
<polygon fill="white" stroke="transparent" points="588.26,-449 588.26,-474 897.26,-474 897.26,-449 588.26,-449"/>
<polygon fill="none" stroke="black" points="588.26,-449 588.26,-474 897.26,-474 897.26,-449 588.26,-449"/>
<text text-anchor="start" x="595.26" y="-459" font-family="Courier,monospace" font-size="10.00">p[&#39;x&#39;] += 7</text>
</g>
<!-- router_conditional_nested_flow_line_22_seq&#45;&gt;router_conditional_nested_flow_line_24_seq -->
<g id="edge14" class="edge">
<title>router_conditional_nested_flow_line_22_seq&#45;&gt;router_conditional_nested_flow_line_24_seq</title>
<path fill="none" stroke="black" d="M742.26,-434.74C742.26,-426.28 742.26,-417.2 742.26,-408.38"/>
<polygon fill="black" stroke="black" points="745.76,-408.22 742.26,-398.22 738.76,-408.22 745.76,-408.22"/>
</g>
<!-- router_conditional_nested_flow_line_20_seq -->
<g id="node7" class="node">
<title>router_conditional_nested_flow_line_20_seq</title>
<path fill="wheat" stroke="black" d="M890.76,-968C890.76,-968 577.76,-968 577.76,-968 571.76,-968 565.76,-962 565.76,-956 565.76,-956 565.76,-902 565.76,-902 565.76,-896 571.76,-890 577.76,-890 577.76,-890 890.76,-890 890.76,-890 896.76,-890 902.76,-896 902.76,-902 902.76,-902 902.76,-956 902.76,-956 902.76,-962 896.76,-968 890.76,-968"/>
<polygon fill="white" stroke="transparent" points="580.26,-929 580.26,-954 889.26,-954 889.26,-929 580.26,-929"/>
<polygon fill="none" stroke="black" points="580.26,-929 580.26,-954 889.26,-954 889.26,-929 580.26,-929"/>
<text text-anchor="start" x="587.26" y="-940" font-family="Courier,monospace" font-style="italic" font-size="10.00">p = router_conditional_nested_flow_line_20_seq(p)</text>
<polygon fill="white" stroke="transparent" points="580.26,-904 580.26,-929 889.26,-929 889.26,-904 580.26,-904"/>
<polygon fill="none" stroke="black" points="580.26,-904 580.26,-929 889.26,-929 889.26,-904 580.26,-904"/>
<text text-anchor="start" x="587.26" y="-914" font-family="Courier,monospace" font-size="10.00">p[&#39;x&#39;] += 6</text>
</g>
<!-- handler_d -->
<g id="node17" class="node">
<title>handler_d</title>
<path fill="lightblue" stroke="black" d="M795.76,-699C795.76,-699 680.76,-699 680.76,-699 674.76,-699 668.76,-693 668.76,-687 668.76,-687 668.76,-658 668.76,-658 668.76,-652 674.76,-646 680.76,-646 680.76,-646 795.76,-646 795.76,-646 801.76,-646 807.76,-652 807.76,-658 807.76,-658 807.76,-687 807.76,-687 807.76,-693 801.76,-699 795.76,-699"/>
<polygon fill="white" stroke="transparent" points="683.26,-659.5 683.26,-684.5 794.26,-684.5 794.26,-659.5 683.26,-659.5"/>
<polygon fill="none" stroke="black" points="683.26,-659.5 683.26,-684.5 794.26,-684.5 794.26,-659.5 683.26,-659.5"/>
<text text-anchor="start" x="690.26" y="-670.5" font-family="Courier,monospace" font-style="italic" font-size="10.00">p = handler_d(p)</text>
</g>
<!-- router_conditional_nested_flow_line_20_seq&#45;&gt;handler_d -->
<g id="edge13" class="edge">
<title>router_conditional_nested_flow_line_20_seq&#45;&gt;handler_d</title>
<path fill="none" stroke="black" d="M734.86,-889.9C735.62,-841.04 736.95,-756.94 737.69,-709.25"/>
<polygon fill="black" stroke="black" points="741.2,-709.14 737.85,-699.08 734.2,-709.03 741.2,-709.14"/>
</g>
<!-- router_conditional_nested_flow_line_9_if -->
<g id="node8" class="node">
<title>router_conditional_nested_flow_line_9_if</title>
<path fill="wheat" stroke="black" d="M884.76,-1126C884.76,-1126 583.76,-1126 583.76,-1126 577.76,-1126 571.76,-1120 571.76,-1114 571.76,-1114 571.76,-1027 571.76,-1027 571.76,-1021 577.76,-1015 583.76,-1015 583.76,-1015 884.76,-1015 884.76,-1015 890.76,-1015 896.76,-1021 896.76,-1027 896.76,-1027 896.76,-1114 896.76,-1114 896.76,-1120 890.76,-1126 884.76,-1126"/>
<polygon fill="white" stroke="transparent" points="586.26,-1086.5 586.26,-1111.5 883.26,-1111.5 883.26,-1086.5 586.26,-1086.5"/>
<polygon fill="none" stroke="black" points="586.26,-1086.5 586.26,-1111.5 883.26,-1111.5 883.26,-1086.5 586.26,-1086.5"/>
<text text-anchor="start" x="593.26" y="-1097.5" font-family="Courier,monospace" font-style="italic" font-size="10.00">p = router_conditional_nested_flow_line_9_if(p)</text>
<polygon fill="lightyellow" stroke="transparent" points="586.26,-1061.5 586.26,-1086.5 883.26,-1086.5 883.26,-1061.5 586.26,-1061.5"/>
<polygon fill="none" stroke="black" points="586.26,-1061.5 586.26,-1086.5 883.26,-1086.5 883.26,-1061.5 586.26,-1061.5"/>
<text text-anchor="start" x="694.76" y="-1072.5" font-family="Courier,monospace" font-weight="bold" font-size="10.00">if</text>
<text text-anchor="start" x="707.76" y="-1072.5" font-family="Courier,monospace" font-size="10.00"> p[&#39;x&#39;] &gt; 2</text>
<polygon fill="none" stroke="black" points="586.26,-1028.5 586.26,-1061.5 883.26,-1061.5 883.26,-1028.5 586.26,-1028.5"/>
<polygon fill="#698b69" stroke="transparent" points="593.26,-1035.5 593.26,-1054.5 732.26,-1054.5 732.26,-1035.5 593.26,-1035.5"/>
<text text-anchor="start" x="650.26" y="-1043.5" font-family="Courier,monospace" font-weight="bold" font-size="10.00" fill="white">TRUE</text>
<polygon fill="#8b3a3a" stroke="transparent" points="732.26,-1035.5 732.26,-1054.5 876.26,-1054.5 876.26,-1035.5 732.26,-1035.5"/>
<text text-anchor="start" x="788.76" y="-1043.5" font-family="Courier,monospace" font-weight="bold" font-size="10.00" fill="white">FALSE</text>
</g>
<!-- router_conditional_nested_flow_line_9_if&#45;&gt;router_conditional_nested_flow_line_20_seq -->
<g id="edge21" class="edge">
<title>router_conditional_nested_flow_line_9_if&#45;&gt;router_conditional_nested_flow_line_20_seq</title>
<path fill="none" stroke="#8b3a3a" d="M734.26,-1014.77C734.26,-1002.72 734.26,-990.05 734.26,-978.28"/>
<polygon fill="#8b3a3a" stroke="#8b3a3a" points="737.76,-978.21 734.26,-968.21 730.76,-978.21 737.76,-978.21"/>
<text text-anchor="middle" x="737.76" y="-989" font-family="Courier,monospace" font-size="10.00">F</text>
</g>
<!-- router_conditional_nested_flow_line_9_if&#45;&gt;handler_b -->
<g id="edge20" class="edge">
<title>router_conditional_nested_flow_line_9_if&#45;&gt;handler_b</title>
<path fill="none" stroke="#698b69" d="M571.49,-1023.63C486.62,-999.71 386.63,-971.53 318.68,-952.38"/>
<polygon fill="#698b69" stroke="#698b69" points="319.47,-948.97 308.9,-949.63 317.57,-955.71 319.47,-948.97"/>
<text text-anchor="middle" x="475.76" y="-989" font-family="Courier,monospace" font-size="10.00">T</text>
</g>
<!-- router_conditional_nested_flow_line_7_seq -->
<g id="node9" class="node">
<title>router_conditional_nested_flow_line_7_seq</title>
<path fill="wheat" stroke="black" d="M898.76,-1331C898.76,-1331 591.76,-1331 591.76,-1331 585.76,-1331 579.76,-1325 579.76,-1319 579.76,-1319 579.76,-1265 579.76,-1265 579.76,-1259 585.76,-1253 591.76,-1253 591.76,-1253 898.76,-1253 898.76,-1253 904.76,-1253 910.76,-1259 910.76,-1265 910.76,-1265 910.76,-1319 910.76,-1319 910.76,-1325 904.76,-1331 898.76,-1331"/>
<polygon fill="white" stroke="transparent" points="594.26,-1292 594.26,-1317 897.26,-1317 897.26,-1292 594.26,-1292"/>
<polygon fill="none" stroke="black" points="594.26,-1292 594.26,-1317 897.26,-1317 897.26,-1292 594.26,-1292"/>
<text text-anchor="start" x="601.26" y="-1303" font-family="Courier,monospace" font-style="italic" font-size="10.00">p = router_conditional_nested_flow_line_7_seq(p)</text>
<polygon fill="white" stroke="transparent" points="594.26,-1267 594.26,-1292 897.26,-1292 897.26,-1267 594.26,-1267"/>
<polygon fill="none" stroke="black" points="594.26,-1267 594.26,-1292 897.26,-1292 897.26,-1267 594.26,-1267"/>
<text text-anchor="start" x="601.26" y="-1277" font-family="Courier,monospace" font-size="10.00">p[&#39;x&#39;] += 1</text>
</g>
<!-- handler_a -->
<g id="node14" class="node">
<title>handler_a</title>
<path fill="lightblue" stroke="black" d="M798.76,-1216C798.76,-1216 683.76,-1216 683.76,-1216 677.76,-1216 671.76,-1210 671.76,-1204 671.76,-1204 671.76,-1175 671.76,-1175 671.76,-1169 677.76,-1163 683.76,-1163 683.76,-1163 798.76,-1163 798.76,-1163 804.76,-1163 810.76,-1169 810.76,-1175 810.76,-1175 810.76,-1204 810.76,-1204 810.76,-1210 804.76,-1216 798.76,-1216"/>
<polygon fill="white" stroke="transparent" points="686.26,-1176.5 686.26,-1201.5 797.26,-1201.5 797.26,-1176.5 686.26,-1176.5"/>
<polygon fill="none" stroke="black" points="686.26,-1176.5 686.26,-1201.5 797.26,-1201.5 797.26,-1176.5 686.26,-1176.5"/>
<text text-anchor="start" x="693.26" y="-1187.5" font-family="Courier,monospace" font-style="italic" font-size="10.00">p = handler_a(p)</text>
</g>
<!-- router_conditional_nested_flow_line_7_seq&#45;&gt;handler_a -->
<g id="edge19" class="edge">
<title>router_conditional_nested_flow_line_7_seq&#45;&gt;handler_a</title>
<path fill="none" stroke="black" d="M743.73,-1252.72C743.39,-1244.04 743.02,-1234.86 742.68,-1226.29"/>
<polygon fill="black" stroke="black" points="746.18,-1226.07 742.28,-1216.22 739.18,-1226.35 746.18,-1226.07"/>
</g>
<!-- router_conditional_nested_flow_line_26_seq -->
<g id="node10" class="node">
<title>router_conditional_nested_flow_line_26_seq</title>
<path fill="wheat" stroke="black" d="M898.76,-193C898.76,-193 585.76,-193 585.76,-193 579.76,-193 573.76,-187 573.76,-181 573.76,-181 573.76,-102 573.76,-102 573.76,-96 579.76,-90 585.76,-90 585.76,-90 898.76,-90 898.76,-90 904.76,-90 910.76,-96 910.76,-102 910.76,-102 910.76,-181 910.76,-181 910.76,-187 904.76,-193 898.76,-193"/>
<polygon fill="white" stroke="transparent" points="588.26,-153.5 588.26,-178.5 897.26,-178.5 897.26,-153.5 588.26,-153.5"/>
<polygon fill="none" stroke="black" points="588.26,-153.5 588.26,-178.5 897.26,-178.5 897.26,-153.5 588.26,-153.5"/>
<text text-anchor="start" x="595.26" y="-164.5" font-family="Courier,monospace" font-style="italic" font-size="10.00">p = router_conditional_nested_flow_line_26_seq(p)</text>
<polygon fill="white" stroke="transparent" points="588.26,-128.5 588.26,-153.5 897.26,-153.5 897.26,-128.5 588.26,-128.5"/>
<polygon fill="none" stroke="black" points="588.26,-128.5 588.26,-153.5 897.26,-153.5 897.26,-128.5 588.26,-128.5"/>
<text text-anchor="start" x="595.26" y="-138.5" font-family="Courier,monospace" font-size="10.00">p[&#39;x&#39;] += 9</text>
<polygon fill="white" stroke="transparent" points="588.26,-103.5 588.26,-128.5 897.26,-128.5 897.26,-103.5 588.26,-103.5"/>
<polygon fill="none" stroke="black" points="588.26,-103.5 588.26,-128.5 897.26,-128.5 897.26,-103.5 588.26,-103.5"/>
<text text-anchor="start" x="595.26" y="-113.5" font-family="Courier,monospace" font-size="10.00">p[&#39;x&#39;] *= 10</text>
</g>
<!-- end_conditional_nested_flow -->
<g id="node13" class="node">
<title>end_conditional_nested_flow</title>
<path fill="lightgreen" stroke="black" d="M853.76,-53C853.76,-53 630.76,-53 630.76,-53 624.76,-53 618.76,-47 618.76,-41 618.76,-41 618.76,-12 618.76,-12 618.76,-6 624.76,0 630.76,0 630.76,0 853.76,0 853.76,0 859.76,0 865.76,-6 865.76,-12 865.76,-12 865.76,-41 865.76,-41 865.76,-47 859.76,-53 853.76,-53"/>
<polygon fill="white" stroke="transparent" points="633.26,-13.5 633.26,-38.5 852.26,-38.5 852.26,-13.5 633.26,-13.5"/>
<polygon fill="none" stroke="black" points="633.26,-13.5 633.26,-38.5 852.26,-38.5 852.26,-13.5 633.26,-13.5"/>
<text text-anchor="start" x="640.26" y="-24.5" font-family="Courier,monospace" font-style="italic" font-size="10.00">p = end_conditional_nested_flow(p)</text>
</g>
<!-- router_conditional_nested_flow_line_26_seq&#45;&gt;end_conditional_nested_flow -->
<g id="edge16" class="edge">
<title>router_conditional_nested_flow_line_26_seq&#45;&gt;end_conditional_nested_flow</title>
<path fill="none" stroke="black" d="M742.26,-89.95C742.26,-81.02 742.26,-71.9 742.26,-63.48"/>
<polygon fill="black" stroke="black" points="745.76,-63.26 742.26,-53.26 738.76,-63.26 745.76,-63.26"/>
</g>
<!-- handler_finalize -->
<g id="node18" class="node">
<title>handler_finalize</title>
<path fill="lightblue" stroke="black" d="M820.76,-283C820.76,-283 663.76,-283 663.76,-283 657.76,-283 651.76,-277 651.76,-271 651.76,-271 651.76,-242 651.76,-242 651.76,-236 657.76,-230 663.76,-230 663.76,-230 820.76,-230 820.76,-230 826.76,-230 832.76,-236 832.76,-242 832.76,-242 832.76,-271 832.76,-271 832.76,-277 826.76,-283 820.76,-283"/>
<polygon fill="white" stroke="transparent" points="666.26,-243.5 666.26,-268.5 819.26,-268.5 819.26,-243.5 666.26,-243.5"/>
<polygon fill="none" stroke="black" points="666.26,-243.5 666.26,-268.5 819.26,-268.5 819.26,-243.5 666.26,-243.5"/>
<text text-anchor="start" x="673.26" y="-254.5" font-family="Courier,monospace" font-style="italic" font-size="10.00">p = handler_finalize(p)</text>
</g>
<!-- router_conditional_nested_flow_line_24_seq&#45;&gt;handler_finalize -->
<g id="edge15" class="edge">
<title>router_conditional_nested_flow_line_24_seq&#45;&gt;handler_finalize</title>
<path fill="none" stroke="black" d="M742.26,-319.72C742.26,-311.04 742.26,-301.86 742.26,-293.29"/>
<polygon fill="black" stroke="black" points="745.76,-293.22 742.26,-283.22 738.76,-293.22 745.76,-293.22"/>
</g>
<!-- router_conditional_nested_flow_line_6_if -->
<g id="node12" class="node">
<title>router_conditional_nested_flow_line_6_if</title>
<path fill="wheat" stroke="black" d="M992.76,-1514C992.76,-1514 691.76,-1514 691.76,-1514 685.76,-1514 679.76,-1508 679.76,-1502 679.76,-1502 679.76,-1390 679.76,-1390 679.76,-1384 685.76,-1378 691.76,-1378 691.76,-1378 992.76,-1378 992.76,-1378 998.76,-1378 1004.76,-1384 1004.76,-1390 1004.76,-1390 1004.76,-1502 1004.76,-1502 1004.76,-1508 998.76,-1514 992.76,-1514"/>
<polygon fill="white" stroke="transparent" points="694.26,-1475 694.26,-1500 991.26,-1500 991.26,-1475 694.26,-1475"/>
<polygon fill="none" stroke="black" points="694.26,-1475 694.26,-1500 991.26,-1500 991.26,-1475 694.26,-1475"/>
<text text-anchor="start" x="701.26" y="-1486" font-family="Courier,monospace" font-style="italic" font-size="10.00">p = router_conditional_nested_flow_line_6_if(p)</text>
<polygon fill="white" stroke="transparent" points="694.26,-1450 694.26,-1475 991.26,-1475 991.26,-1450 694.26,-1450"/>
<polygon fill="none" stroke="black" points="694.26,-1450 694.26,-1475 991.26,-1475 991.26,-1450 694.26,-1450"/>
<text text-anchor="start" x="701.26" y="-1460" font-family="Courier,monospace" font-size="10.00">p[&#39;x&#39;] = 1</text>
<polygon fill="lightyellow" stroke="transparent" points="694.26,-1425 694.26,-1450 991.26,-1450 991.26,-1425 694.26,-1425"/>
<polygon fill="none" stroke="black" points="694.26,-1425 694.26,-1450 991.26,-1450 991.26,-1425 694.26,-1425"/>
<text text-anchor="start" x="793.76" y="-1436" font-family="Courier,monospace" font-weight="bold" font-size="10.00">if</text>
<text text-anchor="start" x="806.76" y="-1436" font-family="Courier,monospace" font-size="10.00"> p[&#39;a&#39;] == &#39;A&#39;</text>
<polygon fill="none" stroke="black" points="694.26,-1392 694.26,-1425 991.26,-1425 991.26,-1392 694.26,-1392"/>
<polygon fill="#698b69" stroke="transparent" points="701.26,-1399 701.26,-1418 840.26,-1418 840.26,-1399 701.26,-1399"/>
<text text-anchor="start" x="758.26" y="-1407" font-family="Courier,monospace" font-weight="bold" font-size="10.00" fill="white">TRUE</text>
<polygon fill="#8b3a3a" stroke="transparent" points="840.26,-1399 840.26,-1418 984.26,-1418 984.26,-1399 840.26,-1399"/>
<text text-anchor="start" x="896.76" y="-1407" font-family="Courier,monospace" font-weight="bold" font-size="10.00" fill="white">FALSE</text>
</g>
<!-- router_conditional_nested_flow_line_6_if&#45;&gt;router_conditional_nested_flow_line_7_seq -->
<g id="edge18" class="edge">
<title>router_conditional_nested_flow_line_6_if&#45;&gt;router_conditional_nested_flow_line_7_seq</title>
<path fill="none" stroke="#698b69" d="M799.43,-1377.89C791.18,-1364.96 782.71,-1351.69 774.99,-1339.59"/>
<polygon fill="#698b69" stroke="#698b69" points="777.84,-1337.55 769.51,-1331.01 771.94,-1341.32 777.84,-1337.55"/>
<text text-anchor="middle" x="791.76" y="-1352" font-family="Courier,monospace" font-size="10.00">T</text>
</g>
<!-- router_conditional_nested_flow_line_6_if&#45;&gt;router_conditional_nested_flow_line_24_seq -->
<g id="edge17" class="edge">
<title>router_conditional_nested_flow_line_6_if&#45;&gt;router_conditional_nested_flow_line_24_seq</title>
<path fill="none" stroke="#8b3a3a" d="M907.5,-1377.83C925.04,-1353.14 939.26,-1323.68 939.26,-1293 939.26,-1293 939.26,-1293 939.26,-473 939.26,-442.27 921,-419.78 895.6,-403.35"/>
<polygon fill="#8b3a3a" stroke="#8b3a3a" points="897.1,-400.17 886.72,-398.01 893.49,-406.17 897.1,-400.17"/>
<text text-anchor="middle" x="942.76" y="-926.5" font-family="Courier,monospace" font-size="10.00">F</text>
</g>
<!-- handler_a&#45;&gt;router_conditional_nested_flow_line_9_if -->
<g id="edge1" class="edge">
<title>handler_a&#45;&gt;router_conditional_nested_flow_line_9_if</title>
<path fill="none" stroke="black" d="M739.72,-1162.82C739.25,-1154.92 738.7,-1145.83 738.15,-1136.53"/>
<polygon fill="black" stroke="black" points="741.63,-1136.15 737.54,-1126.38 734.64,-1136.57 741.63,-1136.15"/>
</g>
<!-- handler_b&#45;&gt;router_conditional_nested_flow_line_15_seq -->
<g id="edge3" class="edge">
<title>handler_b&#45;&gt;router_conditional_nested_flow_line_15_seq</title>
<path fill="none" stroke="black" d="M210.06,-902.3C158.22,-854.48 51.85,-745.95 12.26,-628 1.22,-595.14 -7.88,-578.22 12.26,-550 23,-534.95 36.96,-522.89 52.63,-513.23"/>
<polygon fill="black" stroke="black" points="54.59,-516.14 61.5,-508.1 51.09,-510.07 54.59,-516.14"/>
</g>
<!-- handler_b&#45;&gt;router_conditional_nested_flow_line_12_if -->
<g id="edge2" class="edge">
<title>handler_b&#45;&gt;router_conditional_nested_flow_line_12_if</title>
<path fill="none" stroke="black" d="M265.51,-902.28C277.65,-890.4 292.75,-875.62 308.07,-860.61"/>
<polygon fill="black" stroke="black" points="310.9,-862.74 315.59,-853.24 306,-857.74 310.9,-862.74"/>
</g>
<!-- handler_c&#45;&gt;router_conditional_nested_flow_line_24_seq -->
<g id="edge4" class="edge">
<title>handler_c&#45;&gt;router_conditional_nested_flow_line_24_seq</title>
<path fill="none" stroke="black" d="M537.68,-447.46C546.5,-443.21 555.62,-438.92 564.26,-435 588.49,-424 614.81,-412.61 639.58,-402.14"/>
<polygon fill="black" stroke="black" points="641.14,-405.28 649,-398.17 638.42,-398.83 641.14,-405.28"/>
</g>
<!-- handler_d&#45;&gt;router_conditional_nested_flow_line_22_seq -->
<g id="edge5" class="edge">
<title>handler_d&#45;&gt;router_conditional_nested_flow_line_22_seq</title>
<path fill="none" stroke="black" d="M738.78,-645.81C739.41,-614.77 740.49,-561.91 741.28,-523.2"/>
<polygon fill="black" stroke="black" points="744.77,-523.25 741.48,-513.18 737.78,-523.11 744.77,-523.25"/>
</g>
<!-- handler_finalize&#45;&gt;router_conditional_nested_flow_line_26_seq -->
<g id="edge6" class="edge">
<title>handler_finalize&#45;&gt;router_conditional_nested_flow_line_26_seq</title>
<path fill="none" stroke="black" d="M742.26,-229.86C742.26,-221.92 742.26,-212.81 742.26,-203.54"/>
<polygon fill="black" stroke="black" points="745.76,-203.45 742.26,-193.46 738.76,-203.46 745.76,-203.45"/>
</g>
<!-- handler_validate_input&#45;&gt;router_conditional_nested_flow_line_6_if -->
<g id="edge7" class="edge">
<title>handler_validate_input&#45;&gt;router_conditional_nested_flow_line_6_if</title>
<path fill="none" stroke="black" d="M842.26,-1550.91C842.26,-1542.98 842.26,-1533.79 842.26,-1524.23"/>
<polygon fill="black" stroke="black" points="845.76,-1524.16 842.26,-1514.16 838.76,-1524.16 845.76,-1524.16"/>
</g>
</g>
</svg>
