<?xml version="1.0" encoding="UTF-8" standalone="no"?>
<!DOCTYPE svg PUBLIC "-//W3C//DTD SVG 1.1//EN"
 "http://www.w3.org/Graphics/SVG/1.1/DTD/svg11.dtd">
<!-- Generated by graphviz version 2.43.0 (0)
 -->
<!-- Title: flow Pages: 1 -->
<svg width="653pt" height="697pt"
 viewBox="0.00 0.00 652.57 697.00" xmlns="http://www.w3.org/2000/svg" xmlns:xlink="http://www.w3.org/1999/xlink">
<g id="graph0" class="graph" transform="scale(1 1) rotate(0) translate(4 693)">
<title>flow</title>
<polygon fill="white" stroke="transparent" points="-4,4 -4,-693 648.57,-693 648.57,4 -4,4"/>
<!-- start_if_inside_while_flow -->
<g id="node1" class="node">
<title>start_if_inside_while_flow</title>
<path fill="lightgreen" stroke="black" d="M330,-689C330,-689 113,-689 113,-689 107,-689 101,-683 101,-677 101,-677 101,-648 101,-648 101,-642 107,-636 113,-636 113,-636 330,-636 330,-636 336,-636 342,-642 342,-648 342,-648 342,-677 342,-677 342,-683 336,-689 330,-689"/>
<polygon fill="white" stroke="transparent" points="115.5,-649.5 115.5,-674.5 328.5,-674.5 328.5,-649.5 115.5,-649.5"/>
<polygon fill="none" stroke="black" points="115.5,-649.5 115.5,-674.5 328.5,-674.5 328.5,-649.5 115.5,-649.5"/>
<text text-anchor="start" x="122.5" y="-660.5" font-family="Courier,monospace" font-style="italic" font-size="10.00">p = start_if_inside_while_flow(p)</text>
</g>
<!-- handler_init -->
<g id="node8" class="node">
<title>handler_init</title>
<path fill="lightblue" stroke="black" d="M288,-599C288,-599 155,-599 155,-599 149,-599 143,-593 143,-587 143,-587 143,-558 143,-558 143,-552 149,-546 155,-546 155,-546 288,-546 288,-546 294,-546 300,-552 300,-558 300,-558 300,-587 300,-587 300,-593 294,-599 288,-599"/>
<polygon fill="white" stroke="transparent" points="157.5,-559.5 157.5,-584.5 286.5,-584.5 286.5,-559.5 157.5,-559.5"/>
<polygon fill="none" stroke="black" points="157.5,-559.5 157.5,-584.5 286.5,-584.5 286.5,-559.5 157.5,-559.5"/>
<text text-anchor="start" x="164.5" y="-570.5" font-family="Courier,monospace" font-style="italic" font-size="10.00">p = handler_init(p)</text>
</g>
<!-- start_if_inside_while_flow&#45;&gt;handler_init -->
<g id="edge10" class="edge">
<title>start_if_inside_while_flow&#45;&gt;handler_init</title>
<path fill="none" stroke="black" d="M221.5,-635.57C221.5,-627.34 221.5,-618.08 221.5,-609.28"/>
<polygon fill="black" stroke="black" points="225,-609.24 221.5,-599.24 218,-609.24 225,-609.24"/>
</g>
<!-- router_if_inside_while_flow_line_13_if -->
<g id="node2" class="node">
<title>router_if_inside_while_flow_line_13_if</title>
<path fill="wheat" stroke="black" d="M366,-236C366,-236 77,-236 77,-236 71,-236 65,-230 65,-224 65,-224 65,-112 65,-112 65,-106 71,-100 77,-100 77,-100 366,-100 366,-100 372,-100 378,-106 378,-112 378,-112 378,-224 378,-224 378,-230 372,-236 366,-236"/>
<polygon fill="white" stroke="transparent" points="79.5,-197 79.5,-222 364.5,-222 364.5,-197 79.5,-197"/>
<polygon fill="none" stroke="black" points="79.5,-197 79.5,-222 364.5,-222 364.5,-197 79.5,-197"/>
<text text-anchor="start" x="86.5" y="-208" font-family="Courier,monospace" font-style="italic" font-size="10.00">p = router_if_inside_while_flow_line_13_if(p)</text>
<polygon fill="white" stroke="transparent" points="79.5,-172 79.5,-197 364.5,-197 364.5,-172 79.5,-172"/>
<polygon fill="none" stroke="black" points="79.5,-172 79.5,-197 364.5,-197 364.5,-172 79.5,-172"/>
<text text-anchor="start" x="86.5" y="-182" font-family="Courier,monospace" font-size="10.00">p[&#39;i&#39;] += 1</text>
<polygon fill="lightyellow" stroke="transparent" points="79.5,-147 79.5,-172 364.5,-172 364.5,-147 79.5,-147"/>
<polygon fill="none" stroke="black" points="79.5,-147 79.5,-172 364.5,-172 364.5,-147 79.5,-147"/>
<text text-anchor="start" x="167" y="-158" font-family="Courier,monospace" font-weight="bold" font-size="10.00">if</text>
<text text-anchor="start" x="180" y="-158" font-family="Courier,monospace" font-size="10.00"> p[&#39;i&#39;] % 2 == 0</text>
<polygon fill="none" stroke="black" points="79.5,-114 79.5,-147 364.5,-147 364.5,-114 79.5,-114"/>
<polygon fill="#698b69" stroke="transparent" points="86.5,-121 86.5,-140 219.5,-140 219.5,-121 86.5,-121"/>
<text text-anchor="start" x="140.5" y="-129" font-family="Courier,monospace" font-weight="bold" font-size="10.00" fill="white">TRUE</text>
<polygon fill="#8b3a3a" stroke="transparent" points="219.5,-121 219.5,-140 357.5,-140 357.5,-121 219.5,-121"/>
<text text-anchor="start" x="273" y="-129" font-family="Courier,monospace" font-weight="bold" font-size="10.00" fill="white">FALSE</text>
</g>
<!-- handler_even -->
<g id="node6" class="node">
<title>handler_even</title>
<path fill="lightblue" stroke="black" d="M145,-53C145,-53 12,-53 12,-53 6,-53 0,-47 0,-41 0,-41 0,-12 0,-12 0,-6 6,0 12,0 12,0 145,0 145,0 151,0 157,-6 157,-12 157,-12 157,-41 157,-41 157,-47 151,-53 145,-53"/>
<polygon fill="white" stroke="transparent" points="14.5,-13.5 14.5,-38.5 143.5,-38.5 143.5,-13.5 14.5,-13.5"/>
<polygon fill="none" stroke="black" points="14.5,-13.5 14.5,-38.5 143.5,-38.5 143.5,-13.5 14.5,-13.5"/>
<text text-anchor="start" x="21.5" y="-24.5" font-family="Courier,monospace" font-style="italic" font-size="10.00">p = handler_even(p)</text>
</g>
<!-- router_if_inside_while_flow_line_13_if&#45;&gt;handler_even -->
<g id="edge8" class="edge">
<title>router_if_inside_while_flow_line_13_if&#45;&gt;handler_even</title>
<path fill="none" stroke="#698b69" d="M152.51,-99.7C138.44,-85.97 124.23,-72.11 112.08,-60.26"/>
<polygon fill="#698b69" stroke="#698b69" points="114.4,-57.63 104.8,-53.15 109.51,-62.64 114.4,-57.63"/>
<text text-anchor="middle" x="137" y="-74" font-family="Courier,monospace" font-size="10.00">T</text>
</g>
<!-- handler_odd -->
<g id="node9" class="node">
<title>handler_odd</title>
<path fill="lightblue" stroke="black" d="M314,-53C314,-53 187,-53 187,-53 181,-53 175,-47 175,-41 175,-41 175,-12 175,-12 175,-6 181,0 187,0 187,0 314,0 314,0 320,0 326,-6 326,-12 326,-12 326,-41 326,-41 326,-47 320,-53 314,-53"/>
<polygon fill="white" stroke="transparent" points="189.5,-13.5 189.5,-38.5 312.5,-38.5 312.5,-13.5 189.5,-13.5"/>
<polygon fill="none" stroke="black" points="189.5,-13.5 189.5,-38.5 312.5,-38.5 312.5,-13.5 189.5,-13.5"/>
<text text-anchor="start" x="196.5" y="-24.5" font-family="Courier,monospace" font-style="italic" font-size="10.00">p = handler_odd(p)</text>
</g>
<!-- router_if_inside_while_flow_line_13_if&#45;&gt;handler_odd -->
<g id="edge9" class="edge">
<title>router_if_inside_while_flow_line_13_if&#45;&gt;handler_odd</title>
<path fill="none" stroke="#8b3a3a" d="M235.49,-99.7C238.13,-87.01 240.79,-74.2 243.13,-62.97"/>
<polygon fill="#8b3a3a" stroke="#8b3a3a" points="246.56,-63.66 245.17,-53.15 239.7,-62.23 246.56,-63.66"/>
<text text-anchor="middle" x="245" y="-74" font-family="Courier,monospace" font-size="10.00">F</text>
</g>
<!-- router_if_inside_while_flow_line_11_while_0 -->
<g id="node3" class="node">
<title>router_if_inside_while_flow_line_11_while_0</title>
<path fill="wheat" stroke="black" d="M381,-394C381,-394 62,-394 62,-394 56,-394 50,-388 50,-382 50,-382 50,-295 50,-295 50,-289 56,-283 62,-283 62,-283 381,-283 381,-283 387,-283 393,-289 393,-295 393,-295 393,-382 393,-382 393,-388 387,-394 381,-394"/>
<polygon fill="white" stroke="transparent" points="64.5,-354.5 64.5,-379.5 379.5,-379.5 379.5,-354.5 64.5,-354.5"/>
<polygon fill="none" stroke="black" points="64.5,-354.5 64.5,-379.5 379.5,-379.5 379.5,-354.5 64.5,-354.5"/>
<text text-anchor="start" x="71.5" y="-365.5" font-family="Courier,monospace" font-style="italic" font-size="10.00">p = router_if_inside_while_flow_line_11_while_0(p)</text>
<polygon fill="lightyellow" stroke="transparent" points="64.5,-329.5 64.5,-354.5 379.5,-354.5 379.5,-329.5 64.5,-329.5"/>
<polygon fill="none" stroke="black" points="64.5,-329.5 64.5,-354.5 379.5,-354.5 379.5,-329.5 64.5,-329.5"/>
<text text-anchor="start" x="128" y="-340.5" font-family="Courier,monospace" font-weight="bold" font-size="10.00">if</text>
<text text-anchor="start" x="141" y="-340.5" font-family="Courier,monospace" font-size="10.00"> p[&#39;i&#39;] &lt; p[&#39;max_iterations&#39;]</text>
<polygon fill="none" stroke="black" points="64.5,-296.5 64.5,-329.5 379.5,-329.5 379.5,-296.5 64.5,-296.5"/>
<polygon fill="#698b69" stroke="transparent" points="71.5,-303.5 71.5,-322.5 219.5,-322.5 219.5,-303.5 71.5,-303.5"/>
<text text-anchor="start" x="133" y="-311.5" font-family="Courier,monospace" font-weight="bold" font-size="10.00" fill="white">TRUE</text>
<polygon fill="#8b3a3a" stroke="transparent" points="219.5,-303.5 219.5,-322.5 372.5,-322.5 372.5,-303.5 219.5,-303.5"/>
<text text-anchor="start" x="280.5" y="-311.5" font-family="Courier,monospace" font-weight="bold" font-size="10.00" fill="white">FALSE</text>
</g>
<!-- router_if_inside_while_flow_line_11_while_0&#45;&gt;router_if_inside_while_flow_line_13_if -->
<g id="edge7" class="edge">
<title>router_if_inside_while_flow_line_11_while_0&#45;&gt;router_if_inside_while_flow_line_13_if</title>
<path fill="none" stroke="#698b69" d="M221.5,-282.79C221.5,-271.16 221.5,-258.66 221.5,-246.36"/>
<polygon fill="#698b69" stroke="#698b69" points="225,-246.1 221.5,-236.1 218,-246.1 225,-246.1"/>
<text text-anchor="middle" x="225" y="-257" font-family="Courier,monospace" font-size="10.00">T</text>
</g>
<!-- handler_finalize -->
<g id="node7" class="node">
<title>handler_finalize</title>
<path fill="lightblue" stroke="black" d="M565,-194.5C565,-194.5 408,-194.5 408,-194.5 402,-194.5 396,-188.5 396,-182.5 396,-182.5 396,-153.5 396,-153.5 396,-147.5 402,-141.5 408,-141.5 408,-141.5 565,-141.5 565,-141.5 571,-141.5 577,-147.5 577,-153.5 577,-153.5 577,-182.5 577,-182.5 577,-188.5 571,-194.5 565,-194.5"/>
<polygon fill="white" stroke="transparent" points="410.5,-155 410.5,-180 563.5,-180 563.5,-155 410.5,-155"/>
<polygon fill="none" stroke="black" points="410.5,-155 410.5,-180 563.5,-180 563.5,-155 410.5,-155"/>
<text text-anchor="start" x="417.5" y="-166" font-family="Courier,monospace" font-style="italic" font-size="10.00">p = handler_finalize(p)</text>
</g>
<!-- router_if_inside_while_flow_line_11_while_0&#45;&gt;handler_finalize -->
<g id="edge6" class="edge">
<title>router_if_inside_while_flow_line_11_while_0&#45;&gt;handler_finalize</title>
<path fill="none" stroke="#8b3a3a" d="M311.81,-282.82C336.18,-267.83 362.45,-251.45 386.5,-236 404.17,-224.65 423.37,-211.89 440.19,-200.57"/>
<polygon fill="#8b3a3a" stroke="#8b3a3a" points="442.41,-203.3 448.74,-194.8 438.49,-197.49 442.41,-203.3"/>
<text text-anchor="middle" x="359" y="-257" font-family="Courier,monospace" font-size="10.00">F</text>
</g>
<!-- router_if_inside_while_flow_line_10_seq -->
<g id="node4" class="node">
<title>router_if_inside_while_flow_line_10_seq</title>
<path fill="wheat" stroke="black" d="M369,-509C369,-509 74,-509 74,-509 68,-509 62,-503 62,-497 62,-497 62,-443 62,-443 62,-437 68,-431 74,-431 74,-431 369,-431 369,-431 375,-431 381,-437 381,-443 381,-443 381,-497 381,-497 381,-503 375,-509 369,-509"/>
<polygon fill="white" stroke="transparent" points="76.5,-470 76.5,-495 367.5,-495 367.5,-470 76.5,-470"/>
<polygon fill="none" stroke="black" points="76.5,-470 76.5,-495 367.5,-495 367.5,-470 76.5,-470"/>
<text text-anchor="start" x="83.5" y="-481" font-family="Courier,monospace" font-style="italic" font-size="10.00">p = router_if_inside_while_flow_line_10_seq(p)</text>
<polygon fill="white" stroke="transparent" points="76.5,-445 76.5,-470 367.5,-470 367.5,-445 76.5,-445"/>
<polygon fill="none" stroke="black" points="76.5,-445 76.5,-470 367.5,-470 367.5,-445 76.5,-445"/>
<text text-anchor="start" x="83.5" y="-455" font-family="Courier,monospace" font-size="10.00">p[&#39;i&#39;] = 0</text>
</g>
<!-- router_if_inside_while_flow_line_10_seq&#45;&gt;router_if_inside_while_flow_line_11_while_0 -->
<g id="edge5" class="edge">
<title>router_if_inside_while_flow_line_10_seq&#45;&gt;router_if_inside_while_flow_line_11_while_0</title>
<path fill="none" stroke="black" d="M221.5,-430.85C221.5,-422.5 221.5,-413.44 221.5,-404.37"/>
<polygon fill="black" stroke="black" points="225,-404.17 221.5,-394.17 218,-404.17 225,-404.17"/>
</g>
<!-- end_if_inside_while_flow -->
<g id="node5" class="node">
<title>end_if_inside_while_flow</title>
<path fill="lightgreen" stroke="black" d="M589,-53C589,-53 384,-53 384,-53 378,-53 372,-47 372,-41 372,-41 372,-12 372,-12 372,-6 378,0 384,0 384,0 589,0 589,0 595,0 601,-6 601,-12 601,-12 601,-41 601,-41 601,-47 595,-53 589,-53"/>
<polygon fill="white" stroke="transparent" points="386.5,-13.5 386.5,-38.5 587.5,-38.5 587.5,-13.5 386.5,-13.5"/>
<polygon fill="none" stroke="black" points="386.5,-13.5 386.5,-38.5 587.5,-38.5 587.5,-13.5 386.5,-13.5"/>
<text text-anchor="start" x="393.5" y="-24.5" font-family="Courier,monospace" font-style="italic" font-size="10.00">p = end_if_inside_while_flow(p)</text>
</g>
<!-- handler_even&#45;&gt;router_if_inside_while_flow_line_11_while_0 -->
<g id="edge1" class="edge">
<title>handler_even&#45;&gt;router_if_inside_while_flow_line_11_while_0</title>
<path fill="none" stroke="black" d="M157.07,-51.19C159.91,-51.84 162.72,-52.44 165.5,-53 257.79,-71.53 523.74,-29.84 586.5,-100 626.8,-145.05 623.07,-187.87 586.5,-236 562.89,-267.07 482.73,-291.15 403.53,-308.04"/>
<polygon fill="black" stroke="black" points="402.44,-304.69 393.37,-310.17 403.88,-311.54 402.44,-304.69"/>
</g>
<!-- handler_finalize&#45;&gt;end_if_inside_while_flow -->
<g id="edge2" class="edge">
<title>handler_finalize&#45;&gt;end_if_inside_while_flow</title>
<path fill="none" stroke="black" d="M486.5,-141.41C486.5,-119.62 486.5,-88.07 486.5,-63.69"/>
<polygon fill="black" stroke="black" points="490,-63.4 486.5,-53.4 483,-63.4 490,-63.4"/>
</g>
<!-- handler_init&#45;&gt;router_if_inside_while_flow_line_10_seq -->
<g id="edge3" class="edge">
<title>handler_init&#45;&gt;router_if_inside_while_flow_line_10_seq</title>
<path fill="none" stroke="black" d="M221.5,-545.88C221.5,-537.77 221.5,-528.52 221.5,-519.35"/>
<polygon fill="black" stroke="black" points="225,-519.1 221.5,-509.1 218,-519.1 225,-519.1"/>
</g>
<!-- handler_odd&#45;&gt;router_if_inside_while_flow_line_11_while_0 -->
<g id="edge4" class="edge">
<title>handler_odd&#45;&gt;router_if_inside_while_flow_line_11_while_0</title>
<path fill="none" stroke="black" d="M326.14,-46.21C338.24,-48.78 350.68,-51.16 362.5,-53 455.06,-67.43 483.56,-41.61 572.5,-71 595.81,-78.7 607.54,-78.57 619.5,-100 648.95,-152.78 656.28,-188.04 619.5,-236 592.08,-271.76 494.71,-296.95 403.16,-313.29"/>
<polygon fill="black" stroke="black" points="402.42,-309.87 393.17,-315.04 403.63,-316.76 402.42,-309.87"/>
</g>
</g>
</svg>
