<?xml version="1.0" encoding="UTF-8" standalone="no"?>
<!DOCTYPE svg PUBLIC "-//W3C//DTD SVG 1.1//EN"
 "http://www.w3.org/Graphics/SVG/1.1/DTD/svg11.dtd">
<!-- Generated by graphviz version 2.43.0 (0)
 -->
<!-- Title: flow Pages: 1 -->
<svg width="816pt" height="1653pt"
 viewBox="0.00 0.00 816.00 1653.00" xmlns="http://www.w3.org/2000/svg" xmlns:xlink="http://www.w3.org/1999/xlink">
<g id="graph0" class="graph" transform="scale(1 1) rotate(0) translate(4 1649)">
<title>flow</title>
<polygon fill="white" stroke="transparent" points="-4,4 -4,-1649 812,-1649 812,4 -4,4"/>
<!-- start_complex_flow -->
<g id="node1" class="node">
<title>start_complex_flow</title>
<path fill="lightgreen" stroke="black" d="M640,-1645C640,-1645 471,-1645 471,-1645 465,-1645 459,-1639 459,-1633 459,-1633 459,-1604 459,-1604 459,-1598 465,-1592 471,-1592 471,-1592 640,-1592 640,-1592 646,-1592 652,-1598 652,-1604 652,-1604 652,-1633 652,-1633 652,-1639 646,-1645 640,-1645"/>
<polygon fill="white" stroke="transparent" points="473.5,-1605.5 473.5,-1630.5 638.5,-1630.5 638.5,-1605.5 473.5,-1605.5"/>
<polygon fill="none" stroke="black" points="473.5,-1605.5 473.5,-1630.5 638.5,-1630.5 638.5,-1605.5 473.5,-1605.5"/>
<text text-anchor="start" x="480.5" y="-1616.5" font-family="Courier,monospace" font-style="italic" font-size="10.00">p = start_complex_flow(p)</text>
</g>
<!-- handler_preprocess -->
<g id="node13" class="node">
<title>handler_preprocess</title>
<path fill="lightblue" stroke="black" d="M640,-1555C640,-1555 471,-1555 471,-1555 465,-1555 459,-1549 459,-1543 459,-1543 459,-1514 459,-1514 459,-1508 465,-1502 471,-1502 471,-1502 640,-1502 640,-1502 646,-1502 652,-1508 652,-1514 652,-1514 652,-1543 652,-1543 652,-1549 646,-1555 640,-1555"/>
<polygon fill="white" stroke="transparent" points="473.5,-1515.5 473.5,-1540.5 638.5,-1540.5 638.5,-1515.5 473.5,-1515.5"/>
<polygon fill="none" stroke="black" points="473.5,-1515.5 473.5,-1540.5 638.5,-1540.5 638.5,-1515.5 473.5,-1515.5"/>
<text text-anchor="start" x="480.5" y="-1526.5" font-family="Courier,monospace" font-style="italic" font-size="10.00">p = handler_preprocess(p)</text>
</g>
<!-- start_complex_flow&#45;&gt;handler_preprocess -->
<g id="edge21" class="edge">
<title>start_complex_flow&#45;&gt;handler_preprocess</title>
<path fill="none" stroke="black" d="M555.5,-1591.57C555.5,-1583.34 555.5,-1574.08 555.5,-1565.28"/>
<polygon fill="black" stroke="black" points="559,-1565.24 555.5,-1555.24 552,-1565.24 559,-1565.24"/>
</g>
<!-- router_complex_flow_line_26_if -->
<g id="node2" class="node">
<title>router_complex_flow_line_26_if</title>
<path fill="wheat" stroke="black" d="M372,-301C372,-301 131,-301 131,-301 125,-301 119,-295 119,-289 119,-289 119,-202 119,-202 119,-196 125,-190 131,-190 131,-190 372,-190 372,-190 378,-190 384,-196 384,-202 384,-202 384,-289 384,-289 384,-295 378,-301 372,-301"/>
<polygon fill="white" stroke="transparent" points="133.5,-261.5 133.5,-286.5 370.5,-286.5 370.5,-261.5 133.5,-261.5"/>
<polygon fill="none" stroke="black" points="133.5,-261.5 133.5,-286.5 370.5,-286.5 370.5,-261.5 133.5,-261.5"/>
<text text-anchor="start" x="140.5" y="-272.5" font-family="Courier,monospace" font-style="italic" font-size="10.00">p = router_complex_flow_line_26_if(p)</text>
<polygon fill="lightyellow" stroke="transparent" points="133.5,-236.5 133.5,-261.5 370.5,-261.5 370.5,-236.5 133.5,-236.5"/>
<polygon fill="none" stroke="black" points="133.5,-236.5 133.5,-261.5 370.5,-261.5 370.5,-236.5 133.5,-236.5"/>
<text text-anchor="start" x="170" y="-247.5" font-family="Courier,monospace" font-weight="bold" font-size="10.00">if</text>
<text text-anchor="start" x="183" y="-247.5" font-family="Courier,monospace" font-size="10.00"> p[&#39;quality_score&#39;] &gt;= 50</text>
<polygon fill="none" stroke="black" points="133.5,-203.5 133.5,-236.5 370.5,-236.5 370.5,-203.5 133.5,-203.5"/>
<polygon fill="#698b69" stroke="transparent" points="140.5,-210.5 140.5,-229.5 252.5,-229.5 252.5,-210.5 140.5,-210.5"/>
<text text-anchor="start" x="184" y="-218.5" font-family="Courier,monospace" font-weight="bold" font-size="10.00" fill="white">TRUE</text>
<polygon fill="#8b3a3a" stroke="transparent" points="252.5,-210.5 252.5,-229.5 363.5,-229.5 363.5,-210.5 252.5,-210.5"/>
<text text-anchor="start" x="295.5" y="-218.5" font-family="Courier,monospace" font-weight="bold" font-size="10.00" fill="white">pass</text>
</g>
<!-- router_complex_flow_line_19_while_0 -->
<g id="node4" class="node">
<title>router_complex_flow_line_19_while_0</title>
<path fill="wheat" stroke="black" d="M417.5,-859C417.5,-859 85.5,-859 85.5,-859 79.5,-859 73.5,-853 73.5,-847 73.5,-847 73.5,-760 73.5,-760 73.5,-754 79.5,-748 85.5,-748 85.5,-748 417.5,-748 417.5,-748 423.5,-748 429.5,-754 429.5,-760 429.5,-760 429.5,-847 429.5,-847 429.5,-853 423.5,-859 417.5,-859"/>
<polygon fill="white" stroke="transparent" points="87.5,-819.5 87.5,-844.5 415.5,-844.5 415.5,-819.5 87.5,-819.5"/>
<polygon fill="none" stroke="black" points="87.5,-819.5 87.5,-844.5 415.5,-844.5 415.5,-819.5 87.5,-819.5"/>
<text text-anchor="start" x="125" y="-830.5" font-family="Courier,monospace" font-style="italic" font-size="10.00">p = router_complex_flow_line_19_while_0(p)</text>
<polygon fill="lightyellow" stroke="transparent" points="87.5,-794.5 87.5,-819.5 415.5,-819.5 415.5,-794.5 87.5,-794.5"/>
<polygon fill="none" stroke="black" points="87.5,-794.5 87.5,-819.5 415.5,-819.5 415.5,-794.5 87.5,-794.5"/>
<text text-anchor="start" x="94.5" y="-805.5" font-family="Courier,monospace" font-weight="bold" font-size="10.00">if</text>
<text text-anchor="start" x="107.5" y="-805.5" font-family="Courier,monospace" font-size="10.00"> p.get(&#39;batch_count&#39;, 0) &lt; p.get(&#39;max_batches&#39;, 3)</text>
<polygon fill="none" stroke="black" points="87.5,-761.5 87.5,-794.5 415.5,-794.5 415.5,-761.5 87.5,-761.5"/>
<polygon fill="#698b69" stroke="transparent" points="94.5,-768.5 94.5,-787.5 248.5,-787.5 248.5,-768.5 94.5,-768.5"/>
<text text-anchor="start" x="159" y="-776.5" font-family="Courier,monospace" font-weight="bold" font-size="10.00" fill="white">TRUE</text>
<polygon fill="#8b3a3a" stroke="transparent" points="248.5,-768.5 248.5,-787.5 408.5,-787.5 408.5,-768.5 248.5,-768.5"/>
<text text-anchor="start" x="313" y="-776.5" font-family="Courier,monospace" font-weight="bold" font-size="10.00" fill="white">FALSE</text>
</g>
<!-- router_complex_flow_line_26_if&#45;&gt;router_complex_flow_line_19_while_0 -->
<g id="edge18" class="edge">
<title>router_complex_flow_line_26_if&#45;&gt;router_complex_flow_line_19_while_0</title>
<path fill="none" stroke="#8b3a3a" d="M353.16,-301.08C369.03,-314.26 383.22,-329.88 392.5,-348 414.99,-391.91 402.05,-410.6 392.5,-459 372.33,-561.23 321.42,-671.32 286.62,-738.57"/>
<polygon fill="#8b3a3a" stroke="#8b3a3a" points="283.35,-737.29 281.83,-747.78 289.55,-740.53 283.35,-737.29"/>
<text text-anchor="middle" x="385" y="-530" font-family="Courier,monospace" font-size="10.00">F</text>
</g>
<!-- handler_finalize -->
<g id="node12" class="node">
<title>handler_finalize</title>
<path fill="lightblue" stroke="black" d="M567,-143C567,-143 410,-143 410,-143 404,-143 398,-137 398,-131 398,-131 398,-102 398,-102 398,-96 404,-90 410,-90 410,-90 567,-90 567,-90 573,-90 579,-96 579,-102 579,-102 579,-131 579,-131 579,-137 573,-143 567,-143"/>
<polygon fill="white" stroke="transparent" points="412.5,-103.5 412.5,-128.5 565.5,-128.5 565.5,-103.5 412.5,-103.5"/>
<polygon fill="none" stroke="black" points="412.5,-103.5 412.5,-128.5 565.5,-128.5 565.5,-103.5 412.5,-103.5"/>
<text text-anchor="start" x="419.5" y="-114.5" font-family="Courier,monospace" font-style="italic" font-size="10.00">p = handler_finalize(p)</text>
</g>
<!-- router_complex_flow_line_26_if&#45;&gt;handler_finalize -->
<g id="edge17" class="edge">
<title>router_complex_flow_line_26_if&#45;&gt;handler_finalize</title>
<path fill="none" stroke="#698b69" d="M339.49,-189.91C356.55,-179.94 374.43,-169.88 391.5,-161 400.34,-156.4 409.77,-151.81 419.14,-147.42"/>
<polygon fill="#698b69" stroke="#698b69" points="420.86,-150.48 428.47,-143.11 417.93,-144.12 420.86,-150.48"/>
<text text-anchor="middle" x="395" y="-164" font-family="Courier,monospace" font-size="10.00">T</text>
</g>
<!-- router_complex_flow_line_23_if -->
<g id="node3" class="node">
<title>router_complex_flow_line_23_if</title>
<path fill="wheat" stroke="black" d="M372,-459C372,-459 131,-459 131,-459 125,-459 119,-453 119,-447 119,-447 119,-360 119,-360 119,-354 125,-348 131,-348 131,-348 372,-348 372,-348 378,-348 384,-354 384,-360 384,-360 384,-447 384,-447 384,-453 378,-459 372,-459"/>
<polygon fill="white" stroke="transparent" points="133.5,-419.5 133.5,-444.5 370.5,-444.5 370.5,-419.5 133.5,-419.5"/>
<polygon fill="none" stroke="black" points="133.5,-419.5 133.5,-444.5 370.5,-444.5 370.5,-419.5 133.5,-419.5"/>
<text text-anchor="start" x="140.5" y="-430.5" font-family="Courier,monospace" font-style="italic" font-size="10.00">p = router_complex_flow_line_23_if(p)</text>
<polygon fill="lightyellow" stroke="transparent" points="133.5,-394.5 133.5,-419.5 370.5,-419.5 370.5,-394.5 133.5,-394.5"/>
<polygon fill="none" stroke="black" points="133.5,-394.5 133.5,-419.5 370.5,-419.5 370.5,-394.5 133.5,-394.5"/>
<text text-anchor="start" x="173" y="-405.5" font-family="Courier,monospace" font-weight="bold" font-size="10.00">if</text>
<text text-anchor="start" x="186" y="-405.5" font-family="Courier,monospace" font-size="10.00"> p[&#39;quality_score&#39;] &lt; 20</text>
<polygon fill="none" stroke="black" points="133.5,-361.5 133.5,-394.5 370.5,-394.5 370.5,-361.5 133.5,-361.5"/>
<polygon fill="#698b69" stroke="transparent" points="140.5,-368.5 140.5,-387.5 249.5,-387.5 249.5,-368.5 140.5,-368.5"/>
<text text-anchor="start" x="182.5" y="-376.5" font-family="Courier,monospace" font-weight="bold" font-size="10.00" fill="white">TRUE</text>
<polygon fill="#8b3a3a" stroke="transparent" points="249.5,-368.5 249.5,-387.5 363.5,-387.5 363.5,-368.5 249.5,-368.5"/>
<text text-anchor="start" x="291" y="-376.5" font-family="Courier,monospace" font-weight="bold" font-size="10.00" fill="white">FALSE</text>
</g>
<!-- router_complex_flow_line_23_if&#45;&gt;router_complex_flow_line_26_if -->
<g id="edge16" class="edge">
<title>router_complex_flow_line_23_if&#45;&gt;router_complex_flow_line_26_if</title>
<path fill="none" stroke="#8b3a3a" d="M251.5,-347.94C251.5,-336.06 251.5,-323.39 251.5,-311.17"/>
<polygon fill="#8b3a3a" stroke="#8b3a3a" points="255,-311.03 251.5,-301.03 248,-311.03 255,-311.03"/>
<text text-anchor="middle" x="255" y="-322" font-family="Courier,monospace" font-size="10.00">F</text>
</g>
<!-- router_complex_flow_line_23_if&#45;&gt;router_complex_flow_line_19_while_0 -->
<g id="edge15" class="edge">
<title>router_complex_flow_line_23_if&#45;&gt;router_complex_flow_line_19_while_0</title>
<path fill="none" stroke="#698b69" d="M251.5,-459.3C251.5,-532.09 251.5,-660.46 251.5,-737.88"/>
<polygon fill="#698b69" stroke="#698b69" points="248,-737.99 251.5,-747.99 255,-737.99 248,-737.99"/>
<text text-anchor="middle" x="255" y="-580" font-family="Courier,monospace" font-size="10.00">T</text>
</g>
<!-- router_complex_flow_line_19_while_0&#45;&gt;handler_finalize -->
<g id="edge13" class="edge">
<title>router_complex_flow_line_19_while_0&#45;&gt;handler_finalize</title>
<path fill="none" stroke="#8b3a3a" d="M343.75,-747.96C379.73,-719.28 412.5,-680.3 412.5,-633.5 412.5,-633.5 412.5,-633.5 412.5,-244.5 412.5,-208.95 434.7,-174.73 455.1,-150.79"/>
<polygon fill="#8b3a3a" stroke="#8b3a3a" points="457.92,-152.88 461.92,-143.07 452.67,-148.25 457.92,-152.88"/>
<text text-anchor="middle" x="416" y="-480" font-family="Courier,monospace" font-size="10.00">F</text>
</g>
<!-- handler_transform_batch -->
<g id="node15" class="node">
<title>handler_transform_batch</title>
<path fill="lightblue" stroke="black" d="M211,-659C211,-659 12,-659 12,-659 6,-659 0,-653 0,-647 0,-647 0,-618 0,-618 0,-612 6,-606 12,-606 12,-606 211,-606 211,-606 217,-606 223,-612 223,-618 223,-618 223,-647 223,-647 223,-653 217,-659 211,-659"/>
<polygon fill="white" stroke="transparent" points="14.5,-619.5 14.5,-644.5 209.5,-644.5 209.5,-619.5 14.5,-619.5"/>
<polygon fill="none" stroke="black" points="14.5,-619.5 14.5,-644.5 209.5,-644.5 209.5,-619.5 14.5,-619.5"/>
<text text-anchor="start" x="21.5" y="-630.5" font-family="Courier,monospace" font-style="italic" font-size="10.00">p = handler_transform_batch(p)</text>
</g>
<!-- router_complex_flow_line_19_while_0&#45;&gt;handler_transform_batch -->
<g id="edge14" class="edge">
<title>router_complex_flow_line_19_while_0&#45;&gt;handler_transform_batch</title>
<path fill="none" stroke="#698b69" d="M206.05,-747.63C184.05,-721.08 158.35,-690.05 139.3,-667.06"/>
<polygon fill="#698b69" stroke="#698b69" points="141.93,-664.75 132.86,-659.28 136.54,-669.21 141.93,-664.75"/>
<text text-anchor="middle" x="194" y="-701" font-family="Courier,monospace" font-size="10.00">T</text>
</g>
<!-- router_complex_flow_line_29_if -->
<g id="node5" class="node">
<title>router_complex_flow_line_29_if</title>
<path fill="wheat" stroke="black" d="M676,-1017C676,-1017 435,-1017 435,-1017 429,-1017 423,-1011 423,-1005 423,-1005 423,-918 423,-918 423,-912 429,-906 435,-906 435,-906 676,-906 676,-906 682,-906 688,-912 688,-918 688,-918 688,-1005 688,-1005 688,-1011 682,-1017 676,-1017"/>
<polygon fill="white" stroke="transparent" points="437.5,-977.5 437.5,-1002.5 674.5,-1002.5 674.5,-977.5 437.5,-977.5"/>
<polygon fill="none" stroke="black" points="437.5,-977.5 437.5,-1002.5 674.5,-1002.5 674.5,-977.5 437.5,-977.5"/>
<text text-anchor="start" x="444.5" y="-988.5" font-family="Courier,monospace" font-style="italic" font-size="10.00">p = router_complex_flow_line_29_if(p)</text>
<polygon fill="lightyellow" stroke="transparent" points="437.5,-952.5 437.5,-977.5 674.5,-977.5 674.5,-952.5 437.5,-952.5"/>
<polygon fill="none" stroke="black" points="437.5,-952.5 437.5,-977.5 674.5,-977.5 674.5,-952.5 437.5,-952.5"/>
<text text-anchor="start" x="477" y="-963.5" font-family="Courier,monospace" font-weight="bold" font-size="10.00">if</text>
<text text-anchor="start" x="490" y="-963.5" font-family="Courier,monospace" font-size="10.00"> p.get(&#39;requires_retry&#39;)</text>
<polygon fill="none" stroke="black" points="437.5,-919.5 437.5,-952.5 674.5,-952.5 674.5,-919.5 437.5,-919.5"/>
<polygon fill="#698b69" stroke="transparent" points="444.5,-926.5 444.5,-945.5 553.5,-945.5 553.5,-926.5 444.5,-926.5"/>
<text text-anchor="start" x="486.5" y="-934.5" font-family="Courier,monospace" font-weight="bold" font-size="10.00" fill="white">TRUE</text>
<polygon fill="#8b3a3a" stroke="transparent" points="553.5,-926.5 553.5,-945.5 667.5,-945.5 667.5,-926.5 553.5,-926.5"/>
<text text-anchor="start" x="595" y="-934.5" font-family="Courier,monospace" font-weight="bold" font-size="10.00" fill="white">FALSE</text>
</g>
<!-- router_complex_flow_line_29_if&#45;&gt;handler_finalize -->
<g id="edge19" class="edge">
<title>router_complex_flow_line_29_if&#45;&gt;handler_finalize</title>
<path fill="none" stroke="#8b3a3a" d="M519.25,-905.86C503.47,-876.97 488.5,-840.17 488.5,-804.5 488.5,-804.5 488.5,-804.5 488.5,-244.5 488.5,-213.82 488.5,-178.98 488.5,-153.56"/>
<polygon fill="#8b3a3a" stroke="#8b3a3a" points="492,-153.28 488.5,-143.28 485,-153.28 492,-153.28"/>
<text text-anchor="middle" x="492" y="-530" font-family="Courier,monospace" font-size="10.00">F</text>
</g>
<!-- handler_retry_handler -->
<g id="node14" class="node">
<title>handler_retry_handler</title>
<path fill="lightblue" stroke="black" d="M703,-730C703,-730 516,-730 516,-730 510,-730 504,-724 504,-718 504,-718 504,-689 504,-689 504,-683 510,-677 516,-677 516,-677 703,-677 703,-677 709,-677 715,-683 715,-689 715,-689 715,-718 715,-718 715,-724 709,-730 703,-730"/>
<polygon fill="white" stroke="transparent" points="518.5,-690.5 518.5,-715.5 701.5,-715.5 701.5,-690.5 518.5,-690.5"/>
<polygon fill="none" stroke="black" points="518.5,-690.5 518.5,-715.5 701.5,-715.5 701.5,-690.5 518.5,-690.5"/>
<text text-anchor="start" x="525.5" y="-701.5" font-family="Courier,monospace" font-style="italic" font-size="10.00">p = handler_retry_handler(p)</text>
</g>
<!-- router_complex_flow_line_29_if&#45;&gt;handler_retry_handler -->
<g id="edge20" class="edge">
<title>router_complex_flow_line_29_if&#45;&gt;handler_retry_handler</title>
<path fill="none" stroke="#698b69" d="M567.02,-905.9C577.58,-855.84 592.91,-783.16 601.98,-740.17"/>
<polygon fill="#698b69" stroke="#698b69" points="605.44,-740.68 604.08,-730.17 598.6,-739.24 605.44,-740.68"/>
<text text-anchor="middle" x="576" y="-880" font-family="Courier,monospace" font-size="10.00">T</text>
</g>
<!-- router_complex_flow_line_16_if -->
<g id="node6" class="node">
<title>router_complex_flow_line_16_if</title>
<path fill="wheat" stroke="black" d="M676,-1217C676,-1217 435,-1217 435,-1217 429,-1217 423,-1211 423,-1205 423,-1205 423,-1118 423,-1118 423,-1112 429,-1106 435,-1106 435,-1106 676,-1106 676,-1106 682,-1106 688,-1112 688,-1118 688,-1118 688,-1205 688,-1205 688,-1211 682,-1217 676,-1217"/>
<polygon fill="white" stroke="transparent" points="437.5,-1177.5 437.5,-1202.5 674.5,-1202.5 674.5,-1177.5 437.5,-1177.5"/>
<polygon fill="none" stroke="black" points="437.5,-1177.5 437.5,-1202.5 674.5,-1202.5 674.5,-1177.5 437.5,-1177.5"/>
<text text-anchor="start" x="444.5" y="-1188.5" font-family="Courier,monospace" font-style="italic" font-size="10.00">p = router_complex_flow_line_16_if(p)</text>
<polygon fill="lightyellow" stroke="transparent" points="437.5,-1152.5 437.5,-1177.5 674.5,-1177.5 674.5,-1152.5 437.5,-1152.5"/>
<polygon fill="none" stroke="black" points="437.5,-1152.5 437.5,-1177.5 674.5,-1177.5 674.5,-1152.5 437.5,-1152.5"/>
<text text-anchor="start" x="471" y="-1163.5" font-family="Courier,monospace" font-weight="bold" font-size="10.00">if</text>
<text text-anchor="start" x="484" y="-1163.5" font-family="Courier,monospace" font-size="10.00"> p.get(&#39;needs_enrichment&#39;)</text>
<polygon fill="none" stroke="black" points="437.5,-1119.5 437.5,-1152.5 674.5,-1152.5 674.5,-1119.5 437.5,-1119.5"/>
<polygon fill="#698b69" stroke="transparent" points="444.5,-1126.5 444.5,-1145.5 553.5,-1145.5 553.5,-1126.5 444.5,-1126.5"/>
<text text-anchor="start" x="486.5" y="-1134.5" font-family="Courier,monospace" font-weight="bold" font-size="10.00" fill="white">TRUE</text>
<polygon fill="#8b3a3a" stroke="transparent" points="553.5,-1126.5 553.5,-1145.5 667.5,-1145.5 667.5,-1126.5 553.5,-1126.5"/>
<text text-anchor="start" x="595" y="-1134.5" font-family="Courier,monospace" font-weight="bold" font-size="10.00" fill="white">FALSE</text>
</g>
<!-- router_complex_flow_line_16_if&#45;&gt;router_complex_flow_line_29_if -->
<g id="edge12" class="edge">
<title>router_complex_flow_line_16_if&#45;&gt;router_complex_flow_line_29_if</title>
<path fill="none" stroke="#8b3a3a" d="M555.5,-1105.87C555.5,-1081.63 555.5,-1052.9 555.5,-1027.56"/>
<polygon fill="#8b3a3a" stroke="#8b3a3a" points="559,-1027.29 555.5,-1017.29 552,-1027.29 559,-1027.29"/>
<text text-anchor="middle" x="559" y="-1059" font-family="Courier,monospace" font-size="10.00">F</text>
</g>
<!-- handler_enrich_data -->
<g id="node10" class="node">
<title>handler_enrich_data</title>
<path fill="lightblue" stroke="black" d="M390,-988C390,-988 215,-988 215,-988 209,-988 203,-982 203,-976 203,-976 203,-947 203,-947 203,-941 209,-935 215,-935 215,-935 390,-935 390,-935 396,-935 402,-941 402,-947 402,-947 402,-976 402,-976 402,-982 396,-988 390,-988"/>
<polygon fill="white" stroke="transparent" points="217.5,-948.5 217.5,-973.5 388.5,-973.5 388.5,-948.5 217.5,-948.5"/>
<polygon fill="none" stroke="black" points="217.5,-948.5 217.5,-973.5 388.5,-973.5 388.5,-948.5 217.5,-948.5"/>
<text text-anchor="start" x="224.5" y="-959.5" font-family="Courier,monospace" font-style="italic" font-size="10.00">p = handler_enrich_data(p)</text>
</g>
<!-- router_complex_flow_line_16_if&#45;&gt;handler_enrich_data -->
<g id="edge11" class="edge">
<title>router_complex_flow_line_16_if&#45;&gt;handler_enrich_data</title>
<path fill="none" stroke="#698b69" d="M485.7,-1105.87C440.01,-1070.12 381.88,-1024.62 343.49,-994.58"/>
<polygon fill="#698b69" stroke="#698b69" points="345.17,-991.45 335.14,-988.04 340.86,-996.96 345.17,-991.45"/>
<text text-anchor="middle" x="463" y="-1059" font-family="Courier,monospace" font-size="10.00">T</text>
</g>
<!-- router_complex_flow_line_12_if -->
<g id="node7" class="node">
<title>router_complex_flow_line_12_if</title>
<path fill="wheat" stroke="black" d="M676,-1375C676,-1375 435,-1375 435,-1375 429,-1375 423,-1369 423,-1363 423,-1363 423,-1276 423,-1276 423,-1270 429,-1264 435,-1264 435,-1264 676,-1264 676,-1264 682,-1264 688,-1270 688,-1276 688,-1276 688,-1363 688,-1363 688,-1369 682,-1375 676,-1375"/>
<polygon fill="white" stroke="transparent" points="437.5,-1335.5 437.5,-1360.5 674.5,-1360.5 674.5,-1335.5 437.5,-1335.5"/>
<polygon fill="none" stroke="black" points="437.5,-1335.5 437.5,-1360.5 674.5,-1360.5 674.5,-1335.5 437.5,-1335.5"/>
<text text-anchor="start" x="444.5" y="-1346.5" font-family="Courier,monospace" font-style="italic" font-size="10.00">p = router_complex_flow_line_12_if(p)</text>
<polygon fill="lightyellow" stroke="transparent" points="437.5,-1310.5 437.5,-1335.5 674.5,-1335.5 674.5,-1310.5 437.5,-1310.5"/>
<polygon fill="none" stroke="black" points="437.5,-1310.5 437.5,-1335.5 674.5,-1335.5 674.5,-1310.5 437.5,-1310.5"/>
<text text-anchor="start" x="504" y="-1321.5" font-family="Courier,monospace" font-weight="bold" font-size="10.00">if</text>
<text text-anchor="start" x="517" y="-1321.5" font-family="Courier,monospace" font-size="10.00"> not p[&#39;valid&#39;]</text>
<polygon fill="none" stroke="black" points="437.5,-1277.5 437.5,-1310.5 674.5,-1310.5 674.5,-1277.5 437.5,-1277.5"/>
<polygon fill="#698b69" stroke="transparent" points="444.5,-1284.5 444.5,-1303.5 553.5,-1303.5 553.5,-1284.5 444.5,-1284.5"/>
<text text-anchor="start" x="486.5" y="-1292.5" font-family="Courier,monospace" font-weight="bold" font-size="10.00" fill="white">TRUE</text>
<polygon fill="#8b3a3a" stroke="transparent" points="553.5,-1284.5 553.5,-1303.5 667.5,-1303.5 667.5,-1284.5 553.5,-1284.5"/>
<text text-anchor="start" x="595" y="-1292.5" font-family="Courier,monospace" font-weight="bold" font-size="10.00" fill="white">FALSE</text>
</g>
<!-- router_complex_flow_line_12_if&#45;&gt;router_complex_flow_line_16_if -->
<g id="edge10" class="edge">
<title>router_complex_flow_line_12_if&#45;&gt;router_complex_flow_line_16_if</title>
<path fill="none" stroke="#8b3a3a" d="M555.5,-1263.94C555.5,-1252.06 555.5,-1239.39 555.5,-1227.17"/>
<polygon fill="#8b3a3a" stroke="#8b3a3a" points="559,-1227.03 555.5,-1217.03 552,-1227.03 559,-1227.03"/>
<text text-anchor="middle" x="559" y="-1238" font-family="Courier,monospace" font-size="10.00">F</text>
</g>
<!-- handler_error -->
<g id="node11" class="node">
<title>handler_error</title>
<path fill="lightblue" stroke="black" d="M796,-1088C796,-1088 657,-1088 657,-1088 651,-1088 645,-1082 645,-1076 645,-1076 645,-1047 645,-1047 645,-1041 651,-1035 657,-1035 657,-1035 796,-1035 796,-1035 802,-1035 808,-1041 808,-1047 808,-1047 808,-1076 808,-1076 808,-1082 802,-1088 796,-1088"/>
<polygon fill="white" stroke="transparent" points="659.5,-1048.5 659.5,-1073.5 794.5,-1073.5 794.5,-1048.5 659.5,-1048.5"/>
<polygon fill="none" stroke="black" points="659.5,-1048.5 659.5,-1073.5 794.5,-1073.5 794.5,-1048.5 659.5,-1048.5"/>
<text text-anchor="start" x="666.5" y="-1059.5" font-family="Courier,monospace" font-style="italic" font-size="10.00">p = handler_error(p)</text>
</g>
<!-- router_complex_flow_line_12_if&#45;&gt;handler_error -->
<g id="edge9" class="edge">
<title>router_complex_flow_line_12_if&#45;&gt;handler_error</title>
<path fill="none" stroke="#698b69" d="M652.61,-1263.78C669.42,-1250.43 685.12,-1234.78 696.5,-1217 719.49,-1181.07 725.6,-1131.51 726.86,-1098.3"/>
<polygon fill="#698b69" stroke="#698b69" points="730.37,-1098.22 727.12,-1088.14 723.37,-1098.04 730.37,-1098.22"/>
<text text-anchor="middle" x="686" y="-1238" font-family="Courier,monospace" font-size="10.00">T</text>
</g>
<!-- end_complex_flow -->
<g id="node8" class="node">
<title>end_complex_flow</title>
<path fill="lightgreen" stroke="black" d="M688,-53C688,-53 531,-53 531,-53 525,-53 519,-47 519,-41 519,-41 519,-12 519,-12 519,-6 525,0 531,0 531,0 688,0 688,0 694,0 700,-6 700,-12 700,-12 700,-41 700,-41 700,-47 694,-53 688,-53"/>
<polygon fill="white" stroke="transparent" points="533.5,-13.5 533.5,-38.5 686.5,-38.5 686.5,-13.5 533.5,-13.5"/>
<polygon fill="none" stroke="black" points="533.5,-13.5 533.5,-38.5 686.5,-38.5 686.5,-13.5 533.5,-13.5"/>
<text text-anchor="start" x="540.5" y="-24.5" font-family="Courier,monospace" font-style="italic" font-size="10.00">p = end_complex_flow(p)</text>
</g>
<!-- handler_check_quality -->
<g id="node9" class="node">
<title>handler_check_quality</title>
<path fill="lightblue" stroke="black" d="M209,-559C209,-559 22,-559 22,-559 16,-559 10,-553 10,-547 10,-547 10,-518 10,-518 10,-512 16,-506 22,-506 22,-506 209,-506 209,-506 215,-506 221,-512 221,-518 221,-518 221,-547 221,-547 221,-553 215,-559 209,-559"/>
<polygon fill="white" stroke="transparent" points="24.5,-519.5 24.5,-544.5 207.5,-544.5 207.5,-519.5 24.5,-519.5"/>
<polygon fill="none" stroke="black" points="24.5,-519.5 24.5,-544.5 207.5,-544.5 207.5,-519.5 24.5,-519.5"/>
<text text-anchor="start" x="31.5" y="-530.5" font-family="Courier,monospace" font-style="italic" font-size="10.00">p = handler_check_quality(p)</text>
</g>
<!-- handler_check_quality&#45;&gt;router_complex_flow_line_23_if -->
<g id="edge1" class="edge">
<title>handler_check_quality&#45;&gt;router_complex_flow_line_23_if</title>
<path fill="none" stroke="black" d="M143.02,-505.8C155.43,-494.21 170.66,-479.99 185.75,-465.9"/>
<polygon fill="black" stroke="black" points="188.21,-468.39 193.13,-459.01 183.43,-463.28 188.21,-468.39"/>
</g>
<!-- handler_enrich_data&#45;&gt;router_complex_flow_line_19_while_0 -->
<g id="edge2" class="edge">
<title>handler_enrich_data&#45;&gt;router_complex_flow_line_19_while_0</title>
<path fill="none" stroke="black" d="M294.08,-934.74C288.21,-916.79 280.11,-892.02 272.55,-868.89"/>
<polygon fill="black" stroke="black" points="275.79,-867.52 269.35,-859.11 269.13,-869.7 275.79,-867.52"/>
</g>
<!-- handler_error&#45;&gt;end_complex_flow -->
<g id="edge3" class="edge">
<title>handler_error&#45;&gt;end_complex_flow</title>
<path fill="none" stroke="black" d="M727.45,-1034.71C728.63,-1000.25 730.5,-937.29 730.5,-883.5 730.5,-883.5 730.5,-883.5 730.5,-115.5 730.5,-90.39 713.25,-71.7 691.77,-58.15"/>
<polygon fill="black" stroke="black" points="693.42,-55.06 683.02,-53.03 689.88,-61.1 693.42,-55.06"/>
</g>
<!-- handler_finalize&#45;&gt;end_complex_flow -->
<g id="edge4" class="edge">
<title>handler_finalize&#45;&gt;end_complex_flow</title>
<path fill="none" stroke="black" d="M523.82,-89.81C536.99,-80.23 552.1,-69.24 565.93,-59.19"/>
<polygon fill="black" stroke="black" points="568.31,-61.78 574.34,-53.07 564.2,-56.12 568.31,-61.78"/>
</g>
<!-- handler_validate -->
<g id="node16" class="node">
<title>handler_validate</title>
<path fill="lightblue" stroke="black" d="M634,-1465C634,-1465 477,-1465 477,-1465 471,-1465 465,-1459 465,-1453 465,-1453 465,-1424 465,-1424 465,-1418 471,-1412 477,-1412 477,-1412 634,-1412 634,-1412 640,-1412 646,-1418 646,-1424 646,-1424 646,-1453 646,-1453 646,-1459 640,-1465 634,-1465"/>
<polygon fill="white" stroke="transparent" points="479.5,-1425.5 479.5,-1450.5 632.5,-1450.5 632.5,-1425.5 479.5,-1425.5"/>
<polygon fill="none" stroke="black" points="479.5,-1425.5 479.5,-1450.5 632.5,-1450.5 632.5,-1425.5 479.5,-1425.5"/>
<text text-anchor="start" x="486.5" y="-1436.5" font-family="Courier,monospace" font-style="italic" font-size="10.00">p = handler_validate(p)</text>
</g>
<!-- handler_preprocess&#45;&gt;handler_validate -->
<g id="edge5" class="edge">
<title>handler_preprocess&#45;&gt;handler_validate</title>
<path fill="none" stroke="black" d="M555.5,-1501.57C555.5,-1493.34 555.5,-1484.08 555.5,-1475.28"/>
<polygon fill="black" stroke="black" points="559,-1475.24 555.5,-1465.24 552,-1475.24 559,-1475.24"/>
</g>
<!-- handler_retry_handler&#45;&gt;handler_finalize -->
<g id="edge6" class="edge">
<title>handler_retry_handler&#45;&gt;handler_finalize</title>
<path fill="none" stroke="black" d="M595.16,-676.91C583.34,-653.38 568.5,-617.15 568.5,-583.5 568.5,-583.5 568.5,-583.5 568.5,-244.5 568.5,-208.52 545.23,-174.42 523.79,-150.62"/>
<polygon fill="black" stroke="black" points="526.31,-148.19 516.93,-143.27 521.2,-152.97 526.31,-148.19"/>
</g>
<!-- handler_transform_batch&#45;&gt;handler_check_quality -->
<g id="edge7" class="edge">
<title>handler_transform_batch&#45;&gt;handler_check_quality</title>
<path fill="none" stroke="black" d="M112.55,-605.75C113.01,-594.61 113.55,-581.38 114.04,-569.31"/>
<polygon fill="black" stroke="black" points="117.55,-569.21 114.46,-559.08 110.55,-568.93 117.55,-569.21"/>
</g>
<!-- handler_validate&#45;&gt;router_complex_flow_line_12_if -->
<g id="edge8" class="edge">
<title>handler_validate&#45;&gt;router_complex_flow_line_12_if</title>
<path fill="none" stroke="black" d="M555.5,-1411.82C555.5,-1403.92 555.5,-1394.83 555.5,-1385.53"/>
<polygon fill="black" stroke="black" points="559,-1385.38 555.5,-1375.38 552,-1385.38 559,-1385.38"/>
</g>
</g>
</svg>
