<?xml version="1.0" encoding="UTF-8" standalone="no"?>
<!DOCTYPE svg PUBLIC "-//W3C//DTD SVG 1.1//EN"
 "http://www.w3.org/Graphics/SVG/1.1/DTD/svg11.dtd">
<!-- Generated by graphviz version 2.43.0 (0)
 -->
<!-- Title: flow Pages: 1 -->
<svg width="273pt" height="506pt"
 viewBox="0.00 0.00 273.00 506.00" xmlns="http://www.w3.org/2000/svg" xmlns:xlink="http://www.w3.org/1999/xlink">
<g id="graph0" class="graph" transform="scale(1 1) rotate(0) translate(4 502)">
<title>flow</title>
<polygon fill="white" stroke="transparent" points="-4,4 -4,-502 269,-502 269,4 -4,4"/>
<!-- start_typed_dataclass_pipeline -->
<g id="node1" class="node">
<title>start_typed_dataclass_pipeline</title>
<path fill="lightgreen" stroke="black" d="M253,-498C253,-498 12,-498 12,-498 6,-498 0,-492 0,-486 0,-486 0,-457 0,-457 0,-451 6,-445 12,-445 12,-445 253,-445 253,-445 259,-445 265,-451 265,-457 265,-457 265,-486 265,-486 265,-492 259,-498 253,-498"/>
<polygon fill="white" stroke="transparent" points="14.5,-458.5 14.5,-483.5 251.5,-483.5 251.5,-458.5 14.5,-458.5"/>
<polygon fill="none" stroke="black" points="14.5,-458.5 14.5,-483.5 251.5,-483.5 251.5,-458.5 14.5,-458.5"/>
<text text-anchor="start" x="21.5" y="-469.5" font-family="Courier,monospace" font-style="italic" font-size="10.00">p = start_typed_dataclass_pipeline(p)</text>
</g>
<!-- extractor -->
<g id="node5" class="node">
<title>extractor</title>
<path fill="lightblue" stroke="black" d="M190,-409C190,-409 75,-409 75,-409 69,-409 63,-403 63,-397 63,-397 63,-368 63,-368 63,-362 69,-356 75,-356 75,-356 190,-356 190,-356 196,-356 202,-362 202,-368 202,-368 202,-397 202,-397 202,-403 196,-409 190,-409"/>
<polygon fill="white" stroke="transparent" points="77.5,-369.5 77.5,-394.5 188.5,-394.5 188.5,-369.5 77.5,-369.5"/>
<polygon fill="none" stroke="black" points="77.5,-369.5 77.5,-394.5 188.5,-394.5 188.5,-369.5 77.5,-369.5"/>
<text text-anchor="start" x="84.5" y="-380.5" font-family="Courier,monospace" font-style="italic" font-size="10.00">p = extractor(p)</text>
</g>
<!-- start_typed_dataclass_pipeline&#45;&gt;extractor -->
<g id="edge5" class="edge">
<title>start_typed_dataclass_pipeline&#45;&gt;extractor</title>
<path fill="none" stroke="black" d="M132.5,-444.87C132.5,-436.89 132.5,-427.93 132.5,-419.38"/>
<polygon fill="black" stroke="black" points="136,-419.25 132.5,-409.25 129,-419.25 136,-419.25"/>
</g>
<!-- end_typed_dataclass_pipeline -->
<g id="node2" class="node">
<title>end_typed_dataclass_pipeline</title>
<path fill="lightgreen" stroke="black" d="M247,-53C247,-53 18,-53 18,-53 12,-53 6,-47 6,-41 6,-41 6,-12 6,-12 6,-6 12,0 18,0 18,0 247,0 247,0 253,0 259,-6 259,-12 259,-12 259,-41 259,-41 259,-47 253,-53 247,-53"/>
<polygon fill="white" stroke="transparent" points="20.5,-13.5 20.5,-38.5 245.5,-38.5 245.5,-13.5 20.5,-13.5"/>
<polygon fill="none" stroke="black" points="20.5,-13.5 20.5,-38.5 245.5,-38.5 245.5,-13.5 20.5,-13.5"/>
<text text-anchor="start" x="27.5" y="-24.5" font-family="Courier,monospace" font-style="italic" font-size="10.00">p = end_typed_dataclass_pipeline(p)</text>
</g>
<!-- classifier -->
<g id="node3" class="node">
<title>classifier</title>
<path fill="lightblue" stroke="black" d="M193,-320C193,-320 72,-320 72,-320 66,-320 60,-314 60,-308 60,-308 60,-279 60,-279 60,-273 66,-267 72,-267 72,-267 193,-267 193,-267 199,-267 205,-273 205,-279 205,-279 205,-308 205,-308 205,-314 199,-320 193,-320"/>
<polygon fill="white" stroke="transparent" points="74.5,-280.5 74.5,-305.5 191.5,-305.5 191.5,-280.5 74.5,-280.5"/>
<polygon fill="none" stroke="black" points="74.5,-280.5 74.5,-305.5 191.5,-305.5 191.5,-280.5 74.5,-280.5"/>
<text text-anchor="start" x="81.5" y="-291.5" font-family="Courier,monospace" font-style="italic" font-size="10.00">p = classifier(p)</text>
</g>
<!-- enricher -->
<g id="node4" class="node">
<title>enricher</title>
<path fill="lightblue" stroke="black" d="M187,-231C187,-231 78,-231 78,-231 72,-231 66,-225 66,-219 66,-219 66,-190 66,-190 66,-184 72,-178 78,-178 78,-178 187,-178 187,-178 193,-178 199,-184 199,-190 199,-190 199,-219 199,-219 199,-225 193,-231 187,-231"/>
<polygon fill="white" stroke="transparent" points="80.5,-191.5 80.5,-216.5 185.5,-216.5 185.5,-191.5 80.5,-191.5"/>
<polygon fill="none" stroke="black" points="80.5,-191.5 80.5,-216.5 185.5,-216.5 185.5,-191.5 80.5,-191.5"/>
<text text-anchor="start" x="87.5" y="-202.5" font-family="Courier,monospace" font-style="italic" font-size="10.00">p = enricher(p)</text>
</g>
<!-- classifier&#45;&gt;enricher -->
<g id="edge1" class="edge">
<title>classifier&#45;&gt;enricher</title>
<path fill="none" stroke="black" d="M132.5,-266.87C132.5,-258.89 132.5,-249.93 132.5,-241.38"/>
<polygon fill="black" stroke="black" points="136,-241.25 132.5,-231.25 129,-241.25 136,-241.25"/>
</g>
<!-- formatter -->
<g id="node6" class="node">
<title>formatter</title>
<path fill="lightblue" stroke="black" d="M190,-142C190,-142 75,-142 75,-142 69,-142 63,-136 63,-130 63,-130 63,-101 63,-101 63,-95 69,-89 75,-89 75,-89 190,-89 190,-89 196,-89 202,-95 202,-101 202,-101 202,-130 202,-130 202,-136 196,-142 190,-142"/>
<polygon fill="white" stroke="transparent" points="77.5,-102.5 77.5,-127.5 188.5,-127.5 188.5,-102.5 77.5,-102.5"/>
<polygon fill="none" stroke="black" points="77.5,-102.5 77.5,-127.5 188.5,-127.5 188.5,-102.5 77.5,-102.5"/>
<text text-anchor="start" x="84.5" y="-113.5" font-family="Courier,monospace" font-style="italic" font-size="10.00">p = formatter(p)</text>
</g>
<!-- enricher&#45;&gt;formatter -->
<g id="edge2" class="edge">
<title>enricher&#45;&gt;formatter</title>
<path fill="none" stroke="black" d="M132.5,-177.87C132.5,-169.89 132.5,-160.93 132.5,-152.38"/>
<polygon fill="black" stroke="black" points="136,-152.25 132.5,-142.25 129,-152.25 136,-152.25"/>
</g>
<!-- extractor&#45;&gt;classifier -->
<g id="edge3" class="edge">
<title>extractor&#45;&gt;classifier</title>
<path fill="none" stroke="black" d="M132.5,-355.87C132.5,-347.89 132.5,-338.93 132.5,-330.38"/>
<polygon fill="black" stroke="black" points="136,-330.25 132.5,-320.25 129,-330.25 136,-330.25"/>
</g>
<!-- formatter&#45;&gt;end_typed_dataclass_pipeline -->
<g id="edge4" class="edge">
<title>formatter&#45;&gt;end_typed_dataclass_pipeline</title>
<path fill="none" stroke="black" d="M132.5,-88.87C132.5,-80.89 132.5,-71.93 132.5,-63.38"/>
<polygon fill="black" stroke="black" points="136,-63.25 132.5,-53.25 129,-63.25 136,-63.25"/>
</g>
</g>
</svg>
