<?xml version="1.0" encoding="UTF-8" standalone="no"?>
<!DOCTYPE svg PUBLIC "-//W3C//DTD SVG 1.1//EN"
 "http://www.w3.org/Graphics/SVG/1.1/DTD/svg11.dtd">
<!-- Generated by graphviz version 2.43.0 (0)
 -->
<!-- Title: flow Pages: 1 -->
<svg width="351pt" height="264pt"
 viewBox="0.00 0.00 351.00 264.00" xmlns="http://www.w3.org/2000/svg" xmlns:xlink="http://www.w3.org/1999/xlink">
<g id="graph0" class="graph" transform="scale(1 1) rotate(0) translate(4 260)">
<title>flow</title>
<polygon fill="white" stroke="transparent" points="-4,4 -4,-260 347,-260 347,4 -4,4"/>
<!-- start_voting_ensemble -->
<g id="node1" class="node">
<title>start_voting_ensemble</title>
<path fill="lightgreen" stroke="black" d="M331,-256C331,-256 12,-256 12,-256 6,-256 0,-250 0,-244 0,-244 0,-190 0,-190 0,-184 6,-178 12,-178 12,-178 331,-178 331,-178 337,-178 343,-184 343,-190 343,-190 343,-244 343,-244 343,-250 337,-256 331,-256"/>
<polygon fill="white" stroke="transparent" points="14.5,-217 14.5,-242 329.5,-242 329.5,-217 14.5,-217"/>
<polygon fill="none" stroke="black" points="14.5,-217 14.5,-242 329.5,-242 329.5,-217 14.5,-217"/>
<text text-anchor="start" x="69.5" y="-228" font-family="Courier,monospace" font-style="italic" font-size="10.00">p = await start_voting_ensemble(p)</text>
<polygon fill="white" stroke="transparent" points="14.5,-192 14.5,-217 329.5,-217 329.5,-192 14.5,-192"/>
<polygon fill="none" stroke="black" points="14.5,-192 14.5,-217 329.5,-217 329.5,-192 14.5,-192"/>
<text text-anchor="start" x="21.5" y="-202" font-family="Courier,monospace" font-size="10.00">p[&#39;candidates&#39;] = list(await asyncio.…&#39;prompt&#39;])))</text>
</g>
<!-- judge -->
<g id="node3" class="node">
<title>judge</title>
<path fill="lightblue" stroke="black" d="M235,-142C235,-142 108,-142 108,-142 102,-142 96,-136 96,-130 96,-130 96,-101 96,-101 96,-95 102,-89 108,-89 108,-89 235,-89 235,-89 241,-89 247,-95 247,-101 247,-101 247,-130 247,-130 247,-136 241,-142 235,-142"/>
<polygon fill="white" stroke="transparent" points="110.5,-102.5 110.5,-127.5 233.5,-127.5 233.5,-102.5 110.5,-102.5"/>
<polygon fill="none" stroke="black" points="110.5,-102.5 110.5,-127.5 233.5,-127.5 233.5,-102.5 110.5,-102.5"/>
<text text-anchor="start" x="117.5" y="-113.5" font-family="Courier,monospace" font-style="italic" font-size="10.00">p = await judge(p)</text>
</g>
<!-- start_voting_ensemble&#45;&gt;judge -->
<g id="edge2" class="edge">
<title>start_voting_ensemble&#45;&gt;judge</title>
<path fill="none" stroke="black" d="M171.5,-177.82C171.5,-169.41 171.5,-160.55 171.5,-152.25"/>
<polygon fill="black" stroke="black" points="175,-152.12 171.5,-142.12 168,-152.12 175,-152.12"/>
</g>
<!-- end_voting_ensemble -->
<g id="node2" class="node">
<title>end_voting_ensemble</title>
<path fill="lightgreen" stroke="black" d="M277,-53C277,-53 66,-53 66,-53 60,-53 54,-47 54,-41 54,-41 54,-12 54,-12 54,-6 60,0 66,0 66,0 277,0 277,0 283,0 289,-6 289,-12 289,-12 289,-41 289,-41 289,-47 283,-53 277,-53"/>
<polygon fill="white" stroke="transparent" points="68.5,-13.5 68.5,-38.5 275.5,-38.5 275.5,-13.5 68.5,-13.5"/>
<polygon fill="none" stroke="black" points="68.5,-13.5 68.5,-38.5 275.5,-38.5 275.5,-13.5 68.5,-13.5"/>
<text text-anchor="start" x="75.5" y="-24.5" font-family="Courier,monospace" font-style="italic" font-size="10.00">p = await end_voting_ensemble(p)</text>
</g>
<!-- judge&#45;&gt;end_voting_ensemble -->
<g id="edge1" class="edge">
<title>judge&#45;&gt;end_voting_ensemble</title>
<path fill="none" stroke="black" d="M171.5,-88.87C171.5,-80.89 171.5,-71.93 171.5,-63.38"/>
<polygon fill="black" stroke="black" points="175,-63.25 171.5,-53.25 168,-63.25 175,-63.25"/>
</g>
</g>
</svg>
