<?xml version="1.0" encoding="UTF-8" standalone="no"?>
<!DOCTYPE svg PUBLIC "-//W3C//DTD SVG 1.1//EN"
 "http://www.w3.org/Graphics/SVG/1.1/DTD/svg11.dtd">
<!-- Generated by graphviz version 2.43.0 (0)
 -->
<!-- Title: flow Pages: 1 -->
<svg width="369pt" height="973pt"
 viewBox="0.00 0.00 369.00 973.00" xmlns="http://www.w3.org/2000/svg" xmlns:xlink="http://www.w3.org/1999/xlink">
<g id="graph0" class="graph" transform="scale(1 1) rotate(0) translate(4 969)">
<title>flow</title>
<polygon fill="white" stroke="transparent" points="-4,4 -4,-969 365,-969 365,4 -4,4"/>
<!-- start_multi_stage_flow -->
<g id="node1" class="node">
<title>start_multi_stage_flow</title>
<path fill="lightgreen" stroke="black" d="M237,-965C237,-965 44,-965 44,-965 38,-965 32,-959 32,-953 32,-953 32,-924 32,-924 32,-918 38,-912 44,-912 44,-912 237,-912 237,-912 243,-912 249,-918 249,-924 249,-924 249,-953 249,-953 249,-959 243,-965 237,-965"/>
<polygon fill="white" stroke="transparent" points="46.5,-925.5 46.5,-950.5 235.5,-950.5 235.5,-925.5 46.5,-925.5"/>
<polygon fill="none" stroke="black" points="46.5,-925.5 46.5,-950.5 235.5,-950.5 235.5,-925.5 46.5,-925.5"/>
<text text-anchor="start" x="53.5" y="-936.5" font-family="Courier,monospace" font-style="italic" font-size="10.00">p = start_multi_stage_flow(p)</text>
</g>
<!-- fanout_multi_stage_flow_line_11 -->
<g id="node3" class="node">
<title>fanout_multi_stage_flow_line_11</title>
<path fill="lightblue" stroke="black" d="M264,-875C264,-875 17,-875 17,-875 11,-875 5,-869 5,-863 5,-863 5,-784 5,-784 5,-778 11,-772 17,-772 17,-772 264,-772 264,-772 270,-772 276,-778 276,-784 276,-784 276,-863 276,-863 276,-869 270,-875 264,-875"/>
<polygon fill="white" stroke="transparent" points="19.5,-835.5 19.5,-860.5 262.5,-860.5 262.5,-835.5 19.5,-835.5"/>
<polygon fill="none" stroke="black" points="19.5,-835.5 19.5,-860.5 262.5,-860.5 262.5,-835.5 19.5,-835.5"/>
<text text-anchor="start" x="26.5" y="-846.5" font-family="Courier,monospace" font-style="italic" font-size="10.00">p = fanout_multi_stage_flow_line_11(p)</text>
<polygon fill="#9f79ee" stroke="transparent" points="19.5,-810.5 19.5,-835.5 262.5,-835.5 262.5,-810.5 19.5,-810.5"/>
<polygon fill="none" stroke="black" points="19.5,-810.5 19.5,-835.5 262.5,-835.5 262.5,-810.5 19.5,-810.5"/>
<text text-anchor="start" x="71.5" y="-821.5" font-family="Courier,monospace" font-weight="bold" font-size="10.00">[fan&#45;out:comprehension]</text>
<polygon fill="#8968cd" stroke="transparent" points="19.5,-785.5 19.5,-810.5 262.5,-810.5 262.5,-785.5 19.5,-785.5"/>
<polygon fill="none" stroke="black" points="19.5,-785.5 19.5,-810.5 262.5,-810.5 262.5,-785.5 19.5,-785.5"/>
<text text-anchor="start" x="26.5" y="-795.5" font-family="Courier,monospace" font-size="10.00">for t in p[&#39;topics&#39;]</text>
</g>
<!-- start_multi_stage_flow&#45;&gt;fanout_multi_stage_flow_line_11 -->
<g id="edge9" class="edge">
<title>start_multi_stage_flow&#45;&gt;fanout_multi_stage_flow_line_11</title>
<path fill="none" stroke="black" d="M140.5,-911.86C140.5,-903.92 140.5,-894.81 140.5,-885.54"/>
<polygon fill="black" stroke="black" points="144,-885.45 140.5,-875.46 137,-885.46 144,-885.45"/>
</g>
<!-- fanout_multi_stage_flow_line_12 -->
<g id="node2" class="node">
<title>fanout_multi_stage_flow_line_12</title>
<path fill="lightblue" stroke="black" d="M260,-509C260,-509 13,-509 13,-509 7,-509 1,-503 1,-497 1,-497 1,-418 1,-418 1,-412 7,-406 13,-406 13,-406 260,-406 260,-406 266,-406 272,-412 272,-418 272,-418 272,-497 272,-497 272,-503 266,-509 260,-509"/>
<polygon fill="white" stroke="transparent" points="15.5,-469.5 15.5,-494.5 258.5,-494.5 258.5,-469.5 15.5,-469.5"/>
<polygon fill="none" stroke="black" points="15.5,-469.5 15.5,-494.5 258.5,-494.5 258.5,-469.5 15.5,-469.5"/>
<text text-anchor="start" x="22.5" y="-480.5" font-family="Courier,monospace" font-style="italic" font-size="10.00">p = fanout_multi_stage_flow_line_12(p)</text>
<polygon fill="#9f79ee" stroke="transparent" points="15.5,-444.5 15.5,-469.5 258.5,-469.5 258.5,-444.5 15.5,-444.5"/>
<polygon fill="none" stroke="black" points="15.5,-444.5 15.5,-469.5 258.5,-469.5 258.5,-444.5 15.5,-444.5"/>
<text text-anchor="start" x="67.5" y="-455.5" font-family="Courier,monospace" font-weight="bold" font-size="10.00">[fan&#45;out:comprehension]</text>
<polygon fill="#8968cd" stroke="transparent" points="15.5,-419.5 15.5,-444.5 258.5,-444.5 258.5,-419.5 15.5,-419.5"/>
<polygon fill="none" stroke="black" points="15.5,-419.5 15.5,-444.5 258.5,-444.5 258.5,-419.5 15.5,-419.5"/>
<text text-anchor="start" x="22.5" y="-429.5" font-family="Courier,monospace" font-size="10.00">for r in p[&#39;research&#39;]</text>
</g>
<!-- fanin_multi_stage_flow_line_12 -->
<g id="node6" class="node">
<title>fanin_multi_stage_flow_line_12</title>
<path fill="lightblue" stroke="black" d="M253,-258C253,-258 12,-258 12,-258 6,-258 0,-252 0,-246 0,-246 0,-192 0,-192 0,-186 6,-180 12,-180 12,-180 253,-180 253,-180 259,-180 265,-186 265,-192 265,-192 265,-246 265,-246 265,-252 259,-258 253,-258"/>
<polygon fill="white" stroke="transparent" points="14.5,-219 14.5,-244 251.5,-244 251.5,-219 14.5,-219"/>
<polygon fill="none" stroke="black" points="14.5,-219 14.5,-244 251.5,-244 251.5,-219 14.5,-219"/>
<text text-anchor="start" x="21.5" y="-230" font-family="Courier,monospace" font-style="italic" font-size="10.00">p = fanin_multi_stage_flow_line_12(p)</text>
<polygon fill="#ab82ff" stroke="transparent" points="14.5,-194 14.5,-219 251.5,-219 251.5,-194 14.5,-194"/>
<polygon fill="none" stroke="black" points="14.5,-194 14.5,-219 251.5,-219 251.5,-194 14.5,-194"/>
<text text-anchor="start" x="108.5" y="-205" font-family="Courier,monospace" font-weight="bold" font-size="10.00">[fan&#45;in]</text>
</g>
<!-- fanout_multi_stage_flow_line_12&#45;&gt;fanin_multi_stage_flow_line_12 -->
<g id="edge5" class="edge">
<title>fanout_multi_stage_flow_line_12&#45;&gt;fanin_multi_stage_flow_line_12</title>
<path fill="none" stroke="#5d478b" stroke-dasharray="5,2" d="M132.55,-405.75C131.31,-387.55 130.11,-366.87 129.5,-348 128.74,-324.46 129.03,-318.55 129.5,-295 129.67,-286.38 129.96,-277.22 130.28,-268.36"/>
<polygon fill="#5d478b" stroke="#5d478b" points="133.79,-268.27 130.68,-258.15 126.79,-268 133.79,-268.27"/>
<text text-anchor="middle" x="154" y="-324.5" font-family="Courier,monospace" font-size="10.00">slice 0</text>
<text text-anchor="middle" x="154" y="-313.5" font-family="Courier,monospace" font-size="10.00">(parent)</text>
</g>
<!-- review_agent -->
<g id="node8" class="node">
<title>review_agent</title>
<path fill="lightblue" stroke="black" d="M333,-348C333,-348 200,-348 200,-348 194,-348 188,-342 188,-336 188,-336 188,-307 188,-307 188,-301 194,-295 200,-295 200,-295 333,-295 333,-295 339,-295 345,-301 345,-307 345,-307 345,-336 345,-336 345,-342 339,-348 333,-348"/>
<polygon fill="white" stroke="transparent" points="202.5,-308.5 202.5,-333.5 331.5,-333.5 331.5,-308.5 202.5,-308.5"/>
<polygon fill="none" stroke="black" points="202.5,-308.5 202.5,-333.5 331.5,-333.5 331.5,-308.5 202.5,-308.5"/>
<text text-anchor="start" x="209.5" y="-319.5" font-family="Courier,monospace" font-style="italic" font-size="10.00">p = review_agent(p)</text>
</g>
<!-- fanout_multi_stage_flow_line_12&#45;&gt;review_agent -->
<g id="edge6" class="edge">
<title>fanout_multi_stage_flow_line_12&#45;&gt;review_agent</title>
<path fill="none" stroke="#5d478b" stroke-width="2" d="M185.65,-405.84C202.08,-388.9 219.96,-370.47 234.71,-355.26"/>
<polygon fill="#5d478b" stroke="#5d478b" stroke-width="2" points="237.24,-357.69 241.69,-348.08 232.21,-352.82 237.24,-357.69"/>
<text text-anchor="middle" x="251" y="-380" font-family="Courier,monospace" font-size="10.00">slice 1..N</text>
<text text-anchor="middle" x="251" y="-369" font-family="Courier,monospace" font-size="10.00">(per r)</text>
</g>
<!-- fanin_multi_stage_flow_line_11 -->
<g id="node5" class="node">
<title>fanin_multi_stage_flow_line_11</title>
<path fill="lightblue" stroke="black" d="M257,-624C257,-624 16,-624 16,-624 10,-624 4,-618 4,-612 4,-612 4,-558 4,-558 4,-552 10,-546 16,-546 16,-546 257,-546 257,-546 263,-546 269,-552 269,-558 269,-558 269,-612 269,-612 269,-618 263,-624 257,-624"/>
<polygon fill="white" stroke="transparent" points="18.5,-585 18.5,-610 255.5,-610 255.5,-585 18.5,-585"/>
<polygon fill="none" stroke="black" points="18.5,-585 18.5,-610 255.5,-610 255.5,-585 18.5,-585"/>
<text text-anchor="start" x="25.5" y="-596" font-family="Courier,monospace" font-style="italic" font-size="10.00">p = fanin_multi_stage_flow_line_11(p)</text>
<polygon fill="#ab82ff" stroke="transparent" points="18.5,-560 18.5,-585 255.5,-585 255.5,-560 18.5,-560"/>
<polygon fill="none" stroke="black" points="18.5,-560 18.5,-585 255.5,-585 255.5,-560 18.5,-560"/>
<text text-anchor="start" x="112.5" y="-571" font-family="Courier,monospace" font-weight="bold" font-size="10.00">[fan&#45;in]</text>
</g>
<!-- fanout_multi_stage_flow_line_11&#45;&gt;fanin_multi_stage_flow_line_11 -->
<g id="edge3" class="edge">
<title>fanout_multi_stage_flow_line_11&#45;&gt;fanin_multi_stage_flow_line_11</title>
<path fill="none" stroke="#5d478b" stroke-dasharray="5,2" d="M137.11,-771.74C136.05,-753.54 135.02,-732.86 134.5,-714 133.85,-690.45 134.19,-684.55 134.5,-661 134.61,-652.39 134.8,-643.22 135.02,-634.36"/>
<polygon fill="#5d478b" stroke="#5d478b" points="138.53,-634.24 135.29,-624.15 131.53,-634.06 138.53,-634.24"/>
<text text-anchor="middle" x="159" y="-690.5" font-family="Courier,monospace" font-size="10.00">slice 0</text>
<text text-anchor="middle" x="159" y="-679.5" font-family="Courier,monospace" font-size="10.00">(parent)</text>
</g>
<!-- research_agent -->
<g id="node7" class="node">
<title>research_agent</title>
<path fill="lightblue" stroke="black" d="M349,-714C349,-714 204,-714 204,-714 198,-714 192,-708 192,-702 192,-702 192,-673 192,-673 192,-667 198,-661 204,-661 204,-661 349,-661 349,-661 355,-661 361,-667 361,-673 361,-673 361,-702 361,-702 361,-708 355,-714 349,-714"/>
<polygon fill="white" stroke="transparent" points="206.5,-674.5 206.5,-699.5 347.5,-699.5 347.5,-674.5 206.5,-674.5"/>
<polygon fill="none" stroke="black" points="206.5,-674.5 206.5,-699.5 347.5,-699.5 347.5,-674.5 206.5,-674.5"/>
<text text-anchor="start" x="213.5" y="-685.5" font-family="Courier,monospace" font-style="italic" font-size="10.00">p = research_agent(p)</text>
</g>
<!-- fanout_multi_stage_flow_line_11&#45;&gt;research_agent -->
<g id="edge4" class="edge">
<title>fanout_multi_stage_flow_line_11&#45;&gt;research_agent</title>
<path fill="none" stroke="#5d478b" stroke-width="2" d="M191.92,-771.84C209.11,-754.9 227.81,-736.47 243.25,-721.26"/>
<polygon fill="#5d478b" stroke="#5d478b" stroke-width="2" points="245.87,-723.59 250.54,-714.08 240.96,-718.6 245.87,-723.59"/>
<text text-anchor="middle" x="259" y="-746" font-family="Courier,monospace" font-size="10.00">slice 1..N</text>
<text text-anchor="middle" x="259" y="-735" font-family="Courier,monospace" font-size="10.00">(per t)</text>
</g>
<!-- end_multi_stage_flow -->
<g id="node4" class="node">
<title>end_multi_stage_flow</title>
<path fill="lightgreen" stroke="black" d="M223,-53C223,-53 42,-53 42,-53 36,-53 30,-47 30,-41 30,-41 30,-12 30,-12 30,-6 36,0 42,0 42,0 223,0 223,0 229,0 235,-6 235,-12 235,-12 235,-41 235,-41 235,-47 229,-53 223,-53"/>
<polygon fill="white" stroke="transparent" points="44.5,-13.5 44.5,-38.5 221.5,-38.5 221.5,-13.5 44.5,-13.5"/>
<polygon fill="none" stroke="black" points="44.5,-13.5 44.5,-38.5 221.5,-38.5 221.5,-13.5 44.5,-13.5"/>
<text text-anchor="start" x="51.5" y="-24.5" font-family="Courier,monospace" font-style="italic" font-size="10.00">p = end_multi_stage_flow(p)</text>
</g>
<!-- fanin_multi_stage_flow_line_11&#45;&gt;fanout_multi_stage_flow_line_12 -->
<g id="edge1" class="edge">
<title>fanin_multi_stage_flow_line_11&#45;&gt;fanout_multi_stage_flow_line_12</title>
<path fill="none" stroke="black" d="M136.5,-545.66C136.5,-537.28 136.5,-528.22 136.5,-519.2"/>
<polygon fill="black" stroke="black" points="140,-519.09 136.5,-509.09 133,-519.09 140,-519.09"/>
</g>
<!-- summarizer -->
<g id="node9" class="node">
<title>summarizer</title>
<path fill="lightblue" stroke="black" d="M193,-143C193,-143 72,-143 72,-143 66,-143 60,-137 60,-131 60,-131 60,-102 60,-102 60,-96 66,-90 72,-90 72,-90 193,-90 193,-90 199,-90 205,-96 205,-102 205,-102 205,-131 205,-131 205,-137 199,-143 193,-143"/>
<polygon fill="white" stroke="transparent" points="74.5,-103.5 74.5,-128.5 191.5,-128.5 191.5,-103.5 74.5,-103.5"/>
<polygon fill="none" stroke="black" points="74.5,-103.5 74.5,-128.5 191.5,-128.5 191.5,-103.5 74.5,-103.5"/>
<text text-anchor="start" x="81.5" y="-114.5" font-family="Courier,monospace" font-style="italic" font-size="10.00">p = summarizer(p)</text>
</g>
<!-- fanin_multi_stage_flow_line_12&#45;&gt;summarizer -->
<g id="edge2" class="edge">
<title>fanin_multi_stage_flow_line_12&#45;&gt;summarizer</title>
<path fill="none" stroke="black" d="M132.5,-179.72C132.5,-171.04 132.5,-161.86 132.5,-153.29"/>
<polygon fill="black" stroke="black" points="136,-153.22 132.5,-143.22 129,-153.22 136,-153.22"/>
</g>
<!-- research_agent&#45;&gt;fanin_multi_stage_flow_line_11 -->
<g id="edge7" class="edge">
<title>research_agent&#45;&gt;fanin_multi_stage_flow_line_11</title>
<path fill="none" stroke="#473c8b" stroke-dasharray="5,2" d="M240.81,-660.88C227.81,-651.55 212.71,-640.71 198.1,-630.22"/>
<polygon fill="#473c8b" stroke="#473c8b" points="199.74,-627.09 189.58,-624.1 195.66,-632.78 199.74,-627.09"/>
</g>
<!-- review_agent&#45;&gt;fanin_multi_stage_flow_line_12 -->
<g id="edge8" class="edge">
<title>review_agent&#45;&gt;fanin_multi_stage_flow_line_12</title>
<path fill="none" stroke="#473c8b" stroke-dasharray="5,2" d="M232.34,-294.88C219.89,-285.55 205.44,-274.71 191.46,-264.22"/>
<polygon fill="#473c8b" stroke="#473c8b" points="193.4,-261.3 183.3,-258.1 189.2,-266.9 193.4,-261.3"/>
</g>
<!-- summarizer&#45;&gt;end_multi_stage_flow -->
<g id="edge10" class="edge">
<title>summarizer&#45;&gt;end_multi_stage_flow</title>
<path fill="none" stroke="black" d="M132.5,-89.57C132.5,-81.34 132.5,-72.08 132.5,-63.28"/>
<polygon fill="black" stroke="black" points="136,-63.24 132.5,-53.24 129,-63.24 136,-63.24"/>
</g>
</g>
</svg>
