<?xml version="1.0" encoding="UTF-8" standalone="no"?>
<!DOCTYPE svg PUBLIC "-//W3C//DTD SVG 1.1//EN"
 "http://www.w3.org/Graphics/SVG/1.1/DTD/svg11.dtd">
<!-- Generated by graphviz version 2.43.0 (0)
 -->
<!-- Title: flow Pages: 1 -->
<svg width="219pt" height="417pt"
 viewBox="0.00 0.00 219.00 417.00" xmlns="http://www.w3.org/2000/svg" xmlns:xlink="http://www.w3.org/1999/xlink">
<g id="graph0" class="graph" transform="scale(1 1) rotate(0) translate(4 413)">
<title>flow</title>
<polygon fill="white" stroke="transparent" points="-4,4 -4,-413 215,-413 215,4 -4,4"/>
<!-- start_sequential_flow -->
<g id="node1" class="node">
<title>start_sequential_flow</title>
<path fill="lightgreen" stroke="black" d="M199,-409C199,-409 12,-409 12,-409 6,-409 0,-403 0,-397 0,-397 0,-368 0,-368 0,-362 6,-356 12,-356 12,-356 199,-356 199,-356 205,-356 211,-362 211,-368 211,-368 211,-397 211,-397 211,-403 205,-409 199,-409"/>
<polygon fill="white" stroke="transparent" points="14.5,-369.5 14.5,-394.5 197.5,-394.5 197.5,-369.5 14.5,-369.5"/>
<polygon fill="none" stroke="black" points="14.5,-369.5 14.5,-394.5 197.5,-394.5 197.5,-369.5 14.5,-369.5"/>
<text text-anchor="start" x="21.5" y="-380.5" font-family="Courier,monospace" font-style="italic" font-size="10.00">p = start_sequential_flow(p)</text>
</g>
<!-- handler_a -->
<g id="node3" class="node">
<title>handler_a</title>
<path fill="lightblue" stroke="black" d="M163,-320C163,-320 48,-320 48,-320 42,-320 36,-314 36,-308 36,-308 36,-279 36,-279 36,-273 42,-267 48,-267 48,-267 163,-267 163,-267 169,-267 175,-273 175,-279 175,-279 175,-308 175,-308 175,-314 169,-320 163,-320"/>
<polygon fill="white" stroke="transparent" points="50.5,-280.5 50.5,-305.5 161.5,-305.5 161.5,-280.5 50.5,-280.5"/>
<polygon fill="none" stroke="black" points="50.5,-280.5 50.5,-305.5 161.5,-305.5 161.5,-280.5 50.5,-280.5"/>
<text text-anchor="start" x="57.5" y="-291.5" font-family="Courier,monospace" font-style="italic" font-size="10.00">p = handler_a(p)</text>
</g>
<!-- start_sequential_flow&#45;&gt;handler_a -->
<g id="edge4" class="edge">
<title>start_sequential_flow&#45;&gt;handler_a</title>
<path fill="none" stroke="black" d="M105.5,-355.87C105.5,-347.89 105.5,-338.93 105.5,-330.38"/>
<polygon fill="black" stroke="black" points="109,-330.25 105.5,-320.25 102,-330.25 109,-330.25"/>
</g>
<!-- end_sequential_flow -->
<g id="node2" class="node">
<title>end_sequential_flow</title>
<path fill="lightgreen" stroke="black" d="M193,-53C193,-53 18,-53 18,-53 12,-53 6,-47 6,-41 6,-41 6,-12 6,-12 6,-6 12,0 18,0 18,0 193,0 193,0 199,0 205,-6 205,-12 205,-12 205,-41 205,-41 205,-47 199,-53 193,-53"/>
<polygon fill="white" stroke="transparent" points="20.5,-13.5 20.5,-38.5 191.5,-38.5 191.5,-13.5 20.5,-13.5"/>
<polygon fill="none" stroke="black" points="20.5,-13.5 20.5,-38.5 191.5,-38.5 191.5,-13.5 20.5,-13.5"/>
<text text-anchor="start" x="27.5" y="-24.5" font-family="Courier,monospace" font-style="italic" font-size="10.00">p = end_sequential_flow(p)</text>
</g>
<!-- handler_b -->
<g id="node4" class="node">
<title>handler_b</title>
<path fill="lightblue" stroke="black" d="M163,-231C163,-231 48,-231 48,-231 42,-231 36,-225 36,-219 36,-219 36,-190 36,-190 36,-184 42,-178 48,-178 48,-178 163,-178 163,-178 169,-178 175,-184 175,-190 175,-190 175,-219 175,-219 175,-225 169,-231 163,-231"/>
<polygon fill="white" stroke="transparent" points="50.5,-191.5 50.5,-216.5 161.5,-216.5 161.5,-191.5 50.5,-191.5"/>
<polygon fill="none" stroke="black" points="50.5,-191.5 50.5,-216.5 161.5,-216.5 161.5,-191.5 50.5,-191.5"/>
<text text-anchor="start" x="57.5" y="-202.5" font-family="Courier,monospace" font-style="italic" font-size="10.00">p = handler_b(p)</text>
</g>
<!-- handler_a&#45;&gt;handler_b -->
<g id="edge1" class="edge">
<title>handler_a&#45;&gt;handler_b</title>
<path fill="none" stroke="black" d="M105.5,-266.87C105.5,-258.89 105.5,-249.93 105.5,-241.38"/>
<polygon fill="black" stroke="black" points="109,-241.25 105.5,-231.25 102,-241.25 109,-241.25"/>
</g>
<!-- handler_c -->
<g id="node5" class="node">
<title>handler_c</title>
<path fill="lightblue" stroke="black" d="M163,-142C163,-142 48,-142 48,-142 42,-142 36,-136 36,-130 36,-130 36,-101 36,-101 36,-95 42,-89 48,-89 48,-89 163,-89 163,-89 169,-89 175,-95 175,-101 175,-101 175,-130 175,-130 175,-136 169,-142 163,-142"/>
<polygon fill="white" stroke="transparent" points="50.5,-102.5 50.5,-127.5 161.5,-127.5 161.5,-102.5 50.5,-102.5"/>
<polygon fill="none" stroke="black" points="50.5,-102.5 50.5,-127.5 161.5,-127.5 161.5,-102.5 50.5,-102.5"/>
<text text-anchor="start" x="57.5" y="-113.5" font-family="Courier,monospace" font-style="italic" font-size="10.00">p = handler_c(p)</text>
</g>
<!-- handler_b&#45;&gt;handler_c -->
<g id="edge2" class="edge">
<title>handler_b&#45;&gt;handler_c</title>
<path fill="none" stroke="black" d="M105.5,-177.87C105.5,-169.89 105.5,-160.93 105.5,-152.38"/>
<polygon fill="black" stroke="black" points="109,-152.25 105.5,-142.25 102,-152.25 109,-152.25"/>
</g>
<!-- handler_c&#45;&gt;end_sequential_flow -->
<g id="edge3" class="edge">
<title>handler_c&#45;&gt;end_sequential_flow</title>
<path fill="none" stroke="black" d="M105.5,-88.87C105.5,-80.89 105.5,-71.93 105.5,-63.38"/>
<polygon fill="black" stroke="black" points="109,-63.25 105.5,-53.25 102,-63.25 109,-63.25"/>
</g>
</g>
</svg>
