<?xml version="1.0" encoding="UTF-8" standalone="no"?>
<!DOCTYPE svg PUBLIC "-//W3C//DTD SVG 1.1//EN"
 "http://www.w3.org/Graphics/SVG/1.1/DTD/svg11.dtd">
<!-- Generated by graphviz version 2.43.0 (0)
 -->
<!-- Title: flow Pages: 1 -->
<svg width="231pt" height="239pt"
 viewBox="0.00 0.00 231.00 239.00" xmlns="http://www.w3.org/2000/svg" xmlns:xlink="http://www.w3.org/1999/xlink">
<g id="graph0" class="graph" transform="scale(1 1) rotate(0) translate(4 235)">
<title>flow</title>
<polygon fill="white" stroke="transparent" points="-4,4 -4,-235 227,-235 227,4 -4,4"/>
<!-- start_single_actor_flow -->
<g id="node1" class="node">
<title>start_single_actor_flow</title>
<path fill="lightgreen" stroke="black" d="M211,-231C211,-231 12,-231 12,-231 6,-231 0,-225 0,-219 0,-219 0,-190 0,-190 0,-184 6,-178 12,-178 12,-178 211,-178 211,-178 217,-178 223,-184 223,-190 223,-190 223,-219 223,-219 223,-225 217,-231 211,-231"/>
<polygon fill="white" stroke="transparent" points="14.5,-191.5 14.5,-216.5 209.5,-216.5 209.5,-191.5 14.5,-191.5"/>
<polygon fill="none" stroke="black" points="14.5,-191.5 14.5,-216.5 209.5,-216.5 209.5,-191.5 14.5,-191.5"/>
<text text-anchor="start" x="21.5" y="-202.5" font-family="Courier,monospace" font-style="italic" font-size="10.00">p = start_single_actor_flow(p)</text>
</g>
<!-- document_processor -->
<g id="node3" class="node">
<title>document_processor</title>
<path fill="lightblue" stroke="black" d="M196,-142C196,-142 27,-142 27,-142 21,-142 15,-136 15,-130 15,-130 15,-101 15,-101 15,-95 21,-89 27,-89 27,-89 196,-89 196,-89 202,-89 208,-95 208,-101 208,-101 208,-130 208,-130 208,-136 202,-142 196,-142"/>
<polygon fill="white" stroke="transparent" points="29.5,-102.5 29.5,-127.5 194.5,-127.5 194.5,-102.5 29.5,-102.5"/>
<polygon fill="none" stroke="black" points="29.5,-102.5 29.5,-127.5 194.5,-127.5 194.5,-102.5 29.5,-102.5"/>
<text text-anchor="start" x="36.5" y="-113.5" font-family="Courier,monospace" font-style="italic" font-size="10.00">p = document_processor(p)</text>
</g>
<!-- start_single_actor_flow&#45;&gt;document_processor -->
<g id="edge2" class="edge">
<title>start_single_actor_flow&#45;&gt;document_processor</title>
<path fill="none" stroke="black" d="M111.5,-177.87C111.5,-169.89 111.5,-160.93 111.5,-152.38"/>
<polygon fill="black" stroke="black" points="115,-152.25 111.5,-142.25 108,-152.25 115,-152.25"/>
</g>
<!-- end_single_actor_flow -->
<g id="node2" class="node">
<title>end_single_actor_flow</title>
<path fill="lightgreen" stroke="black" d="M205,-53C205,-53 18,-53 18,-53 12,-53 6,-47 6,-41 6,-41 6,-12 6,-12 6,-6 12,0 18,0 18,0 205,0 205,0 211,0 217,-6 217,-12 217,-12 217,-41 217,-41 217,-47 211,-53 205,-53"/>
<polygon fill="white" stroke="transparent" points="20.5,-13.5 20.5,-38.5 203.5,-38.5 203.5,-13.5 20.5,-13.5"/>
<polygon fill="none" stroke="black" points="20.5,-13.5 20.5,-38.5 203.5,-38.5 203.5,-13.5 20.5,-13.5"/>
<text text-anchor="start" x="27.5" y="-24.5" font-family="Courier,monospace" font-style="italic" font-size="10.00">p = end_single_actor_flow(p)</text>
</g>
<!-- document_processor&#45;&gt;end_single_actor_flow -->
<g id="edge1" class="edge">
<title>document_processor&#45;&gt;end_single_actor_flow</title>
<path fill="none" stroke="black" d="M111.5,-88.87C111.5,-80.89 111.5,-71.93 111.5,-63.38"/>
<polygon fill="black" stroke="black" points="115,-63.25 111.5,-53.25 108,-63.25 115,-63.25"/>
</g>
</g>
</svg>
